<?xml version="1.0" encoding="utf-8"?>
<!-- Generator: Adobe Illustrator 24.0.3, SVG Export Plug-In . SVG Version: 6.00 Build 0)  -->
<svg version="1.1" id="form_bg_svg" xmlns="http://www.w3.org/2000/svg" xmlns:xlink="http://www.w3.org/1999/xlink" x="0px"
	 y="0px" viewBox="0 0 1834 550" style="enable-background:new 0 0 1834 550;" xml:space="preserve">
<style type="text/css">
	.st0{fill:#9BBD58;}
	.st1{fill-rule:evenodd;clip-rule:evenodd;fill:#709C45;}
	.st2{fill-rule:evenodd;clip-rule:evenodd;fill:#9BBD58;}
</style>
<g>
	<path class="st0" d="M1721.1,68c-8.4,7.2-7.8,26.9,7.7,35.8c-11.2-9.4-4.1-20.3,1.2-26.8C1735.4,70.5,1728.6,61.6,1721.1,68z"/>
	<path class="st0" d="M1735.9,134.8c3.8-7.3,9.6-14.4,18.7-14.9c-15.7-8.6-34,2.2-34.6,12.2C1719.4,142,1732.1,142.1,1735.9,134.8z"
		/>
	<path class="st0" d="M1707.9,113.7c-5,8.6,4.9,13.6,10.5,7.2c5.5-6.4,15-15.3,26.2-5.8C1733,101.3,1713.5,104.2,1707.9,113.7z"/>
	<path class="st0" d="M1793.7,114.2c-8.1-1.3-16.7-4.7-19.9-13.3c-3.4,17.5,12.5,31.7,22.1,29.3
		C1805.6,127.6,1801.8,115.5,1793.7,114.2z"/>
	<path class="st0" d="M1797.4,102.5c-2.4-10.8-20-19.7-35.2-10.2c13.5-5.5,19.8,6,23,13.8C1788.4,113.8,1799.5,112.2,1797.4,102.5z"
		/>
	<path class="st0" d="M1773.7,83.3c6.4,5.1,18-0.1,13.3-9c-4.6-8.8-25.7-11.2-36.6,3.1C1759,74.2,1767.3,78.2,1773.7,83.3z"/>
	<path class="st0" d="M1725.6,89.6c17.8,0.7,28.8-15.8,25.5-26.3c-2.9-9.4-13.4-5.4-12.3,2.9S1740.1,87.6,1725.6,89.6z"/>
	<path class="st0" d="M1745.7,84.3c-4.3,6.9-10.8,13.5-20,13.3c14.9,9.9,34.1,0.7,35.5-9.1S1750.1,77.4,1745.7,84.3z"/>
	<path class="st0" d="M1737.8,106.9c9.1-0.4,15.6,6.2,20.1,13c4.4,6.9,17,5.7,15.6-4.2C1771.8,105.9,1752.6,96.9,1737.8,106.9z"/>
	<path class="st0" d="M1793,145.3c8.4,0.1,11.3-10.7,1.5-12.5c-10.8-2.1-26,10.6-23.3,28.3C1771.6,146.5,1784.6,145.2,1793,145.3z"
		/>
	<path class="st0" d="M1754.2,130.9c-8.2,0-13.9,11.3-4.9,15.3c9.1,4.1,27.1-7.3,26.7-25.1C1771.3,129.1,1762.3,131,1754.2,130.9z"
		/>
	<path class="st0" d="M1748.1,153c-4.9-6.9-11.3-18.2,0.4-26.8c-16,8-17.7,27.6-9.8,35.3C1745.9,168.5,1753.1,159.9,1748.1,153z"/>
	<path class="st0" d="M1768.7,156.4c0.3-9.9-10.9-9.4-12.6-1.2c-1.7,8.3-5.8,20.6-20.1,17.8C1752.7,179.4,1768.4,167.4,1768.7,156.4
		z"/>
	<path class="st0" d="M1711.4,163.9c7.7-3.6,20-7.7,26.3,5.4c-4.9-17.2-23.9-22.6-32.9-16.2C1696.7,158.8,1703.8,167.5,1711.4,163.9
		z"/>
	<path class="st0" d="M1732.6,146.4c-9.1-0.7-14.8-8-18.4-15.3c-3.6-7.4-16.3-7.6-15.9,2.4C1698.6,143.5,1716.7,154.7,1732.6,146.4z
		"/>
	<path class="st0" d="M1691.9,103.6c-2-8-14.4-10.8-16.1-1s13.6,24.5,30.9,19.8C1697.9,119.9,1693.8,111.5,1691.9,103.6z"/>
	<path class="st0" d="M1707.2,148.7c-14.5,0.7-16.8-12.1-17.3-20.5c-0.5-8.4-11.5-10.5-12.7-0.6
		C1675.9,138.5,1689.8,152.7,1707.2,148.7z"/>
	<path class="st0" d="M1680.4,79.8c-9.9-0.1-9.3,11.1-1,12.6c8.3,1.5,20.7,5.5,18.1,19.8C1703.7,95.4,1691.5,80,1680.4,79.8z"/>
	<path class="st0" d="M1743.5,45c6.5-5.4,1.6-15.5-6.9-10.5c-9.6,5.5-12.8,24.9,0.7,36.6C1728,59.8,1737,50.4,1743.5,45z"/>
	<path class="st0" d="M1710.5,106.7c9.8,1.8,11.4-10.8,4.6-15.4c-6.8-4.6-13.2-11.2-12.6-20.3C1692.1,85.5,1700.7,105,1710.5,106.7z
		"/>
	<path class="st0" d="M1724.2,41.5c4.1-7.4,11.8-17.8,24.6-10.8c-13.9-11.2-32.5-4.6-36.2,5.8C1709.3,45.8,1720.1,48.8,1724.2,41.5z
		"/>
	<path class="st0" d="M1722.2,50.4c-9.1-4-27,7.5-26.4,25.4c4.6-8,13.6-10,21.7-10C1725.7,65.8,1731.3,54.3,1722.2,50.4z"/>
	<path class="st0" d="M1737.8,55.4c17.6,2.9,31.4-13.2,28.7-22.8c-2.7-9.6-14.7-5.5-15.9,2.6C1749.5,43.3,1746.3,52,1737.8,55.4z"/>
	<path class="st0" d="M1762.4,48.9c8.6-3.3,16.8,0.8,23.2,5.9s18-0.1,13.3-9C1794.3,37.1,1773.2,34.7,1762.4,48.9z"/>
	<path class="st0" d="M1762.9,65.4c7.5-3.8,19.8-8.3,26.5,4.6c-5.4-17-24.6-21.8-33.4-15.2C1748.1,60.7,1755.4,69.2,1762.9,65.4z"/>
	<path class="st0" d="M1806.9,75.3c4.1,7.1,16.8,6.3,15.7-3.6c-1.2-9.9-20.1-19.6-35.2-10.2C1796.6,61.4,1802.8,68.2,1806.9,75.3z"
		/>
	<path class="st0" d="M1804.5,73.9c-3.4,17.5,12.5,31.7,22.1,29.3c9.7-2.4,5.9-14.6-2.2-15.9C1816.3,85.9,1807.7,82.5,1804.5,73.9z"
		/>
	<path class="st0" d="M1802.3,79.6c1.3-8.3-9-12.7-12.2-3.3c-3.5,10.5,6.9,27.2,24.8,27.1C1800.5,101,1801,88,1802.3,79.6z"/>
	<path class="st0" d="M1832.7,117.5c-3.7-10.4-22.3-17-36.2-5.7c12.8-7.1,20.4,3.4,24.6,10.8
		C1825.3,129.9,1836.1,126.8,1832.7,117.5z"/>
	<path class="st0" d="M1794,147.7c17.7-2.3,25.8-20.3,20.8-30.2c-4.5-8.8-14.1-3.1-11.6,4.9C1805.6,130.6,1807.9,143.4,1794,147.7z"
		/>
	<path class="st0" d="M1807.1,144.6c-6.7,4.7-4.8,17.3,4.9,15.3c9.8-2,17.8-21.6,7.2-36C1820,133,1813.7,139.8,1807.1,144.6z"/>
	<path class="st0" d="M1813.7,163.2c-10.6-3.1-26.8,8.1-25.9,26c1.7-14.5,14.7-14.5,23.1-13.6C1819.3,176.5,1823.2,166,1813.7,163.2
		z"/>
	<path class="st0" d="M1799.6,157.3c0.4-9.9-10.8-9.6-12.6-1.3c-1.8,8.3-6,20.6-20.3,17.6C1783.5,180.2,1799.3,168.3,1799.6,157.3z"
		/>
	<path class="st0" d="M1767.5,166.7c-3.8,14.1-16.7,12.3-24.8,10.2c-8.2-2.1-13.5,7.7-4.5,11.9
		C1748.2,193.2,1765.9,184.5,1767.5,166.7z"/>
	<path class="st0" d="M1779.1,178.6c-9.9-1.5-24.3,14-19.2,31.2c2.4-8.8,10.6-13,18.6-15.1C1786.4,192.6,1789,180.1,1779.1,178.6z"
		/>
	<path class="st0" d="M1729.8,172.1c0.8-8.2-10-15-14.8-6.2c-4.9,8.7,4.8,27.6,22.6,28.9C1730.2,189.3,1729.1,180.2,1729.8,172.1z"
		/>
	<path class="st0" d="M1737,196.1c-8.2-0.4-14.5,10.6-5.6,15.1c0.5,0.3,1.1,0.5,1.8,0.7v337.6h3.8V212.2
		c9.4-0.5,21.9-10.2,22.3-24.8C1754.3,195,1745.2,196.5,1737,196.1z"/>
	<path class="st0" d="M1717.8,203.5c9.4,3.2,12.3-7.5,4.9-11.6c-7.4-4.1-17.9-11.7-10.9-24.5
		C1700.6,181.3,1707.4,199.9,1717.8,203.5z"/>
	<path class="st0" d="M1701.4,184c-1.1-8.1-13.2-12.2-15.9-2.6c-2.7,9.6,11.1,25.8,28.7,22.9C1705.7,200.7,1702.5,192.1,1701.4,184z
		"/>
	<path class="st0" d="M1681.8,163.1c8,1.8,16.4,5.6,19.2,14.3c4.3-17.3-10.8-32.3-20.6-30.4C1670.6,149,1673.8,161.3,1681.8,163.1z"
		/>
	<path class="st0" d="M1655.4,155.3c14.5,0.9,15.3,13.9,15,22.3c-0.4,8.4,10.2,11.6,12.5,2.1
		C1685.4,168.8,1673.2,153.2,1655.4,155.3z"/>
	<path class="st0" d="M1674.7,146.7c2.4-9.4-11.4-24.8-28.5-21.5c8.3,3.2,11.6,11.5,13,19.4C1660.5,152.5,1672.3,156.1,1674.7,146.7
		z"/>
	<path class="st0" d="M1675.6,127c-8.3-3.8-11.2-12.5-12-20.7c-0.8-8.2-12.7-12.7-15.8-3.2C1644.7,112.6,1657.9,129.3,1675.6,127z"
		/>
	<path class="st0" d="M1675.7,110.2c-12.9-6.9-8.3-19-4.3-26.5c3.9-7.5-4.5-14.9-10.5-7C1654.2,85.4,1658.7,104.7,1675.7,110.2z"/>
	<path class="st0" d="M1684.1,57.2c-10.8-3.5-28,7.5-27.6,26c2.2-14.9,15.7-14.6,24.3-13.3S1693.8,60.4,1684.1,57.2z"/>
	<path class="st0" d="M1671.3,32.5c0,0-0.3,2.3-1.8,4.7c1.7,0,4.3-4.5,4.3-4.5s2.3,1,4.8,1.7l1,1.1l4.6,6c-5.3,3.1-10,8.2-12,15.3
		c6.8-6.2,15.9-5.3,23.7-2.9c7.8,2.4,16.7-6.6,9.2-13.2c-3.2-2.8-8.8-3.4-14.5-1.8c-1.4-0.7-2.5-1.5-2.7-1.6c-0.3-0.3-0.1-1.8,0-2.7
		c3.6-0.7,7.4-2.4,9.3-5.8c3.2-5.9,1.8-8.1,2.1-10.8c0.1-1,1.5-3.5,1.5-3.5s2.4-0.4,3.2-0.7c-0.3-0.7-2.4-1.1-2.4-1.1
		s-0.5-3.9-6.6-3.8c-6.2,0-16.1,13-18.9,16.7c-2.8,3.5-21.2,10.5-20.5,12.1C1656.2,38.9,1671.3,32.5,1671.3,32.5z M1680.6,34.8
		c0.1,0,0.3,0.1,0.5,0.1c1.1,0.1,2.9,0.1,4.9-0.1c-0.2,0.7-0.5,1.5-0.4,2c0,0.4,1.9,1.4,4,2.4c-1.3,0.4-2.5,0.9-3.8,1.5
		c-0.4,0-0.7,0-1-0.1c-1.5-0.6-3.9-4.9-4.2-5.2C1680.5,35.2,1680.6,35,1680.6,34.8z"/>
</g>
<g>
	<path class="st1" d="M1626.5,310.8c-4.7-2.7-9.6,2.6-4.7,6.6c5.4,4.5,17.9,2,21.8-8.8C1638.9,316.6,1631.2,313.4,1626.5,310.8z"/>
	<path class="st1" d="M1662.3,311c6.4-0.7,5-8.7,0-10.3s-10.1-4.4-11.5-10.2C1647.1,301.3,1655.9,311.7,1662.3,311z"/>
	<path class="st1" d="M1655.4,313.3c-4.6-2.7-11.3-7.8-6.6-15.9c-7.4,8.7-3.4,20.7,3.2,23.2C1658,322.9,1660.1,316.1,1655.4,313.3z"
		/>
	<path class="st1" d="M1636.7,280.5c11.4,0.2,18.6-11.4,16-17.2c-2.6-5.8-9.9-2.1-9.8,3.2S1641.7,277.5,1636.7,280.5z"/>
	<path class="st1" d="M1632.5,288.8c-4.9-7.9,1.6-13.2,6.1-16.1c4.6-2.9,2.3-9.7-3.6-7.3C1628.6,268.2,1624.9,280.2,1632.5,288.8z"
		/>
	<path class="st1" d="M1618.5,275.1c-5.1,3.9-4.2,17.5,6,22.7c-3-5-1.4-10.7,1.2-15.3C1628.1,277.9,1623.5,271.1,1618.5,275.1z"/>
	<path class="st1" d="M1618.6,306.4c5.2-1.6,13.4-3.1,16.2,5.7c-1.6-11.4-13.2-16.4-19.4-13.2C1609.8,301.9,1613.5,308,1618.6,306.4
		z"/>
	<path class="st1" d="M1630.2,289.8c-6.4,0.2-5.7,8.3-0.9,10.2c4.9,2,9.7,5.3,10.6,11.1C1644.5,300.6,1636.6,289.6,1630.2,289.8z"/>
	<path class="st1" d="M1646.1,279.1c-6.1,2.1-9.6,15.2-1.7,23.4c-1.2-5.7,2.2-10.6,6.1-14.1C1654.4,284.9,1652.1,277,1646.1,279.1z"
		/>
	<path class="st1" d="M1662.6,263.4c-0.9-5.3-8-5.9-8.1,0.4c-0.1,7.1,9.6,15.2,20.4,11.6C1665.7,276.8,1663.4,268.8,1662.6,263.4z"
		/>
	<path class="st1" d="M1657.9,289.6c0.9,5.2,8.7,7.6,10.2,1.4s-7.6-16.3-18.8-14.1C1654.7,278.9,1656.9,284.4,1657.9,289.6z"/>
	<path class="st1" d="M1678.9,295.9c3.6-5.2-2.6-8.9-6.4-5c-3.7,3.9-10.2,9.1-17,2.7C1662.3,302.8,1674.9,301.8,1678.9,295.9z"/>
	<path class="st1" d="M1686.4,296.4c2.2-11.2-7.1-19.8-14.1-18.7c-6.2,0.9-4.7,7.9,0.6,8.1C1678.4,285.8,1686.6,287,1686.4,296.4z"
		/>
	<path class="st1" d="M1683.4,312.9c-3.1-4.4-7.1-11.7,0.5-17.2c-10.3,5-11.6,17.6-6.6,22.5C1681.7,322.7,1686.5,317.3,1683.4,312.9
		z"/>
	<path class="st1" d="M1662.4,314.7c-4.2,3.1-3,11.1,3.2,9.8s11.3-14,4.4-23.1C1670.6,307.3,1666.6,311.7,1662.4,314.7z"/>
	<path class="st1" d="M1657.7,320.4c-0.7,5.8-5.4,9.3-10.2,11.4c-4.8,2.1-5.2,10.2,1.2,10.2C1655,342.1,1662.6,330.8,1657.7,320.4z"
		/>
	<path class="st1" d="M1664.2,338.5c7.1-0.4,14.4-10.7,10-21.2c2.1,9.1-5.7,11.9-11,13.2C1657.9,331.7,1657.9,338.9,1664.2,338.5z"
		/>
	<path class="st1" d="M1633.7,341.7c1,6.2,8,4.6,8.1-0.7c0.1-5.4,1.1-13.7,10.5-13.6C1641,325.3,1632.6,334.7,1633.7,341.7z"/>
	<path class="st1" d="M1598.9,311.4c4.5,5.4,17.2,5.4,23-4.4c-6.1,7.1-13.1,2.4-17.2-1.1C1600.7,302.3,1594.8,306.4,1598.9,311.4z"
		/>
	<path class="st1" d="M1647.4,319.8c0-6.4-8.1-6-10.2-1.2s-5.6,9.6-11.4,10.2C1636,333.7,1647.4,326.2,1647.4,319.8z"/>
	<path class="st1" d="M1604.7,318.3c-5.1-1.8-12.6-5.5-9.6-14.3c-5.6,10,0.7,21,7.7,22.2C1609.1,327.2,1609.8,320.1,1604.7,318.3z"
		/>
	<path class="st1" d="M1629.5,332.5c-5.5-2-7.8-7.4-8.7-12.6c-0.9-5.2-8.7-7.5-10.2-1.2C1609.1,324.9,1618.3,334.9,1629.5,332.5z"/>
	<path class="st1" d="M1597.8,302.3c5.2-0.2,11.1,0.9,14.2,5.9c-0.1-11.4-11.8-18.4-17.6-15.6
		C1588.7,295.4,1592.6,302.5,1597.8,302.3z"/>
	<path class="st1" d="M1605.2,293.4c-3-5-1.4-10.7,1.2-15.3c2.5-4.6-2.1-11.3-7.1-7.4C1594.2,274.6,1595,288.1,1605.2,293.4z"/>
	<path class="st1" d="M1615.5,274.1c-10.2,5.3-11.1,17.9-5.9,22.7c4.6,4.3,9.2-1.2,5.9-5.6C1612.2,287,1608,279.7,1615.5,274.1z"/>
	<path class="st1" d="M1616.8,262.4c4-3.4,2.1-11.3-4-9.5s-10.2,14.8-2.6,23.4C1609.3,270.5,1612.8,265.8,1616.8,262.4z"/>
	<path class="st1" d="M1616.3,264.1c11.4,0.2,18.6-11.4,16-17.2c-2.6-5.8-9.9-2.1-9.8,3.2C1622.5,255.3,1621.3,261.1,1616.3,264.1z"
		/>
	<path class="st1" d="M1620.1,264.8c-5.4,0.1-7,7.1-0.7,8.1c7,1.1,16.4-7.4,14.3-18.6C1633.8,263.7,1625.6,264.8,1620.1,264.8z"/>
	<path class="st1" d="M1641.1,264.9c-5.9-7.2-0.1-13.2,4.1-16.7c4.2-3.4,1.1-9.9-4.4-6.7C1634.5,244.9,1632.4,257.4,1641.1,264.9z"
		/>
	<path class="st1" d="M1642.6,252.7c-5.1,3.8-0.4,9.2,4.4,6.8c4.8-2.4,12.7-5.3,16.9,3C1660.6,251.6,1648.3,248.5,1642.6,252.7z"/>
	<path class="st1" d="M1660.6,254.7c3.7,3.7,11.4,1.1,9.1-4.8c-2.3-5.9-15.6-8.9-23.5-0.6C1651.9,247.8,1656.8,251,1660.6,254.7z"/>
	<path class="st1" d="M1690.9,261.9c-9.3,0.5-10.8-7.7-11.1-13.1c-0.3-5.4-7.4-6.7-8.1-0.4C1670.9,255.5,1679.7,264.5,1690.9,261.9z
		"/>
	<path class="st1" d="M1670,266c5.4,0.2,13.6,1.5,13.4,10.8c2.3-11.2-6.9-19.9-13.9-18.9C1663.2,258.8,1664.6,265.8,1670,266z"/>
	<path class="st1" d="M1678.9,277.2c9.3,0.8,9.6,9.2,9.2,14.6c-0.4,5.4,6.4,7.7,8,1.5C1697.8,286.5,1690.3,276.2,1678.9,277.2z"/>
	<path class="st1" d="M1685.1,268.5c0.1,6.4,11.6,13.8,21.8,8.7c-5.8-0.6-9.4-5.2-11.6-10.1C1693.2,262.4,1685,262.1,1685.1,268.5z"
		/>
	<path class="st1" d="M1686.5,300.4c-5.2,0.4-8.3,7.9-2.3,10.1c6.1,2.1,16.9-6.1,15.7-17.4C1697.3,298.3,1691.7,299.9,1686.5,300.4z
		"/>
	<path class="st1" d="M1692.8,280.1c5.4,2.3,7.3,7.9,8,13.1c0.6,5.2,8.3,8,10.1,1.9C1712.8,288.9,1704.2,278.4,1692.8,280.1z"/>
	<path class="st1" d="M1707.7,304.4c1-6.2-6.1-6.9-7.9-1.8c-1.7,5.1-5.4,12.6-14.2,9.6C1695.5,317.7,1706.5,311.4,1707.7,304.4z"/>
	<path class="st1" d="M1697.2,317c-5,1.6-6.2,9.7,0.1,10.3c6.4,0.6,15.1-9.8,11.2-20.6C1707.2,312.4,1702.2,315.4,1697.2,317z"/>
	<path class="st1" d="M1686.1,331.7c0.2-5.2,1.7-10.9,6.9-13.7c-11.4-0.8-19.2,10.4-16.9,16.3
		C1678.5,340.2,1685.9,336.9,1686.1,331.7z"/>
	<path class="st1" d="M1696.4,329.2c-7.1-0.4-15.6,9-12.3,20c-1.1-9.2,7.1-11.2,12.4-11.9C1701.8,336.6,1702.7,329.5,1696.4,329.2z"
		/>
	<path class="st1" d="M1676.5,337.9c-6.2-0.5-14.4,9.9-10.4,20.4c1.1-5.6,6-8.6,10.8-10.4C1681.7,346.3,1682.8,338.4,1676.5,337.9z"
		/>
	<path class="st1" d="M1652.3,349.5c-3.8,1.1-5.6,5.9-3.6,8.6v190.5h3.3V359.8c6.3,0.9,15.4-9.2,12-20.2
		C1662.6,345.3,1657.4,348,1652.3,349.5z"/>
	<path class="st1" d="M1633.9,354.4c6.2,3.2,17.9-1.7,19.5-13.1c-2.9,8.9-11.1,7.3-16.2,5.7C1632,345.4,1628.3,351.5,1633.9,354.4z"
		/>
	<path class="st1" d="M1627.4,342.5c-0.2-5.6-7.4-7.1-8.4-0.6c-1.1,7.2,7.9,16.9,19.5,14.6C1628.9,356.7,1627.6,348.1,1627.4,342.5z
		"/>
	<path class="st1" d="M1615.6,334.9c0.7-5.2-6.1-9.8-9.4-4.3c-3.3,5.4,2.4,17.8,13.8,19C1615.5,346,1615,340.1,1615.6,334.9z"/>
</g>
<g>
	<path class="st2" d="M263.2,326.4c-5.2-2.9-10.7,2.8-5.3,7.3c6,4.9,19.8,2.2,24.1-9.7C276.9,333,268.3,329.5,263.2,326.4z"/>
	<path class="st2" d="M302.6,326.8c7-0.8,5.5-9.7,0-11.4c-5.5-1.8-11.2-4.9-12.6-11.2C285.9,316.1,295.6,327.6,302.6,326.8z"/>
	<path class="st2" d="M291.4,337.4c6.6,2.5,8.9-5.2,3.7-8.2c-5.2-3-12.4-8.7-7.3-17.6C279.7,321.4,284,334.8,291.4,337.4z"/>
	<path class="st2" d="M274.4,293.1c12.6,0.2,20.6-12.5,17.7-19s-10.9-2.3-10.9,3.5C281.2,283.4,279.9,289.8,274.4,293.1z"/>
	<path class="st2" d="M269.8,302.2c-5.4-8.8,1.8-14.5,6.8-17.8c5-3.2,2.6-10.7-4-8.1C265.4,279.4,261.4,292.8,269.8,302.2z"/>
	<path class="st2" d="M254.3,287.1c-5.6,4.3-4.7,19.3,6.6,25c-3.4-5.5-1.5-11.8,1.3-16.9C264.9,290.2,259.9,282.8,254.3,287.1z"/>
	<path class="st2" d="M254.5,321.6c5.7-1.8,14.7-3.5,17.9,6.3c-1.8-12.5-14.5-18.1-21.4-14.5C244.7,316.7,248.8,323.4,254.5,321.6z"
		/>
	<path class="st2" d="M267.3,303.3c-7,0.2-6.3,9.1-0.9,11.4c5.4,2.2,10.8,5.9,11.7,12.3C283,315.3,274.3,303.2,267.3,303.3z"/>
	<path class="st2" d="M284.8,291.6c-6.7,2.2-10.7,16.7-1.9,25.9c-1.4-6.3,2.3-11.7,6.7-15.6C293.8,298,291.5,289.3,284.8,291.6z"/>
	<path class="st2" d="M303,274.2c-0.9-5.9-8.9-6.6-8.9,0.5c-0.1,7.8,10.5,16.7,22.6,12.8C306.4,289,303.9,280.1,303,274.2z"/>
	<path class="st2" d="M297.7,303.2c0.9,5.7,9.6,8.3,11.2,1.5c1.8-6.9-8.4-18-20.8-15.6C294.3,291.3,296.8,297.4,297.7,303.2z"/>
	<path class="st2" d="M321,310.1c4-5.7-2.9-9.8-7-5.5c-4.2,4.3-11.2,10.1-18.7,3C302.6,317.8,316.6,316.5,321,310.1z"/>
	<path class="st2" d="M329.3,310.6c2.5-12.4-7.8-21.9-15.6-20.7c-6.9,1.1-5.3,8.8,0.7,8.9C320.4,298.9,329.5,300.3,329.3,310.6z"/>
	<path class="st2" d="M325.9,328.9c-3.4-4.9-7.8-13,0.6-19c-11.4,5.5-12.8,19.4-7.3,24.9C324.2,339.8,329.3,333.7,325.9,328.9z"/>
	<path class="st2" d="M302.7,330.9c-4.7,3.4-3.3,12.3,3.6,10.8s12.5-15.5,4.8-25.5C311.8,322.7,307.4,327.5,302.7,330.9z"/>
	<path class="st2" d="M287.5,361.2c7,0,15.5-12.5,10.1-23.9c-0.7,6.4-6,10.3-11.4,12.6C281,352.2,280.5,361.2,287.5,361.2z"/>
	<path class="st2" d="M304.7,357.1c7.8-0.5,15.9-11.8,11.1-23.4c2.3,10.1-6.3,13.2-12.2,14.6C297.8,349.6,297.8,357.6,304.7,357.1z"
		/>
	<path class="st2" d="M280,359.8c0.1-6,1.3-15.1,11.6-15.1c-12.4-2.2-21.8,8.2-20.5,15.9C272.2,367.6,279.9,365.8,280,359.8z"/>
	<path class="st2" d="M232.6,327.1c4.9,6,19,6,25.5-4.9c-6.8,7.7-14.4,2.7-19-1.2C234.6,317.2,228.2,321.8,232.6,327.1z"/>
	<path class="st2" d="M286.1,336.5c0-7-9-6.6-11.4-1.3s-6.2,10.5-12.6,11.2C273.7,351.8,286.1,343.5,286.1,336.5z"/>
	<path class="st2" d="M239.1,334.9c-5.6-2-13.9-6.1-10.5-15.8c-6.1,11.1,0.8,23.2,8.4,24.5C243.9,344.7,244.7,336.9,239.1,334.9z"/>
	<path class="st2" d="M266.5,350.6c-6.1-2.2-8.5-8.2-9.6-13.9c-1.1-5.7-9.7-8.3-11.4-1.4C243.9,342.1,254,353.1,266.5,350.6z"/>
	<path class="st2" d="M231.5,317.2c5.7-0.2,12.2,0.9,15.7,6.4c-0.1-12.6-13-20.3-19.4-17.2C221.4,309.5,225.7,317.4,231.5,317.2z"/>
	<path class="st2" d="M239.6,307.4c-3.4-5.5-1.5-11.8,1.3-16.9c2.8-5-2.3-12.5-7.8-8.2C227.4,286.5,228.3,301.5,239.6,307.4z"/>
	<path class="st2" d="M250.9,285.9c-11.2,5.9-12.2,19.8-6.6,25.2c5.2,4.8,10.1-1.4,6.6-6.1C247.4,300.2,242.7,292.3,250.9,285.9z"/>
	<path class="st2" d="M252.5,273.1c4.4-3.7,2.3-12.5-4.4-10.5c-6.8,2-11.2,16.4-2.8,25.8C244.1,282,248.1,276.8,252.5,273.1z"/>
	<path class="st2" d="M251.8,274.9c12.6,0.2,20.6-12.5,17.7-19s-10.9-2.3-10.9,3.5C258.7,265.2,257.4,271.7,251.8,274.9z"/>
	<path class="st2" d="M256.2,275.9c-6,0.1-7.7,7.8-0.8,8.9c7.7,1.2,18.1-8.1,15.8-20.6C271.3,274.5,262.1,275.8,256.2,275.9z"/>
	<path class="st2" d="M279.2,275.9c-6.6-8-0.1-14.6,4.4-18.5c4.6-3.7,1.2-10.9-4.9-7.5C272,253.9,269.6,267.6,279.2,275.9z"/>
	<path class="st2" d="M281,262.4c-5.6,4.2-0.5,10.2,4.9,7.5c5.4-2.7,13.9-5.9,18.7,3.3C300.8,261.2,287.2,257.7,281,262.4z"/>
	<path class="st2" d="M300.8,264.5c4.1,4.1,12.6,1.3,10.1-5.3c-2.6-6.6-17.2-9.8-26-0.6C291.2,257,296.7,260.4,300.8,264.5z"/>
	<path class="st2" d="M334.2,272.5c-10.3,0.6-11.9-8.5-12.3-14.5c-0.4-6-8.2-7.4-8.9-0.5C312.1,265.5,321.9,275.4,334.2,272.5z"/>
	<path class="st2" d="M311.2,277c6,0.2,15.1,1.6,14.7,11.9c2.6-12.4-7.6-21.9-15.3-20.8C303.6,269.1,305.2,276.8,311.2,277z"/>
	<path class="st2" d="M321,289.5c10.3,0.9,10.7,10.1,10.2,16c-0.5,6,7,8.4,8.8,1.6C341.8,299.6,333.6,288.4,321,289.5z"/>
	<path class="st2" d="M327.9,279.9c0.1,7,12.8,15.2,24.1,9.6c-6.4-0.6-10.4-5.9-12.8-11.1C336.7,273.1,327.8,272.8,327.9,279.9z"/>
	<path class="st2" d="M329.3,315.1c-5.7,0.5-9.2,8.8-2.6,11.1c6.7,2.3,18.7-6.7,17.3-19.3C341.4,312.7,335.2,314.6,329.3,315.1z"/>
	<path class="st2" d="M336.5,292.6c6,2.6,8.1,8.7,8.8,14.5c0.7,5.7,9.1,8.8,11.2,2C358.5,302.3,349,290.7,336.5,292.6z"/>
	<path class="st2" d="M352.7,319.5c1.2-6.9-6.8-7.6-8.8-2c-2,5.6-6,13.9-15.8,10.7C339.4,334.3,351.4,327.3,352.7,319.5z"/>
	<path class="st2" d="M341.1,333.5c-5.5,1.8-6.9,10.7,0.1,11.4s16.6-10.9,12.4-22.8C352.3,328.3,346.6,331.6,341.1,333.5z"/>
	<path class="st2" d="M329,349.6c0.2-5.7,1.9-12.1,7.6-15.1c-12.6-0.9-21.2,11.5-18.6,18C320.5,359.1,328.7,355.4,329,349.6z"/>
	<path class="st2" d="M340.3,346.8c-7.8-0.5-17.2,9.9-13.6,22.1c-1.2-10.3,7.8-12.4,13.7-13.1C346.4,355.1,347.3,347.2,340.3,346.8z
		"/>
	<path class="st2" d="M318.4,356.5c-6.9-0.5-15.9,11-11.6,22.5c1.2-6.2,6.6-9.6,11.9-11.5C324.2,365.8,325.3,357,318.4,356.5z"/>
	<path class="st2" d="M291.6,369.3L291.6,369.3v-1.4H290c1.4-2.1,2.5-4.7,2.8-7.6c-3.2,9.8-12.3,8.1-17.9,6.2
		c-5.7-1.8-9.8,4.9-3.6,8.2c4.2,2.2,10.7,0.9,15.5-3.2v176.1c0,1.3,1.1,2.4,2.4,2.4l0,0c1.3,0,2.4-1.1,2.4-2.4v-167
		c7,0.7,16.7-10.4,13-22.4C303,364.6,297.2,367.6,291.6,369.3z"/>
	<path class="st2" d="M264.1,361.6c-0.2-6.2-8.2-7.8-9.2-0.7c-1.2,8,8.7,18.6,21.5,16C265.8,377.2,264.3,367.8,264.1,361.6z"/>
	<path class="st2" d="M251.1,353.1c0.8-5.7-6.7-10.8-10.3-4.8c-3.6,6.1,2.7,19.7,15.2,21C250.9,365.4,250.4,358.9,251.1,353.1z"/>
</g>
<g>
	<path class="st1" d="M368.4,417c-3.1-1.7-6.3,1.7-3.1,4.3c3.5,2.9,11.6,1.3,14.2-5.7C376.5,420.8,371.5,418.7,368.4,417z"/>
	<path class="st1" d="M391.7,417.1c4.1-0.5,3.3-5.7,0-6.7c-3.3-1-6.6-2.9-7.5-6.6C381.9,410.9,387.6,417.6,391.7,417.1z"/>
	<path class="st1" d="M387.3,418.7c-3-1.8-7.3-5.1-4.3-10.3c-4.8,5.7-2.2,13.5,2.1,15.1C388.9,424.9,390.3,420.5,387.3,418.7z"/>
	<path class="st1" d="M375.1,397.3c7.5,0.1,12.1-7.4,10.4-11.2c-1.7-3.8-6.4-1.3-6.4,2.1C379.1,391.5,378.3,395.3,375.1,397.3z"/>
	<path class="st1" d="M372.3,402.7c-3.2-5.2,1-8.6,4-10.5c3-1.9,1.5-6.3-2.3-4.7C369.8,389.2,367.4,397.1,372.3,402.7z"/>
	<path class="st1" d="M363.2,393.7c-3.3,2.5-2.7,11.4,3.9,14.8c-2-3.3-0.9-6.9,0.7-9.9C369.5,395.6,366.5,391.2,363.2,393.7z"/>
	<path class="st1" d="M363.3,414.1c3.3-1.1,8.7-2.1,10.5,3.7c-1-7.4-8.6-10.7-12.7-8.6C357.5,411.2,359.9,415.2,363.3,414.1z"/>
	<path class="st1" d="M370.9,403.3c-4.1,0.1-3.7,5.4-0.5,6.7c3.2,1.3,6.3,3.5,6.9,7.3C380.1,410.4,375,403.2,370.9,403.3z"/>
	<path class="st1" d="M381.2,396.4c-3.9,1.3-6.3,9.9-1.1,15.3c-0.8-3.7,1.4-6.9,3.9-9.2C386.6,400.1,385.1,395.1,381.2,396.4z"/>
	<path class="st1" d="M391.9,386.2c-0.5-3.5-5.2-3.9-5.3,0.3c-0.1,4.6,6.3,9.9,13.3,7.5C393.9,394.9,392.5,389.7,391.9,386.2z"/>
	<path class="st1" d="M388.9,403.2c0.6,3.4,5.7,4.9,6.7,0.9s-4.9-10.6-12.3-9.1C386.8,396.3,388.3,399.8,388.9,403.2z"/>
	<path class="st1" d="M402.6,407.3c2.3-3.4-1.7-5.8-4.2-3.3c-2.5,2.5-6.7,5.9-11.1,1.7C391.7,411.8,399.9,411.1,402.6,407.3z"/>
	<path class="st1" d="M407.5,407.6c1.4-7.3-4.7-12.9-9.2-12.2c-4.1,0.6-3.1,5.1,0.4,5.3C402.2,400.7,407.6,401.5,407.5,407.6z"/>
	<path class="st1" d="M405.5,418.4c-2-2.9-4.6-7.7,0.3-11.2c-6.7,3.3-7.5,11.5-4.3,14.7C404.4,424.8,407.5,421.3,405.5,418.4z"/>
	<path class="st1" d="M391.8,419.6c-2.8,2-1.9,7.3,2.1,6.4c4.1-0.9,7.3-9.1,2.9-15C397.1,414.7,394.5,417.6,391.8,419.6z"/>
	<path class="st1" d="M388.7,423.3c-0.4,3.8-3.5,6.1-6.7,7.5c-3.1,1.4-3.4,6.7,0.7,6.7C386.9,437.5,391.9,430.1,388.7,423.3z"/>
	<path class="st1" d="M393,435.1c4.6-0.3,9.4-6.9,6.5-13.9c1.3,5.9-3.7,7.8-7.2,8.6C388.9,430.6,388.9,435.3,393,435.1z"/>
	<path class="st1" d="M373.1,437.1c0.7,4.1,5.2,3,5.3-0.5c0.1-3.5,0.7-8.9,6.8-8.9C377.9,426.5,372.4,432.6,373.1,437.1z"/>
	<path class="st1" d="M350.5,417.4c2.9,3.5,11.2,3.5,15-2.9c-4,4.6-8.5,1.5-11.2-0.7C351.6,411.5,347.8,414.2,350.5,417.4z"/>
	<path class="st1" d="M382,422.9c0-4.1-5.3-3.9-6.7-0.7c-1.4,3.1-3.7,6.2-7.5,6.7C374.7,431.9,382,427,382,422.9z"/>
	<path class="st1" d="M354.2,421.9c-3.3-1.2-8.2-3.6-6.2-9.3c-3.6,6.5,0.5,13.7,5,14.5C357.1,427.7,357.5,423.1,354.2,421.9z"/>
	<path class="st1" d="M370.4,431.1c-3.6-1.3-5.1-4.9-5.7-8.2c-0.6-3.3-5.7-4.9-6.7-0.8C357.1,426.2,363.1,432.7,370.4,431.1z"/>
	<path class="st1" d="M349.7,411.5c3.4-0.1,7.2,0.6,9.2,3.8c-0.1-7.5-7.7-11.9-11.5-10.1C343.8,407,346.3,411.6,349.7,411.5z"/>
	<path class="st1" d="M354.5,405.7c-2-3.3-0.9-6.9,0.7-9.9c1.7-3-1.3-7.4-4.7-4.9C347.3,393.4,347.9,402.3,354.5,405.7z"/>
	<path class="st1" d="M361.3,393.1c-6.6,3.5-7.2,11.7-3.9,14.8c3,2.8,6-0.8,3.9-3.6C359.1,401.5,356.4,396.8,361.3,393.1z"/>
	<path class="st1" d="M362.1,385.4c2.6-2.2,1.4-7.4-2.6-6.2s-6.6,9.7-1.7,15.2C357.2,390.7,359.5,387.6,362.1,385.4z"/>
	<path class="st1" d="M361.8,386.6c7.5,0.1,12.1-7.4,10.4-11.2c-1.7-3.8-6.4-1.3-6.4,2.1C365.9,380.8,365.1,384.6,361.8,386.6z"/>
	<path class="st1" d="M364.3,387.1c-3.5,0.1-4.5,4.6-0.5,5.3c4.5,0.7,10.7-4.8,9.3-12.1C373.2,386.3,367.8,387,364.3,387.1z"/>
	<path class="st1" d="M377.9,387.1c-3.8-4.7-0.1-8.7,2.7-10.9c2.7-2.3,0.7-6.5-2.9-4.4C373.7,374.1,372.3,382.2,377.9,387.1z"/>
	<path class="st1" d="M378.9,379.2c-3.3,2.5-0.3,6,2.9,4.4c3.1-1.6,8.3-3.5,11,1.9C390.7,378.4,382.7,376.4,378.9,379.2z"/>
	<path class="st1" d="M390.6,380.4c2.4,2.4,7.5,0.7,5.9-3.1c-1.5-3.9-10.2-5.8-15.3-0.3C384.9,376,388.2,378,390.6,380.4z"/>
	<path class="st1" d="M410.4,385.1c-6.1,0.3-7.1-5-7.3-8.5c-0.2-3.5-4.8-4.3-5.3-0.3C397.3,381,403.1,386.8,410.4,385.1z"/>
	<path class="st1" d="M396.8,387.9c3.5,0.1,8.9,1,8.7,7.1c1.5-7.3-4.5-12.9-9.1-12.3C392.3,383.1,393.3,387.7,396.8,387.9z"/>
	<path class="st1" d="M402.6,395.1c6.1,0.5,6.3,5.9,6,9.5s4.1,5,5.2,1C414.9,401.1,410,394.5,402.6,395.1z"/>
	<path class="st1" d="M406.6,389.5c0.1,4.1,7.5,9,14.2,5.7c-3.8-0.3-6.1-3.5-7.5-6.5C411.9,385.5,406.6,385.3,406.6,389.5z"/>
	<path class="st1" d="M407.5,410.2c-3.4,0.3-5.4,5.2-1.5,6.5c3.9,1.4,11-3.9,10.3-11.4C414.6,408.9,410.9,409.9,407.5,410.2z"/>
	<path class="st1" d="M411.7,397c3.5,1.5,4.8,5.1,5.2,8.5c0.4,3.4,5.4,5.2,6.6,1.2C424.7,402.7,419,395.9,411.7,397z"/>
	<path class="st1" d="M421.3,412.9c0.7-4.1-4-4.5-5.1-1.2s-3.5,8.2-9.3,6.3C413.4,421.5,420.6,417.5,421.3,412.9z"/>
	<path class="st1" d="M414.5,421.1c-3.3,1.1-4.1,6.3,0.1,6.7c4.1,0.4,9.8-6.4,7.3-13.5C421,418.1,417.7,420,414.5,421.1z"/>
	<path class="st1" d="M407.3,430.6c0.1-3.4,1.1-7.1,4.5-8.9c-7.5-0.5-12.5,6.7-11,10.6C402.3,436.2,407.2,434,407.3,430.6z"/>
	<path class="st1" d="M414,429c-4.6-0.3-10.1,5.9-8,13c-0.7-6.1,4.6-7.3,8.1-7.7C417.6,433.9,418.1,429.2,414,429z"/>
	<path class="st1" d="M401.1,434.7c-4.1-0.3-9.4,6.5-6.8,13.3c0.7-3.7,3.9-5.6,7.1-6.7C404.4,440.1,405.1,435,401.1,434.7z"/>
	<path class="st1" d="M385.3,442.2c-2.5,0.7-3.7,3.9-2.3,5.6V550h2.1V448.9c4.1,0.5,10-6.1,7.8-13.1
		C391.9,439.5,388.5,441.3,385.3,442.2z"/>
	<path class="st1" d="M373.3,445.4c4.1,2.1,11.7-1.1,12.7-8.5c-1.9,5.8-7.2,4.7-10.6,3.7C372,439.5,369.6,443.5,373.3,445.4z"/>
	<path class="st1" d="M369,437.7c-0.1-3.7-4.9-4.7-5.5-0.4c-0.7,4.7,5.1,11,12.7,9.5C370,446.9,369.1,441.3,369,437.7z"/>
	<path class="st1" d="M361.4,432.7c0.5-3.4-3.9-6.4-6.1-2.8c-2.1,3.5,1.5,11.6,9,12.4C361.3,439.9,360.9,436.1,361.4,432.7z"/>
</g>
<g>
	<path class="st2" d="M1470.2,404.6c-4.5-2.5-9.3,2.5-4.6,6.4c5.3,4.3,17.3,1.9,21.1-8.5C1482.2,410.3,1474.8,407.1,1470.2,404.6z"
		/>
	<path class="st2" d="M1504.8,404.8c6.2-0.7,4.8-8.5,0-10c-4.8-1.5-9.8-4.3-11.1-9.8C1490.2,395.5,1498.7,405.5,1504.8,404.8z"/>
	<path class="st2" d="M1495,414.2c5.8,2.2,7.7-4.5,3.3-7.1c-4.5-2.6-10.9-7.5-6.4-15.4C1484.7,400.2,1488.5,411.8,1495,414.2z"/>
	<path class="st2" d="M1480,375.3c11.1,0.2,18-11,15.5-16.6c-2.5-5.7-9.5-2-9.5,3.1C1486.1,366.8,1484.9,372.4,1480,375.3z"/>
	<path class="st2" d="M1476.1,383.3c-4.7-7.7,1.5-12.7,6-15.5c4.4-2.8,2.2-9.4-3.5-7.1C1472.3,363.3,1468.7,375.1,1476.1,383.3z"/>
	<path class="st2" d="M1462.4,370c-4.9,3.8-4.1,16.9,5.8,22c-2.9-4.9-1.3-10.3,1.1-14.8C1471.8,372.8,1467.4,366.2,1462.4,370z"/>
	<path class="st2" d="M1462.6,400.4c5-1.6,12.9-3.1,15.7,5.5c-1.5-11-12.7-15.9-18.8-12.8C1454,396,1457.6,401.9,1462.6,400.4z"/>
	<path class="st2" d="M1473.8,384.3c-6.2,0.2-5.5,8-0.8,9.9c4.7,1.9,9.4,5.1,10.2,10.7C1487.6,394.8,1480,384.1,1473.8,384.3z"/>
	<path class="st2" d="M1489.2,373.9c-5.9,2-9.3,14.7-1.6,22.7c-1.2-5.5,2.1-10.2,5.9-13.6C1497.2,379.5,1495,371.9,1489.2,373.9z"/>
	<path class="st2" d="M1505.1,358.8c-0.8-5.1-7.7-5.8-7.8,0.4c-0.1,6.8,9.3,14.7,19.8,11.2C1508.1,371.7,1506,364,1505.1,358.8z"/>
	<path class="st2" d="M1500.6,384.1c0.9,5,8.4,7.3,9.9,1.3c1.5-6-7.3-15.8-18.2-13.6C1497.6,373.8,1499.7,379.1,1500.6,384.1z"/>
	<path class="st2" d="M1520.9,390.2c3.5-5.1-2.5-8.6-6.2-4.8c-3.7,3.8-9.9,8.9-16.4,2.6C1504.8,396.9,1517.1,395.8,1520.9,390.2z"/>
	<path class="st2" d="M1528.2,390.6c2.1-10.9-6.9-19.1-13.7-18.2c-6.1,0.9-4.6,7.7,0.6,7.8C1520.4,380.4,1528.4,381.6,1528.2,390.6z
		"/>
	<path class="st2" d="M1525.2,406.6c-3-4.3-6.9-11.4,0.5-16.6c-10,4.8-11.2,17-6.4,21.8C1523.7,416.1,1528.2,410.9,1525.2,406.6z"/>
	<path class="st2" d="M1504.9,408.4c-4.1,3-2.9,10.7,3.2,9.5s10.9-13.5,4.2-22.3C1512.8,401.2,1509,405.4,1504.9,408.4z"/>
	<path class="st2" d="M1491.7,434.9c6.2,0,13.5-10.9,8.8-21c-0.6,5.7-5.2,9-9.9,11C1485.9,427.1,1485.4,434.9,1491.7,434.9z"/>
	<path class="st2" d="M1506.7,431.4c6.8-0.4,14-10.3,9.7-20.6c2,8.8-5.5,11.6-10.6,12.8C1500.6,424.8,1500.6,431.8,1506.7,431.4z"/>
	<path class="st2" d="M1485,433.7c0.1-5.2,1.1-13.2,10.1-13.2c-10.9-1.9-19,7.2-17.9,13.9C1478.2,440.6,1484.9,439,1485,433.7z"/>
	<path class="st2" d="M1443.5,405.1c4.4,5.3,16.6,5.2,22.3-4.3c-5.9,6.8-12.6,2.3-16.6-1.1C1445.2,396.4,1439.6,400.4,1443.5,405.1z
		"/>
	<path class="st2" d="M1490.4,413.3c0-6.2-7.8-5.8-9.9-1.1c-2,4.6-5.4,9.3-11,9.9C1479.4,426.8,1490.4,419.5,1490.4,413.3z"/>
	<path class="st2" d="M1449.1,411.9c-4.9-1.7-12.2-5.3-9.2-13.8c-5.3,9.7,0.7,20.4,7.4,21.5C1453.4,420.5,1454,413.6,1449.1,411.9z"
		/>
	<path class="st2" d="M1473.1,425.6c-5.3-1.9-7.5-7.2-8.5-12.2c-0.9-5-8.5-7.2-9.9-1.2C1453.3,418.2,1462.3,427.9,1473.1,425.6z"/>
	<path class="st2" d="M1442.5,396.4c5.1-0.2,10.7,0.9,13.7,5.7c-0.1-11.1-11.4-17.8-17-15.1C1433.6,389.7,1437.4,396.6,1442.5,396.4
		z"/>
	<path class="st2" d="M1449.6,387.8c-2.9-4.9-1.3-10.3,1.1-14.8c2.4-4.4-2-10.9-6.9-7.2C1438.9,369.6,1439.7,382.7,1449.6,387.8z"/>
	<path class="st2" d="M1459.5,369c-9.8,5.1-10.7,17.3-5.7,22c4.5,4.2,8.9-1.2,5.7-5.3C1456.4,381.5,1452.4,374.5,1459.5,369z"/>
	<path class="st2" d="M1460.9,357.7c3.9-3.3,2-10.9-3.9-9.2c-5.9,1.8-9.8,14.4-2.4,22.6C1453.6,365.6,1457,361.1,1460.9,357.7z"/>
	<path class="st2" d="M1460.3,359.4c11.1,0.2,18-11,15.5-16.6c-2.5-5.7-9.5-2-9.5,3.1C1466.4,350.9,1465.2,356.5,1460.3,359.4z"/>
	<path class="st2" d="M1464.1,360.2c-5.2,0.1-6.8,6.9-0.7,7.8c6.8,1.1,15.9-7.1,13.8-18C1477.3,359,1469.3,360.1,1464.1,360.2z"/>
	<path class="st2" d="M1484.3,360.2c-5.7-7-0.1-12.8,3.9-16.2c4-3.3,1-9.6-4.3-6.6C1478,340.9,1475.9,353,1484.3,360.2z"/>
	<path class="st2" d="M1485.9,348.4c-4.9,3.7-0.4,9,4.3,6.6c4.7-2.3,12.3-5.1,16.4,2.9C1503.2,347.4,1491.3,344.4,1485.9,348.4z"/>
	<path class="st2" d="M1503.2,350.3c3.6,3.6,11.1,1.1,8.8-4.7s-15.1-8.6-22.7-0.5C1494.8,343.6,1499.5,346.7,1503.2,350.3z"/>
	<path class="st2" d="M1532.5,357.3c-9,0.5-10.4-7.4-10.8-12.7c-0.3-5.2-7.2-6.5-7.8-0.4C1513.1,351.1,1521.7,359.8,1532.5,357.3z"
		/>
	<path class="st2" d="M1512.3,361.3c5.2,0.2,13.2,1.4,12.9,10.5c2.2-10.8-6.7-19.2-13.5-18.3
		C1505.7,354.3,1507.1,361.1,1512.3,361.3z"/>
	<path class="st2" d="M1520.9,372.1c9,0.8,9.3,8.9,8.9,14.1s6.2,7.4,7.7,1.5C1539.2,381,1532,371.2,1520.9,372.1z"/>
	<path class="st2" d="M1526.9,363.7c0.1,6.2,11.1,13.3,21.1,8.5c-5.7-0.6-9.1-5.1-11.2-9.7C1534.7,357.8,1526.8,357.5,1526.9,363.7z
		"/>
	<path class="st2" d="M1528.2,394.5c-5,0.4-8,7.7-2.2,9.7c5.9,2,16.3-5.9,15.2-16.9C1538.7,392.5,1533.3,394.1,1528.2,394.5z"/>
	<path class="st2" d="M1534.4,374.9c5.2,2.2,7.1,7.6,7.7,12.7c0.6,5,8,7.7,9.8,1.8C1553.7,383.4,1545.4,373.2,1534.4,374.9z"/>
	<path class="st2" d="M1548.7,398.5c1-6.1-5.9-6.7-7.6-1.8c-1.7,4.9-5.2,12.2-13.8,9.3C1537,411.4,1547.6,405.2,1548.7,398.5z"/>
	<path class="st2" d="M1538.6,410.6c-4.8,1.6-6.1,9.4,0.1,10c6.2,0.6,14.6-9.5,10.8-20C1548.4,406.2,1543.4,409.1,1538.6,410.6z"/>
	<path class="st2" d="M1527.9,424.8c0.2-5.1,1.7-10.6,6.7-13.2c-11-0.8-18.6,10-16.3,15.8C1520.5,433.1,1527.6,429.9,1527.9,424.8z"
		/>
	<path class="st2" d="M1537.8,422.4c-6.8-0.4-15.1,8.7-11.9,19.3c-1-9,6.8-10.8,12-11.5S1544,422.7,1537.8,422.4z"/>
	<path class="st2" d="M1518.6,430.8c-6-0.5-13.9,9.6-10.1,19.8c1-5.4,5.8-8.3,10.4-10C1523.7,438.9,1524.7,431.3,1518.6,430.8z"/>
	<path class="st2" d="M1495.2,442L1495.2,442l-0.1-1.3h-1.4c1.2-1.9,2.1-4.1,2.5-6.6c-2.8,8.6-10.7,7.1-15.7,5.5
		c-5-1.6-8.6,4.3-3.2,7.2c3.7,1.9,9.4,0.9,13.5-2.7v104.4h4.2V452c6.1,0.6,14.7-9.1,11.4-19.5C1505.1,438,1500.1,440.7,1495.2,442z"
		/>
	<path class="st2" d="M1471.1,435.3c-0.2-5.4-7.2-6.9-8.1-0.6c-1,7,7.6,16.3,18.8,14.1C1472.5,449,1471.3,440.7,1471.1,435.3z"/>
	<path class="st2" d="M1459.7,427.9c0.7-5-5.9-9.5-9.1-4.2s2.3,17.2,13.3,18.4C1459.5,438.6,1459.1,432.9,1459.7,427.9z"/>
</g>
<g>
	<path class="st1" d="M87.8,51.7c-10,8.6-9.4,32.3,9.2,43c-13.4-11.2-5-24.4,1.5-32.2C104.9,54.8,96.8,44,87.8,51.7z"/>
	<path class="st1" d="M105.5,131.9c4.5-8.7,11.5-17.3,22.5-17.9c-18.8-10.3-40.8,2.6-41.5,14.6C85.8,140.5,101,140.6,105.5,131.9z"
		/>
	<path class="st1" d="M71.9,106.6c-6,10.2,6,16.3,12.5,8.6s18-18.3,31.4-7C102,91.7,78.7,95.2,71.9,106.6z"/>
	<path class="st1" d="M174.9,107.1c-9.7-1.6-19.9-5.7-23.9-16c-4,21.1,15,38,26.5,35.1C189.2,123.3,184.6,108.7,174.9,107.1z"/>
	<path class="st1" d="M179.3,93.1c-2.8-12.9-24-23.6-42.2-12.3c16.2-6.5,23.8,7.2,27.6,16.5C168.5,106.7,181.8,104.7,179.3,93.1z"/>
	<path class="st1" d="M150.9,70.2c7.6,6.1,21.5-0.2,16-10.8c-5.6-10.6-30.9-13.4-43.8,3.7C133.4,59.1,143.2,64,150.9,70.2z"/>
	<path class="st1" d="M93.3,77.6c21.5,0.8,34.5-18.9,30.6-31.6c-3.5-11.3-16-6.5-14.7,3.6C110.4,59.6,110.5,75.2,93.3,77.6z"/>
	<path class="st1" d="M117.3,71.4c-5.2,8.3-13,16.2-23.9,15.9c17.9,11.8,40.9,0.8,42.6-11C137.8,64.4,122.6,63.1,117.3,71.4z"/>
	<path class="st1" d="M107.8,98.3c11-0.5,18.8,7.4,24.1,15.7c5.3,8.2,20.5,6.8,18.6-5C148.7,97.2,125.6,86.3,107.8,98.3z"/>
	<path class="st1" d="M174.1,144.5c10.2,0.2,13.5-12.8,1.8-15c-13-2.4-31.2,12.8-28,34C148.4,145.8,164,144.3,174.1,144.5z"/>
	<path class="st1" d="M127.4,127.3c-9.9,0-16.7,13.5-5.8,18.4c10.9,4.8,32.5-8.7,32-30.2C148.1,125,137.3,127.3,127.4,127.3z"/>
	<path class="st1" d="M120.2,153.8c-6-8.2-13.6-21.8,0.5-32.2c-19.2,9.5-21.2,33.1-11.8,42.4C117.5,172.3,126.2,162,120.2,153.8z"/>
	<path class="st1" d="M144.8,157.8c0.3-11.8-13.1-11.3-15.1-1.4c-2.1,9.9-6.9,24.7-24.1,21.4C125.7,185.4,144.5,171,144.8,157.8z"/>
	<path class="st1" d="M76.2,166.8c9.2-4.3,24-9.3,31.5,6.5c-5.8-20.6-28.6-27-39.5-19.4C58.5,160.7,67,171,76.2,166.8z"/>
	<path class="st1" d="M101.6,145.8c-10.9-0.8-17.8-9.5-22.1-18.3c-4.3-8.9-19.6-9.1-19.1,2.9C60.9,142.3,82.6,155.7,101.6,145.8z"/>
	<path class="st1" d="M52.7,94.4c-2.4-9.5-17.2-13-19.2-1.1c-2.1,11.8,16.3,29.4,37,23.8C60,113.9,55.1,104,52.7,94.4z"/>
	<path class="st1" d="M71.1,148.5c-17.5,0.9-20.2-14.5-20.8-24.6c-0.6-10.1-13.8-12.5-15.2-0.8C33.7,136.4,50.2,153.3,71.1,148.5z"
		/>
	<path class="st1" d="M39,66c-11.8-0.2-11.2,13.3-1.1,15.1c9.9,1.9,24.8,6.5,21.8,23.8C67,84.7,52.2,66.1,39,66z"/>
	<path class="st1" d="M114.6,24.2c7.8-6.4,2-18.6-8.3-12.7c-11.5,6.6-15.4,29.9,0.8,44C96,41.9,106.9,30.7,114.6,24.2z"/>
	<path class="st1" d="M75.1,98.2c11.8,2.1,13.7-13.1,5.5-18.5c-8.2-5.5-15.8-13.4-15.1-24.4C53,72.8,63.3,96.1,75.1,98.2z"/>
	<path class="st1" d="M91.6,20c5-8.8,14.2-21.4,29.5-13c-16.7-13.4-39-5.5-43.5,6.9C73.6,25.2,86.6,28.8,91.6,20z"/>
	<path class="st1" d="M89.1,30.7c-11-4.7-32.4,9-31.7,30.5c5.5-9.5,16.3-12,26-12C93.3,49.1,100.1,35.4,89.1,30.7z"/>
	<path class="st1" d="M107.8,36.7c21.2,3.6,37.7-15.8,34.4-27.3c-3.2-11.5-17.6-6.6-19,3.1C121.9,22.2,118,32.6,107.8,36.7z"/>
	<path class="st1" d="M137.4,28.9c10.2-4,20.2,1,27.8,7.1s21.5-0.2,16-10.8C175.7,14.6,150.3,11.9,137.4,28.9z"/>
	<path class="st1" d="M138,48.6c9-4.6,23.7-10,31.7,5.5c-6.5-20.5-29.5-26.1-40-18.2C120.2,43,129,53.2,138,48.6z"/>
	<path class="st1" d="M190.8,60.5c5,8.5,20.2,7.6,18.8-4.4s-24.1-23.5-42.2-12.2C178.3,43.9,185.8,52,190.8,60.5z"/>
	<path class="st1" d="M187.8,58.8c-4,21.1,15,38,26.5,35.1c11.6-3,7-17.5-2.7-19.1C202,73.2,191.7,69.1,187.8,58.8z"/>
	<path class="st1" d="M185.1,65.7c1.6-10-10.8-15.2-14.7-4c-4.3,12.5,8.2,32.6,29.7,32.5C182.9,91.3,183.6,75.7,185.1,65.7z"/>
	<path class="st1" d="M221.7,111.1c-4.4-12.4-26.8-20.4-43.5-6.9c15.3-8.5,24.5,4,29.5,12.9C212.8,126,225.7,122.3,221.7,111.1z"/>
	<path class="st1" d="M175.3,147.4c21.2-2.7,30.9-24.4,25-36.2c-5.3-10.6-16.9-3.7-14,6C189.2,126.8,191.9,142.2,175.3,147.4z"/>
	<path class="st1" d="M190.9,143.5c-8,5.7-5.8,20.8,6,18.3c11.7-2.4,21.4-26,8.6-43.2C206.4,129.7,199,137.9,190.9,143.5z"/>
	<path class="st1" d="M198.9,166c-12.7-3.7-32.2,9.7-31.1,31.2c2.1-17.3,17.7-17.4,27.7-16.3C205.6,181.9,210.3,169.3,198.9,166z"/>
	<path class="st1" d="M182,158.9c0.5-11.8-13-11.5-15.1-1.6c-2.1,9.9-7.2,24.7-24.3,21.2C162.6,186.3,181.5,172.1,182,158.9z"/>
	<path class="st1" d="M143.4,170.1c-4.5,16.9-20,14.7-29.8,12.2s-16.2,9.3-5.3,14.2C120.3,202,141.5,191.4,143.4,170.1z"/>
	<path class="st1" d="M157.4,184.4c-11.8-1.8-29.1,16.8-23.1,37.4c2.9-10.6,12.8-15.7,22.3-18.1
		C166.1,201.1,169.3,186.2,157.4,184.4z"/>
	<path class="st1" d="M107.6,203.7c-8.9-6.4-10.2-17.4-9.3-27.2c0.9-9.8-12-17.9-17.8-7.5C74.6,179.5,86.2,202.2,107.6,203.7z"/>
	<path class="st1" d="M133.7,194.9c-6,9.2-17,11-26.7,10.5c-9.9-0.5-17.4,12.8-6.7,18.1c3.7,1.9,8.9,1.5,14.1-0.5V550h3.6V221.1
		C126,216.3,133.4,207.1,133.7,194.9z"/>
	<path class="st1" d="M89.7,200.3c-8.9-5-21.5-14.1-13.1-29.4c-13.4,16.8-5.3,39,7.2,43.4C95.1,218.2,98.6,205.2,89.7,200.3z"/>
	<path class="st1" d="M64.1,190.9c-1.4-9.7-15.8-14.7-19-3.1c-3.2,11.5,13.3,30.9,34.4,27.3C69.4,211,65.5,200.6,64.1,190.9z"/>
	<path class="st1" d="M40.6,165.8c9.6,2.1,19.6,6.7,23,17.2c5.2-20.8-12.9-38.8-24.7-36.4C27.3,148.9,31.1,163.7,40.6,165.8z"/>
	<path class="st1" d="M9,156.4c17.4,1.1,18.4,16.6,17.9,26.7c-0.5,10.1,12.3,14,15,2.4C44.9,172.6,30.3,154,9,156.4z"/>
	<path class="st1" d="M32.2,146.1c2.9-11.3-13.7-29.9-34.2-25.9c10,3.8,14,13.8,15.6,23.3C15.1,153,29.3,157.5,32.2,146.1z"/>
	<path class="st1" d="M33.2,122.5c-10-4.5-13.4-15-14.4-24.8S3.4,82.5-0.2,93.9C-3.9,105.3,11.9,125.3,33.2,122.5z"/>
	<path class="st1" d="M15.6,62.2c-8,10.5-2.5,33.5,17.8,40.2c-15.4-8.2-9.9-22.8-5.2-31.8S22.8,52.7,15.6,62.2z"/>
	<path class="st1" d="M39.6,54c10.4,1.5,15.6-11.4,3.9-15.2c-13-4.3-33.6,9-33.1,31.2C13.1,52.1,29.2,52.6,39.6,54z"/>
	<path class="st1" d="M57.4,34.8c9.4,3,20-7.9,11-15.8c-9-7.9-33.6-1.3-39.6,19.2C37.1,30.9,48.1,31.9,57.4,34.8z"/>
</g>
</svg>
