<svg id="formTitle.svg" xmlns="http://www.w3.org/2000/svg" width="156.594" height="292.9" viewBox="0 0 156.594 292.9">
  <defs>
    <style>
      .cls-1 {
        fill: #9abc58;
      }

      .cls-2 {
        fill: #fff;
      }

      .cls-3 {
        fill-rule: evenodd;
      }
    </style>
  </defs>
  <rect id="矩形_1" data-name="矩形 1" class="cls-1" width="156.594" height="292.9"/>
  <rect id="矩形_1_拷貝" data-name="矩形 1 拷貝" class="cls-2" y="8.1" width="156.594" height="276.8"/>
  <path id="聯絡我們" class="cls-3" d="M393.664,11758.8a1.217,1.217,0,0,0-1.09-.9,1.188,1.188,0,0,0-.826.3,0.866,0.866,0,0,0-.334.7,4.1,4.1,0,0,0,.07.5q0.1,0.3.193,0.6t0.194,0.6c-0.446.1-1.231,0.2-2.356,0.4a75.929,75.929,0,0,0,4.852-7.8,1.525,1.525,0,0,0,.246-0.8,1.3,1.3,0,0,0-.071-0.3,1.427,1.427,0,0,0-1.23-.9,1.106,1.106,0,0,0-.809.1,3.039,3.039,0,0,0-.668.9l-1.863,3.7-1.617-.9a45.807,45.807,0,0,0,2.918-5.4,2.793,2.793,0,0,0,.281-1l-0.07-.4a1.149,1.149,0,0,0-.457-0.6,1.465,1.465,0,0,0-.949-0.2,1.02,1.02,0,0,0-.791.2,2.722,2.722,0,0,0-.545.9,54.614,54.614,0,0,1-2.356,5.4,1.829,1.829,0,0,0-.7-0.1,0.734,0.734,0,0,0-.492.1,2.015,2.015,0,0,0-.563.3,1.666,1.666,0,0,0-.175.8,1.2,1.2,0,0,0,.246.7,2.653,2.653,0,0,0,.808.6l3.34,1.6c-0.539,1-1.195,2.2-1.969,3.4l-0.878.1a2.7,2.7,0,0,0-1.178.4,0.9,0.9,0,0,0-.369.8,1.522,1.522,0,0,0,.351,1,1.427,1.427,0,0,0,.914.4l0.317-.1a44.86,44.86,0,0,0,6.4-1.3l0.211,0.8a1.082,1.082,0,0,0,1.125.9,1.917,1.917,0,0,0,.791-0.2,0.9,0.9,0,0,0,.4-0.6,3.372,3.372,0,0,0-.211-1.7q-0.317-1.05-1.089-3h0Zm11.355,3.1q-0.528-1.65-1.09-3a1.215,1.215,0,0,0-1.09-.9,1.191,1.191,0,0,0-.826.3,0.866,0.866,0,0,0-.334.7,2.484,2.484,0,0,0,.071.5c0.163,0.5.292,0.9,0.386,1.3l-2.707.4a87.218,87.218,0,0,0,4.922-7.9,1.516,1.516,0,0,0,.246-0.8s-0.023-.1-0.07-0.3a1.429,1.429,0,0,0-1.231-.9,1.1,1.1,0,0,0-.808.1,3.022,3.022,0,0,0-.668.9l-1.863,3.7-1.618-.9a45.807,45.807,0,0,0,2.918-5.4,2.778,2.778,0,0,0,.282-1l-0.071-.4a1.144,1.144,0,0,0-.457-0.6,1.463,1.463,0,0,0-.949-0.2,1.736,1.736,0,0,0-.791.2,2.756,2.756,0,0,0-.545.9,54.34,54.34,0,0,1-2.355,5.4,1.837,1.837,0,0,0-.7-0.1,0.735,0.735,0,0,0-.492.1,1,1,0,0,0-.562.4,1.065,1.065,0,0,0-.176.7,1.01,1.01,0,0,0,.246.7,2.672,2.672,0,0,0,.809.6l3.34,1.6c-0.774,1.4-1.454,2.6-2.04,3.5h-0.1a2.708,2.708,0,0,0-1.178.4,0.9,0.9,0,0,0-.369.8,1.518,1.518,0,0,0,.352,1,1.427,1.427,0,0,0,.914.4l0.316-.1q3.516-.6,6.012-1.2l0.176,0.7a1.081,1.081,0,0,0,1.125.9,1.917,1.917,0,0,0,.791-0.2,0.724,0.724,0,0,0,.4-0.6,3.383,3.383,0,0,0-.211-1.7h0Zm-18.633-12.4a1.207,1.207,0,0,0-.351-1,1.473,1.473,0,0,0-.985-0.3H374.714a1.528,1.528,0,0,0-1.019.3,1.2,1.2,0,0,0-.352,1,1.142,1.142,0,0,0,1.371,1.2h0.668v21c-1.43.4-2.144,1-2.144,1.7q0,1.5,1.23,1.5c0.8,0,3.141-.9,7.032-2.5v5.5a1.284,1.284,0,1,0,2.531,0v-27.2h1.019a1.125,1.125,0,0,0,1.336-1.2h0Zm-8.472,6.2v-5H381.5v5h-3.586Zm0,7.2v-4.7H381.5v4.7h-3.586Zm25.769,2a1.233,1.233,0,0,0-1.266,1.5v3a0.786,0.786,0,0,1-.878.9H398.9v-4.7a1.224,1.224,0,0,0-1.336-1.4,1.209,1.209,0,0,0-1.3,1.4v12a1.55,1.55,0,0,0,.317,1.1,1.386,1.386,0,0,0,.984.3,1.446,1.446,0,0,0,1.019-.3,1.55,1.55,0,0,0,.317-1.1v-4.9h3.515a2.282,2.282,0,0,0,2.532-2.6v-3.7a1.233,1.233,0,0,0-1.266-1.5h0Zm-10.793-.6a1.137,1.137,0,0,0-1.3,1.3v4.8h-2.636a0.786,0.786,0,0,1-.879-0.9v-3.2a1.182,1.182,0,0,0-1.231-1.4,1.169,1.169,0,0,0-1.195,1.4v3.9a2.211,2.211,0,0,0,2.531,2.5h2.953a5.168,5.168,0,0,1-1.511,2.3,7.355,7.355,0,0,1-2.743,1.7,1.332,1.332,0,0,0-.808,1.1,1.834,1.834,0,0,0,.07.5,1,1,0,0,0,1.055.7,1.61,1.61,0,0,0,.668-0.1,9.129,9.129,0,0,0,4.693-3.4,9.323,9.323,0,0,0,1.67-5.5v-4.3a1.223,1.223,0,0,0-1.336-1.4h0Zm-14.976,6.8v-5.7H381.5v4.5Zm26.3,32.2a22.659,22.659,0,0,1-6.82-3.4,29.34,29.34,0,0,0,3.041-3.3,15.406,15.406,0,0,0,2.3-4.1,2.4,2.4,0,0,0,.176-0.8,1.445,1.445,0,0,0-.651-1.3,2.948,2.948,0,0,0-1.705-.5h-7.945a5.613,5.613,0,0,0,.633-2,1.125,1.125,0,0,0-1.336-1.2,1.54,1.54,0,0,0-1.442,1.3,26.513,26.513,0,0,1-4.254,7.7,3.7,3.7,0,0,0-.949,1.6,1.091,1.091,0,0,0,1.266,1.2,2.225,2.225,0,0,0,1.353-.9,11.428,11.428,0,0,0,1.846-2.4q0.844,1.35,1.863,2.7a18.238,18.238,0,0,0,1.9,2,15.365,15.365,0,0,1-3.164,2.2,19.2,19.2,0,0,1-3.516,1.8,1.368,1.368,0,0,0-.984,1.2,1.391,1.391,0,0,0,.334,1,1.289,1.289,0,0,0,.9.3,2.314,2.314,0,0,0,.844-0.1,21.4,21.4,0,0,0,3.937-2.1,24.736,24.736,0,0,0,3.657-2.7,14.864,14.864,0,0,0,3.533,2.6,22.194,22.194,0,0,0,4.1,2.1,6.143,6.143,0,0,1,.7.1,1.348,1.348,0,0,0,1.371-1,4.691,4.691,0,0,0,.14-0.7,1.42,1.42,0,0,0-1.125-1.3h0Zm-20.812.1,0.211,0.7a1.073,1.073,0,0,0,1.09.8h0.492a1.314,1.314,0,0,0,.58-0.4,1.061,1.061,0,0,0,.229-0.7,1.637,1.637,0,0,0-.036-0.4c-0.14-.5-0.363-1.2-0.668-2s-0.609-1.5-.914-2.2a1.214,1.214,0,0,0-1.019-.8,1.127,1.127,0,0,0-.809.3,1.052,1.052,0,0,0-.316.7,1.282,1.282,0,0,0,.105.5l0.457,1.5-3.832.3c1.594-2,2.889-3.8,3.885-5.2a38.764,38.764,0,0,0,2.549-4,1.287,1.287,0,0,0,.246-0.8,1.359,1.359,0,0,0-.738-1.2,1.657,1.657,0,0,0-.7-0.2,1.488,1.488,0,0,0-1.336.9c-0.962,1.8-1.934,3.5-2.918,5a22.135,22.135,0,0,0-2.145-1.7,33.748,33.748,0,0,0,3.41-5.6,2.1,2.1,0,0,0,.211-0.9,1.129,1.129,0,0,0-.808-1.1c-0.211,0-.411-0.1-0.6-0.1a1.209,1.209,0,0,0-.809.3,1.231,1.231,0,0,0-.527.7,48.4,48.4,0,0,1-2.6,5.5,3.683,3.683,0,0,0-.984-0.5,0.539,0.539,0,0,0-.351-0.1,0.948,0.948,0,0,0-.827.4,0.976,0.976,0,0,0-.369.7,1.294,1.294,0,0,0,.106.7,1.59,1.59,0,0,0,.6.6c2.016,1.5,3.457,2.5,4.325,3.2-0.446.7-1.243,1.9-2.391,3.5l-1.758.2a1.117,1.117,0,0,0-1.23,1.2,1.168,1.168,0,0,0,1.511,1.3l3.586-.3v12.9a1.377,1.377,0,1,0,2.742,0v-13.3Zm12.059-5a25.186,25.186,0,0,1-4.465-5.3,3.333,3.333,0,0,1,.158-0.3,0.879,0.879,0,0,1,.228-0.4h7.489c0.422,0,.633.1,0.633,0.5a0.522,0.522,0,0,1-.106.3,16.427,16.427,0,0,1-1.81,2.8,15.5,15.5,0,0,1-2.127,2.4h0Zm-11.989,7.2a1.227,1.227,0,0,0-.879.3,0.645,0.645,0,0,0-.246.7l0.141,0.7q0.351,1.95.738,5.4c0.141,1.2.609,1.9,1.406,1.9a1.074,1.074,0,0,0,1.231-1.2q0-.6-0.879-5.1-0.528-2.7-1.512-2.7h0Zm-7.7.1c-0.8,0-1.207.5-1.23,1.6a16.519,16.519,0,0,1-1.02,5.6,3.308,3.308,0,0,0-.316,1.2,1.09,1.09,0,0,0,1.265,1.2,1.327,1.327,0,0,0,1.073-.8,10.1,10.1,0,0,0,.755-2.5,26.25,26.25,0,0,0,.633-5,1.119,1.119,0,0,0-1.16-1.3h0Zm24.645,0.2h-9.739a2.4,2.4,0,0,0-2.636,2.6v7.3a2.652,2.652,0,0,0,.685,1.9,2.485,2.485,0,0,0,1.951.7h9.739a2.485,2.485,0,0,0,1.951-.7,2.652,2.652,0,0,0,.685-1.9v-7.3a2.4,2.4,0,0,0-2.636-2.6h0Zm-0.036,8.9a1.013,1.013,0,0,1-1.16,1.1h-7.383a1.094,1.094,0,0,1-.861-0.3,0.921,0.921,0,0,1-.264-0.8v-5.3a1.329,1.329,0,0,1,.264-0.9,1.094,1.094,0,0,1,.861-0.3h7.383a1.043,1.043,0,0,1,1.16,1.2v5.3Zm-22.078,43.3h2.11a3.863,3.863,0,0,0,2.83-.7,3.679,3.679,0,0,0,.9-2.7v-7.9l3.727-1q1.617-.45,1.617-1.5a1.565,1.565,0,0,0-.281-1,1.06,1.06,0,0,0-.739-0.4,1.73,1.73,0,0,1-.386.1,2.926,2.926,0,0,1-.862.2q-0.4.15-.755,0.3-1.828.45-2.321,0.6v-5.3h7.84a40.715,40.715,0,0,0,2.145,9.6,30.522,30.522,0,0,1-6.434,5,2.189,2.189,0,0,0-1.512,1.7,1.272,1.272,0,0,0,1.371,1.5,2.909,2.909,0,0,0,1.108-.5,23.941,23.941,0,0,0,2.2-1.4c1.008-.7,1.811-1.2,2.408-1.7a19.625,19.625,0,0,0,1.987-1.9,24.464,24.464,0,0,0,3.234,5,6.953,6.953,0,0,0,1.687,1.4,3.5,3.5,0,0,0,1.583.5c1.007,0,1.851-.7,2.531-2.2a9.889,9.889,0,0,0,1.054-4.5,1.272,1.272,0,0,0-1.371-1.5,1.227,1.227,0,0,0-.879.3,1.923,1.923,0,0,0-.421,1c-0.329,2.1-.751,3.2-1.266,3.2a2.458,2.458,0,0,1-1.775-1.3,23,23,0,0,1-2.163-4c3.258-3.6,4.887-5.8,4.887-6.8a0.807,0.807,0,0,0-.351-0.8,1.721,1.721,0,0,0-1.125-.3c-0.54,0-1.184.5-1.934,1.7a26.694,26.694,0,0,1-2.6,3.3,35.765,35.765,0,0,1-1.476-7.3H403.3c1.148,0,1.723-.5,1.723-1.4s-0.575-1.4-1.723-1.4h-8.683q-0.212-4.5-.211-7.8a2.065,2.065,0,0,0-.369-1.4,1.421,1.421,0,0,0-1.143-.5q-1.442,0-1.441,1.8c0,1.9.1,4.6,0.316,7.9h-7.629v-5.4c1.383-.3,2.385-0.5,3.006-0.7a5,5,0,0,0,1.318-.5,2.029,2.029,0,0,0,.563-0.5,0.779,0.779,0,0,0,.176-0.6,1.27,1.27,0,0,0-1.442-1.4,4.9,4.9,0,0,0-1.336.3,34.666,34.666,0,0,1-9.105,1.7,6.1,6.1,0,0,0-2.25.4,1.167,1.167,0,0,0-.563,1.1,1.263,1.263,0,0,0,1.512,1.4c0.82-.1,1.922-0.2,3.305-0.4a11.137,11.137,0,0,1,1.969-.3v4.9H375.1c-1.125,0-1.687.4-1.687,1.4,0,0.9.562,1.4,1.687,1.4h6.188v6q-2.392.45-6.188,1.2a3.274,3.274,0,0,0-1.371.5,1.374,1.374,0,0,0-.422,1,1.55,1.55,0,0,0,.317,1.1,1.011,1.011,0,0,0,.914.4h0.386q3.8-.75,6.364-1.5v6.3a1.19,1.19,0,0,1-1.336,1.3H378.3a1.51,1.51,0,1,0,0,3h0Zm22.746-24a1.3,1.3,0,0,0,1.512-1.4c0-.5-0.562-1.3-1.687-2.6-1.1-1.2-1.958-1.9-2.567-1.9a1.4,1.4,0,0,0-.826.4,0.839,0.839,0,0,0-.369.7,1.938,1.938,0,0,0,.369,1,18.552,18.552,0,0,0,1.354,1.8,11.7,11.7,0,0,0,1.371,1.5,1.16,1.16,0,0,0,.843.5h0Zm-22.464,63.9c0.914,0,1.371-.6,1.371-1.7v-22.2c0.82-1.9,1.464-3.6,1.933-5a7.818,7.818,0,0,0,.422-2,1.142,1.142,0,0,0-1.371-1.2q-1.16,0-1.687,1.8a52.322,52.322,0,0,1-5.45,13.3,4.04,4.04,0,0,0-.773,2.1,1.1,1.1,0,0,0,.316.8,1.334,1.334,0,0,0,.949.3c0.586,0,1.559-1.3,2.918-4v16.1c0,1.1.457,1.7,1.372,1.7h0Zm5.625,0a1.286,1.286,0,0,0,1.406-1.5v-13.7h4.008a3.319,3.319,0,0,0,2.39-.7,2.866,2.866,0,0,0,.633-2.4v-9.5a2.678,2.678,0,0,0-.615-2.3,3.312,3.312,0,0,0-2.408-.7h-3.832a2.858,2.858,0,0,0-2.373.6,2.9,2.9,0,0,0-.616,2.4v26.3a1.286,1.286,0,0,0,1.407,1.5h0Zm13.957-.2h2.285a7.906,7.906,0,0,0,1.687-.2,4.1,4.1,0,0,0,1.2-.7,4.059,4.059,0,0,0,.949-2.9v-23.8a2.681,2.681,0,0,0-.615-2.3,3.314,3.314,0,0,0-2.409-.7h-3.832q-3.3-.3-3.023,3v9.5a2.863,2.863,0,0,0,.633,2.4,3.316,3.316,0,0,0,2.39.7h4.043v10.8a1.2,1.2,0,0,1-1.371,1.4h-1.933c-1.125,0-1.688.5-1.688,1.4s0.563,1.4,1.688,1.4h0Zm-8.192-24.2h-4.359v-2.8a1.024,1.024,0,0,1,1.09-1.1h2.214a0.9,0.9,0,0,1,1.055,1v2.9Zm11.5,0h-4.394v-2.9a0.916,0.916,0,0,1,1.019-1h2.356a0.954,0.954,0,0,1,.756.3,0.829,0.829,0,0,1,.263.7v2.9Zm-12.551,6.6h-3.3v-4.1h4.359v3.1a0.933,0.933,0,0,1-1.055,1h0Zm12.551,0h-3.375a0.92,0.92,0,0,1-1.019-1v-3.1h4.394v4.1Z" transform="translate(-310.594 -11675.1)"/>
</svg>
