<?xml version="1.0" encoding="utf-8"?>
<!-- Generator: Adobe Illustrator 24.0.3, SVG Export Plug-In . SVG Version: 6.00 Build 0)  -->
<svg version="1.1" id="icon_lication.svg" xmlns="http://www.w3.org/2000/svg" xmlns:xlink="http://www.w3.org/1999/xlink" x="0px"
	 y="0px" viewBox="0 0 24 24" style="enable-background:new 0 0 24 24;" xml:space="preserve">
<path d="M12,0C7.2,0,3.2,4,3.2,8.9c0,2.8,1.4,6.1,4.1,9.9c2,2.8,4,4.8,4.1,4.9c0.2,0.2,0.4,0.2,0.6,0.2c0.2,0,0.4-0.1,0.5-0.2
	c0.1-0.1,2.1-2,4.1-4.8c2.8-3.8,4.1-7.2,4.1-10.1C20.8,4,16.8,0,12,0z M12,12.8c-2.4,0-4.3-1.9-4.3-4.3S9.6,4.2,12,4.2
	s4.3,1.9,4.3,4.3S14.4,12.8,12,12.8z"/>
</svg>
