<?xml version="1.0" encoding="utf-8"?>
<!-- Generator: Adobe Illustrator 24.0.3, SVG Export Plug-In . SVG Version: 6.00 Build 0)  -->
<svg version="1.1" id="icon_spec10.svg" xmlns="http://www.w3.org/2000/svg" xmlns:xlink="http://www.w3.org/1999/xlink" x="0px"
	 y="0px" viewBox="0 0 187 187" style="enable-background:new 0 0 187 187;" xml:space="preserve">
<style type="text/css">
	.st0{fill-rule:evenodd;clip-rule:evenodd;fill:#FFFFFF;}
</style>
<path id="上班方便" class="st0" d="M32,105.7h23.7c0.7,0.1,1.3-0.3,1.4-1s-0.3-1.3-1-1.4c-0.1,0-0.3,0-0.4,0H44V91.4h9.1
	c0.7,0.1,1.3-0.4,1.4-1c0.1-0.7-0.4-1.3-1-1.4c-0.1,0-0.2,0-0.3,0H44v-6.8c0.1-0.6-0.3-1.3-0.9-1.4c-0.1,0-0.2,0-0.3,0
	c-0.7,0-1.2,0.4-1.3,1.1c0,0.1,0,0.2,0,0.3v21.1H32c-0.7-0.1-1.3,0.4-1.3,1.1c-0.1,0.7,0.4,1.3,1.1,1.3
	C31.8,105.7,31.9,105.7,32,105.7L32,105.7L32,105.7z M72.3,106.7c0.6,0,1.6-0.6,2.8-1.7c1.1-1.1,2.1-2.5,2.8-3.9
	c0.6-1.4,1-2.9,1.1-4.4c0.2-2.1,0.3-4.2,0.2-6.3v-8.5c0.1-0.6-0.3-1.1-0.9-1.2c-0.1,0-0.2,0-0.3,0c-0.5-0.1-1,0.2-1.1,0.7
	c0,0.4,0,0.7,0,1.1v5c0,4.4-0.1,7.3-0.2,8.5c-0.2,1.7-0.6,3.3-1.3,4.8c-0.7,1.4-1.7,2.5-3,3.4c-0.6,0.2-1,0.8-1.1,1.4
	c-0.1,0.5,0.3,1,0.8,1.1C72.1,106.7,72.2,106.7,72.3,106.7L72.3,106.7L72.3,106.7z M79.6,106h9.3c0.6,0.1,1.2-0.2,1.3-0.8
	c0-0.1,0-0.2,0-0.3c0-0.6-0.4-1.2-1.1-1.2c-0.1,0-0.2,0-0.3,0H86v-9.2h2.2c0.6,0.1,1.2-0.2,1.3-0.9c0-0.1,0-0.2,0-0.2
	c0-0.6-0.4-1.2-1.1-1.2c-0.1,0-0.2,0-0.3,0H86v-7.7h2.6c0.6,0.1,1.2-0.3,1.3-0.9c0-0.1,0-0.2,0-0.3c0-0.6-0.5-1.1-1.1-1.1
	c-0.1,0-0.2,0-0.2,0h-7.4c-0.6-0.1-1.2,0.2-1.3,0.8c0,0.1,0,0.2,0,0.3c-0.1,0.6,0.4,1.2,1,1.2c0.1,0,0.2,0,0.3,0h2.5v7.7h-2.3
	c-0.6-0.1-1.2,0.3-1.4,0.9c0,0.1,0,0.2,0,0.3c0,0.7,0.5,1.1,1.4,1.1h2.3v9.2h-4.1c-0.6-0.1-1.3,0.3-1.4,0.9c0,0.1,0,0.2,0,0.3
	C78.2,105.6,78.6,106,79.6,106L79.6,106z M64.7,104.4c2.1-0.4,4.2-0.9,6.2-1.7c1.2-0.4,1.8-0.9,1.8-1.4c0.1-0.6-0.3-1.1-0.9-1.2
	c-0.1,0-0.2,0-0.3,0l-0.5,0.1l-1.6,0.4v-7.3h1.5c0.5,0.1,1-0.2,1.1-0.8c0-0.1,0-0.2,0-0.3c0.1-0.5-0.3-1-0.9-1.1c-0.1,0-0.2,0-0.3,0
	h-1.5v-6.5h2.1c0.6,0.1,1.1-0.3,1.2-0.8c0-0.1,0-0.2,0-0.3c0.1-0.5-0.3-1-0.9-1.1c-0.1,0-0.2,0-0.3,0h-6.8c-0.5-0.1-1,0.2-1.2,0.8
	c0,0.1,0,0.2,0,0.3c-0.1,0.6,0.4,1.1,0.9,1.1c0.1,0,0.2,0,0.2,0H67v6.5h-2.1c-0.4-0.1-0.9,0.3-1,0.9c0,0.1,0,0.2,0,0.2
	c-0.1,0.5,0.3,1,0.8,1.1c0.1,0,0.2,0,0.3,0h2.1v8l-1.8,0.4c-1.2,0.3-1.8,0.8-1.8,1.5c-0.1,0.6,0.3,1.1,0.9,1.2
	C64.5,104.4,64.6,104.4,64.7,104.4L64.7,104.4L64.7,104.4z M72.8,98.4c1.5,0,2.3-4,2.3-11.9c0.1-0.5-0.2-0.9-0.7-1
	c-0.1,0-0.2,0-0.3,0c-0.5,0-1,0.4-1,0.9c0,0.1,0,0.2,0,0.3v1.6c0,1.5-0.1,3.1-0.2,4.6c0,1.1-0.3,2.1-0.6,3.1c-0.2,0.5-0.4,1-0.5,1.5
	c0,0.5,0.3,0.9,0.8,0.9C72.7,98.4,72.8,98.4,72.8,98.4L72.8,98.4L72.8,98.4z M111.7,106.9c1.4,0,2.7-0.1,4-0.4
	c0.8-0.2,1.5-0.7,2.1-1.3c0.7-1.5,1.1-3.1,1.3-4.8c0.4-2,0.6-4.1,0.6-6.2c0-1.6-0.9-2.3-2.7-2.3h-9.6c0.2-1.5,0.3-3,0.3-4.5h13.7
	c1,0,1.5-0.3,1.5-1.1c0-0.3-0.1-0.7-0.4-0.9c-0.3-0.2-0.7-0.3-1.1-0.3h-10.9V82c0-0.7-0.6-1.2-1.3-1.2c-0.7,0-1.2,0.6-1.2,1.2v3.1
	h-9.8c-1,0-1.5,0.4-1.5,1.2c0,0.3,0.1,0.7,0.3,0.9c0.4,0.1,0.7,0.2,1.1,0.2h7c0,2.9-0.3,5.9-1.1,8.7c-1,3.2-3.2,5.9-6,7.6
	c-0.7,0.3-1.1,0.9-1.3,1.6c0,0.3,0.1,0.7,0.3,0.9c0.2,0.3,0.6,0.5,0.9,0.5c0.7,0,1.7-0.6,3-1.7c3.3-2.7,5.4-6.6,6-10.8h8.6
	c0.4,0,0.7,0.1,1,0.3c0.2,0.2,0.3,0.5,0.3,0.8l-0.1,1.9c0,1.7-0.3,3.4-0.8,5.1c-0.1,0.8-0.7,1.5-1.4,1.8c-0.9,0.2-1.8,0.2-2.6,0.2
	c-0.5,0-1,0.1-1.5,0.3c-0.3,0.2-0.5,0.6-0.5,1c-0.1,0.7,0.4,1.3,1.1,1.3C111.5,106.9,111.6,106.9,111.7,106.9L111.7,106.9
	L111.7,106.9z M137.6,81.7c0-0.6-0.6-1.1-1.2-1h-0.1c-0.2,0-0.5,0.1-0.7,0.2c-0.2,0.2-0.4,0.5-0.4,0.8c-1.3,4.2-3.1,8.1-5.3,11.9
	c-0.2,0.3-0.4,0.6-0.4,1c0,0.9,0.4,1.4,1.1,1.4c0.5,0,1.4-1.4,2.8-4.1V106c0,1,0.4,1.4,1.2,1.4s1.2-0.4,1.2-1.4V86.8l1.7-4.2
	c0.1-0.3,0.2-0.5,0.2-0.8L137.6,81.7L137.6,81.7z M154.9,104.5c-3.1-0.3-6.1-1.2-9-2.5c0.8-1.4,1.3-2.9,1.5-4.5h5.1
	c0.7,0.1,1.4,0,1.9-0.5c0.4-0.6,0.7-1.3,0.6-2v-6.2c0.1-1.6-0.7-2.5-2.5-2.5h-4.7v-2.1h6.9c0.6,0.1,1.2-0.2,1.4-0.8
	c0-0.1,0-0.2,0-0.3c0-0.6-0.4-1.2-1.1-1.2c-0.1,0-0.2,0-0.3,0h-15.6c-0.3,0-0.7,0.1-0.9,0.3c-0.2,0.2-0.3,0.5-0.3,0.8
	c-0.1,0.6,0.4,1.1,1,1.2c0.1,0,0.2,0,0.3,0h6.5v2.1H141c-1.2-0.1-2.3,0.7-2.4,1.9c0,0.2,0,0.4,0,0.6V95c0,1.7,0.8,2.5,2.4,2.5h4.2
	c-0.2,1.2-0.6,2.3-1.2,3.3c-0.8-0.5-1.4-1.2-2-1.9c-0.3-0.5-0.7-0.8-1.3-0.9c-0.5-0.1-1,0.2-1.1,0.7c0,0.1,0,0.2,0,0.2
	c0,0.8,1,1.9,3,3.5c-1.4,1.1-3,1.9-4.7,2.3c-1.1,0.3-1.7,0.7-1.7,1.2c-0.1,0.6,0.3,1.2,0.9,1.3c0.1,0,0.2,0,0.4,0
	c1.1-0.1,2.1-0.4,3.1-0.9c1.5-0.6,2.8-1.5,4-2.6c1.7,1,3.5,1.8,5.4,2.3c1.6,0.6,3.2,1,4.9,1.1c0.6,0.1,1.2-0.3,1.3-0.9
	c0-0.1,0-0.2,0-0.4C156.3,105.1,155.8,104.7,154.9,104.5L154.9,104.5L154.9,104.5z M145.5,90.9h-4.7v-1.5c-0.1-0.4,0.2-0.8,0.7-0.9
	c0.1,0,0.2,0,0.2,0h3.8V90.9z M151.6,88.5c0.5,0,0.9,0.3,0.9,0.7c0,0.1,0,0.2,0,0.3v1.4h-4.8v-2.4H151.6z M145.4,95.3h-3.6
	c-0.4,0.1-0.8-0.2-0.9-0.6c0-0.1,0-0.1,0-0.2v-1.6h4.6L145.4,95.3z M152.5,94.4c0,0.5-0.3,0.9-0.8,0.9h-0.1h-4.1l0.1-2.4h4.8
	L152.5,94.4L152.5,94.4z"/>
</svg>
