<?xml version="1.0" encoding="utf-8"?>
<!-- Generator: Adobe Illustrator 24.0.3, SVG Export Plug-In . SVG Version: 6.00 Build 0)  -->
<svg version="1.1" id="icon_spec4.svg" xmlns="http://www.w3.org/2000/svg" xmlns:xlink="http://www.w3.org/1999/xlink" x="0px"
	 y="0px" viewBox="0 0 187 187" style="enable-background:new 0 0 187 187;" xml:space="preserve">
<style type="text/css">
	.st0{fill-rule:evenodd;clip-rule:evenodd;fill:#FFFFFF;}
</style>
<path id="近大公園" class="st0" d="M51.2,103.1c0.8,0,1.2-0.5,1.2-1.5v-10h3c1,0,1.5-0.4,1.5-1.2c0-0.7-0.5-1.1-1.5-1.1H43.1
	v-2.7c-0.1-0.5,0-0.9,0.3-1.3c0.5-0.3,1.1-0.5,1.7-0.5c0.5,0,1.1,0,1.6-0.1c0.9-0.1,2-0.2,3.2-0.4c2.4-0.3,3.9-0.6,4.6-0.7
	c0.6,0,1.1-0.5,1.1-1.1c0-0.4-0.1-0.9-0.3-1.2c-0.2-0.3-0.6-0.4-1-0.3l-0.8,0.1c-3.4,0.8-6.9,1.3-10.3,1.7c-1.3,0-2.4,1-2.5,2.3
	c0,0.2,0,0.3,0,0.5l0.1,3.7c0,5.1-0.6,8.5-1.7,10.2c-0.2,0.3-0.4,0.6-0.5,0.9c-0.1,0.1-0.2,0.3-0.2,0.5c-0.1,0.6,0.4,1.2,1,1.3
	c0.1,0,0.2,0,0.4,0c0.8,0,1.5-0.9,2.2-2.7c0.8-2.4,1.2-5,1.1-7.6v-0.3h7v10C50,102.6,50.4,103.1,51.2,103.1L51.2,103.1L51.2,103.1z
	 M36.5,85.1c0.6,0.1,1.1-0.3,1.2-0.9c0-0.1,0-0.2,0-0.3c0-0.4-0.2-0.7-0.5-0.9c-0.4-0.4-0.9-0.7-1.4-0.9c-0.7-0.3-1.5-0.6-2.3-0.8
	c-0.5-0.1-1,0.3-1.1,0.9c0,0.1,0,0.2,0,0.2c0.1,0.6,0.5,1.1,1,1.3l1.9,0.9c0.1,0.2,0.3,0.3,0.5,0.3C36,85,36.3,85.1,36.5,85.1
	L36.5,85.1L36.5,85.1z M35.3,90.6c0.6,0.1,1.1-0.3,1.1-0.9c0-0.1,0-0.2,0-0.3c0-0.6-0.6-1.2-1.9-1.7c-0.8-0.4-1.6-0.7-2.4-0.8
	c-0.5-0.1-1.1,0.3-1.1,0.8c0,0.1,0,0.2,0,0.3c0,0.5,0.4,1,0.9,1.2l2.4,1C34.6,90.4,35,90.6,35.3,90.6L35.3,90.6L35.3,90.6z
	 M46.4,106.6h9.1c1.2,0,1.8-0.4,1.8-1.2c0.1-0.6-0.3-1.1-0.9-1.2c-0.1,0-0.2,0-0.3,0l-10.4,0.2c-4.3,0-7.2-0.6-8.5-1.6l-0.8-0.7
	v-5.9c0.1-0.7-0.1-1.3-0.6-1.8c-0.5-0.4-1.2-0.7-1.9-0.6h-2.3c-0.6-0.1-1.1,0.3-1.2,0.9c0,0.1,0,0.2,0,0.3c0,0.3,0.1,0.6,0.3,0.8
	c0.3,0.2,0.6,0.3,0.9,0.3h1.6c0.2,0,0.4,0.1,0.6,0.2C34,96.5,34,96.7,34,97v5.3c-0.7,0.4-1.5,0.8-2.3,1.2c-0.7,0.2-1.2,0.8-1.3,1.5
	c0,1,0.4,1.4,1.2,1.4c0.6,0,1.8-0.8,3.8-2.4c1,1,2.2,1.6,3.6,2C41.5,106.5,44,106.7,46.4,106.6L46.4,106.6L46.4,106.6z M64.9,107.1
	c1.2-0.2,2.3-0.7,3.2-1.4c4.4-2.6,7.6-6.9,8.8-11.9c0.7,2.2,1.8,4.3,3.2,6.1c1.4,1.9,3.1,3.6,5,4.9c1.1,0.8,2,1.3,2.6,1.7
	c0.4,0.2,0.8,0.4,1.2,0.5c0.7,0.1,1.3-0.5,1.3-1.2c0-0.1,0-0.2,0-0.3c-0.1-0.6-0.5-1.2-1.1-1.4c-2.7-1.4-5.2-3.4-7.1-5.8
	c-1.8-2.3-3.2-5-3.9-7.8h10.3c1,0,1.5-0.4,1.5-1.2s-0.5-1.2-1.5-1.2H77.7c0.1-2.7,0.1-4.6,0.1-5.8c0-0.4-0.1-0.8-0.3-1.1
	c-0.2-0.3-0.6-0.4-1-0.4c-0.8,0-1.2,0.5-1.2,1.5c0,3-0.1,4.9-0.1,5.8h-9.8c-0.4,0-0.8,0.1-1.1,0.3c-0.5,0.5-0.5,1.3,0,1.8
	c0.3,0.2,0.7,0.3,1.1,0.3H75c-0.5,6.1-4.2,11.4-9.8,13.8c-0.4,0.2-0.8,0.4-1.1,0.7c-0.2,0.2-0.4,0.5-0.4,0.8c-0.1,0.6,0.4,1.2,1,1.3
	C64.7,107.1,64.8,107.1,64.9,107.1L64.9,107.1L64.9,107.1z M122,96.3c0.6,0.1,1.1-0.4,1.2-1c0-0.1,0-0.2,0-0.3
	c-0.2-0.8-0.7-1.4-1.4-1.7c-3.3-2.1-5.5-5.5-6.1-9.4c-0.1-1.3-1.2-2.3-2.5-2.2h-3.7c-0.7-0.1-1.3,0.4-1.3,1.1
	c-0.1,0.7,0.4,1.3,1.1,1.3c0.1,0,0.2,0,0.3,0h3c0.6,0,1,0.5,1.2,1.4c0.6,2.7,1.9,5.2,3.7,7.3c0.8,1,1.7,1.9,2.6,2.7
	C120.6,95.9,121.3,96.2,122,96.3L122,96.3z M97.7,96.5c0.2,0,0.4,0,0.5-0.1c0.2-0.2,0.4-0.3,0.7-0.5c1.7-1.8,3.2-3.9,4.4-6.1
	c0.6-1,1.1-2,1.6-3.1c0.3-0.6,0.5-1.2,0.5-1.9c0.1-0.5-0.3-1-0.9-1.1c-0.1,0-0.2,0-0.3,0c-0.3,0-0.6,0.2-0.8,0.5
	c-0.3,0.4-0.5,0.8-0.7,1.2c-1,2.7-2.4,5.1-4.3,7.3c-1.2,1.4-1.8,2.2-1.8,2.5c-0.1,0.6,0.2,1.2,0.8,1.3
	C97.5,96.5,97.6,96.5,97.7,96.5L97.7,96.5L97.7,96.5z M120.2,107.1c0.6,0.1,1.2-0.3,1.3-0.9c0-0.1,0-0.2,0-0.3
	c-0.1-0.9-0.5-1.7-1.2-2.4c-1-1.4-2.1-2.9-3.4-4.5c-1.4-1.7-2.4-2.6-3-2.6c-0.5-0.1-1,0.2-1.1,0.7c0,0.1,0,0.2,0,0.3
	c0.2,0.6,0.5,1.1,1,1.5c0.7,0.8,1.6,2,2.8,3.7l-12.4,0.9c1.8-3.1,3.3-6.4,4.4-9.9c0.1-0.1,0.1-0.2,0.1-0.3c0.1-0.1,0.1-0.3,0.1-0.4
	c0-0.3-0.2-0.6-0.3-0.8c-0.3-0.2-0.6-0.3-0.9-0.3c-0.7,0-1.2,0.5-1.3,1.1c-1.1,3.7-2.6,7.3-4.4,10.7h-1c-0.8-0.1-1.7,0-2.5,0.4
	c-0.3,0.2-0.5,0.5-0.4,0.9c0,0.4,0.1,0.7,0.4,1s0.7,0.4,1.1,0.3l8.3-0.7c2.1-0.2,4-0.4,5.6-0.6s2.6-0.3,3-0.3l1.1-0.2h0.5l0.8,1.4
	C119,106.5,119.6,106.9,120.2,107.1L120.2,107.1L120.2,107.1z M152.1,81.8h-18.3c-0.9-0.1-1.7,0.2-2.4,0.7c-0.6,0.7-0.8,1.6-0.7,2.5
	v19c-0.1,0.9,0.2,1.7,0.7,2.4c0.7,0.5,1.5,0.8,2.4,0.7h18.3c0.9,0.1,1.7-0.2,2.4-0.7c0.5-0.7,0.8-1.5,0.7-2.4V85
	c0.1-0.9-0.2-1.8-0.7-2.5C153.8,82,152.9,81.7,152.1,81.8L152.1,81.8z M152.8,103.5c0.1,0.7-0.4,1.4-1.1,1.5c-0.1,0-0.3,0-0.4,0
	h-16.8c-0.7,0.1-1.4-0.4-1.5-1.1c0-0.1,0-0.3,0-0.4V85.4c-0.1-0.7,0.4-1.4,1.1-1.5c0.1,0,0.3,0,0.4,0h16.8c0.7-0.1,1.4,0.4,1.5,1.1
	c0,0.1,0,0.3,0,0.4V103.5L152.8,103.5z M150.8,89.6H144V88h5.5c0.4,0.1,0.9-0.2,1-0.7c0-0.1,0-0.2,0-0.2c0-0.4-0.3-0.8-0.8-0.8
	c-0.1,0-0.1,0-0.2,0H144v-0.9c0-0.3-0.1-0.6-0.3-0.8c-0.2-0.2-0.6-0.3-0.9-0.2c-0.5-0.1-1,0.2-1.1,0.7c0,0.1,0,0.2,0,0.3v0.9h-5.4
	c-0.4-0.1-0.9,0.2-0.9,0.6c0,0.1,0,0.1,0,0.2c0,0.5,0.3,0.9,0.7,0.9c0.1,0,0.2,0,0.2,0h5.4v1.6h-6.8c-0.5,0-0.9,0.4-0.9,0.9
	s0.4,0.9,0.9,0.9l0,0h15.9c0.5,0.1,1-0.3,1-0.8c0.1-0.5-0.3-1-0.8-1C151,89.6,150.9,89.6,150.8,89.6L150.8,89.6L150.8,89.6z
	 M143.3,101.4l-2.2,0.4v-3.2c0.6-0.4,1.1-0.8,1.4-1.1h5.4c1,0.1,1.8-0.5,2-1.5c0-0.1,0-0.3,0-0.4v-1.3c0-0.5-0.2-1-0.5-1.4
	c-0.4-0.3-0.9-0.5-1.4-0.4h-10.3c-0.5,0-0.9,0.1-1.3,0.4c-0.3,0.4-0.5,0.8-0.5,1.3v1.4c0,0.5,0.1,1,0.5,1.4c0.4,0.3,0.9,0.5,1.4,0.5
	h2.1c-1.7,0.9-3.5,1.6-5.3,2.1c-0.5,0.1-0.9,0.6-0.7,1.2c0,0.2,0.1,0.3,0.2,0.4c0.2,0.2,0.4,0.3,0.7,0.3c0.2,0,0.4-0.1,0.6-0.2
	c1.3-0.4,2.5-1,3.8-1.6v2.4c-0.7,0.2-1.5,0.3-2.3,0.3c-0.5,0-1,0.4-1,0.9l0,0c-0.1,0.5,0.3,0.9,0.8,1c0.1,0,0.2,0,0.3,0h0.4
	c0.3-0.1,0.7-0.1,1-0.1c0.3-0.1,1-0.2,2.2-0.4c1.1-0.2,2.1-0.4,3.2-0.7c0.2,0,0.4-0.1,0.6-0.3c0.1-0.2,0.2-0.4,0.2-0.6
	s-0.1-0.4-0.2-0.6c-0.2-0.2-0.4-0.3-0.6-0.3C143.5,101.3,143.4,101.4,143.3,101.4L143.3,101.4L143.3,101.4z M138.1,95
	c0-0.6,0.2-0.8,0.7-0.8h8.3c0.4,0,0.7,0.2,0.7,0.8c0,0.2,0,0.4-0.2,0.6c-0.1,0.1-0.3,0.2-0.5,0.2h-8.3
	C138.4,95.8,138.1,95.5,138.1,95L138.1,95L138.1,95z M150.8,102c-1-0.6-1.8-1.1-2.3-1.4c0.6-0.3,1.2-0.7,1.7-1.1
	c0.3-0.2,0.4-0.5,0.4-0.8c0-0.2-0.1-0.4-0.2-0.6c-0.2-0.2-0.4-0.4-0.7-0.4c-0.2,0-0.5,0.1-0.6,0.3c-0.6,0.5-1.4,1.1-2.3,1.7
	c-0.9-0.4-1.8-0.8-2.7-1.1c-0.3-0.2-0.8-0.1-1.1,0.1c-0.2,0.2-0.3,0.4-0.2,0.6c0,0.4,0.2,0.7,0.6,0.8c1.9,1,4.1,2.2,6.4,3.7
	c0.2,0.2,0.4,0.3,0.7,0.3c0.4,0,0.7-0.2,0.8-0.6c0.1-0.1,0.1-0.3,0.2-0.5C151.4,102.6,151.2,102.2,150.8,102L150.8,102L150.8,102z"
	/>
</svg>
