<?xml version="1.0" encoding="utf-8"?>
<!-- Generator: Adobe Illustrator 24.0.3, SVG Export Plug-In . SVG Version: 6.00 Build 0)  -->
<svg version="1.1" id="icon_spec8.svg" xmlns="http://www.w3.org/2000/svg" xmlns:xlink="http://www.w3.org/1999/xlink" x="0px"
	 y="0px" viewBox="0 0 187 187" style="enable-background:new 0 0 187 187;" xml:space="preserve">
<style type="text/css">
	.st0{fill-rule:evenodd;clip-rule:evenodd;fill:#FFFFFF;}
</style>
<path id="戶數單純" class="st0" d="M31.8,107.6c0.7,0,1.4-0.8,2.1-2.5c0.5-1.1,0.8-2.1,1.1-2.9c0.3-1,0.5-2,0.5-3h16.8
	c0.7,0.1,1.5,0,2-0.5c0.5-0.6,0.7-1.3,0.6-2.1v-5.8c0.1-0.7-0.1-1.5-0.5-2.1c-0.6-0.5-1.4-0.7-2.1-0.6H35.9v-1.4
	c0-0.4,0.1-0.7,0.3-1c0.3-0.2,0.6-0.4,1-0.4c3.2-0.2,6.8-0.5,10.7-0.9c1.9-0.2,3.3-0.4,4.2-0.5c0.9-0.2,1.5-0.3,1.8-0.4
	c0.6-0.1,1-0.6,0.9-1.2c0.1-0.7-0.4-1.4-1.1-1.5c-0.1,0-0.2,0-0.4,0c-0.4,0-0.9,0.1-1.3,0.3c-2,0.5-4,0.8-6.1,1c-3,0.3-6.3,0.6-10,1
	h-0.7c-1.2,0.1-1.9,1-1.9,2.5v3.6v3.1c0.1,2.5-0.1,5-0.5,7.4c-0.4,1.9-1.1,3.7-2.1,5.4c-0.2,0.3-0.4,0.7-0.4,1.1
	c-0.1,0.6,0.3,1.3,0.9,1.4C31.6,107.6,31.7,107.6,31.8,107.6L31.8,107.6L31.8,107.6z M51.2,96.9H35.8c0.1-1.5,0.1-3.6,0.1-6.5h15.2
	c0.4,0,0.8,0.1,1.1,0.3c0.2,0.3,0.3,0.7,0.3,1.1v3.7c0,0.4-0.1,0.8-0.3,1.1C52,96.8,51.6,96.9,51.2,96.9L51.2,96.9L51.2,96.9z
	 M74.9,103.6c0.7-1,1.3-2.2,1.5-3.4h2.4c0.5,0.1,1-0.3,1-0.8c0.1-0.5-0.3-1-0.8-1c-0.1,0-0.2,0-0.2,0h-8.6l0.7-1.5h4.9
	c1.5,0.1,2.3-0.5,2.3-1.8v-1.6c0-0.5-0.2-1-0.6-1.3c-0.5-0.3-1.1-0.5-1.7-0.4h-3.3v-1.2h3c0.6,0.1,1.3-0.1,1.8-0.5
	c0.4-0.5,0.6-1.1,0.6-1.8v-1h0.8c0.3,0,0.5-0.1,0.7-0.2c0.2-0.2,0.3-0.4,0.3-0.7c0-0.6-0.3-0.8-1-0.8h-0.8v-0.9
	c0.1-0.6-0.1-1.3-0.5-1.8c-0.5-0.4-1.2-0.6-1.8-0.5h-3v-0.7c0-0.6-0.4-1.1-1-1.1s-1.1,0.4-1.1,1v0.1v0.7h-2.8
	c-0.6-0.1-1.3,0-1.8,0.5c-0.4,0.5-0.6,1.2-0.5,1.8v0.9h-1c-0.6,0-1,0.2-1,0.8c0,0.5,0.3,0.9,0.7,0.9c0.1,0,0.2,0,0.2,0h1v1
	c-0.1,0.6,0,1.3,0.5,1.8c0.5,0.4,1.2,0.5,1.8,0.5h2.8v1.2h-3.1c-1.6-0.1-2.4,0.5-2.4,1.8v1.6c0,0.5,0.2,1,0.6,1.3
	c0.5,0.3,1.1,0.5,1.8,0.4h1.4L68,98.4h-3.5c-0.5-0.1-1,0.3-1,0.8c-0.1,0.5,0.3,1,0.8,1c0.1,0,0.2,0,0.2,0H67l-0.4,0.6
	c-0.3,0.4-0.4,0.8-0.5,1.2c0,0.3,0.2,0.6,0.4,0.8c0.4,0.3,0.8,0.5,1.3,0.6l3.3,0.8c-1.5,0.7-3.2,1.1-4.9,1.1c-1.4,0.1-2,0.4-2,1
	s0.5,1.1,1.1,1.1c0.1,0,0.2,0,0.3,0c1.4-0.1,2.9-0.3,4.2-0.7c1.3-0.3,2.5-0.9,3.7-1.6l1.3,0.6c0.5,0.3,1,0.6,1.6,0.7
	c0.5,0.1,1-0.3,1.1-0.9c0-0.1,0-0.2,0-0.2c-0.1-0.3-0.3-0.6-0.6-0.8C76.3,104.1,75.6,103.8,74.9,103.6L74.9,103.6L74.9,103.6z
	 M88.9,104.3c-1.3-0.8-2.5-1.7-3.5-2.9c0.9-1.5,1.5-3,1.9-4.7c0.4-2,0.6-4.1,0.7-6.2l0.1-1.8h1c0.5,0.1,1-0.2,1.1-0.8
	c0-0.1,0-0.2,0-0.3c0.1-0.6-0.3-1.1-0.8-1.2c-0.1,0-0.2,0-0.3,0h-6.5c0.7-1.5,1.2-3.1,1.5-4.7c0-0.5-0.4-1-0.9-1c-0.1,0-0.2,0-0.3,0
	c-0.4,0-0.7,0.1-0.9,0.4c-0.3,0.6-0.5,1.2-0.5,1.8c-0.6,2.7-1.6,5.4-3,7.8C78.2,91,78,91.4,78,91.8c-0.1,0.5,0.2,1,0.7,1.1
	c0.1,0,0.1,0,0.2,0c0.4,0,1-0.7,1.7-2c0.2,2.1,0.5,4.2,0.9,6.3c0.3,1.5,0.7,2.9,1.4,4.2c-1,1.4-2.4,2.5-3.9,3.3
	c-0.9,0.5-1.3,0.9-1.3,1.5c0,0.3,0.1,0.6,0.3,0.8c0.2,0.2,0.5,0.3,0.8,0.3c0.9-0.2,1.7-0.6,2.5-1.2c1.1-0.8,2.1-1.8,3-2.8
	c2.2,2.6,3.8,3.9,4.9,3.9c0.6,0.1,1.1-0.4,1.2-1c0-0.1,0-0.2,0-0.3C90.2,105.4,89.8,104.9,88.9,104.3L88.9,104.3L88.9,104.3z
	 M67.4,84.8c0-0.4,0.3-0.7,0.7-0.7l0,0h2.4v1.5h-3.1V84.8L67.4,84.8z M72.5,84.1h2.6c0.2,0,0.4,0.1,0.5,0.2s0.2,0.3,0.2,0.5v0.8
	h-3.3L72.5,84.1L72.5,84.1z M68.1,88.9c-0.4,0-0.7-0.3-0.7-0.7l0,0v-0.9h3.1v1.6H68.1L68.1,88.9z M72.5,87.3h3.3v0.9
	c0,0.4-0.2,0.7-0.6,0.7h-0.1h-2.6L72.5,87.3L72.5,87.3z M84.1,99.4c-1.1-2.6-1.6-5.4-1.7-8.2l-0.1-2.5H86v0.5
	C85.8,93.9,85.2,97.3,84.1,99.4L84.1,99.4L84.1,99.4z M67.1,94.4c0-0.2,0-0.5,0.2-0.7c0.1-0.1,0.3-0.2,0.5-0.2h2.7v1.7h-2.7
	c-0.2,0-0.4-0.1-0.5-0.2C67.2,94.8,67.1,94.6,67.1,94.4L67.1,94.4L67.1,94.4z M72.5,93.5h2.9c0.2,0,0.4,0.1,0.5,0.2
	c0.1,0.2,0.2,0.4,0.2,0.6s0,0.5-0.2,0.7c-0.1,0.1-0.3,0.2-0.5,0.2h-2.9V93.5z M72.9,103l-3.7-1c-0.3,0-0.6-0.2-0.7-0.5
	c0-0.2,0.1-0.4,0.2-0.5c0.1-0.2,0.2-0.3,0.3-0.5l0.2-0.3h5.1C74.1,101.2,73.6,102.2,72.9,103L72.9,103L72.9,103z M100.3,88h6.2
	c1.5,0,2.2-0.7,2.2-2.3v-1.8c0.2-1.1-0.6-2.1-1.7-2.3c-0.2,0-0.4,0-0.5,0h-6.1c-1.1-0.1-2.1,0.6-2.3,1.8c0,0.2,0,0.4,0,0.5v1.8
	c-0.2,1.1,0.6,2.1,1.6,2.3C99.9,88,100.1,88,100.3,88L100.3,88z M113,88h6.4c1.5,0,2.2-0.7,2.2-2.3v-1.8c0.2-1.1-0.6-2.1-1.7-2.3
	c-0.2,0-0.4,0-0.5,0H113c-1.1-0.1-2.1,0.7-2.2,1.8c0,0.2,0,0.4,0,0.5v1.9c-0.2,1.1,0.6,2.1,1.7,2.2C112.7,88,112.8,88,113,88L113,88
	L113,88z M105.6,86.1h-4.4c-0.4,0-0.8-0.3-0.8-0.7c0,0,0,0,0-0.1v-0.9c0-0.4,0.3-0.8,0.7-0.8h0.1h4.4c0.4,0,0.7,0.2,0.8,0.6
	c0,0.1,0,0.1,0,0.2v0.9C106.4,85.7,106.1,86.1,105.6,86.1L105.6,86.1L105.6,86.1z M118.6,86.1h-4.7c-0.4,0-0.8-0.3-0.8-0.7
	c0,0,0,0,0-0.1v-0.9c0-0.2,0.1-0.4,0.2-0.6c0.2-0.1,0.4-0.2,0.6-0.2h4.7c0.4,0,0.8,0.2,0.8,0.6c0,0.1,0,0.1,0,0.2v0.9
	c0,0.2-0.1,0.4-0.2,0.5C119.1,86,118.8,86.1,118.6,86.1L118.6,86.1L118.6,86.1z M109.8,107.4c0.6,0.1,1.1-0.3,1.1-0.9
	c0-0.1,0-0.2,0-0.3v-3.3H122c0.5,0.1,1.1-0.2,1.2-0.7c0-0.1,0-0.2,0-0.3c0-0.6-0.4-1.1-1-1.1c-0.1,0-0.2,0-0.2,0h-11v-1.7h7.2
	c0.7,0.1,1.4-0.2,1.9-0.6c0.4-0.5,0.7-1.2,0.6-1.9v-4.7c0.1-0.7-0.1-1.4-0.5-1.9c-0.6-0.5-1.3-0.7-2-0.6h-16.6
	c-0.7-0.1-1.4,0.1-1.9,0.6c-0.4,0.5-0.7,1.2-0.6,1.9v4.7c-0.1,0.7,0.1,1.4,0.5,1.9c0.6,0.5,1.3,0.7,2,0.6h7.1v1.7h-11
	c-0.6-0.1-1.1,0.3-1.2,0.8c0,0.1,0,0.2,0,0.2c0,0.5,0.4,1,0.9,1c0.1,0,0.2,0,0.3,0h11v3.3c-0.1,0.6,0.3,1.1,0.9,1.2
	C109.6,107.4,109.7,107.4,109.8,107.4L109.8,107.4z M108.7,93.3h-7.3v-1.2c-0.1-0.4,0.2-0.8,0.7-0.9c0.1,0,0.2,0,0.2,0h6.5
	L108.7,93.3L108.7,93.3z M118.4,93.3H111v-2.1h6.6c0.5,0,0.9,0.4,0.9,0.9l0,0L118.4,93.3L118.4,93.3z M108.7,97.2h-6.5
	c-0.4,0.1-0.8-0.2-0.9-0.6c0-0.1,0-0.1,0-0.2V95h7.3L108.7,97.2L108.7,97.2z M117.5,97.2h-6.6V95h7.4v1.4c0,0.2-0.1,0.4-0.2,0.6
	C118,97.2,117.7,97.2,117.5,97.2L117.5,97.2L117.5,97.2z M138.2,90.5c-0.4-0.1-0.8,0.2-0.9,0.6c0,0.1,0,0.1,0,0.2
	c0.1,0.5,0.3,1.1,0.6,1.6l-3.6,0.2l0.9-1.2c1.3-1.8,2.3-3.2,3.1-4.4c0.5-0.6,0.8-1.3,1.1-2.1c0-0.5-0.3-1-0.8-1c-0.1,0-0.2,0-0.3,0
	c-0.2,0-0.5,0.1-0.7,0.2c-0.2,0.2-0.4,0.4-0.6,0.7l-1.7,3.1l-1.6-1.4c1.9-2.7,2.9-4.4,2.9-5.2c0.1-0.6-0.4-1.1-0.9-1.1
	c-0.1,0-0.2,0-0.2,0c-0.6,0-1.1,0.4-1.3,1c-0.6,1.5-1.3,2.9-2,4.2c-0.3-0.2-0.7-0.4-1.1-0.5c-0.6-0.1-1.1,0.3-1.2,0.8
	c0,0.1,0,0.2,0,0.2c0.1,0.5,0.5,0.9,0.9,1.2c1.1,0.8,2.2,1.6,3.2,2.5l-2,3h-0.7c-0.5,0-0.9,0.1-1.3,0.3c-0.3,0.2-0.5,0.5-0.4,0.8
	c0,0.3,0.1,0.6,0.3,0.9c0.2,0.2,0.5,0.3,0.8,0.2c0.9,0,1.8-0.1,2.7-0.2L134,95v11.1c-0.1,0.6,0.3,1.2,0.9,1.3
	c0.6,0.1,1.2-0.3,1.3-0.9c0-0.1,0-0.2,0-0.3V94.9l1.5-0.2c0.1-0.1,0.2-0.1,0.3-0.1h0.3c0.3,0.9,0.7,1.3,1.1,1.3
	c0.5,0.1,0.9-0.2,1-0.7c0-0.1,0-0.2,0-0.2c-0.2-1-0.5-2-1-2.9C139.1,91,138.6,90.5,138.2,90.5L138.2,90.5L138.2,90.5z M155,101.3
	c-0.6,0-1.1,0.4-1.1,1c0,0.1,0,0.1,0,0.2c0,0.6-0.1,1.2-0.5,1.7c-0.6,0.3-1.3,0.4-1.9,0.3c-0.8,0.1-1.6,0-2.4-0.2
	c-0.2-0.1-0.4-0.4-0.3-0.6v-4.3h3.6c0.7,0.1,1.3,0,1.8-0.5c0.4-0.5,0.6-1.2,0.6-1.9v-6.3c0.1-0.6-0.2-1.2-0.9-1.4
	c-0.6-0.1-1.2,0.2-1.4,0.9c0,0.2,0,0.3,0,0.5v5.5c0.1,0.5-0.2,0.9-0.7,1c-0.1,0-0.2,0-0.3,0h-2.7V86.6c1.6-0.2,3.3-0.5,4.8-1
	c0.9-0.3,1.4-0.7,1.4-1.1c0.1-0.6-0.3-1.1-0.9-1.2c-0.1,0-0.2,0-0.3,0s-0.6,0.2-1.5,0.4c-0.1,0-0.5,0.2-1.2,0.4s-1.5,0.3-2.3,0.5V82
	c0.1-0.6-0.3-1.2-0.9-1.3c-0.1,0-0.1,0-0.2,0c-0.6,0-1.1,0.5-1.1,1.1c0,0.1,0,0.1,0,0.2v2.9c-2.1,0.3-3.5,0.4-4.3,0.5
	c-1.4,0-2.1,0.4-2.1,1.1c0,0.3,0.1,0.6,0.3,0.8c0.3,0.1,0.6,0.2,0.9,0.2c1.7-0.1,3.4-0.2,5.2-0.5v10.2h-2.2c-0.3,0.1-0.6,0-0.8-0.2
	s-0.3-0.5-0.3-0.8v-5.5c0-0.9-0.4-1.4-1.1-1.4c-0.6,0-1.2,0.5-1.2,1.1c0,0.1,0,0.2,0,0.3V97c-0.1,0.6,0.1,1.3,0.5,1.8
	c0.5,0.4,1.2,0.7,1.9,0.6h3v5c-0.1,0.8,0.4,1.6,1.1,1.9c0.9,0.2,1.8,0.3,2.7,0.3c1.5,0.1,3.1-0.1,4.5-0.6c0.8-0.4,1.2-1.6,1.2-3.5
	c0-0.3-0.1-0.7-0.3-0.9C155.7,101.4,155.4,101.3,155,101.3L155,101.3L155,101.3z M131.6,96.6c-0.6,0-1,0.5-1,1.5
	c-0.1,0.8-0.2,1.7-0.3,2.5c-0.1,0.6-0.3,1.3-0.5,1.9c-0.1,0.4-0.2,0.8-0.3,1.2c0,0.5,0.4,0.9,0.8,0.9c0.1,0,0.2,0,0.2,0
	c0.6,0,1.1-0.8,1.5-2.6c0.3-1.4,0.5-2.9,0.6-4.4c0.1-0.5-0.2-0.9-0.7-1C131.8,96.6,131.7,96.6,131.6,96.6L131.6,96.6L131.6,96.6z
	 M138.3,96.6c-0.2,0-0.5,0.1-0.7,0.2c-0.2,0.2-0.3,0.4-0.2,0.7l0.1,0.7l0.1,0.3l0.5,4.2c0.1,1.1,0.5,1.6,1.1,1.6
	c0.5,0.1,0.9-0.2,1-0.7c0-0.1,0-0.2,0-0.3c-0.1-1.9-0.5-3.7-0.9-5.5c-0.1-0.3-0.2-0.6-0.4-0.9C138.8,96.7,138.6,96.6,138.3,96.6
	L138.3,96.6z"/>
</svg>
