<?xml version="1.0" encoding="utf-8"?>
<!-- Generator: Adobe Illustrator 24.0.3, SVG Export Plug-In . SVG Version: 6.00 Build 0)  -->
<svg version="1.1" id="icon_spec7.svg" xmlns="http://www.w3.org/2000/svg" xmlns:xlink="http://www.w3.org/1999/xlink" x="0px"
	 y="0px" viewBox="0 0 187 187" style="enable-background:new 0 0 187 187;" xml:space="preserve">
<style type="text/css">
	.st0{fill-rule:evenodd;clip-rule:evenodd;fill:#FFFFFF;}
</style>
<path id="素質整齊" class="st0" d="M54.3,101.3c0.3,0.4,0.7,0.7,1.2,0.7c0.6,0.1,1.1-0.3,1.2-0.8c0-0.1,0-0.2,0-0.2
	c-0.1-0.4-0.3-0.8-0.6-1.1c-0.5-0.7-1.1-1.3-1.8-1.9c-1.7-1.6-2.7-2.4-3-2.4s-0.6,0.1-0.8,0.3c-0.2,0.2-0.3,0.4-0.3,0.7
	c0,0.3,0.2,0.6,0.4,0.8l1.4,1.4L44,99h-0.6l3.5-2.7c1.3-1,1.9-1.7,1.9-2.1c0-0.5-0.3-1-0.9-1c-0.1,0-0.2,0-0.3,0
	c-0.5,0-0.9,0.3-1.2,0.7c-1.2,1.2-2.4,2.3-3.6,3.4l-2.5-1.5l3.2-3.3H56c0.5,0.1,1-0.2,1.1-0.7c0-0.1,0-0.2,0-0.3c0-0.6-0.4-1-1-1
	c-0.1,0-0.1,0-0.2,0h-11v-2h8.8c0.3,0,0.6-0.1,0.8-0.2c0.2-0.2,0.3-0.5,0.3-0.8c0-0.5-0.4-0.9-0.9-0.9c-0.1,0-0.2,0-0.2,0h-8.8v-1.9
	h10.2c0.6,0.1,1.1-0.3,1.1-0.9c0.1-0.6-0.3-1.1-0.9-1.1c-0.1,0-0.2,0-0.3,0H44.9v-1c-0.1-0.6-0.7-1.1-1.4-1c-0.5,0.1-0.9,0.5-1,1v1
	h-9.9c-0.6-0.1-1,0.3-1.1,0.9s0.3,1,0.9,1.1c0.1,0,0.1,0,0.2,0h9.9v1.9h-8.4c-0.5-0.1-1,0.2-1.1,0.7c0,0.1,0,0.2,0,0.2
	c-0.1,0.5,0.3,1,0.8,1c0.1,0,0.2,0,0.3,0h8.4v2H31.8c-0.5-0.1-1,0.3-1.1,0.8c0,0.1,0,0.1,0,0.2c0,0.5,0.3,1,0.9,1c0.1,0,0.2,0,0.3,0
	h8.8c-0.6,0.8-1.2,1.7-2,2.4c-0.5-0.3-1-0.6-1.6-0.9c-0.3-0.1-0.6-0.3-0.9-0.3c-0.5-0.1-1,0.3-1,0.8c0,0.1,0,0.1,0,0.2
	c0.1,0.5,0.5,0.9,1,1.1l5.2,2.9l-0.5,0.4h-8.2c-0.7-0.1-1.3,0.5-1.3,1.1c0,0.4,0.1,0.7,0.3,1c0.3,0.2,0.6,0.3,1,0.3l10-0.5v5.2
	c-0.1,0.6,0.4,1.2,1,1.3c0.1,0,0.2,0,0.3,0c0.6,0.1,1.2-0.4,1.3-1c0-0.1,0-0.2,0-0.3v-5.4l8.6-0.4L54.3,101.3z M55.7,104.3
	c-1.6-0.4-3.2-1-4.8-1.8c-0.4-0.2-0.9-0.4-1.3-0.5c-0.6-0.1-1.1,0.3-1.2,0.8c0,0.1,0,0.2,0,0.3c0,0.5,1.1,1.2,3.3,2.2
	c1.4,0.7,2.9,1.3,4.5,1.5c0.6,0,1.1-0.4,1.1-1c0-0.1,0-0.2,0-0.3c0-0.3-0.1-0.5-0.4-0.7C56.5,104.5,56.1,104.4,55.7,104.3
	L55.7,104.3L55.7,104.3z M38.1,102.1c-0.8,0.2-1.5,0.5-2.2,0.9c-1.2,0.5-2.4,1-3.7,1.4c-1.1,0.3-1.7,0.7-1.7,1.3
	c-0.1,0.5,0.2,1.1,0.8,1.2c0.1,0,0.2,0,0.3,0c1.5-0.2,3-0.7,4.4-1.4c2.2-0.9,3.3-1.7,3.3-2.2c0.1-0.6-0.3-1.1-0.8-1.2
	C38.3,102.1,38.2,102.1,38.1,102.1L38.1,102.1L38.1,102.1z M64.6,92.4c0.6,0,1.3-0.5,1.9-1.6c0.7-1.2,1.1-2.5,1.2-3.8h3.5v3.1
	c-0.1,0.6,0.3,1.2,0.9,1.3c0.6,0.1,1.2-0.3,1.3-0.9c0-0.1,0-0.2,0-0.4V87h2.3c0.5,0.1,1-0.2,1.1-0.7c0-0.1,0-0.2,0-0.3
	c0-0.5-0.4-0.9-0.9-0.9c-0.1,0-0.2,0-0.2,0h-7.9v-0.4c0-0.8,0.3-1.3,0.9-1.3l2.6-0.3c1.8-0.3,2.9-0.4,3.3-0.5c0.5,0,0.9-0.3,1-0.8
	c0-0.3-0.1-0.7-0.3-0.9c-0.2-0.2-0.5-0.2-0.8-0.2l-3.9,0.7l-2.2,0.2c-0.7-0.1-1.5,0.2-2.1,0.6c-0.5,0.4-0.7,1-0.7,1.6v0.6
	c0,1-0.1,2.1-0.2,3.1c-0.1,0.9-0.6,1.7-1.2,2.4c-0.4,0.3-0.7,0.8-0.8,1.3c-0.1,0.6,0.3,1.1,0.9,1.2C64.4,92.4,64.5,92.4,64.6,92.4
	L64.6,92.4L64.6,92.4z M76.8,91.5c0.8-0.2,1.5-0.7,1.9-1.4c0.7-0.9,1.1-2,1.3-3.1h3.9v3c-0.1,0.6,0.3,1.2,0.9,1.4
	c0.6,0.1,1.2-0.3,1.4-0.9c0-0.2,0-0.3,0-0.5v-3h3c0.5,0.1,1-0.2,1.1-0.7c0-0.1,0-0.2,0-0.3c0-0.6-0.4-0.9-1.2-0.9h-9V85
	c0-0.5,0-0.9,0.2-1.4c0.3-0.2,0.5-0.3,0.8-0.3c3.2-0.3,5.3-0.6,6.1-0.7c0.5,0.1,1-0.3,1.1-0.8c0-0.3-0.1-0.7-0.3-0.9
	c-0.3-0.1-0.5-0.2-0.8-0.2l-0.6,0.1c-2.4,0.4-4.4,0.7-6,0.8c-0.8,0-1.6,0.2-2.3,0.6c-0.5,0.3-0.8,0.9-0.7,1.5V86
	c0,1.3-0.5,2.5-1.4,3.3c-0.3,0.3-0.5,0.6-0.6,1c-0.1,0.6,0.3,1.1,0.9,1.2C76.6,91.5,76.7,91.5,76.8,91.5L76.8,91.5L76.8,91.5z
	 M68.8,103.7h16.1c0.7,0.1,1.4-0.2,1.9-0.6c0.4-0.5,0.7-1.2,0.6-1.9v-6.9c0.1-0.7-0.1-1.3-0.6-1.8c-0.5-0.4-1.2-0.7-1.9-0.6H68.8
	c-0.7-0.1-1.4,0-1.9,0.5c-0.4,0.5-0.7,1.2-0.6,1.9v6.9c-0.1,0.7,0.1,1.4,0.5,1.9C67.4,103.5,68.1,103.8,68.8,103.7L68.8,103.7
	L68.8,103.7z M85,95.3H68.7v-0.7c-0.1-0.4,0.3-0.8,0.7-0.9h0.1h14.6c0.4,0,0.8,0.3,0.8,0.7c0,0.1,0,0.1,0,0.2L85,95.3L85,95.3z
	 M68.7,98.6V97H85v1.6H68.7L68.7,98.6z M84.2,101.9H69.5c-0.4,0-0.8-0.3-0.8-0.8V101v-0.7H85v0.7c0.1,0.4-0.3,0.8-0.7,0.9H84.2
	L84.2,101.9L84.2,101.9z M85.9,107.1l3.3,0.3c0.5,0.1,1-0.3,1.1-0.8c0-0.1,0-0.2,0-0.3c0-0.6-0.7-1-2.2-1.1
	c-2.3-0.1-4.6-0.5-6.9-1.1l-0.8-0.2c-0.6-0.1-1.1,0.3-1.2,0.9c0,0.1,0,0.2,0,0.3c0,0.4,0.6,0.7,1.7,1.1
	C82.6,106.6,84.2,106.9,85.9,107.1L85.9,107.1L85.9,107.1z M64.4,107.4h0.9c2.8-0.3,5.5-0.8,8.2-1.5c0.6-0.2,1-0.4,1-0.8
	c0.1-0.6-0.3-1.1-0.9-1.2c-0.1,0-0.2,0-0.3,0c-0.2,0-0.4,0.1-0.6,0.1c-0.3,0.1-0.6,0.2-0.9,0.2c-1,0.3-2.1,0.5-3.1,0.7
	c-1.1,0.2-2.3,0.3-3.6,0.4c-1.2,0.1-1.8,0.5-1.8,1C63.5,107.1,63.8,107.5,64.4,107.4L64.4,107.4L64.4,107.4z M96.4,95
	c0,0.3,0.1,0.6,0.3,0.8c0.2,0.2,0.5,0.2,0.7,0.2c1-0.3,1.9-0.7,2.7-1.4c1-0.6,2-1.4,2.9-2.2v2.8c-0.1,0.5,0.3,0.9,0.8,1
	c0.1,0,0.1,0,0.2,0c0.5,0.1,1-0.3,1-0.8c0-0.1,0-0.1,0-0.2v-2.3l0.3,0.2c0.8,0.4,1.7,0.9,2.4,1.4c0.3,0.2,0.7,0.4,1.1,0.4
	c0.5,0.1,1-0.2,1.1-0.7c0-0.1,0-0.2,0-0.3c0-0.4-0.6-0.9-1.8-1.5c-0.7-0.4-1.5-0.7-2.3-0.9c-0.3,0-0.5,0.1-0.7,0.3v-0.9h3.1
	c0.9,0.1,1.8-0.6,1.9-1.5c0-0.1,0-0.2,0-0.3c0.1,0.4,0.5,0.8,0.9,0.7c0.4,0,1-0.5,1.7-1.6l0.3-0.4c0.4,1.5,1.1,2.9,2.1,4.1
	c-0.9,0.7-1.9,1.3-3,1.8c-0.6,0.2-1.2,0.5-1.8,0.8c-0.2,0.1-0.3,0.4-0.3,0.6c-0.1,0.5,0.3,1,0.8,1.1c0.1,0,0.1,0,0.2,0
	c0.8-0.1,1.6-0.4,2.3-0.9c1.1-0.6,2.2-1.2,3.1-2c1,0.8,2.1,1.4,3.2,2c0.8,0.5,1.7,0.8,2.6,1c0.6,0.1,1.1-0.4,1.1-0.9
	c0-0.1,0-0.2,0-0.3c-0.1-0.6-0.6-1.1-1.2-1.2c-1.5-0.5-2.9-1.2-4.1-2.1c1.3-1.6,2.2-3.4,2.7-5.3h1.4c0.6,0.1,1-0.3,1.1-0.9
	s-0.3-1-0.9-1.1c-0.1,0-0.1,0-0.2,0h-7.4l0.3-0.6c0.4-0.7,0.7-1.4,0.9-2.2c0.1-0.5-0.3-1-0.8-1c-0.1,0-0.2,0-0.3,0
	c-0.6,0-1,0.4-1.3,1.4c-0.6,2-1.6,3.9-2.9,5.6c-0.2,0.2-0.4,0.5-0.5,0.8v-0.8c0.1-0.6-0.1-1.1-0.5-1.5s-0.9-0.6-1.5-0.6h-3v-1.1h5.2
	c0.5,0.1,1-0.2,1.1-0.7c0-0.1,0-0.2,0-0.3c0-0.5-0.4-0.9-0.8-0.9c-0.1,0-0.2,0-0.2,0H105v-1.1c0-0.5-0.3-0.9-0.8-0.9
	c-0.1,0-0.2,0-0.2,0c-0.5-0.1-0.9,0.2-1,0.7c0,0.1,0,0.2,0,0.2v1.1h-5.3c-0.5-0.1-0.9,0.2-1,0.7c0,0.1,0,0.2,0,0.2
	c-0.1,0.5,0.3,0.9,0.8,1c0.1,0,0.2,0,0.3,0h5.3v1.1h-3.2c-1-0.1-1.9,0.6-2.1,1.6c0,0.2,0,0.4,0,0.5v1.2c-0.1,1,0.6,1.9,1.6,2
	c0.2,0,0.3,0,0.5,0h2.3c-1.5,1.2-3.1,2.2-4.8,3C96.8,94.1,96.5,94.5,96.4,95L96.4,95L96.4,95z M118.5,86.5c-0.4,1.5-1.1,2.8-2.1,4
	c-1-1.1-1.8-2.5-2.1-4H118.5L118.5,86.5z M100.4,89.2c-0.3,0.1-0.6-0.1-0.7-0.4c0-0.1,0-0.1,0-0.2V88c0-0.2,0.1-0.4,0.2-0.5
	s0.3-0.1,0.5-0.1h2.5v1.8L100.4,89.2L100.4,89.2z M105,87.4h2.4c0.3-0.1,0.6,0.1,0.6,0.4c0,0.1,0,0.1,0,0.2v0.6
	c0,0.2-0.1,0.4-0.2,0.5s-0.3,0.1-0.5,0.1H105V87.4L105,87.4z M122.1,104.6h-10.7v-2.1h7.7c0.5,0.1,1-0.3,1.1-0.8c0-0.1,0-0.1,0-0.2
	c0-0.5-0.4-0.9-0.8-0.9c-0.1,0-0.2,0-0.2,0h-7.7v-2.1h9.3c0.5,0.1,1-0.3,1.1-0.8c0-0.1,0-0.1,0-0.2c0.1-0.5-0.3-1-0.8-1
	c-0.1,0-0.2,0-0.3,0H99c-0.5-0.1-1,0.2-1.1,0.7c0,0.1,0,0.2,0,0.3c0,0.5,0.4,1,0.9,1c0.1,0,0.1,0,0.2,0h10.2v6.1h-5.6v-3.8
	c0.1-0.6-0.2-1.2-0.9-1.4c-0.1,0-0.2,0-0.3,0c-0.6,0-1.2,0.5-1.2,1.1c0,0.1,0,0.2,0,0.3v3.8h-3.6c-0.5-0.1-1,0.2-1.1,0.7
	c0,0.1,0,0.2,0,0.3c0,0.3,0.1,0.5,0.3,0.7c0.2,0.2,0.6,0.3,0.9,0.3h24.5c0.3,0,0.6-0.1,0.9-0.3c0.2-0.2,0.3-0.4,0.3-0.7
	c0-0.3-0.1-0.6-0.3-0.8C122.7,104.7,122.4,104.6,122.1,104.6L122.1,104.6L122.1,104.6z M131.1,85h23.7c0.5,0.1,1-0.2,1.2-0.7
	c0-0.1,0-0.2,0-0.3c0-0.6-0.4-1.1-0.9-1.1c-0.1,0-0.2,0-0.3,0h-10.7v-1.1c0-0.3-0.1-0.7-0.3-0.9c-0.3-0.2-0.6-0.3-1-0.3
	s-0.7,0.1-1,0.3c-0.2,0.2-0.4,0.6-0.4,0.9v1.1h-10.3c-0.6-0.1-1.1,0.3-1.2,0.8c0,0.1,0,0.2,0,0.2c0,0.5,0.4,1,0.9,1
	C130.9,85,131,85,131.1,85L131.1,85L131.1,85z M142.6,95.2c0.5,0.1,1-0.3,1.1-0.9c0-0.1,0-0.2,0-0.2v-4.6c0.1-0.7,0.6-1.3,1.1-1.7
	c0.6-0.4,1-1,1.2-1.7c0-0.5-0.4-0.8-1.2-0.8c-0.5,0-0.9,0.2-1.2,0.6l-1.2,1.4c-0.6,0.6-0.9,1.4-1,2.3v4.5c-0.1,0.5,0.3,1,0.9,1.1
	C142.5,95.2,142.6,95.2,142.6,95.2L142.6,95.2z M141.9,87.2c0-0.2-0.1-0.4-0.2-0.5c-0.2-0.2-0.4-0.4-0.6-0.6
	c-0.3-0.4-0.7-0.6-1.2-0.7s-0.9,0.2-1,0.6c0,0.1,0,0.1,0,0.2c0.2,0.5,0.5,0.9,0.9,1.2c0.2,0.2,0.4,0.4,0.7,0.6
	c0.1,0.1,0.3,0.2,0.4,0.2c0.5,0.1,1-0.3,1.1-0.8C141.9,87.3,141.9,87.3,141.9,87.2L141.9,87.2L141.9,87.2z M155.5,93
	c-1.9-1-3.2-2.9-3.5-5l1.7-0.4c0.5,0,0.9-0.4,0.9-0.9l0,0c0.1-0.5-0.3-1-0.8-1.1c-0.1,0-0.2,0-0.2,0c-0.1,0-0.7,0.2-1.7,0.4
	c-1.2,0.4-2.4,0.6-3.6,0.8c-1.2,0-2.2,1-2.2,2.2v0.1v4l-0.3,0.1c-0.3,0-0.6,0.1-0.9,0.3c-0.2,0.2-0.3,0.5-0.3,0.8s0.1,0.6,0.2,0.8
	c0.1,0.2,0.4,0.3,0.7,0.2l1.9-0.4c1.2-0.3,2.4-0.6,3.6-1.1c0.3-0.1,0.5-0.4,0.4-0.7c0-0.3-0.1-0.5-0.2-0.7c-0.1-0.2-0.4-0.3-0.6-0.3
	l-2.4,0.7v-3.4c0-0.4,0.4-0.7,1.1-0.9l0.8-0.1c0.4,1.7,1.1,3.4,2.2,4.8c1.1,1.4,2.1,2.1,2.9,2.1c0.6,0.1,1.1-0.3,1.2-0.9
	c0-0.1,0-0.2,0-0.3C156.3,93.6,156,93.2,155.5,93L155.5,93L155.5,93z M132.2,94.7c1.9-1.3,3-3.4,3.1-5.7h1.8c0.4,0,0.6,0.2,0.6,0.7
	c0,0.8-0.1,1.5-0.2,2.3c-0.1,0.6-0.6,1-1.2,0.9c-0.5-0.1-1.1,0.3-1.2,0.8c0,0.1,0,0.1,0,0.2c0,0.6,0.4,1.1,0.9,1.1
	c0.1,0,0.2,0,0.3,0c1.2,0.1,2.3-0.4,2.9-1.4c0.5-1.5,0.7-3,0.6-4.6c0-1.4-0.7-2-2.1-2h-6.3c-0.3,0-0.6,0.1-0.8,0.3
	c-0.2,0.2-0.3,0.4-0.3,0.7c0,0.3,0.1,0.5,0.3,0.7s0.5,0.3,0.8,0.3h1.9c0,1.8-1.1,3.4-2.7,4.1c-0.6,0.2-1,0.6-1.1,1.2
	c-0.1,0.5,0.2,1.1,0.8,1.2c0.1,0,0.2,0,0.3,0C131.1,95.4,131.7,95.1,132.2,94.7L132.2,94.7L132.2,94.7z M151.3,94.5
	c-0.6-0.1-1.1,0.3-1.2,0.9c0,0.1,0,0.2,0,0.3v1h-14.8v-0.9c0.1-0.6-0.3-1.1-0.9-1.2c-0.1,0-0.2,0-0.3,0c-0.5-0.1-1,0.2-1.1,0.7
	c0,0.1,0,0.3,0,0.4v0.5c0.1,2-0.1,4-0.5,5.9c-0.4,1-1.1,1.9-2,2.6c-0.5,0.3-0.8,0.8-1,1.3c0,0.3,0.1,0.6,0.3,0.9
	c0.2,0.2,0.6,0.3,0.9,0.3c0.9-0.1,1.6-0.6,2.1-1.3c0.8-0.9,1.4-2,1.8-3.2H150v3.5c-0.1,0.6,0.3,1.1,0.9,1.2c0.1,0,0.2,0,0.3,0
	c0.3,0,0.6-0.1,0.9-0.3c0.2-0.3,0.3-0.6,0.3-0.9V95.7c0.1-0.6-0.3-1.1-0.9-1.2C151.5,94.5,151.4,94.5,151.3,94.5L151.3,94.5
	L151.3,94.5z M135.2,100.8c0.1-0.7,0.2-1.4,0.2-2.1h14.8v2.1H135.2L135.2,100.8z"/>
</svg>
