<?xml version="1.0" encoding="utf-8"?>
<!-- Generator: Adobe Illustrator 24.0.3, SVG Export Plug-In . SVG Version: 6.00 Build 0)  -->
<svg version="1.1" id="icon_spec2.svg" xmlns="http://www.w3.org/2000/svg" xmlns:xlink="http://www.w3.org/1999/xlink" x="0px"
	 y="0px" viewBox="0 0 187 187" style="enable-background:new 0 0 187 187;" xml:space="preserve">
<style type="text/css">
	.st0{fill-rule:evenodd;clip-rule:evenodd;fill:#FFFFFF;}
</style>
<path id="中空樓板" class="st0" d="M52.9,86h-7.7v-3.9c0.1-0.7-0.5-1.3-1.2-1.4s-1.3,0.5-1.4,1.2c0,0.1,0,0.1,0,0.2V86h-7.4
	c-0.9-0.2-1.8,0-2.4,0.6c-0.6,0.7-0.8,1.7-0.7,2.6v6.5C32,98,33,99.1,35.3,98.9h7.4v7.1c-0.1,0.7,0.5,1.3,1.2,1.4s1.3-0.5,1.4-1.2
	c0-0.1,0-0.1,0-0.2v-7.1H53c0.9,0.2,1.8-0.1,2.4-0.7c0.6-0.7,0.9-1.6,0.8-2.5v-6.5C56.2,86.9,55.1,85.8,52.9,86L52.9,86L52.9,86z
	 M36.2,96.6c-0.5,0.1-1-0.1-1.3-0.4c-0.3-0.4-0.4-0.8-0.3-1.3V90c0-0.5,0.1-1,0.3-1.4c0.4-0.2,0.9-0.4,1.3-0.3h6.4v8.3H36.2
	L36.2,96.6z M53.5,94.9c0.1,0.5-0.1,0.9-0.3,1.3c-0.4,0.3-0.9,0.5-1.3,0.4h-6.7v-8.3h6.7c0.5-0.1,0.9,0.1,1.3,0.3
	c0.3,0.4,0.4,0.9,0.3,1.4V94.9L53.5,94.9z M64.1,89.3c-0.1,0.7,0.3,1.3,1,1.4s1.3-0.3,1.4-1c0-0.1,0-0.3,0-0.4v-2.2
	c-0.1-0.6,0.3-1.1,0.9-1.2c0.1,0,0.2,0,0.3,0H72c0.1,1.6-0.4,3.2-1.3,4.5c-0.9,1-2.2,1.6-3.5,1.8c-0.9,0.2-1.4,0.5-1.4,1.1
	c-0.1,0.6,0.3,1.1,0.8,1.2c0.1,0,0.2,0,0.3,0c1.1-0.1,2.2-0.4,3.3-1c1.3-0.5,2.3-1.5,3-2.7c0.6-1.4,1-2.9,1.1-4.4l0.1-0.5h3.8v6.3
	c0,0.6,0.2,1.2,0.7,1.5c1.2,0.3,2.4,0.5,3.7,0.4c1.2,0.1,2.4-0.2,3.5-0.8c0.6-0.5,0.9-1.5,0.9-3c0-0.5-0.3-1-0.9-1
	c-0.1,0-0.2,0-0.3,0c-0.6,0-1.1,0.4-1.1,0.9c0,0.1,0,0.1,0,0.2c0,0.5-0.2,1-0.5,1.3c-0.6,0.2-1.3,0.3-2,0.2c-1.1,0-1.7-0.3-1.7-1v-5
	H86c0.3,0,0.6,0.1,0.9,0.3c0.2,0.2,0.3,0.6,0.3,0.9v2.2c-0.1,0.6,0.3,1.2,0.8,1.3c0.1,0,0.2,0,0.3,0c0.6,0.1,1.1-0.4,1.2-1
	c0-0.1,0-0.2,0-0.3v-2.8c0.2-0.8-0.1-1.5-0.6-2.1c-0.6-0.5-1.4-0.7-2.2-0.7H78V82c0-0.4-0.1-0.7-0.3-1c-0.3-0.2-0.6-0.3-1-0.3
	c-0.6-0.1-1.2,0.3-1.3,0.9c0,0.1,0,0.2,0,0.4v1.7h-8.5c-2-0.1-2.9,0.9-2.8,2.8L64.1,89.3L64.1,89.3z M88.6,104H77.9v-5.6h8.8
	c0.9,0,1.4-0.3,1.4-1c0-0.8-0.5-1.1-1.4-1.1H67.1c-0.9,0-1.4,0.3-1.4,1.1c0,0.7,0.5,1,1.4,1h8.4v5.6H65.2c-0.6-0.1-1.2,0.3-1.4,0.9
	c0,0.1,0,0.2,0,0.3c0,0.7,0.5,1.1,1.4,1.1h23.5c0.6,0.1,1.2-0.2,1.3-0.8c0-0.1,0-0.2,0-0.3c0-0.6-0.4-1.2-1.1-1.2
	C88.8,104,88.7,104,88.6,104L88.6,104z M122.3,98.7h-9.8l0.7-1.3h5.9c1,0.2,2.1-0.4,2.3-1.4c0.1-0.2,0.1-0.4,0-0.7v-1.1
	c0.1-1.5-0.7-2.2-2.4-2.2h-4v-1.1h4c0.6,0.1,1.3-0.1,1.8-0.5c0.4-0.5,0.6-1.2,0.6-1.9v-1h0.8c0.7,0,1-0.2,1-0.8
	c0-0.5-0.3-0.9-0.8-0.9c-0.1,0-0.2,0-0.2,0h-0.8v-0.9c0.1-0.6,0-1.3-0.5-1.8c-0.5-0.4-1.2-0.7-1.9-0.6h-4v-0.9c0-0.6-0.4-1.1-1-1.1
	s-1.1,0.4-1.1,1c0,0,0,0,0,0.1v0.9h-3.6c-0.6-0.1-1.3,0-1.8,0.5c-0.4,0.5-0.6,1.2-0.6,1.9v0.9H106c-0.5-0.1-0.9,0.2-1,0.7
	c0,0.1,0,0.2,0,0.2c0,0.6,0.3,0.8,1,0.8h0.9v1c-0.1,0.7,0.1,1.4,0.5,1.9c0.5,0.4,1.2,0.6,1.8,0.5h3.6V92h-3.6
	c-0.7,0-1.3,0.1-1.9,0.5c-0.4,0.5-0.6,1.1-0.5,1.7v1.1c-0.1,0.6,0.1,1.2,0.5,1.6c0.6,0.4,1.2,0.5,1.9,0.5h1.5l-0.8,1.3h-4.6
	c-0.5-0.1-0.9,0.2-1,0.7c0,0.1,0,0.2,0,0.2c-0.1,0.5,0.2,0.9,0.7,1c0.1,0,0.2,0,0.3,0h3.3l-0.2,0.2c-0.4,0.4-0.8,1-0.9,1.6
	c0.1,0.7,0.6,1.2,1.3,1.2l4.1,0.9c-1.9,0.6-3.9,0.9-5.9,0.8c-0.6,0-1.3,0.1-1.9,0.2c-0.3,0.1-0.5,0.5-0.5,0.8c0,0.7,0.5,1,1.4,1
	c4.3,0,7.5-0.7,9.6-2.1c1.8,0.7,3.2,1.2,4.2,1.7c0.6,0.2,1.1,0.4,1.7,0.5c0.5,0.1,1-0.2,1.1-0.8c0-0.1,0-0.2,0-0.3
	c0-0.5-0.4-0.9-0.9-1c-0.7-0.3-2.2-0.8-4.5-1.5c0.8-1,1.5-2,1.9-3.2h2.8c0.5,0.1,0.9-0.2,1-0.7c0-0.1,0-0.2,0-0.3
	c0-0.5-0.3-0.9-0.8-0.9C122.4,98.7,122.3,98.7,122.3,98.7L122.3,98.7L122.3,98.7z M106.1,96.5c-0.4-1.1-0.9-2.2-1.6-3.1
	c-0.2-0.5-0.6-0.9-1.1-1c-0.2,0-0.5,0.1-0.6,0.3v-3.8h1.6c0.5,0.1,1-0.3,1.1-0.8c0-0.1,0-0.2,0-0.3c0.1-0.5-0.3-1-0.8-1.1
	c-0.1,0-0.2,0-0.2,0h-1.6v-5c0-0.3-0.1-0.6-0.2-0.8c-0.2-0.1-0.5-0.2-0.8-0.2c-0.5-0.1-1,0.2-1.1,0.7c0,0.1,0,0.2,0,0.3v5H98
	c-0.6-0.1-1.1,0.3-1.2,0.9c0,0.1,0,0.2,0,0.3c0,0.5,0.4,1,0.9,1c0.1,0,0.2,0,0.3,0h2.6c-0.6,3.2-1.8,6.3-3.5,9.1
	c-0.2,0.3-0.4,0.7-0.4,1.1c-0.1,0.5,0.2,1.1,0.8,1.2c0.1,0,0.2,0,0.3,0c0.8,0,1.8-2.1,3-6.4v12.5c-0.1,0.5,0.3,0.9,0.8,1
	c0.1,0,0.2,0,0.3,0c0.5,0.1,1-0.2,1.1-0.7c0-0.1,0-0.2,0-0.3V93.7l0.1,0.2c0.5,0.9,1,1.8,1.3,2.7c0.1,0.4,0.4,0.7,0.8,0.8
	c0.5,0.1,1-0.2,1.1-0.7C106.1,96.7,106.1,96.6,106.1,96.5L106.1,96.5L106.1,96.5z M115.1,84.3h3.3c0.2-0.1,0.5,0,0.6,0.2
	s0.2,0.4,0.2,0.6v0.7h-4.1V84.3L115.1,84.3z M109.2,85.1c0-0.2,0-0.4,0.2-0.6c0.2-0.1,0.4-0.2,0.6-0.2h3v1.5h-3.9v-0.7H109.2z
	 M110,89.1c-0.2,0.1-0.5,0-0.6-0.1c-0.1-0.2-0.2-0.5-0.2-0.7v-0.8h3.9v1.6H110z M115.1,87.5h4.1v0.8c0.1,0.3,0,0.7-0.3,0.8
	c-0.2,0.1-0.3,0.1-0.5,0h-3.3L115.1,87.5L115.1,87.5z M115.1,93.8h3.4c0.2,0,0.4,0.1,0.6,0.2c0.1,0.2,0.2,0.5,0.1,0.8
	c0,0.2,0,0.5-0.1,0.7c-0.2,0.1-0.4,0.1-0.6,0.1h-3.4V93.8z M109.2,94.7c0-0.2,0-0.5,0.2-0.7c0.2-0.1,0.4-0.2,0.6-0.2h3.1v1.8H110
	c-0.2,0.1-0.4,0-0.6-0.1C109.2,95.3,109.2,95,109.2,94.7L109.2,94.7z M115.4,103.2c-2.2-0.5-3.6-0.8-4.2-0.9c-0.5,0-0.7-0.2-0.7-0.5
	c0-0.1,0.1-0.3,0.2-0.4l0.6-0.8h5.8C116.8,101.6,116.1,102.5,115.4,103.2L115.4,103.2L115.4,103.2z M137.3,96.5
	c0.2,0.3,0.4,0.6,0.6,0.9c0.1,0.2,0.3,0.3,0.5,0.3c0.5,0.1,1-0.2,1-0.7c0-0.1,0-0.2,0-0.3c0-0.6-0.2-1.1-0.6-1.6l-0.4-0.6
	c-0.3-0.6-0.7-1.1-1.1-1.6c-0.2-0.3-0.5-0.5-0.8-0.6c-0.2,0-0.5,0.1-0.6,0.3v-3.7h2.3c0.9,0,1.3-0.3,1.3-1.1c0-0.6-0.5-1.1-1.1-1.1
	c-0.1,0-0.2,0-0.3,0h-2.3v-4.8c0-0.6-0.5-1.2-1.1-1.2s-1.2,0.5-1.2,1.1v0.1v4.8h-2.7c-0.6-0.1-1.2,0.3-1.3,0.8c0,0.1,0,0.2,0,0.3
	c-0.1,0.6,0.4,1.1,0.9,1.1c0.1,0,0.2,0,0.4,0h2.5c-0.5,3.3-1.7,6.4-3.5,9.2c-0.2,0.3-0.4,0.6-0.4,1c-0.1,0.3,0,0.6,0.2,0.9
	c0.2,0.2,0.5,0.3,0.8,0.3c0.4,0,0.9-0.5,1.4-1.5c0.7-1.4,1.3-2.8,1.7-4.3v11.7c-0.1,0.6,0.4,1.2,1,1.3c0.6,0.1,1.2-0.4,1.3-1
	c0-0.1,0-0.2,0-0.3V93.9l0.1,0.2C136.6,95.2,137,96,137.3,96.5L137.3,96.5L137.3,96.5z M155,104.3c-1.8-0.6-3.4-1.6-4.8-2.9l0,0
	c1.3-1.7,2.3-3.6,3.1-5.6c0.8-1.5,1.2-3.2,1.4-4.9c0-1.2-0.9-1.8-2.6-1.8h-9.2c0-1.2,0.1-2,0.1-2.3c0-0.6,0-1.2,0.1-1.8
	c0.3-0.4,0.7-0.7,1.2-0.6h10.3c0.9,0,1.4-0.4,1.4-1.1c0-0.3-0.1-0.7-0.3-0.9c-0.3-0.1-0.7-0.2-1.1-0.2h-11.5c-1.7,0-2.6,0.9-2.6,2.8
	v2.2c0,4.8-0.1,8.1-0.3,9.7c-0.3,2.7-1.3,5.2-3,7.3c-0.3,0.3-0.5,0.7-0.6,1.1c-0.1,0.6,0.4,1.1,0.9,1.1c0.1,0,0.2,0,0.3,0
	c0.7,0,1.5-0.8,2.4-2.3c0.9-1.6,1.6-3.3,1.9-5.1c0.2-0.9,0.3-1.9,0.4-3.1s0.2-2.7,0.2-4.6h8.4c0.2,0,0.4,0.1,0.6,0.2
	c0.1,0.1,0.2,0.3,0.2,0.5c-0.2,1-0.5,2-0.9,3s-0.7,1.8-1.1,2.6c-0.4,0.7-0.8,1.4-1.2,2.1c-1.1-1.5-1.9-3.2-2.3-5.1l-0.3-1.3
	c-0.2-0.6-0.8-0.9-1.4-0.8c-0.2,0-0.3,0.1-0.5,0.3c-0.2,0.2-0.3,0.4-0.2,0.7l0.1,1.1c0.4,2.5,1.4,4.9,2.9,6.9v0.1
	c-1.4,1.2-2.9,2.2-4.6,2.9c-1.1,0.5-1.7,1-1.7,1.5c0,0.3,0.1,0.6,0.3,0.9c0.2,0.2,0.6,0.3,0.9,0.2c0.4,0,0.7-0.1,1.1-0.2
	c0.6-0.3,1.2-0.6,1.7-1c1.3-0.8,2.6-1.7,3.8-2.7h0.1c0.9,0.8,1.8,1.6,2.8,2.2c1.1,0.8,2.3,1.3,3.6,1.6c0.6,0.1,1.1-0.4,1.2-1
	c0-0.1,0-0.2,0-0.3C156.2,105,155.7,104.4,155,104.3L155,104.3L155,104.3z"/>
</svg>
