<?xml version="1.0" encoding="utf-8"?>
<!-- Generator: Adobe Illustrator 24.0.3, SVG Export Plug-In . SVG Version: 6.00 Build 0)  -->
<svg version="1.1" id="icon_spec1.svg" xmlns="http://www.w3.org/2000/svg" xmlns:xlink="http://www.w3.org/1999/xlink" x="0px"
	 y="0px" viewBox="0 0 187 187" style="enable-background:new 0 0 187 187;" xml:space="preserve">
<style type="text/css">
	.st0{fill-rule:evenodd;clip-rule:evenodd;fill:#FFFFFF;}
</style>
<path id="知名建商" class="st0" d="M43.3,94.2c0.9,0,1.3-0.3,1.3-1.1c0-0.6-0.5-1.1-1.1-1.1c-0.1,0-0.2,0-0.3,0h-4v-5.6h3.5
	c0.6,0.1,1.2-0.3,1.3-0.9s-0.3-1.2-0.9-1.3c-0.1,0-0.3,0-0.4,0h-7.5c0.4-0.8,0.6-1.6,0.8-2.5c0-0.6-0.4-1-1-1c-0.1,0-0.1,0-0.2,0
	c-0.6,0-1.1,0.5-1.2,1.1c-0.6,2.2-1.5,4.4-2.7,6.4c-0.2,0.3-0.4,0.7-0.4,1.1c-0.1,0.5,0.3,1,0.9,1.1c0.1,0,0.2,0,0.3,0
	c0.4,0,0.8-0.2,1-0.6c0.3-0.4,0.8-1.5,1.7-3.4h2.4V92h-5.1c-0.6-0.1-1.2,0.3-1.3,0.8c0,0.1,0,0.2,0,0.3c-0.1,0.6,0.4,1.1,0.9,1.1
	c0.1,0,0.2,0,0.4,0h5c0,2-0.4,4-1.2,5.8c-0.7,1.6-1.8,2.9-3.3,3.9c-1.2,0.7-1.8,1.4-1.8,2c0,0.3,0.1,0.5,0.3,0.7
	c0.2,0.2,0.6,0.3,0.9,0.3c1,0,2.2-0.7,3.6-2.2c1.5-1.6,2.5-3.5,3.1-5.6c0.1,0.2,0.2,0.3,0.3,0.4c0.8,0.8,1.6,1.7,2.3,2.7
	c0.3,0.3,0.5,0.6,0.7,1s0.4,0.6,0.5,0.8c0.2,0.4,0.6,0.6,1.1,0.7c0.6,0.1,1.1-0.3,1.2-0.9c0-0.1,0-0.2,0-0.3c0-0.6-0.7-1.6-2-3.1
	s-2.3-2.3-2.8-2.4c-0.2,0-0.4,0-0.5,0.1c-0.2,0-0.4,0.1-0.5,0.2c0.2-0.6,0.3-1.3,0.3-1.9c0.1-0.6,0.1-1.3,0.2-2.2L43.3,94.2
	L43.3,94.2z M56.1,102.8V86.2c0.1-0.8-0.2-1.5-0.7-2.1c-0.6-0.5-1.4-0.8-2.2-0.7h-5c-0.8-0.1-1.6,0.1-2.1,0.7s-0.7,1.4-0.7,2.2v16.5
	c-0.1,0.8,0.1,1.7,0.6,2.3c0.6,0.5,1.5,0.8,2.3,0.6h4.9c0.8,0.2,1.7-0.1,2.3-0.6C56,104.5,56.2,103.6,56.1,102.8L56.1,102.8
	L56.1,102.8z M52.3,103.4h-3c-0.7,0.1-1.4-0.4-1.4-1.1c0-0.1,0-0.2,0-0.4V87.1c-0.1-0.7,0.4-1.3,1.1-1.4c0.1,0,0.2,0,0.3,0h3
	c0.7-0.1,1.3,0.4,1.4,1.1c0,0.1,0,0.2,0,0.3v14.8c0.1,0.7-0.3,1.4-1,1.5C52.6,103.4,52.4,103.4,52.3,103.4L52.3,103.4z M72.3,106.3
	h12.9c2.1,0.2,3.1-0.8,3-2.9V98c0.2-2.1-0.8-3.1-3-2.9H74.5l-0.1-0.2c2.9-1.6,5.7-3.5,8.2-5.7c2.7-2.2,4-3.7,4-4.4
	c0-0.4-0.2-0.8-0.5-1c-0.5-0.2-1-0.3-1.6-0.3H74.3c0.5-0.5,0.9-1.1,1.2-1.8c0-0.6-0.4-0.9-1.3-0.9c-0.6,0.1-1.1,0.3-1.4,0.8
	c-1.8,2.4-4,4.5-6.5,6.2l-2,1.3l0,0c-0.3,0.2-0.4,0.6-0.4,0.9c-0.1,0.5,0.3,1,0.8,1.1c0.1,0,0.2,0,0.2,0c1-0.3,1.9-0.7,2.6-1.4
	c1.7-1.2,3.2-2.5,4.7-4h10.2c0.2,0,0.4,0.1,0.4,0.3v0.1c-0.1,0.2-0.2,0.4-0.4,0.5l-1.2,1c-1.7,1.5-3.5,2.8-5.4,4L73,89.4
	c-0.5-0.5-1.2-0.8-1.9-0.9c-0.5-0.1-1.1,0.2-1.2,0.8c0,0.1,0,0.2,0,0.3c0.1,0.4,0.3,0.7,0.7,0.9c1.1,0.7,2.1,1.5,3,2.5
	c-2.6,1.4-5.2,2.7-8,3.7c-1.3,0.4-2,0.9-2,1.5c-0.1,0.5,0.2,1.1,0.8,1.2c0.1,0,0.2,0,0.3,0c1.7-0.5,3.3-1.1,4.8-1.9v5.9
	c-0.2,0.8,0.1,1.6,0.6,2.2C70.6,106.1,71.5,106.4,72.3,106.3L72.3,106.3L72.3,106.3z M84.4,104.2H73.1c-0.4,0-0.8-0.1-1-0.4
	s-0.4-0.6-0.4-1v-4.7c0-0.4,0.2-0.8,0.7-0.8c0.1,0,0.1,0,0.2,0h11.8c0.7-0.1,1.3,0.3,1.4,1c0,0.1,0,0.3,0,0.4v4
	c0.1,0.7-0.3,1.4-1,1.5C84.6,104.2,84.5,104.2,84.4,104.2L84.4,104.2L84.4,104.2z M122,98.4h-7.4v-1.9h5.8c0.5,0.1,1-0.3,1.1-0.8
	c0-0.1,0-0.1,0-0.2c0.1-0.5-0.3-1-0.8-1c-0.1,0-0.2,0-0.3,0h-5.8v-1.8h3.9c1.1,0.3,2.2-0.3,2.5-1.4c0.1-0.4,0.1-0.8,0-1.1v-1.5h1.3
	c0.4,0,0.8-0.3,0.9-0.7c0-0.1,0-0.1,0-0.2c0.1-0.4-0.2-0.9-0.6-1c-0.1,0-0.2,0-0.3,0H121v-1.4c0.1-0.7-0.1-1.5-0.5-2.1
	c-0.6-0.5-1.3-0.6-2-0.5h-3.9v-1.1c-0.1-0.6-0.6-1.1-1.2-1c-0.5,0.1-0.9,0.5-1,1v1.1h-4.6c-0.3,0-0.6,0.1-0.9,0.3
	c-0.2,0.2-0.3,0.4-0.3,0.7c0,0.3,0.1,0.6,0.3,0.8c0.2,0.2,0.5,0.3,0.9,0.3h4.6v1.9h-6.1c-0.5-0.1-1,0.2-1.1,0.7c0,0.1,0,0.2,0,0.3
	c0,0.5,0.4,0.9,0.9,0.9c0.1,0,0.2,0,0.2,0h6.1v2h-4.3c-0.5-0.1-1,0.3-1,0.8c0,0.1,0,0.1,0,0.2c-0.1,0.5,0.3,0.9,0.8,1
	c0.1,0,0.2,0,0.3,0h4.3v1.8h-4.9c-0.5-0.1-1,0.2-1.1,0.7c0,0.1,0,0.2,0,0.3c0,0.5,0.4,1,0.9,1c0.1,0,0.1,0,0.2,0h4.9v1.9h-6.2
	c-0.6-0.1-1,0.3-1.1,0.9s0.3,1,0.9,1.1c0.1,0,0.1,0,0.2,0h6.2v2.3c0,0.6,0.5,1.1,1.1,1.1s1.1-0.5,1.1-1.1v-2.3h7.4
	c0.3,0.1,0.6,0,0.9-0.2c0.2-0.2,0.3-0.5,0.3-0.8c0-0.5-0.4-1-0.9-1C122.2,98.4,122.1,98.4,122,98.4L122,98.4L122,98.4z M121.9,104.2
	h-0.8c-1.3,0.1-2.7,0.2-4,0.2c-2.5,0-5.1-0.1-7.6-0.4c-2.2-0.2-4.4-1-6.2-2.3c1.1-2.3,1.7-4.8,2-7.4l0.1-0.9l0.1-1
	c0-0.5-0.1-1-0.5-1.3s-1-0.5-1.5-0.4h-1.7c-0.3,0-0.5-0.1-0.6-0.4v-0.1c0,0,0.2-0.5,0.7-1.4s0.9-1.6,1.3-2.3c0.2-0.4,0.4-0.8,0.6-1
	c0.3-0.6,0.6-1.1,0.8-1.5c0.2-0.2,0.3-0.5,0.3-0.8c0-0.9-0.6-1.3-1.8-1.3h-5.2c-0.6-0.1-1.1,0.3-1.2,0.8c0,0.1,0,0.2,0,0.2
	c0,0.6,0.4,1.1,1,1.1c0.1,0,0.2,0,0.3,0h3.5c0.1,0,0.3,0,0.4,0.1c0.1,0,0.1,0.1,0.1,0.3c-0.2,0.4-0.4,0.8-0.6,1.2l-2.1,3.5
	c-0.5,0.7-0.9,1.4-1.2,2.2c0,0.8,0.5,1.3,1.6,1.3h2.8c0.2,0,0.5,0,0.7,0.2c0.2,0.1,0.2,0.3,0.2,0.5l-0.2,1.5c-0.1,1-0.3,1.9-0.5,2.9
	c-0.2,0.8-0.5,1.6-0.9,2.3c-0.9-1.5-1.6-3.2-1.8-4.9c0-0.5-0.5-0.9-1-0.9c-0.5-0.1-0.9,0.2-1,0.7c0,0.1,0,0.2,0,0.2
	c0,2,0.9,4.3,2.8,6.7c-0.4,0.5-0.9,1-1.4,1.5s-1.1,0.9-1.6,1.3c-0.5,0.2-0.9,0.7-1.1,1.2c-0.1,0.5,0.2,1,0.7,1.1c0.1,0,0.1,0,0.2,0
	c0.9-0.2,1.7-0.7,2.3-1.3c0.8-0.7,1.6-1.5,2.3-2.3c1.5,1.1,3.1,2,4.9,2.4c3.4,0.7,6.9,0.9,10.4,0.8h0.6c1.5,0,3,0,4.4-0.2
	c0.4-0.2,0.7-0.6,0.6-1.1c0-0.6-0.4-1.1-0.9-1.1C122.1,104.2,122,104.2,121.9,104.2L121.9,104.2L121.9,104.2z M114.7,84.9h3.2
	c0.4-0.1,0.7,0.1,0.9,0.4c0,0.1,0,0.2,0,0.4v1.1h-4.1V84.9L114.7,84.9z M114.7,88.7h4.1v1.2c0,0.4-0.3,0.8-0.7,0.8
	c-0.1,0-0.1,0-0.2,0h-3.2L114.7,88.7L114.7,88.7z M132,107.3c0.8,0,1.2-0.4,1.2-1.4V91.8c-0.1-0.5,0.3-1,0.9-1.1c0.1,0,0.1,0,0.2,0
	h4.5c-0.3,1.8-1.5,3.4-3.3,4.1c-0.5,0.1-1,0.6-1.1,1.1c0,0.3,0.1,0.6,0.3,0.8c0.2,0.2,0.5,0.3,0.8,0.3c0.9-0.2,1.7-0.6,2.4-1.1
	c1.8-1.1,2.9-3.1,3-5.2h2.8v3.8c0,0.5,0.2,1,0.6,1.3c0.8,0.3,1.6,0.4,2.4,0.4h0.9c1.8,0,2.9-0.3,3.3-0.8c0.4-0.7,0.6-1.6,0.6-2.4
	c0-0.5-0.3-0.9-0.7-0.9c-0.1,0-0.2,0-0.2,0c-0.3,0-0.5,0.1-0.7,0.3c-0.2,0.2-0.3,0.4-0.3,0.7c0.1,0.4-0.1,0.8-0.4,1
	c-0.6,0.1-1.2,0.2-1.9,0.2c-1,0-1.5-0.3-1.5-1v-2.6h5.8c0.6,0,1,0.4,1,1v0.1v11.8c0.1,0.6-0.3,1.1-0.9,1.2c-0.1,0-0.2,0-0.2,0H150
	c-0.7,0-1.2,0.5-1.2,1.2s0.5,1.2,1.2,1.2h1.9c2.1,0.2,3.1-0.8,3-2.9v-13c0.1-0.7-0.1-1.5-0.6-2c-0.6-0.5-1.3-0.8-2.1-0.7h-3.4
	l0.8-3.2h5.2c0.6,0.1,1.2-0.3,1.3-0.9s-0.3-1.2-0.9-1.3c-0.1,0-0.3,0-0.5,0H144v-1.3c0.1-0.6-0.4-1.1-1-1.2c-0.1,0-0.2,0-0.3,0
	c-0.6-0.1-1.2,0.3-1.3,0.9c0,0.1,0,0.2,0,0.3v1.3h-10.5c-0.6-0.1-1.2,0.3-1.3,0.9s0.3,1.2,0.9,1.3c0.1,0,0.3,0,0.4,0h5l0.6,3.2h-2.9
	c-1.2-0.3-2.4,0.5-2.7,1.8c-0.1,0.3-0.1,0.6,0,0.9v14.6C130.8,106.9,131.2,107.3,132,107.3L132,107.3L132,107.3z M146.6,88.6h-7.8
	c-0.1-1.1-0.3-2.1-0.6-3.2h9.1C147.1,86.5,146.9,87.5,146.6,88.6L146.6,88.6z M138.5,104.8h8.5c0.6,0.1,1.3-0.1,1.7-0.5
	c0.4-0.5,0.6-1.2,0.5-1.8v-2.8c0.1-0.6-0.1-1.2-0.5-1.7c-0.5-0.4-1.1-0.7-1.8-0.6h-8.5c-0.6,0-1.2,0.1-1.7,0.5
	c-0.4,0.5-0.6,1.2-0.5,1.8v2.8c-0.1,0.6,0.1,1.3,0.5,1.8C137.3,104.7,137.9,104.8,138.5,104.8L138.5,104.8L138.5,104.8z
	 M146.3,102.9h-6.9c-0.4,0-0.7-0.2-0.8-0.6c0-0.1,0-0.1,0-0.2v-1.9c-0.1-0.4,0.2-0.7,0.5-0.8c0.1,0,0.2,0,0.3,0h6.9
	c0.4,0,0.7,0.2,0.8,0.6c0,0.1,0,0.1,0,0.2v1.9c0,0.4-0.2,0.8-0.6,0.8C146.4,102.9,146.3,102.9,146.3,102.9L146.3,102.9z"/>
</svg>
