<?xml version="1.0" encoding="utf-8"?>
<!-- Generator: Adobe Illustrator 24.0.3, SVG Export Plug-In . SVG Version: 6.00 Build 0)  -->
<svg version="1.1" id="icon_spec9.svg" xmlns="http://www.w3.org/2000/svg" xmlns:xlink="http://www.w3.org/1999/xlink" x="0px"
	 y="0px" viewBox="0 0 187 187" style="enable-background:new 0 0 187 187;" xml:space="preserve">
<style type="text/css">
	.st0{fill-rule:evenodd;clip-rule:evenodd;fill:#FFFFFF;}
</style>
<path id="格局方正" class="st0" d="M36,107.4c0.6,0.1,1.1-0.4,1.2-1c0-0.1,0-0.2,0-0.3V93l0.6,1.3c0.6,1.2,1.1,1.8,1.5,1.8
	c0.2,0,0.3,0,0.4-0.1l-0.1,0.4c-0.1,0.5,0.2,1,0.7,1.2c0.1,0,0.2,0,0.2,0c1.3-0.2,2.5-0.8,3.6-1.5c1.5-0.9,3-1.8,4.4-2.9
	c1.2,1.1,2.6,2,4,2.7c1.1,0.6,2.3,1.1,3.6,1.3c0.6,0.1,1.1-0.4,1.2-1c0-0.1,0-0.2,0-0.3c0-0.6-0.5-1.1-1.6-1.4
	c-2-0.5-3.8-1.4-5.5-2.6l0.1-0.1c1.3-1.2,2.4-2.5,3.4-3.9c0.8-0.8,1.3-1.8,1.6-2.9c0-1.1-0.9-1.6-2.6-1.6h-6.4
	c0.3-0.5,0.5-1.1,0.6-1.7c0-0.5-0.4-1-0.9-1c-0.1,0-0.2,0-0.3,0c-0.7,0.1-1.2,0.5-1.3,1.2c-0.9,2.4-2.1,4.7-3.7,6.7
	C40.2,89,40,89.5,39.9,90s0.3,1,0.8,1c0.1,0,0.2,0,0.3,0c0.7,0,1.8-1.2,3.3-3.8c0.6,1.6,1.5,3.2,2.7,4.5c-1.8,1.4-3.9,2.5-6,3.4
	l-0.7,0.3v-0.1c-0.2-0.7-0.5-1.4-0.9-2c-0.6-1-1.1-1.5-1.4-1.5c-0.3,0-0.6,0.1-0.7,0.4v-3.3h2c0.5,0.1,1.1-0.3,1.1-0.8
	c0-0.1,0-0.2,0-0.3c0.1-0.5-0.3-1-0.8-1.1c-0.1,0-0.2,0-0.3,0h-2v-4.8c0-0.6-0.5-1.2-1.1-1.2S35,81.2,35,81.8v0.1v4.8h-3
	c-0.6-0.1-1.1,0.2-1.3,0.8c0,0.1,0,0.2,0,0.3c0,0.6,0.4,1.1,1,1.1c0.1,0,0.2,0,0.3,0h2.6c-0.7,3.3-1.9,6.4-3.7,9.2
	c-0.2,0.3-0.4,0.7-0.4,1.1c-0.1,0.5,0.3,1.1,0.8,1.2c0.1,0,0.2,0,0.3,0c0.4,0,1-0.7,1.7-2.2c0.6-1.4,1.1-2.8,1.6-4.2v12.1
	c-0.1,0.6,0.2,1.2,0.8,1.3C35.7,107.4,35.9,107.4,36,107.4L36,107.4L36,107.4z M48.4,90.4c-1.4-1.3-2.4-3-2.9-4.9h6.3
	c0.3,0,0.4,0.1,0.4,0.3c-0.4,0.7-0.8,1.4-1.4,2C50.2,88.7,49.3,89.6,48.4,90.4L48.4,90.4L48.4,90.4z M44.6,106.5h7.7
	c2,0.2,2.9-0.7,2.7-2.7v-4.4c0.2-2-0.8-2.9-2.7-2.7h-7.7c-2-0.2-2.9,0.7-2.7,2.7v4.4C41.7,105.7,42.7,106.6,44.6,106.5L44.6,106.5z
	 M51.8,104.3h-6.7c-0.6,0.1-0.9-0.2-0.9-0.9v-3.7c-0.1-0.4,0.2-0.8,0.6-0.9c0.1,0,0.2,0,0.3,0h6.7c0.4-0.1,0.8,0.2,0.9,0.7
	c0,0.1,0,0.2,0,0.2v3.7c0.1,0.4-0.2,0.8-0.7,0.9C51.9,104.3,51.8,104.3,51.8,104.3L51.8,104.3z M83.1,107.4c1.5,0.1,2.9-0.2,4.2-1
	c1-1.1,1.6-2.4,1.7-3.9c0.3-2.7,0.5-5.3,0.4-8c0-2-1-3-2.9-3H68.2v-2.2h17.3c0.8,0.2,1.6-0.1,2.2-0.6c0.5-0.6,0.8-1.3,0.7-2.1v-2.2
	c0.1-0.8-0.1-1.5-0.7-2.1c-0.6-0.5-1.4-0.7-2.2-0.6h-17c-1.9,0-2.9,0.8-2.8,2.5l0.1,3.6c0,8.1-0.6,13.4-1.8,15.8
	c-0.3,0.5-0.5,1-0.5,1.5c-0.1,0.7,0.4,1.3,1,1.4c0.1,0,0.2,0,0.3,0c0.8,0,1.5-1,2.2-3c0.8-3.2,1.2-6.5,1.2-9.8h17.4
	c0.4-0.1,0.8,0.1,1.1,0.4c0.2,0.7,0.3,1.5,0.2,2.3c0.1,2-0.1,4.1-0.3,6.1c-0.3,1.4-1,2.2-2.2,2.2h-1.5c-0.6-0.1-1.1,0.4-1.2,1
	c0,0.1,0,0.2,0,0.3c-0.1,0.7,0.4,1.3,1.1,1.4C82.8,107.4,83,107.4,83.1,107.4L83.1,107.4L83.1,107.4z M84.8,87.2H68.2v-2.3
	c-0.1-0.5,0.3-1,0.8-1c0.1,0,0.2,0,0.3,0h15.5c0.5-0.1,1,0.3,1.1,0.9c0,0.1,0,0.2,0,0.2v1.1c0,0.6-0.4,1.1-0.9,1.1
	C84.9,87.2,84.9,87.2,84.8,87.2L84.8,87.2L84.8,87.2z M73.2,103.8h7.2c0.7,0.1,1.4,0,2-0.5c0.5-0.5,0.7-1.2,0.6-1.9v-3.2
	c0.1-0.7-0.1-1.4-0.6-1.9c-0.6-0.4-1.3-0.6-2.1-0.5h-7.2c-0.7-0.1-1.4,0-2,0.5c-0.5,0.5-0.7,1.2-0.6,1.9v3.2
	c-0.1,0.7,0.1,1.4,0.6,1.9C71.8,103.7,72.5,103.8,73.2,103.8L73.2,103.8z M79.8,101.8h-6c-0.5,0-0.9-0.3-0.9-0.8v-0.1v-2.2
	c-0.1-0.4,0.2-0.8,0.7-0.9c0.1,0,0.1,0,0.2,0h6c0.4-0.1,0.8,0.2,0.9,0.7c0,0.1,0,0.2,0,0.2v2.2c0.1,0.4-0.2,0.8-0.7,0.9
	C80,101.8,79.9,101.8,79.8,101.8L79.8,101.8z M111.7,106.9c1.4,0,2.7-0.1,4-0.4c0.8-0.2,1.5-0.7,2.1-1.3c0.7-1.5,1.1-3.1,1.3-4.8
	c0.4-2,0.6-4.1,0.6-6.2c0-1.6-0.9-2.3-2.7-2.3h-9.6c0.2-1.5,0.3-3,0.3-4.5h13.7c1,0,1.5-0.3,1.5-1.1c0-0.3-0.1-0.7-0.4-0.9
	c-0.3-0.2-0.7-0.3-1.1-0.3h-10.9V82c0-0.7-0.6-1.2-1.3-1.2c-0.7,0-1.2,0.6-1.2,1.2v3.1h-9.8c-1,0-1.5,0.4-1.5,1.2
	c0,0.3,0.1,0.7,0.3,0.9c0.4,0.1,0.7,0.2,1.1,0.2h7c0,2.9-0.3,5.9-1.1,8.7c-1,3.2-3.2,5.9-6,7.6c-0.7,0.3-1.1,0.9-1.3,1.6
	c0,0.3,0.1,0.7,0.3,0.9c0.2,0.3,0.6,0.5,0.9,0.5c0.7,0,1.7-0.6,3-1.7c3.3-2.7,5.4-6.6,6-10.8h8.6c0.4,0,0.7,0.1,1,0.3
	c0.2,0.2,0.3,0.5,0.3,0.8l-0.1,1.9c0,1.7-0.3,3.4-0.8,5.1c-0.1,0.8-0.7,1.5-1.4,1.8c-0.9,0.2-1.8,0.2-2.6,0.2c-0.5,0-1,0.1-1.5,0.3
	c-0.3,0.2-0.5,0.6-0.5,1c-0.1,0.7,0.4,1.3,1.1,1.3C111.5,106.9,111.6,106.9,111.7,106.9L111.7,106.9L111.7,106.9z M130.9,105.7h23.8
	c1,0,1.5-0.4,1.5-1.2s-0.5-1.2-1.5-1.2h-9.6v-9h7.4c1,0,1.5-0.4,1.5-1.2s-0.5-1.2-1.5-1.2h-7.4v-7.1h8.7c1,0,1.5-0.4,1.5-1.2
	s-0.5-1.2-1.5-1.2H132c-1,0-1.5,0.4-1.5,1.2s0.5,1.2,1.5,1.2h10.7v18.5h-5.9V91.2c0.1-0.7-0.3-1.4-1-1.5s-1.4,0.3-1.5,1
	c0,0.1,0,0.3,0,0.4v12.1H131c-0.7-0.1-1.3,0.4-1.3,1.1c-0.1,0.7,0.4,1.3,1.1,1.3C130.7,105.7,130.8,105.7,130.9,105.7L130.9,105.7z"
	/>
</svg>
