<?xml version="1.0" encoding="utf-8"?>
<!-- Generator: Adobe Illustrator 24.0.3, SVG Export Plug-In . SVG Version: 6.00 Build 0)  -->
<svg version="1.1" id="icon_spec6.svg" xmlns="http://www.w3.org/2000/svg" xmlns:xlink="http://www.w3.org/1999/xlink" x="0px"
	 y="0px" viewBox="0 0 187 187" style="enable-background:new 0 0 187 187;" xml:space="preserve">
<style type="text/css">
	.st0{fill-rule:evenodd;clip-rule:evenodd;fill:#FFFFFF;}
</style>
<path id="靜巷社區" class="st0" d="M43.3,91.1c0.1-0.5-0.3-1-0.8-1c-0.1,0-0.2,0-0.3,0h-4.1v-1.7h2.8c0.5,0.1,1-0.3,1-0.8
	c0.1-0.5-0.3-1-0.8-1c-0.1,0-0.2,0-0.2,0h-2.8v-1.7h3.8c0.5,0.1,1-0.3,1.1-0.8c0-0.1,0-0.1,0-0.2c0.1-0.5-0.3-1-0.8-1
	c-0.1,0-0.2,0-0.3,0h-3.8v-1.1c0.1-0.5-0.2-1-0.8-1.1c-0.1,0-0.2,0-0.3,0c-0.5-0.1-1,0.3-1.1,0.8c0,0.1,0,0.2,0,0.3v1.1H32
	c-0.5-0.1-1,0.2-1.1,0.7c0,0.1,0,0.2,0,0.3c0,0.5,0.4,1,0.9,1c0.1,0,0.1,0,0.2,0h3.9v1.7h-3.2c-0.5-0.1-1,0.3-1,0.8
	c-0.1,0.5,0.3,1,0.8,1c0.1,0,0.2,0,0.2,0h3.2v1.7h-4.4c-0.5-0.1-1,0.2-1.1,0.7c0,0.1,0,0.2,0,0.3c0,0.5,0.4,1,0.9,1
	c0.1,0,0.1,0,0.2,0h10.7c0.5,0.1,1-0.3,1.1-0.8C43.3,91.2,43.3,91.2,43.3,91.1L43.3,91.1L43.3,91.1z M44.5,84.1
	c0.8,0,1.9-0.1,3.2-0.2l0.6-0.1c1-0.1,2.3-0.2,3.7-0.3c1.5-0.2,2.5-0.4,3.1-0.5c0.5-0.1,0.8-0.5,0.8-1c0.1-0.5-0.2-1-0.7-1.1
	c-0.1,0-0.2,0-0.3,0l-1.2,0.2c-2.8,0.5-5.6,0.8-8.4,0.9c-1.3,0-1.9,0.4-1.9,1.1c0,0.6,0.4,1,1,1C44.4,84.1,44.5,84.1,44.5,84.1
	L44.5,84.1L44.5,84.1z M53.8,84.6l-1,3.2l-0.1,0.5c0,0.5,0.3,0.9,0.8,0.9c0.1,0,0.2,0,0.2,0c0.5,0,0.9-0.3,1-0.7
	c0.6-1.1,1-2.2,1.2-3.4c0.1-0.3,0-0.6-0.2-0.8c-0.2-0.2-0.6-0.3-0.9-0.3C54.4,83.9,53.9,84.2,53.8,84.6L53.8,84.6L53.8,84.6z
	 M49.1,84.5c-0.5-0.1-0.9,0.2-1,0.7c0,0.1,0,0.2,0,0.2l1.1,3.2c0.2,0.3,0.5,0.4,0.8,0.4c0.5,0.1,1-0.2,1-0.7c0-0.1,0-0.2,0-0.3
	c-0.1-0.7-0.3-1.4-0.6-2C50,85,49.6,84.5,49.1,84.5L49.1,84.5L49.1,84.5z M45.2,84.6c-0.3,0-0.6,0.1-0.8,0.3
	c-0.2,0.3-0.2,0.6-0.2,0.9l1.1,3.1c0.2,0.3,0.5,0.5,0.9,0.5c0.3,0,0.6-0.1,0.8-0.3c0.2-0.2,0.3-0.5,0.3-0.8c0-0.2-0.1-0.5-0.2-0.7
	c-0.1-0.3-0.3-0.7-0.5-1.3C46.1,85.2,45.7,84.6,45.2,84.6L45.2,84.6L45.2,84.6z M56.2,94.5h-0.7v-2.3c0.1-0.6-0.1-1.3-0.5-1.8
	c-0.5-0.4-1.2-0.6-1.8-0.5h-8.3c-0.6-0.1-1,0.3-1.1,0.9s0.3,1,0.9,1.1c0.1,0,0.1,0,0.2,0H48v2.6h-4.2c-0.6-0.1-1,0.3-1.1,0.9
	s0.3,1,0.9,1.1c0.1,0,0.1,0,0.2,0H48v2.8h-3.4c-0.6,0-1,0.4-1,1s0.4,1,1,1H48v2.7c0,0.6-0.4,1.1-0.9,1.1c-0.1,0-0.1,0-0.2,0h-1.1
	c-0.4,0-0.7,0.1-1,0.3c-0.2,0.2-0.3,0.5-0.3,0.8c0,0.8,0.4,1.1,1.3,1.1h1.6c0.7,0.1,1.5,0,2.1-0.5c0.5-0.6,0.7-1.4,0.6-2.2v-3.3h3
	c0.6,0.1,1.3,0,1.8-0.5c0.4-0.5,0.6-1.2,0.5-1.9v-2.4h0.7c0.6,0,1-0.4,1-1S56.8,94.5,56.2,94.5L56.2,94.5L56.2,94.5z M53.4,94.5
	h-3.3v-2.6h2.3c0.5,0,0.9,0.3,0.9,0.8c0,0.1,0,0.1,0,0.2L53.4,94.5L53.4,94.5z M39.9,93.3h-5.8c-0.6-0.1-1.3,0.2-1.8,0.6
	c-0.4,0.5-0.6,1.1-0.6,1.8v10.4c-0.1,0.5,0.2,1,0.7,1.1c0.1,0,0.2,0,0.3,0c0.5,0.1,1-0.3,1.1-0.8c0-0.1,0-0.2,0-0.3v-3.8h6.3v1.8
	c0,0.3-0.1,0.5-0.2,0.7c-0.2,0.1-0.4,0.2-0.7,0.2h-0.9c-0.6,0-1.1,0.5-1.1,1.1s0.5,1.1,1.1,1.1h1.4c0.7,0.1,1.4-0.2,1.8-0.7
	c0.4-0.5,0.6-1.2,0.6-1.9v-8.9c0.1-0.6-0.1-1.3-0.5-1.8C41.2,93.5,40.6,93.2,39.9,93.3L39.9,93.3L39.9,93.3z M34.6,95.3h4.7
	c0.4-0.1,0.7,0.2,0.8,0.5c0,0.1,0,0.2,0,0.3v0.8h-6.3v-0.8c-0.1-0.4,0.2-0.7,0.5-0.8C34.5,95.3,34.6,95.3,34.6,95.3L34.6,95.3
	L34.6,95.3z M53.4,98.4c0,0.2-0.1,0.5-0.3,0.6c-0.2,0.2-0.4,0.3-0.7,0.3h-2.3v-2.8h3.3V98.4L53.4,98.4z M33.9,98.8h6.3v1.6h-6.3
	V98.8z M75.9,106.6h5.9c2.8,0,4.6-0.3,5.4-0.8c1-0.8,1.5-2,1.4-3.2c0-0.6-0.5-1.1-1.1-1.1c-0.1,0-0.2,0-0.3,0
	c-0.6-0.1-1.1,0.3-1.2,0.8c0,0,0,0,0,0.1c-0.1,1-0.5,1.6-1,1.7c-2,0.3-4.1,0.5-6.2,0.4c-4.6,0-7.1-0.1-7.7-0.2
	c-0.4-0.1-0.7-0.4-0.6-0.8V101H81c0.7,0.1,1.3,0,1.8-0.5c0.4-0.5,0.6-1.2,0.6-1.9v-2.8c1,0.8,2.1,1.6,3.2,2.2
	c0.7,0.4,1.2,0.6,1.5,0.8c0.2,0.1,0.5,0.2,0.8,0.2c0.6,0.1,1.1-0.3,1.2-0.9c0-0.1,0-0.2,0-0.3c0-0.5-0.5-0.9-1.5-1.4
	c-3-1.5-5-3.1-6.1-5h6c0.9,0,1.3-0.3,1.3-1c0-0.8-0.4-1.1-1.3-1.1h-6.2v-3.4h4.8c0.9,0,1.3-0.3,1.3-1c0-0.6-0.4-1.1-1-1.1
	c-0.1,0-0.2,0-0.3,0h-4.8v-2.1c-0.1-0.6-0.6-1.1-1.2-1c-0.5,0.1-0.9,0.5-1,1v2.1h-7v-2.1c-0.1-0.6-0.6-1.1-1.2-1
	c-0.5,0.1-0.9,0.5-1,1v2.1h-4.4c-0.6-0.1-1.2,0.3-1.3,0.8c0,0.1,0,0.2,0,0.3c0,0.7,0.4,1,1.3,1H71v3.4h-5.9c-0.9,0-1.3,0.3-1.3,1
	c0,0.3,0.1,0.7,0.3,0.9c0.3,0.1,0.7,0.2,1,0.2h5.7c-1.5,2.4-3.6,4.3-6.1,5.5c-0.6,0.2-1,0.7-1.1,1.3c-0.1,0.6,0.3,1.1,0.8,1.2
	c0.1,0,0.2,0,0.3,0c0.7,0,1.9-0.7,3.7-2.2v7.2c0,0.9,0.6,1.6,1.4,1.8C71.8,106.5,73.8,106.7,75.9,106.6L75.9,106.6L75.9,106.6z
	 M73.2,89.3v-3.4h7v3.4H73.2z M82,94.2H71.3c0.8-0.8,1.4-1.8,1.9-2.8h7C80.7,92.4,81.3,93.3,82,94.2L82,94.2L82,94.2z M80.3,98.9
	h-9.8v-1.8c-0.1-0.2,0-0.5,0.1-0.7c0.2-0.2,0.4-0.2,0.7-0.2h9.1c0.2,0,0.4,0.1,0.5,0.2s0.2,0.3,0.2,0.5v1
	C81.2,98.4,80.9,98.8,80.3,98.9C80.5,98.9,80.4,98.9,80.3,98.9L80.3,98.9L80.3,98.9z M121.7,103.6h-5.6V91.5h4.7
	c1,0,1.5-0.4,1.5-1.2c0-0.7-0.5-1.3-1.2-1.3c-0.1,0-0.2,0-0.3,0h-4.7v-6.8c0.1-0.7-0.4-1.3-1.1-1.4s-1.3,0.4-1.4,1.1
	c0,0.1,0,0.2,0,0.3V89h-4.9c-0.7-0.1-1.4,0.3-1.5,1c0,0.1,0,0.2,0,0.3c0,0.8,0.5,1.2,1.5,1.2h4.9v12.1H107c-0.7-0.1-1.4,0.3-1.5,1.1
	c-0.1,0.7,0.3,1.4,1.1,1.5c0.2,0,0.3,0,0.5,0h14.7c0.7,0.1,1.4-0.4,1.5-1.1s-0.4-1.4-1.1-1.5C122,103.6,121.9,103.6,121.7,103.6
	L121.7,103.6L121.7,103.6z M99,84.2h6.5c0.6,0.1,1.2-0.3,1.3-0.9c0-0.1,0-0.2,0-0.3c0.1-0.6-0.3-1.1-0.9-1.1c-0.1,0-0.2,0-0.3,0H99
	c-0.9,0-1.3,0.3-1.3,1.1c-0.1,0.6,0.4,1.2,1,1.2C98.8,84.2,98.9,84.2,99,84.2L99,84.2z M106.4,89.5c0.6,0.1,1.2-0.3,1.3-0.8
	c0-0.1,0-0.2,0-0.3c0-0.8-0.4-1.1-1.3-1.1h-8.3c-0.9,0-1.4,0.3-1.4,1.1c0,0.7,0.5,1.1,1.4,1.1h3v16.8c0,0.6,0.4,1.1,1,1.1
	s1.1-0.4,1.1-1v-0.1V89.5H106.4L106.4,89.5z M98.3,91.5c-0.6,0-1,0.5-1,1.4v1.3c0,4.5-0.2,7.3-0.7,8.5c-0.2,0.3-0.3,0.7-0.3,1.1
	c0,0.3,0.1,0.5,0.3,0.7c0.2,0.2,0.5,0.3,0.8,0.3c0.6,0,1.1-0.7,1.4-2c0.4-2,0.6-4.1,0.5-6.2v-3.3C99.4,92.1,99,91.5,98.3,91.5
	L98.3,91.5L98.3,91.5z M106.7,101.9v-9.2c0.1-0.5-0.2-1.1-0.8-1.2c-0.1,0-0.2,0-0.3,0c-0.5,0-1,0.4-1,0.9c0,0.1,0,0.2,0,0.3v9.2
	c-0.1,0.5,0.3,1,0.8,1.1c0.1,0,0.2,0,0.2,0c0.5,0,1-0.3,1-0.9C106.8,102.1,106.8,102,106.7,101.9L106.7,101.9z M133.8,106.3h21.1
	c0.6,0.1,1.2-0.2,1.3-0.9s-0.2-1.2-0.9-1.3c-0.2,0-0.3,0-0.5,0h-20.3c-0.5,0.1-1-0.3-1.1-0.9c0-0.1,0-0.2,0-0.2V85.2
	c-0.1-0.5,0.3-1,0.8-1.1c0.1,0,0.2,0,0.3,0h19.7c0.6,0.1,1.2-0.2,1.3-0.8c0-0.1,0-0.2,0-0.3c0-0.8-0.5-1.1-1.3-1.1h-20.6
	c-0.8-0.2-1.6,0.1-2.1,0.6c-0.5,0.6-0.7,1.3-0.7,2.1v18.9c-0.1,0.8,0.1,1.5,0.6,2.1C132.2,106.1,133,106.4,133.8,106.3L133.8,106.3
	L133.8,106.3z M139.4,93.1h10.4c0.6,0.1,1.3-0.1,1.8-0.5c0.4-0.5,0.6-1.1,0.6-1.8v-2.7c0.3-1-0.4-2-1.4-2.3c-0.3-0.1-0.6-0.1-0.9,0
	h-10.4c-0.6-0.1-1.3,0.1-1.7,0.5c-0.4,0.5-0.6,1.2-0.5,1.8v2.8c-0.1,0.6,0.1,1.2,0.5,1.7C138.1,93,138.8,93.2,139.4,93.1L139.4,93.1
	L139.4,93.1z M148.9,91.2h-8.8c-0.5,0-0.9-0.4-0.9-0.9l0,0v-1.7c0-0.4,0.2-0.8,0.7-0.8c0.1,0,0.1,0,0.2,0h8.8
	c0.4-0.1,0.8,0.2,0.9,0.6c0,0.1,0,0.1,0,0.2v1.7c0,0.5-0.3,0.9-0.7,0.9C149,91.2,149,91.2,148.9,91.2L148.9,91.2z M137.2,102.5h4.6
	c1.1,0.2,2.1-0.6,2.2-1.6c0-0.2,0-0.4,0-0.6v-3.4c0.2-1.1-0.6-2-1.6-2.2c-0.2,0-0.4,0-0.6,0h-4.6c-1.1-0.2-2.1,0.5-2.2,1.6
	c0,0.2,0,0.4,0,0.6v3.4c-0.1,1.1,0.6,2.1,1.7,2.2C136.8,102.5,137,102.5,137.2,102.5L137.2,102.5z M147.6,102.5h4.9
	c1.1,0.2,2-0.6,2.2-1.6c0-0.2,0-0.4,0-0.6V97c0-1.6-0.7-2.3-2.2-2.3h-4.9c-1.1-0.2-2.1,0.6-2.2,1.6c0,0.2,0,0.4,0,0.6v3.4
	c-0.2,1.1,0.6,2,1.6,2.2C147.2,102.5,147.4,102.5,147.6,102.5L147.6,102.5L147.6,102.5z M141.1,100.6h-3.2c-0.4,0-0.8-0.3-0.8-0.8
	v-0.1v-2.2c0-0.4,0.3-0.8,0.7-0.8h0.1h3.2c0.4-0.1,0.8,0.2,0.8,0.6c0,0.1,0,0.1,0,0.2v2.2c0.1,0.4-0.3,0.8-0.7,0.9
	C141.2,100.6,141.2,100.6,141.1,100.6L141.1,100.6L141.1,100.6z M151.7,100.6h-3.4c-0.5,0-0.8-0.4-0.8-0.9l0,0v-2.2
	c0-0.4,0.2-0.8,0.7-0.8c0.1,0,0.1,0,0.2,0h3.4c0.2,0,0.4,0.1,0.6,0.2c0.2,0.2,0.2,0.4,0.2,0.6v2.2c0.1,0.4-0.2,0.8-0.6,0.9
	C151.8,100.6,151.7,100.6,151.7,100.6L151.7,100.6z"/>
</svg>
