<?xml version="1.0" encoding="utf-8"?>
<!-- Generator: Adobe Illustrator 24.0.3, SVG Export Plug-In . SVG Version: 6.00 Build 0)  -->
<svg version="1.1" id="icon_spec5.svg" xmlns="http://www.w3.org/2000/svg" xmlns:xlink="http://www.w3.org/1999/xlink" x="0px"
	 y="0px" viewBox="0 0 187 187" style="enable-background:new 0 0 187 187;" xml:space="preserve">
<style type="text/css">
	.st0{fill-rule:evenodd;clip-rule:evenodd;fill:#FFFFFF;}
</style>
<path id="優質學區" class="st0" d="M37.6,81.8c0.1-0.6-0.4-1.1-0.9-1.1c-0.1,0-0.2,0-0.2,0c-0.7,0-1.2,0.5-1.2,1.2
	c-0.4,2-1,4-1.6,5.9c-0.6,1.8-1.3,3.6-2.2,5.3c-0.3,0.6-0.6,1-0.7,1.3s-0.2,0.6-0.2,0.9c0,0.2,0.1,0.4,0.2,0.6
	c0.2,0.1,0.5,0.2,0.7,0.2c0.4-0.2,0.8-0.5,0.9-0.9c0.5-0.8,0.9-1.7,1.3-2.6v13.3c0,1,0.4,1.4,1.1,1.4c0.8,0,1.2-0.4,1.2-1.4V86.8
	C36.7,85.2,37.2,83.5,37.6,81.8L37.6,81.8L37.6,81.8z M42.1,84.8c-1.1-0.2-2.2,0.6-2.3,1.8c0,0.2,0,0.4,0,0.5v5.2h-0.6
	c-1-0.1-1.9,0.6-2.1,1.6c0,0.2,0,0.4,0,0.5v1.3c-0.1,0.5,0.3,1,0.9,1.1c0.5,0.1,1-0.3,1.1-0.9c0-0.1,0-0.2,0-0.2v-1
	c0-0.2,0.1-0.4,0.2-0.6c0.1-0.2,0.4-0.3,0.6-0.3h14c0.5,0,0.9,0.4,0.9,0.9l0,0v0.9c-0.1,0.5,0.3,1,0.8,1.1c0.1,0,0.2,0,0.2,0
	c0.3,0,0.6-0.1,0.8-0.3c0.2-0.2,0.3-0.5,0.3-0.8v-1.3c0.1-1-0.6-1.9-1.6-2c-0.2,0-0.3,0-0.5,0h-0.6v-5.2c0.1-1.1-0.7-2.2-1.8-2.3
	c-0.2,0-0.4,0-0.5,0h-4.8l0.6-1.2h7.9c0.3,0,0.6-0.1,0.8-0.2c0.2-0.2,0.3-0.4,0.2-0.7c0-0.5-0.3-0.9-0.8-0.9c-0.1,0-0.2,0-0.2,0
	H39.3c-0.5-0.1-0.9,0.2-1,0.7c0,0.1,0,0.2,0,0.2c0,0.3,0.1,0.5,0.2,0.7c0.2,0.1,0.5,0.2,0.8,0.2h6L45,84.8L42.1,84.8L42.1,84.8z
	 M51.8,87.1v0.3h-9.7v-0.3c-0.1-0.3,0-0.6,0.3-0.7c0.1,0,0.2,0,0.4,0h8.3c0.3-0.1,0.7,0.2,0.7,0.5C51.8,87,51.8,87,51.8,87.1
	L51.8,87.1L51.8,87.1z M42.1,89.8v-1.1h9.7v1.1H42.1z M42.1,92.3v-1.2h9.7v1.2H42.1z M46.8,94c-0.4-0.1-0.8,0.2-0.9,0.6
	c0,0.1,0,0.1,0,0.2s0.1,0.2,0.2,0.3c0.2,0.2,0.4,0.4,0.6,0.5c0.3,0.3,0.7,0.5,1.1,0.6c0.4,0.1,0.8-0.2,0.8-0.6c0-0.1,0-0.1,0-0.2
	c0-0.4-0.3-0.7-0.6-0.8C47.6,94.3,47.2,94.1,46.8,94L46.8,94L46.8,94z M55.6,105c-2,0-4.1-0.3-6-0.9c1.1-0.6,2.1-1.3,3.1-2
	c0.6-0.4,1.2-1,1.6-1.7c0-0.7-0.5-1-1.5-1h-7.6l1-1.1c1.3,0,2.7,0,4-0.2c0.9-0.2,1.4-1,1.3-1.9c0-0.3-0.1-0.5-0.2-0.7
	c-0.2-0.2-0.4-0.3-0.7-0.3c-0.4,0-0.8,0.3-0.8,0.8l0,0c0,0.3-0.1,0.5-0.3,0.7c-0.4,0.1-0.9,0.1-1.3,0.1H45c-0.3,0-0.5-0.1-0.5-0.4
	v-0.1v-1.2c0.1-0.5-0.3-0.9-0.8-1c-0.1,0-0.1,0-0.2,0c-0.5-0.1-0.9,0.3-1,0.8c0,0.1,0,0.1,0,0.2v1.8c0,0.4,0.1,0.7,0.3,1
	c0.3,0.2,0.6,0.3,1,0.3c-1.3,1.5-3,2.6-4.8,3.4c-0.9,0.3-1.3,0.7-1.3,1.1c-0.1,0.4,0.2,0.8,0.6,0.9c0.1,0,0.1,0,0.2,0
	c0.8,0,2.2-0.7,4.1-2.1c0.7,1,1.6,1.8,2.6,2.5c-2,0.7-4.2,1.1-6.3,1.3c-1.3,0.1-1.9,0.4-1.9,1c-0.1,0.5,0.3,1,0.8,1
	c0.1,0,0.2,0,0.3,0c3.1-0.1,6.2-0.8,9-2.1c1.4,0.6,2.9,1.1,4.4,1.5c1.5,0.3,3,0.5,4.4,0.5c0.5,0.1,1.1-0.2,1.2-0.8
	c0-0.1,0-0.2,0-0.3C57.3,105.4,56.7,105.1,55.6,105L55.6,105L55.6,105z M52.4,94.2c-0.2,0-0.4,0.1-0.6,0.2c-0.1,0.2-0.2,0.5-0.2,0.8
	l1.1,2c0.1,0.5,0.5,0.9,1.1,1.1c0.3,0,0.5-0.1,0.7-0.3c0.2-0.1,0.3-0.4,0.3-0.6c-0.2-0.6-0.5-1.2-0.9-1.8
	C53.3,94.7,52.8,94.2,52.4,94.2L52.4,94.2z M39.9,95.4l-0.5,1.2c-0.3,0.4-0.5,0.8-0.6,1.2c-0.1,0.4,0.2,0.8,0.7,0.9
	c0.1,0,0.2,0,0.2,0c0.3,0,0.6-0.2,0.7-0.4c0.3-0.4,0.5-0.8,0.6-1.3c0.1-0.3,0.2-0.5,0.2-0.8c0.2-0.3,0.3-0.7,0.3-1
	c0-0.4-0.3-0.7-0.6-0.7c-0.1,0-0.1,0-0.2,0c-0.2,0-0.4,0-0.5,0.2C40.1,94.9,40,95.1,39.9,95.4L39.9,95.4L39.9,95.4z M44.3,100.9h6.3
	c0.1,0,0.2,0.1,0.2,0.2l0,0c-0.3,0.4-0.7,0.7-1.2,0.9c-0.7,0.5-1.5,0.9-2.3,1.2C46.3,102.6,45.2,101.8,44.3,100.9L44.3,100.9
	L44.3,100.9z M64.6,92.4c0.6,0,1.3-0.5,1.9-1.6c0.7-1.2,1.1-2.5,1.2-3.8h3.6v3.1c-0.1,0.6,0.3,1.2,0.9,1.3c0.6,0.1,1.2-0.3,1.3-0.9
	c0-0.1,0-0.2,0-0.4V87h2.3c0.5,0.1,1-0.2,1.1-0.7c0-0.1,0-0.2,0-0.3c0-0.5-0.4-0.9-0.9-0.9c-0.1,0-0.2,0-0.2,0h-7.9v-0.4
	c0-0.8,0.3-1.3,0.9-1.3l2.6-0.3c1.8-0.3,2.9-0.4,3.3-0.5c0.5,0,0.9-0.3,1-0.8c0-0.3-0.1-0.7-0.3-0.9c-0.2-0.2-0.5-0.2-0.8-0.2
	l-3.9,0.7l-2.2,0.2c-0.7-0.1-1.5,0.2-2.1,0.6c-0.5,0.4-0.7,1-0.7,1.6v0.6c0,1-0.1,2.1-0.2,3.1c-0.1,0.9-0.6,1.7-1.2,2.4
	c-0.4,0.3-0.7,0.8-0.8,1.3c-0.1,0.6,0.3,1.1,0.8,1.2C64.4,92.4,64.5,92.4,64.6,92.4L64.6,92.4L64.6,92.4z M76.8,91.5
	c0.8-0.2,1.5-0.7,1.9-1.4c0.7-0.9,1.2-2,1.3-3.1h3.9v3c-0.1,0.6,0.3,1.2,0.9,1.4s1.2-0.3,1.4-0.9c0-0.2,0-0.3,0-0.5v-3h3
	c0.5,0.1,1-0.2,1.1-0.7c0-0.1,0-0.2,0-0.3c0-0.5-0.4-0.9-0.9-0.9c-0.1,0-0.2,0-0.2,0h-9V85c0-0.5,0-0.9,0.2-1.4
	c0.3-0.2,0.5-0.3,0.8-0.3c3.2-0.3,5.3-0.6,6.1-0.7c0.5,0.1,1-0.3,1.1-0.8c0-0.3-0.1-0.6-0.3-0.9c-0.3-0.1-0.5-0.2-0.8-0.2l-0.6,0.1
	c-2.4,0.4-4.4,0.7-6,0.8c-0.8,0-1.6,0.2-2.3,0.6c-0.5,0.3-0.8,0.9-0.7,1.5V86c0,1.3-0.5,2.5-1.4,3.3c-0.3,0.2-0.5,0.6-0.6,1
	c-0.1,0.6,0.3,1.1,0.8,1.2C76.6,91.5,76.7,91.5,76.8,91.5L76.8,91.5L76.8,91.5z M68.8,103.7h16.1c0.7,0.1,1.4-0.2,1.9-0.6
	c0.4-0.5,0.7-1.2,0.6-1.9v-6.9c0.1-0.7-0.1-1.3-0.6-1.8c-0.5-0.4-1.2-0.7-1.9-0.6H68.8c-0.7-0.1-1.4,0-1.9,0.5
	c-0.4,0.5-0.6,1.2-0.6,1.9v6.9c-0.1,0.7,0.1,1.4,0.5,1.9C67.4,103.5,68.1,103.8,68.8,103.7L68.8,103.7L68.8,103.7z M85,95.3H68.7
	v-0.7c-0.1-0.4,0.3-0.8,0.7-0.9h0.1h14.7c0.4,0,0.8,0.3,0.8,0.7c0,0.1,0,0.1,0,0.2L85,95.3L85,95.3z M68.7,98.6V97H85v1.6H68.7
	L68.7,98.6z M84.2,101.9H69.5c-0.4,0-0.8-0.3-0.8-0.8V101v-0.7H85v0.7c0.1,0.4-0.3,0.8-0.7,0.9H84.2L84.2,101.9L84.2,101.9z
	 M85.9,107.1l3.2,0.3c0.5,0.1,1-0.3,1.1-0.8c0-0.1,0-0.2,0-0.3c0-0.6-0.7-1-2.2-1.1c-2.3-0.1-4.6-0.5-6.9-1.1l-0.8-0.2
	c-0.6-0.1-1.1,0.3-1.2,0.9c0,0.1,0,0.2,0,0.3c0,0.4,0.6,0.7,1.7,1.1C82.6,106.6,84.2,106.9,85.9,107.1L85.9,107.1L85.9,107.1z
	 M64.4,107.4h0.9c2.8-0.3,5.5-0.8,8.2-1.5c0.6-0.2,1-0.4,1-0.8c0.1-0.6-0.3-1.1-0.8-1.2c-0.1,0-0.2,0-0.3,0c-0.2,0-0.4,0.1-0.6,0.1
	c-0.3,0.1-0.6,0.2-0.9,0.2c-1,0.3-2.1,0.5-3.1,0.7c-1.1,0.2-2.3,0.3-3.6,0.4c-1.2,0.1-1.8,0.5-1.8,1
	C63.5,107.1,63.8,107.5,64.4,107.4L64.4,107.4z M98.3,97.9c0.6,0.1,1.1-0.4,1.2-1c0-0.1,0-0.2,0-0.3v-1.8c0-0.5,0.4-0.9,0.8-0.9
	c0.1,0,0.1,0,0.2,0h18.9c0.5-0.1,0.9,0.2,1,0.7c0,0.1,0,0.1,0,0.2v1.9c0,0.4,0.1,0.7,0.3,1c0.2,0.2,0.6,0.3,0.9,0.3
	c0.6,0.1,1.1-0.4,1.2-1c0-0.1,0-0.2,0-0.3v-2.4c0.1-1.6-0.5-2.4-2-2.4h-0.3l0.6-8.5c0-1.2-0.8-1.8-2.3-1.8h-4.2
	c-0.3,0-0.5,0.1-0.7,0.3c-0.2,0.2-0.3,0.4-0.2,0.6c-0.1,0.4,0.3,0.8,0.7,0.9c0.1,0,0.2,0,0.2,0h3.4c0.2,0,0.5,0.1,0.7,0.2
	c0.2,0.2,0.2,0.5,0.2,0.7v0.6H115c-0.5-0.1-0.9,0.2-1,0.7c0,0.1,0,0.2,0,0.2c0,0.3,0.1,0.5,0.2,0.7c0.2,0.1,0.5,0.2,0.8,0.2h3.7
	l-0.1,1.6h-3.7c-0.5-0.1-0.9,0.2-1,0.7c0,0.1,0,0.2,0,0.2c-0.1,0.5,0.2,0.9,0.7,1c0.1,0,0.2,0,0.3,0h3.5l-0.1,1.7h-16.5l-0.1-1.7
	h3.2c0.5,0.1,1-0.2,1.1-0.7c0-0.1,0-0.2,0-0.3c0-0.5-0.4-0.9-0.8-0.9c-0.1,0-0.2,0-0.2,0h-3.3l-0.1-1.6h3.4c0.5,0.1,1-0.2,1.1-0.7
	s-0.2-1-0.7-1.1c-0.1,0-0.2,0-0.3,0h-3.6v-0.8c0-0.3,0.1-0.5,0.2-0.7c0.3-0.1,0.6-0.2,0.9-0.3c0.9,0,1.9-0.2,2.8-0.5
	c0.4-0.1,0.7-0.4,0.8-0.8c0.1-0.4-0.2-0.9-0.6-1c-0.1,0-0.2,0-0.3,0h-0.4c-0.1,0.1-0.2,0.1-0.3,0.1l-0.9,0.3l-3,0.5
	c-0.4,0.1-0.8,0.3-1.1,0.6c-0.3,0.3-0.4,0.8-0.3,1.2l0.6,8.4h-0.4c-0.6,0-1.1,0.2-1.5,0.6c-0.3,0.5-0.5,1.2-0.5,1.8v2.2
	C97.1,97.5,97.5,97.9,98.3,97.9L98.3,97.9L98.3,97.9z M107,86.3c0.4,0,1.4-0.6,2.9-1.8l1,1c0.3,0.3,0.6,0.4,1,0.5
	c0.2,0,0.5-0.1,0.6-0.2c0.2-0.2,0.2-0.4,0.2-0.7c-0.2-0.6-0.6-1.2-1.2-1.4l-0.3-0.2c0.6-0.5,1.2-1.1,1.5-1.8c0-0.2-0.1-0.4-0.2-0.6
	c-0.2-0.1-0.4-0.2-0.7-0.2c-0.4,0.1-0.8,0.3-1.1,0.7l-0.8,0.9c-0.7-0.6-1.5-1-2.3-1.4c-0.2,0-0.4,0.1-0.6,0.2
	c-0.2,0.2-0.2,0.4-0.2,0.6c0.5,0.7,1.1,1.2,1.8,1.6l-0.7,0.4c-1.2,0.7-1.7,1.2-1.7,1.5c-0.1,0.4,0.2,0.8,0.6,0.9
	C106.9,86.3,107,86.3,107,86.3L107,86.3L107,86.3z M106.3,90.9c0,0.4,0.3,0.8,0.7,0.8c0.1,0,0.1,0,0.2,0c0.4-0.1,0.8-0.3,1.1-0.5
	c0.5-0.3,1.1-0.7,1.8-1.2l1.3,1c0.3,0.3,0.6,0.5,1,0.6s0.8-0.3,0.9-0.7c0-0.1,0-0.1,0-0.2c0-0.4-0.6-1-1.7-1.8
	c0.9-0.7,1.3-1.2,1.3-1.6s-0.3-0.8-0.7-0.8c-0.1,0-0.1,0-0.2,0c-0.4,0.1-0.8,0.3-1.1,0.7l-0.8,0.7l-0.5-0.3l-0.9-0.5
	c-0.3-0.2-0.6-0.4-1-0.5s-0.8,0.2-0.8,0.6c0,0.1,0,0.1,0,0.2c0,0.3,0.5,0.7,1.5,1.4l0.3,0.2l-0.6,0.3
	C106.9,90,106.3,90.5,106.3,90.9L106.3,90.9L106.3,90.9z M121.9,100.5h-11.1v-0.1c0.1-0.5,0.5-0.8,0.9-0.9c1.9-0.5,3.8-1.1,5.7-1.9
	c1.3-0.5,2-1,2-1.3s-0.3-0.6-0.6-0.7c-0.5-0.2-1.1-0.3-1.7-0.3h-15.7c-0.3,0-0.6,0.1-0.9,0.2c-0.2,0.2-0.3,0.4-0.3,0.7
	c0,0.5,0.3,1,0.8,1c0.1,0,0.2,0,0.3,0h12.9l-3.1,0.8c-0.8,0.1-1.6,0.4-2.3,0.7c-0.3,0.2-0.5,0.6-0.5,1v0.8H97.9
	c-0.5-0.1-1,0.2-1.1,0.7c0,0.1,0,0.2,0,0.3c0,0.6,0.4,1,1,1c0.1,0,0.1,0,0.2,0h10.6v1.6c0,0.6-0.4,1.1-1,1.1c-0.1,0-0.1,0-0.2,0
	h-1.2c-0.9,0-1.4,0.4-1.4,1.1c-0.1,0.3,0.1,0.6,0.3,0.8c0.3,0.2,0.7,0.3,1.1,0.3h1.8c0.8,0.2,1.6-0.1,2.1-0.6
	c0.5-0.6,0.8-1.5,0.7-2.3v-2h11.1c0.5,0.1,1.1-0.3,1.2-0.8c0-0.1,0-0.1,0-0.2c0-0.5-0.4-1-0.9-1C122.1,100.5,122,100.5,121.9,100.5
	L121.9,100.5L121.9,100.5z M133.8,106.3h21.1c0.6,0.1,1.2-0.2,1.3-0.9c0.1-0.6-0.2-1.2-0.9-1.3c-0.2,0-0.3,0-0.5,0h-20.3
	c-0.5,0.1-1-0.3-1.1-0.9c0-0.1,0-0.2,0-0.2V85.2c-0.1-0.5,0.3-1,0.8-1.1c0.1,0,0.2,0,0.3,0h19.8c0.6,0.1,1.2-0.2,1.3-0.8
	c0-0.1,0-0.2,0-0.3c0-0.8-0.4-1.1-1.3-1.1h-20.6c-0.8-0.2-1.6,0.1-2.1,0.6c-0.5,0.6-0.7,1.3-0.7,2.1v18.9c-0.1,0.8,0.1,1.5,0.6,2.1
	C132.2,106.1,133,106.4,133.8,106.3L133.8,106.3L133.8,106.3z M139.4,93.1h10.4c0.6,0.1,1.3-0.1,1.8-0.5c0.4-0.5,0.6-1.1,0.6-1.8
	v-2.7c0.3-1-0.4-2-1.4-2.3c-0.3-0.1-0.6-0.1-0.9,0h-10.4c-0.6-0.1-1.3,0.1-1.7,0.5c-0.4,0.5-0.6,1.1-0.6,1.8v2.8
	c-0.1,0.6,0.1,1.2,0.5,1.7C138.1,93,138.7,93.2,139.4,93.1L139.4,93.1z M148.9,91.2h-8.8c-0.5,0-0.9-0.4-0.9-0.9l0,0v-1.7
	c0-0.4,0.2-0.8,0.6-0.8c0.1,0,0.1,0,0.2,0h8.8c0.4-0.1,0.8,0.2,0.9,0.6c0,0.1,0,0.1,0,0.2v1.7c0,0.5-0.3,0.9-0.7,0.9
	C149,91.2,149,91.2,148.9,91.2L148.9,91.2z M137.2,102.5h4.6c1.1,0.2,2.1-0.6,2.2-1.6c0-0.2,0-0.4,0-0.6v-3.4c0.2-1.1-0.6-2-1.6-2.2
	c-0.2,0-0.4,0-0.6,0h-4.6c-1.1-0.2-2.1,0.5-2.2,1.6c0,0.2,0,0.4,0,0.6v3.4c-0.2,1.1,0.6,2.1,1.7,2.2
	C136.8,102.5,137,102.5,137.2,102.5L137.2,102.5z M147.6,102.5h4.9c1.1,0.2,2-0.6,2.2-1.6c0-0.2,0-0.4,0-0.6V97
	c0-1.6-0.7-2.3-2.2-2.3h-4.9c-1.1-0.2-2.1,0.6-2.2,1.6c0,0.2,0,0.4,0,0.6v3.4c-0.2,1.1,0.6,2,1.6,2.2
	C147.2,102.5,147.4,102.5,147.6,102.5L147.6,102.5L147.6,102.5z M141.1,100.6h-3.2c-0.4,0-0.8-0.3-0.8-0.8v-0.1v-2.2
	c0-0.4,0.3-0.8,0.7-0.8h0.1h3.2c0.4,0,0.8,0.2,0.8,0.6c0,0.1,0,0.1,0,0.2v2.2c0.1,0.4-0.3,0.8-0.7,0.9
	C141.2,100.6,141.2,100.6,141.1,100.6L141.1,100.6z M151.7,100.6h-3.4c-0.5,0-0.8-0.4-0.8-0.9l0,0v-2.2c0-0.4,0.2-0.8,0.6-0.8
	c0.1,0,0.1,0,0.2,0h3.4c0.2,0,0.4,0.1,0.6,0.2c0.2,0.2,0.2,0.4,0.2,0.6v2.2c0.1,0.4-0.2,0.8-0.6,0.9
	C151.8,100.6,151.7,100.6,151.7,100.6L151.7,100.6z"/>
</svg>
