<?xml version="1.0" encoding="utf-8"?>
<!-- Generator: Adobe Illustrator 24.0.3, SVG Export Plug-In . SVG Version: 6.00 Build 0)  -->
<svg version="1.1" id="icon_email.svg" xmlns="http://www.w3.org/2000/svg" xmlns:xlink="http://www.w3.org/1999/xlink" x="0px"
	 y="0px" viewBox="0 0 24 24" style="enable-background:new 0 0 24 24;" xml:space="preserve">
<g>
	<path d="M23.8,4.8L16.5,12l7.3,7.2c0.1-0.3,0.2-0.6,0.2-0.9V5.7C24,5.3,23.9,5,23.8,4.8z"/>
	<path d="M13.5,13l9.3-9.3c-0.3-0.1-0.6-0.2-0.9-0.2H2.1c-0.3,0-0.6,0.1-0.9,0.2l9.3,9.3C11.3,13.9,12.7,13.9,13.5,13z"/>
	<path d="M0.2,4.8C0.1,5,0,5.3,0,5.7v12.7c0,0.3,0.1,0.6,0.2,0.9L7.5,12L0.2,4.8z"/>
	<path d="M14.5,14c-1.4,1.4-3.6,1.4-5,0l-1-1l-7.3,7.2c0.3,0.1,0.6,0.2,0.9,0.2h19.8c0.3,0,0.6-0.1,0.9-0.2L15.5,13L14.5,14z"/>
</g>
</svg>
