<?xml version="1.0" encoding="utf-8"?>
<!-- Generator: Adobe Illustrator 24.0.3, SVG Export Plug-In . SVG Version: 6.00 Build 0)  -->
<svg version="1.1" id="icon_spec1.svg" xmlns="http://www.w3.org/2000/svg" xmlns:xlink="http://www.w3.org/1999/xlink" x="0px"
	 y="0px" viewBox="0 0 103.2 102.9" style="enable-background:new 0 0 103.2 102.9;" xml:space="preserve">
<style type="text/css">
	.st0{fill-rule:evenodd;clip-rule:evenodd;fill:#709C45;}
</style>
<g>
	<path class="st0" d="M30.1,60.5c-4.1-2.3-8.3,2.2-4.1,5.7c4.7,3.9,15.4,1.7,18.8-7.6C40.8,65.6,34.2,62.8,30.1,60.5z"/>
	<path class="st0" d="M61,60.7c5.5-0.6,4.3-7.6,0-8.9c-4.3-1.3-8.8-3.9-9.9-8.8C47.9,52.4,55.5,61.3,61,60.7z"/>
	<path class="st0" d="M55.1,62.7c-4-2.4-9.7-6.7-5.7-13.7c-6.4,7.6-2.9,17.9,2.8,20.1C57.3,71,59.1,65.1,55.1,62.7z"/>
	<path class="st0" d="M38.9,34.4c9.9,0.2,16.1-9.8,13.8-14.8c-2.3-5-8.5-1.8-8.5,2.7C44.3,26.8,43.3,31.8,38.9,34.4z"/>
	<path class="st0" d="M35.3,41.6c-4.2-6.8,1.4-11.4,5.3-13.9c3.9-2.5,2-8.4-3.1-6.3C31.9,23.7,28.8,34.2,35.3,41.6z"/>
	<path class="st0" d="M23.2,29.7c-4.4,3.4-3.6,15.1,5.2,19.6c-2.6-4.3-1.2-9.2,1-13.2C31.6,32.2,27.6,26.4,23.2,29.7z"/>
	<path class="st0" d="M23.4,56.8c4.5-1.4,11.5-2.7,14,5C36,51.9,26,47.5,20.6,50.3C15.7,52.8,18.9,58.1,23.4,56.8z"/>
	<path class="st0" d="M33.3,42.4c-5.5,0.2-4.9,7.2-0.7,8.9c4.2,1.7,8.4,4.6,9.1,9.6C45.7,51.8,38.8,42.2,33.3,42.4z"/>
	<path class="st0" d="M47,33.2c-5.2,1.8-8.3,13.1-1.4,20.2c-1.1-4.9,1.9-9.1,5.2-12.2C54.2,38.2,52.3,31.4,47,33.2z"/>
	<path class="st0" d="M61.3,19.7c-0.7-4.6-6.9-5.1-7,0.4c-0.1,6.1,8.3,13.1,17.6,10C64,31.2,62,24.3,61.3,19.7z"/>
	<path class="st0" d="M57.2,42.2c0.8,4.5,7.5,6.5,8.8,1.2c1.3-5.4-6.5-14.1-16.2-12.1C54.5,33.1,56.4,37.8,57.2,42.2z"/>
	<path class="st0" d="M75.3,47.7c3.1-4.5-2.3-7.6-5.5-4.3c-3.3,3.3-8.8,7.9-14.7,2.3C61,53.7,71.9,52.7,75.3,47.7z"/>
	<path class="st0" d="M81.8,48.1c1.9-9.7-6.2-17.1-12.2-16.2c-5.4,0.8-4.1,6.8,0.6,7C74.9,39,82,40.1,81.8,48.1z"/>
	<path class="st0" d="M79.2,62.4c-2.7-3.8-6.1-10.1,0.4-14.8c-8.9,4.3-10,15.2-5.7,19.5C77.8,70.9,81.9,66.2,79.2,62.4z"/>
	<path class="st0" d="M61.1,64c-3.7,2.7-2.6,9.6,2.8,8.4c5.4-1.2,9.8-12.1,3.8-19.9C68.1,57.5,64.7,61.3,61.1,64z"/>
	<path class="st0" d="M57,68.9c-0.6,5-4.7,8-8.8,9.9c-4.1,1.8-4.5,8.8,1,8.8C54.7,87.6,61.3,77.8,57,68.9z"/>
	<path class="st0" d="M62.7,84.5c6.1-0.4,12.5-9.2,8.6-18.3c1.8,7.9-5,10.3-9.5,11.4C57.3,78.6,57.2,84.8,62.7,84.5z"/>
	<path class="st0" d="M36.4,87.3c0.9,5.4,6.9,4,7-0.7c0.1-4.7,1-11.8,9-11.8C42.6,73.1,35.4,81.2,36.4,87.3z"/>
	<path class="st0" d="M6.3,61c3.9,4.7,14.8,4.6,19.9-3.8c-5.3,6.1-11.3,2.1-14.8-1C7.8,53.2,2.8,56.8,6.3,61z"/>
	<path class="st0" d="M48.1,68.3c0-5.5-7-5.2-8.8-1c-1.8,4.1-4.8,8.3-9.9,8.8C38.4,80.4,48.1,73.8,48.1,68.3z"/>
	<path class="st0" d="M11.3,67c-4.4-1.6-10.9-4.7-8.2-12.4c-4.8,8.6,0.6,18.1,6.6,19.2C15.1,74.8,15.7,68.6,11.3,67z"/>
	<path class="st0" d="M32.7,79.3c-4.8-1.7-6.7-6.4-7.5-10.9c-0.8-4.5-7.6-6.5-8.8-1.1C15.1,72.7,23,81.3,32.7,79.3z"/>
	<path class="st0" d="M5.4,53.3c4.5-0.1,9.5,0.8,12.2,5.1C17.6,48.4,7.4,42.5,2.5,44.9C-2.5,47.3,0.9,53.4,5.4,53.3z"/>
	<path class="st0" d="M11.7,45.5c-2.6-4.3-1.2-9.2,1-13.2c2.2-4-1.8-9.8-6.2-6.4C2.2,29.3,3,41,11.7,45.5z"/>
	<path class="st0" d="M20.6,28.9c-8.8,4.6-9.5,15.5-5.1,19.6c4,3.7,7.9-1.1,5.1-4.8C17.8,40,14.2,33.8,20.6,28.9z"/>
	<path class="st0" d="M21.8,18.8c3.5-2.9,1.8-9.8-3.5-8.2c-5.3,1.6-8.8,12.8-2.2,20.2C15.3,25.8,18.4,21.7,21.8,18.8z"/>
	<path class="st0" d="M21.3,20.3c9.9,0.2,16.1-9.8,13.8-14.8c-2.3-5-8.5-1.8-8.5,2.7C26.7,12.7,25.6,17.7,21.3,20.3z"/>
	<path class="st0" d="M24.6,20.9c-4.7,0.1-6,6.1-0.6,7c6,1,14.2-6.3,12.4-16.1C36.4,19.9,29.3,20.8,24.6,20.9z"/>
	<path class="st0" d="M42.7,21c-5.1-6.3-0.1-11.4,3.5-14.4c3.6-3,0.9-8.5-3.8-5.8C37,3.7,35.2,14.5,42.7,21z"/>
	<path class="st0" d="M44.1,10.5c-4.4,3.3-0.4,8,3.8,5.9c4.2-2.1,10.9-4.6,14.6,2.6C59.5,9.5,49,6.8,44.1,10.5z"/>
	<path class="st0" d="M59.5,12.1c3.2,3.2,9.9,1,7.9-4.2c-2-5.1-13.5-7.7-20.3-0.5C52,6.2,56.3,8.9,59.5,12.1z"/>
	<path class="st0" d="M85.7,18.4c-8,0.4-9.3-6.6-9.6-11.3c-0.3-4.7-6.4-5.8-7-0.3C68.4,12.8,76,20.6,85.7,18.4z"/>
	<path class="st0" d="M67.7,21.9c4.7,0.2,11.8,1.3,11.5,9.3c2-9.7-6-17.1-12-16.3C61.8,15.7,63,21.7,67.7,21.9z"/>
	<path class="st0" d="M75.3,31.6c8,0.7,8.3,7.9,7.9,12.6c-0.4,4.7,5.5,6.6,6.9,1.3C91.7,39.5,85.2,30.7,75.3,31.6z"/>
	<path class="st0" d="M80.7,24.1c0.1,5.5,10,11.9,18.8,7.5c-5-0.5-8.1-4.6-10-8.7C87.7,18.8,80.6,18.6,80.7,24.1z"/>
	<path class="st0" d="M81.9,51.6c-4.5,0.4-7.2,6.9-2,8.7c5.2,1.8,14.6-5.2,13.6-15.1C91.3,49.7,86.4,51.2,81.9,51.6z"/>
	<path class="st0" d="M87.4,34c4.7,2,6.3,6.8,6.9,11.3c0.5,4.5,7.2,6.9,8.8,1.6C104.6,41.7,97.2,32.6,87.4,34z"/>
	<path class="st0" d="M100.1,55.1c0.9-5.4-5.3-6-6.8-1.6c-1.5,4.4-4.7,10.9-12.3,8.3C89.7,66.6,99.2,61.1,100.1,55.1z"/>
	<path class="st0" d="M91.1,65.9c-4.3,1.4-5.4,8.3,0.1,8.9c5.5,0.6,13-8.5,9.7-17.8C99.8,62,95.4,64.5,91.1,65.9z"/>
	<path class="st0" d="M81.6,78.6c0.2-4.5,1.5-9.5,6-11.8C77.7,66.1,71,75.7,73,80.9C75,86,81.4,83.1,81.6,78.6z"/>
	<path class="st0" d="M90.4,76.4c-6.1-0.3-13.4,7.8-10.6,17.3c-0.9-8,6.1-9.7,10.7-10.3C95.2,82.9,95.9,76.7,90.4,76.4z"/>
	<path class="st0" d="M73.3,84c-5.4-0.4-12.5,8.6-9,17.6c0.9-4.8,5.2-7.5,9.3-8.9C77.8,91.2,78.7,84.4,73.3,84z"/>
	<path class="st0" d="M52.4,93.9c-3.1,0.9-4.7,4.7-3.3,7.1c0.5,0.8,1.9,1.9,3.6,1.9c5.4,0,12.6-8.4,9.8-17.5
		C61.3,90.3,56.8,92.7,52.4,93.9z"/>
	<path class="st0" d="M36.5,98.2c5.4,2.8,15.4-1.5,16.8-11.3c-2.5,7.7-9.6,6.3-14,4.9C34.9,90.4,31.7,95.7,36.5,98.2z"/>
	<path class="st0" d="M30.9,88c-0.2-4.8-6.4-6.2-7.2-0.6c-0.9,6.2,6.8,14.5,16.8,12.5C32.2,100.1,31.1,92.8,30.9,88z"/>
	<path class="st0" d="M20.8,81.4c0.6-4.5-5.2-8.5-8.1-3.7C9.8,82.3,14.8,93,24.6,94C20.6,90.9,20.2,85.8,20.8,81.4z"/>
</g>
</svg>
