<?xml version="1.0" encoding="utf-8"?>
<!-- Generator: Adobe Illustrator 24.0.3, SVG Export Plug-In . SVG Version: 6.00 Build 0)  -->
<svg version="1.1" id="icon_phone.svg" xmlns="http://www.w3.org/2000/svg" xmlns:xlink="http://www.w3.org/1999/xlink" x="0px"
	 y="0px" viewBox="0 0 24 24" style="enable-background:new 0 0 24 24;" xml:space="preserve">
<path d="M7.4,10.3c0.6,2.5,3.8,5.6,6.2,6.2c1.1,0.2,2.3-0.4,2.6-1.4l0,0c0.5-1.6,2.5-2,3.7-0.8l3.4,3.3c0.8,0.8,0.8,2.3,0,3.2
	l-2.3,2.3c-2.4,2.4-8.8-0.2-14.4-5.9c-5.6-5.6-8.2-12-5.9-14.4l2.3-2.3c0.8-0.8,2.3-0.8,3.2,0L9.7,4c1.2,1.2,0.7,3.2-0.8,3.7l0,0
	C7.8,8,7.1,9.2,7.4,10.3z"/>
</svg>
