<?xml version="1.0" encoding="utf-8"?>
<!-- Generator: Adobe Illustrator 24.0.3, SVG Export Plug-In . SVG Version: 6.00 Build 0)  -->
<svg version="1.1" id="icon_spec3.svg" xmlns="http://www.w3.org/2000/svg" xmlns:xlink="http://www.w3.org/1999/xlink" x="0px"
	 y="0px" viewBox="0 0 187 187" style="enable-background:new 0 0 187 187;" xml:space="preserve">
<style type="text/css">
	.st0{fill-rule:evenodd;clip-rule:evenodd;fill:#FFFFFF;}
</style>
<path id="離塵近城" class="st0" d="M56,104.4h-2.9V100h2.1c0.5,0.1,1.1-0.2,1.2-0.7c0-0.1,0-0.2,0-0.3c0-0.6-0.4-1.1-1-1.1
	c-0.1,0-0.2,0-0.3,0H53v-3.7h2.1c0.6,0.1,1.1-0.2,1.2-0.8c0.1-0.6-0.2-1.1-0.8-1.2c-0.1,0-0.3,0-0.4,0H53v-3.7h2.6
	c0.6,0.1,1.2-0.3,1.3-0.8c0-0.1,0-0.2,0-0.3c0-0.7-0.4-1-1.3-1h-2.7c0.6-1.5,1-3,1.4-4.5c0.1-0.5-0.3-1-0.8-1c-0.1,0-0.2,0-0.3,0
	c-0.3,0-0.6,0.2-0.8,0.5c-0.3,0.6-0.5,1.2-0.7,1.8l-0.8,3.2h-3.4l0.8-1.8l0.9-2.6l0.1-0.4c0-0.5-0.4-0.9-0.9-0.9c-0.1,0-0.2,0-0.2,0
	c-0.6,0-1.1,0.5-1.3,1.5c-0.5,2.4-1.3,4.6-2.5,6.7c-0.2,0.4-0.4,0.8-0.4,1.2c-0.1,0.4,0.2,0.8,0.6,0.9c0.1,0,0.1,0,0.2,0
	c0.4,0,0.8-0.6,1.4-1.7h0.1V104c-0.2,1.8,0.7,2.6,2.5,2.4H56c0.9,0,1.3-0.3,1.3-1S56.8,104.4,56,104.4L56,104.4L56,104.4z
	 M43.8,85.2c0.5,0.1,1-0.2,1.1-0.7c0-0.1,0-0.2,0-0.3c0-0.5-0.4-0.9-0.9-0.9c-0.1,0-0.2,0-0.2,0h-4.9v-1.5c0-0.5-0.3-1-0.8-1
	c-0.1,0-0.2,0-0.3,0c-0.5-0.1-1,0.2-1.1,0.7c0,0.1,0,0.2,0,0.3v1.5h-5c-0.3-0.1-0.6,0-0.8,0.2c-0.2,0.2-0.3,0.4-0.3,0.7
	c-0.1,0.5,0.3,1,0.8,1c0.1,0,0.2,0,0.3,0L43.8,85.2L43.8,85.2z M34.1,90.7c-0.1,0.4,0.2,0.8,0.7,0.9c0.1,0,0.1,0,0.2,0
	c0.4,0,1.4-0.6,2.9-1.9H38c0.3,0.2,0.6,0.5,0.9,0.8l0.5,0.4c0.2,0.1,0.3,0.2,0.5,0.3c0.1,0.1,0.2,0.2,0.4,0.2
	c0.4,0.1,0.8-0.2,0.9-0.7c0-0.1,0-0.2,0-0.2c0-0.4-0.6-1-1.8-1.9v-0.1c0.7-0.5,1.3-1.2,1.7-1.9c0.1-0.4-0.2-0.8-0.6-0.8
	c-0.1,0-0.2,0-0.3,0c-0.4,0.1-0.7,0.3-1,0.6L38,87.5c-0.8-0.6-1.7-1.1-2.6-1.4c-0.6,0-0.9,0.2-0.9,0.7c0,0.1,0,0.3,0.1,0.4
	c0.1,0.2,0.3,0.3,0.5,0.4l1.4,1.1c-0.3,0.2-0.6,0.4-0.9,0.6c-0.3,0.2-0.6,0.3-0.7,0.4C34.5,89.9,34.2,90.2,34.1,90.7L34.1,90.7
	L34.1,90.7z M42.2,95.6h-4l0.2-1l0.1-0.5h3c1.1,0.1,2.1-0.6,2.2-1.7c0-0.2,0-0.3,0-0.5v-4.8c0.1-0.6-0.3-1.1-0.9-1.2
	c-0.6-0.1-1.1,0.3-1.2,0.9c0,0.1,0,0.2,0,0.3v4.5c0,0.2-0.1,0.5-0.4,0.5c-0.1,0-0.1,0-0.2,0h-6.8c-0.3,0-0.5-0.1-0.6-0.4v-0.1v-4.5
	c0.1-0.6-0.3-1.1-0.9-1.2c-0.6-0.1-1.1,0.3-1.2,0.9c0,0.1,0,0.2,0,0.3v4.8c-0.1,1.1,0.6,2.1,1.7,2.2c0.2,0,0.3,0,0.5,0h2.5l-0.1,0.7
	L36,95.3l-0.1,0.3h-2.7c-1.1-0.1-2.1,0.6-2.3,1.8c0,0.2,0,0.4,0,0.5v8c-0.1,0.5,0.3,1.1,0.8,1.2c0.1,0,0.2,0,0.3,0
	c0.3,0,0.6-0.1,0.8-0.3c0.2-0.2,0.3-0.6,0.3-0.9v-7.5c0-0.2,0.1-0.4,0.2-0.6c0.2-0.2,0.4-0.3,0.6-0.2h1.5l-0.5,3
	c-1.1,0.2-1.6,0.6-1.6,1.1c-0.1,0.5,0.3,1,0.8,1.1c0.1,0,0.2,0,0.2,0c0.2,0,0.9-0.2,2.1-0.4l2.4-0.5l0.9-0.2v0.2
	c0.1,0.5,0.5,1,1,1.1c0.4,0.1,0.8-0.2,0.9-0.7c0-0.1,0-0.2,0-0.2c-0.2-0.7-0.5-1.4-0.8-2.1c-0.5-1.2-1-1.8-1.4-1.8
	c-0.4-0.1-0.7,0.1-0.8,0.5c0,0.1,0,0.1,0,0.2l0.5,1.2l-2.4,0.3l0.7-2.8H41c0.2,0,0.5,0.1,0.7,0.2c0.2,0.2,0.2,0.4,0.2,0.6v5.5
	c0,0.5-0.3,0.9-0.7,0.9c-0.1,0-0.2,0-0.2,0h-1c-0.5-0.1-1,0.3-1.1,0.9c0,0.1,0,0.2,0,0.2c-0.1,0.5,0.2,1,0.8,1.1c0.1,0,0.2,0,0.3,0
	h1.3c0.8,0.2,1.6-0.1,2.1-0.6c0.5-0.6,0.8-1.4,0.7-2.2v-6.3c0.2-1.1-0.6-2.1-1.7-2.3C42.6,95.6,42.4,95.6,42.2,95.6L42.2,95.6
	L42.2,95.6z M48.6,88.5h2.5v3.7h-3V89C48.1,88.7,48.3,88.5,48.6,88.5L48.6,88.5L48.6,88.5z M48.1,97.9v-3.7h3v3.7H48.1z M48.1,103.4
	V100h3v4.4H49c-0.5,0.1-0.9-0.3-0.9-0.7C48,103.6,48,103.5,48.1,103.4L48.1,103.4L48.1,103.4z M68.2,92.3h2.6v5.4L69.1,98
	c-0.5,0.1-0.8,0.5-0.7,1l0,0c0,0.3,0.1,0.6,0.2,0.8c0.2,0.2,0.5,0.3,0.7,0.2l4.4-0.7c2.4-0.4,3.9-0.7,4.3-0.8
	c0.4-0.1,0.7-0.4,0.8-0.8c0-0.3-0.1-0.6-0.2-0.8c-0.2-0.2-0.4-0.2-0.7-0.2L73,97.4v-1.9h4.6c0.5,0.1,0.9-0.2,1-0.7
	c0-0.1,0-0.2,0-0.2c0-0.3-0.1-0.5-0.3-0.7c-0.2-0.2-0.5-0.3-0.8-0.2H73v-1.4h6.7v5.5c0,0.5,0.1,1,0.5,1.3c0.5,0.3,1,0.4,1.5,0.5
	c1,0.1,2.1,0.1,3.1,0.1c0.9,0,1.7,0,2.5-0.1c0.5,0,1-0.1,1.4-0.3c0.7-0.3,1.1-1.2,1.1-2.8c0.1-0.5-0.2-1-0.7-1.1c-0.1,0-0.1,0-0.2,0
	c-0.5-0.1-0.9,0.3-1,0.8c0,0.1,0,0.2,0,0.2c0,0.4-0.1,0.7-0.2,1c-0.2,0.3-0.5,0.4-0.8,0.4c-0.7,0.1-1.4,0.1-2.1,0.1
	c-0.6,0-1.3,0-1.9-0.1c-0.3,0-0.5-0.1-0.8-0.2c-0.1-0.2-0.2-0.4-0.2-0.6v-1c2-0.2,4-0.6,5.9-1.2c0.4-0.1,0.7-0.5,0.7-1
	c0-0.1,0-0.3-0.1-0.4c-0.1-0.4-0.5-0.6-0.8-0.6c-0.2,0-0.4,0.1-0.5,0.1c-1.7,0.6-3.5,1-5.2,1.4v-2h4.8c0.9,0.2,1.9-0.4,2.1-1.3
	c0-0.2,0.1-0.4,0-0.7v-1.6c0.1-0.6-0.1-1.1-0.5-1.5c-0.5-0.3-1-0.5-1.6-0.4h-4.9v-1.7h6.9c0.5,0.1,1-0.2,1.1-0.7c0-0.1,0-0.2,0-0.3
	c0-0.5-0.4-0.9-0.9-0.9c-0.1,0-0.2,0-0.2,0h-9.4V82c0.1-0.6-0.3-1.2-1-1.3c-0.1,0-0.2,0-0.4,0c-0.4,0-0.7,0.1-1,0.3
	c-0.2,0.3-0.3,0.6-0.3,1v1.2H68c-0.6-0.1-1.2,0.1-1.6,0.5c-0.4,0.5-0.6,1.1-0.6,1.7V92c0,2.3-0.1,4.7-0.4,7c-0.1,1-0.4,2.1-0.6,3.1
	c-0.3,1-0.7,2-1.2,2.9c-0.1,0.2-0.2,0.5-0.2,0.7c0,0.4,0.2,0.7,0.5,0.9c0.2,0.2,0.4,0.2,0.6,0.2c0.4,0,0.8-0.2,1-0.6
	c1-1.9,1.7-4,1.9-6.1c0.4-2.4,0.6-4.9,0.6-7.4L68.2,92.3L68.2,92.3z M69,85.1h4v1.7h-4.7v-1c-0.1-0.3,0.2-0.7,0.5-0.7
	C68.8,85.1,68.9,85.1,69,85.1L69,85.1z M75.1,86.8v-1.7h4.5v1.7H75.1z M68.2,88.5H73v2.1h-4.7v-2.1H68.2z M75.1,90.6v-2.1h4.5v2.1
	H75.1z M85.8,88.5c0.4,0,0.7,0.2,0.8,0.6c0,0.1,0,0.1,0,0.2v0.5c0,0.4-0.3,0.8-0.7,0.8h-0.1h-4v-2.1H85.8z M89,104.9h-9.6V103H87
	c0.5,0.1,1-0.3,1-0.8c0.1-0.5-0.3-1-0.8-1c-0.1,0-0.2,0-0.2,0h-7.7V100c0.1-0.5-0.3-1-0.8-1.1c-0.1,0-0.2,0-0.2,0
	c-0.5-0.1-1,0.3-1.1,0.9c0,0.1,0,0.2,0,0.2v1.2h-7.6c-0.5-0.1-1,0.3-1,0.8c-0.1,0.5,0.3,1,0.8,1c0.1,0,0.2,0,0.2,0h7.6v1.9h-9.6
	c-0.5-0.1-0.9,0.2-1,0.7c0,0.1,0,0.2,0,0.2c-0.1,0.5,0.3,0.9,0.8,1c0.1,0,0.2,0,0.3,0H89c0.5,0.1,1-0.2,1.1-0.7c0-0.1,0-0.2,0-0.3
	c0-0.5-0.4-0.9-0.9-0.9C89.1,104.9,89.1,104.9,89,104.9L89,104.9L89,104.9z M117.2,103.1c0.8,0,1.2-0.5,1.2-1.5v-10h3
	c1,0,1.5-0.4,1.5-1.2c0-0.7-0.5-1.1-1.5-1.1H109v-2.7c-0.1-0.5,0-0.9,0.3-1.3c0.5-0.3,1.1-0.5,1.7-0.5c0.5,0,1.1,0,1.6-0.1
	c0.9-0.1,2-0.2,3.2-0.4c2.4-0.3,3.9-0.6,4.6-0.7c0.6,0,1.1-0.5,1.1-1.1c0-0.4-0.1-0.9-0.3-1.2c-0.2-0.3-0.6-0.4-1-0.3l-0.8,0.1
	c-3.4,0.8-6.9,1.3-10.3,1.7c-1.3,0-2.4,1-2.5,2.3c0,0.2,0,0.3,0,0.5l0.1,3.7c0,5.1-0.6,8.5-1.7,10.2c-0.2,0.3-0.4,0.6-0.5,0.9
	c-0.1,0.1-0.2,0.3-0.2,0.5c-0.1,0.6,0.4,1.2,1,1.3c0.1,0,0.2,0,0.4,0c0.8,0,1.5-0.9,2.2-2.7c0.8-2.5,1.2-5,1.1-7.6v-0.3h7v10
	C116,102.6,116.4,103.1,117.2,103.1L117.2,103.1L117.2,103.1z M102.5,85.1c0.6,0.1,1.1-0.3,1.2-0.9c0-0.1,0-0.2,0-0.3
	c0-0.4-0.2-0.7-0.5-0.9c-0.4-0.4-0.9-0.7-1.4-0.9c-0.7-0.3-1.5-0.6-2.3-0.8c-0.5-0.1-1,0.3-1.1,0.9c0,0.1,0,0.2,0,0.2
	c0.1,0.6,0.5,1.1,1,1.3l1.9,0.9C101.7,84.8,102.1,85,102.5,85.1L102.5,85.1L102.5,85.1z M101.3,90.6c0.6,0.1,1.1-0.3,1.2-0.9
	c0-0.1,0-0.2,0-0.3c0-0.6-0.6-1.2-1.9-1.7c-0.8-0.4-1.6-0.7-2.4-0.8c-0.5-0.1-1.1,0.3-1.1,0.8c0,0.1,0,0.2,0,0.3
	c0,0.5,0.4,1,0.9,1.2l2.4,1C100.6,90.4,101,90.6,101.3,90.6L101.3,90.6L101.3,90.6z M112.5,106.6h9.1c1.2,0,1.8-0.4,1.8-1.2
	c0.1-0.6-0.3-1.1-0.9-1.2c-0.1,0-0.2,0-0.3,0l-10.4,0.2c-4.4,0-7.2-0.6-8.5-1.6l-0.8-0.7v-5.9c0.1-0.7-0.1-1.3-0.6-1.8
	c-0.5-0.4-1.2-0.7-1.9-0.6h-2.3c-0.6-0.1-1.1,0.3-1.2,0.9c0,0.1,0,0.2,0,0.3c0,0.3,0.1,0.6,0.3,0.8c0.2,0.2,0.6,0.3,0.9,0.3h1.6
	c0.2,0,0.4,0.1,0.6,0.2c0.2,0.2,0.2,0.4,0.2,0.7v5.3c-0.7,0.4-1.5,0.8-2.3,1.2c-0.7,0.2-1.2,0.8-1.3,1.5c0,1,0.4,1.4,1.2,1.4
	c0.6,0,1.8-0.8,3.8-2.4c1,1,2.2,1.6,3.6,2C107.5,106.5,110,106.7,112.5,106.6L112.5,106.6L112.5,106.6z M143.8,107.2
	c1-0.3,1.9-0.8,2.7-1.5c1.1-0.9,2.2-1.8,3.1-2.8c1.6,2.9,3,4.3,4.3,4.3c1.6,0,2.3-2,2.3-6.1c0.1-0.5-0.3-1.1-0.8-1.2
	c-0.1,0-0.2,0-0.3,0c-0.6,0-0.9,0.5-1,1.6c-0.1,1.8-0.3,2.7-0.7,2.7c-0.6,0-1.4-1.1-2.4-3.3c1.1-1.6,2-3.4,2.8-5.2
	c0.7-1.3,1.1-2.7,1.4-4.2c0-0.7-0.4-1-1.3-1c-0.5,0-0.9,0.4-0.9,0.9c-0.7,2.4-1.7,4.6-2.8,6.8c-0.6-3.4-1-6.8-0.9-10.3h5.4
	c1,0,1.5-0.4,1.5-1.2c0-0.8-0.5-1.2-1.5-1.2h-5.4c0-1.4,0-2.8-0.1-4.2c-0.2-0.4-0.6-0.7-1.1-0.6c-0.8,0-1.2,0.5-1.2,1.5l0.1,3.3
	h-5.9c-1.7,0-2.6,0.9-2.6,2.7v4.7c0,3.9-0.2,6.4-0.6,7.6c-0.5,1.3-1.2,2.4-2.2,3.3c-0.6,0.4-1,1-1.3,1.6c-0.1,0.6,0.3,1.2,0.9,1.3
	c0.1,0,0.2,0,0.3,0c0.6,0,1.4-0.6,2.4-1.7c1-1.2,1.8-2.7,2.1-4.2c0.5-2.3,0.7-4.6,0.6-6.9h2.2c0.5,0,0.9,0.3,0.9,0.8
	c0,0.1,0,0.1,0,0.2c-0.1,3.2-0.2,5.1-0.5,5.5s-0.8,0.6-1.3,0.6c-0.6-0.1-1.1,0.2-1.3,0.8c0,0.1,0,0.1,0,0.2
	c-0.1,0.6,0.3,1.2,0.9,1.3c0.1,0,0.2,0,0.3,0c1.6,0,2.7-0.5,3.3-1.4c0.5-0.9,0.8-3.6,0.8-7.9c0.2-1.1-0.5-2.1-1.6-2.3
	c-0.2,0-0.4,0-0.6,0h-3l-0.1-2.9c0-0.5,0.3-0.9,0.8-0.9c0.1,0,0.2,0,0.2,0h5.3c0,4.3,0.5,8.6,1.6,12.7c-1.3,1.6-2.9,2.9-4.7,3.9
	c-0.6,0.2-1.1,0.8-1.3,1.4c-0.1,0.6,0.3,1.2,0.8,1.3C143.5,107.2,143.6,107.2,143.8,107.2L143.8,107.2L143.8,107.2z M130.7,102.8
	h0.4l1.4-0.5c2.7-0.9,4.2-1.5,4.7-1.7c0.4-0.2,0.7-0.6,0.7-1.1c0.1-0.6-0.3-1.1-0.9-1.2c-0.1,0-0.2,0-0.3,0s-0.4,0.2-1.2,0.4v-8.8
	h1.2c1,0,1.4-0.4,1.4-1.1c0-0.6-0.5-1.2-1.1-1.2c-0.1,0-0.2,0-0.3,0h-1.2v-5.4c0.1-0.6-0.3-1.3-0.9-1.4c-0.6-0.1-1.3,0.3-1.4,0.9
	c0,0.1,0,0.3,0,0.4v5.4H131c-0.6-0.1-1.2,0.3-1.4,0.9c0,0.1,0,0.2,0,0.3c0,0.7,0.5,1.1,1.4,1.1h2.1v9.6l-2.2,0.6
	c-1,0.3-1.5,0.7-1.5,1.5c-0.1,0.6,0.3,1.1,0.9,1.2C130.5,102.8,130.6,102.8,130.7,102.8L130.7,102.8L130.7,102.8z M152.9,84.8
	c0.6,0.1,1.1-0.3,1.2-0.8c0-0.1,0-0.2,0-0.3c-0.5-1.1-1.4-2-2.5-2.5c-0.5-0.1-1,0.2-1.1,0.7c0,0.1,0,0.2,0,0.3
	c0,0.3,0.2,0.6,0.4,0.8l0.5,0.6C151.8,84.2,152.3,84.6,152.9,84.8L152.9,84.8L152.9,84.8z"/>
</svg>
