<svg id="introTitle2.svg" xmlns="http://www.w3.org/2000/svg" width="238.25" height="368.59" viewBox="0 0 238.25 368.59">
  <defs>
    <style>
      .cls-1 {
        fill: #9abc58;
      }

      .cls-2 {
        fill: #fff;
      }

      .cls-3 {
        fill-rule: evenodd;
      }
    </style>
  </defs>
  <rect id="矩形_1" data-name="矩形 1" class="cls-1" width="238.25" height="368.59"/>
  <rect id="矩形_1_拷貝" data-name="矩形 1 拷貝" class="cls-2" y="8.03" width="238.25" height="352.53"/>
  <path id="迎賓大廳_社區交誼_親子遊樂" data-name="迎賓大廳 社區交誼 親子遊樂" class="cls-3" d="M1532.98,3951.83c0.61,0,2.9-.82,6.89-2.46,1.97-.82,2.95-1.56,2.95-2.22a1.061,1.061,0,0,0-1.13-1.26,9.105,9.105,0,0,0-1.3.45l-0.98.39-2.36.91v-14.23a1.507,1.507,0,0,1,1.13-1.45,30.841,30.841,0,0,0,4.11-1.79,1.937,1.937,0,0,0,1.23-1.3,1.337,1.337,0,0,0-1.54-1.48,3.979,3.979,0,0,0-.71.25l-0.88.39-0.98.42c-1.08.44-1.86,0.77-2.36,0.98-0.72.33-1.29,0.61-1.7,0.85a2.321,2.321,0,0,0-.83.67,3.685,3.685,0,0,0-.49,2.07v15.61l-1.48.53a1.376,1.376,0,0,0,.43,2.67h0Zm-2.5-19.41a1.258,1.258,0,0,0,1.37-1.47,1.571,1.571,0,0,0-.56-1.11,5.874,5.874,0,0,0-1.65-1.04,12.327,12.327,0,0,0-2.78-1.02,1.2,1.2,0,0,0-1.34,1.37,1.811,1.811,0,0,0,1.23,1.48l2.32,1.19c0.07,0.05.29,0.16,0.65,0.34a2.346,2.346,0,0,0,.76.26h0Zm14.45,22.11c0.98,0,1.48-.59,1.48-1.79v-18.77a1.16,1.16,0,0,1,.28-0.83,1.09,1.09,0,0,1,.84-0.3h2.81a1.039,1.039,0,0,1,1.13,1.13v12.37a1.043,1.043,0,0,1-1.13,1.16h-1.26a1.427,1.427,0,1,0,0,2.85h1.9c2.39,0.12,3.49-1.01,3.3-3.37v-13.86a2.762,2.762,0,0,0-.61-2.25,3.272,3.272,0,0,0-2.31-.7h-4.95a2.811,2.811,0,0,0-2.25.65,3.2,3.2,0,0,0-.71,2.3v19.62c0,1.2.49,1.79,1.48,1.79h0Zm-15.86-15.57a1.24,1.24,0,0,0,1.37-1.44q0-1.05-2.28-2.04a11.5,11.5,0,0,0-2.92-.98,1.21,1.21,0,0,0-1.37,1.37,1.528,1.528,0,0,0,1.09,1.37l2.92,1.26a2.576,2.576,0,0,0,1.19.46h0Zm13.36,19.16,10.87,0.04c1.38,0,2.07-.5,2.07-1.48a1.2,1.2,0,0,0-1.37-1.34l-12.48.18q-7.845,0-10.23-1.86l-0.88-.92v-7.1a2.665,2.665,0,0,0-.65-2.07,3.1,3.1,0,0,0-2.23-.67h-2.75a1.648,1.648,0,0,0-1.12.31,1.354,1.354,0,0,0-.35,1.02,1.459,1.459,0,0,0,.35,1.08,1.6,1.6,0,0,0,1.12.33h1.76a1.051,1.051,0,0,1,.78.28,1.093,1.093,0,0,1,.28.78v6.36c-1.01.58-1.91,1.07-2.71,1.44a2.078,2.078,0,0,0-1.58,1.79,1.89,1.89,0,0,0,.35,1.27,1.344,1.344,0,0,0,1.05.39q1.1,0,4.47-2.96h0.07a9.518,9.518,0,0,0,4.25,2.43,37.724,37.724,0,0,0,8.93.7h0Zm-17.08,18.05a1.443,1.443,0,0,0,1.03-.32,1.322,1.322,0,0,0,.34-1.02v-2.21a1,1,0,0,1,1.09-1.09h22.99a1,1,0,0,1,1.09,1.09v2.21a1.154,1.154,0,0,0,1.34,1.34,1.448,1.448,0,0,0,1.05-.32,1.4,1.4,0,0,0,.32-1.02v-2.56c0.16-1.99-.89-2.99-3.17-2.99h-10.75v-1.2a1.579,1.579,0,0,0-3.13,0v1.2h-10.41c-2.27,0-3.33,1-3.16,2.99v2.56a1.359,1.359,0,0,0,.33,1.02,1.471,1.471,0,0,0,1.04.32h0Zm5.06,18.39h18.32a2.716,2.716,0,0,0,2.12-.6,2.975,2.975,0,0,0,.65-2.15v-7.13a2.491,2.491,0,0,0-.58-2.09,3.068,3.068,0,0,0-2.19-.65h-12.66q2.46-.39,7.49-1.76a44.341,44.341,0,0,0,6.01-1.9,11.891,11.891,0,0,0,1.42-.81,0.705,0.705,0,0,0,.34-0.6,1.008,1.008,0,0,0-1.16-1.12,4.058,4.058,0,0,0-1.23.35,29.023,29.023,0,0,1-3.4,1.23q-1.77.525-5.18,1.34v-3.41h9.17a1.054,1.054,0,0,0,1.24-1.13,1.036,1.036,0,0,0-1.24-1.09h-20.49a1.029,1.029,0,0,0-1.23,1.09,1.047,1.047,0,0,0,1.23,1.13h8.68v4.21a63.848,63.848,0,0,1-12.41,2.15c-1.36.09-2.04,0.52-2.04,1.26a1.417,1.417,0,0,0,.28.95,0.89,0.89,0,0,0,.85.25l3.48-.49a5.331,5.331,0,0,0-.18,1.51v6.71a2.731,2.731,0,0,0,.58,2.1,2.966,2.966,0,0,0,2.13.65h0Zm-3.83-14.35a20.806,20.806,0,0,0,5.06-1.26c2.02-.66,3.02-1.28,3.02-1.87a1.169,1.169,0,0,0-.3-0.86,0.841,0.841,0,0,0-.82-0.19l-0.39.07-2.07.81a31.884,31.884,0,0,1-4.29,1.02c-0.92.14-1.37,0.51-1.37,1.12a1.02,1.02,0,0,0,1.16,1.16h0Zm22.18,5.35h-18.35v-0.95a0.655,0.655,0,0,1,.7-0.78h16.63a0.943,0.943,0,0,1,1.02,1.06v0.67Zm-18.35,3.48v-1.66h18.35v1.66h-18.35Zm17.33,3.62h-16.31a0.961,0.961,0,0,1-1.02-1.06v-0.73h18.35v0.73a0.918,0.918,0,0,1-1.02,1.06h0Zm5.91,6.08a1.3,1.3,0,0,0,1.58-1.34c0-.77-0.5-1.16-1.51-1.16a35.385,35.385,0,0,1-8.83-1.23l-0.84-.14a1.163,1.163,0,0,0-1.41,1.2,1.029,1.029,0,0,0,.74.95c0.33,0.14,1.98.48,4.96,1.02a34.689,34.689,0,0,0,5.31.7h0Zm-28.87.04a39.126,39.126,0,0,0,6.79-.85,18.213,18.213,0,0,0,3.3-.88,1.46,1.46,0,0,0,1.13-.91,1.173,1.173,0,0,0-1.41-1.23l-0.95.17a51.126,51.126,0,0,1-7.24,1.16l-2.18.22a0.9,0.9,0,0,0-.81,1.01,1.188,1.188,0,0,0,1.37,1.31h0Zm0.18,39.17a9.052,9.052,0,0,0,3.83-1.65,23.193,23.193,0,0,0,10.55-14.27,26.291,26.291,0,0,0,9.81,13.18c1.36,0.94,2.38,1.61,3.07,2.01a3.881,3.881,0,0,0,1.43.59,1.462,1.462,0,0,0,1.58-1.72,2.017,2.017,0,0,0-1.3-1.72,27.1,27.1,0,0,1-8.54-7,23.907,23.907,0,0,1-4.68-9.35h12.38c1.19,0,1.79-.48,1.79-1.44,0-.94-0.6-1.41-1.79-1.41h-12.77q0.18-4.845.18-6.96a2.034,2.034,0,0,0-.39-1.3,1.375,1.375,0,0,0-1.16-.49c-0.96,0-1.44.6-1.44,1.79q0,5.385-.17,6.96h-11.78a2.216,2.216,0,0,0-1.36.34,1.259,1.259,0,0,0-.43,1.07,1.326,1.326,0,0,0,.43,1.09,2.212,2.212,0,0,0,1.36.35h11.46q-1.26,11.49-11.78,16.59a5.713,5.713,0,0,0-1.35.88,1.207,1.207,0,0,0-.44.88,1.363,1.363,0,0,0,1.51,1.58h0Zm14.87,16.75a1.043,1.043,0,0,0,.34.83,1.381,1.381,0,0,0,.96.3h4.43v1.4h-3.72a2.085,2.085,0,0,0-2.36,2.36v2.78a2.082,2.082,0,0,0,2.32,2.39h10.09a2.1,2.1,0,0,0,2.36-2.39v-2.78a2.089,2.089,0,0,0-2.36-2.36h-3.9v-1.4H1554a1.426,1.426,0,0,0,.97-0.3,1.108,1.108,0,0,0,.33-0.86,1.08,1.08,0,0,0-1.3-1.13h-6.01v-0.98a1.032,1.032,0,0,0-1.2-1.13,1.047,1.047,0,0,0-1.23,1.13v0.98h-4.43a1.4,1.4,0,0,0-.6.11v-0.07a1.038,1.038,0,0,0-1.26-1.13H1529a1.542,1.542,0,0,1,1.66-1.37h22.92a1.141,1.141,0,0,0,1.37-1.19,1.126,1.126,0,0,0-1.37-1.16h-11.74v-1.55a1.213,1.213,0,0,0-1.48-1.23c-1.01,0-1.51.41-1.51,1.23v1.55h-9.64q-3.045,0-3.05,3.48v5.9a70.126,70.126,0,0,1-.57,9.78,20.621,20.621,0,0,1-1.75,6.29,3.432,3.432,0,0,0-.46,1.33,1.793,1.793,0,0,0,.31,1.18,1.287,1.287,0,0,0,1.02.37q1.695,0,2.92-5.2a62.966,62.966,0,0,0,1.27-14.2v-2.92h1.37v9.31l-0.28.04a1.029,1.029,0,0,0-1.23,1.09,1.264,1.264,0,0,0,.3.91,0.89,0.89,0,0,0,.82.25l6.22-.95v11.53a1.015,1.015,0,0,0,1.13,1.16,1.064,1.064,0,0,0,.81-0.3,1.189,1.189,0,0,0,.28-0.86v-22.18a14.419,14.419,0,0,0,1.51-.07v0.03Zm-7.38,1.69v-1.65h3.65v1.65h-3.65Zm0,3.55v-1.58h3.65v1.58h-3.65Zm11.25,2.64h-1.3a0.76,0.76,0,0,1-.81-0.81v-1.55a0.76,0.76,0,0,1,.81-0.81h1.3v3.17Zm4.08-3.17v3.17h-2.11v-3.17h2.11Zm1.97,0h1.47a0.76,0.76,0,0,1,.81.81v1.55a0.76,0.76,0,0,1-.81.81h-1.47v-3.17Zm-17.3,4.43v-1.97h3.65v1.48Zm22.22,3.41a1.033,1.033,0,0,0-1.23-1.09h-13.05a1.1,1.1,0,1,0,0,2.18h13.05a1.029,1.029,0,0,0,1.23-1.09h0Zm-19.76,6.51-1.48.17v-1.54h1.16a0.988,0.988,0,0,0,.71-0.25,0.868,0.868,0,0,0,.24-0.63,0.825,0.825,0,0,0-.95-0.92h-1.16v-1.54h1.41a0.963,0.963,0,0,0,.7-0.25,0.92,0.92,0,0,0-.7-1.55h-4.99a0.825,0.825,0,0,0-.95.92,0.852,0.852,0,0,0,.24.63,0.988,0.988,0,0,0,.71.25h1.58v1.54h-1.58a0.825,0.825,0,0,0-.95.92,0.868,0.868,0,0,0,.24.63,0.988,0.988,0,0,0,.71.25h1.58v1.75l-2.71.32a1.043,1.043,0,0,0-.88,1.05,1.385,1.385,0,0,0,.28.92,0.8,0.8,0,0,0,.81.21l6.01-1.06a1.494,1.494,0,0,0,.69-0.29,0.8,0.8,0,0,0,.19-0.58,1.052,1.052,0,0,0-.24-0.71,0.762,0.762,0,0,0-.67-0.24h0Zm13.15-4.85a1.223,1.223,0,0,0-.81.24,0.807,0.807,0,0,0-.28.63,3.975,3.975,0,0,0,.56,1.23c0.52,0.9.99,1.34,1.41,1.34a0.933,0.933,0,0,0,1.12-.98,3.976,3.976,0,0,0-.63-1.48,1.6,1.6,0,0,0-1.37-.98h0Zm2.25,3.65a1.206,1.206,0,0,0-.92.37,1.578,1.578,0,0,0-.38,1.04,1.071,1.071,0,0,1-.46.95,4.108,4.108,0,0,1-1.34.17c-0.96,0-1.44-.3-1.44-0.91v-3.73a1.164,1.164,0,1,0-2.32,0v4.33a2.245,2.245,0,0,0,1.2,2.35,6.847,6.847,0,0,0,2.39.28c2.01,0,3.28-.27,3.8-0.81a3.854,3.854,0,0,0,.77-2.7,1.171,1.171,0,0,0-1.3-1.34h0Zm4.04-.67c-0.8-1.47-1.48-2.21-2.04-2.21a0.922,0.922,0,0,0-1.12.95,3.76,3.76,0,0,0,.35.91,3.539,3.539,0,0,0,.16.34,1.423,1.423,0,0,1,.15.37c0.1,0.21.19,0.39,0.27,0.56s0.14,0.3.19,0.42a12.712,12.712,0,0,1,.63,1.44,1.5,1.5,0,0,0,1.34,1.2,1.032,1.032,0,0,0,1.2-1.13,3.735,3.735,0,0,0-.29-1.11,11.187,11.187,0,0,0-.84-1.74h0Zm-13.36-1.86c-0.68,0-1.05.52-1.12,1.55a12.834,12.834,0,0,1-.57,2.81,3.7,3.7,0,0,0-.24,1.12,1.01,1.01,0,0,0,1.19,1.09q1.1,0,1.44-1.86a19.694,19.694,0,0,0,.53-3.66,1.015,1.015,0,0,0-1.23-1.05h0Zm-30.61-115.42h-6.72v-14.52h5.7c1.19,0,1.79-.51,1.79-1.52,0-.98-0.6-1.47-1.79-1.47h-5.7v-8.19c0-1.18-.5-1.76-1.51-1.76s-1.51.58-1.51,1.76v8.19h-5.91c-1.19,0-1.79.49-1.79,1.47,0,1.01.6,1.52,1.79,1.52h5.91v14.52h-7.91c-1.24,0-1.86.5-1.86,1.51s0.62,1.51,1.86,1.51h17.65c1.22,0,1.83-.51,1.83-1.51s-0.61-1.51-1.83-1.51h0Zm-27.28-23.35h7.84a1.395,1.395,0,1,0,0-2.78h-7.84a1.4,1.4,0,1,0,0,2.78h0Zm8.82,6.36c1.06,0,1.58-.44,1.58-1.33,0-.87-0.52-1.3-1.58-1.3h-9.95c-1.12,0-1.69.43-1.69,1.3,0,0.89.57,1.33,1.69,1.33h3.55v20.18a1.27,1.27,0,1,0,2.53,0v-20.18h3.87Zm-9.63,2.47c-0.78,0-1.16.52-1.16,1.58v1.65q0.03,7.98-.81,10.13a3.58,3.58,0,0,0-.35,1.33,1.266,1.266,0,0,0,.31.92,1.25,1.25,0,0,0,.92.31c0.75,0,1.32-.82,1.72-2.46a33.392,33.392,0,0,0,.6-7.35v-3.97c0-1.43-.41-2.14-1.23-2.14h0Zm10.09,12.41v-11.04a1.224,1.224,0,1,0-2.43,0v11.04a1.12,1.12,0,0,0,1.2,1.33,1.132,1.132,0,0,0,1.23-1.33h0Zm-7.17,44.92h25.34c1.1,0,1.66-.44,1.66-1.3,0-.9-0.56-1.34-1.66-1.34h-24.36a1.239,1.239,0,0,1-1.34-1.37V3972.1a1.243,1.243,0,0,1,1.34-1.37h23.7c1.07,0,1.61-.43,1.61-1.3,0-.89-0.54-1.33-1.61-1.33h-24.68a3.185,3.185,0,0,0-2.57.72,3.622,3.622,0,0,0-.81,2.62v22.6a3.2,3.2,0,0,0,.72,2.57,3.7,3.7,0,0,0,2.66.81h0Zm6.75-15.79h12.51a2.655,2.655,0,0,0,2.11-.6,2.964,2.964,0,0,0,.67-2.18v-3.27a2.7,2.7,0,0,0-.6-2.14,2.964,2.964,0,0,0-2.18-.67h-12.51a2.618,2.618,0,0,0-2.1.6,3.054,3.054,0,0,0-.65,2.18v3.34a2.668,2.668,0,0,0,.6,2.09,3.021,3.021,0,0,0,2.15.65h0Zm11.46-2.39H1492.9a0.937,0.937,0,0,1-1.01-1.02v-2.04a0.933,0.933,0,0,1,1.01-1.02h10.52a0.974,0.974,0,0,1,1.05,1.06v1.97a0.971,0.971,0,0,1-1.05,1.05h0Zm-14.07,13.64h5.49a2.36,2.36,0,0,0,2.67-2.67v-4.04a2.367,2.367,0,0,0-2.67-2.68h-5.49a2.38,2.38,0,0,0-2.7,2.68v4.04a2.373,2.373,0,0,0,2.7,2.67h0Zm12.41,0h5.84c1.76,0,2.64-.9,2.64-2.71v-3.97c0-1.8-.88-2.71-2.64-2.71h-5.84a2.367,2.367,0,0,0-2.67,2.68v4.04a2.36,2.36,0,0,0,2.67,2.67h0Zm-7.73-2.35h-3.87a0.911,0.911,0,0,1-.98-1.02v-2.64a0.889,0.889,0,0,1,.98-0.99h3.87a0.911,0.911,0,0,1,.98.99v2.64a0.92,0.92,0,0,1-.98,1.02h0Zm12.66,0h-4.08a0.932,0.932,0,0,1-.99-1.02v-2.64a0.875,0.875,0,0,1,.99-0.99h4.08a1.221,1.221,0,0,1,.73.27,0.913,0.913,0,0,1,.25.72v2.64a0.886,0.886,0,0,1-.98,1.02h0Zm-24.47,22.88h27.81c1.14,0,1.72-.44,1.72-1.33s-0.58-1.34-1.72-1.34h-12.52v-2.39c0-1.33-.53-2-1.58-2s-1.58.67-1.58,2v2.39h-12.13c-1.13,0-1.69.45-1.69,1.34s0.56,1.33,1.69,1.33h0Zm26.96,9.04a1.34,1.34,0,0,0,1.55-1.48,2.129,2.129,0,0,0-.77-1.26,32.536,32.536,0,0,0-4.54-2.85q-3.69-2.07-4.53-2.07a1.244,1.244,0,0,0-1.48,1.33c0,0.42.6,0.96,1.79,1.62a51.71,51.71,0,0,1,6.33,3.9,3.5,3.5,0,0,0,1.65.81h0Zm-26.22.63q1.47,0,5.48-2.95,4.08-3.03,4.08-3.9a1.246,1.246,0,0,0-1.41-1.41,3.374,3.374,0,0,0-1.72.99,29.566,29.566,0,0,1-5.84,3.93c-1.33.68-2,1.28-2,1.8a1.306,1.306,0,0,0,1.41,1.54h0Zm-1.06,14.87a27.612,27.612,0,0,0,6.05-1.37,25.452,25.452,0,0,0,8.15-3.93,30.237,30.237,0,0,0,7.25,3.72,20.377,20.377,0,0,0,7.03,1.48,1.5,1.5,0,0,0,1.72-1.69,1.59,1.59,0,0,0-.63-1.26,1.657,1.657,0,0,0-.72-0.23c-0.37-.06-0.78-0.11-1.25-0.16l-1.09-.11a21.755,21.755,0,0,1-10.06-3.58,24.162,24.162,0,0,0,3.55-4.54c1.18-1.92,1.76-3.14,1.76-3.65a1.147,1.147,0,0,0-.42-0.94,1.96,1.96,0,0,0-1.23-.33,1.15,1.15,0,0,0-.72.32,2.688,2.688,0,0,0-.65.88,27.222,27.222,0,0,1-4.54,6.46,20.677,20.677,0,0,1-3.97-5.27c-0.73-1.27-1.36-1.9-1.9-1.9a1.146,1.146,0,0,0-1.4,1.16,9.426,9.426,0,0,0,1.47,3.34,22.611,22.611,0,0,0,3.55,4.47,21.8,21.8,0,0,1-8.89,3.44l-3.27.53a1.565,1.565,0,0,0-1.51,1.55,1.474,1.474,0,0,0,1.72,1.61h0Zm11.25,20.06a1.245,1.245,0,0,0,1.27-1.51v-2.99a1.22,1.22,0,0,1,1.4-1.41h11.53a1.231,1.231,0,0,1,1.41,1.41v2.99a1.241,1.241,0,0,0,1.27,1.51,1.263,1.263,0,0,0,1.33-1.51v-3.66a2.623,2.623,0,0,0-3.23-3.24h-5.28v-2.28a1.512,1.512,0,0,0-3.02,0v2.28h-4.68a3.039,3.039,0,0,0-2.49.65,3.6,3.6,0,0,0-.77,2.59v3.66a1.239,1.239,0,0,0,1.26,1.51h0Zm-10.51-8.09h6.82c1.01,0,1.51-.42,1.51-1.26s-0.5-1.27-1.51-1.27h-6.82a1.281,1.281,0,1,0,0,2.53h0Zm7.03,2.22h-8.12a1.281,1.281,0,1,0,0,2.53h8.12c1.03,0,1.55-.42,1.55-1.27s-0.52-1.26-1.55-1.26h0Zm21.02,21.58h-2.56v-15.75a2.333,2.333,0,0,0-2.64-2.64h-7.8a2.333,2.333,0,0,0-2.64,2.64v15.75h-2.25a1.187,1.187,0,0,0-1.41,1.27,1.2,1.2,0,0,0,1.44,1.26h17.86a1.281,1.281,0,1,0,0-2.53h0Zm-21.23-16.91h-6.72a1.245,1.245,0,1,0,0,2.46h6.72a1.251,1.251,0,1,0,0-2.46h0Zm8.09,1.97a0.861,0.861,0,0,1,.98-0.98h6.05a0.852,0.852,0,0,1,.95.98v2.64h-7.98v-2.64Zm-8.09,2.67h-6.72a1.245,1.245,0,1,0,0,2.46h6.72a1.251,1.251,0,1,0,0-2.46h0Zm16.07,2.36v3.55h-7.98v-3.55h7.98Zm-17.44,2.21h-3.8c-1.9,0-2.85.94-2.85,2.81v4.96a2.78,2.78,0,0,0,.72,2.08,2.969,2.969,0,0,0,2.13.7h3.8a2.519,2.519,0,0,0,2.85-2.85v-4.89c0-1.87-.95-2.81-2.85-2.81h0Zm0.31,7.28a0.8,0.8,0,0,1-.87.91h-2.68a0.8,0.8,0,0,1-.91-0.91v-4.04a0.83,0.83,0,0,1,.91-0.92h2.68a0.832,0.832,0,0,1,.87.92v4.04Zm17.13-3.55v3.97h-7.98v-3.97h7.98Zm-53.5-117.61c0-.53-0.68-1.3-2.04-2.28a7.22,7.22,0,0,0-2.68-1.51,0.772,0.772,0,0,0-.45.12,2.164,2.164,0,0,0-.39.37v-2.14h4.22a1.876,1.876,0,0,0,1.18-.3,1.207,1.207,0,0,0,.37-0.97c0-.84-0.52-1.27-1.55-1.27h-4.22v-3.41h4.57c1.03,0,1.55-.42,1.55-1.26,0-.87-0.52-1.3-1.55-1.3h-1.86l0.98-4.82h0.95a1.13,1.13,0,0,0,1.3-1.26,1.153,1.153,0,0,0-1.3-1.31h-4.6v-2.07c0-1.12-.46-1.69-1.38-1.69s-1.37.57-1.37,1.69v2.07h-5.09a1.17,1.17,0,0,0-1.34,1.31,1.148,1.148,0,0,0,1.34,1.26h1.16a41.856,41.856,0,0,1,.84,4.82h-2.21a1.857,1.857,0,0,0-1.18.3,1.155,1.155,0,0,0-.37.96c0,0.87.51,1.3,1.55,1.3h5.27v3.41h-4.89c-1.08,0-1.62.43-1.62,1.27s0.54,1.27,1.62,1.27h4.47a16.745,16.745,0,0,1-4.93,5.83c-1,.77-1.51,1.44-1.51,2a1.124,1.124,0,0,0,1.2,1.34c0.47,0,1.31-.66,2.53-1.97a24.9,24.9,0,0,0,3.13-4.22v7.77c0,1.15.46,1.73,1.37,1.73s1.37-.58,1.37-1.73v-7.52l0.49,0.53a14.634,14.634,0,0,1,2.04,1.72,3.055,3.055,0,0,0,1.79,1.23,1.278,1.278,0,0,0,.94-0.3,1.326,1.326,0,0,0,.3-0.97h0Zm15.68-.45a1.2,1.2,0,0,0-1.27,1.4,5.16,5.16,0,0,1-.32,1.97,1.65,1.65,0,0,1-1.58.53c-0.91,0-1.37-.27-1.37-0.81v-6.75h0.91a2.9,2.9,0,0,0,2.29-.65,3.2,3.2,0,0,0,.7-2.3v-13.5a2.822,2.822,0,0,0-.61-2.29,3.319,3.319,0,0,0-2.38-.7h-7.87c-1.95,0-2.92.98-2.92,2.95v13.57c0,2,.92,2.97,2.74,2.92a12.485,12.485,0,0,1-.88,4.22,8.186,8.186,0,0,1-4.81,3.9,1.381,1.381,0,0,0-1.06,1.34,1.173,1.173,0,0,0,1.27,1.37,7.622,7.622,0,0,0,3.58-1.55,8.972,8.972,0,0,0,3.27-3.72,14.585,14.585,0,0,0,1.16-5.56h2.04v7.88a2.263,2.263,0,0,0,.71,1.82,6.365,6.365,0,0,0,3.16.5,4.99,4.99,0,0,0,3.48-.99c0.7-.65,1.06-2.05,1.06-4.18a1.181,1.181,0,0,0-1.3-1.37h0Zm-11.68-19.41a0.991,0.991,0,0,1,1.06-1.09h6.19a1.008,1.008,0,0,1,1.09,1.09v1.9h-8.34v-1.9Zm-13.74,1.09h5.38l-0.88,4.82h-3.66c-0.3-2.09-.59-3.69-0.84-4.82h0Zm22.08,3.34v3.06h-8.34v-3.06h8.34Zm-7.28,8.72a0.977,0.977,0,0,1-1.06-1.06v-2.1h8.34v2.07a0.986,0.986,0,0,1-1.09,1.09h-6.19Zm-9.21,52.92h2.63a4.042,4.042,0,0,0,2.99-1.02,4.359,4.359,0,0,0,1.02-3.2v-9.84h12.52c1.19,0,1.79-.48,1.79-1.44,0-.91-0.6-1.37-1.79-1.37h-12.52v-2.08a2.915,2.915,0,0,1,.39-1.65,13.93,13.93,0,0,1,2.71-1.69l1.47-.84a40.226,40.226,0,0,0,4.91-3.16q1.74-1.38,1.74-2.04a1.628,1.628,0,0,0-.58-1.36,3.032,3.032,0,0,0-1.81-.44h-21.38a2,2,0,0,0-1.28.34,1.511,1.511,0,0,0,0,2.07,1.941,1.941,0,0,0,1.28.34h17.93a0.528,0.528,0,0,1,.32.1,0.325,0.325,0,0,1,.14.25,1.631,1.631,0,0,1-.79.77c-0.53.35-1.55,0.92-3.04,1.69a19.943,19.943,0,0,0-4.19,2.53,4.545,4.545,0,0,0-.7,2.74v2.43h-12.83a2.181,2.181,0,0,0-1.34.33,1.259,1.259,0,0,0-.42,1.04c0,0.96.58,1.44,1.76,1.44h12.83v9.28a1.46,1.46,0,0,1-1.69,1.65h-2.07c-1.2,0-1.8.52-1.8,1.55a1.53,1.53,0,0,0,.43,1.2,2.021,2.021,0,0,0,1.37.38h0Zm2.53,34.89c1.83,0,3.11-.48,3.87-1.44a6.581,6.581,0,0,0,.8-2.93c0.19-1.52.36-3.72,0.5-6.63l0.1-2.32c0-1.34-.8-2.01-2.39-2.01h-3.09l0.1-2.91-0.03-.95h4.11a1.293,1.293,0,1,0,0-2.57h-2.28v-3.76a1.36,1.36,0,1,0-2.71,0v3.76h-3.27a1.291,1.291,0,1,0,0,2.57h1.76v2.04q-0.105,9.45-2.96,13.46a2.165,2.165,0,0,0-.45,1.02,1.118,1.118,0,0,0,1.23,1.3c0.68,0,1.38-.69,2.11-2.07a15.338,15.338,0,0,0,1.58-4.22,36.346,36.346,0,0,0,.63-5.24h2.18a0.814,0.814,0,0,1,.92.95l-0.18,4.25a16.638,16.638,0,0,1-.63,4.54,1.032,1.032,0,0,1-1.06.53l-1.05-.04c-1.01,0-1.51.41-1.51,1.23,0,0.96.57,1.44,1.72,1.44h0Zm5.27-15.43q1.2,0,3.34-4.68h8.54a1.2,1.2,0,0,0,1.45-1.26,1.217,1.217,0,0,0-1.45-1.3h-7.38a10.734,10.734,0,0,0,1.02-3.06,1.118,1.118,0,0,0-1.3-1.23,1.505,1.505,0,0,0-1.41,1.23,33.823,33.823,0,0,1-3.72,8.22,1.9,1.9,0,0,0-.32.81,1.1,1.1,0,0,0,1.23,1.27h0Zm-11.6-6.19a1.258,1.258,0,0,0,1.37-1.47,1.571,1.571,0,0,0-.56-1.11,5.874,5.874,0,0,0-1.65-1.04,12.327,12.327,0,0,0-2.78-1.02,1.2,1.2,0,0,0-1.34,1.37,1.811,1.811,0,0,0,1.23,1.48l2.32,1.19c0.07,0.05.29,0.16,0.65,0.34a2.346,2.346,0,0,0,.76.26h0Zm-1.41,6.89a1.24,1.24,0,0,0,1.37-1.44q0-1.095-2.28-2.04c-0.7-.28-1.31-0.51-1.83-0.7a3.687,3.687,0,0,0-1.09-.28,1.194,1.194,0,0,0-1.37,1.33,1.249,1.249,0,0,0,.26.81,2.269,2.269,0,0,0,.83.56l2.92,1.31a2.651,2.651,0,0,0,1.19.45h0Zm16.32,15.12h1.58a2.961,2.961,0,0,0,2.49-.67,3.581,3.581,0,0,0,.78-2.56v-4.36h3.76a1.246,1.246,0,1,0,0-2.47h-3.76v-1.3a1.882,1.882,0,0,1,.84-1.44l2.78-2.18a2.132,2.132,0,0,0,1.05-1.4c0-.92-0.76-1.37-2.28-1.37h-7.74a1.16,1.16,0,0,0,0,2.32H1465l-2.29,1.54a2.846,2.846,0,0,0-1.4,2.5v1.33h-3.55a1.243,1.243,0,1,0,0,2.47h3.55v3.83a1.049,1.049,0,0,1-1.16,1.16h-1.2a1.306,1.306,0,1,0,.04,2.6h0Zm-2.96,3.66,10.87,0.03q2.04,0,2.04-1.44a1.167,1.167,0,0,0-1.34-1.3l-12.48.14q-7.95,0-10.23-1.83l-0.99-.91v-7.14a2.5,2.5,0,0,0-.63-2.06,3.206,3.206,0,0,0-2.21-.65h-2.75a1.508,1.508,0,0,0-1.03.3,1.217,1.217,0,0,0-.34.97,1.269,1.269,0,0,0,.34.98,1.46,1.46,0,0,0,1.03.32h1.9a0.961,0.961,0,0,1,1.09,1.09v6.5a21.783,21.783,0,0,1-2.77,1.44c-1.06.43-1.59,1.01-1.59,1.76,0,1.08.46,1.62,1.37,1.62q1.065,0,4.47-2.95l0.07,0.03a9.62,9.62,0,0,0,4.29,2.39,38.4,38.4,0,0,0,8.89.71h0Zm10.76,36.08q-7.455-1.83-11.42-5.52h11.42c1.06,0,1.58-.43,1.58-1.3s-0.52-1.3-1.58-1.3h-12.58v-1.97h1.44a2.036,2.036,0,0,0,1.65-.67,2.941,2.941,0,0,0,.56-1.93v-6.89a1.7,1.7,0,0,0,.46.42,9.618,9.618,0,0,0,1.05.74c0.26,0.21.66,0.51,1.22,0.91a15.8,15.8,0,0,1,1.28,1.02l-2.46,3.76a2.34,2.34,0,0,0-1.21.41,1.042,1.042,0,0,0-.44.89,1.434,1.434,0,0,0,.31.99,1.191,1.191,0,0,0,.92.35,59.826,59.826,0,0,0,7.34-1.37,1.436,1.436,0,0,0,1.27,1.3,1.037,1.037,0,0,0,1.19-1.16,13.13,13.13,0,0,0-1.16-3.34c-0.42-1.03-.89-1.55-1.4-1.55a0.932,0.932,0,0,0-1.09,1.02l0.14,0.57,0.42,1.23c-0.44.07-1.11,0.15-2,.24-0.75.1-1.33,0.18-1.73,0.25,0.66-.85,1.21-1.58,1.64-2.22s1.11-1.68,2.02-3.16a14.953,14.953,0,0,0,1.97-3.66,1.13,1.13,0,0,0-1.3-1.26,1.143,1.143,0,0,0-.84.49,8.68,8.68,0,0,0-1.02,1.58l-1.23,2.36-1.83-1.52c1.8-2.99,2.7-4.81,2.7-5.44a1.156,1.156,0,0,0-.35-0.92,1.36,1.36,0,0,0-.95-0.31,1.306,1.306,0,0,0-.84.31,2,2,0,0,0-.6.92c-0.54,1.45-1.12,2.86-1.76,4.21a1.278,1.278,0,0,0-.73-0.21,1.092,1.092,0,0,0-.99.5v-0.81a2.971,2.971,0,0,0-.56-1.94,2.061,2.061,0,0,0-1.65-.66h-2.22a8.282,8.282,0,0,0,.42-1.8,1.157,1.157,0,0,0-1.4-1.19,1.21,1.21,0,0,0-1.04.51,3.569,3.569,0,0,0-.54,1.53l-0.15.95h-0.77c-1.45.07-2.18,0.91-2.18,2.53v9.42a7.21,7.21,0,0,0-.42-1.06l-0.39-.91c-0.42-1.01-.89-1.51-1.4-1.51a0.9,0.9,0,0,0-1.09.95,2.122,2.122,0,0,0,.14.6l0.45,1.26-1.51.21-1.61.18q1.335-1.83,3.76-5.77c0.07-.12.15-0.24,0.24-0.38s0.2-.31.32-0.5a6.289,6.289,0,0,0,1.12-2.28,1.133,1.133,0,0,0-1.3-1.27,1.161,1.161,0,0,0-.84.46,6.909,6.909,0,0,0-.95,1.48l-1.26,2.42-1.59-1.3q2.82-4.71,2.82-5.62a1.162,1.162,0,0,0-.36-0.92,1.406,1.406,0,0,0-.98-0.31,1.544,1.544,0,0,0-1.44,1.23,47.488,47.488,0,0,1-1.83,4.39,2.118,2.118,0,0,0-.98-0.39,1.137,1.137,0,0,0-1.27,1.3,1.22,1.22,0,0,0,.49,1.06l3.8,2.88-2.43,3.76c-1.26.07-1.89,0.51-1.89,1.3a1.538,1.538,0,0,0,.31,1.04,0.968,0.968,0,0,0,.92.3l0.66-.07,6.4-1.27a1.421,1.421,0,0,0,1.27,1.27,1.055,1.055,0,0,0,1.19-.91,1.964,1.964,0,0,0,1.83.98h1.44v1.97h-12.3c-1.08,0-1.62.43-1.62,1.3s0.54,1.3,1.62,1.3h11.07a33.414,33.414,0,0,1-11.85,5.98,1.6,1.6,0,0,0-1.44,1.47,1.23,1.23,0,0,0,1.37,1.41q1.44,0,5.52-1.97a34.346,34.346,0,0,0,7.63-4.99v6.5c0,1.15.47,1.73,1.41,1.73s1.41-.58,1.41-1.73v-6.61a23.566,23.566,0,0,0,8.4,5.38,18.659,18.659,0,0,0,4.92,1.58,1.337,1.337,0,0,0,1.48-1.54c0-.78-0.74-1.34-2.22-1.69h0Zm-16.59-21.41a0.769,0.769,0,0,1,.84-0.81h3.48a0.764,0.764,0,0,1,.88.81v2.78h-5.2v-2.78Zm0,8.05v-3.02h5.2v3.02a0.78,0.78,0,0,1-.88.84h-3.48a0.777,0.777,0,0,1-.84-0.84h0Z" transform="translate(-1372 -3817.44)"/>
</svg>
