<svg id="introcontentTitle2.svg" xmlns="http://www.w3.org/2000/svg" width="118.531" height="150.85" viewBox="0 0 118.531 150.85">
  <defs>
    <style>
      .cls-1 {
        fill-rule: evenodd;
      }
    </style>
  </defs>
  <path id="單純社區_素質整齊_戶戶邊間" data-name="單純社區 素質整齊 戶戶邊間" class="cls-1" d="M456.843,4395.87h7.418c1.758,0,2.637-.92,2.637-2.75v-2.21a2.4,2.4,0,0,0-2.707-2.71h-7.348a2.412,2.412,0,0,0-2.742,2.71v2.21a2.428,2.428,0,0,0,2.742,2.75h0Zm15.293,0h7.735c1.781,0,2.671-.92,2.671-2.75v-2.21a2.4,2.4,0,0,0-2.707-2.71h-7.7a2.381,2.381,0,0,0-2.672,2.71v2.29a2.361,2.361,0,0,0,2.672,2.67h0Zm-8.965-2.36h-5.343a0.88,0.88,0,0,1-.95-0.95v-1.02a0.9,0.9,0,0,1,.95-0.98h5.343a0.894,0.894,0,0,1,.95.98v1.02a0.878,0.878,0,0,1-.95.95h0Zm15.645,0h-5.66a0.88,0.88,0,0,1-.949-0.95v-1.02a1.023,1.023,0,0,1,.246-0.72,0.932,0.932,0,0,1,.7-0.26h5.66a0.908,0.908,0,0,1,.984.98v1.02a1.129,1.129,0,0,1-.281.69,0.935,0.935,0,0,1-.7.26h0Zm-10.547,25.63a1.243,1.243,0,0,0,1.371-1.44v-3.94h13.289a1.258,1.258,0,1,0,0-2.49H469.64v-2.15h8.613a3,3,0,0,0,2.338-.65,3.155,3.155,0,0,0,.721-2.3v-5.63a2.757,2.757,0,0,0-.633-2.26,3.393,3.393,0,0,0-2.426-.73H458.39a2.892,2.892,0,0,0-2.338.64,3.256,3.256,0,0,0-.72,2.35v5.63a2.719,2.719,0,0,0,.632,2.25,3.445,3.445,0,0,0,2.426.7h8.473v2.15H453.714a1.254,1.254,0,1,0,0,2.49h13.149v3.94a1.258,1.258,0,0,0,1.406,1.44h0Zm-1.371-16.87h-8.824v-1.52a0.917,0.917,0,0,1,1.054-1.02h7.77v2.54Zm11.637,0h-8.93v-2.54h7.875a0.961,0.961,0,0,1,1.055,1.02v1.52Zm-11.637,4.67h-7.77a0.973,0.973,0,0,1-1.054-1.05v-1.62H466.9v2.67Zm10.582,0h-7.875v-2.67h8.93v1.62a1.236,1.236,0,0,1-.3.77,0.977,0.977,0,0,1-.756.28h0Zm-14.766,31.52a0.915,0.915,0,0,0-1.089.98,14.8,14.8,0,0,0,.667,1.93l-4.359.18,1.09-1.41q2.391-3.225,3.656-5.24a7.578,7.578,0,0,0,1.266-2.53,1.165,1.165,0,0,0-1.371-1.26,1.243,1.243,0,0,0-.809.28,2.954,2.954,0,0,0-.668.84l-2.074,3.69-1.969-1.65c2.321-3.26,3.481-5.35,3.481-6.29a1.186,1.186,0,0,0-1.407-1.27,1.577,1.577,0,0,0-1.511,1.2c-0.751,1.83-1.536,3.51-2.356,5.06a2.564,2.564,0,0,0-1.265-.63,1.183,1.183,0,0,0-1.407,1.26,2.138,2.138,0,0,0,1.125,1.48,46.974,46.974,0,0,1,3.9,3.06l-2.391,3.55h-0.879a2.946,2.946,0,0,0-1.547.33,1.125,1.125,0,0,0-.527,1.01,1.5,1.5,0,0,0,.316,1.02,1.164,1.164,0,0,0,.985.31c1.171-.09,2.261-0.2,3.269-0.31l0.739-.08v13.33a1.346,1.346,0,1,0,2.671,0v-13.61l1.793-.24c0.141-.03.282-0.05,0.422-0.07a1.837,1.837,0,0,1,.387-0.04c0.328,1.06.785,1.58,1.371,1.58a1.023,1.023,0,0,0,1.195-1.12,16.357,16.357,0,0,0-1.16-3.48q-0.738-1.86-1.547-1.86h0Zm20.215,12.93a1.342,1.342,0,0,0-1.371,1.51,3.09,3.09,0,0,1-.562,1.94,3.981,3.981,0,0,1-2.286.42,10.8,10.8,0,0,1-2.882-.21,0.767,0.767,0,0,1-.352-0.81v-5.1h4.254a2.722,2.722,0,0,0,2.2-.65,3.192,3.192,0,0,0,.686-2.27v-7.55q0-1.62-1.336-1.62t-1.336,1.62v6.64a1.072,1.072,0,0,1-1.195,1.23h-3.27v-12.73a36.9,36.9,0,0,0,5.8-1.23c1.1-.35,1.652-0.8,1.652-1.37a1.229,1.229,0,0,0-1.406-1.37,13.26,13.26,0,0,0-1.793.46q-0.212.075-1.459,0.42a24.683,24.683,0,0,1-2.8.6v-3.06c0-1.03-.434-1.55-1.3-1.55-0.82,0-1.23.52-1.23,1.55v3.41a50.274,50.274,0,0,1-5.133.6c-1.664.07-2.5,0.51-2.5,1.33a1.206,1.206,0,0,0,.351.97,1.655,1.655,0,0,0,1.09.3,44.118,44.118,0,0,0,6.188-.63v12.3h-2.6a1.2,1.2,0,0,1-.914-0.32,1.223,1.223,0,0,1-.316-0.91v-6.64q0-1.62-1.3-1.62-1.371,0-1.371,1.62v7.59a2.657,2.657,0,0,0,.615,2.2,3.233,3.233,0,0,0,2.268.68h3.621v5.98a2.181,2.181,0,0,0,1.336,2.28,10.285,10.285,0,0,0,3.269.36q4.042,0,5.414-.74c0.914-.49,1.371-1.9,1.371-4.22a1.418,1.418,0,0,0-.351-1.07,1.45,1.45,0,0,0-1.055-.34h0Zm-28.09-5.66q-1.125,0-1.23,1.83a24.192,24.192,0,0,1-.387,3.06,15.622,15.622,0,0,1-.633,2.21,5.9,5.9,0,0,0-.351,1.41,1.093,1.093,0,0,0,1.3,1.16c0.726,0,1.323-1.04,1.793-3.13a24.952,24.952,0,0,0,.668-5.31,1.058,1.058,0,0,0-1.161-1.23h0Zm8.051,0.04a1.234,1.234,0,0,0-.826.26,0.879,0.879,0,0,0-.264.76l0.106,0.88,0.105,0.42,0.633,5.03q0.176,1.89,1.336,1.89a1.067,1.067,0,0,0,1.23-1.19,37.27,37.27,0,0,0-1.125-6.65,2.614,2.614,0,0,0-.457-1.07,0.923,0.923,0,0,0-.738-0.33h0Zm19.688,48.04h-6.715v-14.52h5.695c1.195,0,1.793-.51,1.793-1.52q0-1.47-1.793-1.47h-5.695v-8.19c0-1.18-.5-1.76-1.512-1.76s-1.512.58-1.512,1.76v8.19h-5.906q-1.793,0-1.793,1.47c0,1.01.6,1.52,1.793,1.52h5.906v14.52h-7.91c-1.242,0-1.863.5-1.863,1.51s0.621,1.51,1.863,1.51h17.649c1.218,0,1.828-.51,1.828-1.51s-0.61-1.51-1.828-1.51h0ZM455.3,4470.46h7.84a1.395,1.395,0,1,0,0-2.78H455.3a1.4,1.4,0,1,0,0,2.78h0Zm8.825,6.36c1.054,0,1.582-.44,1.582-1.33,0-.87-0.528-1.3-1.582-1.3h-9.95c-1.125,0-1.687.43-1.687,1.3,0,0.89.562,1.33,1.687,1.33h3.551V4497a1.27,1.27,0,1,0,2.531,0v-20.18h3.868Zm-9.633,2.47c-0.774,0-1.16.52-1.16,1.58v1.65q0.035,7.98-.809,10.13a3.692,3.692,0,0,0-.352,1.33,1.264,1.264,0,0,0,.317.92,1.238,1.238,0,0,0,.914.31q1.125,0,1.723-2.46a33.555,33.555,0,0,0,.6-7.35v-3.97c0-1.43-.41-2.14-1.23-2.14h0Zm10.09,12.41v-11.04a1.151,1.151,0,0,0-1.231-1.37,1.137,1.137,0,0,0-1.195,1.37v11.04a1.118,1.118,0,0,0,1.195,1.33,1.133,1.133,0,0,0,1.231-1.33h0Zm-7.172,44.92h25.347c1.1,0,1.653-.44,1.653-1.3,0-.9-0.551-1.34-1.653-1.34H458.39a1.235,1.235,0,0,1-1.336-1.37V4511.3a1.237,1.237,0,0,1,1.336-1.37h23.695c1.078,0,1.618-.43,1.618-1.3,0-.89-0.54-1.33-1.618-1.33H457.406a3.186,3.186,0,0,0-2.567.72,3.626,3.626,0,0,0-.808,2.62v22.6a3.193,3.193,0,0,0,.72,2.57,3.687,3.687,0,0,0,2.655.81h0Zm6.75-15.79h12.515a2.661,2.661,0,0,0,2.11-.6,2.986,2.986,0,0,0,.668-2.18v-3.27a2.736,2.736,0,0,0-.6-2.14,2.975,2.975,0,0,0-2.18-.67H464.156a2.6,2.6,0,0,0-2.092.6,3.035,3.035,0,0,0-.65,2.18v3.34a2.619,2.619,0,0,0,.6,2.09,3.007,3.007,0,0,0,2.145.65h0Zm11.461-2.39H465.105a0.945,0.945,0,0,1-1.02-1.02v-2.04a0.942,0.942,0,0,1,1.02-1.02h10.512a0.976,0.976,0,0,1,1.054,1.06v1.97a0.97,0.97,0,0,1-1.054,1.05h0Zm-14.063,13.64h5.485a2.361,2.361,0,0,0,2.671-2.67v-4.04a2.368,2.368,0,0,0-2.671-2.68h-5.485a2.383,2.383,0,0,0-2.707,2.68v4.04a2.376,2.376,0,0,0,2.707,2.67h0Zm12.41,0H479.8c1.758,0,2.637-.9,2.637-2.71v-3.97c0-1.8-.879-2.71-2.637-2.71h-5.836a2.368,2.368,0,0,0-2.672,2.68v4.04a2.361,2.361,0,0,0,2.672,2.67h0Zm-7.734-2.35h-3.867a0.911,0.911,0,0,1-.985-1.02v-2.64a0.893,0.893,0,0,1,.985-0.99h3.867a0.916,0.916,0,0,1,.984.99v2.64a0.927,0.927,0,0,1-.984,1.02h0Zm12.656,0h-4.078a0.929,0.929,0,0,1-.984-1.02v-2.64a0.872,0.872,0,0,1,.984-0.99h4.078a1.242,1.242,0,0,1,.739.27,0.937,0.937,0,0,1,.246.72v2.64a0.887,0.887,0,0,1-.985,1.02h0Zm-41.231-117.94a2.073,2.073,0,0,0,1.441.88,1.229,1.229,0,0,0,1.407-1.37,2.953,2.953,0,0,0-.739-1.34,20.314,20.314,0,0,0-2.144-2.25q-3.024-2.8-3.656-2.81a1.369,1.369,0,0,0-.914.28,1.081,1.081,0,0,0-.317.85,1.49,1.49,0,0,0,.527,1.02l1.653,1.65-9.6.35h-0.422l-0.316.04,4.183-3.31q2.286-1.785,2.286-2.46a1.154,1.154,0,0,0-1.371-1.23,2.239,2.239,0,0,0-1.477.81q-2.145,2.145-4.324,4.11l-3.059-1.76,3.832-3.97h14.942a1.211,1.211,0,1,0,0-2.39H426.335v-2.43h10.511a1.5,1.5,0,0,0,1.02-.28,1.223,1.223,0,0,0-1.02-2.04H426.335v-2.25H438.6a1.206,1.206,0,1,0,0-2.39H426.335v-1.19a1.419,1.419,0,0,0-2.813,0v1.19H411.639a1.2,1.2,0,1,0,0,2.39h11.883v2.25H413.4a1.172,1.172,0,1,0,0,2.32h10.125v2.43H410.655a1.206,1.206,0,1,0,0,2.39h10.512a26.3,26.3,0,0,1-2.356,2.81,18.591,18.591,0,0,0-1.881-1.02,3.514,3.514,0,0,0-1.072-.35,1.091,1.091,0,0,0-1.266,1.2,1.746,1.746,0,0,0,1.161,1.26l6.222,3.45-0.6.53H411.5a1.343,1.343,0,0,0-1.617,1.4,1.5,1.5,0,0,0,.4,1.13,1.481,1.481,0,0,0,1.142.35l12.024-.63v6.22a1.354,1.354,0,0,0,1.476,1.58,1.369,1.369,0,0,0,1.512-1.58v-6.36l10.3-.57Zm1.723,3.62a24.862,24.862,0,0,1-5.731-2.18,4.459,4.459,0,0,0-1.582-.56,1.232,1.232,0,0,0-1.441,1.34q0,0.84,3.9,2.63,3.972,1.8,5.344,1.8c0.867,0,1.3-.53,1.3-1.58a1.124,1.124,0,0,0-.457-0.88,2.96,2.96,0,0,0-1.336-.57h0Zm-21.2-2.63a18.235,18.235,0,0,0-2.636,1.05,33.514,33.514,0,0,1-4.395,1.65c-1.359.38-2.039,0.89-2.039,1.55,0,0.99.41,1.48,1.231,1.48a17.175,17.175,0,0,0,5.238-1.65q3.938-1.7,3.937-2.64a1.229,1.229,0,0,0-1.336-1.44h0Zm-7.734,27.95c0.75,0,1.523-.63,2.32-1.9a11.11,11.11,0,0,0,1.442-4.6h4.254v3.76a1.31,1.31,0,1,0,2.6,0v-3.76H423.8a1.176,1.176,0,1,0,0-2.32h-9.457l0.036-.46c0-.99.351-1.51,1.054-1.58l3.094-.36c2.132-.28,3.468-0.46,4.008-0.56a1.108,1.108,0,0,0,1.16-.98,1.369,1.369,0,0,0-.352-1.02,1.051,1.051,0,0,0-.984-0.25l-4.676.78-2.636.28a4.12,4.12,0,0,0-2.461.74,2.315,2.315,0,0,0-.879,1.86v0.74a35.168,35.168,0,0,1-.211,3.79,5.911,5.911,0,0,1-1.407,2.85,3.351,3.351,0,0,0-1.019,1.58,1.229,1.229,0,0,0,1.371,1.41h0ZM425,4439.6c0.7,0,1.476-.53,2.32-1.61a7.5,7.5,0,0,0,1.512-3.76h4.711v3.62c0,1.07.445,1.61,1.336,1.61,0.914,0,1.371-.54,1.371-1.61v-3.62H439.8a1.182,1.182,0,1,0,0-2.32H429.042v-0.08a5.732,5.732,0,0,1,.211-1.68,1.552,1.552,0,0,1,1.019-.35q5.8-.6,7.313-0.85c0.867-.14,1.3-0.47,1.3-0.98a1.305,1.305,0,0,0-.351-1,1.173,1.173,0,0,0-.984-0.27l-0.668.07a61.442,61.442,0,0,1-7.172.99,5.352,5.352,0,0,0-2.725.74,1.887,1.887,0,0,0-.9,1.72l0.035,2.85A5.182,5.182,0,0,1,424.4,4437a2.142,2.142,0,0,0-.773,1.23A1.209,1.209,0,0,0,425,4439.6h0Zm-9.528,14.63h19.266a2.817,2.817,0,0,0,2.268-.62,3.139,3.139,0,0,0,.72-2.3v-8.3a2.878,2.878,0,0,0-.685-2.23,3.294,3.294,0,0,0-2.3-.68H415.471a2.76,2.76,0,0,0-2.25.61,3.2,3.2,0,0,0-.7,2.3v8.3a2.77,2.77,0,0,0,.651,2.23,3.243,3.243,0,0,0,2.3.69h0Zm19.407-10.06H415.331v-0.87a0.926,0.926,0,0,1,.984-1.02h17.578a0.921,0.921,0,0,1,.985,1.02v0.87Zm-19.547,3.98v-1.97h19.547v1.97H415.331Zm18.562,3.93H416.315a0.917,0.917,0,0,1-.984-1.01v-0.92h19.547v0.92a0.92,0.92,0,0,1-.985,1.01h0Zm2.11,6.3,3.9,0.38a1.179,1.179,0,0,0,1.3-1.37c0-.72-0.868-1.16-2.6-1.3a35.506,35.506,0,0,1-8.226-1.37l-0.95-.24a1.3,1.3,0,0,0-1.476,1.47c0,0.45.668,0.87,2,1.27a44.659,44.659,0,0,0,6.047,1.16h0Zm-25.875.38,1.125-.1a49.153,49.153,0,0,0,9.879-1.72,1.221,1.221,0,0,0,1.16-.99,1.243,1.243,0,0,0-1.371-1.44c-0.141.02-.364,0.08-0.668,0.16s-0.657.17-1.055,0.26c-1.078.26-2.32,0.51-3.727,0.74-1.336.23-2.765,0.42-4.289,0.56-1.406.14-2.109,0.53-2.109,1.16,0,0.99.352,1.44,1.055,1.37h0Zm-1.161,24.67a1.332,1.332,0,0,0,.317.94,1.16,1.16,0,0,0,.879.33,9.329,9.329,0,0,0,3.2-1.69,22.3,22.3,0,0,0,3.48-2.74v3.38a1.073,1.073,0,0,0,1.2,1.23,1.087,1.087,0,0,0,1.23-1.23v-2.75l0.317,0.25q2.18,1.155,2.918,1.65a2.812,2.812,0,0,0,1.371.56,1.12,1.12,0,0,0,1.3-1.23c0-.47-0.739-1.06-2.215-1.79a8.9,8.9,0,0,0-2.813-1.05,1.444,1.444,0,0,0-.879.31v-1.02H423a2.121,2.121,0,0,0,2.285-2.18,1.01,1.01,0,0,0,1.09.81c0.515,0,1.183-.63,2-1.9l0.316-.49a12.649,12.649,0,0,0,2.567,4.85,14.8,14.8,0,0,1-3.622,2.22,17.674,17.674,0,0,0-2.109.95,0.86,0.86,0,0,0-.316.77,1.258,1.258,0,0,0,.3.95,1.306,1.306,0,0,0,.931.28,7.229,7.229,0,0,0,2.742-1.02,22.584,22.584,0,0,0,3.762-2.46,20.532,20.532,0,0,0,3.832,2.43,9.362,9.362,0,0,0,3.094,1.23,1.233,1.233,0,0,0,1.336-1.45q0-.975-1.477-1.44a18.643,18.643,0,0,1-4.957-2.53,17.183,17.183,0,0,0,3.27-6.33h1.722a1.136,1.136,0,0,0,1.336-1.23,1.122,1.122,0,0,0-1.336-1.19H430.87l0.351-.78a6.89,6.89,0,0,0,1.055-2.63,1.108,1.108,0,0,0-1.3-1.2c-0.68,0-1.207.57-1.582,1.69a20.112,20.112,0,0,1-3.48,6.72,3.85,3.85,0,0,0-.6.98v-0.91a2.671,2.671,0,0,0-.615-1.89,2.39,2.39,0,0,0-1.811-.65h-3.621v-1.37h6.223a1.076,1.076,0,0,0,1.3-1.12,1.089,1.089,0,0,0-1.3-1.16h-6.223v-1.27a1.04,1.04,0,0,0-1.23-1.12,1.024,1.024,0,0,0-1.2,1.12v1.27h-6.4a1.072,1.072,0,0,0-1.266,1.16,1.058,1.058,0,0,0,1.266,1.12h6.4v1.37h-3.8a2.223,2.223,0,0,0-2.461,2.47v1.51a2.426,2.426,0,0,0,.632,1.81,2.519,2.519,0,0,0,1.829.61h2.742a33.043,33.043,0,0,1-5.731,3.55,1.551,1.551,0,0,0-1.09,1.3h0Zm26.508-10.16a12.154,12.154,0,0,1-2.531,4.82,10.349,10.349,0,0,1-2.461-4.82h4.992Zm-21.656,3.24a0.729,0.729,0,0,1-.809-0.74v-0.74a0.71,0.71,0,0,1,.809-0.74h3.023v2.22h-3.023Zm5.449-2.22h2.848a0.671,0.671,0,0,1,.773.74v0.74a0.86,0.86,0,0,1-.211.56,0.757,0.757,0,0,1-.562.18h-2.848v-2.22Zm20.567,20.64H427v-2.53h9.211a1.082,1.082,0,0,0,1.3-1.13,1.093,1.093,0,0,0-1.3-1.16H427v-2.49h11.109a1.2,1.2,0,1,0,0-2.39H412.061a1.2,1.2,0,1,0,0,2.39H424.3v7.31h-6.75v-4.5q0-1.65-1.336-1.65-1.407,0-1.407,1.65v4.5h-4.359a1.142,1.142,0,0,0-1.371,1.2,1.227,1.227,0,0,0,.316.93,1.51,1.51,0,0,0,1.055.3h29.391a1.52,1.52,0,0,0,1.037-.3,1.192,1.192,0,0,0,.334-0.93,1.117,1.117,0,0,0-.352-0.88,1.479,1.479,0,0,0-1.019-.32h0Zm-28.864,16.12h28.407a1.25,1.25,0,1,0,0-2.47h-12.8v-1.4a1.338,1.338,0,0,0-.405-1.04,1.718,1.718,0,0,0-1.177-.37,1.793,1.793,0,0,0-1.2.37,1.31,1.31,0,0,0-.421,1.04v1.4H410.971a1.245,1.245,0,1,0,0,2.47h0Zm13.887,12.23a1.164,1.164,0,0,0,1.336-1.3v-5.59a3.4,3.4,0,0,1,1.371-2.04,3.8,3.8,0,0,0,1.442-1.93c0-.71-0.481-1.06-1.442-1.06a1.935,1.935,0,0,0-1.406.81l-1.477,1.69a4.157,4.157,0,0,0-1.16,2.74v5.38a1.164,1.164,0,0,0,1.336,1.3h0Zm-0.844-9.6a0.949,0.949,0,0,0-.211-0.56,7.939,7.939,0,0,0-.7-0.77,2.292,2.292,0,0,0-1.476-.85,1.016,1.016,0,0,0-1.266.99,2.978,2.978,0,0,0,1.055,1.44,6.323,6.323,0,0,0,.791.7,0.945,0.945,0,0,0,.51.21,1.089,1.089,0,0,0,1.3-1.16h0Zm16.313,6.96a8.116,8.116,0,0,1-4.254-5.97l2.039-.5a1.128,1.128,0,0,0,1.055-1.05,1.154,1.154,0,0,0-1.266-1.34c-0.117,0-.809.17-2.074,0.5a43.676,43.676,0,0,1-4.36.91c-1.757.26-2.636,1.18-2.636,2.78v4.85l-0.352.07a1.867,1.867,0,0,0-1.072.4,1.175,1.175,0,0,0-.369.9,1.529,1.529,0,0,0,.3,1,0.739,0.739,0,0,0,.791.27l2.32-.5a34.919,34.919,0,0,0,4.289-1.33,0.932,0.932,0,0,0,.527-0.88,1.224,1.224,0,0,0-.263-0.83,0.954,0.954,0,0,0-.756-0.3l-2.918.74v-4.01c0-.56.457-0.92,1.371-1.09l0.984-.17a14.551,14.551,0,0,0,2.672,5.8c1.289,1.66,2.461,2.5,3.516,2.5a1.279,1.279,0,0,0,1.406-1.48,1.453,1.453,0,0,0-.949-1.27h0Zm-28.055,2.04a8.7,8.7,0,0,0,3.692-6.85h2.214a0.677,0.677,0,0,1,.668.84,15.4,15.4,0,0,1-.211,2.74,1.3,1.3,0,0,1-1.441,1.16,1.148,1.148,0,0,0-1.406,1.16,1.214,1.214,0,0,0,1.441,1.3q2.637,0,3.446-1.65a15.387,15.387,0,0,0,.667-5.59c0-1.57-.843-2.35-2.531-2.35h-7.558a1.423,1.423,0,0,0-.985.31,1.131,1.131,0,0,0-.351.88,1.117,1.117,0,0,0,.351.88,1.426,1.426,0,0,0,.985.32h2.285a5.449,5.449,0,0,1-3.235,4.95,1.857,1.857,0,0,0-1.336,1.48,1.154,1.154,0,0,0,1.266,1.34,4.242,4.242,0,0,0,2.039-.92h0Zm23.028-.24a1.226,1.226,0,0,0-1.372,1.4v1.3H416.21v-1.19a1.243,1.243,0,0,0-1.371-1.44,1.158,1.158,0,0,0-1.372,1.33l0.036,0.71a25.5,25.5,0,0,1-.633,6.96,7.214,7.214,0,0,1-2.391,3.2,2.426,2.426,0,0,0-1.16,1.54,1.515,1.515,0,0,0,.334,1.09,1.4,1.4,0,0,0,1.072.35,3.777,3.777,0,0,0,2.532-1.61,9.8,9.8,0,0,0,2.144-3.76h18.527v4.21a1.216,1.216,0,0,0,1.372,1.38,1.2,1.2,0,0,0,1.371-1.38v-12.69a1.226,1.226,0,0,0-1.371-1.4h0Zm-19.407,7.52a19.228,19.228,0,0,0,.211-2.46h17.824v2.46H415.893Zm-48.4-110.54q1.2,0,2.567-3.09a33.334,33.334,0,0,0,1.318-3.48,17.379,17.379,0,0,0,.65-3.55H392.24a3.049,3.049,0,0,0,2.444-.67,3.5,3.5,0,0,0,.755-2.5v-6.96a2.9,2.9,0,0,0-.65-2.44,3.572,3.572,0,0,0-2.549-.76H372.412v-1.72a1.679,1.679,0,0,1,.352-1.2,1.93,1.93,0,0,1,1.195-.42q5.765-.39,12.867-1.12,3.375-.36,4.992-0.6a12.488,12.488,0,0,0,2.18-.46,1.516,1.516,0,0,0,1.125-1.44,1.556,1.556,0,0,0-1.758-1.76,6.2,6.2,0,0,0-1.547.32,46.111,46.111,0,0,1-7.295,1.18q-5.361.57-12.005,1.18l-0.879.07c-1.5.14-2.25,1.13-2.25,2.98l0.035,4.26,0.035,3.76a47.952,47.952,0,0,1-.633,8.89,22.123,22.123,0,0,1-2.461,6.44,3.1,3.1,0,0,0-.492,1.37,1.475,1.475,0,0,0,1.617,1.72h0Zm23.238-12.94H372.307c0.117-1.71.175-4.27,0.175-7.7h18.246a2.053,2.053,0,0,1,1.354.32,1.907,1.907,0,0,1,.334,1.34v4.36a1.955,1.955,0,0,1-.334,1.35,1.987,1.987,0,0,1-1.354.33h0Zm-23.238,52.54q1.2,0,2.567-3.09a33.334,33.334,0,0,0,1.318-3.48,17.379,17.379,0,0,0,.65-3.55H392.24a3.049,3.049,0,0,0,2.444-.67,3.5,3.5,0,0,0,.755-2.5v-6.96a2.9,2.9,0,0,0-.65-2.44,3.572,3.572,0,0,0-2.549-.76H372.412v-1.72a1.679,1.679,0,0,1,.352-1.2,1.93,1.93,0,0,1,1.195-.42q5.765-.39,12.867-1.12,3.375-.36,4.992-0.6a12.488,12.488,0,0,0,2.18-.46,1.516,1.516,0,0,0,1.125-1.44,1.556,1.556,0,0,0-1.758-1.76,6.2,6.2,0,0,0-1.547.32,46.111,46.111,0,0,1-7.295,1.18q-5.361.57-12.005,1.18l-0.879.07c-1.5.14-2.25,1.13-2.25,2.98l0.035,4.26,0.035,3.76a47.952,47.952,0,0,1-.633,8.89,22.123,22.123,0,0,1-2.461,6.44,3.1,3.1,0,0,0-.492,1.37,1.475,1.475,0,0,0,1.617,1.72h0Zm23.238-12.94H372.307c0.117-1.71.175-4.27,0.175-7.7h18.246a2.053,2.053,0,0,1,1.354.32,1.907,1.907,0,0,1,.334,1.34v4.36a1.955,1.955,0,0,1-.334,1.35,1.987,1.987,0,0,1-1.354.33h0Zm-14.835,37.78a1.059,1.059,0,0,0,1.23-1.16v-1.23a0.877,0.877,0,0,1,.949-0.95H381.8a2.174,2.174,0,0,1-.844,1.42,5.774,5.774,0,0,1-2.355.86,0.932,0.932,0,0,0-.95.88,0.872,0.872,0,0,0,.246.7,1.178,1.178,0,0,0,.774.21c3.023,0,4.757-1.35,5.2-4.07h3.234v2.14a1.168,1.168,0,0,0,.7,1.13,7.226,7.226,0,0,0,1.9.28l1.125,0.03,1.371-.03a1.885,1.885,0,0,0,1.3-.6,2.229,2.229,0,0,0,.527-1.58,0.844,0.844,0,0,0-1.019-.88,1.173,1.173,0,0,0-.686.16,0.77,0.77,0,0,0-.3.54,0.883,0.883,0,0,1-.949.77h-0.738a2.275,2.275,0,0,1-.826-0.12,0.379,0.379,0,0,1-.3-0.33v-1.51h4.746a0.831,0.831,0,0,1,.914.88v1.08a1.074,1.074,0,0,0,1.23,1.2,1.059,1.059,0,0,0,1.2-1.2v-1.44a2.07,2.07,0,0,0-2.356-2.32h-8.191v-1.16h6.117a2.454,2.454,0,0,0,1.758-.56,2.16,2.16,0,0,0,.6-1.65v-5.13q0-2.22-2.355-2.22h-7.031a2.634,2.634,0,0,0,.422-0.91,0.775,0.775,0,0,0-.3-0.72,1.447,1.447,0,0,0-.932-0.27,1.671,1.671,0,0,0-1.441,1.3l-0.246.6h-4.36a2.5,2.5,0,0,0-1.758.56,2.184,2.184,0,0,0-.6,1.66v5.13a2.124,2.124,0,0,0,.615,1.65,2.462,2.462,0,0,0,1.74.56h5.239v1.16h-7.137a2.1,2.1,0,0,0-2.391,2.36v1.62a1.043,1.043,0,0,0,1.2,1.16h0Zm-6.469-14,1.828,0.95a5.761,5.761,0,0,0,1.828.81,1.257,1.257,0,0,0,1.371-1.47,1.558,1.558,0,0,0-.562-1.11,5.75,5.75,0,0,0-1.653-1.04,12.2,12.2,0,0,0-2.777-1.02,1.2,1.2,0,0,0-1.336,1.37,1.888,1.888,0,0,0,1.3,1.51h0Zm9.668,0.46a0.712,0.712,0,0,1,.158-0.51,0.723,0.723,0,0,1,.51-0.16h12.3a0.878,0.878,0,0,1,.493.18,0.685,0.685,0,0,1,.14.49v0.49H379.092v-0.49Zm13.605,1.97v1.05H379.092v-1.05H392.7Zm-25.242,4.11a13.611,13.611,0,0,1,2.637,1.13,4.35,4.35,0,0,0,1.582.63,1.243,1.243,0,0,0,1.371-1.44q0-1.05-2.285-2.04a11.584,11.584,0,0,0-2.918-.98,1.209,1.209,0,0,0-1.371,1.37,1.427,1.427,0,0,0,.246.82,1.231,1.231,0,0,0,.738.51h0Zm11.637-1.16v-0.42H392.7v0.42a0.575,0.575,0,0,1-.633.67h-12.3a0.83,0.83,0,0,1-.51-0.19,0.665,0.665,0,0,1-.158-0.48h0Zm17.472,19.37h-0.386q-5.169.105-9.211,0.11l-5.028-.04a18.085,18.085,0,0,1-7.136-1.19,6.185,6.185,0,0,1-2.215-1.83v-6.82a2.516,2.516,0,0,0-.6-2.04,3.176,3.176,0,0,0-2.215-.63h-2.566a1.449,1.449,0,0,0-1.02.3,1.227,1.227,0,0,0-.316.93,1.3,1.3,0,0,0,.316.97,1.45,1.45,0,0,0,1.02.29h1.723a1.1,1.1,0,0,1,.843.3,1.169,1.169,0,0,1,.282.83v6.68l-2.532,1.3a2.971,2.971,0,0,0-1.195.77,1.7,1.7,0,0,0-.387,1.13,1.222,1.222,0,0,0,1.371,1.4q1.02,0,4.465-2.95l0.071,0.04a9.828,9.828,0,0,0,4.289,2.39,41.479,41.479,0,0,0,8.894.7c1.805,0.02,3.615.04,5.432,0.04H395.9q2,0,2-1.41a1.155,1.155,0,0,0-1.336-1.27h0Zm-0.879-7.52a0.935,0.935,0,1,0,0-1.83H386.65v-1.47a1.018,1.018,0,0,0-1.23-1.06,1.036,1.036,0,0,0-1.266,1.06v1.47H376.42a0.929,0.929,0,1,0,0,1.83h5.414q-0.6,3.4-4.887,4.43a1.028,1.028,0,0,0-.984,1.02,0.975,0.975,0,0,0,1.09,1.12,7.949,7.949,0,0,0,3.41-.94,6.569,6.569,0,0,0,2.812-2.61h8.3c0.422,0,.633.16,0.633,0.46a1.358,1.358,0,0,1-.562,1.3,7.366,7.366,0,0,1-2.813.32c-0.938,0-1.406.33-1.406,0.98a0.976,0.976,0,0,0,1.2.99,10.068,10.068,0,0,0,4.57-.78q1.441-.765,1.442-3.48c0-1.07-.633-1.61-1.9-1.61h-8.718l0.246-1.2h11.425Zm-26.929,50.65a1.312,1.312,0,0,0,1.406-1.55V4519h7.418a2.659,2.659,0,0,0,2.127-.62,3.1,3.1,0,0,0,.65-2.19v-6.65a2.5,2.5,0,0,0-.58-2.09,3.135,3.135,0,0,0-2.2-.65h-7.137a2.931,2.931,0,0,0-2.32.67,3.2,3.2,0,0,0-.738,2.35v26.37a1.3,1.3,0,0,0,1.371,1.55h0Zm22.676-.07h1.793a3.458,3.458,0,0,0,2.777-.8,4.016,4.016,0,0,0,.879-2.9v-24.15a2.7,2.7,0,0,0-.615-2.28,3.315,3.315,0,0,0-2.409-.74h-7.593a2.658,2.658,0,0,0-2.11.6,2.927,2.927,0,0,0-.668,2.14v6.65a2.592,2.592,0,0,0,.58,2.12,3,3,0,0,0,2.2.69h7.875v14.2a1.585,1.585,0,0,1-.37,1.13,1.44,1.44,0,0,1-1.072.38h-1.265a1.486,1.486,0,1,0,0,2.96h0Zm-13.641-25.95h-7.629v-1.41a1.046,1.046,0,0,1,1.16-1.12H376.7a1.309,1.309,0,0,1,.826.28,1.054,1.054,0,0,1,.264.81v1.44Zm16.348,0h-8.086v-1.44a0.981,0.981,0,0,1,1.09-1.09h5.835a1.05,1.05,0,0,1,1.161,1.12v1.41Zm-17.438,4.99h-6.539v-2.67h7.629v1.58a1,1,0,0,1-1.09,1.09h0Zm17.438,0h-7a1,1,0,0,1-1.09-1.09v-1.58h8.086v2.67Zm-16.981,18.32h9.492a2.933,2.933,0,0,0,2.18-.69,2.98,2.98,0,0,0,.668-2.16v-8.23a2.565,2.565,0,0,0-.65-2.19,3.506,3.506,0,0,0-2.409-.69h-9.281q-3.058,0-2.812,2.88v8.23q-0.248,2.85,2.812,2.85h0Zm9.6-8.26h-9.774v-2.11a1.41,1.41,0,0,1,.264-0.88,1.178,1.178,0,0,1,.861-0.25h7.524a1.386,1.386,0,0,1,.9.27,1.221,1.221,0,0,1,.229.86v2.11Zm-1.125,5.8h-7.524a1.408,1.408,0,0,1-.879-0.27,1.159,1.159,0,0,1-.246-0.86v-2.28h9.774v2.28a1.422,1.422,0,0,1-.264.88,1.137,1.137,0,0,1-.861.25h0Z" transform="translate(-365.875 -4387.06)"/>
</svg>
