<svg id="introcontentTitle1.svg" xmlns="http://www.w3.org/2000/svg" width="118.53" height="151" viewBox="0 0 118.53 151">
  <defs>
    <style>
      .cls-1 {
        fill-rule: evenodd;
      }
    </style>
  </defs>
  <path id="首購升級_中空樓板_豪宅規格" data-name="首購升級 中空樓板 豪宅規格" class="cls-1" d="M1534.75,1899.98h-7.91a10.287,10.287,0,0,0,1.37-3.27,1.179,1.179,0,0,0-1.44-1.2,1.777,1.777,0,0,0-1.72,1.41l-1.12,3.06h-7.67l-0.14-.25-1.16-2.35c-0.56-1.18-1.17-1.76-1.83-1.76q-1.44,0-1.44,1.05a1.846,1.846,0,0,0,.25.78c0.16,0.33.27,0.55,0.31,0.66l0.88,1.87h-7.2a1.962,1.962,0,0,0-1.2.3,1.135,1.135,0,0,0-.39.96,1.2,1.2,0,0,0,.39.99,1.893,1.893,0,0,0,1.2.31h11.88l-0.74,3.03h-5.84a3.279,3.279,0,0,0-2.44.81,3.431,3.431,0,0,0-.79,2.49v14.21a3.186,3.186,0,0,0,.74,2.53,3.628,3.628,0,0,0,2.56.77h18.11a3.065,3.065,0,0,0,2.5-.7,3.706,3.706,0,0,0,.77-2.6v-14.21c0.09-2.2-.97-3.3-3.2-3.3h-9.46l0.99-2.78,0.1-.25h13.64a1.914,1.914,0,0,0,1.23-.31,1.2,1.2,0,0,0,.39-0.99q0-1.26-1.62-1.26h0Zm-6.43,8.12a1.323,1.323,0,0,1,1.48,1.51v1.83h-18.92v-1.83a1.336,1.336,0,0,1,1.51-1.51h15.93Zm-17.44,9.39v-3.52h18.92v3.52h-18.92Zm18.92,4.85a1.323,1.323,0,0,1-1.48,1.51h-15.93a1.336,1.336,0,0,1-1.51-1.51v-2.32h18.92v2.32Zm-11.46,44.84a1.243,1.243,0,0,0,.96-0.34,1.52,1.52,0,0,0,.3-1.04v-4.6h11.95v2.11a1.105,1.105,0,0,1-1.19,1.23h-1.55a1.144,1.144,0,0,0-1.33,1.26,1.132,1.132,0,0,0,1.33,1.23h2.11a2.955,2.955,0,0,0,2.41-.65,3.346,3.346,0,0,0,.76-2.44v-2.74h1.09a1.029,1.029,0,0,0,1.23-1.09,1.047,1.047,0,0,0-1.23-1.13h-1.09v-5.69a2.668,2.668,0,0,0-.6-2.09,2.975,2.975,0,0,0-2.15-.65h-4.67v-1.8h8.47a1.052,1.052,0,0,0,1.27-1.09,1.063,1.063,0,0,0-1.27-1.12h-4.5v-2.18h2.6a1,1,0,0,0,1.2-1.06,0.989,0.989,0,0,0-1.2-1.02h-2.6v-2h3.87a1.044,1.044,0,0,0,1.26-1.09,1.055,1.055,0,0,0-1.26-1.12h-3.87v-1.8a1.089,1.089,0,0,0-1.27-1.19,1.107,1.107,0,0,0-1.3,1.19v1.8h-5.27v-1.8a1.2,1.2,0,0,0-2.39,0v1.8h-3.73a1.044,1.044,0,0,0-1.26,1.09,1.055,1.055,0,0,0,1.26,1.12h3.73v2h-2.53a0.989,0.989,0,0,0-1.2,1.02,1,1,0,0,0,1.2,1.06h2.53v2.18h-4.18a1.04,1.04,0,0,0-1.23,1.12,1.029,1.029,0,0,0,1.23,1.09h7.98v1.8h-4.4a2.523,2.523,0,0,0-2.09.56,3.054,3.054,0,0,0-.65,2.18v5.69h-1.3a1.032,1.032,0,0,0-1.2,1.13,1.014,1.014,0,0,0,1.2,1.09h1.3v4.6a1.172,1.172,0,0,0,1.27,1.38h0Zm-9.81-8.34h3.23a2.453,2.453,0,0,0,2.78-2.77v-16.88a2.46,2.46,0,0,0-2.78-2.78h-3.23c-1.88,0-2.82.93-2.82,2.78v16.88c0,1.85.94,2.77,2.82,2.77h0Zm3.51-15.82h-3.83v-3.06a1,1,0,0,1,1.06-1.09h1.72a0.988,0.988,0,0,1,1.05,1.09v3.06Zm10.76-.74v-2h5.27v2h-5.27Zm0,4.26v-2.18h5.27v2.18h-5.27Zm-14.59,2.99v-4.08h3.83v4.08h-3.83Zm2.78,6.85h-1.72a0.986,0.986,0,0,1-1.06-1.09v-3.3h3.83v3.3a1.094,1.094,0,0,1-.28.81,1.027,1.027,0,0,1-.77.28h0Zm13.22-1.61h-4.61v-1.13a0.882,0.882,0,0,1,.95-0.95h3.66v2.08Zm7.34,0h-4.88v-2.08h3.93a0.871,0.871,0,0,1,.95.99v1.09Zm-11.95,4.21v-2.25h4.61v2.25h-4.61Zm7.07,0v-2.25h4.88v2.25h-4.88Zm-21.1,7.7q1.2,0,3.1-5.09a3.424,3.424,0,0,0,.24-0.95,1.047,1.047,0,0,0-1.23-1.13,1.533,1.533,0,0,0-1.33,1.16,22.891,22.891,0,0,1-1.44,3.17,3.573,3.573,0,0,0-.64,1.47,1.181,1.181,0,0,0,1.3,1.37h0Zm8.41-.98a1.11,1.11,0,0,0,1.3-1.2,8.843,8.843,0,0,0-1.13-2.84c-0.72-1.41-1.36-2.11-1.9-2.11a0.942,0.942,0,0,0-1.16.95,2.78,2.78,0,0,0,.21.77l1.38,3.34a1.4,1.4,0,0,0,1.3,1.09h0Zm14.02,40.86c1.03,0,1.55-.62,1.55-1.86v-13.89h4.96c1.22,0,1.83-.46,1.83-1.4,0-.99-0.61-1.48-1.83-1.48h-4.96v-11.14c0-1.29-.52-1.94-1.55-1.94s-1.54.65-1.54,1.94v11.14h-10.23v-8.61a30.507,30.507,0,0,0,4.6-1.39c1.01-.43,1.54-0.88,1.58-1.35a1.329,1.329,0,0,0-.28-1.08,1.183,1.183,0,0,0-.95-0.4,3.32,3.32,0,0,0-1.4.35q-3.555,1.695-12.76,2.85a1.155,1.155,0,0,0-.74.4,1.29,1.29,0,0,0-.28.86,1.273,1.273,0,0,0,1.47,1.41,45.486,45.486,0,0,0,5.87-.91v7.87h-7.2q-1.8,0-1.8,1.44t1.8,1.44h7.17a27.581,27.581,0,0,1-.6,5q-1.1,4.35-6.64,7.27a1.751,1.751,0,0,0-1.16,1.52,1.4,1.4,0,0,0,1.51,1.65,5.5,5.5,0,0,0,2.07-.85,13.83,13.83,0,0,0,5.66-5.55,20.821,20.821,0,0,0,2.04-9.04h10.27v13.89c0,1.24.51,1.86,1.54,1.86h0Zm-17.05,39.89a1.28,1.28,0,0,0,1.37-1.52v-13.64l2.78-.38c0.35,1.17.88,1.75,1.58,1.75a1.041,1.041,0,0,0,1.2-1.16c0-.09-0.31-0.92-0.92-2.49l-0.52-1.34c-0.38-1.01-.88-1.51-1.51-1.51a1.309,1.309,0,0,0-.87.26,0.74,0.74,0,0,0-.22.72l0.07,0.43,0.56,1.33h-0.32l-4.18.21a55.257,55.257,0,0,0,3.41-4.64c1.64-2.41,2.46-3.81,2.46-4.18a1.273,1.273,0,0,0-1.44-1.44,1.213,1.213,0,0,0-.88.53,12.674,12.674,0,0,0-1.16,1.68l-1.44,2.43-1.44-1.13-0.57-.38,0.04-.07q3.615-5.205,3.62-6.26a1.26,1.26,0,0,0-1.41-1.44,1.639,1.639,0,0,0-1.54,1.26,38.03,38.03,0,0,1-2.53,5.14,2.689,2.689,0,0,0-1.38-.64,1.268,1.268,0,0,0-.93.3,1.326,1.326,0,0,0-.3.97,2.031,2.031,0,0,0,1.09,1.55q2.535,1.755,3.98,2.91l-2.39,3.55h-0.78a2.984,2.984,0,0,0-1.63.36,1.121,1.121,0,0,0-.55,1.02,1.528,1.528,0,0,0,.34,1.07,1.087,1.087,0,0,0,.96.3l3.34-.36,0.74-.1v13.39a1.284,1.284,0,0,0,1.37,1.52h0Zm10.16-.36a8.147,8.147,0,0,0,3.59-1.44,20.25,20.25,0,0,0,4.01-3.06h0.14a17.367,17.367,0,0,0,3.27,2.99,5.6,5.6,0,0,0,2.81,1.34,1.3,1.3,0,0,0,1.37-1.55,1.954,1.954,0,0,0-1.34-1.62,15.959,15.959,0,0,1-4.39-3.12v-0.15a25.619,25.619,0,0,0,3.27-6.15,18.326,18.326,0,0,0,1.37-5.24c0-1.31-.82-1.96-2.46-1.96h-1.83a0.822,0.822,0,0,1-.61-0.23,0.739,0.739,0,0,1-.16-0.69l1.37-7.42c0-1.19-.96-1.79-2.88-1.79h-10.83c-1.13,0-1.69.43-1.69,1.3s0.56,1.3,1.69,1.3h2.46l0.03,1.27q0,9.42-1.16,14.27a19.3,19.3,0,0,1-3.83,7.98,2.464,2.464,0,0,0-.7,1.48,1.441,1.441,0,0,0,.32,1.04,1.349,1.349,0,0,0,1.01.33,2.331,2.331,0,0,0,1.52-1.11,17.841,17.841,0,0,0,1.89-3.25,34.122,34.122,0,0,0,2.99-12.02l0.21,0.56a32.181,32.181,0,0,0,4.57,10.33v0.15a12.572,12.572,0,0,1-5.55,3.58c-1.15.33-1.72,0.83-1.72,1.51a1.162,1.162,0,0,0,1.26,1.37h0Zm7.74-8.5h-0.14q-4.05-5.52-5.7-14.84l-0.14-.81,0.07-3.34h4.68a1.1,1.1,0,0,1,.7.2,0.577,0.577,0,0,1,.21.54l-1.23,7.7c0,1.1.66,1.65,1.97,1.65h2.07a0.694,0.694,0,0,1,.85.7,17.272,17.272,0,0,1-.99,3.45,18.314,18.314,0,0,1-2.35,4.75h0Zm-13.36,2.88a1.089,1.089,0,0,0,1.19-1.27,23.7,23.7,0,0,0-.74-4.22c-0.28-1.21-.72-1.82-1.33-1.82a1.129,1.129,0,0,0-.81.26,0.811,0.811,0,0,0-.21.76l0.6,4.36c0.09,1.28.52,1.93,1.3,1.93h0Zm-9.95,2.5c0.75,0,1.3-.72,1.65-2.15a26.836,26.836,0,0,0,.99-6.22,1.4,1.4,0,0,0-.3-0.99,1.32,1.32,0,0,0-2.17,1.09,20.651,20.651,0,0,1-1.3,6.12,2.764,2.764,0,0,0-.21.88,1.159,1.159,0,0,0,1.34,1.27h0Zm-17.61-141.16h-9.24v-4.61a1.563,1.563,0,1,0-3.1,0v4.61h-8.89a3.538,3.538,0,0,0-2.94.8,4.372,4.372,0,0,0-.89,3.06v7.84c-0.14,2.72,1.13,4,3.83,3.83h8.89v8.51a1.559,1.559,0,1,0,3.1,0v-8.51h9.24a3.525,3.525,0,0,0,2.92-.8,4.256,4.256,0,0,0,.91-3.03v-7.84c0.14-2.74-1.13-4.03-3.83-3.86h0Zm-20,12.72a1.612,1.612,0,0,1-2.01-2v-5.87a2.386,2.386,0,0,1,.41-1.64,2.3,2.3,0,0,1,1.6-.4h7.66v9.91h-7.66Zm20.74-2a1.6,1.6,0,0,1-2,2h-7.98v-9.91h7.98a2.322,2.322,0,0,1,1.6.4,2.394,2.394,0,0,1,.4,1.64v5.87Zm-26.86,32.92a1.45,1.45,0,1,0,2.88,0v-2.67a1.26,1.26,0,0,1,1.41-1.44h5.24c-0.12,2.5-.63,4.28-1.55,5.34a7.165,7.165,0,0,1-4.22,2.18q-1.68.315-1.68,1.41a1.207,1.207,0,0,0,1.33,1.4,10.672,10.672,0,0,0,3.9-1.19,7.164,7.164,0,0,0,3.55-3.24,15.272,15.272,0,0,0,1.31-5.27l0.07-.63h4.53v7.59a1.977,1.977,0,0,0,.84,1.72c0.47,0.31,1.94.46,4.4,0.46,2.08,0,3.47-.31,4.15-0.92,0.7-.63,1.05-1.82,1.05-3.58a1.15,1.15,0,0,0-1.37-1.23,1.265,1.265,0,0,0-1.33,1.3,2.343,2.343,0,0,1-.6,1.62,7.016,7.016,0,0,1-2.36.28c-1.33,0-2-.4-2-1.2v-6.04h6.78a1.273,1.273,0,0,1,1.44,1.44v2.6a1.437,1.437,0,1,0,2.85,0v-3.31a3,3,0,0,0-.68-2.54,3.743,3.743,0,0,0-2.66-.8h-10.65v-2.14a1.493,1.493,0,0,0-.37-1.13,1.7,1.7,0,0,0-1.18-.35,1.337,1.337,0,0,0-1.54,1.48v2.14h-10.2q-3.585-.165-3.34,3.34v3.38Zm29.43,17.61h-12.91v-6.68h10.55c1.1,0,1.65-.43,1.65-1.3s-0.55-1.3-1.65-1.3h-23.45c-1.1,0-1.65.43-1.65,1.3s0.55,1.3,1.65,1.3h10.06v6.68h-12.41c-1.13,0-1.69.46-1.69,1.37,0,0.89.56,1.34,1.69,1.34h28.16c1.1,0,1.65-.45,1.65-1.34,0-.91-0.55-1.37-1.65-1.37h0Zm0.77,33.24h-11.78l0.88-1.55h7.14a2.816,2.816,0,0,0,2.16-.58,2.656,2.656,0,0,0,.69-2.02v-1.3c0.14-1.71-.81-2.57-2.85-2.57h-4.78v-1.3h4.78a2.6,2.6,0,0,0,2.16-.61,3.2,3.2,0,0,0,.69-2.27v-1.2h1.02a1,1,0,0,0,1.19-1.05,1.01,1.01,0,0,0-1.19-1.09h-1.02v-1.09a2.62,2.62,0,0,0-.6-2.16,3.124,3.124,0,0,0-2.25-.69h-4.78v-1.05a1.265,1.265,0,1,0-2.53,0v1.05h-4.36a2.585,2.585,0,0,0-2.15.6,3.217,3.217,0,0,0-.67,2.25v1.09h-1.05a1.014,1.014,0,0,0-1.2,1.09,1,1,0,0,0,1.2,1.05h1.05v1.2a2.689,2.689,0,0,0,.6,2.18,3.033,3.033,0,0,0,2.22.7h4.36v1.3h-4.36a3.1,3.1,0,0,0-2.24.58,2.235,2.235,0,0,0-.58,1.99v1.3a2.2,2.2,0,0,0,.57,1.97,3.323,3.323,0,0,0,2.25.63h1.82l-0.91,1.55h-5.48a1.127,1.127,0,1,0,0,2.25h3.97l-0.25.24a4.325,4.325,0,0,0-1.12,1.97c0,0.73.51,1.2,1.54,1.41l4.89,1.02a22.206,22.206,0,0,1-7.14,1.05,13.725,13.725,0,0,0-2.28.18,0.95,0.95,0,0,0-.56.98q0,1.2,1.68,1.2,7.815,0,11.57-2.46c2.11,0.77,3.8,1.42,5.06,1.93a9.436,9.436,0,0,0,2.08.71,1.2,1.2,0,0,0,1.33-1.38,1.379,1.379,0,0,0-1.09-1.23q-1.335-.525-5.37-1.75a14.372,14.372,0,0,0,2.32-3.87h3.37a1.127,1.127,0,1,0,0-2.25h0Zm-19.37-2.6c0-.49-0.66-1.75-1.97-3.76a2.211,2.211,0,0,0-1.37-1.23,1.04,1.04,0,0,0-.77.35v-4.5h1.93a1.167,1.167,0,0,0,1.3-1.34,1.146,1.146,0,0,0-1.3-1.3h-1.93v-6.01a1.268,1.268,0,0,0-.3-0.93,1.326,1.326,0,0,0-.97-0.3,1.118,1.118,0,0,0-1.3,1.23v6.01h-3.34a1.244,1.244,0,0,0-1.44,1.37,1.206,1.206,0,0,0,1.44,1.27h3.16a30.977,30.977,0,0,1-4.25,10.9,2.274,2.274,0,0,0-.46,1.26,1.2,1.2,0,0,0,1.27,1.44c1.01,0,2.21-2.53,3.62-7.59v14.9a1.12,1.12,0,0,0,1.27,1.27,1.137,1.137,0,0,0,1.3-1.27v-15.22l0.17,0.32a20.408,20.408,0,0,1,1.62,3.16,1.126,1.126,0,0,0,.98.99c0.89,0,1.34-.34,1.34-1.02h0Zm10.83-14.7h4.01a0.892,0.892,0,0,1,.72.2,1.1,1.1,0,0,1,.22.79v0.77h-4.95V1979Zm-7.17.99a1,1,0,0,1,.24-0.76,1.074,1.074,0,0,1,.74-0.23h3.66v1.76h-4.64v-0.77Zm0.98,4.81a0.953,0.953,0,0,1-.76-0.19,1.114,1.114,0,0,1-.22-0.79v-0.92h4.64v1.9h-3.66Zm6.19-1.9h4.95v0.92a0.931,0.931,0,0,1-.19.77,1.084,1.084,0,0,1-.75.21h-4.01v-1.9Zm0,7.53h4.11a0.705,0.705,0,0,1,.67.21,1.926,1.926,0,0,1,.17,1.02,1.128,1.128,0,0,1-.17.75,0.892,0.892,0,0,1-.67.2h-4.11v-2.18Zm-7.17,1.05a1.29,1.29,0,0,1,.19-0.84,0.907,0.907,0,0,1,.68-0.21h3.77v2.18h-3.77a0.771,0.771,0,0,1-.68-0.21,1.574,1.574,0,0,1-.19-0.92h0Zm7.41,10.23c-2.67-.65-4.33-1.02-4.99-1.09-0.58-.07-0.88-0.25-0.88-0.56a0.788,0.788,0,0,1,.25-0.49l0.74-1.02h6.99a7.932,7.932,0,0,1-2.11,3.16h0Zm-13.32,31.52a7.4,7.4,0,0,0,.68,1.09,0.838,0.838,0,0,0,.58.35,1.091,1.091,0,0,0,1.27-1.2,3.8,3.8,0,0,0-.7-1.93l-0.42-.67a13.723,13.723,0,0,0-1.32-2,1.5,1.5,0,0,0-.97-0.64,0.99,0.99,0,0,0-.77.36v-4.43h2.7c1.06,0,1.59-.45,1.59-1.34,0-.87-0.53-1.3-1.59-1.3h-2.7v-5.77a1.378,1.378,0,1,0-2.75,0v5.77h-3.19c-1.04,0-1.55.43-1.55,1.3a1.284,1.284,0,0,0,1.55,1.34h2.98q-1.365,7.1-4.21,10.97a2.292,2.292,0,0,0-.5,1.3,1.693,1.693,0,0,0,.28,1.07,1.16,1.16,0,0,0,.92.33c0.49,0,1.04-.6,1.65-1.79a40.629,40.629,0,0,0,2.07-5.24v14.13a1.379,1.379,0,1,0,2.75,0v-14.76l0.1,0.17c0.75,1.36,1.27,2.32,1.55,2.89h0Zm21.27,9.42a15.451,15.451,0,0,1-5.77-3.48v-0.07a31.024,31.024,0,0,0,3.69-6.65,16.765,16.765,0,0,0,1.66-5.87c0-1.47-1.03-2.21-3.1-2.21H1477.1c0.05-1.46.07-2.36,0.07-2.71a8.877,8.877,0,0,1,.15-2.21,1.473,1.473,0,0,1,1.47-.71h12.41c1.13,0,1.69-.44,1.69-1.33a1.3,1.3,0,0,0-.4-1.04,2.036,2.036,0,0,0-1.29-.33h-13.78c-2.06,0-3.09,1.14-3.09,3.44v2.64q0,8.64-.35,11.6a17,17,0,0,1-3.59,8.72,2.554,2.554,0,0,0-.7,1.33,1.191,1.191,0,0,0,1.4,1.3q1.2,0,2.85-2.67a18.488,18.488,0,0,0,2.32-6.15c0.19-1.03.34-2.27,0.46-3.71s0.21-3.29.28-5.54h10.12a1.052,1.052,0,0,1,.72.22,0.749,0.749,0,0,1,.27.63,17.133,17.133,0,0,1-1.09,3.62c-0.42,1.15-.85,2.17-1.28,3.06a19.365,19.365,0,0,1-1.5,2.53,14.54,14.54,0,0,1-2.78-6.15l-0.31-1.44a1.172,1.172,0,0,0-1.23-.99,1.282,1.282,0,0,0-.95.32,1.062,1.062,0,0,0-.28.88l0.14,1.33a19.831,19.831,0,0,0,3.44,8.26v0.07a18.024,18.024,0,0,1-5.55,3.48q-2.04.885-2.04,1.8a1.174,1.174,0,0,0,1.37,1.4,3.865,3.865,0,0,0,1.3-.35,13.233,13.233,0,0,0,2.07-1.09,28.9,28.9,0,0,0,4.5-3.3h0.07a24.734,24.734,0,0,0,3.34,2.63c2.14,1.32,3.59,1.97,4.36,1.97a1.343,1.343,0,0,0,1.41-1.61,1.694,1.694,0,0,0-1.44-1.62h0Zm-72.24-142.64h29.11a1.142,1.142,0,1,0,0-2.25h-13.22v-0.95c0-.86-0.52-1.3-1.55-1.3a1.268,1.268,0,0,0-1.54,1.3v0.95h-12.8c-0.94,0-1.41.38-1.41,1.13s0.47,1.12,1.41,1.12h0Zm5.03,6.54h19.05a1.756,1.756,0,0,0,2.01-1.97v-1.3a1.808,1.808,0,0,0-2.08-2h-18.98a1.8,1.8,0,0,0-2.08,2v1.3a1.787,1.787,0,0,0,2.08,1.97h0Zm17.54-1.83h-16.1a0.738,0.738,0,0,1-.56-0.17,1.175,1.175,0,0,1,0-1.25,0.7,0.7,0,0,1,.56-0.19h16.1a0.806,0.806,0,0,1,0,1.61h0Zm-21.83,9.36a1.388,1.388,0,0,0,1.47-1.66v-1.72a0.779,0.779,0,0,1,.88-0.88h22.82a0.789,0.789,0,0,1,.91.88v1.72a1.49,1.49,0,1,0,2.96,0v-1.9a2.328,2.328,0,0,0-.65-2.05,3.636,3.636,0,0,0-2.41-.65h-24.36a3.2,3.2,0,0,0-2.36.6,2.693,2.693,0,0,0-.74,2.1v1.9a1.391,1.391,0,0,0,1.48,1.66h0Zm10.83,13.5q4.065,0,5.52-1.24a4.8,4.8,0,0,0,1.44-3.86,8.779,8.779,0,0,0-.32-2.29,25.345,25.345,0,0,0,6.12,4.22,13.047,13.047,0,0,0,4.74,1.69,1.306,1.306,0,0,0,1.48-1.48c0-.72-0.66-1.25-1.97-1.58a23.04,23.04,0,0,1-9.03-4.08c4.64-1.54,6.96-2.73,6.96-3.55a1.263,1.263,0,0,0-1.51-1.33,4.444,4.444,0,0,0-1.76.73,41.563,41.563,0,0,1-6.01,2.96,12.307,12.307,0,0,0-3.45-3.8l1.48-.77h9.14a1.032,1.032,0,1,0,0-2.04h-19.79a1.028,1.028,0,1,0,0,2.04h6.85a43.672,43.672,0,0,1-9.77,2.6,4.853,4.853,0,0,0-1.65.49,0.9,0.9,0,0,0-.53.77,0.945,0.945,0,0,0,1.05,1.09,25.94,25.94,0,0,0,4.75-1.02,41.988,41.988,0,0,0,6.43-2.18l1.2,1.09a45.67,45.67,0,0,1-11.85,3.94c-1.01.21-1.51,0.6-1.51,1.16a1.01,1.01,0,0,0,1.19,1.09,26.475,26.475,0,0,0,5.66-1.51,39.661,39.661,0,0,0,7.63-3.34,7.017,7.017,0,0,1,.95,1.55l-0.1.03a43.428,43.428,0,0,1-13.89,5.28c-1.59.35-2.39,0.83-2.39,1.44a1.085,1.085,0,0,0,1.26,1.19c1.32,0,3.73-.69,7.25-2.07a47.507,47.507,0,0,0,8.54-4.19l0.14,1.52a2.445,2.445,0,0,1-1.12,2.42,5.137,5.137,0,0,1-2.25.35c-1.65,0-2.47.44-2.47,1.3a1.321,1.321,0,0,0,1.59,1.38h0Zm-10.9,18.85a1.354,1.354,0,0,0,1.44-1.61v-2.18a1.21,1.21,0,0,1,1.3-1.34h22.18a1.225,1.225,0,0,1,1.34,1.34v2.21a1.446,1.446,0,1,0,2.88,0v-3.13a2.906,2.906,0,0,0-.63-2.34,3.333,3.333,0,0,0-2.39-.72h-10.93v-2.04a1.566,1.566,0,0,0-3.13,0v2.04h-10.52a2.8,2.8,0,0,0-2.3.65,3.421,3.421,0,0,0-.72,2.41v3.1a1.369,1.369,0,0,0,1.48,1.61h0Zm15.57,19.76,4.43,0.11a34.6,34.6,0,0,0,5.45-.34,5.229,5.229,0,0,0,2.67-.93c0.78-.77,1.16-2.24,1.16-4.39a1.748,1.748,0,0,0-.38-1.22,1.641,1.641,0,0,0-1.23-.4,1.566,1.566,0,0,0-1.62,1.69,5.076,5.076,0,0,1-.39,1.97c-0.26.44-.96,0.68-2.11,0.7l-3.48.14q-5.055-.105-5.52-0.21a1.559,1.559,0,0,1-1.37-1.69v-5.2l14.17-1.2a1.451,1.451,0,0,0,1.62-1.47,1.187,1.187,0,0,0-1.34-1.34h-0.39l-14.06,1.2v-5.42q4.5-.63,7.28-1.19c2.51-.52,3.76-1.14,3.76-1.87a1.289,1.289,0,0,0-1.48-1.44,4.9,4.9,0,0,0-1.16.25q-5.445,1.575-16.98,2.53l-2.56.21a1.236,1.236,0,0,0-1.23,1.26,1.189,1.189,0,0,0,1.4,1.41l1.66-.14,6.43-.63v5.31l-10.34.84q-1.65.18-1.65,1.44a1.337,1.337,0,0,0,.4,1.06,1.708,1.708,0,0,0,1.25.28l10.34-.85v6.37a2.816,2.816,0,0,0,1.05,2.39c0.61,0.47,2.02.72,4.22,0.77h0Zm-16.28,38.93c0.82,0,1.87-.88,3.13-2.63a17.784,17.784,0,0,0,2.85-6.4,3.869,3.869,0,0,0,.41.47c0.24,0.27.52,0.59,0.82,0.97l0.53,0.63,1.37,1.65a2.05,2.05,0,0,0,1.37,1.02,1.185,1.185,0,0,0,1.41-1.26q0-.99-3.17-4.04a2.662,2.662,0,0,0-1.61-.99,1.237,1.237,0,0,0-.88.42c0.18-1.15.34-2.47,0.45-3.97h3.63c1.1,0,1.65-.46,1.65-1.37,0-.89-0.55-1.34-1.65-1.34h-3.56l0.04-.45,0.07-4.08h2.88c1.08,0,1.62-.46,1.62-1.37s-0.54-1.37-1.62-1.37h-2.84l0.03-4.54c0-1.08-.46-1.62-1.37-1.62-0.94,0-1.41.57-1.41,1.69l0.04,4.47h-3.31c-1.1,0-1.65.45-1.65,1.37s0.55,1.37,1.65,1.37h3.31l-0.04.53-0.03,4h-4.01c-1.08,0-1.62.45-1.62,1.34,0,0.91.54,1.37,1.62,1.37h3.9c-0.09,1.36-.19,2.46-0.3,3.29a9,9,0,0,1-.4,1.91,14.826,14.826,0,0,1-3.8,5.91,6.359,6.359,0,0,0-.77.88,1.141,1.141,0,0,0-.25.67,1.32,1.32,0,0,0,1.51,1.47h0Zm9.04,1.37a8.478,8.478,0,0,0,2.43-.7,10.656,10.656,0,0,0,5.3-3.87,13.019,13.019,0,0,0,1.9-6.29h2.6v7.88a2.325,2.325,0,0,0,.85,1.86c0.47,0.35,1.71.53,3.72,0.53,2.21,0,3.57-.44,4.08-1.3a7.794,7.794,0,0,0,.71-3.8c0-1.06-.44-1.58-1.3-1.58a1.221,1.221,0,0,0-.97.38,1.944,1.944,0,0,0-.37,1.2,6.434,6.434,0,0,1-.28,1.83c-0.17.33-.82,0.49-1.97,0.49-1.17,0-1.76-.41-1.76-1.23v-6.26h1.2a3.007,3.007,0,0,0,2.46-.7,3.706,3.706,0,0,0,.77-2.6v-12.87a3.136,3.136,0,0,0-.68-2.5,3.583,3.583,0,0,0-2.55-.77h-9.14a3.017,3.017,0,0,0-2.46.69,3.5,3.5,0,0,0-.78,2.54v12.94c-0.09,2.18.97,3.27,3.2,3.27a7.81,7.81,0,0,1-1.62,4.99,10.568,10.568,0,0,1-5.13,2.96c-1.05.32-1.58,0.83-1.58,1.51a1.223,1.223,0,0,0,1.37,1.4h0Zm16.63-24.71h-10.16v-2.07a1,1,0,0,1,1.09-1.09h7.94a1.249,1.249,0,0,1,.83.31,1.064,1.064,0,0,1,.3.81v2.04Zm-10.16,5.55v-3.23h10.16v3.23h-10.16Zm9.03,5.91h-7.94a1.319,1.319,0,0,1-.83-0.28,1.077,1.077,0,0,1-.26-0.81v-2.5h10.16v2.47a1.033,1.033,0,0,1-1.13,1.12h0Zm-19.47,53.14c0.91,0,1.37-.54,1.37-1.62v-15.72l0.77,1.62c0.68,1.41,1.27,2.11,1.76,2.11a2.047,2.047,0,0,0,.53-0.18l-0.11.53c0,0.94.38,1.41,1.13,1.41q1.155,0,4.29-1.76a43.505,43.505,0,0,0,5.3-3.48,23.177,23.177,0,0,0,4.82,3.2,11.687,11.687,0,0,0,4.32,1.58,1.279,1.279,0,0,0,1.38-1.51c0-.8-0.66-1.37-1.97-1.72a20.919,20.919,0,0,1-6.61-3.13l0.07-.11a34.126,34.126,0,0,0,4.11-4.64c1.27-1.76,1.9-2.93,1.9-3.51,0-1.29-1.03-1.94-3.09-1.94h-7.67a7.55,7.55,0,0,0,.71-1.97,1.185,1.185,0,0,0-1.41-1.26,1.767,1.767,0,0,0-1.62,1.4,29.982,29.982,0,0,1-4.43,8.09,3.478,3.478,0,0,0-.88,1.62,1.171,1.171,0,0,0,1.34,1.3q1.2,0,3.94-4.61a18.413,18.413,0,0,0,3.2,5.38,32.942,32.942,0,0,1-7.21,4.11l-0.88.39,0.03-.21a6.474,6.474,0,0,0-1.12-2.36c-0.73-1.19-1.3-1.79-1.72-1.79a1.124,1.124,0,0,0-.88.46v-3.9h2.39a1.214,1.214,0,0,0,1.37-1.37,1.2,1.2,0,0,0-1.37-1.34h-2.39v-5.73a1.372,1.372,0,1,0-2.74,0v5.73h-3.38a1.367,1.367,0,1,0,0,2.71h3.13a33.765,33.765,0,0,1-4.46,11.04,2.4,2.4,0,0,0-.5,1.26,1.236,1.236,0,0,0,1.3,1.48q0.81,0,2.04-2.67a29.414,29.414,0,0,0,1.87-5.07v14.56c0,1.08.45,1.62,1.37,1.62h0Zm14.94-20.4a12.787,12.787,0,0,1-3.45-5.9h7.63c0.35,0,.53.13,0.53,0.39a11.511,11.511,0,0,1-1.65,2.28,25.193,25.193,0,0,1-3.06,3.23h0Zm-4.57,19.27h9.28q3.555,0.285,3.27-3.27v-5.27q0.285-3.555-3.27-3.27h-9.28q-3.525-.285-3.27,3.27v5.27q-0.255,3.51,3.27,3.27h0Zm8.58-2.6h-8.02a0.946,0.946,0,0,1-1.09-1.09v-4.43a0.946,0.946,0,0,1,1.09-1.09h8.02a0.949,0.949,0,0,1,1.09,1.09v4.43a0.946,0.946,0,0,1-1.09,1.09h0Z" transform="translate(-1417.88 -1895.44)"/>
</svg>
