<?xml version="1.0" encoding="utf-8"?>
<!-- Generator: Adobe Illustrator 24.0.3, SVG Export Plug-In . SVG Version: 6.00 Build 0)  -->
<svg version="1.1" id="introTitle1.svg" xmlns="http://www.w3.org/2000/svg" xmlns:xlink="http://www.w3.org/1999/xlink" x="0px"
	 y="0px" viewBox="0 0 194 474" style="enable-background:new 0 0 194 474;" xml:space="preserve">
<style type="text/css">
	.st0{fill:#9ABC58;}
	.st1{fill:#FFFFFF;}
	.st2{fill-rule:evenodd;clip-rule:evenodd;}
	.st3{enable-background:new    ;}
	.st4{fill-rule:evenodd;clip-rule:evenodd;fill:#719C45;}
</style>
<rect id="矩形_1" y="105.4" class="st0" width="194" height="368.6"/>
<rect id="矩形_1_拷貝" y="113.5" class="st1" width="194" height="352.5"/>
<path id="宜誠永續經營_安心幸福成家" class="st2" d="M107.4,187c0.8,0.1,1.5-0.5,1.5-1.3c0-0.1,0-0.3,0-0.4v-2.6
	c-0.1-0.6,0.3-1.2,0.9-1.3c0.1,0,0.2,0,0.3,0h22c0.6-0.1,1.2,0.4,1.2,1.1c0,0.1,0,0.1,0,0.2v2.6c-0.1,0.8,0.5,1.6,1.4,1.7
	s1.6-0.5,1.7-1.4c0-0.1,0-0.2,0-0.3v-3.2c0.2-0.9-0.1-1.8-0.7-2.5c-0.7-0.6-1.7-0.9-2.6-0.8h-10.6V177c0-0.9-0.8-1.6-1.7-1.5
	c-0.8,0-1.5,0.7-1.5,1.5v1.8h-10.2c-0.9-0.1-1.8,0.1-2.5,0.7c-0.6,0.7-0.9,1.7-0.8,2.6v3.2c-0.1,0.8,0.4,1.5,1.1,1.7
	C107.1,187,107.2,187,107.4,187L107.4,187L107.4,187z M106.7,206.3h28.8c1.1,0,1.7-0.4,1.7-1.3c0-0.9-0.6-1.4-1.7-1.4h-4.3v-15.7
	c0.1-0.9-0.1-1.8-0.7-2.5c-0.7-0.6-1.7-0.9-2.6-0.8h-13.5c-0.9-0.1-1.8,0.1-2.5,0.7c-0.6,0.7-0.9,1.6-0.8,2.6v15.7h-4.3
	c-1.1,0-1.7,0.4-1.7,1.4C105.1,205.8,105.6,206.3,106.7,206.3L106.7,206.3z M128.2,190.9h-14.1v-2.4c-0.1-0.6,0.4-1.2,1-1.3
	c0.1,0,0.2,0,0.2,0H127c0.6-0.1,1.2,0.4,1.2,1.1c0,0.1,0,0.1,0,0.2L128.2,190.9L128.2,190.9z M114.1,197.1v-3.8h14.1v3.8H114.1z
	 M114.1,203.6v-4h14.1v4H114.1z M136,238.1c-0.7,0-1.1,0.6-1.1,1.8c-0.1,2.2-0.3,3.3-0.7,3.4c-0.5-0.3-0.9-0.8-1.2-1.3
	c-0.7-0.9-1.1-1.9-1.5-3c1.2-1.9,2.2-3.8,3.1-5.9c0.7-1.5,1.3-3,1.6-4.6c0.1-0.7-0.4-1.2-1.1-1.3c-0.1,0-0.2,0-0.3,0
	c-0.6,0-1.1,0.5-1.4,1.4c-0.7,2.4-1.6,4.7-2.8,6.9c-0.6-3.5-0.9-7.1-0.9-10.6v-1.3h5.8c1.1,0,1.7-0.4,1.7-1.3s-0.6-1.3-1.7-1.3h-5.8
	v-3.8c0-1.3-0.5-2-1.4-2c-0.7-0.1-1.3,0.4-1.4,1c0,0.1,0,0.2,0,0.3l0,4.4h-6.4c-1.4,0-2.2,0.4-2.7,1.1c-0.4,1.3-0.6,2.6-0.5,3.9v5.3
	c0,5.3-0.5,9.2-1.4,11.6c-0.2,0.5-0.3,1-0.4,1.5c-0.1,0.7,0.4,1.3,1.1,1.3c0.1,0,0.2,0,0.3,0c1.5,0,2.4-3.4,2.8-10.2
	c0-1,0.1-2.5,0.1-4.5h2.6c0.5-0.1,1,0.3,1.1,0.9c0,0.1,0,0.2,0,0.3c-0.1,1.3-0.2,3.3-0.4,6.1c-0.1,0.2-0.3,0.4-0.5,0.6
	c-0.2,0.2-0.5,0.3-0.8,0.3c-1.1,0.1-1.7,0.6-1.7,1.3c-0.1,0.8,0.5,1.4,1.2,1.5c0.1,0,0.3,0,0.4,0c2.2,0,3.5-1.2,3.8-3.6
	c0.2-2.4,0.3-4.7,0.3-7.1c0-1.8-0.9-2.8-2.7-2.8h-3.4v-3c0-1.2,0.4-1.7,1.3-1.7h5.8c0.1,5.1,0.7,10.2,1.6,15.2
	c-1.6,2.1-3.5,3.9-5.8,5.2c-0.6,0.3-1.1,0.8-1.2,1.5c-0.1,0.7,0.3,1.3,1,1.4c0.1,0,0.2,0,0.3,0c0.7,0,1.8-0.6,3.3-1.9
	c1.2-1,2.4-2.2,3.4-3.4c1.7,3.6,3.3,5.4,4.9,5.4c1.7,0,2.6-2.5,2.6-7.4c0.1-0.6-0.3-1.2-0.9-1.3C136.2,238.1,136.1,238.1,136,238.1
	L136,238.1L136,238.1z M132.2,218.8c0.6,1.1,1.1,1.6,1.6,1.6c0.7,0.1,1.4-0.3,1.5-1c0-0.1,0-0.2,0-0.4c-0.2-0.7-0.5-1.3-1-1.9
	c-0.7-1-1.2-1.5-1.7-1.5c-1,0-1.5,0.4-1.5,1.1c0,0.4,0.2,0.9,0.5,1.2L132.2,218.8z M107.6,219.2h6.5c0.7,0.1,1.4-0.4,1.5-1.1
	c0.1-0.7-0.4-1.4-1.1-1.5c-0.1,0-0.3,0-0.4,0h-6.5c-1.1,0-1.6,0.4-1.6,1.3S106.5,219.2,107.6,219.2L107.6,219.2L107.6,219.2z
	 M115.1,223.9c1.1,0,1.6-0.4,1.6-1.3s-0.5-1.3-1.6-1.3h-8.6c-0.7-0.1-1.4,0.4-1.5,1.1c-0.1,0.7,0.4,1.4,1.1,1.5c0.1,0,0.3,0,0.4,0
	L115.1,223.9L115.1,223.9z M107.7,226c-0.7-0.1-1.3,0.3-1.5,0.9c0,0.1,0,0.2,0,0.3c-0.1,0.7,0.5,1.3,1.1,1.3c0.1,0,0.2,0,0.3,0h6.4
	c0.7,0.1,1.3-0.3,1.5-1c0-0.1,0-0.2,0-0.3c0-0.4-0.1-0.7-0.4-0.9c-0.3-0.2-0.7-0.4-1.1-0.3H107.7z M107.7,233.2h6.5
	c0.7,0.1,1.3-0.3,1.5-0.9c0-0.1,0-0.2,0-0.3c0-0.7-0.5-1.3-1.1-1.3c-0.1,0-0.2,0-0.3,0h-6.5c-0.7-0.1-1.3,0.3-1.5,1
	c0,0.1,0,0.2,0,0.3c0,0.7,0.5,1.3,1.1,1.3C107.4,233.3,107.5,233.2,107.7,233.2L107.7,233.2z M112.5,235.3h-3.4
	c-1.4-0.2-2.7,0.8-2.8,2.1c0,0.2,0,0.5,0,0.7v4.8c0,1.9,0.9,2.8,2.8,2.8h3.4c1.4,0.2,2.7-0.8,2.9-2.2c0-0.2,0-0.5,0-0.7v-4.8
	C115.4,236.2,114.4,235.3,112.5,235.3L112.5,235.3z M112.9,242.5c0,0.4-0.3,0.8-0.7,0.9c0,0-0.1,0-0.1,0h-2.5
	c-0.4,0.1-0.8-0.2-0.8-0.7c0-0.1,0-0.1,0-0.2v-3.9c0-0.4,0.3-0.8,0.7-0.8c0,0,0.1,0,0.1,0h2.5c0.4-0.1,0.8,0.2,0.8,0.6
	c0,0.1,0,0.1,0,0.2L112.9,242.5L112.9,242.5z M125.4,259.8c0.7,0.1,1.4-0.4,1.5-1.2c0-0.1,0-0.2,0-0.4c0-0.7-1-1.3-3.1-1.8
	c-2.6-0.8-5.2-1.4-7.9-1.7c-0.4,0-0.8,0.1-1.1,0.4c-0.3,0.3-0.4,0.6-0.4,1c-0.1,0.4,0.1,0.8,0.5,0.9c0.8,0.3,1.7,0.5,2.5,0.7
	c2,0.4,3.8,0.9,5.5,1.4C123.6,259.4,124.5,259.6,125.4,259.8L125.4,259.8L125.4,259.8z M116.8,286.7h2.5c2.5,0.2,3.7-1,3.5-3.5
	v-12.3c2,4.3,5,8.1,8.9,10.9c1.9,1.4,3.2,2,3.9,2c0.8,0.1,1.5-0.5,1.6-1.3c0-0.1,0-0.3,0-0.4c-0.1-0.8-0.7-1.5-1.4-1.8
	c-3.6-1.7-6.7-4.3-9-7.5c5.6-4.2,8.4-6.8,8.4-7.9c0.1-0.8-0.5-1.5-1.2-1.5c-0.1,0-0.3,0-0.4,0c-0.7,0.1-1.4,0.5-1.8,1.1
	c-1.5,1.7-3.6,3.8-6.4,6.3c-1-1.6-1.9-3.3-2.6-5.1V264c0.1-0.8-0.1-1.6-0.6-2.2c-0.7-0.5-1.5-0.8-2.3-0.7h-9.2
	c-1.1,0-1.6,0.5-1.6,1.4s0.5,1.4,1.6,1.4h8.1c0.7,0,1.2,0.5,1.2,1.2c0,0.1,0,0.1,0,0.2v17.1c0.1,0.7-0.5,1.4-1.2,1.4
	c-0.1,0-0.2,0-0.3,0h-1.8c-0.7-0.1-1.4,0.4-1.6,1.1c0,0.1,0,0.3,0,0.4c0,0.4,0.1,0.8,0.4,1.1C115.9,286.6,116.3,286.7,116.8,286.7
	L116.8,286.7L116.8,286.7z M106.5,284c1,0,2.4-0.9,4.2-2.6c1.8-1.8,3.3-3.8,4.4-6.2c0.9-1.7,1.4-3.5,1.6-5.4c0-1.4-0.9-2.1-2.7-2.1
	h-6.8c-0.7-0.2-1.4,0.3-1.6,1c0,0.1,0,0.2,0,0.4c0,0.9,0.5,1.4,1.6,1.4h5.3c0.3,0,0.6,0,0.8,0.2c0.2,0.2,0.3,0.4,0.2,0.6
	c0,0.9-0.7,2.3-2,4.4c-1.3,2.1-3.1,3.8-5.2,5c-0.7,0.3-1.2,1-1.3,1.8c-0.2,0.7,0.3,1.4,1,1.6C106.3,284,106.4,284,106.5,284
	L106.5,284z M117.5,298.5h7.9v1.4h-6.4c-0.5-0.1-1.1,0.3-1.2,0.8c-0.1,0.5,0.3,1.1,0.8,1.2c0.1,0,0.2,0,0.3,0h15.8
	c0.5,0.1,1.1-0.3,1.2-0.8c0.1-0.5-0.3-1.1-0.8-1.2c-0.1,0-0.2,0-0.3,0h-6.8v-1.4h8c0.6,0.1,1.1-0.2,1.2-0.8c0.1-0.6-0.2-1.1-0.8-1.2
	c-0.1,0-0.3,0-0.4,0h-8v-0.9c0-0.7-0.6-1.3-1.3-1.3c-0.7,0-1.3,0.6-1.3,1.3v0.9h-7.9c-0.6-0.1-1.1,0.2-1.2,0.8
	c-0.1,0.6,0.2,1.1,0.8,1.2C117.2,298.5,117.3,298.5,117.5,298.5L117.5,298.5z M114.4,311c0.3,1,0.7,1.5,1.2,1.5
	c0.4,0,0.7-0.1,0.9-0.4c0.2-0.2,0.3-0.5,0.2-0.8l-1-3c-0.5-1.5-1-2.2-1.5-2.2c-0.5-0.1-0.9,0.2-1,0.7c0,0.1,0,0.2,0,0.2
	c0.1,0.7,0.3,1.3,0.6,2l-3.8,0.2c3.8-5.5,5.7-8.7,5.7-9.5c0.1-0.5-0.3-1.1-0.8-1.2c-0.1,0-0.2,0-0.3,0c-0.6,0-1.1,0.3-1.4,0.9
	l-2.2,4.2l-1.9-1.7c2.1-3.4,3.1-5.5,3.1-6.4c0.1-0.6-0.4-1.2-1-1.2c-0.1,0-0.2,0-0.3,0c-0.6,0-1.2,0.7-1.7,2.2
	c-0.6,1.5-1.1,2.8-1.7,4c-0.4-0.3-0.8-0.6-1.3-0.6c-0.6,0-1.1,0.6-1,1.2c0,0.2,0.1,0.5,0.3,0.6c0.2,0.3,0.5,0.6,0.8,0.8l3.5,3.2
	l-2.2,3.6l-0.5,0c-1.3,0-2,0.4-2,1.2c0,0.3,0.1,0.7,0.3,1c0.2,0.2,0.6,0.4,0.9,0.3l3.6-0.4V325c-0.1,0.7,0.4,1.3,1.1,1.4
	c0.7,0.1,1.3-0.4,1.4-1.1c0-0.1,0-0.2,0-0.3v-13.8L114.4,311z M136.5,307.7v-2.1c0.2-1.2-0.7-2.4-2-2.6c-0.2,0-0.4,0-0.6,0h-14.2
	c-1.2-0.2-2.4,0.7-2.6,1.9c0,0.2,0,0.4,0,0.6v2.2c-0.1,0.7,0.2,1.4,0.6,1.9c0.6,0.5,1.3,0.7,2,0.6h14.2c1.3,0.2,2.4-0.7,2.6-2
	C136.6,308.2,136.6,308,136.5,307.7L136.5,307.7L136.5,307.7z M133.1,308.7h-12.6c-0.3,0-0.5-0.1-0.7-0.3c-0.2-0.2-0.3-0.5-0.2-0.7
	v-2c-0.1-0.5,0.3-0.9,0.7-0.9c0.1,0,0.2,0,0.2,0h2.8c-0.2,1-1.1,1.7-2.1,1.7c-0.3,0-0.5,0.1-0.8,0.2c-0.2,0.1-0.2,0.3-0.2,0.5
	c-0.1,0.4,0.2,0.8,0.7,0.9c0.1,0,0.2,0,0.2,0c1,0.1,2-0.2,2.8-0.8c0.7-0.7,1.2-1.6,1.4-2.6h2.2v1.4c0,0.4,0.2,0.8,0.6,1.1
	c0.5,0.3,1.1,0.4,1.7,0.3h4.3c0.1,0.5-0.2,0.9-0.6,1C133.3,308.7,133.2,308.7,133.1,308.7L133.1,308.7L133.1,308.7z M134.1,306h-3.8
	c-0.2,0-0.3,0-0.5-0.1c-0.1-0.1-0.2-0.2-0.2-0.3v-0.8h3.5c0.3,0,0.5,0.1,0.7,0.3C134,305.3,134.1,305.7,134.1,306L134.1,306
	L134.1,306z M120.8,311.5c-1.3-0.2-2.4,0.7-2.6,1.9c0,0.2,0,0.4,0,0.7v5.6c-0.2,1.3,0.7,2.5,2,2.6c0.2,0,0.4,0,0.7,0h12
	c1.3,0.2,2.4-0.7,2.6-2c0-0.2,0-0.4,0-0.6v-5.6c0.2-1.2-0.7-2.4-1.9-2.6c-0.2,0-0.4,0-0.6,0H120.8L120.8,311.5z M133.1,314.5h-12.4
	v-0.2c-0.1-0.5,0.2-0.9,0.7-0.9c0.1,0,0.2,0,0.2,0h10.6c0.5-0.1,0.9,0.3,0.9,0.7c0,0.1,0,0.2,0,0.2V314.5z M107.4,313.4
	c-0.7,0-1,0.6-1.1,1.8c-0.1,0.8-0.2,1.6-0.3,2.4c-0.2,0.8-0.4,1.9-0.7,3.1l-0.3,1.3c0,0.3,0.1,0.6,0.3,0.9c0.2,0.2,0.5,0.3,0.9,0.3
	c0.6,0,1.2-0.9,1.6-2.8c0.4-1.8,0.6-3.7,0.6-5.6C108.4,313.8,108.1,313.4,107.4,313.4L107.4,313.4L107.4,313.4z M116.7,321.1l-1-6
	l-0.2-1.1c-0.1-0.4-0.5-0.7-0.9-0.7c-0.3,0-0.5,0.1-0.8,0.2c-0.2,0.2-0.3,0.4-0.2,0.7l0.8,5.9c0.1,1.4,0.5,2.1,1.2,2.1
	c0.3,0,0.7-0.1,0.9-0.3C116.7,321.8,116.8,321.5,116.7,321.1L116.7,321.1L116.7,321.1z M120.7,317.5v-1.2h12.4v1.2H120.7z
	 M133.1,319.6c0.1,0.4-0.2,0.8-0.7,0.9c-0.1,0-0.2,0-0.2,0h-10.6c-0.4,0.1-0.8-0.2-0.9-0.7c0-0.1,0-0.2,0-0.2v-0.4h12.4L133.1,319.6
	L133.1,319.6z M123.5,322.5c-0.5,0-0.9,0.2-1.3,0.3c-0.9,0.3-1.7,0.5-2.6,0.7c-1,0.2-1.9,0.4-2.9,0.5c-1,0.1-1.4,0.4-1.4,1.1
	c-0.1,0.6,0.3,1.2,0.9,1.3c0.1,0,0.2,0,0.3,0c1.6-0.1,3.2-0.4,4.8-0.8c2.1-0.6,3.2-1.2,3.2-1.9c0-0.3-0.1-0.6-0.2-0.8
	C124,322.6,123.8,322.5,123.5,322.5L123.5,322.5L123.5,322.5z M135.5,324c-1.7-0.2-3.3-0.6-4.9-1.2c-0.4-0.1-0.8-0.2-1.2-0.2
	c-0.3,0-0.5,0.1-0.7,0.3c-0.2,0.2-0.3,0.5-0.3,0.8c0,0.6,1,1.2,3,1.9c1.4,0.5,2.8,0.8,4.3,0.9c0.7,0.1,1.3-0.3,1.4-1
	c0-0.1,0-0.2,0-0.3C137.2,324.5,136.6,324.2,135.5,324L135.5,324L135.5,324z M115.4,350.6c0.3,1.1,0.7,1.6,1.3,1.6
	c0.3,0,0.7-0.1,0.9-0.3c0.2-0.3,0.3-0.6,0.3-0.9c-0.2-1-0.5-2-0.9-2.9c-0.7-1.6-1.2-2.4-1.7-2.4c-0.3,0-0.6,0.1-0.8,0.3
	c-0.2,0.2-0.3,0.5-0.2,0.8l0.1,0.5l0.4,1.4l-4.1,0.3c1-1.2,2.3-3.1,3.9-5.4c0.8-1.2,1.4-2.1,1.7-2.6c0.3-0.4,0.4-0.8,0.5-1.2
	c0.1-0.7-0.4-1.2-1.1-1.3c-0.1,0-0.2,0-0.3,0c-0.3,0-0.6,0.1-0.8,0.3c-0.3,0.3-0.5,0.6-0.7,0.9l-2,3.5l-1.9-1.7
	c1.2-1.8,2.1-3.1,2.7-4.1c0.4-0.6,0.7-1.3,0.8-2c0.1-0.7-0.4-1.3-1.1-1.3c-0.1,0-0.2,0-0.3,0c-0.8,0.1-1.4,0.7-1.6,1.4
	c-0.7,1.5-1.4,3-2.3,4.5l-0.1,0c-0.3-0.3-0.7-0.5-1.1-0.5c-0.6-0.1-1.2,0.4-1.3,1c0,0.1,0,0.2,0,0.3c0,0.2,0.1,0.5,0.3,0.6
	c0.3,0.3,0.5,0.5,0.9,0.7c1.3,1,2.6,2,3.8,3.2l-2.5,3.6l-1.5,0.1c-0.7-0.1-1.3,0.4-1.3,1.1c0,0.1,0,0.1,0,0.2c0,0.4,0.1,0.8,0.4,1.1
	c0.3,0.3,0.7,0.4,1.1,0.3l4-0.5v13.4c-0.1,0.7,0.4,1.4,1.2,1.4c0.7,0.1,1.4-0.4,1.4-1.2c0-0.1,0-0.2,0-0.3v-13.7L115.4,350.6z
	 M119.1,338.4h16c1.1,0,1.6-0.4,1.6-1.3s-0.5-1.3-1.6-1.3h-16c-0.4,0-0.8,0.1-1.2,0.3c-0.3,0.2-0.4,0.6-0.4,1
	C117.5,338,118,338.4,119.1,338.4L119.1,338.4L119.1,338.4z M122.6,340.2c0.1-0.6-0.4-1.2-1-1.2c-0.1,0-0.2,0-0.3,0
	c-0.7,0.1-1.3,0.6-1.5,1.4l-1.1,3.2c-0.4,0.7-0.6,1.5-0.8,2.3c0.2,0.8,0.5,1.5,0.9,2.1c0.5,1,1,2,1.4,3c0.2,0.8,0.8,1.4,1.7,1.4
	c0.7,0.1,1.3-0.3,1.4-1c0-0.1,0-0.2,0-0.3c-0.3-1-0.8-1.9-1.4-2.7c-0.6-0.8-1.1-1.7-1.4-2.6c0-0.4,0.1-0.8,0.3-1.1
	c0.2-0.6,0.5-1.2,0.8-1.7C122.1,342.2,122.4,341.2,122.6,340.2L122.6,340.2L122.6,340.2z M128.8,340.3c0.1-0.6-0.4-1.2-1-1.3
	c-0.1,0-0.2,0-0.3,0c-0.3,0-0.7,0.1-0.9,0.4c-0.3,0.3-0.5,0.7-0.6,1.1l-1.1,3.2c-0.3,0.7-0.6,1.5-0.7,2.3c0.2,0.8,0.5,1.5,0.9,2.2
	c0.5,0.9,1,1.9,1.4,3c0.2,0.4,0.4,0.8,0.7,1.1c0.3,0.2,0.6,0.3,0.9,0.3c0.6,0.1,1.3-0.3,1.4-0.9c0-0.1,0-0.2,0-0.3
	c-0.3-1-0.8-1.9-1.4-2.8c-0.4-0.6-0.7-1.1-1-1.7c-0.2-0.3-0.3-0.6-0.4-0.9c0.2-1,0.5-2,1.1-2.8C128.2,342.1,128.6,341.2,128.8,340.3
	L128.8,340.3L128.8,340.3z M134.9,340.2c0.1-0.6-0.4-1.2-1.1-1.2c-0.1,0-0.2,0-0.3,0c-0.3,0-0.7,0.1-0.9,0.4
	c-0.3,0.4-0.5,0.8-0.6,1.2c-0.4,1.2-0.8,2.4-1.3,3.6c-0.2,0.5-0.4,1-0.5,1.6c0.1,0.6,0.3,1.2,0.6,1.8l1.4,2.7c0.7,1.5,1.3,2.2,2,2.2
	c0.7,0.1,1.4-0.4,1.5-1c0-0.1,0-0.2,0-0.4c0-0.4-0.7-1.6-2.1-3.8c-0.4-0.5-0.6-1-0.8-1.6c0.2-1,0.6-1.9,1.1-2.8
	C134.4,342.1,134.7,341.2,134.9,340.2L134.9,340.2L134.9,340.2z M117.8,360.3l-0.4-2.6l-0.2-0.7c-0.2-1.1-0.4-2-0.6-2.7
	c-0.1-0.4-0.2-0.8-0.4-1.2c-0.2-0.3-0.6-0.5-0.9-0.5c-0.3,0-0.7,0.1-0.9,0.3c-0.2,0.2-0.3,0.5-0.2,0.8l0.7,5.2
	c0,0.7,0.2,1.3,0.5,1.9c0.2,0.4,0.6,0.7,1.1,0.7c0.4,0,0.8-0.1,1.1-0.3C117.8,361,117.9,360.7,117.8,360.3L117.8,360.3L117.8,360.3z
	 M107.6,352.8c-0.8,0-1.2,0.5-1.3,1.6c0,2-0.4,3.9-1.1,5.7c-0.2,0.4-0.3,0.8-0.3,1.3c-0.1,0.6,0.4,1.2,1,1.2c0.1,0,0.2,0,0.3,0
	c0.8,0,1.5-1.1,1.9-3.3c0.4-1.7,0.6-3.4,0.6-5.1c0.1-0.6-0.3-1.2-0.9-1.4C107.8,352.8,107.7,352.8,107.6,352.8L107.6,352.8
	L107.6,352.8z M135.5,362.2h-7.1v-5.9h6c1.1,0,1.6-0.4,1.6-1.3s-0.5-1.3-1.6-1.3H120c-0.4,0-0.9,0.1-1.2,0.3c-0.3,0.2-0.4,0.6-0.4,1
	c0,0.4,0.1,0.7,0.4,1c0.4,0.2,0.8,0.4,1.2,0.3h5.7v5.9h-7.6c-1.1,0-1.6,0.4-1.6,1.3c0,0.4,0.1,0.7,0.4,1c0.4,0.2,0.8,0.4,1.2,0.3
	h17.4c1.1,0,1.6-0.4,1.6-1.3c0-0.4-0.1-0.7-0.4-1C136.4,362.3,136,362.1,135.5,362.2L135.5,362.2L135.5,362.2z M107.8,384.3
	c1.1-0.1,2.2-0.4,3.2-1c1-0.6,1.9-1.3,2.6-2.2c0.1,0.2,0.2,0.4,0.5,0.5c0.4,0.3,0.9,0.6,1.4,0.8c0.1,0.1,0.3,0.1,0.4,0.2
	c0.4,0.2,0.7,0.4,1.1,0.7c0.5,0.4,1.2,0.7,1.8,0.8c0.6,0.1,1.2-0.2,1.3-0.8c0-0.1,0-0.2,0-0.3c0-0.4-0.8-1-2.2-1.8
	c-0.9-0.6-2-0.9-3-1.1c-0.2,0-0.5,0.1-0.7,0.2c0.6-1.7,0.9-3.5,0.8-5.3c0.1-0.7-0.3-1.3-1-1.4c-0.1,0-0.2,0-0.3,0
	c-0.9,0-1.3,0.5-1.3,1.6c0,2.5-0.3,4.1-1,5c-0.9,1-2.1,1.6-3.4,1.9c-0.6,0-1.2,0.5-1.2,1.2c0,0.3,0.1,0.7,0.3,0.9
	C107.1,384.2,107.5,384.3,107.8,384.3L107.8,384.3L107.8,384.3z M122.2,384.4c1.2-0.1,2.3-0.4,3.3-1c0.6-0.3,1.1-0.6,1.6-1
	c0.5-0.4,0.9-0.8,1.2-1.3c0.2,0.4,0.6,0.8,1.1,0.9l3,1.5c0.6,0.4,1.3,0.7,2,0.9c0.6,0.1,1.1-0.4,1.1-0.9c0-0.1,0-0.2,0-0.3
	c0-0.5-0.8-1.2-2.5-2c-1-0.6-2.2-1-3.4-1.2c-0.2,0-0.4,0-0.6,0c0.7-1.6,0.9-3.4,0.8-5.1c0.1-0.7-0.3-1.3-1-1.4c-0.1,0-0.2,0-0.3,0
	c-0.6-0.1-1.2,0.3-1.3,0.9c0,0.1,0,0.2,0,0.3v1.5c0.1,1.2-0.2,2.4-0.9,3.4c-1.1,1.2-2.5,2-4.1,2.2c-0.6,0-1.2,0.6-1.2,1.2
	c-0.1,0.6,0.3,1.1,0.9,1.2C122,384.4,122.1,384.4,122.2,384.4L122.2,384.4L122.2,384.4z M132.9,379.8c0.5,0,1.2-0.5,2-1.6
	c0.6-0.6,1-1.4,1.2-2.2c0.1-0.6-0.4-1.1-0.9-1.1c-0.1,0-0.2,0-0.3,0c-0.5,0-1.2,0.7-2,2c-0.5,0.6-0.8,1.2-1.1,1.9
	c-0.1,0.5,0.3,1,0.9,1.1C132.7,379.8,132.8,379.8,132.9,379.8L132.9,379.8L132.9,379.8z M107.8,380.1c0.5,0,1-0.6,1.7-1.7
	c0.5-0.7,0.8-1.5,0.9-2.3c0-0.5-0.3-1-0.9-1c-0.1,0-0.2,0-0.3,0c-0.3,0-0.5,0.1-0.7,0.3c-0.2,0.3-0.4,0.6-0.6,0.9l-0.8,1.7
	c-0.3,0.4-0.4,0.8-0.5,1.2c0,0.5,0.4,1,0.9,1C107.6,380.1,107.7,380.1,107.8,380.1L107.8,380.1L107.8,380.1z M122.4,380.3
	c0.5,0,1.1-0.6,1.8-1.9c0.5-0.8,0.8-1.6,0.9-2.5c0-0.5-0.3-1-0.9-1c-0.1,0-0.2,0-0.3,0c-0.6,0-1,0.5-1.4,1.4
	c-0.2,0.6-0.5,1.1-0.8,1.7c-0.3,0.4-0.4,0.8-0.5,1.2c0,0.5,0.3,1,0.9,1.1C122.2,380.4,122.3,380.3,122.4,380.3L122.4,380.3
	L122.4,380.3z M117.5,379.4c0.5,0,1-0.5,1.6-1.4c0.4-0.6,0.8-1.3,0.9-2c0-0.5-0.4-1-0.9-1c-0.1,0-0.2,0-0.3,0c-0.4,0-1,0.5-1.7,1.6
	c-0.2,0.4-0.4,0.7-0.6,1c-0.1,0.2-0.2,0.4-0.2,0.6c-0.1,0.5,0.3,1,0.9,1.1C117.3,379.4,117.4,379.4,117.5,379.4L117.5,379.4
	L117.5,379.4z M133.4,384.7h-24.1c-0.9-0.1-1.8,0.1-2.5,0.7c-0.6,0.7-0.9,1.6-0.8,2.6v2.7c-0.1,0.7,0.3,1.4,1,1.5c0.1,0,0.2,0,0.4,0
	c0.7,0.1,1.3-0.4,1.4-1.1c0-0.1,0-0.2,0-0.4v-2.3c-0.1-0.7,0.4-1.3,1.1-1.3c0.1,0,0.2,0,0.2,0h22.4c0.7-0.1,1.3,0.4,1.3,1.1
	c0,0.1,0,0.2,0,0.2v2.3c0,0.8,0.6,1.4,1.3,1.5s1.4-0.6,1.5-1.3c0,0,0-0.1,0-0.1V388c0.1-0.9-0.1-1.8-0.7-2.5
	C135.2,384.9,134.3,384.6,133.4,384.7L133.4,384.7L133.4,384.7z M131.6,397.5h-10.8l0.7-2h7.7c1.9,0.1,2.8-0.8,2.8-2.7v-1.5
	c0.1-0.7-0.2-1.5-0.7-2c-0.6-0.5-1.4-0.7-2.1-0.6h-16c-1.9-0.1-2.8,0.8-2.8,2.7v1.5c-0.1,0.7,0.2,1.5,0.7,2c0.6,0.5,1.4,0.7,2.1,0.6
	h5.2l-0.4,2h-7.1c-1.9-0.1-2.8,0.8-2.8,2.7v1.9c-0.1,0.7,0.2,1.4,0.7,2c0.6,0.5,1.4,0.7,2.1,0.6h20.5c1.9,0.1,2.9-0.8,2.9-2.7v-1.8
	C134.5,398.4,133.5,397.5,131.6,397.5L131.6,397.5L131.6,397.5z M114.3,393.4c-0.5,0.1-0.9-0.3-1-0.7c0-0.1,0-0.1,0-0.2v-0.8
	c0-0.5,0.4-0.9,0.8-0.9c0,0,0.1,0,0.1,0h14c0.5-0.1,0.9,0.3,0.9,0.7c0,0.1,0,0.1,0,0.2v0.8c0.1,0.5-0.3,0.9-0.7,0.9
	c-0.1,0-0.2,0-0.2,0H114.3L114.3,393.4z M131.5,401.5c0.1,0.5-0.2,0.9-0.7,0.9c-0.1,0-0.2,0-0.2,0h-18.4c-0.3,0-0.5-0.1-0.7-0.3
	c-0.2-0.2-0.2-0.4-0.2-0.7v-0.9c-0.1-0.5,0.2-0.9,0.7-1c0.1,0,0.2,0,0.2,0h18.4c0.3,0,0.5,0.1,0.7,0.3c0.2,0.2,0.3,0.5,0.2,0.7
	L131.5,401.5L131.5,401.5z M64.1,187.4c0.7,0,1.4-0.5,1.4-1.3c0-0.1,0-0.2,0-0.4v-2.5c-0.1-0.7,0.3-1.3,1-1.5c0.1,0,0.3,0,0.5,0h22
	c0.4,0,0.8,0.1,1.1,0.3c0.3,0.3,0.4,0.7,0.4,1.1v2.5c0,0.4,0.1,0.9,0.4,1.2c0.6,0.5,1.5,0.5,2.1,0c0.3-0.4,0.4-0.8,0.4-1.2v-3.1
	c0.2-1-0.1-2-0.7-2.7c-0.8-0.6-1.8-0.9-2.7-0.7H79.3V177c0.1-0.7-0.4-1.4-1.1-1.5c-0.1,0-0.2,0-0.4,0c-0.7-0.1-1.4,0.4-1.5,1.1
	c0,0.1,0,0.3,0,0.4v2.2H66.1c-1-0.2-2,0.1-2.7,0.7c-0.6,0.8-0.9,1.8-0.7,2.7v3.1c-0.1,0.7,0.3,1.5,1.1,1.6
	C63.9,187.4,64,187.4,64.1,187.4L64.1,187.4L64.1,187.4z M90.5,207.5c0.9,0.1,1.7-0.6,1.7-1.5c0-0.1,0-0.1,0-0.2
	c0-0.7-0.5-1.4-1.2-1.6c-2.6-1.4-5.2-2.6-7.9-3.7c2.1-2.6,3.5-5.7,4.1-9h4.5c1.1,0,1.7-0.4,1.7-1.3c0-0.9-0.6-1.3-1.7-1.3H75.1
	c0.8-1.5,1.4-3.1,1.9-4.7c0-0.4-0.1-0.8-0.4-1.1c-0.3-0.3-0.8-0.4-1.2-0.4c-0.7,0-1.2,0.5-1.4,1.1l-2.1,5h-7.8
	c-1.1,0-1.7,0.4-1.7,1.3c0,0.9,0.5,1.3,1.7,1.3h6.5l-2,4c-0.2,0.5-0.4,1-0.4,1.5c0,0.4,0.2,0.9,0.5,1.2c0.4,0.4,0.9,0.6,1.5,0.7
	c2.6,0.7,5.2,1.6,7.7,2.6c-1.4,0.9-3,1.5-4.7,1.9c-2,0.5-4,0.8-6.1,0.8c-1.1,0-2.1,0.1-3.1,0.3c-0.4,0.2-0.6,0.7-0.6,1.1
	c0,0.5,0.2,0.9,0.5,1.2c0.5,0.3,1,0.4,1.6,0.4c6.4,0,11.6-1.5,15.5-4.4c3.2,1.5,5.7,2.7,7.3,3.7C88.9,206.9,89.7,207.3,90.5,207.5
	L90.5,207.5L90.5,207.5z M71.8,195.5l2-4h10.5c-0.5,3-1.9,5.7-3.9,7.9c-0.3-0.1-0.6-0.2-0.9-0.3c-3.2-1.1-5.5-1.9-7.1-2.3
	c-0.4,0-0.7-0.4-0.7-0.8C71.7,195.8,71.7,195.7,71.8,195.5L71.8,195.5L71.8,195.5z M82.3,222.1c0.4,0,0.7-0.2,0.9-0.5
	c0.3-0.3,0.4-0.7,0.4-1.1c0-0.3-0.1-0.6-0.2-0.9c-0.2-0.3-0.5-0.6-0.8-0.8c-0.9-0.6-1.9-1.3-2.9-1.9c-0.9-0.5-1.8-1-2.8-1.4
	c-0.2-0.1-0.4-0.1-0.7-0.1c-0.4,0-0.7,0.1-1,0.4c-0.3,0.2-0.4,0.6-0.5,0.9c0,0.3,0,0.6,0.1,0.8c0.2,0.3,0.4,0.5,0.7,0.7
	c2,1.4,3.6,2.4,4.8,3.3C80.8,222,81.5,222.2,82.3,222.1L82.3,222.1L82.3,222.1z M78.5,246.2c2.2,0.1,4.4-0.1,6.6-0.5
	c0.9-0.3,1.6-1,2-1.9c0.5-1.4,0.7-2.9,0.6-4.4c0-0.4-0.1-0.9-0.4-1.2c-0.3-0.3-0.7-0.5-1.2-0.4c-0.4,0-0.8,0.1-1.1,0.4
	c-0.3,0.3-0.4,0.7-0.4,1.2c0,0.9-0.1,1.7-0.3,2.5c-0.1,0.5-0.4,0.9-0.7,1.2c-0.5,0.3-2.1,0.4-4.8,0.4c-1.1,0-2.2,0-3.3-0.1
	c-0.5,0-1-0.2-1.4-0.6c-0.3-0.4-0.5-1-0.4-1.5v-17.3c0-1.3-0.5-1.9-1.6-1.9c-0.4,0-0.9,0.1-1.2,0.5c-0.3,0.4-0.4,0.9-0.4,1.4v18.7
	c-0.1,0.9,0.2,1.7,0.7,2.4c0.7,0.6,1.5,0.9,2.4,1C75.2,246.2,76.8,246.3,78.5,246.2L78.5,246.2L78.5,246.2z M92.1,239.4
	c0.5,0,0.9-0.2,1.2-0.5c0.3-0.2,0.5-0.6,0.5-1c0-1.3-0.9-3.7-2.6-7c-1.8-3.4-3-5.1-3.8-5.1c-1.1,0-1.6,0.4-1.6,1.3
	c0.3,1.1,0.8,2.1,1.4,3.1c1,1.7,1.8,3.6,2.4,5.4c0.3,1.2,0.8,2.3,1.4,3.3C91.3,239.2,91.7,239.4,92.1,239.4L92.1,239.4L92.1,239.4z
	 M63.9,241.1c0.4,0,0.8-0.2,1-0.5c0.3-0.4,0.6-0.8,0.8-1.3c0.6-1.7,1-3.5,1.2-5.3c0.3-1.9,0.5-3.8,0.6-5.8c0-0.4-0.1-0.8-0.4-1.2
	c-0.3-0.3-0.7-0.5-1.2-0.4c-0.4,0-0.8,0.1-1,0.4c-0.3,0.3-0.4,0.7-0.4,1.1c-0.2,2.1-0.4,3.9-0.7,5.4c-0.3,1.6-0.7,3.2-1.3,4.7
	c-0.2,0.5-0.3,1.1-0.3,1.7c0.1,0.3,0.2,0.6,0.5,0.8C63.1,241,63.5,241.1,63.9,241.1L63.9,241.1L63.9,241.1z M77.7,286.7
	c1,0,1.5-0.6,1.5-1.8v-4.2h12.5c1.1,0,1.6-0.4,1.6-1.3c0-0.9-0.5-1.3-1.6-1.3H79.2v-3.6h10.8c1.1,0,1.7-0.4,1.7-1.3
	c0-0.9-0.6-1.3-1.7-1.3h-4.9c0.5-1.5,1-3.2,1.4-4.8h5.7c1.1,0,1.6-0.4,1.6-1.3c0-0.9-0.5-1.3-1.6-1.3h-13v-3.6h10.1
	c1.1,0,1.6-0.4,1.6-1.3c0-0.9-0.5-1.3-1.6-1.3H79.2v-2.1c0.1-0.7-0.4-1.3-1.1-1.4c-0.1,0-0.2,0-0.3,0c-0.7-0.1-1.3,0.3-1.5,1
	c0,0.1,0,0.2,0,0.3v2.1h-9.7c-1.1,0-1.6,0.4-1.6,1.3c0,0.9,0.5,1.3,1.6,1.3h9.7v3.6H63.6c-1.1,0-1.6,0.4-1.6,1.3
	c0,0.9,0.5,1.3,1.6,1.3h5.3l1.3,4.8h-4.3c-1.1,0-1.6,0.4-1.6,1.3c0,0.9,0.5,1.3,1.6,1.3h10.4v3.6H64.2c-1.1,0-1.7,0.4-1.7,1.3
	c0,0.9,0.5,1.3,1.7,1.3h12.1v4.2C76.3,286.1,76.7,286.7,77.7,286.7L77.7,286.7L77.7,286.7z M82.2,271.9h-9.2l-0.1-0.1l-1.3-4.7h11.8
	l-0.1,0.2C83.2,268.8,82.7,270.4,82.2,271.9L82.2,271.9L82.2,271.9z M64.6,298.5h7.3c0.7,0,1.4-0.5,1.4-1.3c0-0.7-0.5-1.4-1.3-1.4
	c-0.1,0-0.1,0-0.2,0h-7.3c-0.7,0-1.4,0.5-1.4,1.3c0,0.7,0.5,1.4,1.3,1.4C64.5,298.5,64.5,298.5,64.6,298.5L64.6,298.5z M92.1,295.9
	H75.5c-1.1,0-1.6,0.4-1.6,1.3c0,0.8,0.5,1.3,1.6,1.3h16.6c1,0,1.5-0.4,1.5-1.3S93.1,295.9,92.1,295.9L92.1,295.9L92.1,295.9z
	 M88.8,308.8c2,0.1,3-0.8,3-2.9v-2.5c0.1-0.8-0.2-1.6-0.8-2.2c-0.6-0.5-1.5-0.8-2.3-0.7H78.7c-2-0.1-3,0.9-3,2.8v2.5
	c-0.1,0.8,0.2,1.6,0.7,2.1c0.6,0.5,1.4,0.7,2.2,0.7L88.8,308.8L88.8,308.8z M72.9,302.1h-9.4c-1,0-1.5,0.4-1.5,1.3
	c0,0.9,0.5,1.3,1.5,1.3h3.3v20.3c-0.1,0.7,0.4,1.3,1.1,1.4c0.7,0.1,1.3-0.4,1.4-1.1c0-0.1,0-0.2,0-0.3v-20.3h3.6
	c1.1,0,1.6-0.4,1.6-1.3C74.5,302.6,73.9,302.1,72.9,302.1L72.9,302.1L72.9,302.1z M78.3,305.6v-1.8c0-0.5,0.3-0.9,0.8-0.9
	c0,0,0.1,0,0.1,0h9c0.4-0.1,0.8,0.2,0.9,0.7c0,0.1,0,0.1,0,0.2v1.8c0,0.4-0.3,0.8-0.7,0.9c0,0-0.1,0-0.1,0h-9
	c-0.5,0-0.9-0.3-0.9-0.7C78.3,305.7,78.3,305.6,78.3,305.6L78.3,305.6z M64.1,307.4c-0.6,0-1.2,0.4-1.2,1.1c0,0.1,0,0.2,0,0.3l0,4.2
	c0,3.7-0.3,6.2-0.9,7.7c-0.1,0.3-0.2,0.7-0.3,1.1c-0.1,0.7,0.4,1.3,1.1,1.4c0.1,0,0.2,0,0.3,0c0.6,0,1.1-0.7,1.5-2.1
	c0.4-2.1,0.6-4.1,0.6-6.2l0.1-5.8C65.3,307.9,64.9,307.4,64.1,307.4L64.1,307.4L64.1,307.4z M72.2,307.4c-0.6,0-1.2,0.4-1.3,1.1
	c0,0.1,0,0.2,0,0.3v12c-0.1,0.6,0.3,1.2,0.9,1.4c0.1,0,0.2,0,0.3,0c0.6,0,1.2-0.4,1.2-1.1c0-0.1,0-0.2,0-0.3v-12
	c0.1-0.6-0.3-1.2-0.9-1.4C72.4,307.4,72.3,307.4,72.2,307.4L72.2,307.4z M89.8,310.9H77.6c-0.8-0.1-1.7,0.1-2.3,0.6
	c-0.5,0.7-0.8,1.5-0.7,2.4v8.2c-0.1,0.8,0.1,1.7,0.6,2.3c0.7,0.5,1.5,0.8,2.4,0.7h12.2c0.8,0.1,1.7-0.1,2.3-0.6
	c0.5-0.7,0.8-1.5,0.7-2.4V314c0.1-0.8-0.1-1.7-0.7-2.3C91.5,311.1,90.7,310.9,89.8,310.9L89.8,310.9L89.8,310.9z M82.4,316.8h-5.2
	v-2.5c-0.1-0.5,0.3-0.9,0.8-1c0.1,0,0.2,0,0.3,0h4.2L82.4,316.8L82.4,316.8z M90.2,316.8h-5.3v-3.5h4.3c0.5,0,1,0.4,1,0.9
	c0,0.1,0,0.1,0,0.2L90.2,316.8L90.2,316.8z M82.4,322.8h-4.2c-0.5,0-1-0.3-1-0.9c0-0.1,0-0.1,0-0.2v-2.6h5.2L82.4,322.8L82.4,322.8z
	 M90.2,321.7c0.1,0.5-0.3,1-0.8,1c-0.1,0-0.2,0-0.3,0h-4.3v-3.7h5.3L90.2,321.7L90.2,321.7z M90.7,365.6c0.9,0,1.6-0.8,2.2-2.2
	c0.6-1.5,0.9-3,0.9-4.6c0.1-0.7-0.4-1.4-1.1-1.5c-0.1,0-0.3,0-0.4,0c-0.8,0-1.3,0.7-1.4,2.2c-0.1,1.6-0.5,2.4-1,2.4
	c-0.4,0-1.1-0.6-2-1.7c-0.8-0.9-1.5-1.9-2.1-2.9c1.3-1.9,2.5-3.8,3.4-5.9c0.7-1.3,1.3-2.6,1.6-4.1c0-0.6-0.4-1.2-1.1-1.3
	c-0.1,0-0.2,0-0.3,0c-0.7,0-1.3,0.6-1.7,1.8c-0.7,2.2-1.7,4.2-3,6.1l-0.4,0.4c-1.4-3.8-2.2-7.8-2.4-11.8h9.7c1.2,0,1.8-0.5,1.8-1.4
	c0-1-0.6-1.4-1.8-1.4H82v-4.1c0.2-0.8-0.3-1.5-1.1-1.7c-0.1,0-0.3,0-0.4,0c-0.7-0.1-1.4,0.4-1.4,1.1c0,0.1,0,0.2,0,0.4l0.1,4.3H67.4
	c-2.2,0-3.2,1.1-3.2,3.2l0.1,6.8c0,2.4-0.1,4.9-0.4,7.3c-0.2,1.6-0.6,3.2-1.2,4.7c-0.4,0.6-0.6,1.3-0.8,2.1
	c-0.1,0.7,0.4,1.5,1.1,1.6c0.1,0,0.3,0,0.4,0c0.7-0.1,1.3-0.5,1.5-1.2c0.6-1.1,1-2.3,1.3-3.6c0.7-3.5,1-7.1,0.9-10.6h6
	c0.3,0,0.7,0.1,0.9,0.3c0.2,0.2,0.4,0.5,0.3,0.9c0,1.5-0.1,3.1-0.3,4.6c0,1.1-0.9,1.9-2,1.9c-0.1,0-0.1,0-0.2,0h-1.3
	c-0.7-0.1-1.3,0.4-1.4,1.1c0,0.1,0,0.2,0,0.4c-0.1,0.7,0.4,1.4,1.1,1.5c0.1,0,0.3,0,0.4,0c2.9,0,4.7-0.7,5.5-2
	c0.6-1,0.9-3.8,0.9-8.2c0-2-1-3-2.9-3h-7c-0.1-1.4,0-2.9,0.2-4.3c0.2-0.3,0.7-0.5,1.1-0.5h10.9c0.2,4.9,1.4,9.8,3.3,14.3
	c-2,2.3-4.6,4.1-7.4,5.2c-0.9,0.3-1.7,0.6-2.5,1.1c-0.2,0.3-0.4,0.6-0.4,0.9c-0.1,0.7,0.3,1.3,1,1.5c0.1,0,0.2,0,0.4,0
	c0.9,0,2.4-0.6,4.5-1.8c2.1-1.2,4.1-2.7,5.8-4.4c1,1.6,2.1,3.1,3.5,4.4C88.3,364.9,89.4,365.5,90.7,365.6L90.7,365.6L90.7,365.6z
	 M88.3,338.8c1.1,0,1.6-0.4,1.6-1.3c0-0.3-0.1-0.5-0.3-0.7c-0.2-0.4-0.5-0.7-0.8-1.1c-0.5-0.7-1.1-1.1-1.9-1.4c-1,0-1.5,0.4-1.5,1.3
	c0.1,0.3,0.2,0.5,0.4,0.7C86.9,338,87.7,338.8,88.3,338.8L88.3,338.8z M64,384.5c1,0,1.5-0.6,1.5-1.8v-2.1c-0.1-0.6,0.3-1.3,1-1.4
	c0.1,0,0.3,0,0.4,0h22.1c0.7-0.1,1.3,0.3,1.4,1c0,0.1,0,0.2,0,0.4v2.1c0,1.2,0.5,1.8,1.5,1.8c1,0,1.5-0.6,1.5-1.8v-2.5
	c0.1-1-0.2-1.9-0.9-2.7c-0.8-0.6-1.8-1-2.8-0.9H79.3V375c-0.1-0.9-0.8-1.6-1.7-1.5c-0.8,0.1-1.4,0.7-1.5,1.5v1.7h-9.8
	c-1-0.1-2.1,0.2-2.8,0.9c-0.7,0.8-1,1.8-0.9,2.8v2.4C62.5,383.9,63,384.5,64,384.5L64,384.5L64,384.5z M92.6,400.1
	c-3.8-1.5-7-4-9.4-7.3c2.4-1,4.6-2.4,6.6-4.1c0.4-0.3,0.7-0.8,0.7-1.3c0-0.3-0.1-0.6-0.4-0.8c-0.3-0.3-0.6-0.5-1-0.5
	c-0.5,0-0.9,0.2-1.2,0.5c-2.1,1.8-4.3,3.4-6.8,4.8c-1-2-2.4-3.8-4-5.2c1-0.7,1.8-1.2,2.5-1.8h8.2c0.7,0.1,1.4-0.4,1.5-1.1
	c0.1-0.7-0.4-1.4-1.1-1.5c-0.1,0-0.3,0-0.4,0H67.9c-0.7-0.1-1.3,0.4-1.4,1.1c-0.1,0.7,0.4,1.3,1.1,1.4c0.1,0,0.2,0,0.3,0h7.8
	c-1.7,1-3.5,1.9-5.4,2.6c-1.9,0.7-3.9,1.4-5.9,1.9c-0.3,0.1-0.6,0.2-0.9,0.4c-0.2,0.2-0.3,0.5-0.3,0.8c-0.1,0.6,0.3,1.2,0.9,1.3
	c0.1,0,0.2,0,0.3,0c1.4-0.1,2.8-0.5,4.2-1.1c2.2-0.8,4.4-1.8,6.5-2.9l1.5,1.6c-1.6,1.2-3.3,2.3-5.1,3.1c-2.1,1-4.4,1.8-6.7,2.4
	c-0.6,0.1-1.2,0.3-1.7,0.6c-0.3,0.2-0.5,0.5-0.4,0.9c-0.1,0.6,0.3,1.1,0.8,1.2c0.1,0,0.2,0,0.3,0c0.9-0.1,1.7-0.2,2.5-0.5
	c1.4-0.4,2.8-0.8,4.2-1.4c1.4-0.5,2.7-1.2,4-1.9c1.2-0.7,2.4-1.5,3.5-2.4c0.4,0.7,0.7,1.4,0.9,2.1c-2.1,1.9-4.4,3.5-6.9,4.8
	c-2.7,1.4-5.5,2.4-8.4,3.2c-0.4,0.1-0.7,0.2-0.9,0.5c-0.2,0.2-0.3,0.6-0.2,0.9c-0.1,0.6,0.4,1.1,0.9,1.1c0.1,0,0.2,0,0.3,0
	c0.9-0.1,1.8-0.2,2.6-0.5c1.4-0.4,2.9-0.9,4.3-1.5c3.3-1.3,6.4-3.2,9-5.7c0.1,0.8,0.1,1.5,0.1,2.3c0.1,1.2-0.1,2.3-0.6,3.4
	c-0.4,0.7-1.6,1-3.3,1c-0.5,0-0.8,0-1.1,0c-0.5-0.1-1,0-1.4,0.3c-0.3,0.3-0.5,0.8-0.4,1.2c0,0.7,0.5,1.3,1.3,1.3c0.1,0,0.1,0,0.2,0
	c0.8,0.1,1.4,0.1,1.8,0.1c2.6,0,4.2-0.5,5.1-1.4c1-1.1,1.5-2.9,1.5-5.5c0-1.4-0.1-2.8-0.4-4.1c0.7,1.2,1.4,2.3,2.3,3.3
	c0.9,1,1.8,1.9,2.9,2.8c1.3,1,2.7,1.9,4.2,2.5c0.3,0.1,0.5,0.2,0.8,0.2c0.3,0,0.6-0.1,0.9-0.3c0.3-0.2,0.4-0.5,0.5-0.8
	c0.1-0.2,0.1-0.3,0.1-0.5C93.7,400.9,93.2,400.3,92.6,400.1L92.6,400.1L92.6,400.1z"/>
<g class="st3">
	<g>
		<path class="st4" d="M160.6,21.3C148.3,6.1,118.6-0.4,90.1,0c-2.3,0.2-4.6,0.4-6.9,0.5C78.7,1.3,74.3,2,69.9,2.7
			C53.3,6.8,38.5,12.9,29.8,24.8c-4,5.4-6.9,14.5-3.5,22.9c3.7,9,11.3,14.3,19.3,19c33.2,19.4,98.9,14.4,118.6-13.5
			C172.8,41,168,30.5,160.6,21.3z M75,73.8c-17.2-4-46.7-19-37.2-43.1c1.8-4.6,4.9-7.6,7.6-11.2c2.9,0.7,5.5,3.7,7.8,5.3
			C60.5,29.9,67.7,35,75,40.1V73.8z M100,76.1c-1.8,0.1-3.5,0.1-5.3,0.2V38.1c-12.5-8.8-24.9-17.6-37.4-26.4
			c-0.1-0.1-0.1-0.2-0.2-0.4c10.4-8.1,41-11.6,58.5-7.4c5.1,1.2,10.2,2.5,14.7,4.4c2.1,1,4.3,2,6.4,3c0.1,0.2,0.2,0.4,0.4,0.5
			c-12.3,8.7-24.7,17.4-37,26.1V76.1z M153.9,51.4c-5.8,9.9-20.7,20-34.2,22V40.3c9.5-6.8,19-13.6,28.5-20.4
			C155.9,25.9,160.3,40.6,153.9,51.4z M97.2,5.5c-6.9,0-12.5,5.6-12.5,12.5s5.6,12.5,12.5,12.5c6.9,0,12.5-5.6,12.5-12.5
			S104.1,5.5,97.2,5.5z"/>
	</g>
</g>
</svg>
