<svg id="menu_toggle" xmlns="http://www.w3.org/2000/svg" width="43.842" height="28.752" viewBox="0 0 43.842 28.752">
  <path id="Path_17761" data-name="Path 17761" d="M110.669,65.652H71.753a2.463,2.463,0,0,1,0-4.927h38.915a2.463,2.463,0,0,1,0,4.927Z" transform="translate(-69.29 -60.725)" fill="#5895af"/>
  <path id="Path_17762" data-name="Path 17762" d="M110.669,67.272H71.753a2.463,2.463,0,1,1,0-4.927h38.915a2.463,2.463,0,0,1,0,4.927Z" transform="translate(-69.29 -50.432)" fill="#5895af"/>
  <path id="Path_17763" data-name="Path 17763" d="M110.669,68.892H71.753a2.463,2.463,0,0,1,0-4.927h38.915a2.463,2.463,0,0,1,0,4.927Z" transform="translate(-69.29 -40.139)" fill="#5895af"/>
</svg>
