<svg id="photoTitle3.svg" xmlns="http://www.w3.org/2000/svg" width="194.03" height="368.59" viewBox="0 0 194.03 368.59">
  <defs>
    <style>
      .cls-1 {
        fill: #9abc58;
      }

      .cls-2 {
        fill: #fff;
      }

      .cls-3 {
        fill-rule: evenodd;
      }
    </style>
  </defs>
  <rect id="矩形_1" data-name="矩形 1" class="cls-1" width="194.03" height="368.59"/>
  <rect id="矩形_1_拷貝" data-name="矩形 1 拷貝" class="cls-2" y="8.03" width="194.03" height="352.53"/>
  <path id="豐富機能商圈_美式時尚購物" data-name="豐富機能商圈 美式時尚購物" class="cls-3" d="M1525.56,8081.36h23.52a2.779,2.779,0,0,0,1.99-.63,2.656,2.656,0,0,0,.65-1.97v-9.1a1.189,1.189,0,0,0-1.23-1.44,1.2,1.2,0,0,0-1.27,1.44v8.33a1.468,1.468,0,0,1-.33.98,1.248,1.248,0,0,1-.97.32h-3.16v-1.55h2.46a0.852,0.852,0,0,0,.98-0.95,0.841,0.841,0,0,0-.98-0.91h-2.46v-1.27h2.14a0.913,0.913,0,1,0,0-1.82h-2.14v-1.23h2.32a0.916,0.916,0,1,0,0-1.83h-2.32v-0.95a1.153,1.153,0,0,0-.3-0.86,1.169,1.169,0,0,0-.86-0.3,1.138,1.138,0,0,0-.86.3,1.153,1.153,0,0,0-.3.86v0.95h-2.39a0.918,0.918,0,1,0,0,1.83h2.39v1.23h-2.22a0.912,0.912,0,1,0,0,1.82h2.22v1.27h-2.57a0.837,0.837,0,0,0-.98.91,0.848,0.848,0,0,0,.98.95h2.57v1.55h-4.12v-10.62a1.234,1.234,0,1,0-2.46,0v10.62h-3.97v-1.55h2.39a0.957,0.957,0,0,0,.76-1.61,1.056,1.056,0,0,0-.76-0.25h-2.39v-1.27h2.07a0.84,0.84,0,0,0,.99-0.91,0.874,0.874,0,0,0-1.06-.91h-2v-1.23h2.21a0.929,0.929,0,1,0,0-1.83h-2.21v-0.99a1.028,1.028,0,0,0-1.16-1.16,1.153,1.153,0,0,0-.86.3,1.169,1.169,0,0,0-.3.86v0.99h-2.11a0.917,0.917,0,1,0,0,1.83h2.11v1.23h-1.93a0.913,0.913,0,1,0,0,1.82h1.93v1.27h-2.25a1.054,1.054,0,0,0-.74.25,0.813,0.813,0,0,0-.28.66,0.952,0.952,0,0,0,.26.71,1.1,1.1,0,0,0,.76.24h2.25v1.55h-2.85a1.188,1.188,0,0,1-1.3-1.3v-8.33a1.258,1.258,0,1,0-2.49,0v9.1a2.306,2.306,0,0,0,2.63,2.6h0Zm-2.46,3.45h28.41a1.114,1.114,0,0,0,1.37-1.12,1.132,1.132,0,0,0-1.37-1.17H1523.1a1.109,1.109,0,0,0-1.33,1.17,1.09,1.09,0,0,0,1.33,1.12h0Zm28.69,11.32h-7.67l0.85-2.6h1.72c1.97,0.07,2.95-.72,2.95-2.36v-2.32a2.062,2.062,0,0,0-.75-1.7,3.582,3.582,0,0,0-2.2-.55h-18.74c-1.97-.07-2.95.72-2.95,2.36v2.21a2.135,2.135,0,0,0,.74,1.78,3.513,3.513,0,0,0,2.21.58h1.69l0.7,2.6h-7.52a1.224,1.224,0,1,0,0,2.43h28.97a1.233,1.233,0,1,0,0-2.43h0Zm-22.92-4.71a0.9,0.9,0,0,1-1.02-.91v-0.92a0.975,0.975,0,0,1,.3-0.67,1.01,1.01,0,0,1,.72-0.24h16.91a0.858,0.858,0,0,1,.98.91v0.92a0.837,0.837,0,0,1-.98.91h-16.91Zm4.22,4.71-0.64-2.6h9.71l-0.74,2.6h-8.33Zm-9.32,21.49a1.364,1.364,0,0,0,1.04-.35,1.528,1.528,0,0,0,.33-1.09v-2.63a1.231,1.231,0,0,1,1.41-1.41h22.07a1.218,1.218,0,0,1,1.38,1.41v2.63a1.253,1.253,0,0,0,1.4,1.44,1.532,1.532,0,0,0,1.13-.35,1.485,1.485,0,0,0,.35-1.09v-3.2a2.623,2.623,0,0,0-3.24-3.23h-10.75v-1.3a1.273,1.273,0,0,0-1.52-1.34,1.3,1.3,0,0,0-1.58,1.34v1.3h-10.26a2.623,2.623,0,0,0-3.24,3.23v3.2a1.485,1.485,0,0,0,.35,1.09,1.532,1.532,0,0,0,1.13.35h0Zm3.48-1.33h20.64a1.551,1.551,0,0,0,.98-0.26,1.041,1.041,0,0,0,.32-0.83,1.068,1.068,0,0,0-1.3-1.09h-20.64a1.029,1.029,0,0,0-1.23,1.09,1.1,1.1,0,0,0,.28.83,1.4,1.4,0,0,0,.95.26h0Zm2.07,8.58h16.53c1.87,0.09,2.81-.8,2.81-2.67v-1.55c0-1.74-.94-2.6-2.81-2.6h-16.53c-1.87-.1-2.81.79-2.81,2.67v1.48a2.671,2.671,0,0,0,.69,2.02,2.988,2.988,0,0,0,2.12.65h0Zm15.33-2.15h-14.13a1,1,0,0,1-1.02-1.16,1.854,1.854,0,0,1,.23-1.05,0.9,0.9,0,0,1,.79-0.32h14.13a1.013,1.013,0,0,1,1.02,1.16c0,0.92-.34,1.37-1.02,1.37h0Zm-17.4,15.3h20.71a3.043,3.043,0,0,0,2.4-.71,3.314,3.314,0,0,0,.76-2.42v-5.28a3.008,3.008,0,0,0-.7-2.37,3.449,3.449,0,0,0-2.46-.76h-20.71a3.241,3.241,0,0,0-2.41.72,3.33,3.33,0,0,0-.75,2.41v5.28a2.972,2.972,0,0,0,.7,2.37,3.416,3.416,0,0,0,2.46.76h0Zm8.79-6.93h-9.07v-1.34a0.967,0.967,0,0,1,1.05-1.05h8.02v2.39Zm12.2,0h-9.46v-2.39h8.4a0.931,0.931,0,0,1,1.06,1.05v1.34Zm-12.2,4.75h-8.02a0.974,0.974,0,0,1-1.05-1.06v-1.55h9.07v2.61Zm11.14,0h-8.4v-2.61h9.46v1.55a0.982,0.982,0,0,1-1.06,1.06h0Zm5,36.61c-0.64,0-1.02.52-1.16,1.58a3.643,3.643,0,0,1-.34,1.18,0.623,0.623,0,0,1-.51.4q-1.26,0-3.23-2.81l2.81-2.6,0.49-.56a2,2,0,0,0,.81-1.31,1.1,1.1,0,0,0-1.27-1.23,1.758,1.758,0,0,0-1.3.78,18.521,18.521,0,0,1-2.77,2.7,20.209,20.209,0,0,1-1.44-4.25h7.8a1.19,1.19,0,1,0,0-2.36h-2.32a0.631,0.631,0,0,0,.21-0.45,2.084,2.084,0,0,0-.56-1.16,1.631,1.631,0,0,0-1.23-.78,1.163,1.163,0,0,0-.72.2,0.629,0.629,0,0,0-.27.54,3.447,3.447,0,0,0,.78,1.55l0.07,0.1h-4.22c-0.14-.93-0.25-1.91-0.32-2.91a1.194,1.194,0,0,0,.37.72,0.9,0.9,0,0,0,.76.19l0.81-.1,3.12-.53,2.22-.56a1.578,1.578,0,0,0,1.3,1.19,1.274,1.274,0,0,0,.88-0.28,1.078,1.078,0,0,0,.32-0.84l-0.18-.57q-1.155-3.795-2.25-3.79a0.941,0.941,0,0,0-1.13.98,1.414,1.414,0,0,0,.11.49c0.07,0.19.12,0.31,0.14,0.35l0.25,0.6-2.64.35,1.79-2.67a21.667,21.667,0,0,0,2.15-4.25,1.068,1.068,0,0,0-1.3-1.09c-0.5,0-1.28,1.07-2.36,3.2l-0.95-.81c1.53-2.67,2.29-4.34,2.29-4.99a1.126,1.126,0,0,0-1.37-1.16c-0.68,0-1.21.72-1.59,2.18l-0.98,2.67a1.658,1.658,0,0,0-.81-0.32,1.139,1.139,0,0,0-.86.32,1.219,1.219,0,0,0-.3.88,1.412,1.412,0,0,0,.63,1.12l0.67,0.53c0.12,0.09.43,0.34,0.93,0.74a10.934,10.934,0,0,1,1.22,1.09l-1.48,2.81a3,3,0,0,0-1.28.35,0.944,0.944,0,0,0-.51.78l-0.04-.67-0.14-2.82-0.1-2.77-0.08-2.32v-0.81l0.04-1.55,0.04-1.58a1.36,1.36,0,0,0-2.27-1.09,1.705,1.705,0,0,0-.3,1.12l0.03,1.16v0.92a124.281,124.281,0,0,0,.67,13.74h-8.26a1.142,1.142,0,0,0-1.27.81,5.9,5.9,0,0,0-.91-2.18c-0.66-1.24-1.19-1.86-1.62-1.86a0.923,0.923,0,0,0-.7.25v-4.33h2.04a1.214,1.214,0,0,0,1.34-1.4,1.2,1.2,0,0,0-1.34-1.37h-2.04v-6.02a1.1,1.1,0,0,0-1.27-1.23,1.087,1.087,0,0,0-1.23,1.23v6.02h-3.16a1.253,1.253,0,0,0-1.44,1.4,1.24,1.24,0,0,0,1.44,1.37h2.88a36.746,36.746,0,0,1-3.72,10.34,5.327,5.327,0,0,0-.81,2.32,1.076,1.076,0,0,0,1.19,1.16c0.59,0,1.18-.69,1.78-2.06a36.967,36.967,0,0,0,1.84-6.24v15.37a1.1,1.1,0,0,0,1.23,1.26,1.117,1.117,0,0,0,1.27-1.26v-15.44l0.14,0.28,0.91,2.01c0.36,0.93.73,1.4,1.13,1.4a0.855,0.855,0,0,0,.98-0.66,1.146,1.146,0,0,0,1.34,1.19h0.91l0.04,1.23a9.243,9.243,0,0,1-2.57,6.93,3.554,3.554,0,0,0-1.23,1.75,1.157,1.157,0,0,0,1.3,1.31c0.87,0,1.83-.81,2.89-2.43a11.591,11.591,0,0,0,1.86-5.1c1.5,1.83,2.58,2.74,3.23,2.74a1.093,1.093,0,0,0,1.23-1.23,3.756,3.756,0,0,0-1.33-1.82,5.182,5.182,0,0,0-1.23-.9,2.38,2.38,0,0,0-1.02-.3,1.024,1.024,0,0,0-.81.42q0.03-.42.03-1.26v-1.34h5.35a20.4,20.4,0,0,0,2.04,5.84,28.889,28.889,0,0,1-2.6,1.65,16.583,16.583,0,0,1-2.89,1.26c-1.12.36-1.68,0.84-1.68,1.45a1.144,1.144,0,0,0,1.26,1.33q1.83,0,7.24-3.58c1.95,2.81,3.82,4.21,5.63,4.21,0.84,0,1.56-.69,2.14-2.07a6.752,6.752,0,0,0,.57-2.81,1.055,1.055,0,0,0-1.23-1.16h0Zm-19.94-17.93,2.95,2.07-2.07,3.48h0.04c-1.25.12-1.87,0.53-1.87,1.23a1.5,1.5,0,0,0,.3.97,0.9,0.9,0,0,0,.83.33l0.45-.03,5.63-1.16c0.4,0.98.87,1.48,1.41,1.48a0.947,0.947,0,0,0,1.12-1.02,8.537,8.537,0,0,0-1.02-2.71,6.667,6.667,0,0,0-.82-1.34,1.023,1.023,0,0,0-.73-0.42,0.844,0.844,0,0,0-1.02.88,1.725,1.725,0,0,0,.22.84l0.17,0.35-2.11.36q4.05-5.985,4.05-7.18a1.139,1.139,0,0,0-.32-0.86,1.29,1.29,0,0,0-.92-0.3c-0.53,0-1.12.66-1.75,1.97l-0.43.88-1.26-.91c0.77-1.41,1.33-2.48,1.67-3.22a4.526,4.526,0,0,0,.51-1.6,1.108,1.108,0,0,0-.33-0.86,1.426,1.426,0,0,0-.97-0.3,1.6,1.6,0,0,0-1.34,1.3l-1.3,3.45a1.981,1.981,0,0,0-.84-0.32,1.186,1.186,0,0,0-.92.34,1.238,1.238,0,0,0-.31.89,1.9,1.9,0,0,0,.98,1.41h0Zm5.13,43.15a1.2,1.2,0,0,0,1.38-1.34c0-.63-0.71-1.94-2.11-3.93-1.41-1.97-2.39-2.96-2.96-2.96a1.13,1.13,0,0,0-1.37,1.16,4.031,4.031,0,0,0,.74,1.3l1.13,1.59-6.75.31q2.67-4.845,2.67-6.26c0-.86-0.52-1.3-1.55-1.3a1.816,1.816,0,0,0-1.12.32,2.009,2.009,0,0,0-.46.86c-0.17.46-.35,1.01-0.56,1.67l-1.55,4.78h-0.56c-1.97,0-2.96.48-2.96,1.44a1.363,1.363,0,0,0,.48,1.13,1.814,1.814,0,0,0,1.35.31l12.38-1.01c0.7,1.28,1.31,1.93,1.82,1.93h0Zm8.16,3.51c3.12,0,5-.14,5.66-0.42,1.43-.58,2.15-1.87,2.15-3.86a1.493,1.493,0,0,0-2.96-.08,1.628,1.628,0,0,1-1.3,1.62,15.153,15.153,0,0,1-2.99.21l-1.44-.03-0.88-.07c-1.08-.07-1.61-0.52-1.61-1.34v-3.06c1.75-.44,3.56-0.92,5.41-1.44a19.551,19.551,0,0,0,3.06-1.09,1.385,1.385,0,0,0,.84-1.26,1.223,1.223,0,0,0-1.4-1.37,2.859,2.859,0,0,0-1.09.28l-4.15,1.68-2.67.95v-3.69c0-1.12-.45-1.69-1.34-1.69-0.91,0-1.37.57-1.37,1.69v10.27a2.364,2.364,0,0,0,.95,2.07q0.84,0.63,5.13.63h0ZM1525,8218.34a1.2,1.2,0,0,0,1.3-1.41v-5.94h7.7v3.24a1.159,1.159,0,0,1-1.27,1.26h-0.91a1.291,1.291,0,0,0-1.51,1.41,1.265,1.265,0,0,0,1.51,1.34h1.51a3.054,3.054,0,0,0,2.53-.69,3.622,3.622,0,0,0,.81-2.62v-13.92a2.618,2.618,0,0,0-.58-2.15,3.1,3.1,0,0,0-2.2-.66h-7.48a2.618,2.618,0,0,0-2.13.61,3.1,3.1,0,0,0-.65,2.2v15.92a1.23,1.23,0,0,0,1.37,1.41h0Zm9-14.91h-7.7v-1.58a0.974,0.974,0,0,1,1.09-1.12h5.52a0.974,0.974,0,0,1,1.09,1.12v1.58Zm11.53,14.03a20.463,20.463,0,0,0,5.66-.46c1.43-.53,2.15-1.81,2.15-3.83a1.282,1.282,0,0,0-1.55-1.33,1.3,1.3,0,0,0-1.41,1.26,1.6,1.6,0,0,1-1.3,1.58,17.024,17.024,0,0,1-2.99.18l-1.44-.04-0.88-.07a2.1,2.1,0,0,1-1.19-.35,1.064,1.064,0,0,1-.42-0.91v-3.73q3.48-.81,5.34-1.4c1.8-.59,2.91-0.98,3.3-1.16a1.416,1.416,0,0,0-.7-2.68,3,3,0,0,0-1.09.29c-0.21.09-1.04,0.43-2.48,1.03s-2.9,1.13-4.37,1.6v-3.65c0-1.11-.45-1.66-1.34-1.66a1.284,1.284,0,0,0-1.04.41,1.947,1.947,0,0,0-.33,1.25v10.93a2.415,2.415,0,0,0,.95,2.11q0.915,0.63,5.13.63h0Zm-19.23-8.93v-2.63h7.7v2.63h-7.7Zm-2,49.31c0.93,0,1.4-.57,1.4-1.69v-16.98a1.162,1.162,0,0,1,1.27-1.27h5.34a6.235,6.235,0,0,1-3.9,4.89,1.68,1.68,0,0,0-1.3,1.33,1.312,1.312,0,0,0,.32.99,1.326,1.326,0,0,0,.98.31,6.76,6.76,0,0,0,2.85-1.33,7.728,7.728,0,0,0,3.65-6.19h3.38v4.54a1.871,1.871,0,0,0,.7,1.54,5.907,5.907,0,0,0,2.88.46H1543c2.2,0,3.52-.32,3.94-0.95a5.044,5.044,0,0,0,.74-2.81,1,1,0,0,0-1.16-1.09,1.114,1.114,0,0,0-.85.3,1.469,1.469,0,0,0-.32.93,1.135,1.135,0,0,1-.52,1.09,6.5,6.5,0,0,1-2.25.28c-1.22,0-1.83-.4-1.83-1.19v-3.1h6.96a1.146,1.146,0,0,1,1.23,1.27v14.24a1.217,1.217,0,0,1-1.34,1.37h-1.72a1.475,1.475,0,1,0,0,2.95h2.32c2.58,0.19,3.78-1,3.59-3.55v-15.54a3.04,3.04,0,0,0-.69-2.48,3.536,3.536,0,0,0-2.51-.75h-4.04l0.95-3.91h6.25c1.08,0,1.62-.43,1.62-1.3,0-.89-0.54-1.33-1.62-1.33h-13.04v-1.59a1.3,1.3,0,0,0-1.55-1.37c-1.07,0-1.61.46-1.61,1.37v1.59h-12.66c-1.05,0-1.58.44-1.58,1.33,0,0.87.53,1.3,1.58,1.3h6.01l0.67,3.91h-3.48a3.016,3.016,0,0,0-2.46.68,3.538,3.538,0,0,0-.78,2.55v17.51c0,1.12.49,1.69,1.45,1.69h0Zm17.47-22.43h-9.39a37.5,37.5,0,0,0-.67-3.91h10.97a35.337,35.337,0,0,1-.91,3.91h0Zm-9.63,19.44h10.23a2.539,2.539,0,0,0,2.05-.62,3.034,3.034,0,0,0,.65-2.16v-3.38a2.643,2.643,0,0,0-.58-2.07,2.88,2.88,0,0,0-2.12-.67h-10.23a2.491,2.491,0,0,0-2.04.62,3.035,3.035,0,0,0-.64,2.12v3.38a2.784,2.784,0,0,0,.58,2.11,2.859,2.859,0,0,0,2.1.67h0Zm9.28-2.36h-8.33a0.855,0.855,0,0,1-.95-0.95v-2.28a0.834,0.834,0,0,1,.95-0.95h8.33a0.859,0.859,0,0,1,.95.95v2.28a0.842,0.842,0,0,1-.95.95h0Zm6.99,14.15h-22.14a3.128,3.128,0,0,0-3.63,3.65v23.17a3.085,3.085,0,0,0,3.63,3.62h22.14a3.83,3.83,0,0,0,2.76-.84,3.749,3.749,0,0,0,.86-2.78v-23.17a3.9,3.9,0,0,0-.84-2.79,3.791,3.791,0,0,0-2.78-.86h0Zm0.85,26.01a1.634,1.634,0,0,1-1.87,1.83h-20.11a1.631,1.631,0,0,1-1.86-1.83v-21.62a1.615,1.615,0,0,1,1.86-1.79h20.11a1.707,1.707,0,0,1,1.87,1.79v21.62Zm-2.08-9.38a13.908,13.908,0,0,1-2.67-1.94h2.6a1.035,1.035,0,0,0,1.27-1.05,0.988,0.988,0,0,0-.34-0.81,1.378,1.378,0,0,0-.93-0.28h-4.5a7.936,7.936,0,0,1-1.33-1.97H1545a1,1,0,0,0,1.2-1.05,1.011,1.011,0,0,0-.32-0.81,1.258,1.258,0,0,0-.88-0.28h-7.7c0.31-.97.57-1.85,0.8-2.66a8.645,8.645,0,0,0,.33-1.49,1.088,1.088,0,0,0-1.34-1.09,1.321,1.321,0,0,0-.95.37,1.784,1.784,0,0,0-.49,1.03,24.94,24.94,0,0,1-.98,3.84h-5.42a1.378,1.378,0,0,0-.93.28,0.985,0.985,0,0,0-.33.81,1.031,1.031,0,0,0,1.26,1.05h4.43a18.431,18.431,0,0,1-1.44,1.97h-4.6a1,1,0,0,0-1.2,1.05,1.014,1.014,0,0,0,1.2,1.09h2.88a23.711,23.711,0,0,1-2.15,1.97l-1.02.88a2.193,2.193,0,0,0-.91,1.41,1.12,1.12,0,0,0,1.13,1.37c0.51,0,1.46-.66,2.84-1.97l0.85-.84a2.928,2.928,0,0,0-.35,1.54v4.61a2.528,2.528,0,0,0,.8,2q0.7,0.6,5.49.6h2.81c3.24,0,5.26-.35,6.08-1.05a3.45,3.45,0,0,0,1.09-2.75,1.118,1.118,0,0,0-1.33-1.19,1.239,1.239,0,0,0-.85.31,1.771,1.771,0,0,0-.49.92,1.628,1.628,0,0,1-.56,1.12,10.591,10.591,0,0,1-3.45.32h-3.58a9.005,9.005,0,0,1-3.2-.32,1.051,1.051,0,0,1-.25-0.91v-3.27a0.716,0.716,0,0,1,.81-0.81h6.15c0.45,0.02.67,0.18,0.67,0.46v0.7a1.019,1.019,0,0,1-1.26.81h-1.06a1.478,1.478,0,0,0-.9.26,0.957,0.957,0,0,0-.33.79c0,0.8.5,1.2,1.51,1.2,3.1,0,4.64-.93,4.64-2.78v-1.23a2.145,2.145,0,0,0-2.46-2.39h-7.66a3.119,3.119,0,0,0-1.73.42l1.34-1.54,0.53-.64h7.52a21.365,21.365,0,0,0,3.24,3.31c1.31,1.1,2.19,1.65,2.63,1.65a1.184,1.184,0,0,0,.97-0.4,1.708,1.708,0,0,0,.33-1.11,1.3,1.3,0,0,0-.31-0.77,2.586,2.586,0,0,0-.92-0.74h0Zm-5.2-8.65c0.4,0,.91-0.48,1.55-1.44a5.348,5.348,0,0,0,1.02-2.22,1.039,1.039,0,0,0-1.27-1.05,1.716,1.716,0,0,0-1.3,1.02c-0.02.04-.09,0.17-0.19,0.37s-0.31.53-.62,1a2.8,2.8,0,0,0-.53,1.3c0,0.68.45,1.02,1.34,1.02h0Zm-11.04-1.02a1.533,1.533,0,0,0,1.2.98,1.087,1.087,0,0,0,1.23-1.23,2.689,2.689,0,0,0-.3-0.79c-0.2-.41-0.45-0.87-0.76-1.39a1.91,1.91,0,0,0-1.37-1.19,1.029,1.029,0,0,0-1.23,1.09,1.6,1.6,0,0,0,.28.81Zm4.22,5.59c0.4-.59.81-1.24,1.23-1.97h2.5a13.273,13.273,0,0,0,.98,1.97h-4.71Zm-55.29-194.7h28.51a1.276,1.276,0,1,0,0-2.53h-13.01v-2.74h10.05a1.228,1.228,0,1,0,0-2.43h-10.05v-2.6h12.2a1.276,1.276,0,1,0,0-2.53h-7.74l0.07-.07a11.707,11.707,0,0,0,1.55-2.85,1.215,1.215,0,0,0-1.47-1.26,1.286,1.286,0,0,0-.92.42,4.793,4.793,0,0,0-.84,1.27l-1.23,2.49h-6.26q-2.04-4.035-3.24-4.04a1.177,1.177,0,0,0-1.44,1.19,3.307,3.307,0,0,0,.57,1.2l1.02,1.65h-6.97a1.272,1.272,0,1,0,0,2.53h11.89v2.6h-9.71a1.227,1.227,0,1,0,0,2.43h9.71v2.74h-12.69a1.281,1.281,0,1,0,0,2.53h0Zm28.58,11.89q-8.34-.75-12.17-5.77h11.68c1.05,0,1.58-.42,1.58-1.26,0-.87-0.53-1.31-1.58-1.31h-13.01l0.21-1.93a1.218,1.218,0,0,0-1.41-1.34c-0.77,0-1.23.57-1.37,1.69l-0.21,1.58h-11.88c-1.06,0-1.58.44-1.58,1.31,0,0.84.52,1.26,1.58,1.26h10.97q-2.745,4.74-10.59,5.8l-1.58.28a1.366,1.366,0,0,0-.75.44,1.218,1.218,0,0,0-.23.79,1.662,1.662,0,0,0,.4,1.22,1.326,1.326,0,0,0,1.18.3l0.81-.11a22.953,22.953,0,0,0,8.61-2.95,14.318,14.318,0,0,0,4.75-5.03l0.07-.04a15.962,15.962,0,0,0,6.47,5.73,17.357,17.357,0,0,0,8.01,2.29,1.473,1.473,0,0,0,1.76-1.55,1.239,1.239,0,0,0-.44-0.95,2.166,2.166,0,0,0-1.28-.45h0Zm0.28,33.44a1.459,1.459,0,0,0-.97.29,1.243,1.243,0,0,0-.37.91,16.2,16.2,0,0,1-.45,2.97,1.036,1.036,0,0,1-.71.93,1.8,1.8,0,0,1-1.05-.77,20.382,20.382,0,0,1-4.01-7.42,43.736,43.736,0,0,1-1.93-11.11h8.79c1.19,0,1.79-.46,1.79-1.37,0-.94-0.6-1.41-1.79-1.41h-8.97v-3.55c0-1.4-.48-2.11-1.44-2.11a1.375,1.375,0,0,0-1.48,1.66l0.11,4h-16.21c-1.12,0-1.69.46-1.69,1.37,0,0.94.57,1.41,1.69,1.41h16.35a48.819,48.819,0,0,0,1.83,11.25,26.507,26.507,0,0,0,4.01,8.33q2.6,3.525,4.53,3.52c0.96,0,1.75-.77,2.36-2.32a13.878,13.878,0,0,0,.95-5.13,1.235,1.235,0,0,0-1.34-1.45h0Zm-3.38-17.89a1.2,1.2,0,0,0,1.45-1.23,3.529,3.529,0,0,0-1.13-1.83,3.283,3.283,0,0,0-1.83-1.33,1.189,1.189,0,0,0-1.44,1.23,4.622,4.622,0,0,0,1.06,1.61c0.84,1.03,1.47,1.55,1.89,1.55h0Zm-10.09,19.69-6.75,1.09v-8.97h4.72c1.12,0,1.68-.45,1.68-1.37s-0.56-1.37-1.68-1.37h-12.2c-1.13,0-1.69.46-1.69,1.37s0.56,1.37,1.69,1.37h4.67v9.35c-2.46.33-4.15,0.54-5.06,0.64a5.594,5.594,0,0,0-1.9.42,1.278,1.278,0,0,0-.53,1.19,1.8,1.8,0,0,0,.37,1.22,1.2,1.2,0,0,0,1.07.33l0.99-.1,7.94-1.2,5.28-1.02a6.536,6.536,0,0,0,2.21-.63,1.182,1.182,0,0,0,.5-0.95,1.636,1.636,0,0,0-.34-1.11,0.987,0.987,0,0,0-.97-0.26h0Zm13.29,32.6h-2.98v-3.87h3.02q1.62,0,1.62-1.26c0-.89-0.54-1.34-1.62-1.34h-7.28v-4.15h5.52a1.916,1.916,0,0,0,1.21-.3,1.142,1.142,0,0,0,.37-0.96,1.26,1.26,0,0,0-.37-1.02,1.846,1.846,0,0,0-1.21-.32h-5.52v-2.63c0-1.15-.47-1.73-1.41-1.73s-1.4.58-1.4,1.73V8151h-5.66a1.846,1.846,0,0,0-1.21.32,1.26,1.26,0,0,0-.37,1.02,1.142,1.142,0,0,0,.37.96,1.916,1.916,0,0,0,1.21.3h5.66v4.15h-6.96c-1.08,0-1.62.45-1.62,1.34q0,1.26,1.62,1.26h11.21v3.87h-11.21c-1.08,0-1.62.43-1.62,1.3s0.54,1.3,1.62,1.3h11.21v7.67a1.131,1.131,0,0,1-1.3,1.3h-2.49a1.355,1.355,0,0,0-1.59,1.47c0,0.92.59,1.38,1.76,1.38h2.64a4,4,0,0,0,2.88-.92,3.889,3.889,0,0,0,.92-2.85v-8.05h2.98c1.06,0,1.59-.43,1.59-1.3s-0.53-1.3-1.59-1.3h0Zm-22.36-15.05h-3.83a2.732,2.732,0,0,0-2.23.71,3.449,3.449,0,0,0-.72,2.42v18.67c-0.1,2.06.89,3.09,2.95,3.09h3.83q2.925,0.15,2.92-3.09V8152.3a3.122,3.122,0,0,0-.65-2.37,3.016,3.016,0,0,0-2.27-.76h0Zm0.18,10.55h-4.22v-6.92a0.95,0.95,0,0,1,.99-1.06h2.25a0.946,0.946,0,0,1,.98,1.06v6.92Zm0,10.76a0.881,0.881,0,0,1-.98.98h-2.25a0.868,0.868,0,0,1-.99-0.98v-8.16h4.22v8.16Zm9.21-.42c-1.03-1.17-1.9-1.76-2.6-1.76a1.253,1.253,0,0,0-.93.32,1.037,1.037,0,0,0-.34.8,1.329,1.329,0,0,0,.09.53,1.742,1.742,0,0,0,.34.49l1.79,2.18a9.4,9.4,0,0,0,1.25,1.3,1.451,1.451,0,0,0,.93.39,1.416,1.416,0,0,0,1-.35,1.149,1.149,0,0,0,.37-0.88,2.339,2.339,0,0,0-.44-1.18,16.845,16.845,0,0,0-1.46-1.84h0Zm-14.62,48.18c1,0,1.51-.63,1.51-1.87V8199.5a1.426,1.426,0,0,1,1.61-1.66h20.15a1.466,1.466,0,0,1,1.65,1.66v13.71a1.681,1.681,0,0,1-.39,1.23,1.649,1.649,0,0,1-1.23.38h-2.67a1.476,1.476,0,0,0-1.72,1.62,1.458,1.458,0,0,0,1.72,1.58h3.2a4.335,4.335,0,0,0,3.13-.98,4.2,4.2,0,0,0,.98-3.13v-14.84q0-4.11-4.14-4.11h-9.14v-6.75c0-1.31-.51-1.97-1.52-1.97-1.05,0-1.58.66-1.58,1.97v6.75h-8.93a3.617,3.617,0,0,0-4.11,4.11v17.3c0,1.24.49,1.87,1.48,1.87h0Zm20.14-24.51a1.65,1.65,0,0,0,1.02.42,1.96,1.96,0,0,0,1.34-.66,17.026,17.026,0,0,0,1.84-2.31,19.276,19.276,0,0,0,1.35-2.16,1.892,1.892,0,0,0,.18-0.7,1.435,1.435,0,0,0-.7-1.2,1.776,1.776,0,0,0-.95-0.31,1.325,1.325,0,0,0-1.23.66,43.42,43.42,0,0,1-3.03,4.19,1.416,1.416,0,0,0-.35.98,1.331,1.331,0,0,0,.53,1.09h0Zm-16.45-.56a1.5,1.5,0,0,0,1.23.67,1.811,1.811,0,0,0,1.05-.35,1.246,1.246,0,0,0,.56-1.09,2.061,2.061,0,0,0-.21-0.88,11.07,11.07,0,0,0-1.42-2.08,21.379,21.379,0,0,0-1.78-2,1.534,1.534,0,0,0-1.09-.42,1.508,1.508,0,0,0-1.05.42,1.329,1.329,0,0,0-.53,1.02,1.467,1.467,0,0,0,.32.88q0.81,1.155,2.92,3.83h0Zm5.69,20.04h7.74a3.232,3.232,0,0,0,2.56-.85,4.063,4.063,0,0,0,.85-2.7v-4.78a2.887,2.887,0,0,0-3.55-3.56h-7.7a3.292,3.292,0,0,0-2.57.85,4.053,4.053,0,0,0-.88,2.71v4.92a3.84,3.84,0,0,0,.85,2.56,4.045,4.045,0,0,0,2.7.85h0Zm6.96-2.74h-6.36a1.188,1.188,0,0,1-1.34-1.38v-3.69a1.165,1.165,0,0,1,1.34-1.33h6.36a1.156,1.156,0,0,1,1.37,1.33v3.69a1.194,1.194,0,0,1-1.37,1.38h0Zm-5.16,47.51a1.243,1.243,0,0,0,.96-0.34,1.52,1.52,0,0,0,.3-1.04V8252h11.95v2.11a1.105,1.105,0,0,1-1.19,1.23h-1.55a1.252,1.252,0,1,0,0,2.5h2.11a2.991,2.991,0,0,0,2.41-.66,3.346,3.346,0,0,0,.76-2.44V8252h1.09a1.029,1.029,0,0,0,1.23-1.09,1.047,1.047,0,0,0-1.23-1.13h-1.09v-5.69a2.668,2.668,0,0,0-.6-2.09,2.975,2.975,0,0,0-2.15-.65h-4.67v-1.8h8.47a1.052,1.052,0,0,0,1.27-1.09,1.063,1.063,0,0,0-1.27-1.12h-4.5v-2.18h2.6a1,1,0,0,0,1.2-1.06,0.987,0.987,0,0,0-1.2-1.01h-2.6v-2.01h3.87a1.044,1.044,0,0,0,1.26-1.09,1.055,1.055,0,0,0-1.26-1.12h-3.87v-1.8a1.089,1.089,0,0,0-1.27-1.19,1.107,1.107,0,0,0-1.3,1.19v1.8h-5.27v-1.8a1.2,1.2,0,0,0-2.39,0v1.8h-3.73a1.044,1.044,0,0,0-1.26,1.09,1.055,1.055,0,0,0,1.26,1.12h3.73v2.01h-2.53a0.987,0.987,0,0,0-1.2,1.01,1,1,0,0,0,1.2,1.06h2.53v2.18h-4.18a1.04,1.04,0,0,0-1.23,1.12,1.029,1.029,0,0,0,1.23,1.09h7.98v1.8h-4.4a2.523,2.523,0,0,0-2.09.56,3.054,3.054,0,0,0-.65,2.18v5.69h-1.3a1.032,1.032,0,0,0-1.2,1.13,1.014,1.014,0,0,0,1.2,1.09h1.3v4.6a1.172,1.172,0,0,0,1.27,1.38h0Zm-9.81-8.34h3.23a2.453,2.453,0,0,0,2.78-2.77v-16.88a2.46,2.46,0,0,0-2.78-2.78h-3.23c-1.88,0-2.82.93-2.82,2.78v16.88c0,1.85.94,2.77,2.82,2.77h0Zm3.51-15.82h-3.83v-3.06a1,1,0,0,1,1.06-1.09h1.72a0.992,0.992,0,0,1,1.05,1.09v3.06Zm10.76-.73v-2.01h5.27v2.01h-5.27Zm0,4.25v-2.18h5.27v2.18h-5.27Zm-14.59,2.99v-4.08h3.83v4.08h-3.83Zm2.78,6.85h-1.72a0.986,0.986,0,0,1-1.06-1.09v-3.3h3.83v3.3a1.094,1.094,0,0,1-.28.81,1.027,1.027,0,0,1-.77.28h0Zm13.22-1.61h-4.61v-1.13a0.882,0.882,0,0,1,.95-0.95h3.66v2.08Zm7.34,0h-4.88v-2.08h3.93a0.871,0.871,0,0,1,.95.99v1.09Zm-11.95,4.21v-2.25h4.61v2.25h-4.61Zm7.07,0v-2.25h4.88v2.25h-4.88Zm-21.1,7.7q1.2,0,3.1-5.09a3.424,3.424,0,0,0,.24-0.95,1.047,1.047,0,0,0-1.23-1.13,1.533,1.533,0,0,0-1.33,1.16,22.891,22.891,0,0,1-1.44,3.17,3.573,3.573,0,0,0-.64,1.47,1.181,1.181,0,0,0,1.3,1.37h0Zm8.41-.98a1.11,1.11,0,0,0,1.3-1.2,8.843,8.843,0,0,0-1.13-2.84c-0.72-1.41-1.36-2.11-1.9-2.11a0.942,0.942,0,0,0-1.16.95,2.78,2.78,0,0,0,.21.77l1.38,3.34a1.4,1.4,0,0,0,1.3,1.09h0Zm-2.36,41.08c0.87,0,1.3-.53,1.3-1.59V8285.9c1.31-.49,2.24-0.85,2.78-1.09a1.26,1.26,0,0,0,.88-1.19,1.1,1.1,0,0,0-1.23-1.27,3.65,3.65,0,0,0-1.09.28l-1.34.53v-7.35h2.18a1.167,1.167,0,0,0,1.34-1.3,1.2,1.2,0,0,0-1.34-1.37h-2.18v-6.12c0-1.03-.43-1.54-1.3-1.54s-1.3.51-1.3,1.54v6.12h-2.39l0.07-.56,0.14-2.14a1.12,1.12,0,0,0-1.27-1.27q-1.185,0-1.26,2.07a40.973,40.973,0,0,1-1.2,9.32l-0.14.74a1.1,1.1,0,0,0,1.3,1.16q1.62,0,2.15-6.65h2.6v8.16l-0.07.04-4.01,1.16c-1.22.28-1.83,0.82-1.83,1.61a1.26,1.26,0,0,0,1.41,1.44,26.048,26.048,0,0,0,4.5-1.4v9.17c0,1.06.43,1.59,1.3,1.59h0Zm16.63-.53q3.165,0,4.5-1.23a4.412,4.412,0,0,0,1.04-1.85,18.34,18.34,0,0,0,.65-3.21,129.51,129.51,0,0,0,.91-16.18q0-3.09-3.44-3.09h-10.52a24.636,24.636,0,0,0,1.34-4.68,1.244,1.244,0,0,0-1.48-1.33c-0.84,0-1.41.69-1.72,2.07a55.212,55.212,0,0,1-1.62,5.73,18.3,18.3,0,0,1-1.97,3.98,6.474,6.474,0,0,0-1.01,1.96,1.2,1.2,0,0,0,1.33,1.38c1.01,0,2.39-2.13,4.15-6.37h2.85a16.281,16.281,0,0,1-6.26,10.83,6.967,6.967,0,0,0-1.09,1.04,1.375,1.375,0,0,0-.35.82,1.146,1.146,0,0,0,1.3,1.3c0.7,0,2.17-1.28,4.39-3.86a20.991,20.991,0,0,0,4.5-10.13h2.29q-1.125,12.525-10.41,18.46c-1.05.68-1.58,1.28-1.58,1.79a1.25,1.25,0,0,0,1.34,1.48c1,0,2.75-1.21,5.23-3.62a24.476,24.476,0,0,0,5.45-7.77,41.325,41.325,0,0,0,2.57-10.34h0.88a0.98,0.98,0,0,1,1.09,1.16l-0.21,4.64q-0.63,12.06-1.62,12.94-0.42.735-2.64,0.84c-1.47.07-2.21,0.58-2.21,1.52,0,1.14.77,1.72,2.32,1.72h0Z" transform="translate(-1416.22 -7997.44)"/>
</svg>
