<svg id="photoTitle1.svg" xmlns="http://www.w3.org/2000/svg" width="238.25" height="368.59" viewBox="0 0 238.25 368.59">
  <defs>
    <style>
      .cls-1 {
        fill: #9abc58;
      }

      .cls-2 {
        fill: #fff;
      }

      .cls-3 {
        fill-rule: evenodd;
      }
    </style>
  </defs>
  <rect id="矩形_1_拷貝_3" data-name="矩形 1 拷貝 3" class="cls-1" width="238.25" height="368.59"/>
  <rect id="矩形_1_拷貝_2" data-name="矩形 1 拷貝 2" class="cls-2" y="8.03" width="238.25" height="352.53"/>
  <path id="樂在學習_健康成長_優質學區" data-name="樂在學習 健康成長 優質學區" class="cls-3" d="M1552.19,5721.57q-7.455-1.83-11.42-5.52h11.42c1.06,0,1.58-.43,1.58-1.3s-0.52-1.3-1.58-1.3H1539.6v-1.97h1.45a2.036,2.036,0,0,0,1.65-.67,2.941,2.941,0,0,0,.56-1.93v-6.89a1.7,1.7,0,0,0,.46.42,9.618,9.618,0,0,0,1.05.74c0.26,0.21.66,0.51,1.22,0.91a15.8,15.8,0,0,1,1.28,1.02l-2.46,3.76a2.34,2.34,0,0,0-1.21.41,1.042,1.042,0,0,0-.44.89,1.434,1.434,0,0,0,.31.99,1.191,1.191,0,0,0,.92.35,59.826,59.826,0,0,0,7.34-1.37,1.436,1.436,0,0,0,1.27,1.3,1.037,1.037,0,0,0,1.19-1.16,13.13,13.13,0,0,0-1.16-3.34c-0.42-1.03-.89-1.55-1.4-1.55a0.932,0.932,0,0,0-1.09,1.02l0.14,0.57,0.42,1.23c-0.44.07-1.11,0.15-2,.24-0.75.1-1.33,0.18-1.73,0.25,0.66-.85,1.21-1.58,1.64-2.22s1.11-1.68,2.02-3.16a14.953,14.953,0,0,0,1.97-3.66,1.13,1.13,0,0,0-1.3-1.26,1.177,1.177,0,0,0-.85.49,9.333,9.333,0,0,0-1.01,1.58l-1.24,2.36-1.82-1.52c1.8-2.99,2.7-4.81,2.7-5.44a1.156,1.156,0,0,0-.35-0.92,1.36,1.36,0,0,0-.95-0.31,1.306,1.306,0,0,0-.84.31,2,2,0,0,0-.6.92c-0.54,1.45-1.12,2.86-1.76,4.21a1.278,1.278,0,0,0-.73-0.21,1.092,1.092,0,0,0-.99.5v-0.81a2.971,2.971,0,0,0-.56-1.94,2.061,2.061,0,0,0-1.65-.66h-2.22a8.282,8.282,0,0,0,.42-1.8,1.157,1.157,0,0,0-1.4-1.19,1.21,1.21,0,0,0-1.04.51,3.569,3.569,0,0,0-.54,1.53l-0.15.95h-0.77c-1.45.07-2.18,0.91-2.18,2.53v9.42a7.21,7.21,0,0,0-.42-1.06l-0.39-.91c-0.42-1.01-.89-1.51-1.4-1.51a0.9,0.9,0,0,0-1.09.95,2.122,2.122,0,0,0,.14.6l0.45,1.26-1.51.21-1.61.18q1.335-1.83,3.76-5.77c0.07-.12.15-0.24,0.24-0.38s0.2-.31.32-0.5a6.289,6.289,0,0,0,1.12-2.28,1.133,1.133,0,0,0-1.3-1.27,1.161,1.161,0,0,0-.84.46,6.909,6.909,0,0,0-.95,1.48l-1.26,2.42-1.59-1.3q2.82-4.71,2.82-5.62a1.162,1.162,0,0,0-.36-0.92,1.406,1.406,0,0,0-.98-0.31,1.544,1.544,0,0,0-1.44,1.23,47.488,47.488,0,0,1-1.83,4.39,2.118,2.118,0,0,0-.98-0.39,1.137,1.137,0,0,0-1.27,1.3,1.22,1.22,0,0,0,.49,1.06l3.8,2.88-2.43,3.76c-1.26.07-1.89,0.51-1.89,1.3a1.538,1.538,0,0,0,.31,1.04,0.968,0.968,0,0,0,.92.3l0.66-.07,6.4-1.27a1.421,1.421,0,0,0,1.27,1.27,1.055,1.055,0,0,0,1.19-.91,1.964,1.964,0,0,0,1.83.98h1.44v1.97h-12.3c-1.08,0-1.62.43-1.62,1.3s0.54,1.3,1.62,1.3h11.07a33.414,33.414,0,0,1-11.85,5.98,1.6,1.6,0,0,0-1.44,1.47,1.23,1.23,0,0,0,1.37,1.41q1.44,0,5.52-1.97a34.346,34.346,0,0,0,7.63-4.99v6.5c0,1.15.47,1.73,1.41,1.73s1.4-.58,1.4-1.73v-6.61a23.707,23.707,0,0,0,8.41,5.38,18.659,18.659,0,0,0,4.92,1.58,1.337,1.337,0,0,0,1.48-1.54c0-.78-0.74-1.34-2.22-1.69h0Zm-16.59-21.41a0.769,0.769,0,0,1,.84-0.81h3.48a0.764,0.764,0,0,1,.88.81v2.78h-5.2v-2.78Zm0,8.05v-3.02h5.2v3.02a0.78,0.78,0,0,1-.88.84h-3.48a0.777,0.777,0,0,1-.84-0.84h0Zm-0.99,32.75h17.79c1.17,0,1.76-.47,1.76-1.41s-0.59-1.41-1.76-1.41h-16.73l0.1-.35a12.376,12.376,0,0,0,.85-2.92c0-.84-0.51-1.26-1.52-1.26a1.645,1.645,0,0,0-1.58,1.51l-0.81,3.02h-8.4c-1.15,0-1.72.47-1.72,1.41s0.57,1.41,1.72,1.41h7.38l-1.51,3.44c-0.56,1.03-1.29,2.24-2.18,3.62a37.308,37.308,0,0,1-4.92,5.84,4.16,4.16,0,0,0-.61.72,1.107,1.107,0,0,0-.2.61,1.647,1.647,0,0,0,.35,1.15,1.435,1.435,0,0,0,1.06.37c0.7,0,2.14-1.38,4.32-4.12v11.29a2.076,2.076,0,0,0,.35,1.33,1.315,1.315,0,0,0,1.06.42,1.353,1.353,0,0,0,1.09-.42,2.076,2.076,0,0,0,.35-1.33v-15.4a41.87,41.87,0,0,0,3.76-7.52h0Zm18.07,20.81h-7.52v-8.93h6.15c1.15,0,1.72-.46,1.72-1.37,0-.89-0.57-1.34-1.72-1.34h-6.15v-5.59c0-1.15-.48-1.72-1.44-1.72s-1.44.57-1.44,1.72v5.59h-6.58c-1.12,0-1.68.45-1.68,1.34,0,0.91.56,1.37,1.68,1.37h6.58v8.93h-8.34c-1.07,0-1.61.45-1.61,1.37s0.54,1.37,1.61,1.37h18.74c1.13,0,1.69-.46,1.69-1.37s-0.56-1.37-1.69-1.37h0Zm-28.26,32.21c0.93,0,1.4-.55,1.4-1.65v-2.07a1.083,1.083,0,0,1,1.2-1.16h22.67a1.062,1.062,0,0,1,1.16,1.16v2.18a1.807,1.807,0,0,0,.36,1.26,1.33,1.33,0,0,0,1.05.39q1.41,0,1.41-1.65v-2.85c0.14-1.87-.65-2.81-2.36-2.81h-0.38l0.73-10.27c0-1.4-.91-2.11-2.74-2.11h-4.99a1.151,1.151,0,0,0-.86.27,1.094,1.094,0,0,0-.27.82,0.955,0.955,0,0,0,1.13,1.02h4.04a1.068,1.068,0,0,1,.78.23,1.238,1.238,0,0,1,.21.83v0.74h-4.71a1.014,1.014,0,0,0-1.2,1.09,1.058,1.058,0,0,0,.28.82,1.3,1.3,0,0,0,.92.26h4.46l-0.07,1.94h-4.39a1.025,1.025,0,0,0-1.2,1.12,1.014,1.014,0,0,0,1.2,1.09h4.21l-0.14,2.15H1528.5l-0.15-2.15h3.84a1.12,1.12,0,1,0,0-2.21h-3.98l-0.14-1.94h4.12a1.1,1.1,0,1,0,0-2.17h-4.29l-0.04-.99a0.85,0.85,0,0,1,.3-0.76,2.391,2.391,0,0,1,1.11-.36,16.314,16.314,0,0,0,3.3-.65,1.192,1.192,0,0,0,.99-0.94,1.033,1.033,0,0,0-1.09-1.23,2.078,2.078,0,0,0-.44.07c-0.18.05-.31,0.09-0.41,0.11l-1.12.28-3.62.6a2.277,2.277,0,0,0-1.36.79,2.231,2.231,0,0,0-.4,1.46l0.74,10.09h-0.49a2.349,2.349,0,0,0-1.83.7,3.227,3.227,0,0,0-.56,2.11v2.71q0,1.68,1.44,1.68h0Zm10.51-14.02c0.54,0,1.7-.71,3.48-2.11l1.23,1.16a1.989,1.989,0,0,0,1.2.67,0.974,0.974,0,0,0,1.05-1.09c0-.47-0.49-1.06-1.48-1.76l-0.38-.21c1.17-1.03,1.75-1.75,1.75-2.15a0.831,0.831,0,0,0-.26-0.66,1.087,1.087,0,0,0-.79-0.25,2.012,2.012,0,0,0-1.34.81l-1.02,1.05a10.611,10.611,0,0,0-2.81-1.65,1.015,1.015,0,0,0-.75.25,0.838,0.838,0,0,0-.27.66q0,0.465,2.22,2.01l-0.78.42q-2.07,1.23-2.07,1.83a0.9,0.9,0,0,0,1.02,1.02h0Zm-0.91,5.52a0.878,0.878,0,0,0,1.01.98,3.379,3.379,0,0,0,1.34-.54,22.738,22.738,0,0,0,2.22-1.53l1.51,1.26a2.165,2.165,0,0,0,1.19.67,0.948,0.948,0,0,0,1.06-1.09c0-.47-0.69-1.17-2.08-2.11,1.08-.84,1.62-1.47,1.62-1.9a0.907,0.907,0,0,0-1.09-.95,2.43,2.43,0,0,0-1.27.78l-0.94.91-0.57-.39-1.09-.63a2.94,2.94,0,0,0-1.16-.53,0.862,0.862,0,0,0-1.02.92q0,0.495,1.8,1.65l0.38,0.25-0.7.42c-1.48.82-2.21,1.43-2.21,1.83h0Zm18.7,11.6h-13.36v-0.21a1.2,1.2,0,0,1,1.12-1.02,61.45,61.45,0,0,0,6.79-2.25c1.62-.68,2.42-1.21,2.42-1.58a0.965,0.965,0,0,0-.7-0.9,5.415,5.415,0,0,0-2.04-.3h-18.81a1.553,1.553,0,0,0-1.05.28,1.086,1.086,0,0,0-.32.85,1.109,1.109,0,0,0,1.37,1.09h15.54v0.07l-3.65.95a12.455,12.455,0,0,0-2.82.87,1.266,1.266,0,0,0-.59,1.16v0.99h-12.66a1.182,1.182,0,1,0,0,2.32h12.66v1.93a1.252,1.252,0,0,1-1.37,1.37h-1.41c-1.13,0-1.69.44-1.69,1.3a1.215,1.215,0,0,0,.41,1.02,2.073,2.073,0,0,0,1.28.32h2.14a3.08,3.08,0,0,0,2.57-.7,3.885,3.885,0,0,0,.81-2.74v-2.5h13.36c0.96,0,1.44-.39,1.44-1.16s-0.48-1.16-1.44-1.16h0Zm-17.3,30.25a1.371,1.371,0,0,0,1.06-.42,1.705,1.705,0,0,0,.38-1.16v-8.65a2.787,2.787,0,0,0-.63-2.29,3.38,3.38,0,0,0-2.39-.7h-9.74c-1.01,0-1.51.4-1.51,1.19,0,0.82.5,1.23,1.51,1.23h8.47a1.326,1.326,0,0,1,1.48,1.52v7.7a1.757,1.757,0,0,0,.35,1.17,1.3,1.3,0,0,0,1.02.41h0Zm16.03,1.54a1.335,1.335,0,0,0,1.04-.4,1.671,1.671,0,0,0,.37-1.18V5817.1a2.787,2.787,0,0,0-.63-2.27,3.3,3.3,0,0,0-2.36-.72h-10.44c-1.01,0-1.51.4-1.51,1.19,0,0.82.5,1.23,1.51,1.23h9.03a1.323,1.323,0,0,1,1.52,1.52v9.24a1.628,1.628,0,0,0,.38,1.18,1.435,1.435,0,0,0,1.09.4h0Zm-26.82-10.58a1.05,1.05,0,0,1,1.05-.63,2.642,2.642,0,0,1,.99.25,14.677,14.677,0,0,1,2.63,1.47,1.794,1.794,0,0,1,.88,1.34,1.162,1.162,0,0,1-.14.56,1.193,1.193,0,0,1-1.09.7,1.654,1.654,0,0,1-.95-0.31,25.157,25.157,0,0,0-2.56-1.44,1.46,1.46,0,0,1-.99-1.27,1.862,1.862,0,0,1,.18-0.67h0Zm15.85,0.11a1.088,1.088,0,0,1,1.06-.67,2.837,2.837,0,0,1,.98.25,19.44,19.44,0,0,1,2.67,1.4,1.718,1.718,0,0,1,.92,1.3,1.341,1.341,0,0,1-.18.6,1.214,1.214,0,0,1-1.12.7,1.863,1.863,0,0,1-.92-0.28,22.5,22.5,0,0,0-2.6-1.37,1.462,1.462,0,0,1-.98-1.26,1.975,1.975,0,0,1,.17-0.67h0Zm-0.91,8.86a1.152,1.152,0,0,0,1.09.74,2.156,2.156,0,0,0,.77-0.18c1.53-.66,3.61-1.65,6.26-2.99a1.389,1.389,0,0,0,.91-1.16,1.162,1.162,0,0,0-.14-0.56,1.054,1.054,0,0,0-1.02-.7,1.8,1.8,0,0,0-.8.21c-1.57.77-3.7,1.72-6.37,2.84a1.246,1.246,0,0,0-.88,1.13,1.862,1.862,0,0,0,.18.67h0Zm-16.66.21a1.15,1.15,0,0,0,1.16.81,1.785,1.785,0,0,0,.7-0.14q3.51-1.41,6.96-3.03a1.3,1.3,0,0,0,.98-1.16,1.228,1.228,0,0,0-.1-0.49,1.046,1.046,0,0,0-1.06-.77,2.312,2.312,0,0,0-.73.17q-2.745,1.275-7.11,2.85a1.208,1.208,0,0,0-.94,1.16,1.988,1.988,0,0,0,.14.6h0Zm6.43,16.49h18.28a3.161,3.161,0,0,0,2.6-.69,3.746,3.746,0,0,0,.81-2.69v-7.21a3,3,0,0,0-.72-2.53,3.812,3.812,0,0,0-2.69-.81h-9.1a5.178,5.178,0,0,0,.8-1.61,1.116,1.116,0,0,0-1.37-1.13,1.656,1.656,0,0,0-1.61,1.02l-0.78,1.72h-6.22a3.346,3.346,0,0,0-2.6.76,3.563,3.563,0,0,0-.81,2.58v7.21a3.091,3.091,0,0,0,.7,2.57,3.818,3.818,0,0,0,2.71.81h0Zm18.98-8.23h-19.68v-1.9a1.43,1.43,0,0,1,.37-0.98,1.232,1.232,0,0,1,.96-0.35h17.02a1.474,1.474,0,0,1,.98.36,1.27,1.27,0,0,1,.35.97v1.9Zm-1.33,5.73h-17.02a1.2,1.2,0,0,1-1.33-1.3v-2.04h19.68v2.04a1.2,1.2,0,0,1-1.33,1.3h0Zm-59.3-145.48a2.771,2.771,0,0,0,.07-0.64,1.045,1.045,0,0,0-.21-0.7,1.575,1.575,0,0,0-.71-0.39,2.54,2.54,0,0,0-.42-0.07,1.3,1.3,0,0,0-1.27,1.09q-1.47,4.815-2.25,6.96c-0.51,1.36-1.01,2.57-1.49,3.61s-1.11,2.23-1.88,3.57a1.759,1.759,0,0,0-.28.87,1,1,0,0,0,.53.88,1.415,1.415,0,0,0,.7.25,1.271,1.271,0,0,0,1.02-.7,29.691,29.691,0,0,0,1.69-2.96v16.7a1.882,1.882,0,0,0,.31,1.22,1.249,1.249,0,0,0,.99.36,1.328,1.328,0,0,0,1.03-.36,1.762,1.762,0,0,0,.34-1.22v-22.88a55.545,55.545,0,0,0,1.83-5.59h0Zm7.52,6.18a1.08,1.08,0,0,0-1.3,1.13,1.035,1.035,0,0,0,.32.86,1.473,1.473,0,0,0,.98.26h5.34v2.32h-3.79a1.137,1.137,0,1,0,0,2.25h3.79v2.04h-4.04a1.165,1.165,0,1,0,0,2.32h4.04v2.04h-4.71a1.381,1.381,0,0,0-.96.3,1.08,1.08,0,0,0-.34.86,1.091,1.091,0,0,0,1.3,1.16h4.71v2.71a1.52,1.52,0,0,0,.32,1.07,1.322,1.322,0,0,0,1.02.34,1.185,1.185,0,0,0,1.26-1.41v-2.71h5.77a1.11,1.11,0,0,0,1.34-1.16,1.061,1.061,0,0,0-.36-0.86,1.454,1.454,0,0,0-.98-0.3h-5.77v-2.04h4.82a1.19,1.19,0,0,0,.93-2.02,1.333,1.333,0,0,0-.93-0.3h-4.82v-2.04h2.99a2.347,2.347,0,0,0,2.68-2.63v-1.94h1.08a1.127,1.127,0,1,0,0-2.25h-1.08v-1.82a2.8,2.8,0,0,0-.69-2.04,2.657,2.657,0,0,0-1.99-.71h-2.99v-1.93a1.2,1.2,0,0,0-1.26-1.44,1.232,1.232,0,0,0-1.34,1.44v1.93h-4a1.127,1.127,0,1,0,0,2.25h4v2.32h-5.34Zm14.24,20.36-3.55.1-1.09.04a34.634,34.634,0,0,1-3.71-.19,24.291,24.291,0,0,1-3.11-.51,11.31,11.31,0,0,1-4.96-2.96,29.571,29.571,0,0,0,1.83-10.09,1.9,1.9,0,0,0-.53-1.54,2.336,2.336,0,0,0-1.65-.53h-1.2c-0.35,0-.52-0.08-0.52-0.25a1.783,1.783,0,0,1,.14-0.42q0.945-1.995,2.21-5.06c0.47-1.17.77-1.97,0.92-2.39a2.368,2.368,0,0,0,.14-0.77,1.463,1.463,0,0,0-.57-1.22,2.4,2.4,0,0,0-1.51-.44h-3.16a1.311,1.311,0,1,0,0,2.6h1.65c0.28,0,.42.1,0.42,0.29a0.584,0.584,0,0,1-.03.21c-0.05.09-.14,0.34-0.28,0.73s-0.32.86-.53,1.38l-2.25,5.37a2.9,2.9,0,0,0-.25,1.13,1.227,1.227,0,0,0,.44,1.02,2.034,2.034,0,0,0,1.28.35h1.94a1.011,1.011,0,0,1,.58.14,0.573,0.573,0,0,1,.19.49v0.11a28.709,28.709,0,0,1-1.05,6.82,20.035,20.035,0,0,1-1.73-4.11,1.158,1.158,0,0,0-1.05-1.02,1.766,1.766,0,0,0-.39.07,1.091,1.091,0,0,0-.88,1.09,4.3,4.3,0,0,0,.07.45,19.021,19.021,0,0,0,2.71,6.16,15.275,15.275,0,0,1-3.13,3.65,1.57,1.57,0,0,0-.63,1.13,1.27,1.27,0,0,0,.28.74,1.185,1.185,0,0,0,.95.49,1.552,1.552,0,0,0,.98-0.39,13.63,13.63,0,0,0,3.38-3.94,11.762,11.762,0,0,0,5.77,3.27,33.418,33.418,0,0,0,4.07.64,39.007,39.007,0,0,0,4.4.21l3.34-.04a1.837,1.837,0,0,0,1.3-.37,1.432,1.432,0,0,0,.39-1.1c0-.92-0.54-1.36-1.62-1.34h0Zm-6.3-22.68h2.08a0.874,0.874,0,0,1,.95.92v1.4h-3.03v-2.32Zm0,4.57h3.03v1.41a0.843,0.843,0,0,1-.95.91h-2.08v-2.32Zm-18.35,35.46a0.779,0.779,0,0,1,.88-0.88h23.56a1.234,1.234,0,1,0,0-2.46h-10.76v-1.41a1.6,1.6,0,0,0-3.16,0v1.41h-10.2q-3.135,0-3.13,3.3v7.03a67.429,67.429,0,0,1-.54,9.41,25.354,25.354,0,0,1-1.96,6.8,2.382,2.382,0,0,0-.24.98,1.245,1.245,0,0,0,.95,1.2,1.885,1.885,0,0,0,.6.1,1.639,1.639,0,0,0,1.44-1.19,27.166,27.166,0,0,0,1.91-7.19,68.523,68.523,0,0,0,.65-10.04v-7.06Zm25.03,21.86a30.038,30.038,0,0,1-3.74-1.49,18.578,18.578,0,0,1-2.65-1.5,23.841,23.841,0,0,0,5.02-2.91,1.359,1.359,0,0,0,.67-1.16,1.19,1.19,0,0,0-.35-0.9,1.273,1.273,0,0,0-.91-0.33,1.54,1.54,0,0,0-.65.12,3.345,3.345,0,0,0-.62.37,44.294,44.294,0,0,1-4.89,3.37,20.044,20.044,0,0,1-3.2-4.04h6.61a2.4,2.4,0,0,0,2.64-2.64v-1.93h2a1.364,1.364,0,0,0,.95-0.32,1.212,1.212,0,0,0-.95-2.07h-2v-1.76a2.637,2.637,0,0,0-.69-1.95,2.606,2.606,0,0,0-1.95-.69h-6.61v-1.3a1.291,1.291,0,0,0-.36-0.93,1.55,1.55,0,0,0-2.01,0,1.3,1.3,0,0,0-.37.93v1.3h-7.24a1.1,1.1,0,0,0-1.34,1.13,1.117,1.117,0,0,0,.36.88,1.406,1.406,0,0,0,.98.31h7.24v2.08h-8.93a1.452,1.452,0,0,0-1.02.32,1.269,1.269,0,0,0,0,1.75,1.5,1.5,0,0,0,1.02.32h8.93v2.25h-7.7a1.078,1.078,0,0,0-1.3,1.12,1.178,1.178,0,0,0,.32.92,1.434,1.434,0,0,0,.98.28h7.7v8.82a0.775,0.775,0,0,1-.88.88h-2.11a1.742,1.742,0,0,0-1.14.32,1.293,1.293,0,0,0-.37,1.02,1.263,1.263,0,0,0,1.51,1.33h2.43a2.81,2.81,0,0,0,3.3-3.3v-5.91a13.433,13.433,0,0,0,4.15,4.8,19.121,19.121,0,0,0,6.4,3.29,1.91,1.91,0,0,0,.6.11,1.279,1.279,0,0,0,.84-0.29,1.391,1.391,0,0,0,.49-0.8,1.927,1.927,0,0,0,.08-0.46,1.167,1.167,0,0,0-.32-0.81,2,2,0,0,0-.92-0.53h0Zm-11.32-17.51h5.7a0.779,0.779,0,0,1,.88.88v1.2h-6.58v-2.08Zm6.58,4.47v1.37a0.775,0.775,0,0,1-.88.88h-5.7v-2.25h6.58Zm-17.79,7.35,2.43,1.4c0.35,0.21.67,0.4,0.98,0.55a1.821,1.821,0,0,0,.77.23,1.2,1.2,0,0,0,.88-0.34,1.11,1.11,0,0,0,.35-0.86,1.306,1.306,0,0,0-.31-0.84,4.327,4.327,0,0,0-1.09-.85,18.842,18.842,0,0,0-2.06-1.03,4.369,4.369,0,0,0-1.46-.44,1.272,1.272,0,0,0-.86.28,0.956,0.956,0,0,0-.33.77,1.27,1.27,0,0,0,.7,1.13h0Zm6.85,4.39a1.125,1.125,0,0,0,.57-0.95,1.093,1.093,0,0,0-1.09-1.09,3.153,3.153,0,0,0-.99.2c-0.37.13-.95,0.35-1.72,0.68-0.73.33-2.28,0.93-4.68,1.79l-0.73.25a3.128,3.128,0,0,0-1.25.67,1.179,1.179,0,0,0-.34.84,1.482,1.482,0,0,0,.32,1,1.079,1.079,0,0,0,.88.37,8.854,8.854,0,0,0,2.46-.66,39.2,39.2,0,0,0,3.94-1.69,22.452,22.452,0,0,0,2.63-1.41h0Zm13.79,44.59q1.335,0,2.25-2.25a12.107,12.107,0,0,0,.95-4.6,1.339,1.339,0,0,0-1.52-1.51c-0.79,0-1.25.74-1.37,2.21-0.11,1.57-.45,2.36-1.02,2.36-0.42,0-1.08-.55-1.97-1.66a22.307,22.307,0,0,1-2.07-2.95,43.583,43.583,0,0,0,3.45-5.9,15.033,15.033,0,0,0,1.58-4.05,1.173,1.173,0,0,0-1.41-1.23c-0.73,0-1.29.61-1.69,1.83a24.587,24.587,0,0,1-3.02,6.08l-0.35.42a40.325,40.325,0,0,1-2.36-11.81h9.71c1.17,0,1.75-.48,1.75-1.44s-0.58-1.44-1.75-1.44h-9.88V5775a1.41,1.41,0,0,0-1.48-1.69,1.307,1.307,0,0,0-1.44,1.51l0.07,4.26h-11.78c-2.15,0-3.21,1.08-3.16,3.23l0.07,6.79a54.25,54.25,0,0,1-.39,7.31,17.2,17.2,0,0,1-1.19,4.71,6.575,6.575,0,0,0-.78,2.08,1.373,1.373,0,0,0,1.48,1.61,1.956,1.956,0,0,0,1.55-1.19,13.259,13.259,0,0,0,1.26-3.55,48.284,48.284,0,0,0,.92-10.62h5.97a1.333,1.333,0,0,1,.93.3,1.08,1.08,0,0,1,.34.86,32.444,32.444,0,0,1-.28,4.57,1.948,1.948,0,0,1-2.15,1.9h-1.3a1.273,1.273,0,0,0-1.44,1.44,1.3,1.3,0,0,0,1.44,1.51q4.32,0,5.49-2.04c0.58-1.05.88-3.79,0.88-8.22,0-2.02-.97-3.03-2.89-3.03h-6.99a20.8,20.8,0,0,1,.21-4.32,1.108,1.108,0,0,1,1.09-.46h10.86a40.734,40.734,0,0,0,3.34,14.31,18.761,18.761,0,0,1-7.42,5.24,18.338,18.338,0,0,0-2.49,1.05,1.2,1.2,0,0,0-.36.95,1.265,1.265,0,0,0,1.38,1.48q1.365,0,4.46-1.79a27.757,27.757,0,0,0,5.8-4.36,23.25,23.25,0,0,0,3.48,4.43,4.872,4.872,0,0,0,3.24,1.75h0Zm-2.46-26.82a1.3,1.3,0,0,0,1.58-1.34,1.785,1.785,0,0,0-.28-0.73,6.112,6.112,0,0,0-.81-1.06,3.605,3.605,0,0,0-1.87-1.37c-1.03,0-1.54.43-1.54,1.3a2.034,2.034,0,0,0,.38.74c1.13,1.64,1.97,2.46,2.54,2.46h0Zm5.13,63.76a21.061,21.061,0,0,0-3.52-.95,20.02,20.02,0,0,1-5.27-2l0.39-.18a37.047,37.047,0,0,0,4.74-2.67c1.1-.78,1.68-1.36,1.72-1.76a1.341,1.341,0,0,0-.35-1.09,1.468,1.468,0,0,0-1.09-.39,2.354,2.354,0,0,0-1.07.3,13.863,13.863,0,0,0-1.63,1.07c-0.85.64-2.11,1.56-3.8,2.78a5.128,5.128,0,0,1-.46.35c-0.14.1-.26,0.18-0.35,0.25a12.124,12.124,0,0,1-3.52-5.45h13.15c1.08,0,1.62-.42,1.62-1.27s-0.54-1.3-1.62-1.3h-22.46v-2.74h18.77a1.307,1.307,0,1,0,0-2.6h-18.77v-2.39h18.77a1.307,1.307,0,1,0,0-2.6h-18.77v-1.13a1.362,1.362,0,0,1,1.55-1.54h18.28c1.05,0,1.58-.44,1.58-1.31,0-.84-0.53-1.26-1.58-1.26h-19.37a3.2,3.2,0,0,0-2.47.7,3.572,3.572,0,0,0-.77,2.57v12.3h-3.58a1.891,1.891,0,0,0-1.2.32,1.189,1.189,0,0,0-.39.98c0,0.85.53,1.27,1.59,1.27h3.58v9.07c-0.94.14-1.83,0.25-2.67,0.32a3.307,3.307,0,0,0-1.57.49,1.23,1.23,0,0,0-.54,1.05,1.354,1.354,0,0,0,1.58,1.48,41.93,41.93,0,0,0,4.71-.67l2.22-.38c1.43-.22,2.72-0.45,3.86-0.71q2.82-.6,3.66-0.84a1.574,1.574,0,0,0,1.44-1.48,1.684,1.684,0,0,0-.31-1.09,0.9,0.9,0,0,0-.92-0.28l-0.74.14q-2.73.7-7.94,1.55v-8.65h6.57q2.01,7.77,10.97,11.07a18.525,18.525,0,0,0,4.78,1.34,1.469,1.469,0,0,0,1.73-1.58,1.531,1.531,0,0,0-.13-0.67,1.062,1.062,0,0,0-.4-0.42h0Zm-66.26-146.51a1.226,1.226,0,0,0-1.41-1.37,1.468,1.468,0,0,0-1.41,1.47,49.157,49.157,0,0,1-1.97,7.04,41.513,41.513,0,0,1-2.6,6.32c-0.4.73-.68,1.28-0.84,1.66a2.4,2.4,0,0,0-.25.98,0.965,0.965,0,0,0,.3.74,1.262,1.262,0,0,0,.9.28,1.95,1.95,0,0,0,1.11-1.07,24.5,24.5,0,0,0,1.56-3.11v15.99c0,1.1.45,1.65,1.34,1.65,0.93,0,1.4-.55,1.4-1.65v-22.95a31.078,31.078,0,0,0,1.87-5.98h0Zm5.48,3.58c-1.85,0-2.78.9-2.78,2.68V5708h-0.77a2.22,2.22,0,0,0-2.5,2.53v1.51a1.115,1.115,0,0,0,1.16,1.34,1.128,1.128,0,0,0,1.2-1.34v-1.16a1.213,1.213,0,0,1,.26-0.77,1.019,1.019,0,0,1,.76-0.25h16.77a0.94,0.94,0,0,1,1.05,1.02v1.09a1.128,1.128,0,0,0,1.2,1.34,1.168,1.168,0,0,0,.91-0.35,1.454,1.454,0,0,0,.32-0.99v-1.51a2.174,2.174,0,0,0-2.46-2.46h-0.74v-6.29c0-1.78-.94-2.68-2.81-2.68h-5.8l0.7-1.44h9.49a1.35,1.35,0,0,0,.95-0.26,1.082,1.082,0,0,0,.28-0.83,1.015,1.015,0,0,0-1.23-1.05h-19.37a1.015,1.015,0,0,0-1.23,1.05,1.082,1.082,0,0,0,.28.83,1.35,1.35,0,0,0,.95.26h7.17l-0.38,1.44h-3.38Zm11.64,2.68v0.42h-11.68v-0.42a0.854,0.854,0,0,1,.2-0.62,0.887,0.887,0,0,1,.65-0.19h9.98a0.733,0.733,0,0,1,.85.81h0Zm-11.68,3.34v-1.37h11.68v1.37h-11.68Zm0,2.95v-1.41h11.68V5708h-11.68Zm5.63,2.07a0.877,0.877,0,0,0-1.05.92,0.771,0.771,0,0,0,.26.42,2.951,2.951,0,0,0,.72.56,4.873,4.873,0,0,0,1.3.71,0.868,0.868,0,0,0,.98-0.99,1.23,1.23,0,0,0-.77-0.98,3.214,3.214,0,0,0-1.44-.64h0Zm10.58,13.22a28.3,28.3,0,0,1-7.21-1.12,26.381,26.381,0,0,0,3.7-2.46q1.86-1.515,1.86-2.04c0-.78-0.6-1.16-1.79-1.16h-9.18l1.16-1.3a31.52,31.52,0,0,0,4.82-.21c1.03-.22,1.54-0.99,1.54-2.32a1.258,1.258,0,0,0-.28-0.88,1.063,1.063,0,0,0-.84-0.32,0.907,0.907,0,0,0-.95.95,1.173,1.173,0,0,1-.35.81,4.032,4.032,0,0,1-1.58.17h-3.66a0.557,0.557,0,0,1-.63-0.63v-1.41a1.028,1.028,0,0,0-1.16-1.16,1.045,1.045,0,0,0-1.2,1.16v2.11a1.688,1.688,0,0,0,.42,1.2,1.581,1.581,0,0,0,1.2.46,15.744,15.744,0,0,1-5.73,3.97c-1.08.44-1.62,0.89-1.62,1.34a0.929,0.929,0,0,0,1.02,1.08q1.44,0,4.96-2.53a11.812,11.812,0,0,0,3.16,3.06,36.032,36.032,0,0,1-7.56,1.55c-1.54.09-2.32,0.49-2.32,1.19a1.14,1.14,0,0,0,1.34,1.23,29.059,29.059,0,0,0,10.79-2.56,27.162,27.162,0,0,0,10.62,2.46,1.266,1.266,0,0,0,1.48-1.37c0-.8-0.67-1.22-2.01-1.27h0Zm-3.79-13.01a0.935,0.935,0,0,0-.76.27,1.234,1.234,0,0,0-.19.9l1.3,2.49a1.7,1.7,0,0,0,1.26,1.23,1.258,1.258,0,0,0,.88-0.28,0.981,0.981,0,0,0,.32-0.77,6.767,6.767,0,0,0-1.06-2.15c-0.72-1.12-1.31-1.69-1.75-1.69h0Zm-15.02,1.41-0.59,1.48a4.174,4.174,0,0,0-.74,1.47,0.948,0.948,0,0,0,1.09,1.06,1.194,1.194,0,0,0,.88-0.53,5.423,5.423,0,0,0,.77-1.55c0.16-.49.26-0.78,0.28-0.87a4.877,4.877,0,0,0,.39-1.27,0.844,0.844,0,0,0-1.02-.88,0.737,0.737,0,0,0-.58.26,3.88,3.88,0,0,0-.48.83h0Zm5.31,6.68h7.6q0.24,0,.24.18a4.074,4.074,0,0,1-1.44,1.09c-0.94.56-1.84,1.05-2.71,1.47a15.142,15.142,0,0,1-3.69-2.74h0Zm-15.26,29.36c0.75,0,1.53-.63,2.32-1.9a11.137,11.137,0,0,0,1.45-4.6h4.25v3.76a1.31,1.31,0,1,0,2.6,0v-3.76h2.74a1.176,1.176,0,1,0,0-2.32h-9.45l0.03-.46c0-.99.35-1.51,1.06-1.58l3.09-.36c2.13-.28,3.47-0.46,4.01-0.56a1.111,1.111,0,0,0,1.16-.98,1.385,1.385,0,0,0-.35-1.02,1.068,1.068,0,0,0-.99-0.25l-4.67.78-2.64.28a4.11,4.11,0,0,0-2.46.74,2.316,2.316,0,0,0-.88,1.86v0.74a36.736,36.736,0,0,1-.21,3.79,5.907,5.907,0,0,1-1.41,2.85,3.356,3.356,0,0,0-1.02,1.58,1.23,1.23,0,0,0,1.37,1.41h0Zm14.56-1.13a3.331,3.331,0,0,0,2.32-1.61,7.467,7.467,0,0,0,1.51-3.76h4.71v3.62c0,1.07.45,1.61,1.34,1.61,0.91,0,1.37-.54,1.37-1.61v-3.62h3.55a1.182,1.182,0,1,0,0-2.32h-10.76v-0.08a6.071,6.071,0,0,1,.21-1.68,1.568,1.568,0,0,1,1.02-.35q5.805-.6,7.31-0.85c0.87-.14,1.31-0.47,1.31-0.98a1.286,1.286,0,0,0-.36-1,1.16,1.16,0,0,0-.98-0.27l-0.67.07a61.274,61.274,0,0,1-7.17.99,5.317,5.317,0,0,0-2.72.74,1.861,1.861,0,0,0-.9,1.72l0.03,2.85a5.172,5.172,0,0,1-1.72,3.93,2.166,2.166,0,0,0-.77,1.23,1.206,1.206,0,0,0,1.37,1.37h0Zm-9.53,14.63h19.27a2.8,2.8,0,0,0,2.26-.62,3.14,3.14,0,0,0,.73-2.3v-8.3a2.89,2.89,0,0,0-.69-2.23,3.292,3.292,0,0,0-2.3-.68h-19.27a2.762,2.762,0,0,0-2.25.61,3.2,3.2,0,0,0-.7,2.3v8.3a2.763,2.763,0,0,0,.65,2.23,3.244,3.244,0,0,0,2.3.69h0Zm19.41-10.06h-19.55v-0.87a0.932,0.932,0,0,1,.99-1.02h17.57a0.923,0.923,0,0,1,.99,1.02v0.87Zm-19.55,3.98v-1.97h19.55v1.97h-19.55Zm18.56,3.93h-17.57a0.92,0.92,0,0,1-.99-1.01v-0.92h19.55v0.92a0.924,0.924,0,0,1-.99,1.01h0Zm2.11,6.3,3.91,0.38a1.181,1.181,0,0,0,1.3-1.37c0-.72-0.87-1.16-2.61-1.3a35.458,35.458,0,0,1-8.22-1.37l-0.95-.24a1.3,1.3,0,0,0-1.48,1.47c0,0.45.67,0.87,2.01,1.27a44.511,44.511,0,0,0,6.04,1.16h0Zm-25.87.38,1.12-.1a49.031,49.031,0,0,0,9.88-1.72,1.214,1.214,0,0,0,1.16-.99,1.244,1.244,0,0,0-1.37-1.44c-0.14.02-.36,0.08-0.67,0.16s-0.65.17-1.05,0.26c-1.08.26-2.32,0.51-3.73,0.74-1.33.23-2.76,0.42-4.29,0.56-1.4.14-2.11,0.53-2.11,1.16,0,0.99.35,1.44,1.06,1.37h0Zm1.09,28.22c0.93,0,1.4-.55,1.4-1.65v-2.07a1.083,1.083,0,0,1,1.2-1.16h22.67a1.07,1.07,0,0,1,1.17,1.16v2.18a1.808,1.808,0,0,0,.35,1.26,1.33,1.33,0,0,0,1.05.39q1.41,0,1.41-1.65v-2.85c0.14-1.87-.65-2.81-2.36-2.81h-0.38l0.73-10.27c0-1.4-.91-2.11-2.74-2.11h-4.99a1.151,1.151,0,0,0-.86.27,1.094,1.094,0,0,0-.27.82,0.955,0.955,0,0,0,1.13,1.02h4.04a1.052,1.052,0,0,1,.78.23,1.238,1.238,0,0,1,.21.83v0.74h-4.71a1.014,1.014,0,0,0-1.2,1.09,1.058,1.058,0,0,0,.28.82,1.3,1.3,0,0,0,.92.26h4.46l-0.07,1.94h-4.39a1.025,1.025,0,0,0-1.2,1.12,1.014,1.014,0,0,0,1.2,1.09h4.21l-0.14,2.15H1442.1l-0.14-2.15h3.83a1.12,1.12,0,1,0,0-2.21h-3.98l-0.14-1.94h4.12a1.1,1.1,0,1,0,0-2.17h-4.29l-0.04-.99a0.85,0.85,0,0,1,.3-0.76,2.391,2.391,0,0,1,1.11-.36,16.314,16.314,0,0,0,3.3-.65,1.192,1.192,0,0,0,.99-0.94,1.033,1.033,0,0,0-1.09-1.23,2.078,2.078,0,0,0-.44.07c-0.18.05-.31,0.09-0.41,0.11l-1.12.28-3.62.6a2.277,2.277,0,0,0-1.36.79,2.231,2.231,0,0,0-.4,1.46l0.74,10.09h-0.49a2.349,2.349,0,0,0-1.83.7,3.227,3.227,0,0,0-.56,2.11v2.71q0,1.68,1.44,1.68h0Zm10.51-14.02c0.54,0,1.7-.71,3.48-2.11l1.23,1.16a1.989,1.989,0,0,0,1.2.67,0.974,0.974,0,0,0,1.05-1.09c0-.47-0.49-1.06-1.48-1.76l-0.38-.21c1.17-1.03,1.75-1.75,1.75-2.15a0.831,0.831,0,0,0-.26-0.66,1.087,1.087,0,0,0-.79-0.25,2.012,2.012,0,0,0-1.34.81l-1.02,1.05a10.611,10.611,0,0,0-2.81-1.65,1.015,1.015,0,0,0-.75.25,0.838,0.838,0,0,0-.27.66q0,0.465,2.22,2.01l-0.78.42q-2.07,1.23-2.07,1.83a0.9,0.9,0,0,0,1.02,1.02h0Zm-0.91,5.52a0.878,0.878,0,0,0,1.01.98,3.379,3.379,0,0,0,1.34-.54,22.738,22.738,0,0,0,2.22-1.53l1.51,1.26a2.165,2.165,0,0,0,1.19.67,0.948,0.948,0,0,0,1.06-1.09c0-.47-0.69-1.17-2.08-2.11,1.08-.84,1.62-1.47,1.62-1.9a0.907,0.907,0,0,0-1.09-.95,2.43,2.43,0,0,0-1.27.78l-0.94.91-0.57-.39-1.09-.63a2.94,2.94,0,0,0-1.16-.53,0.862,0.862,0,0,0-1.02.92q0,0.495,1.8,1.65l0.38,0.25-0.7.42c-1.48.82-2.21,1.43-2.21,1.83h0Zm18.7,11.6h-13.36v-0.21a1.2,1.2,0,0,1,1.12-1.02,61.45,61.45,0,0,0,6.79-2.25c1.62-.68,2.42-1.21,2.42-1.58a0.965,0.965,0,0,0-.7-0.9,5.415,5.415,0,0,0-2.04-.3h-18.81a1.553,1.553,0,0,0-1.05.28,1.086,1.086,0,0,0-.32.85,1.109,1.109,0,0,0,1.37,1.09h15.54v0.07l-3.65.95a12.455,12.455,0,0,0-2.82.87,1.266,1.266,0,0,0-.59,1.16v0.99h-12.66a1.182,1.182,0,1,0,0,2.32h12.66v1.93a1.252,1.252,0,0,1-1.37,1.37h-1.41c-1.13,0-1.69.44-1.69,1.3a1.215,1.215,0,0,0,.41,1.02,2.073,2.073,0,0,0,1.28.32h2.14a3.08,3.08,0,0,0,2.57-.7,3.885,3.885,0,0,0,.81-2.74v-2.5h13.36c0.96,0,1.44-.39,1.44-1.16s-0.48-1.16-1.44-1.16h0Zm-25.31,46.54h25.34c1.1,0,1.66-.44,1.66-1.3,0-.9-0.56-1.34-1.66-1.34h-24.36a1.239,1.239,0,0,1-1.34-1.37V5818.3a1.243,1.243,0,0,1,1.34-1.37h23.7c1.07,0,1.61-.43,1.61-1.3,0-.89-0.54-1.33-1.61-1.33h-24.68a3.185,3.185,0,0,0-2.57.72,3.622,3.622,0,0,0-.81,2.62v22.6a3.2,3.2,0,0,0,.72,2.57,3.7,3.7,0,0,0,2.66.81h0Zm6.75-15.79h12.51a2.655,2.655,0,0,0,2.11-.6,2.964,2.964,0,0,0,.67-2.18v-3.27a2.7,2.7,0,0,0-.6-2.14,2.964,2.964,0,0,0-2.18-.67h-12.51a2.618,2.618,0,0,0-2.1.6,3.054,3.054,0,0,0-.65,2.18v3.34a2.668,2.668,0,0,0,.6,2.09,3.021,3.021,0,0,0,2.15.65h0Zm11.46-2.39h-10.51a0.94,0.94,0,0,1-1.02-1.02v-2.04a0.936,0.936,0,0,1,1.02-1.02h10.51a0.974,0.974,0,0,1,1.05,1.06v1.97a0.971,0.971,0,0,1-1.05,1.05h0Zm-14.07,13.64h5.49a2.36,2.36,0,0,0,2.67-2.67v-4.04a2.367,2.367,0,0,0-2.67-2.68h-5.49a2.38,2.38,0,0,0-2.7,2.68v4.04a2.373,2.373,0,0,0,2.7,2.67h0Zm12.41,0h5.84c1.76,0,2.64-.9,2.64-2.71v-3.97c0-1.8-.88-2.71-2.64-2.71h-5.84a2.367,2.367,0,0,0-2.67,2.68v4.04a2.36,2.36,0,0,0,2.67,2.67h0Zm-7.73-2.35h-3.87a0.911,0.911,0,0,1-.98-1.02v-2.64a0.889,0.889,0,0,1,.98-0.99h3.87a0.911,0.911,0,0,1,.98.99v2.64a0.92,0.92,0,0,1-.98,1.02h0Zm12.66,0h-4.08a0.932,0.932,0,0,1-.99-1.02v-2.64a0.875,0.875,0,0,1,.99-0.99h4.08a1.221,1.221,0,0,1,.73.27,0.913,0.913,0,0,1,.25.72v2.64a0.886,0.886,0,0,1-.98,1.02h0Z" transform="translate(-1371 -5584.44)"/>
</svg>
