<svg id="photoTitle4.svg" xmlns="http://www.w3.org/2000/svg" width="194.031" height="368.59" viewBox="0 0 194.031 368.59">
  <defs>
    <style>
      .cls-1 {
        fill: #9abc58;
      }

      .cls-2 {
        fill: #fff;
      }

      .cls-3 {
        fill-rule: evenodd;
      }
    </style>
  </defs>
  <rect id="矩形_1" data-name="矩形 1" class="cls-1" width="194.031" height="368.59"/>
  <rect id="矩形_1_拷貝" data-name="矩形 1 拷貝" class="cls-2" y="8.03" width="194.031" height="352.53"/>
  <path id="離塵不離城_大中壢四通八達" data-name="離塵不離城 大中壢四通八達" class="cls-3" d="M445.859,9286.88h-3.481v-5.23h2.461a1.255,1.255,0,1,0,0-2.47h-2.461v-4.46h2.461a1.251,1.251,0,1,0,0-2.46h-2.461v-4.47h3.094q1.547,0,1.547-1.23t-1.547-1.23H442.2a31.919,31.919,0,0,0,1.652-5.41,1.137,1.137,0,0,0-1.336-1.23,1.176,1.176,0,0,0-.949.68,8.552,8.552,0,0,0-.809,2.1l-1.019,3.86h-4.114l0.914-2.14,1.125-3.17,0.071-.42a1.089,1.089,0,0,0-1.336-1.09c-0.774,0-1.278.58-1.512,1.73a26.752,26.752,0,0,1-2.988,8.12,3.378,3.378,0,0,0-.527,1.4,0.892,0.892,0,0,0,.914,1.09c0.421,0,.972-0.67,1.652-2h0.07v17.54q-0.282,3.24,2.989,2.95h8.859q1.546,0,1.547-1.23t-1.547-1.23h0Zm-14.625-22.99a1.172,1.172,0,1,0,0-2.32h-5.871v-1.76a1.165,1.165,0,0,0-1.371-1.26,1.148,1.148,0,0,0-1.336,1.26v1.76h-6.012a1.553,1.553,0,0,0-1.019.28,1.122,1.122,0,0,0-.317.88,1.107,1.107,0,0,0,1.336,1.16h14.59Zm-11.567,6.61a0.917,0.917,0,0,0,1.055,1.02c0.469,0,1.629-.73,3.481-2.18h0.07a10.748,10.748,0,0,1,1.09.88l0.562,0.46q0.317,0.24.6,0.42a0.89,0.89,0,0,0,.457.17,0.946,0.946,0,0,0,1.09-1.05c0-.44-0.727-1.2-2.18-2.25v-0.07c1.336-1.27,2-2.06,2-2.39a0.879,0.879,0,0,0-1.055-.92,2.033,2.033,0,0,0-1.195.74l-1.406,1.37a11.273,11.273,0,0,0-3.094-1.79,0.891,0.891,0,0,0-1.055.95,0.647,0.647,0,0,0,.176.44,4.4,4.4,0,0,0,.6.51l1.722,1.23a10.343,10.343,0,0,1-1.089.74c-0.4.23-.68,0.4-0.844,0.49a1.688,1.688,0,0,0-.985,1.23h0Zm9.7,5.91h-4.746l0.21-1.23,0.141-.67h3.551c1.781,0,2.672-.87,2.672-2.6v-5.7a1.277,1.277,0,1,0-2.532,0v5.42a0.55,0.55,0,0,1-.632.56h-8.121a0.6,0.6,0,0,1-.668-0.56v-5.42a1.28,1.28,0,1,0-2.532,0v5.7a2.316,2.316,0,0,0,2.637,2.6h3.059l-0.106.95-0.1.49-0.071.46h-3.2a2.4,2.4,0,0,0-2.742,2.7v9.57c0,1.03.433,1.54,1.3,1.54a1.285,1.285,0,0,0,.984-0.38,1.69,1.69,0,0,0,.352-1.16v-8.9a1.252,1.252,0,0,1,.281-0.81,1.073,1.073,0,0,1,.773-0.24h1.829l-0.633,3.65c-1.29.21-1.934,0.66-1.934,1.34a1.087,1.087,0,0,0,1.231,1.23,22.852,22.852,0,0,0,2.566-.46l2.883-.56,1.125-.21,0.035,0.21c0.3,0.84.691,1.27,1.16,1.27a0.934,0.934,0,0,0,1.09-1.02,10.987,10.987,0,0,0-.984-2.57c-0.657-1.41-1.231-2.11-1.723-2.11a0.832,0.832,0,0,0-1.02.84l0.563,1.41-2.848.42,0.844-3.44h4.324a1.307,1.307,0,0,1,.826.28,1,1,0,0,1,.264.77v6.51a1.027,1.027,0,0,1-1.16,1.16h-1.195a1.148,1.148,0,0,0-1.3,1.3,1.161,1.161,0,0,0,1.3,1.33h1.617a3.185,3.185,0,0,0,2.566-.72,3.675,3.675,0,0,0,.809-2.65v-7.6a2.4,2.4,0,0,0-2.742-2.7h0Zm7.664-8.62h2.953v4.47h-3.621v-3.76a0.611,0.611,0,0,1,.668-0.71h0Zm-0.668,11.39v-4.46h3.621v4.46h-3.621Zm0,6.58v-4.11h3.621v5.23h-2.5a0.971,0.971,0,0,1-1.125-1.12h0Zm-15.4,26.24h3.094v6.54l-2,.32a1.028,1.028,0,0,0-.879,1.19,1.338,1.338,0,0,0,.3.93,0.978,0.978,0,0,0,.9.27l5.308-.81q4.395-.78,5.133-0.99a1.042,1.042,0,0,0,.914-0.98,1.341,1.341,0,0,0-.3-0.95,0.925,0.925,0,0,0-.826-0.25l-5.906.88v-2.32h5.519a1.047,1.047,0,0,0,1.266-1.09,1,1,0,0,0-.317-0.82,1.429,1.429,0,0,0-.949-0.27H426.7V9312h8.015v6.64a1.826,1.826,0,0,0,.545,1.48,3.494,3.494,0,0,0,1.793.62,34.647,34.647,0,0,0,3.78.15c1.335,0,2.355-.03,3.058-0.1a6.216,6.216,0,0,0,1.652-.35c0.844-.38,1.266-1.5,1.266-3.38a1.069,1.069,0,0,0-1.09-1.3,1.049,1.049,0,0,0-1.195,1.13,2.47,2.47,0,0,1-.3,1.28,1.322,1.322,0,0,1-.967.46,23.8,23.8,0,0,1-2.5.08,17.641,17.641,0,0,1-2.267-.1,1.769,1.769,0,0,1-.914-0.3,0.842,0.842,0,0,1-.194-0.62v-1.23a42.688,42.688,0,0,0,7.137-1.51,1.049,1.049,0,0,0,.879-1.09,1.391,1.391,0,0,0-.07-0.49,0.992,0.992,0,0,0-1.02-.74,2.008,2.008,0,0,0-.633.11,56.1,56.1,0,0,1-6.293,1.69V9312h5.766a2.108,2.108,0,0,0,2.5-2.39v-1.93a2.266,2.266,0,0,0-.615-1.76,2.69,2.69,0,0,0-1.881-.56h-5.871v-2.01h8.3a1.176,1.176,0,1,0,0-2.32h-11.25v-1.44a1.358,1.358,0,0,0-1.582-1.48,1.63,1.63,0,0,0-1.178.39,1.437,1.437,0,0,0-.4,1.09v1.44H420.828a2.395,2.395,0,0,0-2.637,2.64v7.94a68.693,68.693,0,0,1-.457,8.41,25.576,25.576,0,0,1-.774,3.7,20.3,20.3,0,0,1-1.406,3.47,1.9,1.9,0,0,0-.246.91,1.259,1.259,0,0,0,.633,1.09,1.351,1.351,0,0,0,.773.25,1.33,1.33,0,0,0,1.231-.81,21.228,21.228,0,0,0,2.338-7.31,57.761,57.761,0,0,0,.685-8.83V9312Zm0.879-8.65h4.817v2.01h-5.7v-1.13a0.776,0.776,0,0,1,.879-0.88h0Zm7.418,2.01v-2.01h5.414v2.01h-5.414Zm-8.3,2.1h5.7v2.47h-5.7v-2.47Zm8.3,2.47v-2.47h5.414v2.47h-5.414Zm12.762-2.47a0.848,0.848,0,0,1,.949.92v0.67a0.854,0.854,0,0,1-.949.88h-4.746v-2.47h4.746Zm3.832,19.62H434.292v-2.18h9.247a1.029,1.029,0,0,0,1.23-1.09,1.04,1.04,0,0,0-1.23-1.12h-9.247v-1.48a1.119,1.119,0,0,0-1.3-1.23,1.136,1.136,0,0,0-1.336,1.23v1.48h-9.071a1.04,1.04,0,0,0-1.23,1.12,1.029,1.029,0,0,0,1.23,1.09h9.071v2.18H420.2a1.164,1.164,0,1,0,0,2.32h25.664a1.172,1.172,0,1,0,0-2.32h0Zm-11.5,15.48H445.4a1.4,1.4,0,1,0,0-2.77H417.277a1.292,1.292,0,0,0-1.547,1.37,1.376,1.376,0,0,0,.369,1.07,1.738,1.738,0,0,0,1.178.33H431.2a34.779,34.779,0,0,1-6.223,8.85,43.742,43.742,0,0,1-8.613,6.94,1.5,1.5,0,0,0-.879,1.27,1.913,1.913,0,0,0,.176.7,1.375,1.375,0,0,0,.492.6,1.243,1.243,0,0,0,.7.21,1.857,1.857,0,0,0,.914-0.25,37.914,37.914,0,0,0,6.381-4.6,42.21,42.21,0,0,0,5.713-6.19v18a1.49,1.49,0,1,0,2.953,0v-22.43c0.633-1.17,1.148-2.2,1.547-3.1h0Zm12.34,16.07a51.081,51.081,0,0,0-4.395-4.13q-2.672-2.265-4.711-3.78a1.92,1.92,0,0,0-1.055-.42,1.223,1.223,0,0,0-.914.46,1.117,1.117,0,0,0-.316.77,1.563,1.563,0,0,0,.668,1.16q3.762,3.195,8.543,8.05a1.747,1.747,0,0,0,1.23.6,1.373,1.373,0,0,0,1.055-.53,1.564,1.564,0,0,0,.422-1.02,1.7,1.7,0,0,0-.527-1.16h0Zm-0.844,47.05h-3.481v-5.23h2.461a1.255,1.255,0,1,0,0-2.47h-2.461v-4.46h2.461a1.251,1.251,0,1,0,0-2.46h-2.461v-4.47h3.094q1.547,0,1.547-1.23t-1.547-1.23H442.2a31.919,31.919,0,0,0,1.652-5.41,1.137,1.137,0,0,0-1.336-1.23,1.176,1.176,0,0,0-.949.68,8.552,8.552,0,0,0-.809,2.1l-1.019,3.86h-4.114l0.914-2.14,1.125-3.17,0.071-.42a1.089,1.089,0,0,0-1.336-1.09c-0.774,0-1.278.58-1.512,1.73a26.752,26.752,0,0,1-2.988,8.12,3.378,3.378,0,0,0-.527,1.4,0.892,0.892,0,0,0,.914,1.09c0.421,0,.972-0.67,1.652-2h0.07v17.54q-0.282,3.24,2.989,2.95h8.859q1.546,0,1.547-1.23t-1.547-1.23h0Zm-14.625-22.99a1.172,1.172,0,1,0,0-2.32h-5.871v-1.76a1.165,1.165,0,0,0-1.371-1.26,1.148,1.148,0,0,0-1.336,1.26v1.76h-6.012a1.553,1.553,0,0,0-1.019.28,1.122,1.122,0,0,0-.317.88,1.107,1.107,0,0,0,1.336,1.16h14.59Zm-11.567,6.61a0.917,0.917,0,0,0,1.055,1.02c0.469,0,1.629-.73,3.481-2.18h0.07a10.748,10.748,0,0,1,1.09.88l0.562,0.46q0.317,0.24.6,0.42a0.89,0.89,0,0,0,.457.17,0.946,0.946,0,0,0,1.09-1.05c0-.44-0.727-1.2-2.18-2.25v-0.07c1.336-1.27,2-2.06,2-2.39a0.879,0.879,0,0,0-1.055-.92,2.033,2.033,0,0,0-1.195.74l-1.406,1.37a11.273,11.273,0,0,0-3.094-1.79,0.891,0.891,0,0,0-1.055.95,0.647,0.647,0,0,0,.176.44,4.4,4.4,0,0,0,.6.51l1.722,1.23a10.343,10.343,0,0,1-1.089.74c-0.4.23-.68,0.4-0.844,0.49a1.688,1.688,0,0,0-.985,1.23h0Zm9.7,5.91h-4.746l0.21-1.23,0.141-.67h3.551c1.781,0,2.672-.87,2.672-2.6v-5.7a1.277,1.277,0,1,0-2.532,0v5.42a0.55,0.55,0,0,1-.632.56h-8.121a0.6,0.6,0,0,1-.668-0.56v-5.42a1.28,1.28,0,1,0-2.532,0v5.7a2.316,2.316,0,0,0,2.637,2.6h3.059l-0.106.95-0.1.49-0.071.46h-3.2a2.4,2.4,0,0,0-2.742,2.7v9.57c0,1.03.433,1.54,1.3,1.54a1.285,1.285,0,0,0,.984-0.38,1.69,1.69,0,0,0,.352-1.16v-8.9a1.252,1.252,0,0,1,.281-0.81,1.073,1.073,0,0,1,.773-0.24h1.829l-0.633,3.65c-1.29.21-1.934,0.66-1.934,1.34a1.087,1.087,0,0,0,1.231,1.23,22.852,22.852,0,0,0,2.566-.46l2.883-.56,1.125-.21,0.035,0.21c0.3,0.84.691,1.27,1.16,1.27a0.934,0.934,0,0,0,1.09-1.02,10.987,10.987,0,0,0-.984-2.57c-0.657-1.41-1.231-2.11-1.723-2.11a0.832,0.832,0,0,0-1.02.84l0.563,1.41-2.848.42,0.844-3.44h4.324a1.307,1.307,0,0,1,.826.28,1,1,0,0,1,.264.77v6.51a1.027,1.027,0,0,1-1.16,1.16h-1.195a1.148,1.148,0,0,0-1.3,1.3,1.161,1.161,0,0,0,1.3,1.33h1.617a3.185,3.185,0,0,0,2.566-.72,3.675,3.675,0,0,0,.809-2.65v-7.6a2.4,2.4,0,0,0-2.742-2.7h0Zm7.664-8.62h2.953v4.47h-3.621v-3.76a0.611,0.611,0,0,1,.668-0.71h0Zm-0.668,11.39v-4.46h3.621v4.46h-3.621Zm0,6.58v-4.11h3.621v5.23h-2.5a0.971,0.971,0,0,1-1.125-1.12h0Zm-3.973,44.17q0.808,0,3.234-1.83a32.818,32.818,0,0,0,3.762-3.41q2.813,5.2,5.2,5.2c1.875,0,2.813-2.43,2.813-7.31a1.23,1.23,0,0,0-1.3-1.47q-1.091,0-1.16,1.89-0.1,3.27-.809,3.27-1.125,0-2.918-3.9a35.551,35.551,0,0,0,3.34-6.29,20.291,20.291,0,0,0,1.723-4.99c0-.85-0.528-1.27-1.582-1.27a1.2,1.2,0,0,0-1.09,1.09,48.384,48.384,0,0,1-3.41,8.23,65.421,65.421,0,0,1-1.125-12.45h6.433q1.758,0,1.758-1.44t-1.758-1.44h-6.468a39.746,39.746,0,0,0-.141-4.96,1.165,1.165,0,0,0-1.266-.77q-1.512,0-1.476,1.86l0.07,3.87H429.2q-3.129,0-3.129,3.23v5.66q0.071,7.035-.738,9.18a9.864,9.864,0,0,1-2.637,3.94c-1.032.91-1.547,1.57-1.547,1.96a1.311,1.311,0,0,0,1.441,1.52q1.091,0,2.883-2.04a12.021,12.021,0,0,0,2.567-5.03,34.218,34.218,0,0,0,.738-8.26h2.637a0.964,0.964,0,0,1,1.054,1.16c-0.094,3.84-.293,6.06-0.6,6.64a1.871,1.871,0,0,1-1.617.64q-1.548.105-1.547,1.26a1.3,1.3,0,0,0,1.441,1.51q2.953,0,3.9-1.65,0.984-1.68.985-9.53a2.41,2.41,0,0,0-2.707-2.74h-3.551l-0.07-3.48a1.047,1.047,0,0,1,1.265-1.09h6.364q0.315,10.125,1.933,15.29a21.2,21.2,0,0,1-5.695,4.71c-1.055.61-1.582,1.18-1.582,1.69a1.311,1.311,0,0,0,1.406,1.55h0Zm-15.644-5.31,0.421-.07,1.653-.53c3.187-1.14,5.062-1.85,5.625-2.11a1.327,1.327,0,0,0,.808-1.3,1.244,1.244,0,0,0-1.441-1.37,12.678,12.678,0,0,0-1.406.46v-10.55h1.476c1.148,0,1.723-.46,1.723-1.37q0-1.41-1.723-1.41H422.41v-6.53a1.4,1.4,0,1,0-2.778,0v6.53h-2.566q-1.687,0-1.688,1.41c0,0.91.563,1.37,1.688,1.37h2.566v11.5l-2.6.74c-1.172.3-1.758,0.88-1.758,1.72a1.319,1.319,0,0,0,1.477,1.51h0Zm26.648-21.66a1.209,1.209,0,0,0,1.477-1.23,3.313,3.313,0,0,0-1.02-1.61,3.479,3.479,0,0,0-1.934-1.44,1.107,1.107,0,0,0-1.336,1.16,1.821,1.821,0,0,0,.528,1.05l0.6,0.67c0.7,0.94,1.266,1.4,1.688,1.4h0ZM373.76,9290.15a9.042,9.042,0,0,0,3.832-1.65,23.178,23.178,0,0,0,10.547-14.27,26.251,26.251,0,0,0,9.809,13.18q2.039,1.41,3.076,2.01a3.822,3.822,0,0,0,1.424.59,1.461,1.461,0,0,0,1.582-1.72,2.024,2.024,0,0,0-1.3-1.72,27.207,27.207,0,0,1-8.543-7,24.048,24.048,0,0,1-4.676-9.35h12.375q1.794,0,1.793-1.44,0-1.41-1.793-1.41H389.124q0.175-4.845.176-6.96a2.051,2.051,0,0,0-.387-1.3,1.379,1.379,0,0,0-1.16-.49c-0.962,0-1.442.6-1.442,1.79q0,5.385-.176,6.96H374.358a2.177,2.177,0,0,0-1.353.34,1.253,1.253,0,0,0-.44,1.07,1.32,1.32,0,0,0,.44,1.09,2.173,2.173,0,0,0,1.353.35h11.461q-1.266,11.49-11.777,16.59a5.817,5.817,0,0,0-1.354.88,1.232,1.232,0,0,0-.439.88,1.364,1.364,0,0,0,1.511,1.58h0Zm25.172,14.26h-9.246v-4.61c0-1.17-.516-1.76-1.547-1.76s-1.547.59-1.547,1.76v4.61H377.7a3.526,3.526,0,0,0-2.936.8,4.386,4.386,0,0,0-.9,3.06v7.84q-0.211,4.08,3.832,3.83h8.894v8.51a1.557,1.557,0,1,0,3.094,0v-8.51h9.246a3.524,3.524,0,0,0,2.918-.8,4.256,4.256,0,0,0,.914-3.03v-7.84q0.211-4.11-3.832-3.86h0Zm-20,12.72a1.606,1.606,0,0,1-2-2v-5.87a2.391,2.391,0,0,1,.4-1.64,2.3,2.3,0,0,1,1.6-.4h7.664v9.91h-7.664Zm20.743-2a1.607,1.607,0,0,1-2,2h-7.981v-9.91h7.981a2.307,2.307,0,0,1,1.6.4,2.4,2.4,0,0,1,.4,1.64v5.87ZM381.6,9360.04a1.164,1.164,0,0,0-1.336-1.3l-0.492.14-0.984.35v-10.27h1.652a1.325,1.325,0,0,0,1.582-1.4c0-.89-0.527-1.34-1.582-1.34h-1.652v-6.78a1.381,1.381,0,1,0-2.742,0v6.78H373.76c-1.148,0-1.722.45-1.722,1.34,0,0.93.574,1.4,1.722,1.4h2.286v11.18l-0.106.04-2.285.63c-1.149.31-1.723,0.87-1.723,1.69a1.222,1.222,0,0,0,1.371,1.4,51.355,51.355,0,0,0,6.082-2.03l1.442-.53a1.343,1.343,0,0,0,.773-1.3h0Zm3.586-17.48a1.268,1.268,0,0,1,.264-0.86,0.911,0.911,0,0,1,.721-0.3h16.277a1.219,1.219,0,0,0,1.477-1.26,1.16,1.16,0,0,0-.387-0.95,1.684,1.684,0,0,0-1.09-.32H385.432a2.881,2.881,0,0,0-2.144.76,3.022,3.022,0,0,0-.738,2.2l0.035,9.66c0,1.69-.012,2.72-0.035,3.1q-0.317,7.095-2.356,10.9a5.618,5.618,0,0,0-.773,1.89,1.293,1.293,0,0,0,1.511,1.41q1.406,0,2.707-4.18a28.913,28.913,0,0,0,.985-5.57q0.351-3.57.527-8.99c0.023-.82.035-3.31,0.035-7.49h0Zm13.571,15.23a1.057,1.057,0,0,0,1.16-1.23v-4.93a15.347,15.347,0,0,0,1.564,3.2,2.033,2.033,0,0,0,1.565,1.09,1.1,1.1,0,0,0,1.265-1.23,1,1,0,0,0-.193-0.59,3.4,3.4,0,0,0-.545-0.6,14.7,14.7,0,0,1-3.234-4.01h2.214a1.4,1.4,0,0,0,.967-0.3,1.086,1.086,0,0,0,.334-0.86,1.039,1.039,0,0,0-.351-0.81,1.37,1.37,0,0,0-.95-0.31h-2.636v-2.4c2.039-.46,3.058-1,3.058-1.61a1.09,1.09,0,0,0-1.265-1.2l-3.34.81a23.3,23.3,0,0,1-2.672.49,2.824,2.824,0,0,0-1.16.37,0.837,0.837,0,0,0-.387.72,1.325,1.325,0,0,0,.264.88,0.975,0.975,0,0,0,.791.32l0.281-.04,2.145-.35v2.01h-1.9a1.058,1.058,0,0,0-1.266,1.12,1.086,1.086,0,0,0,.334.86,1.346,1.346,0,0,0,.932.3h1.406a13.523,13.523,0,0,1-2.918,3.83,0.873,0.873,0,0,0,.141-0.56,2.576,2.576,0,0,0-.914-1.37,2.635,2.635,0,0,0-1.477-.95,1.093,1.093,0,0,0-.492.1v-1.05h1.406a1.093,1.093,0,0,0,1.3-1.16,1.076,1.076,0,0,0-1.3-1.12h-1.406v-2.5c1.64-.42,2.461-0.92,2.461-1.48a1.375,1.375,0,0,0-.316-0.95,0.892,0.892,0,0,0-.879-0.24l-0.528.1c-1.312.28-2.051,0.45-2.214,0.49l-2.11.43a4.679,4.679,0,0,0-1.494.44,0.81,0.81,0,0,0-.474.75,1.338,1.338,0,0,0,.3.93,0.884,0.884,0,0,0,.827.27l0.949-.14,1.195-.21v2.11h-2a1.057,1.057,0,0,0-1.265,1.12,1.082,1.082,0,0,0,.334.86,1.341,1.341,0,0,0,.931.3H388.7a10.747,10.747,0,0,1-2.426,3.62,2.279,2.279,0,0,0-.914,1.51,0.977,0.977,0,0,0,.984,1.2q1.478,0,2.848-3.83v4.57a1.043,1.043,0,0,0,1.125,1.23,1.057,1.057,0,0,0,1.16-1.23v-4.33l0.422,0.49a2.941,2.941,0,0,0,.668.76,1.061,1.061,0,0,0,.633.26,1.638,1.638,0,0,0,.633-0.1,1.969,1.969,0,0,0-.51.58,1.241,1.241,0,0,0-.193.61,1.022,1.022,0,0,0,1.16,1.16,2.263,2.263,0,0,0,1.6-1.1,14.233,14.233,0,0,0,1.741-3.29v4.96a1.268,1.268,0,0,0,.3.91,1.088,1.088,0,0,0,.827.32h0Zm3.937,8.36H396.4v-3.65h4.852a1.142,1.142,0,0,0,1.371-1.2,1.192,1.192,0,0,0-.334-0.93,1.52,1.52,0,0,0-1.037-.3H396.4v-1.9a1.3,1.3,0,1,0-2.6,0v7.98H390.5v-6.18a1.187,1.187,0,0,0-1.266-1.41,1.308,1.308,0,0,0-.984.33,1.544,1.544,0,0,0-.317,1.08v6.18h-2.5a1.189,1.189,0,0,0-1.441,1.23,1.2,1.2,0,0,0,.351.95,1.6,1.6,0,0,0,1.09.32h17.262a1.185,1.185,0,0,0,1.406-1.27,1.171,1.171,0,0,0-1.406-1.23h0Zm-3.9,13.66h-21.34a4.19,4.19,0,0,0-3.006.88,4.073,4.073,0,0,0-.9,2.99v19.93a4.1,4.1,0,0,0,.9,2.97,4.142,4.142,0,0,0,3.006.9h21.34a4.152,4.152,0,0,0,2.988-.9,4.05,4.05,0,0,0,.914-2.97v-19.93a4.071,4.071,0,0,0-.9-2.97,4.142,4.142,0,0,0-3.006-.9h0Zm0.879,22.5a2.638,2.638,0,0,1-.44,1.79,2.479,2.479,0,0,1-1.775.46h-18.6a2.74,2.74,0,0,1-1.828-.44,2.43,2.43,0,0,1-.457-1.74v-17.4a2.61,2.61,0,0,1,.457-1.8,2.675,2.675,0,0,1,1.828-.45h3.551c0,4.4-.059,7.15-0.176,8.22a9.5,9.5,0,0,1-.984,3.41,7.513,7.513,0,0,1-1.934,2.39,2.622,2.622,0,0,0-1.23,1.66,1.3,1.3,0,0,0,1.406,1.54q1.125,0,2.953-1.89a8.737,8.737,0,0,0,2.285-4.65,73.045,73.045,0,0,0,.528-10.68H389.3v13.88a2.264,2.264,0,0,0,.667,1.87,3.632,3.632,0,0,0,1.512.44,23.8,23.8,0,0,0,2.953.15c1.781,0,2.906-.44,3.375-1.33a8.377,8.377,0,0,0,.668-3.83,1.229,1.229,0,0,0-1.336-1.44c-0.726,0-1.113.52-1.16,1.58a3.078,3.078,0,0,1-.387,1.93,3.188,3.188,0,0,1-1.863.35c-1.078,0-1.617-.4-1.617-1.19v-12.41h5.273a2.686,2.686,0,0,1,1.829.44,2.434,2.434,0,0,1,.457,1.74v17.4Zm-24.118,18.12,2.321,1.19c0.07,0.05.286,0.16,0.65,0.34a2.276,2.276,0,0,0,.756.26,1.261,1.261,0,0,0,1.371-1.48,1.557,1.557,0,0,0-.562-1.1,5.75,5.75,0,0,0-1.653-1.04,12.2,12.2,0,0,0-2.777-1.02,1.2,1.2,0,0,0-1.336,1.37,1.811,1.811,0,0,0,1.23,1.48h0Zm7.559,0.1H396.3c0.257,0,.386.09,0.386,0.25a0.4,0.4,0,0,1-.246.32c-1.5.79-2.625,1.38-3.375,1.75l-0.07.04-4.465-1.48a3.322,3.322,0,0,0-1.019-.24,1.107,1.107,0,0,0-1.336,1.16,1.259,1.259,0,0,0,1.125,1.02l2.425,0.77,3.727,1.41H385.5a2.482,2.482,0,0,0-2.813,2.81v13.96a1.2,1.2,0,0,0,1.266,1.44,1.215,1.215,0,0,0,1.3-1.44v-4.26h6.011v4.12a1.238,1.238,0,1,0,2.461,0v-4.12h6.188v1.79a1.091,1.091,0,0,1-1.231,1.24h-1.722a1.181,1.181,0,0,0-1.372,1.3,1.193,1.193,0,0,0,1.372,1.33l2.179,0.04a3.358,3.358,0,0,0,2.549-.78,3.609,3.609,0,0,0,.791-2.6v-11.95a2.439,2.439,0,0,0-2.883-2.88h-3.058a1.033,1.033,0,0,0,.175-0.53,1.33,1.33,0,0,0-1.054-1.06,37.455,37.455,0,0,0,4.763-2.7c0.973-.71,1.459-1.28,1.459-1.73,0-.91-0.82-1.37-2.46-1.37H383.112c-1.078,0-1.617.39-1.617,1.16a1.06,1.06,0,0,0,.4.95,2.112,2.112,0,0,0,1.213.28h0Zm-9.352,6.51,2.918,1.26a2.608,2.608,0,0,0,1.2.46,1.243,1.243,0,0,0,1.371-1.44q0-1.05-2.285-2.04a11.584,11.584,0,0,0-2.918-.98,1.209,1.209,0,0,0-1.371,1.37,1.532,1.532,0,0,0,1.089,1.37h0Zm17.508,3.55h-6.011v-1.55a0.946,0.946,0,0,1,1.089-1.05h4.922v2.6Zm8.649-1.51v1.51h-6.188v-2.6h5.1a0.962,0.962,0,0,1,1.09,1.09h0Zm2.883,16.06h-0.422q-4.993.18-12.059,0.18-7.841,0-10.23-1.86l-0.95-.92v-7.8a2.7,2.7,0,0,0-.65-2.08,3.143,3.143,0,0,0-2.232-.67h-2.743a1.527,1.527,0,0,0-1.072.32,1.3,1.3,0,0,0-.334.99,1.378,1.378,0,0,0,.334,1.02,1.528,1.528,0,0,0,1.072.31h1.9a1.075,1.075,0,0,1,.773.28,1.06,1.06,0,0,1,.281.78v7.17a28.361,28.361,0,0,1-2.777,1.44c-1.055.45-1.582,1.04-1.582,1.79a1.863,1.863,0,0,0,.352,1.27,1.342,1.342,0,0,0,1.054.38q1.09,0,4.465-2.95h0.071a9.48,9.48,0,0,0,4.253,2.43,37.713,37.713,0,0,0,8.93.7l10.863,0.04c1.383,0,2.075-.5,2.075-1.48a1.2,1.2,0,0,0-1.371-1.34h0Zm-17.543-9.45v-2.75h6.011v2.75h-6.011Zm8.472,0v-2.75h6.188v2.75h-6.188Zm8.543,51.73a1.543,1.543,0,0,0,1.09-.39,1.589,1.589,0,0,0,.563-1.3,4.248,4.248,0,0,0-1.442-2.29,33.441,33.441,0,0,1-3.516-4.09,16.529,16.529,0,0,1-2.25-4.34,46.925,46.925,0,0,1-1.933-13.33,4.608,4.608,0,0,0-.861-2.88,3.205,3.205,0,0,0-2.549-.92h-5.485c-1.242,0-1.863.5-1.863,1.48,0,1.01.621,1.51,1.863,1.51h4.5a1.412,1.412,0,0,1,1.161.44,2.392,2.392,0,0,1,.386,1.39,48.271,48.271,0,0,0,1.776,12.52,25.513,25.513,0,0,0,5.009,9.38,15.348,15.348,0,0,0,2.057,2.13,2.562,2.562,0,0,0,1.494.69h0Zm-28.406.17a2.755,2.755,0,0,0,1.775-1.23,25.379,25.379,0,0,0,2.479-3.83,36.3,36.3,0,0,0,3.2-8.16,45.866,45.866,0,0,0,1.512-9.84,1.257,1.257,0,0,0-1.512-1.37c-1.008,0-1.547.72-1.617,2.18a38.909,38.909,0,0,1-2.145,10.83,25.63,25.63,0,0,1-4.535,8.19,2.432,2.432,0,0,0-.7,1.58,1.816,1.816,0,0,0,.369,1.25,1.522,1.522,0,0,0,1.178.4h0Zm18.246,36.16a1.343,1.343,0,0,0,1.441-1.59v-1.97h9.176a1.2,1.2,0,1,0,0-2.39h-9.176v-2h6.821a1.093,1.093,0,0,0,1.3-1.16,1.108,1.108,0,0,0-1.3-1.2h-6.821v-1.96h8.3a1.2,1.2,0,1,0,0-2.39h-3.761l0.773-3.34H402.8a1.239,1.239,0,1,0,0-2.47h-9.247v-2.17h7.629a1.125,1.125,0,0,0,1.336-1.2,1.136,1.136,0,0,0-1.336-1.23h-7.629v-1.41a1.454,1.454,0,0,0-2.882,0v1.41h-7.243a1.136,1.136,0,0,0-1.336,1.23,1.125,1.125,0,0,0,1.336,1.2h7.243v2.17h-8.649a1.239,1.239,0,1,0,0,2.47h3.938l0.562,3.34h-3.586a1.2,1.2,0,1,0,0,2.39h7.735v1.96h-6.4a1.108,1.108,0,0,0-1.3,1.2,1.093,1.093,0,0,0,1.3,1.16h6.4v2h-8.579a1.2,1.2,0,1,0,0,2.39h8.579v1.97a1.343,1.343,0,0,0,1.441,1.59h0Zm-12.832-22.33a1.261,1.261,0,0,0,1.371-1.48,1.557,1.557,0,0,0-.562-1.1,5.75,5.75,0,0,0-1.653-1.04,12.2,12.2,0,0,0-2.777-1.02,1.2,1.2,0,0,0-1.336,1.37,1.811,1.811,0,0,0,1.23,1.48l2.321,1.19c0.07,0.05.286,0.16,0.65,0.34a2.276,2.276,0,0,0,.756.26h0Zm-1.406,6.54a1.243,1.243,0,0,0,1.371-1.44q0-1.05-2.285-2.04a11.584,11.584,0,0,0-2.918-.98,1.209,1.209,0,0,0-1.371,1.37,1.532,1.532,0,0,0,1.089,1.37l2.918,1.26a2.608,2.608,0,0,0,1.2.46h0Zm11.285,1.13v-0.04l-0.633-3.3h7.664l-0.668,3.34h-6.363Zm2.074,18,10.863,0.03q2.038,0,2.039-1.44a1.163,1.163,0,0,0-1.335-1.3l-12.481.14c-2.25,0-4-.07-5.256-0.19a10.816,10.816,0,0,1-3.217-.78,11.132,11.132,0,0,1-2.742-1.77v-7.14a2.51,2.51,0,0,0-.633-2.06,3.2,3.2,0,0,0-2.214-.65h-2.743a1.518,1.518,0,0,0-1.037.3,1.24,1.24,0,0,0-.334.97,1.293,1.293,0,0,0,.334.98,1.469,1.469,0,0,0,1.037.32h1.9a0.962,0.962,0,0,1,1.09,1.09v6.5a21.526,21.526,0,0,1-2.778,1.44c-1.054.43-1.582,1.01-1.582,1.76q0,1.62,1.371,1.62,1.054,0,4.465-2.95l0.071,0.03a9.6,9.6,0,0,0,4.289,2.39,38.425,38.425,0,0,0,8.894.71h0Z" transform="translate(-310.219 -9204.44)"/>
</svg>
