<svg id="photoTitle2.svg" xmlns="http://www.w3.org/2000/svg" width="194.031" height="368.59" viewBox="0 0 194.031 368.59">
  <defs>
    <style>
      .cls-1 {
        fill: #9abc58;
      }

      .cls-2 {
        fill: #fff;
      }

      .cls-3 {
        fill-rule: evenodd;
      }
    </style>
  </defs>
  <rect id="矩形_1" data-name="矩形 1" class="cls-1" width="194.031" height="368.59"/>
  <rect id="矩形_1_拷貝" data-name="矩形 1 拷貝" class="cls-2" y="8.03" width="194.031" height="352.53"/>
  <path id="草地快樂奔跑_大公園靜巷宅" data-name="草地快樂奔跑 大公園靜巷宅" class="cls-3" d="M416.925,6864.86h7.489v1.3a1.18,1.18,0,0,0,1.371,1.3,1.164,1.164,0,0,0,1.336-1.3v-1.3h8.121v1.3a1.373,1.373,0,0,0,2.742,0v-1.3h7.629c1.031,0,1.547-.42,1.547-1.27,0-.87-0.516-1.3-1.547-1.3h-7.629v-1.44a1.371,1.371,0,0,0-2.742,0v1.44h-8.121v-1.44a1.184,1.184,0,0,0-1.336-1.34,1.467,1.467,0,0,0-1.037.32,1.348,1.348,0,0,0-.334,1.02v1.44h-7.489a1.185,1.185,0,0,0-1.406,1.27,1.2,1.2,0,0,0,1.406,1.3h0Zm29,18.66H432.675v-2.67h7.875q3.55,0.285,3.27-3.27v-6.04q0.281-3.555-3.27-3.27H422.128q-3.516-.285-3.269,3.27v6.04q-0.246,3.525,3.269,3.27h7.7v2.67H416.714a1.527,1.527,0,0,0-1.072.32,1.619,1.619,0,0,0,0,1.97,1.527,1.527,0,0,0,1.072.32h13.114v3.79a1.432,1.432,0,1,0,2.847,0v-3.79h13.254a1.59,1.59,0,0,0,1.108-.32,1.619,1.619,0,0,0,0-1.97,1.59,1.59,0,0,0-1.108-.32h0Zm-24.293-11.49a1.18,1.18,0,0,1,1.371-1.3h16.629a1.469,1.469,0,0,1,1.037.31,1.318,1.318,0,0,1,.334.99v1.23H421.636v-1.23Zm0,4.99v-1.37h19.371v1.37a1.209,1.209,0,0,1-1.371,1.37H423.007a1.209,1.209,0,0,1-1.371-1.37h0Zm15.61,53.14q6.539,0,8.121-.74,2-.915,2-5.06a1.4,1.4,0,0,0-1.547-1.62,1.325,1.325,0,0,0-1.055.49,2.781,2.781,0,0,0-.492,1.79,2.286,2.286,0,0,1-.879,1.87c-0.516.37-2.215,0.56-5.1,0.56q-5.625,0-6.433-.35a1.332,1.332,0,0,1-.914-1.3v-12.66l4.359-1.69v11.67a1.294,1.294,0,0,0,1.371,1.55,1.281,1.281,0,0,0,1.336-1.55v-12.76l3.621-1.44,0.527-.1a0.881,0.881,0,0,1,.879,1.09v6.54a3.7,3.7,0,0,1-.281,1.4,2.744,2.744,0,0,1-1.9.85c-1.008.21-1.512,0.68-1.512,1.4q0,1.62,1.371,1.62,5.168,0,5.168-5.31v-8.05q0-2.88-2.25-2.88a5.45,5.45,0,0,0-1.758.42l-3.867,1.51v-6.79a1.28,1.28,0,0,0-1.371-1.51,1.266,1.266,0,0,0-1.336,1.51v7.88l-4.359,1.72v-6.68a1.29,1.29,0,0,0-1.371-1.54,1.277,1.277,0,0,0-1.336,1.54v7.77l-2.954,1.16a1.491,1.491,0,0,0-1.16,1.44,1.576,1.576,0,0,0,.282,1.06,1.073,1.073,0,0,0,.843.32,15.907,15.907,0,0,0,2.989-1.06v12.48a2.909,2.909,0,0,0,2.812,3.16,46.164,46.164,0,0,0,6.188.29h0Zm-20.461-3.66q1.371,0,8.226-2.25a3.19,3.19,0,0,0,1.16-.62,1.169,1.169,0,0,0,.352-0.89,1.729,1.729,0,0,0-.035-0.39,1.537,1.537,0,0,0-.369-0.82,1.01,1.01,0,0,0-.756-0.27,3.055,3.055,0,0,0-.7.11c-1.1.3-1.828,0.5-2.18,0.59v-11.67h2.461a1.275,1.275,0,0,0,1.512-1.37,1.261,1.261,0,0,0-1.512-1.33H422.48v-6.79a1.262,1.262,0,0,0-1.336-1.51,1.276,1.276,0,0,0-1.371,1.51v6.79H416.89a1.243,1.243,0,0,0-1.476,1.33,1.257,1.257,0,0,0,1.476,1.37h2.883v12.41l-2.988.71a2.1,2.1,0,0,0-1.143.58,1.577,1.577,0,0,0-.369,1.1,1.293,1.293,0,0,0,1.512,1.41h0Zm8.437,43.82q1.828,0,5.028-3.17a17.342,17.342,0,0,0,4.5-8.36,22.906,22.906,0,0,0,7,9.38q2.706,2.085,4.078,2.08a1.386,1.386,0,0,0,1.511-1.62,1.788,1.788,0,0,0-1.23-1.55,18.875,18.875,0,0,1-9.914-10.4h9.457c1.125,0,1.687-.46,1.687-1.37s-0.562-1.37-1.687-1.37h-1.582v-6.54a3.637,3.637,0,0,0-.809-2.5,3.377,3.377,0,0,0-2.531-.81h-4.711l0.035-4.15a1.359,1.359,0,0,0-.369-1,1.713,1.713,0,0,0-2.127,0,1.426,1.426,0,0,0-.387,1.07v1.34c0.024,0.45.036,1.36,0.036,2.74h-4.325a2.171,2.171,0,0,0-1.3.32,1.224,1.224,0,0,0-.422,1.05c0,0.89.574,1.34,1.722,1.34h4.289q0,3.9-.316,7.14h-6.469c-1.125,0-1.687.45-1.687,1.37s0.562,1.37,1.687,1.37H432.5q-1.478,7.515-7.559,10.65a1.874,1.874,0,0,0-1.195,1.51,1.305,1.305,0,0,0,1.476,1.48h0Zm-3.762.49a1.387,1.387,0,0,0,1.477-1.65v-28.94a1.435,1.435,0,1,0-2.848,0v28.83c0,1.17.457,1.76,1.371,1.76h0Zm-4.886-15.05a1.283,1.283,0,0,0,1.3-1.05q0.49-1.62.667-9.42a1.976,1.976,0,0,0-.3-1.29,1.149,1.149,0,0,0-.967-0.44,1.186,1.186,0,0,0-1.3,1.38l0.035,0.91a7.541,7.541,0,0,1,.035.84,33.844,33.844,0,0,1-.6,6.72l-0.211,1.02a1.177,1.177,0,0,0,1.336,1.33h0Zm9.7-6.64a1.1,1.1,0,0,0,1.265-1.23,10.668,10.668,0,0,0-1.511-2.78c-0.657-1.01-1.208-1.51-1.653-1.51a0.933,0.933,0,0,0-1.089,1.02,12.927,12.927,0,0,0,1.371,2.88q0.877,1.62,1.617,1.62h0Zm15.012,4.82h-5.52q0.246-2.535.246-7.14h3.832a1.236,1.236,0,0,1,1.442,1.44v5.7Zm3.9,51.83q-7.454-1.83-11.426-5.52h11.426c1.055,0,1.582-.43,1.582-1.3s-0.527-1.3-1.582-1.3H432.605v-1.97h1.441a2.026,2.026,0,0,0,1.653-.67,2.919,2.919,0,0,0,.562-1.93v-6.89a1.67,1.67,0,0,0,.457.42,9.665,9.665,0,0,0,1.055.74c0.258,0.21.662,0.51,1.213,0.91a15.083,15.083,0,0,1,1.283,1.02l-2.461,3.76a2.375,2.375,0,0,0-1.213.41,1.059,1.059,0,0,0-.439.89,1.43,1.43,0,0,0,.316.99,1.18,1.18,0,0,0,.914.35,60.139,60.139,0,0,0,7.348-1.37,1.434,1.434,0,0,0,1.266,1.3,1.043,1.043,0,0,0,1.195-1.16,13.584,13.584,0,0,0-1.16-3.34c-0.422-1.03-.891-1.55-1.407-1.55a0.933,0.933,0,0,0-1.089,1.02l0.14,0.57,0.422,1.23q-0.668.1-2,.24c-0.75.1-1.324,0.18-1.722,0.25,0.655-.85,1.2-1.58,1.634-2.22s1.108-1.68,2.022-3.16a14.848,14.848,0,0,0,1.969-3.66,1.132,1.132,0,0,0-1.3-1.26,1.148,1.148,0,0,0-.844.49,10.256,10.256,0,0,0-1.02,1.58l-1.23,2.36-1.828-1.51q2.706-4.5,2.707-5.45a1.178,1.178,0,0,0-.352-0.92,1.367,1.367,0,0,0-.949-0.31,1.3,1.3,0,0,0-.844.31,2.011,2.011,0,0,0-.6.92c-0.54,1.45-1.125,2.86-1.758,4.21a1.3,1.3,0,0,0-.738-0.21,1.089,1.089,0,0,0-.985.5v-0.81a2.949,2.949,0,0,0-.562-1.94,2.051,2.051,0,0,0-1.653-.66h-2.214a8.244,8.244,0,0,0,.421-1.8,1.159,1.159,0,0,0-1.406-1.19,1.206,1.206,0,0,0-1.037.51,3.717,3.717,0,0,0-.545,1.53l-0.14.95h-0.774c-1.453.07-2.18,0.91-2.18,2.53v9.42a8.11,8.11,0,0,0-.421-1.06l-0.387-.91c-0.422-1.01-.891-1.51-1.406-1.51a0.9,0.9,0,0,0-1.09.95,2.279,2.279,0,0,0,.14.6l0.457,1.26-1.511.21-1.618.18q1.337-1.83,3.762-5.77c0.07-.12.152-0.24,0.246-0.38s0.2-.31.317-0.5a6.356,6.356,0,0,0,1.125-2.28,1.135,1.135,0,0,0-1.3-1.27,1.169,1.169,0,0,0-.844.46,6.913,6.913,0,0,0-.949,1.48l-1.266,2.42-1.582-1.3q2.813-4.71,2.813-5.62a1.178,1.178,0,0,0-.352-0.92,1.421,1.421,0,0,0-.984-0.31,1.553,1.553,0,0,0-1.442,1.23,47.158,47.158,0,0,1-1.828,4.39,2.121,2.121,0,0,0-.984-0.39,1.137,1.137,0,0,0-1.266,1.3,1.214,1.214,0,0,0,.492,1.06l3.8,2.88-2.425,3.76c-1.266.07-1.9,0.51-1.9,1.3a1.534,1.534,0,0,0,.317,1.04,0.958,0.958,0,0,0,.914.3l0.668-.07,6.4-1.27a1.42,1.42,0,0,0,1.266,1.27,1.065,1.065,0,0,0,1.2-.91,1.952,1.952,0,0,0,1.828.98h1.441v1.97h-12.3c-1.079,0-1.617.43-1.617,1.3s0.538,1.3,1.617,1.3h11.074a33.446,33.446,0,0,1-11.848,5.98,1.6,1.6,0,0,0-1.441,1.47,1.229,1.229,0,0,0,1.371,1.41q1.442,0,5.52-1.97a34.235,34.235,0,0,0,7.628-4.99v6.5c0,1.15.469,1.73,1.407,1.73s1.406-.58,1.406-1.73v-6.61a23.594,23.594,0,0,0,8.4,5.38,18.607,18.607,0,0,0,4.922,1.58,1.333,1.333,0,0,0,1.477-1.54c0-.78-0.739-1.34-2.215-1.69h0ZM428.6,6984.36a0.772,0.772,0,0,1,.844-0.81h3.48a0.769,0.769,0,0,1,.879.81v2.78h-5.2v-2.78Zm0,8.05v-3.02h5.2v3.02a0.779,0.779,0,0,1-.879.84h-3.48a0.779,0.779,0,0,1-.844-0.84h0Zm2.637,45.96a1.3,1.3,0,0,0,1.406-1.54v-3.59h7.172a1.25,1.25,0,0,0,1.512-1.3l-0.106-.49q3.657,1.965,4.746,1.97a1.326,1.326,0,0,0,1.442-1.55,1.252,1.252,0,0,0-.879-1.3l-2.285-.84a19.2,19.2,0,0,1-7.875-5.17h8.754c1.1,0,1.652-.46,1.652-1.37s-0.551-1.37-1.652-1.37H430.355a7.135,7.135,0,0,0,1.23-2.82c0-.75-0.48-1.12-1.441-1.12a1.293,1.293,0,0,0-.9.38,5.334,5.334,0,0,0-.862,1.2l-1.265,2.36h-9.563c-1.1,0-1.652.45-1.652,1.37s0.55,1.37,1.652,1.37h7.524a26.7,26.7,0,0,1-7.946,5.8c-1.242.63-1.863,1.22-1.863,1.76a1.308,1.308,0,0,0,1.441,1.51q0.808,0,4.325-2.22l-0.106.53a1.232,1.232,0,0,0,1.477,1.3h7.453v3.59a1.29,1.29,0,0,0,1.371,1.54h0Zm-1.371-7.7h-7.77a27.7,27.7,0,0,0,6.469-6.11h4.852a20.144,20.144,0,0,0,6.5,6.11H432.64v-2.6a1.4,1.4,0,1,0-2.777,0v2.6Zm9.105,19.31a1.4,1.4,0,0,0,1.477-1.66v-6.57h4.781c1.148,0,1.723-.46,1.723-1.37s-0.575-1.37-1.723-1.37h-4.781v-2.99a1.35,1.35,0,0,0-1.477-1.58,1.336,1.336,0,0,0-1.441,1.58v2.99H425.539l0.07-2.57c0-1.31-.481-1.97-1.442-1.97a1.346,1.346,0,0,0-1.406,1.62l0.035,2.25-0.035.67h-5.379c-1.125,0-1.687.45-1.687,1.37s0.562,1.37,1.687,1.37h5.028q-0.528,3.03-5.7,5.2a2.656,2.656,0,0,0-.931.62,1.127,1.127,0,0,0-.3.79,1.258,1.258,0,0,0,1.406,1.44q1.933,0,4.781-2.39a10.037,10.037,0,0,0,3.551-5.66h12.305v6.57a1.381,1.381,0,0,0,1.441,1.66h0Zm2.356,32.11a5.572,5.572,0,0,0,3.937-1.27q1.266-1.155,1.266-4.71v-10.23a3.589,3.589,0,0,0-.774-2.58,3.53,3.53,0,0,0-2.6-.79h-9.246a23.051,23.051,0,0,0,.738-2.5,8.717,8.717,0,0,0,.246-1.41c0-.75-0.481-1.12-1.441-1.12a1.464,1.464,0,0,0-1.442,1.37,24.759,24.759,0,0,1-3.164,7.98,5.48,5.48,0,0,0-.984,2.04,1.139,1.139,0,0,0,1.336,1.33c0.468,0,1.113-.72,1.933-2.18,0.305-.49.592-0.98,0.862-1.49a9.561,9.561,0,0,0,.65-1.49h9.7a1.41,1.41,0,0,1,1.617,1.58v9.46a4.1,4.1,0,0,1-.527,2.39,2.153,2.153,0,0,1-1.512.59q-2,.15-2,1.59a1.258,1.258,0,0,0,1.407,1.44h0Zm-24.61,6.33,1.125-.18,2.532-.67q5.94-1.515,7.418-2.07a1.42,1.42,0,0,0,.878-2.25,0.918,0.918,0,0,0-.773-0.35,1.234,1.234,0,0,0-.316.03q-1.09.21-3.27,0.84v-6.46h2.356c1.077,0,1.617-.46,1.617-1.37s-0.54-1.34-1.617-1.34h-2.356v-4.64h0.668q3.024,0.1,3.024-2.85v-5.48a2.888,2.888,0,0,0-.633-2.18,2.978,2.978,0,0,0-2.18-.67h-5.344a2.773,2.773,0,0,0-2.162.61,3.094,3.094,0,0,0-.685,2.24v5.48a2.733,2.733,0,0,0,.615,2.16,3.053,3.053,0,0,0,2.232.69h1.864v14.52l-2,.42v-11.21a1.309,1.309,0,1,0-2.6,0v11.74c-1.219.23-1.828,0.75-1.828,1.54a1.651,1.651,0,0,0,.352,1.16,1.16,1.16,0,0,0,1.089.29h0Zm7.594-21.03h-3.621a0.969,0.969,0,0,1-1.055-1.05v-3.9a0.987,0.987,0,0,1,1.055-1.09h3.621a0.963,0.963,0,0,1,1.055,1.09v3.9a0.95,0.95,0,0,1-1.055,1.05h0Zm12.832,21.27a36.108,36.108,0,0,0,7.524-.49,3.228,3.228,0,0,0,2.039-1.6,6.847,6.847,0,0,0,.7-3.36,1.219,1.219,0,0,0-1.442-1.3,1.369,1.369,0,0,0-1.019.39,1.765,1.765,0,0,0-.457,1.12c-0.141,1.46-.7,2.29-1.688,2.5a30.332,30.332,0,0,1-4.324.18c-2.789,0-4.371-.11-4.746-0.32a1.186,1.186,0,0,1-.563-1.13v-6.36h5.239a2.714,2.714,0,0,0,2.162-.61,3.078,3.078,0,0,0,.65-2.17v-4.18a2.7,2.7,0,0,0-.6-2.11,3.078,3.078,0,0,0-2.215-.67h-4.957a2.677,2.677,0,0,0-2.145.56,3.078,3.078,0,0,0-.668,2.22v14.31a2.95,2.95,0,0,0,1.125,2.35q0.913,0.675,5.379.67h0Zm0.492-12.83h-4.465v-3.73a0.992,0.992,0,0,1,1.055-1.09h3.41a0.972,0.972,0,0,1,1.055,1.09v2.64a0.947,0.947,0,0,1-1.055,1.09h0ZM373.76,6891.15a9.042,9.042,0,0,0,3.832-1.65,23.178,23.178,0,0,0,10.547-14.27,26.251,26.251,0,0,0,9.809,13.18q2.039,1.41,3.076,2.01a3.822,3.822,0,0,0,1.424.59,1.461,1.461,0,0,0,1.582-1.72,2.024,2.024,0,0,0-1.3-1.72,27.207,27.207,0,0,1-8.543-7,24.048,24.048,0,0,1-4.676-9.35h12.375q1.794,0,1.793-1.44,0-1.41-1.793-1.41H389.124q0.175-4.845.176-6.96a2.051,2.051,0,0,0-.387-1.3,1.379,1.379,0,0,0-1.16-.49c-0.962,0-1.442.6-1.442,1.79q0,5.385-.176,6.96H374.358a2.177,2.177,0,0,0-1.353.34,1.253,1.253,0,0,0-.44,1.07,1.32,1.32,0,0,0,.44,1.09,2.173,2.173,0,0,0,1.353.35h11.461q-1.266,11.49-11.777,16.59a5.817,5.817,0,0,0-1.354.88,1.232,1.232,0,0,0-.439.88,1.364,1.364,0,0,0,1.511,1.58h0Zm28.9,26.7a1.327,1.327,0,0,0,1.406-1.58q0-.945-1.723-2.04a16.2,16.2,0,0,1-7.277-11.25,2.79,2.79,0,0,0-2.988-2.64h-4.43c-1.078,0-1.617.46-1.617,1.37a1.345,1.345,0,0,0,1.617,1.41h3.621c0.75,0.02,1.231.6,1.442,1.72a19.8,19.8,0,0,0,4.465,8.79,21.059,21.059,0,0,0,3.146,3.18,4.058,4.058,0,0,0,2.338,1.04h0Zm-29.074.25a1.2,1.2,0,0,0,.632-0.2,4.727,4.727,0,0,0,.774-0.61,32.3,32.3,0,0,0,5.273-7.31,34.862,34.862,0,0,0,1.864-3.73,6.857,6.857,0,0,0,.632-2.29,1.154,1.154,0,0,0-1.371-1.23,1.249,1.249,0,0,0-.984.51,6.128,6.128,0,0,0-.844,1.53,28.279,28.279,0,0,1-5.133,8.76c-1.476,1.59-2.214,2.58-2.214,2.95q0,1.62,1.371,1.62h0Zm27,12.62a1.357,1.357,0,0,0,1.617-1.44,5.952,5.952,0,0,0-1.406-2.89q-1.76-2.46-4.149-5.34-2.531-3.135-3.551-3.13a1.111,1.111,0,0,0-1.336,1.16,3.892,3.892,0,0,0,1.231,1.9q1.194,1.335,3.375,4.36l-14.836,1.12a58.928,58.928,0,0,0,5.273-11.88c0.024-.07.071-0.19,0.141-0.37a1.209,1.209,0,0,0,.106-0.44,1.62,1.62,0,0,0-.422-0.95,2.255,2.255,0,0,0-1.125-.42,1.594,1.594,0,0,0-1.618,1.3,74.081,74.081,0,0,1-5.273,12.87l-1.2.04a6.752,6.752,0,0,0-2.953.38,1.354,1.354,0,0,0-.528,1.16,1.619,1.619,0,0,0,.44,1.23,1.573,1.573,0,0,0,1.283.35l9.914-.84q3.8-.345,6.75-0.72c1.969-.25,3.164-0.39,3.586-0.44l1.3-.18,0.562-.07,1.02,1.76a2.379,2.379,0,0,0,1.793,1.48h0Zm-1.407,9.26H377.171a3.85,3.85,0,0,0-2.848.9,4.061,4.061,0,0,0-.879,2.93v22.78a4.028,4.028,0,0,0,.879,2.9,3.85,3.85,0,0,0,2.848.9h22.007a3.85,3.85,0,0,0,2.848-.9,4.028,4.028,0,0,0,.879-2.9v-22.78a4.061,4.061,0,0,0-.879-2.93,3.85,3.85,0,0,0-2.848-.9h0Zm0.879,26.05a1.585,1.585,0,0,1-1.793,1.79H378.085a1.567,1.567,0,0,1-1.793-1.76v-21.79a1.571,1.571,0,0,1,1.793-1.76h20.179a1.571,1.571,0,0,1,1.793,1.76v21.76Zm-2.355-16.66h-8.156v-1.9h6.574a1.06,1.06,0,1,0,0-2.11h-6.574v-1.06a1.123,1.123,0,0,0-.37-0.91,1.551,1.551,0,0,0-1.037-.32,1.154,1.154,0,0,0-1.371,1.23v1.06h-6.539a1.06,1.06,0,1,0,0,2.11h6.539v1.9h-8.156a0.98,0.98,0,0,0-1.16,1.05,0.994,0.994,0,0,0,1.16,1.09H397.7a1.029,1.029,0,0,0,1.23-1.09,1.015,1.015,0,0,0-1.23-1.05h0Zm-9,14.13-2.707.49v-3.83a18.027,18.027,0,0,0,1.722-1.34h6.5a2.05,2.05,0,0,0,2.356-2.28v-1.48a2.226,2.226,0,0,0-.6-1.69,2.444,2.444,0,0,0-1.722-.56H381.882a1.91,1.91,0,0,0-2.11,2.11v1.62a2.259,2.259,0,0,0,.6,1.68,2.324,2.324,0,0,0,1.722.6h2.567a32.584,32.584,0,0,1-6.4,2.57,1.085,1.085,0,0,0-.914,1.05,1.18,1.18,0,0,0,.3.85,1.081,1.081,0,0,0,.826.31,1.533,1.533,0,0,0,.668-0.14,34.729,34.729,0,0,0,4.5-1.93v2.85c-1.289.19-2.191,0.31-2.707,0.38a1.106,1.106,0,0,0-1.195,1.09,1.091,1.091,0,0,0,1.266,1.2,1.938,1.938,0,0,0,.457-0.04c0.585-.09,1-0.15,1.23-0.17,0.328-.05,1.195-0.18,2.6-0.41a30.109,30.109,0,0,0,3.8-.82,1.745,1.745,0,0,0,.72-0.42,0.948,0.948,0,0,0,.264-0.67,1.064,1.064,0,0,0-.281-0.78,1.078,1.078,0,0,0-.774-0.28,1.157,1.157,0,0,0-.316.04h0Zm-6.328-7.7a0.784,0.784,0,0,1,.808-0.95h9.95a0.785,0.785,0,0,1,.808.95,1.086,1.086,0,0,1-.211.77,0.809,0.809,0,0,1-.6.21h-9.95a0.8,0.8,0,0,1-.808-0.98h0Zm15.293,8.47a30.388,30.388,0,0,0-2.778-1.72,23.334,23.334,0,0,0,2.075-1.3,1.1,1.1,0,0,0,.527-0.95,1.212,1.212,0,0,0-.246-0.7,1,1,0,0,0-.879-0.46,1.149,1.149,0,0,0-.738.28,28.722,28.722,0,0,1-2.778,2.11q-1.829-.885-3.234-1.41a1.326,1.326,0,0,0-.527-0.1,1.126,1.126,0,0,0-.756.26,0.965,0.965,0,0,0-.3.76,1.126,1.126,0,0,0,.7.98,79.381,79.381,0,0,1,7.664,4.43,1.609,1.609,0,0,0,.844.28,1.109,1.109,0,0,0,1.019-.63,1.444,1.444,0,0,0,.176-0.63,1.557,1.557,0,0,0-.773-1.2h0Zm-10.2,26.49a1.111,1.111,0,0,0-1.336-1.16h-4.957v-2.11h3.411a1.1,1.1,0,1,0,0-2.18h-3.411v-2.04h4.571a1.172,1.172,0,1,0,0-2.32h-4.571v-1.34a1.183,1.183,0,0,0-1.3-1.37,1.169,1.169,0,0,0-1.266,1.37v1.34H373.9a1.168,1.168,0,1,0,0,2.32h4.711v2.04H374.78a1.1,1.1,0,1,0,0,2.18h3.832v2.11h-5.273a1.168,1.168,0,1,0,0,2.32h12.8a1.111,1.111,0,0,0,1.336-1.16h0Zm1.477-8.44q1.442,0,3.832-.21l0.738-.07q1.863-.135,4.43-0.42a29.833,29.833,0,0,0,3.691-.6,1.158,1.158,0,0,0,.985-1.23,1.123,1.123,0,0,0-1.266-1.27l-1.406.29a75.152,75.152,0,0,1-10.09,1.01c-1.547.08-2.32,0.51-2.32,1.31a1.158,1.158,0,0,0,1.406,1.19h0Zm11.074,0.7-1.195,3.73-0.141.67a1.029,1.029,0,0,0,1.231,1.09,1.323,1.323,0,0,0,1.23-.85,14.8,14.8,0,0,0,1.442-4.14,1.019,1.019,0,0,0-.247-0.97,1.49,1.49,0,0,0-1.054-.33,1.2,1.2,0,0,0-1.266.8h0Zm-5.555-.21a1.015,1.015,0,0,0-1.195,1.09l1.266,3.87a1.21,1.21,0,0,0,1.019.53,1.119,1.119,0,0,0,1.266-1.27,6.674,6.674,0,0,0-.738-2.39q-0.81-1.83-1.618-1.83h0Zm-4.746.14a1.145,1.145,0,0,0-.914.34,1.529,1.529,0,0,0-.246,1.07l1.3,3.8a1.121,1.121,0,0,0,1.055.56,1.321,1.321,0,0,0,.967-0.33,1.291,1.291,0,0,0,.333-0.94,2.926,2.926,0,0,0-.21-0.86q-0.212-.57-0.6-1.53c-0.563-1.4-1.125-2.11-1.688-2.11h0Zm13.219,11.89h-0.879v-2.75a2.613,2.613,0,0,0-.58-2.14,3.041,3.041,0,0,0-2.2-.67h-9.949a1.136,1.136,0,0,0-1.336,1.23,1.125,1.125,0,0,0,1.336,1.2h3.726v3.13h-5.027a1.136,1.136,0,0,0-1.336,1.23,1.122,1.122,0,0,0,1.336,1.19h5.027v3.34h-4.043a1.108,1.108,0,0,0-1.3,1.2,1.12,1.12,0,0,0,1.3,1.23h4.043v3.27a1.172,1.172,0,0,1-1.3,1.26H390.5a1.686,1.686,0,0,0-1.178.34,1.324,1.324,0,0,0-.369,1.03c0,0.87.527,1.31,1.582,1.31h1.863a3.032,3.032,0,0,0,2.461-.69,3.56,3.56,0,0,0,.774-2.55v-3.97h3.656a2.522,2.522,0,0,0,2.127-.6,3.253,3.253,0,0,0,.65-2.25v-2.92h0.879a1.088,1.088,0,0,0,1.266-1.19,1.1,1.1,0,0,0-1.266-1.23h0Zm-3.41,0h-3.9v-3.13h2.777a1.059,1.059,0,0,1,1.125,1.19v1.94Zm-16.137-1.37h-7a2.622,2.622,0,0,0-2.109.61,3.008,3.008,0,0,0-.668,2.16v12.52a1.154,1.154,0,0,0,1.23,1.37,1.169,1.169,0,0,0,1.266-1.37v-4.61h7.559v2.18a1.169,1.169,0,0,1-.282.83,1.055,1.055,0,0,1-.808.3H381.5a1.321,1.321,0,1,0,0,2.63h1.722a2.81,2.81,0,0,0,2.215-.79,3.447,3.447,0,0,0,.7-2.37v-10.69a2.7,2.7,0,0,0-.6-2.11,2.963,2.963,0,0,0-2.145-.66h0Zm-6.328,2.32h5.66a0.837,0.837,0,0,1,.95.95v0.98h-7.559v-0.98a0.836,0.836,0,0,1,.949-0.95h0Zm22.465,3.69a1.282,1.282,0,0,1-.316.82,1.056,1.056,0,0,1-.809.3h-2.777v-3.34h3.9v2.22Zm-23.414.49h7.559v1.93h-7.559v-1.93Zm10.793,48.99h7.137q5.063-.045,6.539-0.99c1.1-.7,1.652-1.97,1.652-3.8,0-.89-0.539-1.33-1.617-1.33a1.239,1.239,0,0,0-1.442,1.12q-0.246,1.725-1.16,2.04-1.159.39-7.418,0.39-8.192,0-9.246-.18a0.9,0.9,0,0,1-.773-1.02v-2.95h12.656a2.683,2.683,0,0,0,2.2-.6,3.17,3.17,0,0,0,.686-2.28v-3.41a21.312,21.312,0,0,0,3.832,2.74c0.8,0.42,1.4.73,1.81,0.91a2.54,2.54,0,0,0,.967.29,1.312,1.312,0,0,0,1.442-1.52c0-.53-0.6-1.1-1.793-1.68q-5.379-2.565-7.348-5.94h7.242c1.055,0,1.582-.43,1.582-1.27,0-.87-0.527-1.3-1.582-1.3h-7.488v-4.01h5.73q1.547,0,1.547-1.26a1.275,1.275,0,0,0-1.547-1.31h-5.73v-2.49a1.344,1.344,0,0,0-2.672,0v2.49h-8.367v-2.49a1.344,1.344,0,0,0-2.672,0v2.49H375.8c-1.055,0-1.583.44-1.583,1.31q0,1.26,1.583,1.26h5.273v4.01h-7.066q-1.583,0-1.582,1.26a1.2,1.2,0,0,0,.386.99,1.874,1.874,0,0,0,1.2.32h6.785a17.842,17.842,0,0,1-7.313,6.57,1.906,1.906,0,0,0-1.336,1.55,1.243,1.243,0,0,0,1.336,1.47q1.266,0,4.4-2.7v8.68a2.148,2.148,0,0,0,1.722,2.11,30.757,30.757,0,0,0,7.313.53h0Zm-3.164-20.78v-4.01h8.367v4.01h-8.367Zm10.582,5.91H381.46a16.855,16.855,0,0,0,2.285-3.34h8.367a20.645,20.645,0,0,0,2.215,3.34h0Zm-2.039,5.69H380.581v-2.25a1.282,1.282,0,0,1,.176-0.86,1.386,1.386,0,0,1,.843-0.16h10.969a0.872,0.872,0,0,1,.615.21,0.816,0.816,0,0,1,.229.63v1.24a1.046,1.046,0,0,1-1.125,1.19h0Zm-18,29.05a1.355,1.355,0,0,0,1.441-1.61v-2.18a1.209,1.209,0,0,1,1.3-1.34h22.184a1.222,1.222,0,0,1,1.336,1.34v2.21a1.447,1.447,0,1,0,2.882,0v-3.13a2.9,2.9,0,0,0-.632-2.34,3.339,3.339,0,0,0-2.391-.72H389.475v-2.04a1.354,1.354,0,0,0-1.547-1.51,1.37,1.37,0,0,0-1.582,1.51v2.04H375.835a2.8,2.8,0,0,0-2.3.65,3.416,3.416,0,0,0-.721,2.41v3.1a1.369,1.369,0,0,0,1.477,1.61h0Zm15.574,19.76,4.43,0.11a34.617,34.617,0,0,0,5.449-.34,5.222,5.222,0,0,0,2.672-.93c0.773-.77,1.16-2.24,1.16-4.39a1.711,1.711,0,0,0-.387-1.22,1.635,1.635,0,0,0-1.23-.4,1.566,1.566,0,0,0-1.617,1.69,5.17,5.17,0,0,1-.387,1.97c-0.258.44-.961,0.68-2.11,0.7l-3.48.14q-5.062-.1-5.52-0.21a1.557,1.557,0,0,1-1.371-1.69v-5.2l14.168-1.2a1.45,1.45,0,0,0,1.618-1.47,1.184,1.184,0,0,0-1.336-1.34h-0.387l-14.063,1.2v-5.42q4.5-.63,7.278-1.19c2.507-.52,3.761-1.14,3.761-1.87a1.289,1.289,0,0,0-1.476-1.44,4.816,4.816,0,0,0-1.16.25q-5.45,1.575-16.981,2.53l-2.566.21a1.239,1.239,0,0,0-1.231,1.27,1.19,1.19,0,0,0,1.407,1.4l1.652-.14,6.434-.63v5.31l-10.336.84q-1.653.18-1.653,1.44a1.339,1.339,0,0,0,.4,1.06,1.7,1.7,0,0,0,1.248.28l10.336-.85v6.37a2.826,2.826,0,0,0,1.054,2.39c0.609,0.47,2.016.72,4.219,0.77h0Z" transform="translate(-310.219 -6789.44)"/>
</svg>
