<svg id="specTitle.svg" xmlns="http://www.w3.org/2000/svg" width="194.031" height="315.1" viewBox="0 0 194.031 315.1">
  <defs>
    <style>
      .cls-1 {
        fill: #9abc58;
      }

      .cls-2 {
        fill: #fff;
      }

      .cls-3 {
        fill-rule: evenodd;
      }
    </style>
  </defs>
  <rect id="矩形_1" data-name="矩形 1" class="cls-1" width="194.031" height="315.1"/>
  <rect id="矩形_1_拷貝" data-name="矩形 1 拷貝" class="cls-2" y="8.1" width="194.031" height="299"/>
  <path id="十全十美_一屋圓滿" data-name="十全十美 一屋圓滿" class="cls-3" d="M998.4,10495.5H985.746v-9.3c0-1.3-.528-1.9-1.582-1.9s-1.582.6-1.582,1.9v9.3h-12.34a1.5,1.5,0,0,0-1.723,1.6q0,1.5,1.723,1.5h12.34v15.5c0,1.2.527,1.9,1.582,1.9s1.582-.7,1.582-1.9v-15.5H998.4q1.758,0,1.758-1.5a1.516,1.516,0,0,0-1.758-1.6h0Zm0.527,38.6a27.24,27.24,0,0,1-7.4-3.7,24.25,24.25,0,0,1-5.537-5.4,3.792,3.792,0,0,0-1.248-.9,4.261,4.261,0,0,0-1.705-.3H975.55c-1.125,0-1.687.4-1.687,1.4,0,0.9.562,1.3,1.687,1.3h6.61a32.144,32.144,0,0,1-12.621,8.6,1.524,1.524,0,0,0-1.125,1.4,1.282,1.282,0,0,0,.105.5,1.341,1.341,0,0,0,1.3,1,3.809,3.809,0,0,0,.844-0.2,32.639,32.639,0,0,0,7.875-4.4,29.563,29.563,0,0,0,6.257-5.9,25.673,25.673,0,0,0,5.731,5.8,28.074,28.074,0,0,0,7.629,3.8,1.717,1.717,0,0,0,.668.1,1.321,1.321,0,0,0,1.366-1.1,4.368,4.368,0,0,0,.08-0.5,1.61,1.61,0,0,0-1.341-1.5h0Zm-1.758,17.6H985.64v-5.5h7.91c1.125,0,1.688-.5,1.688-1.4s-0.563-1.4-1.688-1.4h-7.91v-4.8h7.875a2.018,2.018,0,0,0,1.231-.3,1.07,1.07,0,0,0,.386-0.9,1.356,1.356,0,0,0-1.617-1.4H975.269a1.356,1.356,0,0,0-1.617,1.4q0,1.2,1.617,1.2h7.523v4.8h-7.628c-1.149,0-1.723.5-1.723,1.4s0.574,1.4,1.723,1.4h7.628v5.5H971.507c-1.148,0-1.722.5-1.722,1.4s0.574,1.4,1.722,1.4h25.664c1.148,0,1.723-.5,1.723-1.4s-0.575-1.4-1.723-1.4h0Zm1.231,23H985.746v-9.3c0-1.3-.528-1.9-1.582-1.9s-1.582.6-1.582,1.9v9.3h-12.34a1.5,1.5,0,0,0-1.723,1.6q0,1.5,1.723,1.5h12.34v15.5c0,1.2.527,1.9,1.582,1.9s1.582-.7,1.582-1.9v-15.5H998.4q1.758,0,1.758-1.5a1.516,1.516,0,0,0-1.758-1.6h0Zm-28.336,45.2h28.512a1.2,1.2,0,0,0,1.442-1.3,1.18,1.18,0,0,0-1.442-1.2H985.57v-2.8h10.055a1.215,1.215,0,1,0,0-2.4H985.57v-2.6h12.2a1.2,1.2,0,0,0,1.441-1.3,1.179,1.179,0,0,0-1.441-1.2h-7.734l0.07-.1a10.489,10.489,0,0,0,1.547-2.9q0-1.2-1.477-1.2a1.181,1.181,0,0,0-.914.4,4.885,4.885,0,0,0-.844,1.3l-1.23,2.5h-6.258c-1.359-2.7-2.438-4.1-3.234-4.1a1.18,1.18,0,0,0-1.442,1.2,3.19,3.19,0,0,0,.563,1.2l1.019,1.7h-6.96a1.161,1.161,0,0,0-1.407,1.2,1.185,1.185,0,0,0,1.407,1.3h11.882v2.6h-9.7a1.215,1.215,0,1,0,0,2.4h9.7v2.8H970.066q-1.476,0-1.477,1.2a1.22,1.22,0,0,0,1.477,1.3h0Zm28.582,11.9c-5.555-.5-9.61-2.4-12.164-5.8h11.672c1.054,0,1.582-.4,1.582-1.3a1.318,1.318,0,0,0-1.582-1.3H985.148l0.211-1.9a1.185,1.185,0,0,0-1.406-1.3c-0.774,0-1.231.5-1.371,1.7l-0.211,1.5H970.488a1.318,1.318,0,0,0-1.582,1.3c0,0.9.527,1.3,1.582,1.3h10.969c-1.829,3.2-5.356,5.1-10.582,5.8l-1.583.3a1.077,1.077,0,0,0-.984,1.2,1.431,1.431,0,0,0,.4,1.2,1.176,1.176,0,0,0,1.178.3l0.809-.1a22.992,22.992,0,0,0,8.613-2.9,14.756,14.756,0,0,0,4.746-5.1h0.07a15.831,15.831,0,0,0,6.469,5.7,16.616,16.616,0,0,0,8.016,2.3q1.756,0,1.757-1.5a1.361,1.361,0,0,0-.439-1,2.247,2.247,0,0,0-1.283-.4h0Zm-71.395-130.5h27.808q1.97,0,1.969-1.5c0-1.1-.656-1.7-1.969-1.7H927.253c-1.313,0-1.969.5-1.969,1.6s0.656,1.6,1.969,1.6h0Zm25.031,31.8c2.062,0.1,3.094-.8,3.094-2.8v-2.3a2.916,2.916,0,0,0-.756-2.2,3.212,3.212,0,0,0-2.338-.8H931.26c-2.437,0-3.633,1.1-3.585,3.2l0.07,4.8c0,5.2-.106,8.9-0.317,11.2a25.667,25.667,0,0,1-1.9,7.7,5.016,5.016,0,0,0-.422,1.3,1.347,1.347,0,0,0,1.547,1.5q1.651,0,2.812-4.8,1.125-4.65,1.125-16.8h21.692Zm-21.692-3.9q0-1.8,1.161-1.8h19.652a1.043,1.043,0,0,1,1.125,1.1v1.2a0.975,0.975,0,0,1-1.125,1.1H930.592v-1.6Zm24.926,22.8H945.042v-3.3h8.121c0.914,0,1.371-.3,1.371-1.1a1.142,1.142,0,0,0-1.371-1.2h-8.121v-3.2l6.961-.4,0.562,0.5a4.165,4.165,0,0,0,2.11,1.4,1.161,1.161,0,0,0,1.406-1.2c0-.5-1.02-1.5-3.059-3.1-2.016-1.5-3.352-2.3-4.008-2.3-0.937,0-1.406.3-1.406,1a2.4,2.4,0,0,0,1.125,1.1l1.02,0.8-9.633.4,1.687-3.8h13.008a1.2,1.2,0,1,0,0-2.4h-21.8a1.207,1.207,0,1,0,0,2.4h5.731l-1.266,3.9-4.465.1a1.029,1.029,0,0,0-1.125,1.2,1.142,1.142,0,0,0,1.371,1.2l9-.6v3h-7.8a1.123,1.123,0,0,0-1.371,1.1,1.142,1.142,0,0,0,1.371,1.2h7.8v3.3H931.823a1.262,1.262,0,0,0-1.477,1.3q0,1.2,1.477,1.2h23.7q1.477,0,1.477-1.2a1.262,1.262,0,0,0-1.477-1.3h0Zm-25.347,42.9h22.007a3.85,3.85,0,0,0,2.848-.9,4.093,4.093,0,0,0,.879-2.9v-22.7a4.093,4.093,0,0,0-.879-2.9,3.85,3.85,0,0,0-2.848-.9H930.171a3.85,3.85,0,0,0-2.848.9,4.093,4.093,0,0,0-.879,2.9v22.7a4.093,4.093,0,0,0,.879,2.9,3.85,3.85,0,0,0,2.848.9h0Zm21.093-2.5H931.085a1.588,1.588,0,0,1-1.793-1.8v-21.7a1.588,1.588,0,0,1,1.793-1.8h20.179a1.588,1.588,0,0,1,1.793,1.8v21.7a1.588,1.588,0,0,1-1.793,1.8h0Zm-15.89-18h11.812q2.391,0,2.391-2.1v-1.4c-0.07-1.4-.867-2-2.391-2H935.444a2.537,2.537,0,0,0-1.828.5,1.839,1.839,0,0,0-.633,1.5v1.4q0,2.1,2.391,2.1h0Zm10.863-1.9h-9.914a0.989,0.989,0,0,1-.615-0.2,1.128,1.128,0,0,1-.194-0.8,0.725,0.725,0,0,1,.809-0.8h9.914a1.021,1.021,0,0,1,.6.2,1.121,1.121,0,0,1,.211.7,0.845,0.845,0,0,1-.194.7,0.992,0.992,0,0,1-.615.2h0Zm-11.637,14.8h13.43a2.18,2.18,0,0,0,2.461-2.5v-6.4a2.211,2.211,0,0,0-2.531-2.5H934.6a2.211,2.211,0,0,0-2.531,2.5v6.4a2.211,2.211,0,0,0,2.531,2.5h0Zm13.43-8.1h-13.5v-0.6a0.774,0.774,0,0,1,.246-0.6,0.819,0.819,0,0,1,.668-0.3h11.672a1.3,1.3,0,0,1,.668.3,0.774,0.774,0,0,1,.246.6v0.6Zm-13.5,3v-1.3h13.5v1.3h-13.5Zm12.586,3.3H935.444a0.845,0.845,0,0,1-.914-0.9v-0.7h13.5v0.7a1.115,1.115,0,0,1-.211.7,1.208,1.208,0,0,1-.7.2h0Zm-14.8,5.8a25.4,25.4,0,0,0,5.59-1.3c1.031-.3,1.547-0.7,1.547-1.1a0.913,0.913,0,0,0-1.09-1,1.753,1.753,0,0,0-.615.1,2.948,2.948,0,0,1-.651.2,26.1,26.1,0,0,1-3.726.8,2,2,0,0,1-.932.2,2.478,2.478,0,0,0-1.019.4,0.641,0.641,0,0,0-.369.7,0.93,0.93,0,0,0,.334.8,2.234,2.234,0,0,0,.931.2h0Zm17.789,0a1.125,1.125,0,0,0,1.336-1.2,0.972,0.972,0,0,0-1.055-.9q-3.514-.75-6.152-1.2a0.855,0.855,0,0,0-.861.1,1.147,1.147,0,0,0-.334.9c0,0.4.585,0.8,1.758,1.1q2.109,0.6,3.463.9a10.432,10.432,0,0,0,1.845.3h0Zm-1.336,23.2a2.6,2.6,0,0,0,2.092-.5,2.778,2.778,0,0,0,.65-2.1v-2.8h3.868a1.22,1.22,0,0,0,1.476-1.3q0-1.2-1.476-1.2H951.51v-2.3a1.238,1.238,0,0,0-1.371-1.4,1.223,1.223,0,0,0-1.336,1.4v2.3H941v-2.3a1.238,1.238,0,0,0-1.371-1.4,1.185,1.185,0,0,0-1.02.4,1.351,1.351,0,0,0-.351,1v2.3h-3.165q-1.476,0-1.476,1.2a1.432,1.432,0,0,0,.387,1,1.738,1.738,0,0,0,1.089.3h3.165v2.8a2.522,2.522,0,0,0,.65,2,3.024,3.024,0,0,0,2.092.6h2.39v2.2h-6.644a3.192,3.192,0,0,0-2.356.7,3.059,3.059,0,0,0-.738,2.3v13.7a1.418,1.418,0,1,0,2.813,0v-13.1a1.044,1.044,0,0,1,.246-0.7,0.8,0.8,0,0,1,.7-0.3h5.976v13.9a1.246,1.246,0,0,0,1.3,1.5,1.272,1.272,0,0,0,1.371-1.5v-13.9h6.188a0.938,0.938,0,0,1,.949,1v10.6a1,1,0,0,1-1.02,1.1h-1.511a1.437,1.437,0,0,0-1.125.4,1.3,1.3,0,0,0-.422,1.1,1.441,1.441,0,0,0,.422,1.1,1.971,1.971,0,0,0,1.16.3h2a2.979,2.979,0,0,0,2.39-.7,3.3,3.3,0,0,0,.914-2.5v-12a2.6,2.6,0,0,0-.685-2.2,3.265,3.265,0,0,0-2.373-.8h-6.891v-2.2h2.707Zm-17.648-9.6a8.666,8.666,0,0,0-2.707-1.1,1.331,1.331,0,0,0-1.512,1.5,1.6,1.6,0,0,0,.545,1,9.739,9.739,0,0,0,1.7,1.1l0.949,0.5a4.814,4.814,0,0,0,1.582.7,1.336,1.336,0,0,0,1.442-1.6q0-1.05-2-2.1h0Zm9.879,6.3v-2.1h7.8v2.1a0.987,0.987,0,0,1-1.054,1.1h-5.7a0.987,0.987,0,0,1-.808-0.3,0.96,0.96,0,0,1-.246-0.8h0Zm-12.973,5.1,0.984,0.5a6,6,0,0,0,1.547.6,1.376,1.376,0,0,0,1.442-1.6,1.959,1.959,0,0,0-1.512-1.7,10.443,10.443,0,0,0-3.34-1.3,1.347,1.347,0,0,0-1.547,1.5,1.216,1.216,0,0,0,.58.9,6.5,6.5,0,0,0,1.846,1.1h0Zm13.4,7.5a6.513,6.513,0,0,0-.246-1.9,1.4,1.4,0,0,0-1.477-.7h-1.125a1.161,1.161,0,0,0-.861.3,0.984,0.984,0,0,0-.3.8,1.043,1.043,0,0,0,1.16,1.2h0.809a17.158,17.158,0,0,1-2.356,5.1,1.96,1.96,0,0,0-.387.9,1,1,0,0,0,1.125,1.1c0.445,0,.938-0.6,1.477-1.9a19.075,19.075,0,0,0,.914-2.4c0.422,2.7,1.125,4.1,2.109,4.1a1.029,1.029,0,0,0,1.125-1.2,1.4,1.4,0,0,0-.386-0.8,8.373,8.373,0,0,1-1.582-4.6h0Zm10.406,6.6a1.029,1.029,0,0,0,1.125-1.2,1.461,1.461,0,0,0-.352-0.8,8.878,8.878,0,0,1-1.582-4.6c-0.023-.2-0.047-0.5-0.07-1a2.215,2.215,0,0,0-.211-1,1.68,1.68,0,0,0-1.477-.6H948.1a1.114,1.114,0,0,0-.826.3,0.987,0.987,0,0,0-.3.8,1.029,1.029,0,0,0,1.125,1.2h0.844a17.8,17.8,0,0,1-2.32,5.1,1.328,1.328,0,0,0-.422.9,1.135,1.135,0,0,0,.3.8,1.113,1.113,0,0,0,.826.3,0.83,0.83,0,0,0,.685-0.4,7.353,7.353,0,0,0,.756-1.3,16.786,16.786,0,0,0,.949-2.6,11.739,11.739,0,0,0,.862,3.1,1.424,1.424,0,0,0,1.248,1h0Zm-20.953-8.8a1.111,1.111,0,0,0-.932.4,4.22,4.22,0,0,0-.65,1.2,86.848,86.848,0,0,1-3.305,8.5,4.305,4.305,0,0,0-.352,1.2,1.38,1.38,0,0,0,1.618,1.5,1.541,1.541,0,0,0,1.336-.9,47.359,47.359,0,0,0,2.179-5.4,23.818,23.818,0,0,0,1.582-5.2,1.261,1.261,0,0,0-1.476-1.3h0Z" transform="translate(-863.219 -10401.9)"/>
</svg>
