<?xml version="1.0" encoding="utf-8"?>
<!-- Generator: Adobe Illustrator 24.0.3, SVG Export Plug-In . SVG Version: 6.00 Build 0)  -->
<svg version="1.1" id="title.svg" xmlns="http://www.w3.org/2000/svg" xmlns:xlink="http://www.w3.org/1999/xlink" x="0px" y="0px"
	 viewBox="0 0 593.5 198.4" style="enable-background:new 0 0 593.5 198.4;" xml:space="preserve">
<style type="text/css">
	.st0{fill-rule:evenodd;clip-rule:evenodd;fill:#62A045;}
	.st1{fill-rule:evenodd;clip-rule:evenodd;fill:#AAC964;}
	.st2{fill:#62A045;}
	.st3{fill-rule:evenodd;clip-rule:evenodd;fill:#FFFFFF;}
	.st4{fill:#231815;}
	.st5{fill:#639F44;}
</style>
<g id="訴求">
	<path id="公園小學旁" class="st0" d="M415.8,181.8c1.1,0,1.6-0.6,1.6-1.8c0-0.7-0.7-1.5-2-2.4c-4.6-3-7.7-7.7-8.5-13.1
		c-0.1-1.8-1.6-3.2-3.4-3.1c0,0,0,0-0.1,0h-5.2c-1.3,0-1.9,0.5-1.9,1.6c0,1.1,0.6,1.6,1.9,1.6h4.2c0.9,0,1.4,0.7,1.7,2
		c0.8,3.8,2.6,7.3,5.2,10.3c1.1,1.4,2.3,2.6,3.7,3.7C413.8,181.2,414.8,181.7,415.8,181.8L415.8,181.8L415.8,181.8z M381.8,182
		c0.3,0,0.5-0.1,0.7-0.2c0.3-0.2,0.6-0.5,0.9-0.7c2.4-2.5,4.5-5.4,6.2-8.5c0.8-1.4,1.5-2.9,2.2-4.4c0.4-0.8,0.6-1.7,0.7-2.7
		c0.1-0.7-0.5-1.4-1.2-1.5c-0.1,0-0.2,0-0.4,0c-0.5,0-0.9,0.2-1.2,0.6c-0.4,0.5-0.7,1.1-1,1.8c-1.4,3.7-3.4,7.2-6,10.2
		c-1.7,1.9-2.6,3-2.6,3.5C380.2,181.4,380.8,182,381.8,182L381.8,182L381.8,182z M413.4,196.8c1.3,0,1.9-0.6,1.9-1.7
		c-0.2-1.3-0.8-2.4-1.6-3.4c-1.4-1.9-3-4-4.8-6.2c-2-2.4-3.4-3.6-4.2-3.7c-0.7-0.1-1.4,0.3-1.5,1c0,0.1,0,0.2,0,0.4
		c0.3,0.9,0.8,1.6,1.4,2.2c0.9,1,2.2,2.7,3.9,5.1l-17.3,1.3c2.6-4.4,4.6-9,6.2-13.9c0-0.1,0.1-0.2,0.2-0.4c0.1-0.2,0.1-0.3,0.1-0.5
		c0-0.4-0.2-0.8-0.5-1.1c-0.4-0.3-0.8-0.4-1.3-0.5c-0.9,0-1.7,0.6-1.9,1.5c-1.6,5.2-3.6,10.2-6.2,15l-1.4,0c-1.2-0.1-2.4,0-3.4,0.5
		c-0.4,0.3-0.7,0.8-0.6,1.3c0,0.5,0.1,1.1,0.5,1.4c0.4,0.3,1,0.5,1.5,0.4l11.6-1c3-0.3,5.6-0.5,7.9-0.8c2.3-0.3,3.7-0.5,4.2-0.5
		l1.5-0.2l0.7-0.1l1.2,2C412,196.2,412.7,196.8,413.4,196.8L413.4,196.8L413.4,196.8z M455.9,161.3h-25.7c-1.2-0.1-2.4,0.3-3.3,1
		c-0.8,1-1.1,2.2-1,3.4v26.6c-0.1,1.2,0.3,2.4,1,3.4c0.9,0.8,2.1,1.2,3.3,1.1h25.7c1.2,0.1,2.4-0.3,3.3-1.1c0.8-1,1.1-2.2,1-3.4
		v-26.6c0.1-1.2-0.3-2.5-1-3.4C458.3,161.6,457.1,161.2,455.9,161.3L455.9,161.3L455.9,161.3z M456.9,191.8c0.1,1-0.6,1.9-1.6,2.1
		c-0.2,0-0.3,0-0.5,0h-23.6c-1,0.2-1.9-0.5-2.1-1.5c0-0.2,0-0.3,0-0.5v-25.5c-0.1-1,0.6-1.9,1.6-2.1c0.2,0,0.3,0,0.5,0h23.6
		c1-0.2,1.9,0.5,2.1,1.5c0,0.2,0,0.3,0,0.5V191.8L456.9,191.8z M454.2,172.3h-9.5v-2.2h7.7c0.7,0.1,1.3-0.4,1.3-1.1
		c0.1-0.7-0.4-1.3-1.1-1.3c-0.1,0-0.1,0-0.2,0h-7.7v-1.2c0-0.4-0.1-0.8-0.4-1.1c-0.3-0.3-0.8-0.4-1.2-0.4c-0.7-0.1-1.4,0.3-1.6,1.1
		c0,0.1,0,0.2,0,0.4v1.2h-7.6c-0.7-0.1-1.3,0.4-1.3,1.1c-0.1,0.7,0.4,1.3,1.1,1.3c0.1,0,0.1,0,0.2,0h7.6v2.2h-9.5
		c-0.6-0.1-1.2,0.3-1.3,0.9c0,0.1,0,0.2,0,0.3c-0.1,0.6,0.4,1.2,1,1.3c0.1,0,0.2,0,0.3,0h22.3c0.7,0.1,1.3-0.3,1.4-1
		c0-0.1,0-0.2,0-0.3c0-0.7-0.5-1.2-1.1-1.3C454.4,172.3,454.3,172.3,454.2,172.3L454.2,172.3L454.2,172.3z M443.7,188.8l-3.2,0.6
		v-4.5c0.7-0.5,1.4-1,2-1.6h7.6c1.8,0,2.8-0.9,2.8-2.7V179c0.1-0.7-0.2-1.4-0.7-2c-0.6-0.5-1.3-0.7-2-0.7h-14.5
		c-1.2-0.1-2.3,0.7-2.5,1.9c0,0.2,0,0.4,0,0.5v1.9c0,0.7,0.2,1.4,0.7,2c0.5,0.5,1.3,0.8,2,0.7h3c-2.4,1.3-4.9,2.3-7.5,3
		c-0.6,0.1-1.1,0.6-1.1,1.2c0,0.4,0.1,0.7,0.3,1c0.3,0.3,0.6,0.4,1,0.4c0.3,0,0.5-0.1,0.8-0.2c1.8-0.6,3.6-1.4,5.3-2.3v3.3
		c-1.5,0.2-2.6,0.4-3.2,0.5c-0.7,0-1.4,0.6-1.4,1.3s0.6,1.4,1.3,1.4c0.1,0,0.1,0,0.2,0c0.2,0,0.4,0,0.5,0c0.7-0.1,1.2-0.2,1.4-0.2
		c0.4,0,1.4-0.2,3-0.5c1.5-0.2,3-0.5,4.4-1c0.3-0.1,0.6-0.3,0.8-0.5c0.2-0.2,0.3-0.5,0.3-0.8c0.1-0.6-0.4-1.2-1-1.2
		c-0.1,0-0.1,0-0.2,0C443.9,188.8,443.8,188.8,443.7,188.8L443.7,188.8L443.7,188.8z M436.3,179.8c-0.1-0.5,0.2-1,0.7-1.1
		c0.1,0,0.2,0,0.2,0h11.6c0.5,0,0.9,0.4,1,0.9c0,0.1,0,0.2,0,0.2c0,0.3-0.1,0.6-0.2,0.9c-0.2,0.2-0.4,0.3-0.7,0.2h-11.6
		c-0.5,0-0.9-0.4-1-0.9C436.2,180,436.2,179.9,436.3,179.8L436.3,179.8z M454.1,189.7c-1-0.7-2.1-1.4-3.2-2c0.8-0.5,1.6-1,2.4-1.5
		c0.4-0.2,0.6-0.7,0.6-1.1c0-0.3-0.1-0.6-0.3-0.8c-0.2-0.3-0.6-0.5-1-0.5c-0.3,0-0.6,0.1-0.9,0.3c-1,0.9-2.1,1.7-3.2,2.5
		c-1.4-0.7-2.7-1.2-3.8-1.6c-0.2-0.1-0.4-0.1-0.6-0.1c-0.3,0-0.6,0.1-0.9,0.3c-0.2,0.2-0.4,0.6-0.3,0.9c0,0.5,0.3,1,0.8,1.2
		c3.1,1.5,6.1,3.3,8.9,5.2c0.3,0.2,0.6,0.3,1,0.3c0.5,0,1-0.3,1.2-0.7c0.1-0.2,0.2-0.5,0.2-0.7C455,190.5,454.6,190,454.1,189.7
		L454.1,189.7L454.1,189.7z M481.2,196.8h2.8c1.4,0.1,2.8-0.3,3.8-1.2c0.9-1.1,1.3-2.4,1.2-3.8v-29.6c0-1.4-0.6-2.1-1.8-2.1
		c-0.5,0-1,0.1-1.3,0.5c-0.3,0.5-0.5,1-0.4,1.6V191c0.1,1-0.6,1.9-1.6,2.1c-0.2,0-0.4,0-0.5,0h-2.1c-1.4,0-2.2,0.6-2.2,1.9
		c0,0.5,0.1,1,0.5,1.4C480.1,196.7,480.7,196.8,481.2,196.8L481.2,196.8L481.2,196.8z M503.4,189.8c0.6,0,1.1-0.3,1.4-0.7
		c0.4-0.3,0.6-0.8,0.7-1.3c0-0.9-0.8-3.5-2.4-8c-1.3-3.8-2.9-7.5-4.6-11.1c-0.2-0.5-0.5-0.9-0.9-1.2c-0.3-0.3-0.6-0.4-1-0.4
		c-0.7-0.2-1.4,0.3-1.6,1c0,0.1,0,0.2,0,0.4c0.1,0.6,0.3,1.3,0.6,1.8c2.5,5.7,4.6,11.5,6.1,17.5C502,189.2,502.6,189.8,503.4,189.8
		L503.4,189.8L503.4,189.8z M470.5,189.9c0.8-0.1,1.4-0.6,1.7-1.3c0.9-1.4,2.1-4.4,3.6-9c1.6-4.8,2.3-8.4,2.3-10.6
		c0.1-0.8-0.4-1.5-1.2-1.7c-0.1,0-0.3,0-0.4,0c-0.5,0-1,0.2-1.3,0.7c-0.5,1.2-0.8,2.4-1,3.7c-0.9,4.7-2.4,9.2-4.4,13.5
		c-0.5,1-0.9,2-1.2,3c-0.1,0.8,0.5,1.6,1.3,1.7C470.2,189.9,470.4,189.9,470.5,189.9L470.5,189.9L470.5,189.9z M515.1,184
		c1.1,0,1.6-0.7,1.6-1.9v-2.4c-0.1-0.7,0.5-1.3,1.2-1.4c0.1,0,0.2,0,0.2,0h26.5c0.7-0.1,1.3,0.4,1.4,1.1c0,0.1,0,0.2,0,0.2v2.5
		c-0.1,0.5,0.1,1.1,0.4,1.5c0.3,0.3,0.8,0.5,1.2,0.5c1.1,0,1.6-0.6,1.6-1.9v-3.3c0.2-2.2-0.7-3.3-2.8-3.3H546l0.9-12
		c0-1.6-1.1-2.5-3.2-2.5h-5.8c-0.4,0-0.7,0.1-1,0.3c-0.2,0.3-0.3,0.6-0.3,1c-0.1,0.6,0.4,1.1,1,1.2c0.1,0,0.2,0,0.3,0h4.7
		c0.3,0,0.6,0.1,0.9,0.3c0.2,0.3,0.3,0.6,0.2,1v0.9h-5.5c-0.6-0.1-1.3,0.3-1.4,0.9c0,0.1,0,0.2,0,0.3c0,0.4,0.1,0.7,0.3,1
		c0.3,0.2,0.7,0.3,1.1,0.3h5.2l-0.1,2.3h-5.1c-0.7-0.1-1.3,0.3-1.4,1c0,0.1,0,0.2,0,0.3c-0.1,0.6,0.4,1.2,1.1,1.3c0.1,0,0.2,0,0.3,0
		h4.9l-0.2,2.5h-23.2l-0.2-2.5h4.5c1,0,1.5-0.4,1.5-1.3c0-0.7-0.5-1.3-1.2-1.3c-0.1,0-0.2,0-0.3,0h-4.6l-0.2-2.3h4.8
		c0.7,0.1,1.4-0.3,1.5-1s-0.3-1.4-1-1.5c-0.1,0-0.3,0-0.5,0h-5l-0.1-1.2c0-0.3,0.1-0.7,0.3-0.9c0.4-0.3,0.8-0.4,1.3-0.4
		c1.3-0.1,2.6-0.4,3.9-0.8c0.6-0.1,1-0.5,1.2-1.1c0.1-0.7-0.3-1.3-1-1.4c-0.1,0-0.2,0-0.3,0c-0.2,0-0.3,0-0.5,0.1
		c-0.2,0.1-0.4,0.1-0.5,0.1l-1.3,0.3l-4.2,0.7c-0.6,0.1-1.2,0.4-1.6,0.9c-0.4,0.5-0.5,1.1-0.5,1.7l0.9,11.8h-0.6
		c-0.8-0.1-1.6,0.2-2.1,0.8c-0.5,0.7-0.7,1.6-0.7,2.5v3.2C513.4,183.4,513.9,184,515.1,184L515.1,184L515.1,184z M527.3,167.6
		c0.6,0,2-0.8,4.1-2.5l1.4,1.4c0.4,0.4,0.9,0.7,1.4,0.8c0.3,0,0.7-0.1,0.9-0.3c0.2-0.3,0.4-0.6,0.3-0.9c0-0.5-0.6-1.2-1.7-2.1
		l-0.4-0.2c1.4-1.2,2.1-2,2.1-2.5c0-0.3-0.1-0.6-0.3-0.8c-0.3-0.2-0.6-0.3-0.9-0.3c-0.6,0.1-1.2,0.4-1.6,0.9l-1.2,1.2
		c-1-0.8-2.1-1.5-3.3-1.9c-0.3,0-0.6,0.1-0.9,0.3c-0.2,0.2-0.3,0.5-0.3,0.8c0,0.4,0.9,1.1,2.6,2.3l-0.9,0.5c-1.6,1-2.4,1.7-2.4,2.1
		c-0.1,0.6,0.3,1.1,0.9,1.2C527.1,167.6,527.2,167.6,527.3,167.6L527.3,167.6L527.3,167.6z M526.3,174.1c-0.1,0.6,0.3,1.1,0.9,1.2
		c0.1,0,0.2,0,0.3,0c0.6-0.1,1.1-0.3,1.6-0.6c0.9-0.5,1.8-1.1,2.6-1.8l1.8,1.5c0.4,0.4,0.9,0.7,1.4,0.8c0.6,0.1,1.2-0.3,1.2-1
		c0-0.1,0-0.2,0-0.3c0-0.5-0.8-1.4-2.4-2.5c1.3-1,1.9-1.7,1.9-2.2c0-0.6-0.4-1.1-1-1.1c-0.1,0-0.2,0-0.3,0c-0.6,0.1-1.1,0.5-1.5,0.9
		l-1.1,1.1l-0.7-0.5l-1.3-0.7c-0.4-0.3-0.9-0.5-1.3-0.6c-0.5-0.1-1.1,0.2-1.2,0.8c0,0.1,0,0.2,0,0.3c0,0.4,0.7,1,2.1,1.9l0.4,0.3
		l-0.8,0.5C527.1,172.9,526.3,173.6,526.3,174.1L526.3,174.1L526.3,174.1z M548.1,187.6h-15.6v-0.2c0-0.5,0.4-0.9,1.3-1.2
		c2.7-0.7,5.3-1.6,7.9-2.6c1.9-0.8,2.8-1.4,2.8-1.8c0-0.5-0.3-0.9-0.8-1c-0.8-0.3-1.6-0.4-2.4-0.3h-22c-0.4,0-0.9,0.1-1.2,0.3
		c-0.3,0.3-0.4,0.6-0.4,1c0,0.8,0.5,1.3,1.6,1.3h18.2v0.1l-4.3,1.1c-1.1,0.2-2.2,0.5-3.3,1c-0.5,0.3-0.7,0.8-0.7,1.4v1.2h-14.8
		c-1.1,0-1.7,0.5-1.7,1.4s0.6,1.3,1.7,1.3h14.8v2.3c0.1,0.8-0.5,1.5-1.3,1.6c-0.1,0-0.2,0-0.3,0h-1.6c-1.3,0-2,0.5-2,1.5
		c0,0.4,0.1,0.9,0.5,1.2c0.4,0.3,1,0.4,1.5,0.4h2.5c1.1,0.2,2.2-0.1,3-0.8c0.7-0.9,1-2.1,0.9-3.2v-2.9h15.6c1.1,0,1.7-0.5,1.7-1.3
		S549.2,187.6,548.1,187.6L548.1,187.6L548.1,187.6z M559.1,178.7c0.8,0.1,1.6-0.5,1.7-1.3c0-0.1,0-0.3,0-0.4v-1.2
		c-0.1-0.8,0.5-1.5,1.2-1.6c0.1,0,0.2,0,0.3,0h26.2c0.8-0.1,1.5,0.5,1.6,1.3c0,0.1,0,0.2,0,0.3v1.2c-0.1,0.8,0.4,1.6,1.3,1.7
		c0.1,0,0.3,0,0.4,0c1.1,0,1.7-0.7,1.7-2v-2.1c0.1-0.9-0.2-1.8-0.9-2.4c-0.8-0.6-1.7-0.8-2.6-0.8h-6.2c0.5-1.6,0.9-3.3,1.2-5h6
		c1.2,0,1.8-0.5,1.8-1.4s-0.6-1.4-1.8-1.4h-14v-1.8c0.1-0.9-0.5-1.7-1.3-1.8c-0.1,0-0.3,0-0.4,0c-0.9-0.1-1.7,0.5-1.8,1.4
		c0,0.1,0,0.3,0,0.4v1.8h-13.5c-1.2,0-1.7,0.5-1.7,1.4s0.6,1.4,1.7,1.4h6v0.2l1,4.8H561c-2.4-0.1-3.5,0.9-3.5,3.2v2.1
		C557.4,178.1,558,178.7,559.1,178.7L559.1,178.7z M570,171.4l0-0.5l-0.9-4.5h12.5l-0.9,5H570L570,171.4z M578.8,197.1
		c3.8,0,6.3-0.3,7.4-1c1.2-0.8,2-2.1,2.3-3.5c0.3-1.3,0.5-2.6,0.5-4c0-2-1.1-3-3.4-3h-13.9c0.2-1.3,0.3-2.4,0.4-3.3h18.6
		c1.2,0,1.8-0.5,1.8-1.4c0-1-0.6-1.4-1.8-1.4h-13.6V177c0.1-0.9-0.6-1.8-1.5-1.8c-0.9-0.1-1.8,0.6-1.8,1.5c0,0.1,0,0.2,0,0.3v2.4
		h-13.6c-1.2,0-1.8,0.5-1.8,1.4s0.6,1.4,1.8,1.4h8.7c0,2.1-0.4,4.2-1.2,6.1c-1.3,2.5-3.8,4.2-7.3,5.1l-1.8,0.3
		c-0.8,0.1-1.3,0.8-1.3,1.5c0,1.1,0.6,1.6,1.8,1.6c2.4-0.2,4.7-0.9,6.7-2.1c2.6-1.3,4.6-3.6,5.5-6.5h13c0.5-0.1,1.1,0.2,1.2,0.8
		c0,0.1,0,0.2,0,0.3c0.1,1.1-0.1,2.2-0.6,3.1c-0.5,0.8-1.8,1.3-3.9,1.2l-2,0c-1.4,0-2.1,0.5-2.1,1.6S577.5,197.1,578.8,197.1
		L578.8,197.1L578.8,197.1z"/>
	<path id="形狀_1" class="st0" d="M368,165.2h0.9v32.4H368V165.2z"/>
	<path id="靜巷美宅" class="st0" d="M204.6,175.6c0-0.7-0.5-1.3-1.2-1.4c-0.1,0-0.2,0-0.4,0h-5.8v-2.5h4
		c0.7,0.1,1.3-0.4,1.4-1.1c0.1-0.7-0.4-1.3-1.1-1.4c-0.1,0-0.2,0-0.3,0h-4v-2.4h5.3c0.7,0.1,1.4-0.4,1.5-1.2
		c0.1-0.7-0.4-1.4-1.2-1.5c-0.1,0-0.3,0-0.4,0h-5.3v-1.6c0.1-0.8-0.4-1.5-1.1-1.6c-0.1,0-0.3,0-0.4,0c-0.7-0.1-1.4,0.5-1.5,1.2
		c0,0.1,0,0.3,0,0.4v1.6h-5.5c-0.7-0.1-1.4,0.5-1.5,1.2c-0.1,0.7,0.5,1.4,1.2,1.5c0.1,0,0.2,0,0.3,0h5.5v2.4h-4.5
		c-0.7-0.1-1.3,0.4-1.4,1.1c-0.1,0.7,0.4,1.3,1.1,1.4c0.1,0,0.2,0,0.3,0h4.5v2.5h-6.2c-0.7-0.1-1.4,0.5-1.5,1.2s0.5,1.4,1.2,1.5
		c0.1,0,0.2,0,0.3,0h15c0.7,0.1,1.4-0.3,1.5-1C204.6,175.9,204.6,175.8,204.6,175.6L204.6,175.6L204.6,175.6z M206.3,165.8
		c1.1,0,2.6-0.1,4.5-0.2l0.9-0.1c1.5-0.1,3.2-0.3,5.2-0.5c1.5-0.1,2.9-0.4,4.3-0.7c0.7-0.1,1.2-0.7,1.2-1.4c0.1-0.7-0.4-1.4-1.1-1.5
		c-0.1,0-0.2,0-0.4,0l-1.6,0.3c-3.9,0.7-7.8,1.1-11.8,1.2c-1.8,0.1-2.7,0.6-2.7,1.5C204.7,165.3,205.2,165.8,206.3,165.8
		L206.3,165.8L206.3,165.8z M219.3,166.6l-1.4,4.4l-0.2,0.8c-0.1,0.7,0.4,1.2,1.1,1.3c0.1,0,0.2,0,0.3,0c0.6,0,1.2-0.4,1.4-1
		c0.8-1.5,1.4-3.2,1.7-4.8c0.1-0.4,0-0.8-0.3-1.1c-0.3-0.3-0.8-0.4-1.2-0.4C220.1,165.6,219.5,166,219.3,166.6L219.3,166.6
		L219.3,166.6z M212.8,166.4c-0.6-0.1-1.3,0.3-1.4,0.9c0,0.1,0,0.2,0,0.3l1.5,4.5c0.3,0.4,0.7,0.6,1.2,0.6c0.7,0.1,1.4-0.4,1.5-1.1
		c0-0.1,0-0.2,0-0.4c-0.1-1-0.4-1.9-0.9-2.8C214,167.1,213.4,166.4,212.8,166.4L212.8,166.4L212.8,166.4z M207.2,166.5
		c-0.4,0-0.8,0.1-1.1,0.4c-0.2,0.4-0.4,0.8-0.3,1.3l1.5,4.4c0.2,0.4,0.7,0.7,1.2,0.7c0.4,0,0.8-0.1,1.1-0.4c0.3-0.3,0.4-0.7,0.4-1.1
		c0-0.3-0.1-0.7-0.2-1c-0.2-0.4-0.4-1-0.7-1.8C208.5,167.3,207.9,166.5,207.2,166.5L207.2,166.5L207.2,166.5z M222.7,180.4h-1v-3.2
		c0.2-0.9-0.1-1.8-0.7-2.5c-0.7-0.6-1.6-0.9-2.6-0.8h-11.6c-0.7-0.1-1.4,0.3-1.5,1.1c0,0.1,0,0.2,0,0.4c-0.1,0.7,0.5,1.4,1.2,1.4
		c0.1,0,0.2,0,0.4,0h4.4v3.7h-5.9c-0.7-0.1-1.4,0.3-1.5,1.1c0,0.1,0,0.2,0,0.4c-0.1,0.7,0.5,1.4,1.2,1.4c0.1,0,0.2,0,0.4,0h5.9v3.9
		h-4.7c-0.7-0.1-1.4,0.3-1.5,1c0,0.1,0,0.2,0,0.4c-0.1,0.7,0.4,1.4,1.2,1.4c0.1,0,0.2,0,0.4,0h4.7v3.8c0.1,0.8-0.5,1.4-1.2,1.5
		c-0.1,0-0.2,0-0.3,0h-1.5c-0.5,0-1,0.1-1.4,0.4c-0.3,0.3-0.5,0.8-0.4,1.2c0,1,0.6,1.5,1.8,1.5h2.2c1,0.2,2.1-0.1,2.9-0.8
		c0.7-0.8,1-1.9,0.9-3V190h4.3c0.9,0.2,1.8-0.1,2.5-0.7c0.6-0.7,0.8-1.7,0.8-2.6v-3.4h1c0.7,0.1,1.4-0.4,1.5-1c0-0.1,0-0.2,0-0.4
		c0.1-0.7-0.4-1.4-1.1-1.4C222.9,180.4,222.8,180.4,222.7,180.4L222.7,180.4L222.7,180.4z M218.7,180.4h-4.6v-3.7h3.2
		c0.7,0,1.3,0.5,1.3,1.2c0,0.1,0,0.2,0,0.2L218.7,180.4L218.7,180.4z M199.8,178.8h-8.2c-0.9-0.1-1.8,0.1-2.5,0.7
		c-0.6,0.7-0.9,1.6-0.8,2.5v14.6c-0.1,0.7,0.3,1.4,1.1,1.6c0.1,0,0.2,0,0.4,0c0.8,0.1,1.4-0.5,1.5-1.2c0-0.1,0-0.3,0-0.4v-5.4h8.8
		v2.5c0,0.4-0.1,0.7-0.3,1c-0.3,0.2-0.6,0.4-0.9,0.3h-1.3c-0.8-0.1-1.5,0.4-1.7,1.2c0,0.1,0,0.3,0,0.4c-0.1,0.8,0.5,1.5,1.3,1.5
		c0.1,0,0.3,0,0.4,0h2c1,0.1,1.9-0.3,2.6-0.9c0.6-0.8,0.9-1.8,0.8-2.8v-12.5c0.1-0.9-0.1-1.8-0.7-2.5
		C201.6,179,200.7,178.7,199.8,178.8L199.8,178.8L199.8,178.8z M192.4,181.5h6.6c0.5-0.1,1,0.3,1.1,0.8c0,0.1,0,0.2,0,0.3v1.2h-8.8
		v-1.2c-0.1-0.5,0.3-1,0.8-1.1C192.2,181.5,192.3,181.5,192.4,181.5L192.4,181.5z M218.7,185.8c0,0.4-0.1,0.7-0.4,1
		c-0.3,0.2-0.6,0.4-0.9,0.3h-3.2v-3.9h4.6V185.8L218.7,185.8z M191.3,186.4h8.8v2.3h-8.8V186.4z M248.1,197.4h8.3
		c3.9,0,6.5-0.4,7.6-1.2c1.3-0.8,1.9-2.3,1.9-4.4c0-1-0.6-1.6-1.9-1.6c-0.8-0.1-1.5,0.4-1.7,1.2c0,0,0,0.1,0,0.1
		c-0.2,1.3-0.6,2.1-1.4,2.4c-0.9,0.3-3.8,0.5-8.7,0.5c-6.4,0-10-0.1-10.8-0.2c-0.6-0.1-1-0.6-0.9-1.2c0,0,0,0,0,0v-3.5h14.8
		c0.9,0.2,1.9-0.1,2.6-0.7c0.6-0.8,0.9-1.7,0.8-2.7v-4c1.4,1.2,2.9,2.3,4.5,3.2c0.9,0.5,1.6,0.8,2.1,1.1c0.4,0.2,0.7,0.3,1.1,0.3
		c0.8,0.1,1.6-0.5,1.7-1.3c0-0.1,0-0.3,0-0.4c0-0.6-0.7-1.3-2.1-2c-4.2-2-7.1-4.3-8.6-6.9h8.5c1.2,0,1.8-0.5,1.8-1.5
		c0-1-0.6-1.5-1.8-1.5h-8.7v-4.7h6.7c1.2,0,1.8-0.5,1.8-1.5c0-1-0.6-1.5-1.8-1.5h-6.7v-2.9c-0.1-0.9-0.9-1.5-1.7-1.4
		c-0.7,0.1-1.3,0.7-1.4,1.4v2.9h-9.8v-2.9c-0.1-0.9-0.9-1.5-1.7-1.4c-0.7,0.1-1.3,0.7-1.4,1.4v2.9h-6.2c-1.2,0-1.8,0.5-1.8,1.5
		c0,1,0.6,1.5,1.8,1.5h6.2v4.7H233c-1.2,0-1.8,0.5-1.8,1.5c0,0.4,0.1,0.9,0.5,1.2c0.4,0.3,0.9,0.4,1.4,0.4h7.9c-2.1,3.3-5,6-8.5,7.7
		c-1,0.5-1.6,1.1-1.6,1.8c-0.2,0.8,0.4,1.5,1.2,1.7c0.1,0,0.3,0,0.4,0c1,0,2.7-1.1,5.1-3.2v10.1c0,1.2,0.8,2.2,2,2.5
		C240.8,197.2,243.7,197.4,248.1,197.4L248.1,197.4L248.1,197.4z M244.4,173.1v-4.7h9.8v4.7H244.4z M256.8,180h-15
		c1-1.2,1.9-2.5,2.7-3.9h9.8C254.9,177.5,255.8,178.8,256.8,180L256.8,180L256.8,180z M254.4,186.7h-13.7V184c-0.1-0.4,0-0.7,0.2-1
		c0.3-0.2,0.6-0.2,1-0.2h12.8c0.3,0,0.5,0.1,0.7,0.2c0.2,0.2,0.3,0.5,0.3,0.7v1.4c0.1,0.7-0.4,1.3-1,1.4
		C254.6,186.7,254.5,186.7,254.4,186.7L254.4,186.7L254.4,186.7z M277,180.9h33.3c0.8,0.1,1.6-0.5,1.7-1.3s-0.5-1.6-1.3-1.7
		c-0.1,0-0.3,0-0.4,0h-15.2v-3.2h11.7c0.7,0.2,1.5-0.3,1.6-1.1c0-0.1,0-0.2,0-0.4c0-0.9-0.5-1.4-1.6-1.4h-11.7v-3h14.3
		c0.8,0.1,1.6-0.5,1.7-1.3s-0.5-1.6-1.3-1.7c-0.1,0-0.3,0-0.4,0h-9l0.1-0.1c0.7-1,1.4-2.1,1.8-3.3c0-1-0.6-1.5-1.7-1.5
		c-0.4,0-0.8,0.2-1.1,0.5c-0.4,0.4-0.7,0.9-1,1.5l-1.4,2.9h-7.3c-1.6-3.1-2.8-4.7-3.8-4.7c-1.1,0-1.7,0.5-1.7,1.4
		c0.1,0.5,0.3,1,0.7,1.4l1.2,1.9H278c-0.8-0.1-1.5,0.5-1.6,1.3s0.5,1.5,1.3,1.6c0.1,0,0.2,0,0.3,0h13.9v3h-11.3
		c-1.1,0-1.6,0.5-1.6,1.4c-0.1,0.8,0.5,1.4,1.3,1.5c0.1,0,0.3,0,0.4,0h11.3v3.2H277c-1.2,0-1.7,0.5-1.7,1.5S275.9,180.9,277,180.9
		L277,180.9L277,180.9z M310.4,194.8c-6.5-0.6-11.2-2.8-14.2-6.7h13.6c1.2,0,1.8-0.5,1.8-1.5c0-1-0.6-1.5-1.8-1.5h-15.2l0.2-2.2
		c0.1-0.8-0.5-1.5-1.2-1.6c-0.1,0-0.3,0-0.4,0c-0.9,0-1.4,0.7-1.6,2l-0.2,1.8h-13.9c-1.2,0-1.8,0.5-1.8,1.5c0,1,0.6,1.5,1.8,1.5
		h12.8c-2.1,3.7-6.3,6-12.4,6.8l-1.8,0.3c-0.3,0.1-0.7,0.2-0.9,0.5c-0.2,0.3-0.3,0.6-0.3,0.9c0,0.5,0.1,1,0.5,1.4
		c0.4,0.3,0.9,0.5,1.4,0.3l0.9-0.1c3.6-0.5,7-1.6,10.1-3.4c2.3-1.5,4.2-3.5,5.5-5.9l0.1,0c1.9,2.9,4.5,5.2,7.6,6.7
		c2.9,1.6,6.1,2.5,9.4,2.7c1.4,0,2.1-0.6,2.1-1.8c0-0.4-0.2-0.8-0.5-1.1C311.5,195,311,194.8,310.4,194.8L310.4,194.8L310.4,194.8z
		 M321.7,174.3c1.1,0,1.7-0.6,1.7-1.9v-2.5c-0.1-0.8,0.5-1.5,1.2-1.6c0.1,0,0.2,0,0.3,0h25.9c0.8-0.1,1.5,0.5,1.6,1.3
		c0,0.1,0,0.2,0,0.3v2.6c-0.1,0.9,0.6,1.8,1.5,1.8c0.9,0.1,1.8-0.6,1.8-1.5c0-0.1,0-0.2,0-0.3v-3.7c0.2-1-0.1-2-0.7-2.7
		c-0.8-0.6-1.8-0.9-2.8-0.8h-12.8v-2.4c0.1-0.9-0.5-1.7-1.4-1.8c-0.1,0-0.3,0-0.5,0c-0.9-0.1-1.7,0.5-1.8,1.3c0,0.1,0,0.3,0,0.4v2.4
		h-12.3c-1-0.2-2,0.1-2.7,0.8c-0.6,0.8-0.9,1.8-0.8,2.8v3.6c-0.2,0.9,0.4,1.7,1.3,1.9C321.4,174.3,321.5,174.3,321.7,174.3
		L321.7,174.3L321.7,174.3z M339.9,197.4l5.2,0.1c2.1,0,4.3-0.1,6.4-0.4c1.1-0.1,2.2-0.4,3.1-1.1c0.9-0.9,1.4-2.6,1.4-5.1
		c0-0.5-0.1-1-0.5-1.4c-0.4-0.3-0.9-0.5-1.4-0.5c-1.1,0-1.8,0.7-1.9,2c0,0.8-0.1,1.6-0.5,2.3c-0.3,0.5-1.1,0.8-2.5,0.8l-4.1,0.2
		c-3.9-0.1-6.1-0.2-6.5-0.2c-1-0.1-1.7-1-1.6-2V186l16.5-1.4c1.3-0.1,1.9-0.7,1.9-1.7c0.1-0.8-0.4-1.5-1.2-1.6c-0.1,0-0.3,0-0.4,0
		h-0.5l-16.4,1.4v-6.3c3.5-0.5,6.3-1,8.5-1.4c2.9-0.6,4.4-1.3,4.4-2.2c0.1-0.8-0.5-1.6-1.3-1.7c-0.1,0-0.3,0-0.4,0
		c-0.5,0-0.9,0.1-1.3,0.3c-4.2,1.2-10.9,2.2-19.8,3l-3,0.2c-0.8,0-1.4,0.7-1.4,1.5c0,0,0,0,0,0c-0.2,0.8,0.3,1.5,1.1,1.6
		c0.2,0,0.4,0,0.6,0l1.9-0.2l7.5-0.7v6.2l-12.1,1c-1.3,0.1-1.9,0.7-1.9,1.7c0,0.5,0.1,0.9,0.5,1.2c0.4,0.3,0.9,0.4,1.5,0.3l12.1-1
		v7.4c-0.1,1.1,0.4,2.1,1.2,2.8C335.6,197.1,337.3,197.4,339.9,197.4L339.9,197.4L339.9,197.4z"/>
	<g id="群組_1">
		<path id="_2-3" class="st1" d="M4.6,195.5h33c1,0,1.9-0.4,2.7-1.1c0.7-0.7,1.1-1.6,1.1-2.6c0-2.1-1.7-3.7-3.8-3.8H8
			c0.9-1.8,2.3-3.4,3.9-4.6c1.9-1.5,4.9-3.8,9.3-6.7c3.9-2.4,7.7-5.1,11.3-8c2.5-2.1,4.7-4.5,6.5-7.2c1.9-2.8,2.9-6,2.9-9.4
			c0.1-3.2-0.8-6.4-2.6-9.1c-1.8-2.7-4.3-4.8-7.2-6.2c-3.1-1.5-6.6-2.2-10-2.1c-6.6-0.1-13.1,1.4-19,4.4c-1.2,0.6-2,1.9-2,3.3
			c0,0.9,0.3,1.8,1,2.4c0.6,0.6,1.5,1,2.4,1c0.6,0,1.1-0.2,1.6-0.4c4.6-2,9.6-3.1,14.6-3.1c4.5,0,7.8,0.9,10.1,2.7s3.4,4.4,3.4,7.8
			c0,3.6-2.4,7.2-7.2,10.8c-2.2,1.7-5,3.5-8.3,5.6c-3.5,2.2-7,4.6-10.3,7.1c-2.2,1.8-4.2,3.9-5.8,6.3C0.9,185.1,0,188,0,191
			c-0.1,1.2,0.4,2.4,1.3,3.3C2.2,195.1,3.4,195.6,4.6,195.5L4.6,195.5L4.6,195.5z M53.2,175h16.2c1,0,1.9-0.3,2.6-1
			c0.7-0.7,1.1-1.6,1-2.5c0-2-1.6-3.6-3.6-3.6H53.2c-0.9,0-1.9,0.3-2.5,1c-0.7,0.7-1,1.6-1,2.6C49.7,173.4,51.3,175,53.2,175
			L53.2,175L53.2,175z M109.5,164.5c6.8-2.6,10.2-7.3,10.2-14.3c0-5-1.8-8.8-5.4-11.5s-8.7-4-15.3-4c-5.9,0-11.7,1.5-16.9,4.4
			c-1.1,0.6-1.8,1.7-1.8,3c0,0.9,0.3,1.7,1,2.3c0.6,0.6,1.4,0.9,2.3,0.9c0.5,0,1.1-0.1,1.5-0.3c4.2-1.9,8.7-2.9,13.3-2.8
			c4.3,0,7.6,0.8,9.9,2.3c2.3,1.4,3.6,3.9,3.5,6.5c0.1,3.2-1.6,6.2-4.5,7.7c-3,1.7-7.3,2.6-13.1,2.6h-0.5c-2,0-3.7,1.7-3.6,3.7
			c0,2,1.6,3.6,3.6,3.6H95c12.5,0,18.8,3.6,18.8,10.7c0.1,3-1.6,5.8-4.3,7.1c-2.9,1.5-6.7,2.3-11.4,2.3c-4.7,0.1-9.3-0.8-13.6-2.5
			c-0.5-0.2-1.1-0.3-1.6-0.3c-1,0-1.9,0.4-2.5,1.1c-0.7,0.7-1,1.6-1,2.6c-0.1,1.5,0.9,2.9,2.3,3.3c5.7,2.3,11.8,3.5,17.9,3.4
			c6.7,0,12.1-1.5,16.1-4.4c4-2.8,6.3-7.3,6.1-12.2c0-4.3-1.2-7.7-3.5-10.2C116,167,112.9,165.3,109.5,164.5L109.5,164.5
			L109.5,164.5z"/>
		<circle id="橢圓_1" class="st2" cx="150.3" cy="180.5" r="17.1"/>
		<path id="房" class="st3" d="M143,174.1h15.2c0.4,0.1,0.8-0.2,0.9-0.5c0.1-0.4-0.2-0.8-0.5-0.9c-0.1,0-0.2,0-0.3,0H143
			c-0.4-0.1-0.8,0.2-0.9,0.5c-0.1,0.4,0.2,0.8,0.5,0.9C142.8,174.1,142.9,174.1,143,174.1L143,174.1z M145.3,189.3
			c0.9-0.2,1.7-0.6,2.5-1.2c1.1-0.7,2-1.7,2.4-2.9h5.1c0.3-0.1,0.5,0.1,0.6,0.4c0,0,0,0.1,0,0.1c0,0.5-0.1,1.1-0.4,1.5
			c-0.2,0.2-0.4,0.3-0.6,0.4c-0.3,0.1-0.7,0.1-1,0.1l-1.1,0c-0.7,0-1,0.2-1,0.8c0,0.4,0.4,0.8,0.8,0.8c0.1,0,0.1,0,0.2,0
			c1.3,0.1,2.6-0.1,3.7-0.8c0.6-0.5,1-1.6,1-3.2c0.1-0.7-0.5-1.3-1.1-1.3c-0.1,0-0.2,0-0.3,0h-5.5l0.2-1.4h7.7
			c0.3,0.1,0.7-0.2,0.7-0.5c0.1-0.3-0.2-0.7-0.5-0.7c-0.1,0-0.1,0-0.2,0h-6.1v-1.6h4.1c0.7,0.2,1.4-0.3,1.6-1c0-0.2,0-0.3,0-0.5
			v-1.3c0-0.4-0.1-0.8-0.4-1.1c-0.3-0.3-0.8-0.4-1.2-0.3h-11.7c-0.4,0-0.9,0.1-1.2,0.4c-0.3,0.3-0.4,0.8-0.4,1.2l0,4.5
			c0,1.9-0.3,3.8-1,5.6c-0.1,0.3-0.2,0.5-0.3,0.8c-0.1,0.4,0.2,0.7,0.5,0.8c0.1,0,0.2,0,0.2,0c0.5,0,1-0.8,1.4-2.3
			c0.5-2.3,0.7-4.6,0.6-6.9h6.2v1.6h-5.1c-0.3,0-0.6,0.2-0.7,0.6c0,0.3,0.2,0.6,0.6,0.7c0,0,0,0,0.1,0h3.6c0,1.1-0.3,2.3-1.1,3.2
			c-0.9,1-2,1.7-3.2,2.2c-0.3,0.1-0.5,0.4-0.5,0.7c0,0.4,0.2,0.7,0.6,0.8C145.2,189.3,145.3,189.3,145.3,189.3L145.3,189.3
			L145.3,189.3z M155.9,178.4h-11.3v-1c-0.1-0.3,0.2-0.7,0.5-0.7c0.1,0,0.1,0,0.2,0h10.6c0.3,0,0.6,0.2,0.7,0.5c0,0,0,0.1,0,0.1v0.5
			c0,0.3-0.2,0.6-0.6,0.6C156,178.4,156,178.4,155.9,178.4L155.9,178.4L155.9,178.4z"/>
	</g>
</g>
<g>
	<path class="st4" d="M177.7,113.7c21.4-15,35.2-35.2,40.5-48.4c1.3-3.1,3.3-7.7,7.9-7.7c3,0,5.2,2.4,5.2,6.1
		c0,4.3-6.1,13.1-10.5,19.1c-19.7,27.6-40.8,33.7-42.1,33.7c-0.4,0-1.9,0-1.9-1C176.7,114.6,177.4,114,177.7,113.7z M282.2,47.1
		c1.8-2.5,3.9-5.6,7-5.6c3.9,0,8.2,3.7,8.2,8.2s-1.8,4.5-16.3,4.3c-5.9-0.1-8.8-0.1-33.8-0.1c10.1,20.3,37.5,43.9,59.2,50.9
		c1.5,0.4,4.7,1.5,4.7,2.2c0,1.6-12,8.2-16.5,8.2c-5.3,0-16.2-8.5-23.3-16c-16.8-17.7-22.8-32-26.3-40.2c0.1,7.4,0.9,46,1.2,51
		c0,1.6,0.6,9.2,0.6,11c0,4.7-3.7,9.5-7.9,9.5c-4.7,0-4.7-3.9-4.7-5.3c0-1,0.4-8,0.9-13.9c0.9-14.5,1.2-33.4,1.2-48.2v-9.1
		c-3.7,0-21.5-0.4-25.5-0.4c-3.6,0-4.5,0.1-12.8,0.7c-1,0.1-6.5,1.6-7.9,1.6c-2.2,0-3.1-1-3.1-3.1c0-3,1.8-6.5,4.7-6.5
		c0.7,0,4.2,0.4,4.9,0.4c1.8,0.1,11.9,0.1,12.6,0.1c3.9,0,22.6,0.4,26.9,0.4V40c0-5.2-0.1-10.8-0.3-16c-4.5,0.3-7.9,0.4-14.5,0.4
		c-4.6,0-23.9,0-23.9-4.5c0-0.9,0.7-1,2.5-1c21.8,0,43.5-2.4,64.2-9.2c1.3-1.6,3.3-2.7,5.5-2.7c2.8,0,8.6,2.8,8.6,6.7
		c0,3-1.3,3.3-10.1,5.5c-7.1,1.9-19.4,3.6-22.3,3.9c-0.3,7.3-0.3,9.1-0.6,24H282.2z"/>
	<path class="st4" d="M393.5,53.2c-2.4,0-3.9,1.9-4.9,3.3h-8V27.3c0-0.9,0.1-3.7,0.3-5.2h10.4c2.7,0,5.5-1.2,5.5-4.5
		c0-3.4-3.6-6.7-6.8-6.7c-3,0-4.7,2.8-6.2,5.5h-38.9c-0.6,0-3.4-0.6-4-0.6c-3.3,0-4.7,3.3-4.7,4.9c0,1.2,1.2,3,2.8,3
		c1.2,0,6.2-1.6,7.3-1.6h2.4c-1.5,1.5-1.5,2.5-1.5,3.1c0,0.7,0.1,1.6,0.7,2.5c0.6,0.9,0.9,1.8,0.9,3.3v25.2c-5.2,0-5.8,0-6.8-0.1
		c-0.7,0-3.9-0.4-4.5-0.4c-4.2,0-4.3,4.3-4.3,5.2c0,1.9,1,3,2.7,3c1.2,0,6.8-1.6,8-1.6l27.4-0.1v4c-0.4-1-1.9-1.2-2.7-1.2
		c-3.6,0-5.3,2.4-5.3,5.6c-3.3,7.4-13.8,24.5-31.5,37.8c-3.4,2.7-3.7,2.8-3.7,3.7c0,0.9,1.2,1.2,1.9,1.2c3,0,23-7,41.2-35.2V98
		c0,15.7-0.9,24.8-12,24.8c-1.5,0-4.2-0.1-7.3-0.7c-0.4-0.1-2.5-0.9-3-0.9c-0.3,0-1.2,0.1-1.2,0.9c0,1.2,7.1,9.2,16.5,9.2
		c16.6,0,16.8-16.3,16.8-24.9V62.2h13.4c2.2,0,4.3-0.6,4.3-3.7C398.7,55.5,396,53.2,393.5,53.2z M371.2,56.4h-13.8
		c0-4.3,0-16.5,0.1-23l0.1-7.1c0-0.6,0.3-3.6,0.3-4.2l12.9-0.1c0.1,1.9,0.3,3.1,0.3,4.9V56.4z"/>
	<path class="st4" d="M464.7,102.1c-1.9,0-5.3,1.9-7.4,5.5h-20l-0.1-20.3h19.1c1.3,0,5.6-0.1,5.6-3.9c0-3.3-3.4-6.2-6.2-6.2
		c-2.8,0-4.7,2.4-5.8,3.9h-12.8V64.1h19.1c2.5,0,5.5-0.3,5.5-3.6c0-3.6-3.9-6.2-6.4-6.2c-2.7,0-4.3,2.1-5.5,3.6h-12.8l0.1-16.8h3.9
		c3.4,0,19.4,0.3,21.1,0.1c1.2,0,3.7-0.3,3.7-3.6c0-3.6-3.9-6.7-6.7-6.7c-2.7,0-4.6,2.5-5.3,3.7h-44.7c5.5-7.6,12.3-19.3,12.3-23.7
		c0-3.7-2.4-5.3-4.9-5.3c-2.7,0-7.3,2.7-7.3,5.5c0,0.1,0.1,1,0.3,1.5c-5.3,17.1-16.2,28.8-18.4,31.2c-1,1-6.5,5.5-6.5,6.8
		c0,0.9,0.9,1.2,1.5,1.2c3.3,0,11.4-5.5,15.7-9.6c-0.1,7.9-0.4,42.4-0.7,49.6c-0.1,5-1.2,32.2-1.2,32.5c0,3,0.3,4.6,3.7,4.6
		c4,0,8.3-0.9,6.8-14.8h54.2c3.6,0,7.1-0.4,7.1-4.6C471.8,105.7,467.7,102.1,464.7,102.1z M427.3,107.9h-16.6V87h16.9L427.3,107.9z
		 M427.6,81.2h-16.9V63.8h16.9V81.2z M410.7,58.2V41h16.6l0.3,17.2H410.7z"/>
	<path class="st5" d="M450.3,0.5c0,0,9.2,28.8-17,33.2c-2.9,1.8-2.9,1.8-2.9,1.8l-1.6-1.3c0,0,17.4-6.2,18.4-25
		c0,0-0.9,12.7-14.9,21.1c0,0-4.3-14.8,10.2-23.1C450.3,1.9,450.3,0.5,450.3,0.5z"/>
	<g>
		<g>
			<g>
				<path class="st4" d="M123.1,58.2v-3.1h8V33.2H152v21.9h8.2v3.1H123.1z M148.7,55.1v-4.4h-14.4v4.4H148.7z M148.7,47.8v-4.3
					h-14.4v4.3H148.7z M148.7,40.5v-4.3h-14.4v4.3H148.7z M155.4,35.1v-6h-27.8v6h-3.2v-9h15.3v-4.8l4.2,0.3l0,0.3
					c0,0.2-0.2,0.6-0.8,0.7v3.5h15.6v9H155.4z"/>
			</g>
			<g>
				<path class="st4" d="M136.6,102.6c-0.4-0.5-1.4-1.3-2-1.6l-0.3-0.1c0,0,0.3-0.5,0.4-0.7H127v1.9h-2.8V87.9h11v11.4
					c2.1-4.8,2.4-11,2.4-16V72.2h12c0-1.1-0.1-2.3-0.1-3.5c0-1.2-0.1-2.5-0.1-3.7l0-0.3l3.9,0.2v0.3c0,0.2-0.1,0.6-0.8,0.8l0.1,6.2
					h7.7v3.1h-7.6c0.2,5.1,0.5,9.4,0.9,12.8c1.2-2.8,2.2-6.1,3-9.6l0.1-0.3l3.5,1.3l-0.1,0.3c-0.2,0.4-0.5,0.5-0.8,0.5
					c-1.1,4.7-2.7,8.9-4.8,12.7c0.8,3.9,2,6.5,3,6.5c0.3-0.1,0.9-2,1.3-6.6l0.1-0.6l0.4,0.4c0.4,0.4,1.2,1,1.7,1.2l0.2,0.1l0,0.2
					c-0.6,5.8-1.8,8.4-3.8,8.4c-2.1,0-3.8-2.1-5-6.1c-1.6,2.3-3.3,4.2-5.1,5.8l-0.2,0.2l-0.2-0.2c-0.4-0.4-1.2-1-1.7-1.3l-0.3-0.2
					l0.3-0.3c2.3-2,4.5-4.7,6.3-7.9c-0.7-4.1-1.3-9.7-1.6-17.4h-9.1v5.4h6.4l1.5,0v1.2c-0.2,9.5-0.4,12.2-1.1,13.3
					c-0.7,0.9-1.4,1.2-3.8,1.2c-0.3,0-0.6,0-1,0c-0.3,0-0.7,0-1.1,0h-0.3l0-0.3c0-0.6-0.2-1.5-0.6-2.2l-0.3-0.5l0.6,0
					c1.4,0.1,2.8,0.1,3.4,0.1c0.4,0,0.5-0.1,0.6-0.2c0.4-0.6,0.6-3.8,0.7-9.8h-4.9c0,8.6-1.2,14.8-3.6,19.1l-0.2,0.4L136.6,102.6z
					 M132.3,97.4v-6.7H127v6.7H132.3z M124.2,85.2v-2.8h11v2.8H124.2z M124.2,79.7V77h11v2.8H124.2z M122.5,74.3v-2.8h13.7v2.8
					H122.5z M157.9,71.3c-0.8-1.3-2.6-3.3-4.2-4.7l-0.3-0.3l2.3-1.3l0.2,0.1c1.5,1.2,3.5,3.2,4.4,4.7l0.2,0.2l-2.4,1.5L157.9,71.3z
					 M124.5,68.9v-2.8h10.6v2.8H124.5z"/>
			</g>
		</g>
	</g>
</g>
</svg>
