<?xml version="1.0" encoding="utf-8"?>
<!-- Generator: Adobe Illustrator 24.0.3, SVG Export Plug-In . SVG Version: 6.00 Build 0)  -->
<svg version="1.1" id="tree_mob.svg" xmlns="http://www.w3.org/2000/svg" xmlns:xlink="http://www.w3.org/1999/xlink" x="0px"
	 y="0px" viewBox="0 0 960 700" style="enable-background:new 0 0 960 700;" xml:space="preserve">
<style type="text/css">
	.st0{fill-rule:evenodd;clip-rule:evenodd;fill:#231815;}
	.st1{fill:#9BBD58;}
	.st2{fill-rule:evenodd;clip-rule:evenodd;fill:#709C45;}
	.st3{fill-rule:evenodd;clip-rule:evenodd;fill:#9BBD58;}
</style>
<title>tree_mob</title>
<path id="SCROLL" class="st0" d="M70.2,601.4c0-3.4-2-5.4-4.5-5.4c-2.3,0-3.4,1.3-4.2,3.2l-0.9,2.1c-0.5,1.3-1,2.5-2.3,2.5
	s-2-1-2-2.6c0-1.3,0.5-2.5,1.4-3.4l-1.6-1.3c-1.3,1.2-2,2.9-2,4.7c0,2.9,1.8,5.1,4.3,5.1c2.2,0,3.4-1.7,4.1-3.2l0.9-2.1
	c0.6-1.4,1.1-2.5,2.5-2.5s2.2,1.1,2.2,2.9c-0.1,1.5-0.7,3-1.8,4.1l1.7,1.4C69.4,605.4,70.2,603.5,70.2,601.4z M70.2,585.9
	c0-1.8-0.8-3.6-2.2-4.8l-1.5,1.3c1,0.8,1.6,2.1,1.6,3.4c0,2.7-2.2,4.5-5.9,4.5s-5.9-1.8-5.9-4.5c0-1.2,0.5-2.3,1.4-3l-1.6-1.3
	c-1.2,1.2-1.9,2.7-2,4.4c0,3.9,3,7,8.1,7S70.2,589.8,70.2,585.9z M56.5,574.9v-2.3c0-2.2,0.7-3.5,2.5-3.5s2.8,1.2,2.8,3.5v2.3H56.5z
	 M70,566.2l-6.6,3.8c-0.5-2-2.3-3.4-4.4-3.2c-3.3,0-4.5,2.4-4.5,5.6v5.1H70v-2.4h-6.2v-2.5l6.2-3.5V566.2z M70.2,556.7
	c0-4-3.1-6.7-8.1-6.7s-8,2.8-8,6.7s3,6.7,8,6.7S70.2,560.7,70.2,556.7z M68.1,556.7c0,2.6-2.3,4.2-5.9,4.2s-5.8-1.7-5.8-4.2
	s2.2-4.2,5.8-4.2S68.1,554.1,68.1,556.7z M70,545.7v-9h-2.1v6.5H54.5v2.4L70,545.7z M70,532.9v-9h-2.1v6.5H54.5v2.4L70,532.9
	L70,532.9z"/>
<path class="st1" d="M78.9,107.7c-8.9,7.5-8.2,28.4,8.1,37.8c-11.8-9.9-4.4-21.4,1.2-28.3S86.8,100.9,78.9,107.7z"/>
<path class="st1" d="M94.5,178.1c4-7.7,10.1-15.1,19.7-15.7c-16.5-9-35.8,2.3-36.4,12.8S90.5,185.7,94.5,178.1z"/>
<path class="st1" d="M64.9,155.8c-5.3,9,5.2,14.3,11,7.5s15.8-16.1,27.6-6.1C91.4,142.8,70.8,145.8,64.9,155.8z"/>
<path class="st1" d="M155.4,156.4c-8.5-1.4-17.6-5-21-14c-3.6,18.5,13.1,33.4,23.3,30.8S163.9,157.8,155.4,156.4z"/>
<path class="st1" d="M159.2,144.1c-2.5-11.3-21.1-20.7-37.1-10.8c14.2-5.7,20.9,6.3,24.2,14.5C149.8,156,161.5,154.3,159.2,144.1z"
	/>
<path class="st1" d="M134.3,123.8c6.8,5.4,19-0.2,14.1-9.5s-27.1-11.8-38.5,3.3C118.8,114.2,127.5,118.5,134.3,123.8z"/>
<path class="st1" d="M83.7,130.4c18.8,0.7,30.3-16.6,26.9-27.7c-3.1-9.9-14.1-5.7-13,3.1S98.9,128.3,83.7,130.4z"/>
<path class="st1" d="M104.9,124.9c-4.6,7.3-11.3,14.2-21.1,14c15.7,10.4,35.9,0.8,37.4-9.6S109.4,117.6,104.9,124.9z"/>
<path class="st1" d="M96.5,148.7c9.6-0.4,16.5,6.5,21.1,13.7s17.9,6,16.4-4.4C132.5,147.6,112.1,138.1,96.5,148.7z"/>
<path class="st1" d="M154.7,189.1c8.9,0.2,11.9-11.3,1.6-13.2c-11.4-2.2-27.3,11.2-24.5,29.8C132.1,190.4,145.8,189,154.7,189.1z"/>
<path class="st1" d="M113.7,174c-8.6,0-14.7,11.9-5.1,16.2s28.5-7.7,28.1-26.5C131.8,172.1,122.3,174.1,113.7,174z"/>
<path class="st1" d="M107.4,197.3c-5.2-7.2-11.9-19.2,0.5-28.3c-16.9,8.4-18.6,29.1-10.3,37.2C105,213.5,112.6,204.5,107.4,197.3z"
	/>
<path class="st1" d="M129,200.8c0.3-10.4-11.5-9.9-13.3-1.2s-6.1,21.8-21.1,18.8C112.2,225.1,128.7,212.4,129,200.8z"/>
<path class="st1" d="M68.7,208.7c8.1-3.8,21.1-8.2,27.7,5.7c-5.1-18.1-25.2-23.8-34.6-17.1C53.2,203.4,60.7,212.5,68.7,208.7z"/>
<path class="st1" d="M91,190.3c-9.6-0.7-15.6-8.4-19.4-16.2s-17.2-8-16.8,2.5S74.3,199,91,190.3z"/>
<path class="st1" d="M48.1,145.3c-2.1-8.4-15.1-11.3-16.9-1s14.4,25.8,32.5,20.8C54.5,162.3,50.2,153.6,48.1,145.3z"/>
<path class="st1" d="M64.2,192.7C48.9,193.5,46.5,180,46,171.1s-12.1-11-13.4-0.6C31.3,182,45.9,196.9,64.2,192.7z"/>
<path class="st1" d="M36,120.2c-10.4-0.2-9.8,11.7-1,13.3s21.8,5.7,19.1,20.8C60.6,136.6,47.7,120.3,36,120.2z"/>
<path class="st1" d="M102.5,83.5c6.8-5.7,1.7-16.3-7.3-11.1c-10.1,5.7-13.6,26.2,0.7,38.6C86.1,99,95.6,89.2,102.5,83.5z"/>
<path class="st1" d="M67.7,148.5c10.3,1.9,12-11.4,4.8-16.2c-7.2-4.8-13.9-11.8-13.3-21.4C48.3,126.1,57.4,146.6,67.7,148.5z"/>
<path class="st1" d="M82.2,79.8C86.5,72,94.6,61,108.1,68.4C93.4,56.6,73.8,63.6,70,74.5C66.5,84.4,77.8,87.5,82.2,79.8z"/>
<path class="st1" d="M80,89.2C70.4,85,51.6,97.1,52.2,116c4.8-8.4,14.3-10.5,22.9-10.6S89.6,93.3,80,89.2z"/>
<path class="st1" d="M96.5,94.4c18.6,3.1,33.1-13.9,30.2-24s-15.5-5.8-16.7,2.7S105.4,90.9,96.5,94.4z"/>
<path class="st1" d="M122.4,87.6c9-3.5,17.7,0.9,24.5,6.2c6.8,5.3,19-0.2,14.1-9.5S133.8,72.6,122.4,87.6z"/>
<path class="st1" d="M123,104.9c7.9-4,20.8-8.8,27.9,4.8c-5.7-17.9-25.9-23-35.2-16C107.4,100,115,109,123,104.9z"/>
<path class="st1" d="M169.3,115.3c4.4,7.5,17.7,6.6,16.5-3.8s-21.1-20.7-37.1-10.7C158.5,100.7,165,107.9,169.3,115.3z"/>
<path class="st1" d="M166.8,113.9c-3.6,18.5,13.1,33.4,23.3,30.8s6.2-15.4-2.3-16.8C179.3,126.5,170.2,123,166.8,113.9z"/>
<path class="st1" d="M164.4,119.9c1.4-8.8-9.5-13.4-12.9-3.5c-3.7,11,7.2,28.7,26.1,28.5C162.5,142.5,163,128.8,164.4,119.9z"/>
<path class="st1" d="M196.5,159.9c-3.9-11-23.5-17.9-38.1-6c13.4-7.5,21.5,3.6,25.9,11.3C188.7,172.9,200,169.6,196.5,159.9z"/>
<path class="st1" d="M155.7,191.7c18.6-2.4,27.2-21.4,21.9-31.8c-4.7-9.3-14.8-3.3-12.3,5.2S170.4,187.1,155.7,191.7z"/>
<path class="st1" d="M169.5,188.4c-7.1,5-5,18.3,5.2,16.2s18.8-22.8,7.5-37.9C183.1,176.2,176.5,183.3,169.5,188.4z"/>
<path class="st1" d="M176.5,208c-11.2-3.3-28.3,8.5-27.3,27.3c1.8-15.2,15.5-15.3,24.4-14.4C182.4,222,186.4,211,176.5,208z"/>
<path class="st1" d="M161.7,201.8c0.4-10.4-11.4-10.1-13.3-1.4s-6.3,21.7-21.4,18.6C144.6,225.9,161.3,213.4,161.7,201.8z"/>
<path class="st1" d="M127.8,211.7c-4,14.8-17.6,13-26.2,10.7s-14.2,8.2-4.7,12.5C107.4,239.6,126.1,230.4,127.8,211.7z"/>
<path class="st1" d="M140.1,224.2c-10.4-1.6-25.6,14.8-20.3,32.9c2.6-9.3,11.2-13.7,19.6-15.9S150.5,225.8,140.1,224.2z"/>
<path class="st1" d="M88.1,217.3c0.9-8.6-10.5-15.8-15.6-6.5s5,29.1,23.8,30.5C88.5,235.5,87.3,225.9,88.1,217.3z"/>
<path class="st1" d="M95.7,242.7c-8.6-0.5-15.3,11.2-5.9,15.9c0.6,0.3,1.2,0.5,1.9,0.7v407.3L78.5,631l-3.7,1.4l16,43l0.9-0.3v21h4
	V259.6c9.9-0.5,23.1-10.7,23.5-26.2C113.9,241.5,104.3,243,95.7,242.7z"/>
<path class="st1" d="M75.4,250.4c9.9,3.4,13-7.9,5.2-12.3s-18.9-12.4-11.5-25.8C57.3,227,64.5,246.6,75.4,250.4z"/>
<path class="st1" d="M58.1,229.9c-1.2-8.5-13.9-12.9-16.7-2.7s11.7,27.2,30.2,24.1C62.7,247.6,59.3,238.5,58.1,229.9z"/>
<path class="st1" d="M37.5,207.9c8.5,1.9,17.2,5.9,20.2,15.1c4.5-18.3-11.3-34-21.7-32S29.1,206,37.5,207.9z"/>
<path class="st1" d="M9.7,199.6c15.3,0.9,16.2,14.6,15.8,23.5s10.8,12.3,13.1,2.2C41.2,213.9,28.4,197.5,9.7,199.6z"/>
<path class="st1" d="M30.1,190.6c2.6-9.9-12-26.2-30.1-22.7c8.8,3.3,12.3,12.1,13.7,20.4S27.5,200.6,30.1,190.6z"/>
<path class="st1" d="M30.9,169.9c-8.8-4-11.8-13.2-12.7-21.8s-13.3-13.4-16.6-3.4S12.3,172.3,30.9,169.9z"/>
<path class="st1" d="M31.1,152.2c-13.6-7.2-8.7-20-4.6-27.9s-4.7-15.7-11.1-7.4C8.4,126.1,13.2,146.3,31.1,152.2z"/>
<path class="st1" d="M39.9,96.3c-11.4-3.7-29.5,7.9-29.1,27.4c2.4-15.7,16.6-15.3,25.7-14S50.2,99.7,39.9,96.3z"/>
<path class="st1" d="M26.4,70.3c-0.3,1.8-0.9,3.5-1.9,5c1.8,0,4.5-4.7,4.5-4.7c1.6,0.7,3.3,1.3,5,1.8l1,1.2l4.8,6.3
	c-6.2,3.5-10.7,9.3-12.7,16.1c7.1-6.5,16.8-5.6,25-3s17.6-7,9.7-13.9c-3.3-3-9.2-3.6-15.3-1.9c-1.5-0.8-2.6-1.6-2.8-1.7
	c-0.3-0.3-0.2-1.9,0-2.9c3.8-0.8,7.8-2.5,9.8-6.1c3.4-6.2,1.9-8.5,2.2-11.4c0.4-1.3,0.9-2.5,1.6-3.7c0,0,2.5-0.5,3.4-0.8
	c-0.3-0.8-2.6-1.2-2.6-1.2s-0.5-4.1-7-4c-6.5,0.1-17,13.7-20,17.6C28.4,66.6,9,73.9,9.8,75.6C10.5,77,26.4,70.3,26.4,70.3z
	 M36.2,72.7c0.2,0,0.3,0.1,0.5,0.1c1.7,0.2,3.4,0.1,5.1-0.2c-0.2,0.7-0.4,1.4-0.5,2.1c0,0.4,2,1.5,4.2,2.5c-1.4,0.4-2.7,1-4,1.6
	c-0.4,0.1-0.8,0-1.1-0.2c-1.6-0.6-4.1-5.2-4.4-5.5C36.1,73.2,36.2,72.9,36.2,72.7z"/>
<path class="st2" d="M158.6,533.8c-3.2-1.8-6.6,1.8-3.3,4.5c3.7,3.1,12.3,1.4,15-6C167.1,537.8,161.8,535.7,158.6,533.8z"/>
<path class="st2" d="M183.1,534c4.4-0.5,3.4-6,0-7.1c-3.4-1.1-6.9-3-7.9-7C172.7,527.3,178.8,534.5,183.1,534z"/>
<path class="st2" d="M178.4,535.6c-3.2-1.9-7.8-5.4-4.5-10.9c-5.1,6-2.3,14.2,2.2,15.9C180.2,542.2,181.6,537.5,178.4,535.6z"/>
<path class="st2" d="M165.6,513c7.8,0.1,12.8-7.8,11-11.8s-6.8-1.4-6.7,2.2S169,511,165.6,513z"/>
<path class="st2" d="M162.7,518.7c-3.4-5.4,1.1-9,4.2-11s1.6-6.6-2.4-5C160,504.6,157.5,512.9,162.7,518.7z"/>
<path class="st2" d="M153.1,509.3c-3.5,2.7-2.9,12,4.1,15.6c-2.1-3.4-0.9-7.3,0.8-10.5C159.7,511.2,156.5,506.6,153.1,509.3z"/>
<path class="st2" d="M153.2,530.8c3.6-1.1,9.2-2.1,11.1,3.9c-1.1-7.8-9-11.3-13.3-9C147.1,527.7,149.7,531.9,153.2,530.8z"/>
<path class="st2" d="M161.1,519.4c-4.4,0.1-3.9,5.7-0.6,7c3.3,1.3,6.7,3.6,7.2,7.6C170.9,526.9,165.5,519.3,161.1,519.4z"/>
<path class="st2" d="M172,512.1c-4.2,1.4-6.6,10.4-1.2,16.1c-0.9-3.9,1.5-7.2,4.2-9.7S176.2,510.7,172,512.1z"/>
<path class="st2" d="M183.3,501.3c-0.6-3.6-5.5-4.1-5.6,0.3c-0.1,4.8,6.6,10.4,14,7.9C185.5,510.5,183.9,505,183.3,501.3z"/>
<path class="st2" d="M180.1,519.3c0.6,3.6,6,5.2,7,0.9c1-4.3-5.2-11.2-12.9-9.6C178,512,179.5,515.7,180.1,519.3z"/>
<path class="st2" d="M194.5,523.6c2.4-3.6-1.8-6.1-4.4-3.4s-7,6.3-11.7,1.8C183.1,528.4,191.8,527.6,194.5,523.6z"/>
<path class="st2" d="M199.7,524c1.5-7.7-4.9-13.6-9.7-12.9c-4.3,0.6-3.3,5.4,0.4,5.5C194.1,516.7,199.8,517.5,199.7,524z"/>
<path class="st2" d="M197.6,535.3c-2.1-3-4.9-8.1,0.3-11.8c-7.1,3.4-7.9,12-4.5,15.5C196.5,542,199.7,538.3,197.6,535.3z"/>
<path class="st2" d="M183.2,536.6c-2.9,2.1-2.1,7.6,2.2,6.7c4.3-0.9,7.8-9.6,3-15.9C188.8,531.4,186.1,534.5,183.2,536.6z"/>
<path class="st2" d="M180,540.5c-0.5,4-3.7,6.4-7,7.8s-3.6,7,0.8,7S183.4,547.6,180,540.5z"/>
<path class="st2" d="M184.4,552.8c4.8-0.3,9.9-7.3,6.9-14.6c1.4,6.3-3.9,8.2-7.5,9C180.1,548.2,180.1,553.1,184.4,552.8z"/>
<path class="st2" d="M163.5,555.1c0.7,4.3,5.5,3.2,5.5-0.5s0.8-9.4,7.2-9.3C168.5,543.8,162.7,550.3,163.5,555.1z"/>
<path class="st2" d="M139.6,534.2c3.1,3.7,11.8,3.7,15.8-3c-4.2,4.8-9,1.6-11.8-0.8S136.9,530.9,139.6,534.2z"/>
<path class="st2" d="M172.9,540c0-4.4-5.6-4.1-7-0.8s-3.9,6.6-7.8,7C165.1,549.6,172.9,544.4,172.9,540z"/>
<path class="st2" d="M143.6,539c-3.5-1.2-8.6-3.8-6.6-9.8c-3.8,6.9,0.5,14.4,5.3,15.2C146.6,545.1,147.1,540.2,143.6,539z"/>
<path class="st2" d="M160.6,548.7c-3.8-1.4-5.4-5.1-6-8.7s-6-5.1-7-0.9C146.6,543.5,152.9,550.4,160.6,548.7z"/>
<path class="st2" d="M138.9,528c3.6-0.1,7.6,0.6,9.7,4c0-7.8-8.1-12.6-12-10.7S135.3,528.2,138.9,528z"/>
<path class="st2" d="M144,521.9c-2.1-3.4-0.9-7.3,0.8-10.5c1.7-3.2-1.4-7.8-4.9-5.1S137,518.3,144,521.9z"/>
<path class="st2" d="M151,508.7c-7,3.6-7.6,12.3-4,15.6c3.2,3,6.3-0.9,4.1-3.8C148.9,517.6,145.9,512.5,151,508.7z"/>
<path class="st2" d="M151.9,500.6c2.7-2.3,1.5-7.8-2.7-6.5s-7,10.2-1.8,16C146.8,506.2,149.2,503,151.9,500.6z"/>
<path class="st2" d="M151.6,501.8c7.8,0.1,12.8-7.8,11-11.8s-6.8-1.4-6.7,2.2C155.8,495.8,155,499.7,151.6,501.8z"/>
<path class="st2" d="M154.2,502.3c-3.7,0-4.8,4.8-0.5,5.5c4.8,0.8,11.3-5.1,9.8-12.8C163.6,501.5,157.9,502.3,154.2,502.3z"/>
<path class="st2" d="M168.6,502.4c-4-5-0.1-9.1,2.8-11.5s0.7-6.8-3-4.6C164.1,488.6,162.6,497.2,168.6,502.4z"/>
<path class="st2" d="M169.6,494c-3.5,2.6-0.3,6.3,3,4.7s8.7-3.6,11.6,2.1C182,493.2,173.5,491.1,169.6,494z"/>
<path class="st2" d="M181.9,495.3c2.6,2.5,7.8,0.8,6.3-3.3s-10.7-6.1-16.1-0.4C176,490.6,179.4,492.8,181.9,495.3z"/>
<path class="st2" d="M202.7,500.3c-6.4,0.3-7.4-5.3-7.6-9s-5.1-4.6-5.6-0.3C189,495.9,195.1,502.1,202.7,500.3z"/>
<path class="st2" d="M188.4,503.1c3.7,0.1,9.3,1,9.2,7.4c1.6-7.7-4.8-13.6-9.6-13C183.7,498.2,184.7,503,188.4,503.1z"/>
<path class="st2" d="M194.5,510.8c6.4,0.6,6.6,6.3,6.3,10s4.4,5.3,5.5,1C207.5,517.1,202.3,510.1,194.5,510.8z"/>
<path class="st2" d="M198.8,504.8c0.1,4.4,7.9,9.5,15,6c-4-0.4-6.4-3.6-8-6.9S198.7,500.4,198.8,504.8z"/>
<path class="st2" d="M199.7,526.7c-3.6,0.3-5.7,5.4-1.6,6.9s11.6-4.2,10.8-12C207.2,525.2,203.3,526.4,199.7,526.7z"/>
<path class="st2" d="M204.1,512.8c3.7,1.6,5,5.4,5.5,9s5.7,5.5,6.9,1.3S211.8,511.6,204.1,512.8z"/>
<path class="st2" d="M214.2,529.5c0.7-4.3-4.2-4.8-5.4-1.2s-3.7,8.7-9.8,6.6C205.9,538.6,213.4,534.3,214.2,529.5z"/>
<path class="st2" d="M207,538.1c-3.4,1.1-4.3,6.6,0.1,7.1s10.3-6.7,7.7-14.1C213.9,535,210.5,537,207,538.1z"/>
<path class="st2" d="M199.5,548.2c0.2-3.6,1.2-7.5,4.8-9.4c-7.8-0.6-13.2,7.1-11.6,11.2C194.3,554.1,199.3,551.8,199.5,548.2z"/>
<path class="st2" d="M206.5,546.5c-4.8-0.3-10.7,6.2-8.4,13.7c-0.7-6.3,4.8-7.7,8.5-8.1C210.3,551.7,210.9,546.7,206.5,546.5z"/>
<path class="st2" d="M192.9,552.4c-4.3-0.3-9.9,6.8-7.2,14c0.7-3.9,4.1-5.9,7.4-7.1S197.2,552.8,192.9,552.4z"/>
<path class="st2" d="M176.3,560.4c-2.6,0.7-3.9,4.1-2.4,5.9V696h2.3V567.4c4.3,0.6,10.5-6.3,8.2-13.8
	C183.3,557.5,179.8,559.4,176.3,560.4z"/>
<path class="st2" d="M163.6,563.8c4.3,2.2,12.3-1.2,13.4-9c-2,6.1-7.6,5-11.1,3.9S159.8,561.7,163.6,563.8z"/>
<path class="st2" d="M159.2,555.6c-0.1-3.9-5.1-4.9-5.7-0.4c-0.7,5,5.4,11.6,13.4,10C160.2,565.3,159.3,559.4,159.2,555.6z"/>
<path class="st2" d="M151.1,550.4c0.5-3.6-4.2-6.7-6.4-3c-2.2,3.7,1.6,12.2,9.5,13C151,558,150.7,553.9,151.1,550.4z"/>
<path class="st3" d="M329.4,602.7c-3.2-1.8-6.6,1.7-3.2,4.5c3.7,3,12.2,1.4,14.8-6C337.8,606.7,332.5,604.6,329.4,602.7z"/>
<path class="st3" d="M353.6,602.9c4.3-0.5,3.4-6,0-7s-6.9-3-7.8-6.9C343.3,596.4,349.3,603.4,353.6,602.9z"/>
<path class="st3" d="M346.7,609.5c4,1.5,5.5-3.2,2.3-5s-7.6-5.3-4.5-10.8C339.5,599.6,342.2,607.8,346.7,609.5z"/>
<path class="st3" d="M336.3,582.2c7.8,0.1,12.7-7.7,10.9-11.7s-6.7-1.4-6.7,2.2S339.7,580.2,336.3,582.2z"/>
<path class="st3" d="M333.5,587.8c-3.3-5.4,1.1-8.9,4.2-10.9s1.6-6.6-2.4-5C330.7,573.8,328.3,582,333.5,587.8z"/>
<path class="st3" d="M323.9,578.5c-3.5,2.7-2.9,11.9,4,15.4c-2.1-3.4-0.9-7.3,0.8-10.4S327.3,575.8,323.9,578.5z"/>
<path class="st3" d="M324,599.7c3.5-1.1,9.1-2.2,11,3.9c-1.1-7.7-8.9-11.2-13.2-8.9C318,596.7,320.5,600.8,324,599.7z"/>
<path class="st3" d="M331.9,588.4c-4.3,0.1-3.9,5.6-0.6,7s6.6,3.6,7.2,7.6C341.5,595.9,336.2,588.4,331.9,588.4z"/>
<path class="st3" d="M342.7,581.2c-4.1,1.4-6.6,10.3-1.2,15.9c-0.9-3.9,1.4-7.2,4.1-9.6S346.8,579.9,342.7,581.2z"/>
<path class="st3" d="M353.8,570.6c-0.6-3.6-5.5-4-5.5,0.3c-0.1,4.8,6.5,10.3,13.9,7.8C355.9,579.7,354.4,574.2,353.8,570.6z"/>
<path class="st3" d="M350.6,588.4c0.6,3.5,5.9,5.1,6.9,0.9s-5.2-11.1-12.8-9.6C348.5,581.1,350,584.8,350.6,588.4z"/>
<path class="st3" d="M364.9,592.6c2.4-3.5-1.8-6-4.3-3.4s-6.9,6.2-11.5,1.9C353.6,597.4,362.2,596.6,364.9,592.6z"/>
<path class="st3" d="M370,593c1.5-7.6-4.8-13.5-9.6-12.7c-4.2,0.6-3.2,5.4,0.4,5.5S370.2,586.6,370,593z"/>
<path class="st3" d="M368,604.2c-2.1-3-4.8-8,0.4-11.7c-7,3.4-7.8,12-4.5,15.3C366.9,610.9,370,607.2,368,604.2z"/>
<path class="st3" d="M353.7,605.4c-2.9,2.1-2,7.6,2.2,6.6s7.7-9.5,3-15.7C359.2,600.4,356.6,603.3,353.7,605.4z"/>
<path class="st3" d="M344.3,624.1c4.3,0,9.5-7.7,6.2-14.7c-0.4,4-3.7,6.3-7,7.8C340.3,618.5,340,624.1,344.3,624.1z"/>
<path class="st3" d="M354.9,621.6c4.8-0.3,9.8-7.3,6.8-14.4c1.4,6.2-3.9,8.1-7.5,9S350.7,621.9,354.9,621.6z"/>
<path class="st3" d="M339.7,623.2c0.1-3.7,0.8-9.3,7.1-9.3c-7.6-1.4-13.4,5-12.6,9.8C334.9,628,339.7,626.9,339.7,623.2z"/>
<path class="st3" d="M310.6,603.1c3,3.7,11.7,3.7,15.7-3c-4.2,4.8-8.9,1.7-11.7-0.7S307.8,599.8,310.6,603.1z"/>
<path class="st3" d="M343.5,608.9c0-4.3-5.5-4-7-0.8s-3.8,6.5-7.8,6.9C335.8,618.3,343.5,613.2,343.5,608.9z"/>
<path class="st3" d="M314.5,607.9c-3.5-1.2-8.6-3.7-6.5-9.7c-3.7,6.8,0.5,14.3,5.2,15C317.5,613.9,318,609.1,314.5,607.9z"/>
<path class="st3" d="M331.4,617.5c-3.7-1.4-5.3-5-5.9-8.6s-6-5.1-7-0.9S323.7,619.1,331.4,617.5z"/>
<path class="st3" d="M309.8,597c3.5-0.1,7.5,0.6,9.6,4c-0.1-7.8-8-12.5-12-10.6C303.7,592.3,306.3,597.2,309.8,597z"/>
<path class="st3" d="M314.9,591c-2.1-3.4-0.9-7.3,0.8-10.4s-1.4-7.7-4.8-5C307.3,578.1,307.9,587.4,314.9,591z"/>
<path class="st3" d="M321.8,577.8c-6.9,3.6-7.5,12.2-4,15.5c3.2,3,6.2-0.9,4-3.7C319.6,586.6,316.8,581.7,321.8,577.8z"/>
<path class="st3" d="M322.8,569.9c2.7-2.3,1.4-7.7-2.7-6.5s-6.9,10.1-1.7,15.8C317.6,575.3,320.1,572.2,322.8,569.9z"/>
<path class="st3" d="M322.4,571c7.8,0.1,12.7-7.7,10.9-11.7s-6.7-1.4-6.7,2.2S325.8,569,322.4,571z"/>
<path class="st3" d="M325,571.6c-3.7,0.1-4.8,4.8-0.5,5.5c4.8,0.7,11.2-5,9.7-12.7C334.3,570.7,328.7,571.5,325,571.6z"/>
<path class="st3" d="M339.2,571.6c-4-4.9-0.1-9,2.7-11.4s0.7-6.7-3-4.6C334.8,558.1,333.3,566.5,339.2,571.6z"/>
<path class="st3" d="M340.3,563.3c-3.5,2.6-0.3,6.3,3,4.6s8.6-3.6,11.5,2C352.5,562.6,344.1,560.4,340.3,563.3z"/>
<path class="st3" d="M352.5,564.6c2.5,2.5,7.8,0.8,6.2-3.2s-10.6-6-16-0.4C346.6,560,350,562.1,352.5,564.6z"/>
<path class="st3" d="M373.1,569.5c-6.3,0.4-7.3-5.3-7.6-8.9s-5-4.5-5.5-0.3C359.5,565.2,365.5,571.3,373.1,569.5z"/>
<path class="st3" d="M358.9,572.3c3.7,0.1,9.3,1,9.1,7.3c1.6-7.6-4.7-13.5-9.4-12.8C354.2,567.4,355.2,572.2,358.9,572.3z"/>
<path class="st3" d="M364.9,579.9c6.3,0.6,6.6,6.2,6.3,9.9s4.3,5.2,5.4,1C377.7,586.2,372.7,579.3,364.9,579.9z"/>
<path class="st3" d="M369.2,574c0.1,4.3,7.8,9.4,14.8,5.9c-4-0.4-6.4-3.6-7.8-6.8C374.6,569.9,369.1,569.7,369.2,574z"/>
<path class="st3" d="M370,595.7c-3.5,0.3-5.7,5.4-1.6,6.8s11.5-4.1,10.7-11.9C377.5,594.3,373.6,595.4,370,595.7z"/>
<path class="st3" d="M374.4,581.9c3.7,1.6,5,5.3,5.4,8.9s5.6,5.4,6.9,1.2S382.1,580.7,374.4,581.9z"/>
<path class="st3" d="M384.4,598.5c0.7-4.2-4.2-4.7-5.4-1.2s-3.7,8.6-9.7,6.6C376.2,607.5,383.6,603.2,384.4,598.5z"/>
<path class="st3" d="M377.3,607c-3.4,1.1-4.2,6.6,0.1,7s10.2-6.7,7.6-14C384.2,603.9,380.7,605.9,377.3,607z"/>
<path class="st3" d="M369.8,617c0.1-3.5,1.2-7.4,4.7-9.3c-7.8-0.6-13,7.1-11.4,11.1S369.7,620.5,369.8,617z"/>
<path class="st3" d="M376.8,615.2c-4.8-0.3-10.6,6.1-8.4,13.6c-0.7-6.3,4.8-7.6,8.4-8.1C380.6,620.3,381.1,615.4,376.8,615.2z"/>
<path class="st3" d="M363.3,621.2c-4.2-0.3-9.8,6.8-7.1,13.8c0.7-3.8,4-5.9,7.3-7.1C366.9,626.9,367.6,621.5,363.3,621.2z"/>
<path class="st3" d="M346.9,629.1L346.9,629.1v-0.9h-1c0.9-1.4,1.5-3,1.7-4.7c-1.9,6-7.6,5-11,3.8s-6,3-2.2,5
	c2.6,1.4,6.6,0.6,9.5-1.9V696h3v-60c4.3,0.4,10.3-6.4,8-13.8C353.8,626.2,350.3,628,346.9,629.1z"/>
<path class="st3" d="M329.9,624.3c-0.1-3.8-5-4.8-5.7-0.4c-0.7,4.9,5.3,11.4,13.2,9.9C330.9,633.9,330.1,628.1,329.9,624.3z"/>
<path class="st3" d="M321.9,619.1c0.5-3.5-4.1-6.6-6.3-3s1.7,12.1,9.4,12.9C321.8,626.7,321.5,622.6,321.9,619.1z"/>
<path class="st2" d="M638.6,581.8c-2.5-1.4-5,1.3-2.5,3.4c2.8,2.4,9.3,1,11.4-4.6C645.1,584.9,641,583.2,638.6,581.8z"/>
<path class="st2" d="M657.3,581.9c3.3-0.4,2.6-4.6,0-5.4s-5.3-2.4-6-5.3C649.4,576.9,654,582.3,657.3,581.9z"/>
<path class="st2" d="M653.7,583.2c-2.4-1.4-5.9-4.1-3.4-8.3c-3.9,4.6-1.8,10.9,1.7,12.2C655.1,588.2,656.2,584.6,653.7,583.2z"/>
<path class="st2" d="M643.9,566c6,0.1,9.8-6,8.4-9s-5.1-1.1-5.1,1.7C647.2,561.3,646.6,564.4,643.9,566z"/>
<path class="st2" d="M641.7,570.3c-2.6-4.2,0.8-6.9,3.2-8.4s1.2-5.1-1.9-3.8C639.7,559.5,637.8,565.8,641.7,570.3z"/>
<path class="st2" d="M634.4,563.1c-2.7,2-2.2,9.2,3.1,11.9c-1.6-2.6-0.7-5.6,0.6-8S637.1,561.1,634.4,563.1z"/>
<path class="st2" d="M634.5,579.5c2.7-0.9,7-1.7,8.5,3c-0.8-6-6.9-8.6-10.2-6.9C629.8,577.2,631.7,580.4,634.5,579.5z"/>
<path class="st2" d="M640.5,570.8c-3.3,0.1-3,4.3-0.4,5.4s5.1,2.8,5.5,5.8C648,576.5,643.9,570.7,640.5,570.8z"/>
<path class="st2" d="M648.9,565.3c-3.2,1.1-5,7.9-0.9,12.3c-0.6-3,1.1-5.5,3.2-7.4S652,564.2,648.9,565.3z"/>
<path class="st2" d="M657.5,557.1c-0.4-2.8-4.2-3.1-4.2,0.2c-0.1,3.7,5,7.9,10.7,6.1C659.1,564,657.9,559.8,657.5,557.1z"/>
<path class="st2" d="M655,570.7c0.5,2.7,4.6,4,5.4,0.7s-4-8.5-9.9-7.3C653.4,565.2,654.5,568,655,570.7z"/>
<path class="st2" d="M666,574.1c1.9-2.7-1.4-4.7-3.4-2.6s-5.4,4.8-8.9,1.4C657.3,577.7,663.9,577.1,666,574.1z"/>
<path class="st2" d="M670,574.3c1.1-5.9-3.8-10.4-7.4-9.8c-3.3,0.5-2.5,4.1,0.3,4.2S670,569.4,670,574.3z"/>
<path class="st2" d="M668.4,583c-1.6-2.3-3.7-6.2,0.3-9c-5.4,2.6-6.1,9.2-3.4,11.8C667.5,588.1,670,585.3,668.4,583z"/>
<path class="st2" d="M657.4,583.9c-2.3,1.6-1.6,5.8,1.7,5.1s5.9-7.3,2.3-12.1C661.7,580,659.6,582.3,657.4,583.9z"/>
<path class="st2" d="M654.9,586.9c-0.3,3.1-2.8,4.9-5.4,6s-2.7,5.4,0.6,5.4S657.5,592.3,654.9,586.9z"/>
<path class="st2" d="M658.4,596.4c3.7-0.2,7.6-5.6,5.3-11.2c1.1,4.8-3,6.3-5.8,6.9S655,596.5,658.4,596.4z"/>
<path class="st2" d="M642.4,598c0.5,3.3,4.2,2.4,4.2-0.4s0.6-7.2,5.5-7.1C646.2,589.5,641.8,594.4,642.4,598z"/>
<path class="st2" d="M624.1,582.2c2.4,2.8,9,2.8,12.1-2.4c-3.2,3.7-6.8,1.2-9-0.6S622,579.6,624.1,582.2z"/>
<path class="st2" d="M649.5,586.6c0-3.3-4.2-3.1-5.4-0.6s-3,5-6,5.4C643.6,593.9,649.5,589.9,649.5,586.6z"/>
<path class="st2" d="M627.1,585.8c-2.7-1-6.6-2.9-5-7.5c-2.9,5.3,0.4,11,4,11.6C629.4,590.5,629.8,586.7,627.1,585.8z"/>
<path class="st2" d="M640.2,593.2c-2.9-1.1-4.1-3.9-4.6-6.6s-4.6-3.9-5.4-0.6S634.3,594.4,640.2,593.2z"/>
<path class="st2" d="M623.5,577.4c2.7-0.1,5.8,0.5,7.4,3.1c-0.1-6-6.2-9.6-9.2-8.2S620.8,577.5,623.5,577.4z"/>
<path class="st2" d="M627.4,572.7c-1.6-2.6-0.7-5.6,0.6-8s-1.1-6-3.8-3.9S622.1,570,627.4,572.7z"/>
<path class="st2" d="M632.8,562.6c-5.3,2.8-5.8,9.4-3.1,11.9c2.4,2.3,4.8-0.6,3.1-2.9S628.9,565.6,632.8,562.6z"/>
<path class="st2" d="M633.5,556.5c2.1-1.8,1.1-6-2.1-5s-5.3,7.8-1.3,12.2C629.5,560.7,631.4,558.2,633.5,556.5z"/>
<path class="st2" d="M633.3,557.4c6,0.1,9.8-6,8.4-9s-5.1-1.1-5.1,1.7S635.9,555.8,633.3,557.4z"/>
<path class="st2" d="M635.2,557.8c-2.8,0.1-3.6,3.7-0.4,4.2c3.6,0.6,8.6-3.9,7.5-9.8C642.4,557.2,638.1,557.7,635.2,557.8z"/>
<path class="st2" d="M646.2,557.8c-3.1-3.8-0.1-7,2.1-8.7s0.5-5.2-2.4-3.5C642.8,547.3,641.7,553.9,646.2,557.8z"/>
<path class="st2" d="M647,551.4c-2.7,2-0.2,4.8,2.3,3.5c2.5-1.3,6.7-2.8,8.9,1.6C656.5,550.8,650,549.2,647,551.4z"/>
<path class="st2" d="M656.4,552.4c1.9,1.9,6,0.6,4.8-2.5c-1.2-3.1-8.2-4.7-12.3-0.3C651.9,548.8,654.5,550.5,656.4,552.4z"/>
<path class="st2" d="M672.3,556.2c-4.9,0.3-5.7-4-5.8-6.9c-0.1-2.9-3.9-3.5-4.2-0.2C661.8,552.9,666.5,557.6,672.3,556.2z"/>
<path class="st2" d="M661.4,558.4c2.8,0.1,7.1,0.8,7,5.7c1.2-5.9-3.6-10.4-7.3-9.9C657.8,554.6,658.6,558.3,661.4,558.4z"/>
<path class="st2" d="M666,564.2c4.9,0.4,5,4.8,4.8,7.6s3.3,4,4.2,0.8C676,569.1,672,563.8,666,564.2z"/>
<path class="st2" d="M669.3,559.7c0.1,3.3,6.1,7.2,11.4,4.6c-3.1-0.3-4.9-2.8-6.1-5.3S669.2,556.4,669.3,559.7z"/>
<path class="st2" d="M670,576.4c-2.7,0.2-4.3,4.2-1.2,5.3s8.9-3.2,8.3-9.2C675.7,575.3,672.7,576.1,670,576.4z"/>
<path class="st2" d="M673.4,565.7c2.8,1.2,3.9,4.1,4.2,6.9s4.3,4.2,5.3,1S679.3,564.9,673.4,565.7z"/>
<path class="st2" d="M681.1,578.5c0.5-3.3-3.2-3.6-4.1-1s-2.8,6.6-7.5,5C674.8,585.5,680.5,582.2,681.1,578.5z"/>
<path class="st2" d="M675.6,585.1c-2.6,0.9-3.3,5,0.1,5.4s7.9-5.1,5.9-10.8C680.9,582.7,678.2,584.2,675.6,585.1z"/>
<path class="st2" d="M669.8,592.8c0.1-2.7,0.9-5.7,3.6-7.2c-6-0.4-10.1,5.4-8.9,8.5S669.7,595.5,669.8,592.8z"/>
<path class="st2" d="M675.2,591.5c-3.7-0.2-8.2,4.7-6.4,10.5c-0.5-4.9,3.7-5.9,6.5-6.2S678.5,591.7,675.2,591.5z"/>
<path class="st2" d="M664.8,596.1c-3.3-0.3-7.6,5.2-5.5,10.7c0.6-3,3.1-4.5,5.7-5.4S668.1,596.3,664.8,596.1z"/>
<path class="st2" d="M652.1,602.1c-2,0.6-3,3.1-1.9,4.5V696h1.7v-88.5c3.3,0.4,8-4.9,6.3-10.6C657.5,599.9,654.8,601.4,652.1,602.1z
	"/>
<path class="st2" d="M642.5,604.7c3.3,1.7,9.4-0.9,10.2-6.9c-1.5,4.7-5.8,3.8-8.5,3S639.5,603.2,642.5,604.7z"/>
<path class="st2" d="M639,598.5c-0.1-3-3.9-3.8-4.4-0.3c-0.5,3.8,4.1,8.9,10.2,7.6C639.8,605.9,639.2,601.4,639,598.5z"/>
<path class="st2" d="M632.9,594.5c0.4-2.7-3.2-5.1-4.9-2.3s1.2,9.3,7.2,10C632.8,600.3,632.6,597.2,632.9,594.5z"/>
<path class="st3" d="M786.1,535.5c-3.4-1.9-6.9,1.9-3.4,4.7c3.9,3.2,12.8,1.4,15.7-6.3C795,539.7,789.5,537.4,786.1,535.5z"/>
<path class="st3" d="M811.8,535.6c4.6-0.5,3.6-6.3,0-7.4s-7.3-3.2-8.2-7.3C800.9,528.7,807.3,536.1,811.8,535.6z"/>
<path class="st3" d="M804.5,542.6c4.3,1.6,5.7-3.3,2.4-5.3s-8.1-5.6-4.7-11.4C796.8,532.2,799.7,540.8,804.5,542.6z"/>
<path class="st3" d="M793.4,513.7c8.2,0.2,13.4-8.2,11.5-12.4s-7.1-1.5-7,2.3S797,511.5,793.4,513.7z"/>
<path class="st3" d="M790.5,519.7c-3.5-5.7,1.1-9.5,4.4-11.5s1.7-7-2.6-5.3C787.6,504.8,785,513.5,790.5,519.7z"/>
<path class="st3" d="M780.3,509.8c-3.6,2.8-3,12.6,4.3,16.3c-2.2-3.6-1-7.7,0.8-11S784,507,780.3,509.8z"/>
<path class="st3" d="M780.5,532.3c3.7-1.2,9.6-2.3,11.6,4.1c-1.1-8.2-9.5-11.8-14-9.5C774.1,529.1,776.8,533.5,780.5,532.3z"/>
<path class="st3" d="M788.8,520.4c-4.6,0.1-4.1,6-0.6,7.4s7,3.8,7.6,8C799,528.2,793.4,520.2,788.8,520.4z"/>
<path class="st3" d="M800.2,512.7c-4.3,1.5-6.9,10.9-1.2,16.8c-0.9-4.1,1.6-7.6,4.3-10.1S804.5,511.2,800.2,512.7z"/>
<path class="st3" d="M812,501.4c-0.6-3.8-5.7-4.3-5.8,0.3c-0.1,5.1,6.9,10.9,14.7,8.3C814.3,511,812.6,505.3,812,501.4z"/>
<path class="st3" d="M808.6,520.2c0.6,3.7,6.2,5.4,7.3,1s-5.4-11.7-13.5-10.1C806.4,512.6,808,516.5,808.6,520.2z"/>
<path class="st3" d="M823.7,524.8c2.6-3.8-1.9-6.4-4.6-3.6c-2.7,2.8-7.3,6.6-12.2,1.9C811.8,529.8,820.9,529,823.7,524.8z"/>
<path class="st3" d="M829.2,525.1c1.6-8.1-5.1-14.2-10.2-13.5c-4.5,0.7-3.4,5.7,0.5,5.8S829.3,518.4,829.2,525.1z"/>
<path class="st3" d="M826.9,537c-2.2-3.2-5.1-8.4,0.3-12.4c-7.4,3.6-8.3,12.6-4.7,16.2C825.8,544,829.2,540.2,826.9,537z"/>
<path class="st3" d="M811.9,538.3c-3.1,2.2-2.2,8,2.3,7s8.1-10.1,3.1-16.6C817.8,533,814.9,536.1,811.9,538.3z"/>
<path class="st3" d="M802,558c4.6,0,10-8.1,6.5-15.6c-0.5,4.2-3.9,6.7-7.3,8.2S797.4,558,802,558z"/>
<path class="st3" d="M813.2,555.4c5.1-0.3,10.4-7.7,7.2-15.3c1.5,6.5-4.1,8.6-7.9,9.5S808.6,555.7,813.2,555.4z"/>
<path class="st3" d="M797.1,557.1c0-3.9,0.8-9.8,7.5-9.8c-8.1-1.4-14.1,5.3-13.3,10.4C792,562.2,797,561,797.1,557.1z"/>
<path class="st3" d="M766.3,535.9c3.3,3.9,12.3,3.9,16.6-3.2c-4.4,5.1-9.4,1.7-12.3-0.8C767.5,529.4,763.3,532.4,766.3,535.9z"/>
<path class="st3" d="M801.1,541.9c0-4.6-5.8-4.3-7.4-0.8s-4,6.9-8.2,7.3C792.9,551.9,801.1,546.5,801.1,541.9z"/>
<path class="st3" d="M770.4,540.9c-3.7-1.3-9-3.9-6.8-10.3c-4,7.2,0.5,15.1,5.5,16C773.6,547.3,774.1,542.2,770.4,540.9z"/>
<path class="st3" d="M788.3,551.1c-4-1.4-5.6-5.4-6.3-9.1s-6.3-5.4-7.3-0.9S780.2,552.8,788.3,551.1z"/>
<path class="st3" d="M765.5,529.4c3.8-0.1,7.9,0.6,10.2,4.2c0-8.2-8.5-13.2-12.6-11.2S761.7,529.5,765.5,529.4z"/>
<path class="st3" d="M770.8,523c-2.2-3.6-1-7.7,0.8-11s-1.5-8.1-5.1-5.3S763.5,519.2,770.8,523z"/>
<path class="st3" d="M778.2,509.1c-7.3,3.8-7.9,12.9-4.2,16.3c3.3,3.1,6.6-0.9,4.2-4C775.8,518.3,772.8,513.2,778.2,509.1z"/>
<path class="st3" d="M779.2,500.7c2.9-2.5,1.5-8.1-2.9-6.8s-7.3,10.7-1.8,16.8C773.7,506.5,776.3,503.1,779.2,500.7z"/>
<path class="st3" d="M778.8,501.9c8.2,0.2,13.4-8.2,11.5-12.4s-7.1-1.5-7,2.3C783.2,495.6,782.4,499.8,778.8,501.9z"/>
<path class="st3" d="M781.5,502.5c-3.9,0.1-5,5.1-0.5,5.8c5,0.8,11.8-5.3,10.3-13.4C791.4,501.6,785.4,502.4,781.5,502.5z"/>
<path class="st3" d="M796.6,502.5c-4.2-5.2-0.1-9.5,2.9-12s0.8-7.1-3.2-4.9C791.9,488.2,790.3,497.1,796.6,502.5z"/>
<path class="st3" d="M797.7,493.8c-3.7,2.7-0.3,6.7,3.2,4.9s9.1-3.8,12.2,2.2C810.6,493,801.8,490.7,797.7,493.8z"/>
<path class="st3" d="M810.6,495.2c2.7,2.6,8.2,0.8,6.5-3.5s-11.2-6.4-16.9-0.4C804.3,490.2,807.9,492.5,810.6,495.2z"/>
<path class="st3" d="M832.3,500.3c-6.7,0.4-7.8-5.5-8-9.4s-5.3-4.8-5.8-0.3C818,495.7,824.3,502.2,832.3,500.3z"/>
<path class="st3" d="M817.4,503.3c3.9,0.2,9.8,1.1,9.6,7.8c1.7-8.1-5-14.3-10-13.6C812.5,498.1,813.5,503.1,817.4,503.3z"/>
<path class="st3" d="M823.8,511.3c6.7,0.6,6.9,6.6,6.6,10.4c-0.3,3.8,4.6,5.5,5.7,1.1C837.3,518,832,510.7,823.8,511.3z"/>
<path class="st3" d="M828.2,505.1c0.1,4.6,8.3,9.9,15.7,6.3c-4.2-0.4-6.8-3.8-8.3-7.2S828.2,500.5,828.2,505.1z"/>
<path class="st3" d="M829.2,528c-3.7,0.3-6,5.7-1.6,7.2s12.1-4.3,11.3-12.6C837,526.5,833,527.7,829.2,528z"/>
<path class="st3" d="M833.8,513.4c3.9,1.7,5.3,5.7,5.7,9.4s6,5.7,7.3,1.3S841.9,512.2,833.8,513.4z"/>
<path class="st3" d="M844.4,530.9c0.7-4.5-4.4-5-5.7-1.3c-1.3,3.7-3.9,9.1-10.2,6.9C835.7,540.5,843.6,536,844.4,530.9z"/>
<path class="st3" d="M836.9,540c-3.6,1.2-4.5,7,0.1,7.4c4.6,0.4,10.8-7.1,8.1-14.8C844.1,536.6,840.5,538.8,836.9,540z"/>
<path class="st3" d="M828.9,550.5c0.2-3.8,1.2-7.9,5-9.8c-8.2-0.6-13.8,7.4-12.1,11.7S828.8,554.3,828.9,550.5z"/>
<path class="st3" d="M836.3,548.7c-5.1-0.3-11.2,6.5-8.8,14.4c-0.8-6.7,5.1-8.1,8.9-8.5C840.3,554,840.9,548.9,836.3,548.7z"/>
<path class="st3" d="M822.1,555c-4.5-0.3-10.4,7.1-7.5,14.7c0.8-4,4.3-6.2,7.8-7.4S826.6,555.3,822.1,555z"/>
<path class="st3" d="M804.6,563.3L804.6,563.3v-0.9h-1c1-1.5,1.6-3.2,1.9-4.9c-2.1,6.4-8,5.3-11.7,4.1s-6.4,3.2-2.3,5.3
	c2.8,1.4,7,0.6,10.1-2v130.9h3.1v-125c4.5,0.5,10.9-6.8,8.5-14.5C812,560.3,808.3,562.3,804.6,563.3z"/>
<path class="st3" d="M786.7,558.3c-0.1-4-5.3-5.1-6-0.5c-0.8,5.2,5.6,12.1,14,10.4C787.8,568.4,786.9,562.3,786.7,558.3z"/>
<path class="st3" d="M778.3,552.8c0.5-3.7-4.3-7-6.7-3.1c-2.4,3.9,1.7,12.8,9.9,13.7C778.2,560.8,777.8,556.5,778.3,552.8z"/>
<path class="st2" d="M859.3,191.9c-8.7,7.4-8.1,27.8,7.9,37.1c-11.7-9.6-4.3-21,1.2-27.7S867.1,185.3,859.3,191.9z"/>
<path class="st2" d="M874.5,261c3.9-7.6,10-14.9,19.4-15.4c-16.2-8.9-35.2,2.2-35.8,12.5C857.4,268.4,870.8,268.6,874.5,261z"/>
<path class="st2" d="M845.6,239.2c-5.2,8.9,5.1,14.1,10.8,7.4s15.5-15.8,27.1-6.1C871.5,226.4,851.5,229.4,845.6,239.2z"/>
<path class="st2" d="M934.4,239.7c-8.3-1.3-17.2-5-20.6-13.8c-3.4,18.2,12.9,32.8,22.8,30.3C946.6,253.7,942.9,241.1,934.4,239.7z"
	/>
<path class="st2" d="M938.2,227.6c-2.4-11.1-20.7-20.4-36.4-10.6c14-5.6,20.5,6.2,23.8,14.2C928.9,239.4,940.4,237.6,938.2,227.6z"
	/>
<path class="st2" d="M913.8,207.8c6.5,5.3,18.5-0.1,13.9-9.3s-26.6-11.5-37.8,3.2C898.6,198.2,907.1,202.4,913.8,207.8z"/>
<path class="st2" d="M864,214.2c18.5,0.7,29.7-16.3,26.4-27.3c-3-9.8-13.9-5.6-12.8,3.1S878.9,212.1,864,214.2z"/>
<path class="st2" d="M884.7,208.9c-4.4,7.2-11.2,14-20.6,13.8c15.4,10.2,35.3,0.8,36.7-9.5S889.3,201.7,884.7,208.9z"/>
<path class="st2" d="M876.6,232.1c9.5-0.4,16.2,6.4,20.7,13.5s17.6,5.9,16.1-4.3S892,221.8,876.6,232.1z"/>
<path class="st2" d="M933.8,271.9c8.8,0.1,11.7-11.1,1.6-13c-11.2-2.1-26.8,11-24.1,29.3C911.6,273.1,925,271.8,933.8,271.9z"/>
<path class="st2" d="M893.5,257c-8.5,0-14.4,11.6-5,15.9c9.4,4.2,28-7.5,27.6-26.1C911.4,255.1,901.9,257,893.5,257z"/>
<path class="st2" d="M887.3,279.9c-5.1-7.1-11.8-18.9,0.4-27.7c-16.5,8.2-18.3,28.6-10.1,36.6C884.8,295.8,892.4,287.1,887.3,279.9z
	"/>
<path class="st2" d="M908.5,283.3c0.2-10.2-11.3-9.8-13.1-1.2s-5.9,21.3-20.7,18.4C892.1,307.2,908.2,294.7,908.5,283.3z"/>
<path class="st2" d="M849.2,291.1c7.9-3.7,20.7-8,27.2,5.5c-5-17.8-24.7-23.3-34.1-16.8C834,285.9,841.4,294.9,849.2,291.1z"/>
<path class="st2" d="M871.2,273.1c-9.4-0.8-15.3-8.2-19.1-15.9c-3.8-7.7-16.9-7.9-16.4,2.6C836,270,854.8,281.5,871.2,273.1z"/>
<path class="st2" d="M829,228.7c-2-8.2-14.9-11.2-16.6-1s14.1,25.4,32,20.5C835.3,245.5,831,237,829,228.7z"/>
<path class="st2" d="M844.9,275.3c-15.1,0.8-17.4-12.5-18-21.2s-12-10.8-13.1-0.7C812.6,264.9,826.8,279.5,844.9,275.3z"/>
<path class="st2" d="M817.2,204.1c-10.2-0.1-9.7,11.4-1,13.1s21.4,5.6,18.7,20.5C841.4,220.3,828.6,204.3,817.2,204.1z"/>
<path class="st2" d="M882.4,168.1c6.8-5.5,1.7-16-7.2-11c-10,5.7-13.3,25.9,0.7,37.9C866.4,183.4,875.8,173.7,882.4,168.1z"/>
<path class="st2" d="M848.3,232c10.1,1.8,11.8-11.3,4.8-16s-13.6-11.7-13.1-21C829.3,210.1,838.2,230.2,848.3,232z"/>
<path class="st2" d="M862.5,164.5c4.3-7.5,12.2-18.4,25.4-11.2c-14.4-11.6-33.7-4.8-37.5,6C847.1,169,858.2,172.1,862.5,164.5z"/>
<path class="st2" d="M860.3,173.7c-9.5-4.1-28,7.8-27.3,26.3c4.8-8.2,14.1-10.3,22.5-10.3S869.9,177.8,860.3,173.7z"/>
<path class="st2" d="M876.6,178.9c18.3,3.1,32.5-13.6,29.7-23.6c-2.8-10-15.2-5.8-16.4,2.7S885.4,175.4,876.6,178.9z"/>
<path class="st2" d="M902,172.2c8.9-3.4,17.4,0.9,24,6.1s18.5-0.1,13.9-9.3C935.2,159.7,913.2,157.5,902,172.2z"/>
<path class="st2" d="M902.6,189.2c7.8-4,20.4-8.6,27.3,4.8c-5.5-17.6-25.4-22.5-34.5-15.6C887.3,184.4,894.8,193.1,902.6,189.2z"/>
<path class="st2" d="M948.2,199.4c4.3,7.3,17.4,6.6,16.2-3.8s-20.8-20.3-36.4-10.5C937.4,185.1,943.9,192.1,948.2,199.4z"/>
<path class="st2" d="M945.5,198c-3.4,18.2,12.9,32.8,22.8,30.3s6.1-15.1-2.3-16.4C957.8,210.4,949,206.9,945.5,198z"/>
<path class="st2" d="M943.3,204c1.3-8.6-9.3-13.1-12.6-3.4c-3.7,10.8,7.1,28.2,25.6,28C941.3,226.1,942,212.5,943.3,204z"/>
<path class="st2" d="M974.8,243.1c-3.8-10.8-23.1-17.6-37.5-5.9c13.2-7.3,21.2,3.4,25.4,11.1C967.2,255.9,978.2,252.8,974.8,243.1z"
	/>
<path class="st2" d="M934.8,274.4c18.3-2.3,26.7-21.1,21.5-31.3c-4.7-9.2-14.5-3.2-12.1,5.1S949.2,269.9,934.8,274.4z"/>
<path class="st2" d="M948.3,271.1c-6.9,4.9-5,18,5.1,15.9s18.4-22.4,7.4-37.3C961.6,259.1,955.2,266.2,948.3,271.1z"/>
<path class="st2" d="M955.2,290.4c-11-3.2-27.8,8.3-26.8,26.8c1.8-15,15.3-15,24-14.1S964.9,293.3,955.2,290.4z"/>
<path class="st2" d="M940.5,284.3c0.4-10.2-11.2-9.9-13.1-1.3c-1.9,8.5-6.2,21.3-21,18.3C923.8,307.9,940.2,295.7,940.5,284.3z"/>
<path class="st2" d="M907.2,294.1c-3.9,14.5-17.3,12.8-25.7,10.5s-14,8-4.7,12.2C887.3,321.5,905.7,312.4,907.2,294.1z"/>
<path class="st2" d="M919.3,306.4c-10.2-1.5-25.1,14.5-20,32.3c2.5-9.2,11-13.5,19.2-15.6S929.5,307.9,919.3,306.4z"/>
<path class="st2" d="M876.4,322.9c-7.7-5.5-8.9-15-8-23.4s-10.3-15.5-15.3-6.4C847.9,302.2,857.9,321.7,876.4,322.9z"/>
<path class="st2" d="M898.8,315.4c-5.2,7.9-14.6,9.5-23.1,9s-15,11-5.8,15.6c3.2,1.7,7.7,1.3,12.1-0.4v356.1h3.1V338
	C893.4,333.4,898.5,324.8,898.8,315.4z"/>
<path class="st2" d="M861,320c-7.7-4.3-18.5-12.1-11.3-25.4c-11.5,14.5-4.5,33.7,6.2,37.4C865.5,335.4,868.7,324.2,861,320z"/>
<path class="st2" d="M838.8,311.9c-1.2-8.3-13.6-12.6-16.4-2.7s11.4,26.7,29.7,23.6C843.4,329.2,840,320.4,838.8,311.9z"/>
<path class="st2" d="M818.6,290.3c8.3,1.9,17,5.8,19.8,14.9c4.4-18-11.1-33.5-21.3-31.4C807.1,275.7,810.4,288.5,818.6,290.3z"/>
<path class="st2" d="M791.3,282.2c15,0.9,15.9,14.3,15.5,23.1s10.7,12.1,12.9,2.1C822.3,296.2,809.8,280.1,791.3,282.2z"/>
<path class="st2" d="M811.3,273.3c2.5-9.8-11.8-25.7-29.5-22.3c8.7,3.3,12.1,12,13.4,20.1C796.5,279.2,808.9,283.2,811.3,273.3z"/>
<path class="st2" d="M812.2,253c-8.7-3.9-11.6-13-12.4-21.4s-13.2-13.1-16.3-3.3S793.9,255.4,812.2,253z"/>
<path class="st2" d="M797,200.9c-6.9,9.1-2.2,28.9,15.3,34.6c-13.3-7.1-8.5-19.6-4.4-27.4S803.2,192.8,797,200.9z"/>
<path class="st2" d="M817.7,193.9c9,1.2,13.4-9.9,3.3-13.1c-11.2-3.7-29,7.8-28.5,27C794.8,192.2,808.8,192.6,817.7,193.9z"/>
<path class="st2" d="M833.2,177.3c8.1,2.6,17.3-6.9,9.5-13.6s-29-1.1-34.2,16.6C815.6,173.9,825.1,174.7,833.2,177.3z"/>
</svg>
