<?xml version="1.0" encoding="utf-8"?>
<!-- Generator: Adobe Illustrator 24.0.3, SVG Export Plug-In . SVG Version: 6.00 Build 0)  -->
<svg version="1.1" id="tree.svg" xmlns="http://www.w3.org/2000/svg" xmlns:xlink="http://www.w3.org/1999/xlink" x="0px" y="0px"
	 viewBox="0 0 1890 722.5" style="enable-background:new 0 0 1890 722.5;" xml:space="preserve">
<style type="text/css">
	.st0{fill-rule:evenodd;clip-rule:evenodd;fill:#231815;}
	.st1{fill:#9BBD58;}
	.st2{fill-rule:evenodd;clip-rule:evenodd;fill:#709C45;}
	.st3{fill-rule:evenodd;clip-rule:evenodd;fill:#9BBD58;}
</style>
<path id="SCROLL" class="st0" d="M104.9,621.6c0-2.6-1.5-4.1-3.4-4.1c-1.5,0-2.8,1-3.2,2.4l-0.7,1.6c-0.4,1-0.8,1.9-1.8,1.9
	c-0.9,0-1.5-0.8-1.5-2c0-1,0.4-1.9,1.1-2.6l-1.2-1c-1,0.9-1.5,2.2-1.5,3.6c0,2.2,1.4,3.9,3.2,3.9c1.4-0.1,2.7-1,3.1-2.4l0.7-1.6
	c0.5-1.1,0.8-1.9,1.9-1.9c1,0,1.7,0.8,1.7,2.2c0,1.2-0.5,2.3-1.4,3.1l1.3,1.1C104.2,624.7,104.9,623.2,104.9,621.6z M104.9,609.8
	c0-1.4-0.6-2.8-1.7-3.7l-1.2,1c0.8,0.6,1.2,1.6,1.2,2.6c0,2.1-1.7,3.4-4.5,3.4s-4.5-1.4-4.5-3.4c0-0.9,0.4-1.7,1.1-2.3l-1.2-1
	c-0.9,0.9-1.5,2.1-1.5,3.3c0,3,2.3,5.3,6.1,5.3S104.9,612.8,104.9,609.8z M94.4,601.4v-1.8c0-1.7,0.5-2.6,1.9-2.6s2.1,0.9,2.1,2.6
	v1.8H94.4z M104.7,594.8l-5,2.9c-0.4-1.5-1.8-2.6-3.4-2.5c-2.5,0-3.4,1.8-3.4,4.2v3.9h11.8v-1.9h-4.8v-1.9l4.8-2.7V594.8
	L104.7,594.8z M104.9,587.5c0-3-2.4-5.1-6.1-5.1s-6.1,2.1-6.1,5.1s2.3,5.1,6.1,5.1S104.9,590.6,104.9,587.5L104.9,587.5z
	 M103.2,587.5c0,2-1.8,3.2-4.5,3.2s-4.4-1.3-4.4-3.2s1.7-3.2,4.4-3.2S103.2,585.6,103.2,587.5L103.2,587.5z M104.7,579.2v-6.8h-1.6
	v5H92.9v1.9L104.7,579.2L104.7,579.2z M104.7,569.5v-6.8h-1.6v5H92.9v1.9L104.7,569.5L104.7,569.5z"/>
<g>
	<path class="st1" d="M103.2,117c-11.4,9.7-10.6,36.5,10.4,48.6c-15.2-12.7-5.6-27.5,1.6-36.4C122.5,120.4,113.4,108.2,103.2,117z"
		/>
	<path class="st1" d="M123.2,207.6c5.1-9.9,13-19.5,25.4-20.2c-21.3-11.6-46.1,3-46.9,16.5C100.9,217.3,118.1,217.4,123.2,207.6z"/>
	<path class="st1" d="M85.2,178.9c-6.8,11.6,6.7,18.4,14.2,9.7c7.4-8.7,20.4-20.7,35.5-7.9C119.3,162.1,92.8,166,85.2,178.9z"/>
	<path class="st1" d="M201.7,179.6c-11-1.8-22.6-6.4-27-18c-4.6,23.8,16.9,43,30,39.7C217.8,197.8,212.6,181.4,201.7,179.6z"/>
	<path class="st1" d="M206.6,163.8c-3.2-14.6-27.1-26.7-47.7-13.9c18.3-7.4,26.9,8.1,31.2,18.7C194.4,179.1,209.5,176.9,206.6,163.8
		z"/>
	<path class="st1" d="M174.5,137.7c8.7,6.9,24.4-0.2,18.1-12.2c-6.3-12-34.9-15.2-49.6,4.2C154.6,125.3,165.8,130.8,174.5,137.7z"/>
	<path class="st1" d="M109.3,146.2c24.2,0.9,39-21.4,34.6-35.7c-4-12.8-18.2-7.3-16.7,4S128.9,143.5,109.3,146.2z"/>
	<path class="st1" d="M136.6,139.1c-5.9,9.4-14.6,18.3-27.1,18c20.2,13.4,46.2,1,48.2-12.4C159.7,131.3,142.5,129.7,136.6,139.1z"/>
	<path class="st1" d="M125.8,169.7c12.4-0.5,21.2,8.4,27.2,17.7c6,9.4,23.1,7.7,21.1-5.7C172,168.3,145.9,156.1,125.8,169.7z"/>
	<path class="st1" d="M200.7,221.8c11.4,0.2,15.3-14.5,2.1-17c-14.7-2.8-35.2,14.4-31.6,38.4C171.7,223.4,189.3,221.6,200.7,221.8z"
		/>
	<path class="st1" d="M148,202.3c-11.1,0-18.9,15.3-6.6,20.8c12.4,5.5,36.7-9.9,36.2-34.1C171.3,199.8,159.1,202.4,148,202.3z"/>
	<path class="st1" d="M139.8,232.3c-6.7-9.3-15.3-24.7,0.6-36.4c-21.7,10.8-24,37.5-13.3,47.9C136.8,253.2,146.6,241.6,139.8,232.3z
		"/>
	<path class="st1" d="M167.7,236.8c0.4-13.4-14.8-12.8-17.1-1.6s-7.8,28-27.2,24.2C146,268.1,167.3,251.8,167.7,236.8z"/>
	<path class="st1" d="M90,247c10.4-4.9,27.1-10.5,35.7,7.3c-6.6-23.3-32.4-30.6-44.6-22C70.1,240.1,79.7,251.9,90,247z"/>
	<path class="st1" d="M118.8,223.3c-12.4-0.9-20.1-10.8-25-20.8s-22.1-10.3-21.6,3.2C72.7,219.3,97.2,234.5,118.8,223.3z"/>
	<path class="st1" d="M63.5,165.3c-2.7-10.8-19.5-14.6-21.8-1.3s18.5,33.2,41.9,26.8C71.7,187.3,66.2,176,63.5,165.3z"/>
	<path class="st1" d="M84.3,226.4c-19.7,1-22.8-16.4-23.5-27.8c-0.7-11.4-15.6-14.2-17.2-0.8C41.9,212.6,60.7,231.8,84.3,226.4z"/>
	<path class="st1" d="M48,133c-13.4-0.2-12.6,15-1.3,17.1c11.2,2.1,28.1,7.4,24.6,26.8C79.6,154.1,63,133.2,48,133z"/>
	<path class="st1" d="M133.5,85.8c8.8-7.3,2.2-21-9.4-14.3c-13,7.4-17.4,33.8,0.9,49.7C112.5,105.8,124.7,93.1,133.5,85.8z"/>
	<path class="st1" d="M88.8,169.5c13.3,2.4,15.4-14.7,6.2-20.9S77.1,133.4,77.9,121C63.8,140.7,75.5,167.1,88.8,169.5z"/>
	<path class="st1" d="M107.4,81c5.6-10,16-24.2,33.3-14.6c-18.9-15.2-44.1-6.2-49.1,7.9C87.2,86.9,101.8,90.9,107.4,81z"/>
	<path class="st1" d="M104.6,93.1c-12.4-5.4-36.6,10.2-35.8,34.5c6.2-10.8,18.4-13.5,29.5-13.6S117,98.4,104.6,93.1z"/>
	<path class="st1" d="M125.8,99.9c23.9,4,42.6-17.9,38.9-30.9c-3.7-13-20-7.5-21.5,3.5C141.7,83.5,137.3,95.3,125.8,99.9z"/>
	<path class="st1" d="M159.2,91.1c11.6-4.5,22.8,1.1,31.5,8s24.4-0.2,18.1-12.2C202.5,75,173.9,71.8,159.2,91.1z"/>
	<path class="st1" d="M159.9,113.4c10.2-5.2,26.8-11.3,35.9,6.2C188.5,96.5,162.5,90,150.5,99C139.8,107.1,149.7,118.6,159.9,113.4z
		"/>
	<path class="st1" d="M219.6,126.8c5.6,9.6,22.8,8.5,21.3-4.9c-1.6-13.4-27.2-26.6-47.8-13.8C205.6,108,214,117.2,219.6,126.8z"/>
	<path class="st1" d="M216.3,125c-4.6,23.8,16.9,43,30,39.7c13.1-3.3,8-19.8-3-21.6C232.3,141.2,220.7,136.6,216.3,125z"/>
	<path class="st1" d="M213.3,132.7c1.8-11.3-12.2-17.2-16.6-4.5c-4.8,14.2,9.3,36.9,33.6,36.7C210.8,161.7,211.5,144.1,213.3,132.7z
		"/>
	<path class="st1" d="M254.6,184.1c-5-14.1-30.3-23-49.1-7.7c17.3-9.6,27.7,4.6,33.4,14.6C244.5,200.9,259.1,196.7,254.6,184.1z"/>
	<path class="st1" d="M202.1,225.1c24-3.1,35-27.6,28.2-40.9c-6.1-12-19.1-4.2-15.8,6.7S220.9,219.2,202.1,225.1z"/>
	<path class="st1" d="M219.8,220.8c-9.1,6.4-6.5,23.5,6.7,20.8c13.3-2.7,24.2-29.3,9.7-48.8C237.3,205.1,228.8,214.3,219.8,220.8z"
		/>
	<path class="st1" d="M228.8,246.1c-14.4-4.2-36.4,11-35.1,35.2c2.3-19.6,20-19.7,31.4-18.5C236.4,264.1,241.6,249.9,228.8,246.1z"
		/>
	<path class="st1" d="M209.7,238.1c0.5-13.4-14.7-13-17.1-1.8c-2.4,11.2-8.1,27.9-27.5,23.9C187.8,269.1,209.2,253,209.7,238.1z"/>
	<path class="st1" d="M166.1,250.8c-5.1,19.1-22.6,16.7-33.7,13.8s-18.3,10.5-6.1,16.1C139.9,286.8,163.9,274.9,166.1,250.8z"/>
	<path class="st1" d="M181.9,266.9c-13.4-2.1-32.9,19-26.1,42.3c3.3-12,14.4-17.7,25.2-20.5C191.7,285.9,195.3,269,181.9,266.9z"/>
	<path class="st1" d="M115,258.1c1.1-11.1-13.5-20.3-20.1-8.4c-6.6,11.8,6.5,37.5,30.7,39.2C115.5,281.5,114,269.1,115,258.1z"/>
	<path class="st1" d="M124.8,290.7c-11.1-0.6-19.7,14.4-7.6,20.5c0.7,0.4,1.5,0.7,2.4,0.9v371.1l-17-45.8l-4.7,1.8l20.6,55.3
		l1.1-0.4v28.4h5.2v-410c12.8-0.7,29.7-13.8,30.2-33.7C148.2,289.2,135.9,291.2,124.8,290.7z"/>
	<path class="st1" d="M98.7,300.7c12.7,4.4,16.7-10.2,6.7-15.8c-10-5.6-24.3-15.9-14.8-33.2C75.4,270.6,84.6,295.8,98.7,300.7z"/>
	<path class="st1" d="M76.4,274.3c-1.5-11-17.9-16.6-21.5-3.5c-3.7,13,15,35,38.9,31C82.3,297,77.9,285.3,76.4,274.3z"/>
	<path class="st1" d="M49.9,245.9c10.9,2.4,22.2,7.6,26,19.4c5.8-23.5-14.6-43.8-27.9-41.2C34.7,226.8,39,243.5,49.9,245.9z"/>
	<path class="st1" d="M14.1,235.3c19.7,1.2,20.8,18.8,20.3,30.2c-0.6,11.4,13.9,15.8,16.9,2.8C54.7,253.7,38.2,232.5,14.1,235.3z"/>
	<path class="st1" d="M40.3,223.7c3.3-12.8-15.5-33.7-38.7-29.2c11.3,4.3,15.8,15.6,17.6,26.3S37,236.5,40.3,223.7z"/>
	<path class="st1" d="M41.4,197c-11.3-5.1-15.2-17-16.3-28.1c-1.1-11.1-17.2-17.2-21.4-4.3C-0.5,177.5,17.4,200.1,41.4,197z"/>
	<path class="st1" d="M41.6,174.2c-17.5-9.3-11.2-25.8-5.9-35.9c5.3-10.2-6.1-20.2-14.3-9.5C12.4,140.6,18.6,166.7,41.6,174.2z"/>
	<path class="st1" d="M53,102.3c-14.7-4.8-38,10.2-37.4,35.3c3-20.2,21.3-19.8,33-18.1C60.3,121.2,66.2,106.6,53,102.3z"/>
	<path class="st1" d="M35.6,68.8c0,0-0.4,3.1-2.4,6.4c2.3,0,5.8-6.1,5.8-6.1s3.1,1.4,6.5,2.3l1.3,1.5L53,81
		c-7.2,4.2-13.6,11.1-16.3,20.7c9.2-8.4,21.6-7.2,32.2-3.9c10.6,3.3,22.6-9,12.5-17.9c-4.3-3.8-11.9-4.6-19.7-2.5
		c-1.9-1-3.4-2-3.6-2.2c-0.4-0.4-0.2-2.4,0-3.7c4.9-1,10.1-3.2,12.6-7.8c4.4-8,2.5-11,2.8-14.7c0.1-1.3,2.1-4.7,2.1-4.7
		s3.2-0.6,4.4-1c-0.4-1-3.3-1.5-3.3-1.5s-0.7-5.3-9-5.2c-8.4,0-21.9,17.7-25.7,22.6C38.2,64,13.2,73.5,14.2,75.6
		C15.1,77.5,35.6,68.8,35.6,68.8z M48.2,71.9c0.2,0,0.4,0.1,0.7,0.1c1.5,0.1,3.9,0.2,6.6-0.2c-0.3,0.9-0.7,2.1-0.6,2.7
		c0,0.5,2.6,1.9,5.4,3.2c-1.7,0.5-3.4,1.2-5.1,2c-0.6,0-1,0-1.4-0.2c-2-0.8-5.3-6.7-5.7-7.1C48.1,72.5,48.2,72.2,48.2,71.9z"/>
</g>
<g>
	<path class="st2" d="M272.2,389.7c-7.5-4.3-15.4,4.1-7.6,10.5c8.7,7.2,28.6,3.2,34.9-14.1C292,399.1,279.7,394,272.2,389.7z"/>
	<path class="st2" d="M329.5,390.1c10.2-1.2,8-14,0-16.5s-16.2-7.1-18.4-16.3C305.2,374.6,319.3,391.2,329.5,390.1z"/>
	<path class="st2" d="M318.5,393.8c-7.4-4.4-18.1-12.5-10.6-25.4c-11.8,14-5.4,33.2,5.2,37.2C322.6,409.2,325.9,398.2,318.5,393.8z"
		/>
	<path class="st2" d="M288.5,341.2c18.3,0.3,29.8-18.2,25.6-27.5c-4.2-9.3-15.8-3.3-15.7,5.1C298.5,327.2,296.5,336.4,288.5,341.2z"
		/>
	<path class="st2" d="M281.8,354.5c-7.9-12.7,2.5-21.1,9.8-25.7s3.7-15.5-5.7-11.7C275.5,321.5,269.6,340.8,281.8,354.5z"/>
	<path class="st2" d="M259.3,332.6c-8.1,6.2-6.7,28,9.6,36.4c-4.8-8-2.2-17.1,1.9-24.5C274.8,337.1,267.4,326.3,259.3,332.6z"/>
	<path class="st2" d="M259.6,382.7c8.3-2.6,21.4-5,25.9,9.2c-2.5-18.2-21.1-26.3-31.1-21.1C245.4,375.5,251.4,385.3,259.6,382.7z"/>
	<path class="st2" d="M278.1,356.1c-10.2,0.3-9.2,13.3-1.4,16.4c7.8,3.2,15.6,8.5,16.9,17.8C301,373.5,288.4,355.8,278.1,356.1z"/>
	<path class="st2" d="M303.6,339c-9.7,3.3-15.4,24.3-2.7,37.5c-2-9.2,3.5-16.9,9.7-22.6C316.8,348.3,313.2,335.7,303.6,339z"/>
	<path class="st2" d="M329.9,313.9c-1.4-8.5-12.8-9.5-13,0.7c-0.2,11.3,15.3,24.3,32.7,18.5C334.9,335.3,331.3,322.5,329.9,313.9z"
		/>
	<path class="st2" d="M322.4,355.8c1.4,8.3,13.9,12.1,16.4,2.2s-12.1-26.1-30.1-22.5C317.4,338.7,320.9,347.5,322.4,355.8z"/>
	<path class="st2" d="M356,365.9c5.7-8.4-4.2-14.2-10.2-8s-16.4,14.6-27.2,4.3C329.5,377,349.7,375.3,356,365.9z"/>
	<path class="st2" d="M368.1,366.7c3.5-18-11.4-31.7-22.6-30c-10,1.5-7.6,12.7,1,12.9C355.2,349.8,368.4,351.7,368.1,366.7z"/>
	<path class="st2" d="M363.2,393.1c-5-7.1-11.4-18.8,0.8-27.5c-16.5,8-18.5,28.1-10.5,36.1C360.6,408.9,368.2,400.2,363.2,393.1z"/>
	<path class="st2" d="M329.6,396.1c-6.8,4.9-4.8,17.8,5.2,15.7c10-2.1,18.1-22.4,7-37C342.7,384.1,336.4,391.2,329.6,396.1z"/>
	<path class="st2" d="M322.1,405.2c-1.1,9.3-8.7,14.9-16.4,18.3c-7.7,3.4-8.4,16.4,1.9,16.4C317.8,439.9,330,421.8,322.1,405.2z"/>
	<path class="st2" d="M332.5,434.1c11.3-0.7,23.1-17.1,16-34c3.3,14.6-9.2,19.1-17.6,21.1S322.4,434.7,332.5,434.1z"/>
	<path class="st2" d="M283.7,439.3c1.6,10,12.8,7.4,12.9-1.2c0.1-8.7,1.8-21.9,16.8-21.8C295.4,413,281.9,428.1,283.7,439.3z"/>
	<path class="st2" d="M228,390.7c7.2,8.7,27.5,8.6,36.9-7.1c-9.8,11.3-20.9,3.8-27.5-1.8C230.8,376.1,221.5,382.8,228,390.7z"/>
	<path class="st2" d="M305.6,404.2c0-10.2-13-9.6-16.4-1.9s-9,15.3-18.3,16.4C287.4,426.5,305.6,414.4,305.6,404.2z"/>
	<path class="st2" d="M237.2,401.8c-8.2-2.9-20.1-8.8-15.3-22.9c-8.9,16,1.1,33.7,12.3,35.5C244.3,416.1,245.4,404.7,237.2,401.8z"
		/>
	<path class="st2" d="M277,424.5c-8.8-3.2-12.5-11.9-14-20.2c-1.5-8.3-14-12-16.4-2C244.3,412.3,259,428.3,277,424.5z"/>
	<path class="st2" d="M226.3,376.2c8.4-0.3,17.7,1.4,22.7,9.4c-0.1-18.3-18.9-29.4-28.1-25C211.6,365.1,217.9,376.5,226.3,376.2z"/>
	<path class="st2" d="M238.1,361.9c-4.8-8-2.2-17.1,1.9-24.5c4-7.4-3.3-18.1-11.4-11.9C220.4,331.8,221.8,353.5,238.1,361.9z"/>
	<path class="st2" d="M254.5,331c-16.3,8.5-17.7,28.7-9.4,36.4c7.4,6.9,14.7-2,9.5-8.9C249.3,351.6,242.6,340,254.5,331z"/>
	<path class="st2" d="M256.7,312.3c6.4-5.4,3.4-18.1-6.4-15.2c-9.8,2.9-16.3,23.7-4.1,37.4C244.6,325.2,250.3,317.7,256.7,312.3z"/>
	<path class="st2" d="M255.8,315c18.3,0.3,29.8-18.2,25.6-27.5s-15.8-3.3-15.7,5.1C265.8,300.9,263.9,310.2,255.8,315z"/>
	<path class="st2" d="M262,316.2c-8.7,0.1-11.2,11.3-1.2,12.9c11.2,1.8,26.3-11.8,22.9-29.8C283.9,314.3,270.7,316.1,262,316.2z"/>
	<path class="st2" d="M295.5,316.3c-9.4-11.6-0.2-21.2,6.5-26.8c6.7-5.5,1.7-15.9-7.1-10.8C285,284.3,281.6,304.3,295.5,316.3z"/>
	<path class="st2" d="M298,296.8c-8.1,6.1-0.7,14.8,7.1,10.9c7.7-3.9,20.3-8.5,27.1,4.8C326.8,295,307.1,290.1,298,296.8z"/>
	<path class="st2" d="M326.7,299.9c6,5.9,18.3,1.8,14.6-7.7c-3.7-9.5-25-14.2-37.6-0.9C312.8,288.9,320.7,294,326.7,299.9z"/>
	<path class="st2" d="M375.2,311.5c-14.9,0.8-17.3-12.3-17.8-21c-0.5-8.6-11.8-10.7-13-0.6C343.2,301.2,357.4,315.6,375.2,311.5z"/>
	<path class="st2" d="M341.8,318.1c8.6,0.3,21.8,2.4,21.4,17.3c3.7-18-11.1-31.8-22.3-30.3C330.9,306.5,333.2,317.7,341.8,318.1z"/>
	<path class="st2" d="M356.1,336c14.9,1.3,15.4,14.7,14.7,23.3c-0.7,8.6,10.2,12.3,12.8,2.4C386.3,350.8,374.3,334.4,356.1,336z"/>
	<path class="st2" d="M366,322.1c0.2,10.2,18.5,22.1,34.9,14c-9.3-0.9-15-8.4-18.6-16.1C378.9,312.3,365.9,311.8,366,322.1z"/>
	<path class="st2" d="M368.2,373.1c-8.4,0.7-13.3,12.7-3.7,16.1c9.7,3.4,27.1-9.7,25.2-27.9C385.6,369.7,376.5,372.4,368.2,373.1z"
		/>
	<path class="st2" d="M378.4,340.6c8.6,3.7,11.7,12.6,12.8,21c1,8.3,13.3,12.8,16.2,3C410.4,354.7,396.5,337.9,378.4,340.6z"/>
	<path class="st2" d="M402.1,379.6c1.6-10-9.8-11.1-12.7-2.9c-2.8,8.2-8.7,20.2-22.8,15.4C382.7,400.9,400.2,390.8,402.1,379.6z"/>
	<path class="st2" d="M385.3,399.7c-8,2.6-10,15.5,0.2,16.5s24.1-15.7,18-33C401.4,392.4,393.3,397.1,385.3,399.7z"/>
	<path class="st2" d="M367.6,423.2c0.4-8.4,2.8-17.5,11.1-21.9c-18.3-1.3-30.7,16.6-27,26.1C355.4,436.9,367.2,431.6,367.6,423.2z"
		/>
	<path class="st2" d="M384.1,419.2c-11.3-0.6-24.9,14.4-19.7,32c-1.7-14.8,11.3-18,19.9-19C392.8,431.1,394.2,419.7,384.1,419.2z"/>
	<path class="st2" d="M352.3,433.2c-10-0.8-23.1,15.9-16.7,32.6c1.7-9,9.6-13.8,17.3-16.6C360.6,446.6,362.3,434,352.3,433.2z"/>
	<path class="st2" d="M313.5,451.7c-6.1,1.7-9,9.5-5.7,13.8v257h5.3V468.2c10.1,1.4,24.6-14.8,19.2-32.3
		C329.9,445,321.6,449.4,313.5,451.7z"/>
	<path class="st2" d="M284,459.6c10,5.2,28.6-2.8,31.2-20.9c-4.6,14.2-17.7,11.7-26,9.1C281,445.1,275,454.9,284,459.6z"/>
	<path class="st2" d="M273.6,440.6c-0.3-9-11.9-11.4-13.4-1c-1.7,11.6,12.6,27,31.2,23.3C276,463.2,273.9,449.5,273.6,440.6z"/>
	<path class="st2" d="M254.8,428.3c1.1-8.3-9.7-15.7-15-6.9c-5.3,8.7,3.8,28.5,22.1,30.4C254.5,446.1,253.7,436.7,254.8,428.3z"/>
</g>
<g>
	<path class="st3" d="M406.3,488.7c-4.4-2.5-9.1,2.4-4.5,6.2c5.1,4.2,16.9,1.9,20.6-8.3C418,494.3,410.7,491.3,406.3,488.7z"/>
	<path class="st3" d="M440,489c6-0.7,4.7-8.3,0-9.7c-4.7-1.5-9.6-4.2-10.8-9.6C425.7,479.9,434,489.7,440,489z"/>
	<path class="st3" d="M430.4,498.1c5.6,2.1,7.6-4.4,3.2-7s-10.6-7.4-6.2-15C420.4,484.4,424.1,495.8,430.4,498.1z"/>
	<path class="st3" d="M415.9,460.2c10.8,0.2,17.6-10.7,15.1-16.2s-9.3-2-9.3,3C421.7,451.9,420.6,457.4,415.9,460.2z"/>
	<path class="st3" d="M412,468c-4.6-7.5,1.5-12.4,5.8-15.2c4.3-2.7,2.2-9.1-3.4-6.9C408.2,448.5,404.8,460,412,468z"/>
	<path class="st3" d="M398.7,455.1c-4.8,3.7-4,16.5,5.6,21.4c-2.9-4.7-1.3-10.1,1.1-14.4C407.8,457.7,403.5,451.4,398.7,455.1z"/>
	<path class="st3" d="M398.9,484.6c4.9-1.5,12.6-3,15.3,5.4c-1.5-10.7-12.4-15.5-18.3-12.4C390.5,480.4,394,486.1,398.9,484.6z"/>
	<path class="st3" d="M409.8,468.9c-6,0.2-5.4,7.8-0.8,9.7c4.6,1.9,9.2,5,10,10.5C423.2,479.2,415.8,468.8,409.8,468.9z"/>
	<path class="st3" d="M424.8,458.9c-5.7,1.9-9.1,14.3-1.6,22.1c-1.2-5.4,2-10,5.7-13.3C432.5,464.4,430.5,457,424.8,458.9z"/>
	<path class="st3" d="M440.3,444.1c-0.8-5-7.6-5.6-7.6,0.4c-0.1,6.7,9,14.3,19.3,10.9C443.2,456.7,441.1,449.1,440.3,444.1z"/>
	<path class="st3" d="M435.8,468.8c0.8,4.9,8.2,7.1,9.6,1.3c1.5-5.9-7.2-15.4-17.8-13.3C432.9,458.7,435,463.9,435.8,468.8z"/>
	<path class="st3" d="M455.7,474.7c3.4-4.9-2.5-8.4-6-4.7c-3.6,3.7-9.6,8.6-16,2.6C440,481.3,451.9,480.2,455.7,474.7z"/>
	<path class="st3" d="M462.8,475.2c2.1-10.6-6.7-18.7-13.3-17.7c-5.9,0.9-4.5,7.5,0.6,7.6S463,466.4,462.8,475.2z"/>
	<path class="st3" d="M459.9,490.8c-2.9-4.2-6.7-11.1,0.5-16.2c-9.7,4.7-10.9,16.6-6.2,21.3C458.4,500.1,462.8,494.9,459.9,490.8z"
		/>
	<path class="st3" d="M440.1,492.5c-4,2.9-2.8,10.5,3.1,9.2s10.7-13.2,4.1-21.8C447.8,485.5,444.1,489.6,440.1,492.5z"/>
	<path class="st3" d="M427.1,518.4c6,0,13.2-10.7,8.6-20.4c-0.6,5.5-5.1,8.8-9.7,10.8C421.5,510.7,421.1,518.4,427.1,518.4z"/>
	<path class="st3" d="M441.8,514.9c6.7-0.4,13.6-10.1,9.5-20c2,8.6-5.4,11.3-10.4,12.5C435.9,508.5,435.9,515.3,441.8,514.9z"/>
	<path class="st3" d="M420.7,517.2c0.1-5.1,1.1-12.9,9.9-12.9c-10.6-1.9-18.6,7-17.5,13.6C414,523.9,420.6,522.3,420.7,517.2z"/>
	<path class="st3" d="M380.2,489.3c4.2,5.1,16.2,5.1,21.8-4.2c-5.8,6.6-12.3,2.3-16.2-1C381.9,480.8,376.4,484.7,380.2,489.3z"/>
	<path class="st3" d="M425.9,497.3c0-6-7.7-5.6-9.7-1.1s-5.3,9-10.8,9.6C415.3,510.4,425.9,503.3,425.9,497.3z"/>
	<path class="st3" d="M385.7,495.9c-4.8-1.7-11.9-5.2-9-13.5c-5.2,9.5,0.7,19.8,7.2,20.9C389.8,504.3,390.5,497.6,385.7,495.9z"/>
	<path class="st3" d="M409.1,509.3c-5.2-1.9-7.3-7-8.2-11.9c-0.9-4.9-8.3-7.1-9.7-1.2C389.8,502.1,398.5,511.5,409.1,509.3z"/>
	<path class="st3" d="M379.2,480.8c4.9-0.2,10.4,0.8,13.4,5.5c-0.1-10.8-11.1-17.3-16.6-14.7C370.6,474.2,374.3,481,379.2,480.8z"/>
	<path class="st3" d="M386.2,472.4c-2.9-4.7-1.3-10.1,1.1-14.4s-2-10.7-6.7-7C375.7,454.6,376.5,467.4,386.2,472.4z"/>
	<path class="st3" d="M395.8,454.1c-9.6,5-10.4,16.9-5.6,21.5c4.4,4.1,8.6-1.2,5.6-5.2C392.8,466.3,388.8,459.5,395.8,454.1z"/>
	<path class="st3" d="M397.2,443.1c3.8-3.2,2-10.7-3.8-9s-9.6,14-2.4,22C390,450.7,393.4,446.3,397.2,443.1z"/>
	<path class="st3" d="M396.6,444.7c10.8,0.2,17.6-10.7,15.1-16.2s-9.3-2-9.3,3C402.5,436.4,401.4,441.9,396.6,444.7z"/>
	<path class="st3" d="M400.3,445.5c-5.1,0.1-6.6,6.7-0.7,7.6c6.6,1,15.5-6.9,13.5-17.6C413.2,444.3,405.4,445.4,400.3,445.5z"/>
	<path class="st3" d="M420,445.5c-5.6-6.8-0.1-12.5,3.8-15.8c3.9-3.2,1-9.3-4.2-6.4C413.8,426.7,411.8,438.4,420,445.5z"/>
	<path class="st3" d="M421.5,434c-4.8,3.6-0.4,8.7,4.2,6.4c4.6-2.3,11.9-5,16,2.8C438.4,433,426.8,430,421.5,434z"/>
	<path class="st3" d="M438.4,435.8c3.5,3.5,10.8,1.1,8.6-4.5c-2.2-5.6-14.7-8.4-22.2-0.5C430.2,429.4,434.9,432.3,438.4,435.8z"/>
	<path class="st3" d="M467,442.6c-8.8,0.5-10.2-7.3-10.5-12.4s-7-6.3-7.6-0.4C448.1,436.6,456.5,445.1,467,442.6z"/>
	<path class="st3" d="M447.3,446.5c5.1,0.2,12.9,1.4,12.6,10.2c2.2-10.6-6.5-18.7-13.1-17.8C440.8,439.7,442.2,446.3,447.3,446.5z"
		/>
	<path class="st3" d="M455.7,457.1c8.8,0.8,9.1,8.6,8.7,13.7s6,7.2,7.5,1.4C473.5,465.8,466.5,456.2,455.7,457.1z"/>
	<path class="st3" d="M461.6,448.9c0.1,6,10.9,13,20.6,8.2c-5.5-0.5-8.9-5-10.9-9.5C469.1,443.1,461.5,442.9,461.6,448.9z"/>
	<path class="st3" d="M462.8,479c-4.9,0.4-7.9,7.5-2.2,9.5c5.7,2,16-5.7,14.8-16.5C473.1,477,467.8,478.6,462.8,479z"/>
	<path class="st3" d="M468.9,459.8c5.1,2.2,6.9,7.4,7.5,12.4c0.6,4.9,7.8,7.5,9.6,1.7C487.7,468.1,479.6,458.2,468.9,459.8z"/>
	<path class="st3" d="M482.8,482.8c1-5.9-5.8-6.5-7.5-1.7s-5.1,11.9-13.5,9.1C471.4,495.4,481.7,489.4,482.8,482.8z"/>
	<path class="st3" d="M472.9,494.7c-4.7,1.5-5.9,9.1,0.1,9.7s14.2-9.3,10.6-19.5C482.4,490.3,477.6,493.1,472.9,494.7z"/>
	<path class="st3" d="M462.5,508.5c0.2-4.9,1.6-10.3,6.5-12.9c-10.8-0.8-18.1,9.8-15.9,15.4C455.3,516.6,462.3,513.4,462.5,508.5z"
		/>
	<path class="st3" d="M472.2,506.1c-6.7-0.4-14.7,8.5-11.6,18.9c-1-8.8,6.7-10.6,11.7-11.2C477.4,513.2,478.2,506.4,472.2,506.1z"/>
	<path class="st3" d="M453.5,514.4c-5.9-0.4-13.6,9.4-9.9,19.2c1-5.3,5.6-8.2,10.2-9.8C458.4,522.3,459.4,514.8,453.5,514.4z"/>
	<path class="st3" d="M430.6,525.3L430.6,525.3v-1.2h-1.4c1.2-1.8,2.1-4,2.4-6.5c-2.7,8.4-10.5,6.9-15.3,5.3c-4.9-1.5-8.4,4.2-3.1,7
		c3.6,1.9,9.1,0.8,13.2-2.7v195.2h4.1V535c6,0.6,14.3-8.9,11.1-19.1C440.3,521.3,435.4,523.9,430.6,525.3z"/>
	<path class="st3" d="M407.1,518.7c-0.2-5.3-7-6.7-7.9-0.6c-1,6.8,7.4,15.9,18.4,13.7C408.5,532.1,407.3,524,407.1,518.7z"/>
	<path class="st3" d="M396,511.5c0.7-4.9-5.7-9.2-8.8-4.1c-3.1,5.2,2.3,16.8,13,17.9C395.8,522,395.4,516.4,396,511.5z"/>
</g>
<g>
	<path class="st2" d="M1385.3,523c-4.6-2.6-9.4,2.5-4.6,6.4c5.3,4.4,17.4,1.9,21.3-8.6C1397.5,528.7,1389.9,525.6,1385.3,523z"/>
	<path class="st2" d="M1420.3,523.2c6.2-0.7,4.9-8.6,0-10.1s-9.9-4.4-11.2-9.9C1405.5,513.8,1414.1,523.9,1420.3,523.2z"/>
	<path class="st2" d="M1413.6,525.5c-4.5-2.7-11-7.6-6.4-15.5c-7.2,8.6-3.3,20.3,3.2,22.7C1416.1,534.9,1418.1,528.2,1413.6,525.5z"
		/>
	<path class="st2" d="M1395.3,493.4c11.2,0.2,18.2-11.1,15.6-16.8c-2.6-5.7-9.6-2-9.6,3.1C1401.4,484.8,1400.2,490.5,1395.3,493.4z"
		/>
	<path class="st2" d="M1391.2,501.5c-4.8-7.8,1.5-12.9,6-15.7c4.5-2.8,2.3-9.5-3.5-7.1C1387.4,481.3,1383.8,493.2,1391.2,501.5z"/>
	<path class="st2" d="M1377.5,488.1c-5,3.8-4.1,17.1,5.8,22.2c-3-4.9-1.3-10.4,1.1-14.9C1387,490.9,1382.5,484.3,1377.5,488.1z"/>
	<path class="st2" d="M1377.7,518.7c5-1.6,13-3.1,15.8,5.6c-1.5-11.1-12.9-16-19-12.9C1369,514.3,1372.6,520.3,1377.7,518.7z"/>
	<path class="st2" d="M1389,502.5c-6.2,0.2-5.6,8.1-0.8,10c4.8,1.9,9.5,5.2,10.3,10.9C1402.9,513.1,1395.2,502.3,1389,502.5z"/>
	<path class="st2" d="M1404.5,492.1c-5.9,2-9.4,14.8-1.6,22.9c-1.2-5.6,2.1-10.3,5.9-13.8C1412.6,497.7,1410.4,490.1,1404.5,492.1z"
		/>
	<path class="st2" d="M1420.6,476.8c-0.8-5.2-7.8-5.8-7.9,0.4c-0.1,6.9,9.4,14.8,20,11.3C1423.6,489.8,1421.4,482,1420.6,476.8z"/>
	<path class="st2" d="M1416,502.3c0.9,5.1,8.5,7.4,10,1.3s-7.4-15.9-18.4-13.7C1412.9,491.9,1415.1,497.2,1416,502.3z"/>
	<path class="st2" d="M1436.5,508.5c3.5-5.1-2.6-8.7-6.3-4.9c-3.7,3.8-10,8.9-16.6,2.6C1420.3,515.2,1432.6,514.2,1436.5,508.5z"/>
	<path class="st2" d="M1443.9,508.9c2.1-11-7-19.3-13.8-18.3c-6.1,0.9-4.6,7.7,0.6,7.9C1436,498.6,1444,499.8,1443.9,508.9z"/>
	<path class="st2" d="M1440.9,525.1c-3-4.3-6.9-11.5,0.5-16.8c-10.1,4.9-11.3,17.2-6.4,22C1439.3,534.7,1443.9,529.4,1440.9,525.1z"
		/>
	<path class="st2" d="M1420.4,526.9c-4.2,3-2.9,10.9,3.2,9.6c6.1-1.3,11-13.6,4.3-22.5C1428.4,519.6,1424.5,523.9,1420.4,526.9z"/>
	<path class="st2" d="M1415.8,532.5c-0.6,5.7-5.3,9.1-10,11.2c-4.7,2.1-5.1,10,1.1,10S1420.6,542.6,1415.8,532.5z"/>
	<path class="st2" d="M1422.2,550.1c6.9-0.4,14.1-10.4,9.8-20.8c2,8.9-5.6,11.7-10.8,12.9C1416.1,543.4,1416,550.4,1422.2,550.1z"/>
	<path class="st2" d="M1392.4,553.2c1,6.1,7.8,4.5,7.9-0.8s1.1-13.4,10.2-13.3C1399.5,537.2,1391.3,546.4,1392.4,553.2z"/>
	<path class="st2" d="M1358.4,523.6c4.4,5.3,16.8,5.2,22.5-4.4c-6,6.9-12.7,2.3-16.8-1.1C1360.1,514.7,1354.4,518.8,1358.4,523.6z"
		/>
	<path class="st2" d="M1405.7,531.8c0-6.2-7.9-5.8-10-1.1s-5.5,9.3-11.2,10C1394.7,545.4,1405.7,538,1405.7,531.8z"/>
	<path class="st2" d="M1364,530.4c-5-1.8-12.3-5.4-9.3-14c-5.4,9.8,0.7,20.5,7.5,21.7C1368.3,539.1,1369,532.1,1364,530.4z"/>
	<path class="st2" d="M1388.3,544.2c-5.4-2-7.6-7.3-8.5-12.3s-8.5-7.3-10-1.2S1377.3,546.5,1388.3,544.2z"/>
	<path class="st2" d="M1357.3,514.8c5.1-0.2,10.8,0.9,13.8,5.7c-0.1-11.2-11.5-17.9-17.2-15.2C1348.4,508,1352.2,514.9,1357.3,514.8
		z"/>
	<path class="st2" d="M1364.5,506c-3-4.9-1.3-10.4,1.1-14.9c2.5-4.5-2-11.1-7-7.3C1353.7,487.6,1354.6,500.9,1364.5,506z"/>
	<path class="st2" d="M1374.6,487.1c-9.9,5.2-10.8,17.5-5.8,22.2c4.5,4.2,9-1.2,5.8-5.4C1371.4,499.7,1367.3,492.7,1374.6,487.1z"/>
	<path class="st2" d="M1375.9,475.7c3.9-3.3,2.1-11.1-3.9-9.3c-6,1.8-9.9,14.5-2.5,22.8C1368.5,483.6,1372,479,1375.9,475.7z"/>
	<path class="st2" d="M1375.4,477.4c11.2,0.2,18.2-11.1,15.6-16.8c-2.6-5.7-9.6-2-9.6,3.1C1381.5,468.8,1380.3,474.5,1375.4,477.4z"
		/>
	<path class="st2" d="M1379.1,478.2c-5.3,0.1-6.8,6.9-0.7,7.9c6.8,1.1,16-7.2,14-18.2C1392.5,477,1384.4,478.1,1379.1,478.2z"/>
	<path class="st2" d="M1399.6,478.2c-5.7-7.1-0.1-13,4-16.3c4.1-3.4,1-9.7-4.4-6.6C1393.2,458.7,1391.1,470.9,1399.6,478.2z"/>
	<path class="st2" d="M1401.1,466.3c-5,3.7-0.4,9,4.3,6.6c4.7-2.4,12.4-5.2,16.5,2.9C1418.7,465.2,1406.7,462.2,1401.1,466.3z"/>
	<path class="st2" d="M1418.6,468.2c3.6,3.6,11.2,1.1,8.9-4.7c-2.3-5.8-15.3-8.7-22.9-0.5C1410.1,461.5,1415,464.6,1418.6,468.2z"/>
	<path class="st2" d="M1448.2,475.2c-9.1,0.5-10.6-7.5-10.9-12.8s-7.2-6.5-7.9-0.4C1428.7,469,1437.3,477.8,1448.2,475.2z"/>
	<path class="st2" d="M1427.9,479.3c5.3,0.2,13.3,1.5,13,10.6c2.3-11-6.8-19.4-13.6-18.5C1421.2,472.2,1422.6,479.1,1427.9,479.3z"
		/>
	<path class="st2" d="M1436.5,490.2c9.1,0.8,9.4,8.9,9,14.2c-0.4,5.3,6.2,7.5,7.8,1.5C1455,499.2,1447.7,489.3,1436.5,490.2z"/>
	<path class="st2" d="M1442.6,481.7c0.1,6.2,11.3,13.5,21.3,8.5c-5.7-0.5-9.2-5.2-11.3-9.8C1450.5,475.8,1442.5,475.5,1442.6,481.7z
		"/>
	<path class="st2" d="M1443.9,512.8c-5.1,0.4-8.1,7.8-2.2,9.8c5.9,2.1,16.5-5.9,15.4-17.1C1454.5,510.8,1449,512.4,1443.9,512.8z"/>
	<path class="st2" d="M1450.2,493c5.3,2.3,7.2,7.7,7.8,12.8c0.6,5.1,8.1,7.8,9.9,1.8C1469.7,501.6,1461.2,491.4,1450.2,493z"/>
	<path class="st2" d="M1464.6,516.8c1-6.1-6-6.8-7.7-1.8s-5.3,12.3-13.9,9.4C1452.8,529.8,1463.5,523.7,1464.6,516.8z"/>
	<path class="st2" d="M1454.4,529.1c-4.9,1.6-6.1,9.4,0.1,10.1c6.2,0.6,14.7-9.6,11-20.2C1464.2,524.6,1459.2,527.5,1454.4,529.1z"
		/>
	<path class="st2" d="M1443.6,543.4c0.2-5.1,1.7-10.7,6.8-13.4c-11.2-0.8-18.8,10.1-16.5,15.9
		C1436.1,551.8,1443.4,548.5,1443.6,543.4z"/>
	<path class="st2" d="M1453.6,541c-6.9-0.4-15.2,8.8-12,19.5c-1-9.1,6.9-11,12.1-11.6C1459,548.3,1459.8,541.3,1453.6,541z"/>
	<path class="st2" d="M1434.3,549.5c-6.1-0.5-14.1,9.7-10.2,19.9c1.1-5.5,5.8-8.4,10.6-10.1C1439.3,557.7,1440.3,550,1434.3,549.5z"
		/>
	<path class="st2" d="M1410.6,560.8c-3.7,1.1-5.5,5.8-3.5,8.4v153.2h3.2V570.9c6.2,0.8,15-9.1,11.7-19.7
		C1420.6,556.7,1415.5,559.4,1410.6,560.8z"/>
	<path class="st2" d="M1392.6,565.6c6.1,3.2,17.5-1.7,19.1-12.8c-2.8,8.7-10.8,7.1-15.9,5.5C1390.7,556.8,1387.1,562.8,1392.6,565.6
		z"/>
	<path class="st2" d="M1386.2,554c-0.2-5.5-7.3-7-8.2-0.6c-1,7.1,7.7,16.5,19,14.2C1387.7,567.8,1386.4,559.5,1386.2,554z"/>
	<path class="st2" d="M1374.8,546.6c0.7-5.1-5.9-9.6-9.1-4.2c-3.2,5.3,2.3,17.4,13.5,18.6C1374.6,557.4,1374.1,551.6,1374.8,546.6z"
		/>
</g>
<g>
	<path class="st3" d="M1567.7,439.9c-8.9-5-18.3,4.9-9,12.5c10.4,8.5,33.9,3.8,41.4-16.7C1591.3,451.1,1576.6,444.9,1567.7,439.9z"
		/>
	<path class="st3" d="M1635.7,440.3c12.1-1.4,9.5-16.6,0-19.6s-19.3-8.5-21.8-19.3C1606.9,422,1623.7,441.7,1635.7,440.3z"/>
	<path class="st3" d="M1616.3,458.8c11.3,4.3,15.2-8.8,6.4-14c-8.8-5.2-21.4-14.8-12.5-30.2C1596.1,431.2,1603.7,454,1616.3,458.8z"
		/>
	<path class="st3" d="M1587,382.3c21.8,0.4,35.4-21.6,30.4-32.7s-18.7-4-18.6,6C1598.9,365.6,1596.6,376.6,1587,382.3z"/>
	<path class="st3" d="M1579.2,398.1c-9.3-15.1,3-25,11.7-30.5s4.4-18.4-6.8-13.9C1571.7,358.8,1564.7,381.9,1579.2,398.1z"/>
	<path class="st3" d="M1552.4,372c-9.6,7.4-8,33.2,11.4,43.2c-5.7-9.6-2.6-20.3,2.2-29.1C1570.8,377.4,1562.1,364.6,1552.4,372z"/>
	<path class="st3" d="M1552.8,431.6c9.8-3.1,25.4-6,30.8,10.9c-3-21.6-25-31.2-37-25.1C1535.9,423,1543,434.6,1552.8,431.6z"/>
	<path class="st3" d="M1574.8,400c-12.1,0.3-10.9,15.8-1.6,19.5c9.2,3.8,18.5,10.1,20.1,21.1C1601.9,420.7,1586.9,399.6,1574.8,400z
		"/>
	<path class="st3" d="M1604.9,379.7c-11.5,3.9-18.3,28.9-3.2,44.5c-2.4-10.9,4.1-20.1,11.5-26.8
		C1620.6,390.7,1616.4,375.8,1604.9,379.7z"/>
	<path class="st3" d="M1636.3,349.9c-1.6-10.1-15.2-11.3-15.4,0.8c-0.2,13.4,18.2,28.9,38.9,22
		C1642.2,375.3,1637.9,360.1,1636.3,349.9z"/>
	<path class="st3" d="M1627.3,399.6c1.7,9.8,16.5,14.4,19.4,2.6s-14.4-31-35.8-26.7C1621.4,379.4,1625.6,389.8,1627.3,399.6z"/>
	<path class="st3" d="M1667.2,411.6c6.8-10-5-16.8-12.2-9.5c-7.2,7.4-19.4,17.4-32.3,5.1C1635.7,424.8,1659.7,422.7,1667.2,411.6z"
		/>
	<path class="st3" d="M1681.6,412.5c4.2-21.4-13.6-37.6-26.9-35.7c-11.9,1.8-9,15.1,1.2,15.4
		C1666.2,392.5,1681.9,394.8,1681.6,412.5z"/>
	<path class="st3" d="M1675.7,443.9c-5.9-8.4-13.5-22.3,0.9-32.7c-19.6,9.4-22,33.4-12.5,42.9
		C1672.7,462.6,1681.6,452.4,1675.7,443.9z"/>
	<path class="st3" d="M1635.8,447.5c-8.1,5.8-5.7,21.1,6.2,18.6c11.9-2.5,21.5-26.6,8.3-43.9
		C1651.4,433.3,1643.9,441.6,1635.8,447.5z"/>
	<path class="st3" d="M1609.8,499.5c12.1,0,26.5-21.5,17.2-41.2c-1.2,11.1-10.3,17.7-19.4,21.7
		C1598.4,484.1,1597.6,499.5,1609.8,499.5z"/>
	<path class="st3" d="M1639.3,492.6c13.4-0.8,27.5-20.3,19-40.4c3.9,17.3-10.9,22.7-20.9,25.1
		C1627.4,479.6,1627.3,493.3,1639.3,492.6z"/>
	<path class="st3" d="M1596.8,497.2c0.1-10.3,2.2-26,19.9-25.9c-21.4-3.8-37.4,14.1-35.2,27.4
		C1583.3,510.6,1596.6,507.5,1596.8,497.2z"/>
	<path class="st3" d="M1515.2,441c8.6,10.4,32.6,10.2,43.8-8.5c-11.6,13.4-24.8,4.6-32.6-2.1C1518.6,423.8,1507.5,431.7,1515.2,441z
		"/>
	<path class="st3" d="M1607.3,457c0-12.1-15.4-11.4-19.5-2.2c-4,9.1-10.7,18.2-21.7,19.4C1585.8,483.5,1607.3,469.2,1607.3,457z"/>
	<path class="st3" d="M1526.2,454.2c-9.7-3.4-23.9-10.4-18.1-27.2c-10.5,19,1.3,40,14.6,42.2
		C1534.6,471.2,1535.9,457.7,1526.2,454.2z"/>
	<path class="st3" d="M1573.4,481.2c-10.5-3.8-14.8-14.2-16.6-24c-1.8-9.8-16.6-14.2-19.4-2.4
		C1534.5,466.7,1552.1,485.7,1573.4,481.2z"/>
	<path class="st3" d="M1513.2,423.9c10-0.3,21,1.7,26.9,11.1c-0.1-21.8-22.4-34.9-33.4-29.6C1495.8,410.6,1503.2,424.2,1513.2,423.9
		z"/>
	<path class="st3" d="M1527.2,406.9c-5.7-9.6-2.6-20.3,2.2-29.1c4.8-8.7-4-21.5-13.6-14.1C1506.2,371.1,1507.8,396.9,1527.2,406.9z"
		/>
	<path class="st3" d="M1546.7,370.1c-19.3,10-21,34-11.2,43.2c8.8,8.2,17.4-2.3,11.2-10.5C1540.6,394.6,1532.6,380.9,1546.7,370.1z"
		/>
	<path class="st3" d="M1549.4,347.9c7.6-6.5,4-21.5-7.6-18s-19.3,28.2-4.8,44.4C1535,363.3,1541.8,354.4,1549.4,347.9z"/>
	<path class="st3" d="M1548.3,351.2c21.8,0.4,35.4-21.6,30.4-32.7s-18.7-4-18.6,6C1560.1,334.5,1557.8,345.5,1548.3,351.2z"/>
	<path class="st3" d="M1555.6,352.7c-10.3,0.2-13.3,13.5-1.4,15.3c13.3,2.1,31.2-14,27.2-35.4
		C1581.6,350.4,1565.9,352.5,1555.6,352.7z"/>
	<path class="st3" d="M1595.4,352.8c-11.2-13.8-0.2-25.2,7.7-31.8c7.9-6.5,2-18.8-8.5-12.9C1582.9,314.8,1578.9,338.5,1595.4,352.8z
		"/>
	<path class="st3" d="M1598.4,329.6c-9.7,7.2-0.8,17.6,8.4,12.9c9.2-4.6,24.1-10.1,32.2,5.7C1632.5,327.5,1609.2,321.6,1598.4,329.6
		z"/>
	<path class="st3" d="M1632.4,333.3c7.1,7,21.8,2.1,17.3-9.2c-4.5-11.3-29.7-16.9-44.6-1C1615.9,320.2,1625.3,326.2,1632.4,333.3z"
		/>
	<path class="st3" d="M1690,347c-17.7,1-20.5-14.6-21.2-24.9c-0.6-10.3-14.1-12.7-15.4-0.7C1652,334.8,1668.8,351.9,1690,347z"/>
	<path class="st3" d="M1650.4,354.8c10.3,0.4,25.9,2.8,25.4,20.6c4.4-21.3-13.2-37.8-26.5-36
		C1637.4,341.1,1640.1,354.4,1650.4,354.8z"/>
	<path class="st3" d="M1667.3,376.1c17.7,1.6,18.2,17.4,17.4,27.6c-0.8,10.2,12.1,14.6,15.1,2.9
		C1703.2,393.6,1689,374.3,1667.3,376.1z"/>
	<path class="st3" d="M1679.1,359.6c0.2,12.1,21.9,26.2,41.5,16.6c-11.1-1.1-17.9-10-22-19.1C1694.4,348,1678.9,347.4,1679.1,359.6z
		"/>
	<path class="st3" d="M1681.6,420.1c-9.9,0.8-15.8,15.1-4.3,19.1s32.1-11.5,29.9-33.2C1702.3,416.1,1691.6,419.3,1681.6,420.1z"/>
	<path class="st3" d="M1693.8,381.6c10.2,4.4,13.9,15,15.2,24.9c1.2,9.9,15.8,15.2,19.3,3.5C1731.7,398.3,1715.3,378.3,1693.8,381.6
		z"/>
	<path class="st3" d="M1721.9,427.9c1.9-11.9-11.6-13.2-15-3.5s-10.3,24-27.1,18.3C1698.9,453.2,1719.7,441.2,1721.9,427.9z"/>
	<path class="st3" d="M1702,451.8c-9.5,3.1-11.9,18.4,0.2,19.6s28.6-18.7,21.3-39.2C1721.2,443,1711.5,448.7,1702,451.8z"/>
	<path class="st3" d="M1681,479.6c0.4-10,3.3-20.8,13.2-26c-21.7-1.5-36.5,19.7-32.1,31C1666.4,496,1680.5,489.6,1681,479.6z"/>
	<path class="st3" d="M1700.5,474.9c-13.4-0.7-29.6,17.1-23.4,38c-2-17.6,13.4-21.3,23.6-22.6C1710.9,489,1712.6,475.5,1700.5,474.9
		z"/>
	<path class="st3" d="M1662.8,491.5c-11.8-0.9-27.4,18.9-19.9,38.8c2-10.7,11.4-16.4,20.5-19.7
		C1672.7,507.4,1674.7,492.4,1662.8,491.5z"/>
	<path class="st3" d="M1616.7,513.5L1616.7,513.5l-0.1-2.5h-2.7c2.4-3.7,4.2-8,4.9-13c-5.5,16.9-21.1,13.9-30.9,10.8
		s-16.9,8.5-6.2,14.1c7.3,3.8,18.4,1.7,26.6-5.4v205h8.3V533.1c12,1.2,28.8-17.9,22.4-38.4C1636.2,505.5,1626.3,510.8,1616.7,513.5z
		"/>
	<path class="st3" d="M1569.4,500.3c-0.3-10.6-14.1-13.6-15.9-1.2c-2,13.8,14.9,32,37,27.6C1572.2,527.1,1569.8,510.9,1569.4,500.3z
		"/>
	<path class="st3" d="M1547.1,485.7c1.3-9.9-11.5-18.6-17.8-8.2s4.6,33.8,26.2,36.1C1546.7,506.8,1545.8,495.6,1547.1,485.7z"/>
</g>
<g>
	<path class="st2" d="M1714.7,70c-13.1,11.3-12.3,42.3,12,56.3c-17.6-14.7-6.5-31.9,1.9-42.1S1726.5,59.9,1714.7,70z"/>
	<path class="st2" d="M1737.8,174.9c5.9-11.4,15.1-22.6,29.4-23.4c-24.6-13.5-53.4,3.4-54.3,19.1
		C1712,186.2,1732,186.4,1737.8,174.9z"/>
	<path class="st2" d="M1693.8,141.8c-7.9,13.4,7.8,21.3,16.4,11.2s23.6-23.9,41.1-9.2C1733.3,122.3,1702.7,126.9,1693.8,141.8z"/>
	<path class="st2" d="M1828.7,142.5c-12.7-2.1-26.1-7.5-31.3-20.9c-5.3,27.6,19.6,49.8,34.7,45.9
		C1847.4,163.7,1841.4,144.6,1828.7,142.5z"/>
	<path class="st2" d="M1834.4,124.2c-3.7-16.9-31.4-30.9-55.3-16.1c21.2-8.5,31.1,9.4,36.2,21.6
		C1820.3,142,1837.7,139.4,1834.4,124.2z"/>
	<path class="st2" d="M1797.3,94.1c10,8,28.2-0.2,21-14.1c-7.3-13.9-40.4-17.5-57.4,4.8C1774.3,79.6,1787.2,86,1797.3,94.1z"/>
	<path class="st2" d="M1721.8,103.9c28.1,1,45.2-24.8,40.1-41.4c-4.6-14.8-21-8.5-19.3,4.7C1744.2,80.3,1744.4,100.7,1721.8,103.9z"
		/>
	<path class="st2" d="M1753.3,95.7c-6.8,10.9-17,21.2-31.3,20.8c23.4,15.5,53.5,1.1,55.8-14.4C1780.1,86.6,1760.2,84.8,1753.3,95.7z
		"/>
	<path class="st2" d="M1740.9,131c14.4-0.6,24.6,9.7,31.5,20.5s26.8,8.9,24.4-6.6C1794.4,129.5,1764.2,115.3,1740.9,131z"/>
	<path class="st2" d="M1827.6,191.4c13.3,0.2,17.7-16.8,2.4-19.7c-17-3.2-40.8,16.7-36.6,44.5C1794,193.2,1814.4,191.2,1827.6,191.4
		z"/>
	<path class="st2" d="M1766.5,168.9c-12.9,0-21.9,17.7-7.6,24.1c14.3,6.3,42.5-11.4,41.9-39.5
		C1793.6,165.9,1779.4,168.9,1766.5,168.9z"/>
	<path class="st2" d="M1757.1,203.6c-7.8-10.7-17.8-28.6,0.7-42.1c-25.1,12.5-27.8,43.4-15.4,55.5
		C1753.5,227.8,1764.9,214.4,1757.1,203.6z"/>
	<path class="st2" d="M1789.3,208.8c0.4-15.5-17.1-14.8-19.8-1.8c-2.7,13-9,32.4-31.5,28C1764.3,245,1788.9,226.1,1789.3,208.8z"/>
	<path class="st2" d="M1699.4,220.6c12-5.6,31.4-12.2,41.3,8.5c-7.6-27-37.5-35.4-51.7-25.4C1676.3,212.6,1687.4,226.2,1699.4,220.6
		z"/>
	<path class="st2" d="M1732.7,193.2c-14.3-1.1-23.3-12.5-28.9-24c-5.6-11.6-25.6-11.9-25,3.8
		C1679.4,188.6,1707.8,206.1,1732.7,193.2z"/>
	<path class="st2" d="M1668.7,125.9c-3.1-12.5-22.5-17-25.2-1.5c-2.7,15.4,21.4,38.5,48.5,31.1
		C1678.2,151.4,1671.8,138.4,1668.7,125.9z"/>
	<path class="st2" d="M1692.8,196.7c-22.9,1.2-26.4-19-27.2-32.2c-0.8-13.2-18.1-16.4-19.9-1C1643.8,180.8,1665.4,203,1692.8,196.7z
		"/>
	<path class="st2" d="M1650.8,88.6c-15.5-0.2-14.6,17.4-1.5,19.8c13,2.5,32.5,8.5,28.5,31.1C1687.4,113.1,1668.1,88.8,1650.8,88.6z"
		/>
	<path class="st2" d="M1749.8,33.9c10.2-8.4,2.6-24.3-10.9-16.6c-15.1,8.6-20.2,39.2,1,57.6C1725.4,57.1,1739.6,42.4,1749.8,33.9z"
		/>
	<path class="st2" d="M1698,130.8c15.4,2.7,17.9-17.1,7.2-24.2c-10.7-7.2-20.7-17.6-19.8-31.9C1669.1,97.6,1682.6,128.1,1698,130.8z
		"/>
	<path class="st2" d="M1719.6,28.4c6.5-11.5,18.6-28,38.6-17c-21.9-17.6-51.1-7.2-56.9,9.1C1696.1,35.2,1713.1,39.9,1719.6,28.4z"/>
	<path class="st2" d="M1716.3,42.4c-14.4-6.2-42.4,11.8-41.5,39.9c7.2-12.5,21.3-15.7,34.1-15.7
		C1721.8,66.5,1730.7,48.6,1716.3,42.4z"/>
	<path class="st2" d="M1740.9,50.3c27.7,4.7,49.3-20.7,45.1-35.8c-4.2-15.1-23.1-8.7-24.9,4.1C1759.3,31.3,1754.2,44.9,1740.9,50.3z
		"/>
	<path class="st2" d="M1779.6,40.1c13.4-5.2,26.4,1.3,36.4,9.3s28.2-0.2,21-14.1C1829.7,21.4,1796.5,17.8,1779.6,40.1z"/>
	<path class="st2" d="M1780.4,65.9c11.8-6,31-13.1,41.5,7.2c-8.5-26.8-38.6-34.2-52.4-23.8C1757.1,58.6,1768.6,71.9,1780.4,65.9z"/>
	<path class="st2" d="M1849.5,81.4c6.5,11.1,26.4,9.9,24.6-5.7s-31.5-30.8-55.3-16C1833.2,59.7,1843,70.3,1849.5,81.4z"/>
	<path class="st2" d="M1845.6,79.3c-5.3,27.6,19.6,49.8,34.7,45.9c15.2-3.9,9.2-22.9-3.5-25C1864.2,98.1,1850.7,92.7,1845.6,79.3z"
		/>
	<path class="st2" d="M1842.1,88.3c2.1-13.1-14.1-19.9-19.2-5.2c-5.6,16.4,10.8,42.7,38.9,42.5
		C1839.2,121.8,1840.1,101.4,1842.1,88.3z"/>
	<path class="st2" d="M1890,147.7c-5.8-16.3-35.1-26.7-56.9-9c20-11.1,32.1,5.3,38.6,16.9C1878.3,167.2,1895.2,162.4,1890,147.7z"/>
	<path class="st2" d="M1829.2,195.2c27.8-3.6,40.5-32,32.7-47.4c-7-13.9-22.1-4.9-18.3,7.8C1847.4,168.3,1851,188.4,1829.2,195.2z"
		/>
	<path class="st2" d="M1849.7,190.2c-10.5,7.4-7.6,27.2,7.8,24c15.3-3.1,28-34,11.2-56.5C1869.9,172.1,1860.2,182.8,1849.7,190.2z"
		/>
	<path class="st2" d="M1860.1,219.6c-16.6-4.9-42.2,12.7-40.7,40.8c2.7-22.7,23.2-22.8,36.3-21.4
		C1868.9,240.4,1875,223.9,1860.1,219.6z"/>
	<path class="st2" d="M1838,210.3c0.6-15.5-17-15-19.8-2.1c-2.8,13-9.4,32.3-31.8,27.7C1812.6,246.2,1837.4,227.6,1838,210.3z"/>
	<path class="st2" d="M1787.5,225c-5.9,22.1-26.2,19.3-39,16s-21.2,12.2-7,18.6C1757.2,266.7,1785,252.9,1787.5,225z"/>
	<path class="st2" d="M1805.8,243.7c-15.5-2.4-38.1,22-30.3,49c3.8-13.9,16.7-20.5,29.2-23.7
		C1817.2,265.6,1821.3,246.1,1805.8,243.7z"/>
	<path class="st2" d="M1740.6,268.9c-11.7-8.4-13.4-22.8-12.2-35.6c1.2-12.8-15.7-23.5-23.3-9.8
		C1697.4,237.3,1712.5,267,1740.6,268.9z"/>
	<path class="st2" d="M1774.7,257.4c-7.9,12-22.2,14.4-35,13.7c-12.9-0.7-22.8,16.7-8.8,23.7c4.9,2.5,11.6,2,18.4-0.7v428.3h4.7
		V291.8C1764.7,285.5,1774.3,273.4,1774.7,257.4z"/>
	<path class="st2" d="M1717.2,264.5c-11.6-6.5-28.2-18.4-17.2-38.5c-17.5,22-6.9,51.1,9.4,56.8
		C1724.2,287.9,1728.8,270.9,1717.2,264.5z"/>
	<path class="st2" d="M1683.6,252.2c-1.8-12.7-20.7-19.2-24.9-4.1c-4.2,15.1,17.4,40.5,45.1,35.8
		C1690.5,278.5,1685.4,264.9,1683.6,252.2z"/>
	<path class="st2" d="M1652.9,219.3c12.6,2.8,25.7,8.8,30.1,22.5c6.8-27.3-16.9-50.8-32.3-47.7
		C1635.4,197.2,1640.4,216.6,1652.9,219.3z"/>
	<path class="st2" d="M1611.5,207c22.8,1.4,24.1,21.8,23.5,35c-0.7,13.2,16.1,18.3,19.6,3.2C1658.5,228.3,1639.4,203.9,1611.5,207z"
		/>
	<path class="st2" d="M1641.8,193.6c3.8-14.8-17.9-39.1-44.8-33.9c13.1,5,18.3,18.1,20.4,30.5S1638.1,208.5,1641.8,193.6z"/>
	<path class="st2" d="M1643.1,162.7c-13.1-5.9-17.6-19.7-18.9-32.5s-20-19.9-24.8-5C1594.6,140.1,1615.3,166.3,1643.1,162.7z"/>
	<path class="st2" d="M1620.1,83.7c-10.5,13.8-3.3,43.9,23.3,52.6c-20.2-10.7-12.9-29.8-6.8-41.6S1629.5,71.3,1620.1,83.7z"/>
	<path class="st2" d="M1651.5,73c13.6,1.9,20.4-14.9,5.1-19.9c-17-5.6-44,11.8-43.3,40.9C1616.8,70.5,1637.9,71.1,1651.5,73z"/>
	<path class="st2" d="M1674.9,47.8c12.3,3.9,26.2-10.4,14.4-20.7c-11.8-10.3-44-1.7-51.8,25.2C1648.3,42.7,1662.7,44,1674.9,47.8z"
		/>
</g>
</svg>
