<?xml version="1.0" encoding="utf-8"?>
<!-- Generator: Adobe Illustrator 24.0.3, SVG Export Plug-In . SVG Version: 6.00 Build 0)  -->
<svg version="1.1" id="tree.svg" xmlns="http://www.w3.org/2000/svg" xmlns:xlink="http://www.w3.org/1999/xlink" x="0px" y="0px"
	 viewBox="0 0 1890 722.5" style="enable-background:new 0 0 1890 722.5;" xml:space="preserve">
<style type="text/css">
	.st0{fill-rule:evenodd;clip-rule:evenodd;fill:#231815;}
	.st1{fill:#9BBD58;}
	.st2{fill-rule:evenodd;clip-rule:evenodd;fill:#709C45;}
	.st3{fill-rule:evenodd;clip-rule:evenodd;fill:#9BBD58;}
</style>
<g>
	<path id="SCROLL" class="st0" d="M107.2,646.1c0-2.6-1.5-4.1-3.4-4.1c-1.5,0-2.8,1-3.2,2.4L100,646c-0.4,1-0.8,1.9-1.8,1.9
		c-0.9,0-1.5-0.8-1.5-2c0-1,0.4-1.9,1.1-2.6l-1.2-1c-1,0.9-1.5,2.2-1.5,3.6c0,2.2,1.4,3.9,3.2,3.9c1.4-0.1,2.7-1,3.1-2.4l0.7-1.6
		c0.5-1.1,0.8-1.9,1.9-1.9c1,0,1.7,0.8,1.7,2.2c0,1.2-0.5,2.3-1.4,3.1l1.3,1.1C106.5,649.1,107.2,647.6,107.2,646.1z M107.2,634.4
		c0-1.4-0.6-2.8-1.7-3.7l-1.2,1c0.8,0.6,1.2,1.6,1.2,2.6c0,2.1-1.7,3.4-4.5,3.4s-4.5-1.4-4.5-3.4c0-0.9,0.4-1.7,1.1-2.3l-1.2-1
		c-0.9,0.9-1.5,2.1-1.5,3.3c0,3,2.3,5.3,6,5.3C104.8,639.5,107.2,637.3,107.2,634.4z M96.8,626v-1.8c0-1.7,0.5-2.6,1.9-2.6
		c1.4,0,2.1,0.9,2.1,2.6v1.8H96.8z M107,619.5l-5,2.9c-0.4-1.5-1.8-2.6-3.4-2.5c-2.5,0-3.4,1.8-3.4,4.2v3.9H107V626h-4.8v-1.9
		l4.8-2.7V619.5L107,619.5z M107.2,612.3c0-3-2.4-5.1-6-5.1s-6,2.1-6,5.1c0,3,2.3,5.1,6,5.1S107.2,615.3,107.2,612.3L107.2,612.3z
		 M105.5,612.3c0,2-1.8,3.2-4.5,3.2s-4.4-1.3-4.4-3.2s1.7-3.2,4.4-3.2S105.5,610.4,105.5,612.3L105.5,612.3z M107,604v-6.7h-1.6v5
		H95.3v1.9L107,604L107,604z M107,594.4v-6.7h-1.6v5H95.3v1.9L107,594.4L107,594.4z"/>
	<g>
		<path class="st1" d="M104.7,390.1c-10.2,8.7-9.5,32.7,9.3,43.5c-13.6-11.4-5-24.6,1.4-32.6C122,393.1,113.8,382.2,104.7,390.1z"/>
		<path class="st1" d="M122.6,471.1c4.6-8.9,11.6-17.4,22.7-18.1c-19.1-10.4-41.3,2.7-42,14.8C102.6,479.8,118,479.9,122.6,471.1z"
			/>
		<path class="st1" d="M88.6,445.5c-6.1,10.4,6,16.5,12.7,8.7c6.6-7.8,18.3-18.5,31.8-7.1C119.1,430.4,95.4,433.9,88.6,445.5z"/>
		<path class="st1" d="M192.8,446.1c-9.8-1.6-20.2-5.7-24.2-16.1c-4.1,21.3,15.1,38.5,26.8,35.5
			C207.2,462.4,202.6,447.7,192.8,446.1z"/>
		<path class="st1" d="M197.2,431.9c-2.9-13.1-24.3-23.9-42.7-12.4c16.4-6.6,24.1,7.2,27.9,16.7
			C186.3,445.6,199.8,443.7,197.2,431.9z"/>
		<path class="st1" d="M168.5,408.6c7.8,6.2,21.8-0.2,16.2-10.9c-5.6-10.7-31.2-13.6-44.4,3.8C150.7,397.5,160.7,402.4,168.5,408.6z
			"/>
		<path class="st1" d="M110.2,416.2c21.7,0.8,34.9-19.1,31-31.9c-3.6-11.5-16.3-6.5-14.9,3.6C127.5,397.9,127.7,413.8,110.2,416.2z"
			/>
		<path class="st1" d="M134.6,409.8c-5.3,8.4-13.1,16.4-24.3,16.1c18.1,12,41.3,0.9,43.1-11.1C155.3,402.9,139.9,401.4,134.6,409.8z
			"/>
		<path class="st1" d="M124.9,437.2c11.1-0.4,19,7.5,24.3,15.8c5.4,8.4,20.7,6.9,18.9-5.1C166.3,436,142.9,425.1,124.9,437.2z"/>
		<path class="st1" d="M191.9,483.8c10.2,0.2,13.7-13,1.9-15.2c-13.2-2.5-31.5,12.9-28.3,34.4C166,485.3,181.7,483.7,191.9,483.8z"
			/>
		<path class="st1" d="M144.8,466.4c-9.9,0-16.9,13.7-5.9,18.6c11.1,4.9,32.8-8.9,32.4-30.5C165.6,464.2,154.7,466.5,144.8,466.4z"
			/>
		<path class="st1" d="M137.4,493.2c-6-8.3-13.7-22.1,0.5-32.6c-19.4,9.7-21.5,33.6-11.9,42.9C134.8,511.9,143.5,501.6,137.4,493.2z
			"/>
		<path class="st1" d="M162.4,497.3c0.4-12-13.2-11.5-15.3-1.4s-7,25.1-24.3,21.7C143,525.3,162.1,510.7,162.4,497.3z"/>
		<path class="st1" d="M92.9,506.4c9.3-4.4,24.3-9.4,31.9,6.5c-5.9-20.8-29-27.4-39.9-19.7C75.1,500.2,83.7,510.8,92.9,506.4z"/>
		<path class="st1" d="M118.7,485.2c-11.1-0.8-18-9.7-22.4-18.6c-4.4-8.9-19.8-9.2-19.3,2.9C77.4,481.6,99.3,495.2,118.7,485.2z"/>
		<path class="st1" d="M69.2,433.3c-2.4-9.7-17.4-13.1-19.5-1.2c-2.1,11.9,16.6,29.7,37.5,24C76.5,453,71.6,442.9,69.2,433.3z"/>
		<path class="st1" d="M87.8,488c-17.6,0.9-20.4-14.7-21-24.9c-0.6-10.2-14-12.7-15.4-0.7C49.8,475.6,66.7,492.8,87.8,488z"/>
		<path class="st1" d="M55.3,404.4c-12-0.2-11.3,13.4-1.2,15.3c10,1.9,25.1,6.6,22,24C83.6,423.3,68.7,404.6,55.3,404.4z"/>
		<path class="st1" d="M131.8,362.1c7.9-6.5,2-18.8-8.4-12.8c-11.6,6.6-15.6,30.2,0.8,44.5C113,380,123.9,368.7,131.8,362.1z"/>
		<path class="st1" d="M91.8,437c11.9,2.1,13.8-13.2,5.5-18.7c-8.2-5.5-16-13.6-15.3-24.7C69.4,411.3,79.9,434.9,91.8,437z"/>
		<path class="st1" d="M108.5,357.9c5-8.9,14.3-21.7,29.8-13.1c-16.9-13.6-39.5-5.5-43.9,7.1C90.4,363.1,103.4,366.7,108.5,357.9z"
			/>
		<path class="st1" d="M105.9,368.7c-11.1-4.8-32.8,9.1-32,30.9c5.5-9.7,16.5-12.1,26.4-12.2S117,373.4,105.9,368.7z"/>
		<path class="st1" d="M124.9,374.8c21.4,3.6,38.1-16,34.8-27.7c-3.3-11.6-17.9-6.7-19.2,3.1C139.1,360.1,135.2,370.7,124.9,374.8z"
			/>
		<path class="st1" d="M154.8,366.9c10.4-4,20.4,1,28.2,7.2c7.8,6.2,21.8-0.2,16.2-10.9C193.6,352.5,168,349.6,154.8,366.9z"/>
		<path class="st1" d="M155.4,386.8c9.1-4.7,24-10.1,32.1,5.5c-6.5-20.7-29.8-26.5-40.5-18.4C137.4,381.2,146.3,391.5,155.4,386.8z"
			/>
		<path class="st1" d="M208.9,398.8c5,8.6,20.4,7.6,19.1-4.4c-1.4-12-24.3-23.8-42.8-12.3C196.3,382,203.8,390.2,208.9,398.8z"/>
		<path class="st1" d="M205.9,397.2c-4.1,21.3,15.1,38.5,26.8,35.5c11.7-3,7.2-17.7-2.7-19.3C220.2,411.7,209.8,407.6,205.9,397.2z"
			/>
		<path class="st1" d="M203.2,404.1c1.6-10.1-10.9-15.4-14.9-4c-4.3,12.7,8.3,33,30.1,32.8C201,430.1,201.6,414.3,203.2,404.1z"/>
		<path class="st1" d="M240.2,450.1c-4.5-12.6-27.1-20.6-43.9-6.9c15.5-8.6,24.8,4.1,29.9,13.1C231.1,465.1,244.2,461.4,240.2,450.1
			z"/>
		<path class="st1" d="M193.2,486.8c21.5-2.8,31.3-24.7,25.2-36.6c-5.5-10.7-17.1-3.8-14.1,6C207.2,466,210,481.5,193.2,486.8z"/>
		<path class="st1" d="M209,483c-8.1,5.7-5.8,21,6,18.6c11.9-2.4,21.7-26.2,8.7-43.7C224.7,468.9,217.1,477.1,209,483z"/>
		<path class="st1" d="M217.1,505.6c-12.9-3.8-32.6,9.8-31.4,31.5c2.1-17.5,17.9-17.6,28.1-16.6C223.9,521.7,228.5,509,217.1,505.6z
			"/>
		<path class="st1" d="M200,498.4c0.4-12-13.2-11.6-15.3-1.6c-2.1,10-7.2,25-24.6,21.4C180.4,526.2,199.5,511.8,200,498.4z"/>
		<path class="st1" d="M161,509.8c-4.6,17.1-20.2,14.9-30.2,12.3c-9.9-2.6-16.4,9.4-5.5,14.4C137.5,542,159,531.4,161,509.8z"/>
		<path class="st1" d="M175.1,524.2c-12-1.9-29.4,17-23.4,37.9c3-10.7,12.9-15.8,22.6-18.3C183.9,541.2,187.1,526.1,175.1,524.2z"/>
		<path class="st1" d="M115.3,516.3c1-9.9-12.1-18.2-18-7.5c-5.9,10.6,5.8,33.6,27.5,35.1C115.7,537.3,114.4,526.2,115.3,516.3z"/>
		<path class="st1" d="M124,545.5c-9.9-0.5-17.6,12.9-6.8,18.3c0.6,0.4,1.3,0.6,2.1,0.8v132.1l-15.2-41l-4.2,1.6l18.4,49.5l1-0.4v16
			h4.7V565c11.5-0.6,26.6-12.3,27-30.2C145,544.2,134,546,124,545.5z"/>
		<path class="st1" d="M100.7,554.5c11.4,3.9,14.9-9.1,6-14.1c-8.9-5-21.7-14.2-13.2-29.7C79.8,527.5,88,550.1,100.7,554.5z"/>
		<path class="st1" d="M80.7,530.8c-1.3-9.8-16-14.9-19.2-3.1c-3.3,11.6,13.4,31.3,34.8,27.7C86,551.1,82.1,540.7,80.7,530.8z"/>
		<path class="st1" d="M57,505.4c9.8,2.1,19.9,6.8,23.3,17.4c5.2-21-13.1-39.2-25-36.9C43.4,488.3,47.2,503.3,57,505.4z"/>
		<path class="st1" d="M25,495.9c17.6,1.1,18.6,16.8,18.2,27c-0.5,10.2,12.4,14.1,15.1,2.5C61.3,512.4,46.5,493.4,25,495.9z"/>
		<path class="st1" d="M48.4,485.5c3-11.5-13.9-30.2-34.6-26.1c10.1,3.8,14.1,14,15.7,23.5C31.1,492.5,45.5,497,48.4,485.5z"/>
		<path class="st1" d="M49.4,461.7c-10.1-4.6-13.6-15.2-14.6-25.1c-1-9.9-15.4-15.4-19.1-3.8C11.9,444.2,27.9,464.4,49.4,461.7z"/>
		<path class="st1" d="M49.6,441.3c-15.7-8.3-10-23.1-5.3-32.1c4.7-9.1-5.5-18.1-12.8-8.5C23.4,411.2,29,434.5,49.6,441.3z"/>
		<path class="st1" d="M59.8,376.9c-13.2-4.3-34,9.1-33.5,31.6c2.7-18.1,19.1-17.7,29.5-16.2S71.6,380.8,59.8,376.9z"/>
		<path class="st1" d="M44.2,346.9c0,0-0.4,2.8-2.1,5.7c2.1,0,5.2-5.5,5.2-5.5s2.8,1.3,5.8,2.1l1.2,1.3l5.5,7.2
			c-6.4,3.8-12.2,9.9-14.6,18.5c8.2-7.5,19.3-6.4,28.8-3.5s20.2-8.1,11.2-16c-3.8-3.4-10.6-4.1-17.6-2.2c-1.7-0.9-3-1.8-3.2-2
			c-0.4-0.4-0.2-2.1,0-3.3c4.4-0.9,9-2.9,11.3-7c3.9-7.2,2.2-9.8,2.5-13.2c0.1-1.2,1.9-4.2,1.9-4.2s2.9-0.5,3.9-0.9
			c-0.4-0.9-3-1.3-3-1.3s-0.6-4.7-8.1-4.7c-7.5,0-19.6,15.8-23,20.2c-3.4,4.3-25.8,12.8-24.9,14.7C25.9,354.7,44.2,346.9,44.2,346.9
			z M55.5,349.7c0.2,0,0.4,0.1,0.6,0.1c1.3,0.1,3.5,0.2,5.9-0.2c-0.3,0.8-0.6,1.9-0.5,2.4c0,0.4,2.3,1.7,4.8,2.9
			c-1.5,0.4-3,1.1-4.6,1.8c-0.5,0-0.9,0-1.3-0.2c-1.8-0.7-4.7-6-5.1-6.4C55.4,350.2,55.5,350,55.5,349.7z"/>
	</g>
</g>
<g>
	<path class="st2" d="M274.3,583.6c-4.3-2.5-8.9,2.4-4.4,6.1c5,4.2,16.5,1.8,20.1-8.1C285.7,589,278.6,586.1,274.3,583.6z"/>
	<path class="st2" d="M307.4,583.8c5.9-0.7,4.6-8.1,0-9.5s-9.3-4.1-10.6-9.4C293.3,574.9,301.5,584.5,307.4,583.8z"/>
	<path class="st2" d="M301,586c-4.3-2.5-10.4-7.2-6.1-14.6c-6.8,8.1-3.1,19.1,3,21.4C303.4,594.9,305.3,588.5,301,586z"/>
	<path class="st2" d="M283.7,555.6c10.6,0.2,17.2-10.5,14.8-15.9s-9.1-1.9-9.1,2.9C289.5,547.6,288.3,552.9,283.7,555.6z"/>
	<path class="st2" d="M279.9,563.3c-4.6-7.3,1.4-12.2,5.6-14.8s2.1-8.9-3.3-6.7C276.2,544.3,272.8,555.4,279.9,563.3z"/>
	<path class="st2" d="M266.9,550.7c-4.7,3.6-3.9,16.1,5.5,21c-2.8-4.6-1.3-9.9,1.1-14.1C275.8,553.3,271.6,547.1,266.9,550.7z"/>
	<path class="st2" d="M267.1,579.6c4.8-1.5,12.3-2.9,14.9,5.3c-1.4-10.5-12.2-15.2-17.9-12.2C258.9,575.4,262.3,581.1,267.1,579.6z"
		/>
	<path class="st2" d="M277.7,564.2c-5.9,0.2-5.3,7.7-0.8,9.5c4.5,1.8,9,4.9,9.7,10.3C290.9,574.3,283.7,564.1,277.7,564.2z"/>
	<path class="st2" d="M292.4,554.4c-5.6,1.9-8.9,14-1.6,21.6c-1.2-5.3,2-9.7,5.6-13C300,559.7,298,552.5,292.4,554.4z"/>
	<path class="st2" d="M307.6,539.9c-0.8-4.9-7.4-5.5-7.5,0.4c-0.1,6.5,8.8,14,18.9,10.7C310.5,552.2,308.4,544.9,307.6,539.9z"/>
	<path class="st2" d="M303.3,564.1c0.8,4.8,8,7,9.5,1.3s-7-15-17.4-13C300.4,554.2,302.4,559.3,303.3,564.1z"/>
	<path class="st2" d="M322.6,569.9c3.3-4.8-2.4-8.2-5.9-4.6c-3.5,3.6-9.5,8.4-15.7,2.5C307.4,576.3,319,575.3,322.6,569.9z"/>
	<path class="st2" d="M329.6,570.4c2-10.4-6.6-18.3-13-17.3c-5.8,0.9-4.4,7.3,0.6,7.4C322.2,560.6,329.8,561.7,329.6,570.4z"/>
	<path class="st2" d="M326.8,585.6c-2.9-4.1-6.6-10.8,0.5-15.9c-9.5,4.6-10.7,16.2-6.1,20.8C325.3,594.7,329.7,589.7,326.8,585.6z"
		/>
	<path class="st2" d="M307.4,587.3c-3.9,2.8-2.8,10.3,3,9.1c5.8-1.2,10.4-12.9,4-21.3C315,580.4,311.3,584.5,307.4,587.3z"/>
	<path class="st2" d="M303.1,592.5c-0.6,5.4-5,8.6-9.5,10.6c-4.4,2-4.8,9.5,1.1,9.5C300.6,612.6,307.6,602.1,303.1,592.5z"/>
	<path class="st2" d="M309.1,609.2c6.5-0.4,13.3-9.9,9.2-19.6c1.9,8.4-5.3,11-10.1,12.2C303.3,602.9,303.3,609.6,309.1,609.2z"/>
	<path class="st2" d="M280.9,612.2c0.9,5.8,7.4,4.3,7.4-0.7c0.1-5,1-12.6,9.7-12.6C287.7,597,279.9,605.7,280.9,612.2z"/>
	<path class="st2" d="M248.8,584.2c4.2,5,15.9,5,21.3-4.1c-5.6,6.5-12,2.2-15.9-1C250.5,575.8,245.1,579.6,248.8,584.2z"/>
	<path class="st2" d="M293.6,592c0-5.9-7.5-5.5-9.5-1.1c-2,4.4-5.2,8.8-10.6,9.5C283.1,604.8,293.6,597.9,293.6,592z"/>
	<path class="st2" d="M254.1,590.6c-4.7-1.7-11.6-5.1-8.8-13.2c-5.1,9.2,0.6,19.4,7.1,20.5C258.2,598.8,258.9,592.3,254.1,590.6z"/>
	<path class="st2" d="M277.1,603.7c-5.1-1.8-7.2-6.9-8.1-11.6s-8.1-6.9-9.5-1.2C258.2,596.6,266.7,605.9,277.1,603.7z"/>
	<path class="st2" d="M247.9,575.8c4.8-0.2,10.2,0.8,13.1,5.4c-0.1-10.6-10.9-16.9-16.2-14.4C239.4,569.4,243,576,247.9,575.8z"/>
	<path class="st2" d="M254.7,567.6c-2.8-4.6-1.3-9.9,1.1-14.1c2.3-4.3-1.9-10.4-6.6-6.9C244.5,550.2,245.3,562.7,254.7,567.6z"/>
	<path class="st2" d="M264.1,549.8c-9.4,4.9-10.2,16.5-5.4,21c4.3,4,8.5-1.2,5.5-5.1C261.1,561.6,257.3,555,264.1,549.8z"/>
	<path class="st2" d="M265.4,539c3.7-3.1,2-10.4-3.7-8.8c-5.6,1.7-9.4,13.7-2.4,21.6C258.4,546.4,261.7,542.1,265.4,539z"/>
	<path class="st2" d="M264.9,540.5c10.6,0.2,17.2-10.5,14.8-15.9c-2.4-5.4-9.1-1.9-9.1,2.9C270.6,532.4,269.5,537.8,264.9,540.5z"/>
	<path class="st2" d="M268.4,541.2c-5,0.1-6.5,6.5-0.7,7.4c6.5,1,15.2-6.8,13.2-17.2C281.1,540.1,273.5,541.2,268.4,541.2z"/>
	<path class="st2" d="M287.8,541.3c-5.4-6.7-0.1-12.2,3.7-15.5c3.9-3.2,1-9.2-4.1-6.2C281.7,522.8,279.7,534.4,287.8,541.3z"/>
	<path class="st2" d="M289.2,530.1c-4.7,3.5-0.4,8.5,4.1,6.3c4.4-2.2,11.7-4.9,15.6,2.8C305.8,529,294.4,526.2,289.2,530.1z"/>
	<path class="st2" d="M305.7,531.8c3.5,3.4,10.6,1,8.4-4.4c-2.1-5.5-14.4-8.2-21.7-0.5C297.7,525.5,302.3,528.4,305.7,531.8z"/>
	<path class="st2" d="M333.7,538.5c-8.6,0.5-10-7.1-10.3-12.1c-0.3-5-6.8-6.2-7.5-0.3C315.3,532.6,323.4,540.9,333.7,538.5z"/>
	<path class="st2" d="M314.4,542.3c5,0.2,12.6,1.4,12.3,10c2.1-10.4-6.4-18.3-12.9-17.5C308.2,535.6,309.5,542.1,314.4,542.3z"/>
	<path class="st2" d="M322.7,552.7c8.6,0.7,8.9,8.5,8.5,13.4c-0.4,5,5.9,7.1,7.4,1.4C340.1,561.2,333.2,551.7,322.7,552.7z"/>
	<path class="st2" d="M328.4,544.6c0.1,5.9,10.7,12.7,20.1,8.1c-5.4-0.5-8.6-4.8-10.7-9.3C335.8,539,328.3,538.7,328.4,544.6z"/>
	<path class="st2" d="M329.7,574c-4.8,0.4-7.7,7.3-2.1,9.3c5.6,2,15.6-5.6,14.5-16.1C339.7,572.1,334.4,573.6,329.7,574z"/>
	<path class="st2" d="M335.5,555.3c5,2.1,6.7,7.3,7.4,12.1c0.6,4.8,7.7,7.4,9.3,1.7C354,563.4,346,553.7,335.5,555.3z"/>
	<path class="st2" d="M349.2,577.8c0.9-5.8-5.6-6.4-7.3-1.7c-1.6,4.7-5,11.6-13.1,8.9C338,590.1,348.1,584.2,349.2,577.8z"/>
	<path class="st2" d="M339.5,589.4c-4.6,1.5-5.8,8.9,0.1,9.5c5.9,0.6,13.9-9.1,10.4-19C348.8,585.2,344.1,587.9,339.5,589.4z"/>
	<path class="st2" d="M329.3,602.9c0.2-4.8,1.6-10.1,6.4-12.6c-10.6-0.7-17.7,9.6-15.6,15C322.3,610.8,329.1,607.8,329.3,602.9z"/>
	<path class="st2" d="M338.8,600.6c-6.5-0.3-14.4,8.3-11.4,18.4c-1-8.5,6.5-10.4,11.5-11C343.8,607.5,344.7,600.9,338.8,600.6z"/>
	<path class="st2" d="M320.5,608.7c-5.8-0.5-13.3,9.2-9.6,18.8c1-5.2,5.5-8,10-9.6C325.3,616.4,326.3,609.2,320.5,608.7z"/>
	<path class="st2" d="M298.1,619.4c-3.5,1-5.2,5.5-3.3,8v95.5h3.1v-94c5.8,0.8,14.2-8.5,11.1-18.6
		C307.6,615.5,302.8,618,298.1,619.4z"/>
	<path class="st2" d="M281.1,623.9c5.8,3,16.5-1.6,18-12c-2.7,8.2-10.2,6.7-15,5.2C279.4,615.5,275.9,621.2,281.1,623.9z"/>
	<path class="st2" d="M275.1,613c-0.2-5.2-6.9-6.6-7.7-0.6c-1,6.7,7.3,15.6,18,13.4C276.5,626,275.3,618.1,275.1,613z"/>
	<path class="st2" d="M264.3,605.9c0.6-4.8-5.6-9.1-8.6-4c-3.1,5,2.2,16.4,12.7,17.5C264.1,616.1,263.7,610.7,264.3,605.9z"/>
</g>
<g>
	<path class="st3" d="M394.2,638.2c-2.9-1.6-5.9,1.6-2.9,4c3.3,2.7,11,1.2,13.4-5.4C401.8,641.8,397.1,639.8,394.2,638.2z"/>
	<path class="st3" d="M416.1,638.4c3.9-0.5,3.1-5.4,0-6.3c-3.1-1-6.2-2.7-7-6.2C406.8,632.4,412.2,638.8,416.1,638.4z"/>
	<path class="st3" d="M409.9,644.3c3.6,1.4,4.9-2.9,2.1-4.5s-6.9-4.8-4-9.7C403.4,635.4,405.8,642.8,409.9,644.3z"/>
	<path class="st3" d="M400.5,619.7c7,0.1,11.4-6.9,9.8-10.5c-1.6-3.6-6-1.3-6,1.9C404.2,614.3,403.5,617.8,400.5,619.7z"/>
	<path class="st3" d="M397.9,624.7c-3-4.9,1-8,3.8-9.9c2.8-1.8,1.4-5.9-2.2-4.5C395.5,612.1,393.3,619.5,397.9,624.7z"/>
	<path class="st3" d="M389.3,616.4c-3.1,2.4-2.6,10.7,3.6,13.9c-1.9-3.1-0.8-6.6,0.7-9.3C395.2,618,392.4,613.9,389.3,616.4z"/>
	<path class="st3" d="M389.4,635.5c3.2-1,8.2-1.9,9.9,3.5c-1-6.9-8-10.1-11.9-8C384,632.8,386.3,636.5,389.4,635.5z"/>
	<path class="st3" d="M396.5,625.3c-3.9,0.1-3.5,5.1-0.5,6.3c3,1.2,6,3.2,6.5,6.8C405.2,632,400.4,625.2,396.5,625.3z"/>
	<path class="st3" d="M406.3,618.8c-3.7,1.2-5.9,9.3-1,14.3c-0.8-3.5,1.3-6.5,3.7-8.6C411.2,622.4,410,617.6,406.3,618.8z"/>
	<path class="st3" d="M416.3,609.2c-0.5-3.2-4.9-3.6-4.9,0.3c-0.1,4.3,5.8,9.3,12.5,7.1C418.2,617.4,416.8,612.5,416.3,609.2z"/>
	<path class="st3" d="M413.4,625.2c0.5,3.2,5.3,4.6,6.2,0.8c1-3.8-4.7-10-11.6-8.6C411.5,618.7,412.9,622.1,413.4,625.2z"/>
	<path class="st3" d="M426.3,629.1c2.2-3.2-1.6-5.5-3.9-3.1c-2.3,2.4-6.2,5.6-10.4,1.7C416.1,633.4,423.8,632.6,426.3,629.1z"/>
	<path class="st3" d="M430.9,629.4c1.4-6.9-4.3-12.1-8.6-11.5c-3.8,0.6-2.9,4.9,0.4,4.9C426,622.9,431,623.7,430.9,629.4z"/>
	<path class="st3" d="M429,639.5c-1.9-2.7-4.3-7.2,0.3-10.5c-6.3,3.1-7.1,10.8-4,13.8C428.1,645.6,430.9,642.2,429,639.5z"/>
	<path class="st3" d="M416.2,640.6c-2.6,1.9-1.8,6.8,2,6c3.8-0.8,6.9-8.6,2.7-14.2C421.2,636.1,418.8,638.7,416.2,640.6z"/>
	<path class="st3" d="M407.7,657.4c3.9,0,8.6-6.9,5.6-13.2c-0.4,3.6-3.3,5.7-6.3,7C404.1,652.4,403.8,657.4,407.7,657.4z"/>
	<path class="st3" d="M417.3,655.2c4.3-0.3,8.8-6.6,6.2-13c1.3,5.6-3.5,7.3-6.8,8.1C413.5,651,413.5,655.4,417.3,655.2z"/>
	<path class="st3" d="M403.6,656.7c0.1-3.3,0.7-8.4,6.4-8.4c-6.9-1.2-12.1,4.5-11.4,8.8C399.2,661,403.5,660,403.6,656.7z"/>
	<path class="st3" d="M377.3,638.6c2.7,3.3,10.5,3.3,14.2-2.7c-3.8,4.3-8,1.5-10.5-0.6S374.8,635.6,377.3,638.6z"/>
	<path class="st3" d="M407,643.7c0-3.9-5-3.6-6.3-0.7c-1.3,2.9-3.4,5.8-7,6.2C400.1,652.2,407,647.6,407,643.7z"/>
	<path class="st3" d="M380.9,642.8c-3.1-1.1-7.7-3.4-5.8-8.8c-3.4,6.2,0.5,12.9,4.7,13.6C383.5,648.3,384,643.9,380.9,642.8z"/>
	<path class="st3" d="M396.1,651.5c-3.4-1.2-4.7-4.5-5.3-7.7c-0.6-3.2-5.4-4.6-6.3-0.8C383.5,646.9,389.2,653,396.1,651.5z"/>
	<path class="st3" d="M376.6,633c3.2-0.1,6.8,0.5,8.7,3.6c-0.1-7-7.2-11.2-10.8-9.5C371.1,628.7,373.5,633.2,376.6,633z"/>
	<path class="st3" d="M381.2,627.6c-1.9-3.1-0.8-6.6,0.7-9.3c1.6-2.8-1.3-6.9-4.3-4.5C374.4,616,374.9,624.3,381.2,627.6z"/>
	<path class="st3" d="M387.4,615.7c-6.2,3.2-6.8,11-3.6,14c2.9,2.7,5.6-0.8,3.6-3.4C385.5,623.6,382.9,619.2,387.4,615.7z"/>
	<path class="st3" d="M388.3,608.6c2.5-2.1,1.3-6.9-2.5-5.8c-3.8,1.1-6.2,9.1-1.6,14.3C383.7,613.5,385.9,610.6,388.3,608.6z"/>
	<path class="st3" d="M387.9,609.6c7,0.1,11.4-6.9,9.8-10.5s-6-1.3-6,1.9C391.8,604.2,391.1,607.8,387.9,609.6z"/>
	<path class="st3" d="M390.3,610.1c-3.3,0.1-4.3,4.3-0.5,4.9c4.3,0.6,10.1-4.5,8.8-11.4C398.7,609.3,393.7,610.1,390.3,610.1z"/>
	<path class="st3" d="M403.1,610.1c-3.6-4.4-0.1-8.1,2.5-10.3c2.5-2.1,0.6-6-2.7-4.2C399.1,597.9,397.8,605.5,403.1,610.1z"/>
	<path class="st3" d="M404.1,602.7c-3.1,2.3-0.3,5.6,2.7,4.2c3-1.5,7.7-3.2,10.4,1.8C415.1,602,407.5,600.1,404.1,602.7z"/>
	<path class="st3" d="M415.1,603.8c2.3,2.3,7,0.7,5.6-2.9c-1.4-3.6-9.5-5.5-14.4-0.3C409.8,599.7,412.8,601.6,415.1,603.8z"/>
	<path class="st3" d="M433.6,608.2c-5.7,0.3-6.6-4.7-6.8-8s-4.5-4.1-4.9-0.3C421.4,604.3,426.8,609.9,433.6,608.2z"/>
	<path class="st3" d="M420.9,610.8c3.3,0.1,8.4,0.9,8.2,6.6c1.4-6.9-4.2-12.1-8.5-11.6C416.6,606.4,417.5,610.6,420.9,610.8z"/>
	<path class="st3" d="M426.3,617.6c5.7,0.5,5.9,5.6,5.6,8.9c-0.3,3.3,3.9,4.7,4.9,0.9C437.9,623.3,433.3,617.1,426.3,617.6z"/>
	<path class="st3" d="M430.1,612.3c0.1,3.9,7.1,8.4,13.4,5.3c-3.6-0.3-5.8-3.2-7.1-6.2C435,608.6,430.1,608.4,430.1,612.3z"/>
	<path class="st3" d="M430.9,631.9c-3.2,0.3-5.1,4.9-1.4,6.2c3.7,1.3,10.4-3.7,9.6-10.7C437.6,630.6,434.2,631.6,430.9,631.9z"/>
	<path class="st3" d="M434.9,619.4c3.3,1.4,4.5,4.8,4.9,8c0.4,3.2,5.1,4.9,6.2,1.1C447.1,624.8,441.8,618.4,434.9,619.4z"/>
	<path class="st3" d="M443.9,634.3c0.6-3.8-3.8-4.2-4.9-1.1s-3.3,7.7-8.8,5.9C436.5,642.5,443.2,638.6,443.9,634.3z"/>
	<path class="st3" d="M437.5,642.1c-3.1,1-3.8,5.9,0.1,6.3c3.9,0.4,9.2-6,6.9-12.7C443.6,639.2,440.5,641,437.5,642.1z"/>
	<path class="st3" d="M430.7,651c0.1-3.2,1-6.7,4.2-8.4c-7-0.5-11.7,6.4-10.3,10C426,656.3,430.6,654.2,430.7,651z"/>
	<path class="st3" d="M437,649.5c-4.3-0.3-9.5,5.5-7.5,12.3c-0.6-5.7,4.3-6.9,7.6-7.3C440.4,654.1,440.9,649.7,437,649.5z"/>
	<path class="st3" d="M424.9,654.8c-3.8-0.3-8.8,6.1-6.4,12.5c0.6-3.4,3.6-5.3,6.6-6.4C428.1,660,428.7,655.1,424.9,654.8z"/>
	<path class="st3" d="M410,661.9L410,661.9v-0.8h-0.9c0.8-1.2,1.4-2.6,1.6-4.2c-1.8,5.5-6.8,4.5-9.9,3.4c-3.2-1-5.5,2.7-2,4.5
		c2.3,1.2,5.9,0.5,8.6-1.8v59.7h2.7v-54.6c3.9,0.4,9.3-5.8,7.2-12.4C416.3,659.3,413.1,661,410,661.9z"/>
	<path class="st3" d="M394.8,657.6c-0.1-3.4-4.5-4.3-5.1-0.4c-0.6,4.4,4.8,10.3,11.9,8.9C395.7,666.3,394.9,661.1,394.8,657.6z"/>
	<path class="st3" d="M387.6,653c0.5-3.2-3.7-6-5.7-2.7c-2,3.4,1.5,10.9,8.4,11.6C387.4,659.8,387.2,656.1,387.6,653z"/>
</g>
<g>
	<path class="st2" d="M960.7,580.3c-5.4-3.1-11.1,3-5.5,7.6c6.3,5.2,20.6,2.3,25.1-10.1C975,587,966.1,583.4,960.7,580.3z"/>
	<path class="st2" d="M1002,580.6c7.3-0.9,5.8-10.1,0-11.9s-11.7-5.1-13.2-11.7C984.5,569.4,994.6,581.3,1002,580.6z"/>
	<path class="st2" d="M994,583.2c-5.3-3.2-13-9-7.6-18.3c-8.5,10.1-3.9,23.9,3.7,26.8C997,594.3,999.4,586.4,994,583.2z"/>
	<path class="st2" d="M972.4,545.4c13.2,0.2,21.4-13.1,18.4-19.8c-3-6.7-11.4-2.4-11.3,3.7C979.6,535.3,978.2,541.9,972.4,545.4z"/>
	<path class="st2" d="M967.6,554.9c-5.7-9.1,1.8-15.2,7.1-18.5c5.3-3.3,2.7-11.2-4.1-8.4C963.1,531.2,958.8,545.1,967.6,554.9z"/>
	<path class="st2" d="M951.4,539.2c-5.8,4.5-4.8,20.2,6.9,26.2c-3.5-5.8-1.6-12.3,1.4-17.6C962.6,542.4,957.3,534.6,951.4,539.2z"/>
	<path class="st2" d="M951.6,575.2c6-1.9,15.4-3.6,18.6,6.6c-1.8-13.1-15.2-18.9-22.4-15.2C941.4,570,945.7,577.1,951.6,575.2z"/>
	<path class="st2" d="M965,556.1c-7.3,0.2-6.6,9.6-1,11.8c5.6,2.3,11.2,6.1,12.2,12.8C981.4,568.6,972.4,555.9,965,556.1z"/>
	<path class="st2" d="M983.3,543.8c-7,2.4-11.1,17.5-1.9,27c-1.4-6.6,2.5-12.2,7-16.3C992.8,550.5,990.2,541.4,983.3,543.8z"/>
	<path class="st2" d="M1002.2,525.7c-1-6.1-9.2-6.8-9.4,0.5c-0.1,8.1,11,17.5,23.5,13.3C1005.8,541.1,1003.3,531.9,1002.2,525.7z"/>
	<path class="st2" d="M996.8,555.9c1,6,10,8.7,11.8,1.6c1.8-7.1-8.7-18.8-21.7-16.2C993.2,543.6,995.8,549.9,996.8,555.9z"/>
	<path class="st2" d="M1021,563.1c4.1-6-3-10.2-7.3-5.8c-4.3,4.5-11.8,10.5-19.6,3.1C1002,571.1,1016.5,569.9,1021,563.1z"/>
	<path class="st2" d="M1029.7,563.7c2.5-13-8.2-22.8-16.3-21.6c-7.2,1.1-5.5,9.1,0.7,9.3C1020.5,551.5,1030,552.9,1029.7,563.7z"/>
	<path class="st2" d="M1026.2,582.7c-3.6-5.1-8.2-13.5,0.6-19.8c-11.9,5.8-13.3,20.2-7.6,26C1024.3,594.1,1029.8,587.8,1026.2,582.7
		z"/>
	<path class="st2" d="M1002,584.9c-4.9,3.5-3.5,12.8,3.7,11.3c7.2-1.5,13-16.1,5-26.6C1011.5,576.2,1006.9,581.3,1002,584.9z"/>
	<path class="st2" d="M996.6,591.4c-0.8,6.7-6.3,10.7-11.8,13.2c-5.5,2.4-6,11.8,1.4,11.8C993.5,616.4,1002.3,603.4,996.6,591.4z"/>
	<path class="st2" d="M1004.1,612.2c8.1-0.5,16.6-12.3,11.5-24.5c2.4,10.5-6.6,13.7-12.7,15.2C996.9,604.4,996.8,612.7,1004.1,612.2
		z"/>
	<path class="st2" d="M969,616c1.2,7.2,9.2,5.3,9.3-0.9c0.1-6.3,1.3-15.8,12.1-15.7C977.4,597,967.7,607.9,969,616z"/>
	<path class="st2" d="M928.9,581c5.2,6.3,19.8,6.2,26.6-5.1c-7.1,8.1-15,2.7-19.8-1.3C930.9,570.5,924.2,575.3,928.9,581z"/>
	<path class="st2" d="M984.8,590.7c0-7.3-9.4-6.9-11.8-1.4c-2.4,5.5-6.5,11-13.2,11.8C971.7,606.8,984.8,598,984.8,590.7z"/>
	<path class="st2" d="M935.5,589c-5.9-2.1-14.5-6.3-11-16.5c-6.4,11.5,0.8,24.3,8.9,25.6C940.6,599.3,941.4,591.1,935.5,589z"/>
	<path class="st2" d="M964.2,605.3c-6.3-2.3-9-8.6-10.1-14.5c-1.1-6-10.1-8.6-11.8-1.4C940.6,596.5,951.2,608,964.2,605.3z"/>
	<path class="st2" d="M927.7,570.5c6-0.2,12.7,1,16.3,6.8c-0.1-13.2-13.6-21.2-20.2-18C917.1,562.6,921.6,570.8,927.7,570.5z"/>
	<path class="st2" d="M936.2,560.3c-3.5-5.8-1.6-12.3,1.4-17.6c2.9-5.3-2.4-13-8.2-8.6C923.4,538.6,924.4,554.2,936.2,560.3z"/>
	<path class="st2" d="M948,538c-11.7,6.1-12.7,20.7-6.8,26.2c5.3,5,10.6-1.4,6.8-6.4C944.2,552.8,939.4,544.5,948,538z"/>
	<path class="st2" d="M949.6,524.6c4.6-3.9,2.4-13-4.6-10.9c-7.1,2.1-11.7,17.1-3,26.9C940.8,533.8,945,528.4,949.6,524.6z"/>
	<path class="st2" d="M948.9,526.5c13.2,0.2,21.4-13.1,18.4-19.8c-3-6.7-11.4-2.4-11.3,3.7C956.1,516.3,954.7,523,948.9,526.5z"/>
	<path class="st2" d="M953.4,527.4c-6.3,0.1-8.1,8.1-0.9,9.3c8.1,1.3,18.9-8.5,16.5-21.4C969.1,526,959.6,527.3,953.4,527.4z"/>
	<path class="st2" d="M977.5,527.4c-6.8-8.3-0.1-15.3,4.7-19.3c4.8-4,1.2-11.4-5.1-7.8C969.9,504.4,967.5,518.8,977.5,527.4z"/>
	<path class="st2" d="M979.3,513.4c-5.8,4.4-0.5,10.7,5.1,7.8c5.5-2.8,14.6-6.1,19.5,3.5C1000,512.1,985.8,508.6,979.3,513.4z"/>
	<path class="st2" d="M999.9,515.6c4.3,4.2,13.2,1.3,10.5-5.5c-2.7-6.8-18-10.2-27.1-0.6C989.9,507.7,995.6,511.4,999.9,515.6z"/>
	<path class="st2" d="M1034.9,524c-10.7,0.6-12.5-8.9-12.8-15.1c-0.4-6.2-8.5-7.7-9.4-0.4C1011.8,516.6,1022,526.9,1034.9,524z"/>
	<path class="st2" d="M1010.8,528.7c6.2,0.2,15.7,1.7,15.4,12.5c2.7-13-8-22.9-16.1-21.8C1003,520.4,1004.6,528.4,1010.8,528.7z"/>
	<path class="st2" d="M1021.1,541.6c10.7,0.9,11.1,10.6,10.6,16.8s7.3,8.9,9.2,1.7C1042.8,552.3,1034.2,540.5,1021.1,541.6z"/>
	<path class="st2" d="M1028.2,531.6c0.1,7.3,13.3,15.9,25.1,10.1c-6.7-0.6-10.8-6-13.4-11.6C1037.5,524.6,1028.2,524.2,1028.2,531.6
		z"/>
	<path class="st2" d="M1029.8,568.3c-6,0.5-9.6,9.1-2.7,11.6c7,2.4,19.5-7,18.1-20.1C1042.3,565.9,1035.8,567.8,1029.8,568.3z"/>
	<path class="st2" d="M1037.2,544.9c6.2,2.7,8.4,9.1,9.2,15.1c0.7,6,9.6,9.2,11.7,2.2C1060.2,555.1,1050.2,543,1037.2,544.9z"/>
	<path class="st2" d="M1054.2,573c1.2-7.2-7.1-8-9.1-2.1c-2,5.9-6.3,14.5-16.4,11.1C1040.3,588.3,1052.8,581.1,1054.2,573z"/>
	<path class="st2" d="M1042.1,587.5c-5.8,1.9-7.2,11.2,0.1,11.9c7.3,0.7,17.3-11.3,13-23.8C1053.7,582.2,1047.9,585.6,1042.1,587.5z
		"/>
	<path class="st2" d="M1029.4,604.4c0.3-6,2-12.6,8-15.8c-13.2-0.9-22.1,11.9-19.4,18.8C1020.6,614.2,1029.1,610.4,1029.4,604.4z"/>
	<path class="st2" d="M1041.3,601.5c-8.1-0.4-17.9,10.4-14.2,23c-1.2-10.7,8.1-13,14.3-13.7C1047.5,610.1,1048.5,601.9,1041.3,601.5
		z"/>
	<path class="st2" d="M1018.4,611.6c-7.2-0.6-16.6,11.4-12,23.5c1.2-6.5,6.9-9.9,12.5-11.9C1024.3,621.2,1025.6,612.2,1018.4,611.6z
		"/>
	<path class="st2" d="M990.4,624.9c-4.4,1.2-6.5,6.8-4.1,9.9v87.7h3.8v-85.7c7.3,1,17.7-10.7,13.8-23.2
		C1002.2,620.1,996.3,623.2,990.4,624.9z"/>
	<path class="st2" d="M969.2,630.6c7.2,3.7,20.6-2,22.5-15c-3.3,10.2-12.7,8.4-18.7,6.5C967,620.1,962.7,627.2,969.2,630.6z"/>
	<path class="st2" d="M961.7,616.9c-0.2-6.5-8.6-8.2-9.6-0.7c-1.2,8.3,9.1,19.4,22.5,16.8C963.5,633.2,961.9,623.3,961.7,616.9z"/>
	<path class="st2" d="M948.2,608c0.8-6-7-11.3-10.8-5c-3.8,6.3,2.7,20.5,15.9,21.9C948,620.9,947.4,614.1,948.2,608z"/>
</g>
<g>
	<path class="st3" d="M1130.6,527.5c-4.4-2.5-9.1,2.4-4.5,6.2c5.1,4.2,16.9,1.9,20.6-8.3C1142.3,533.1,1135,530.1,1130.6,527.5z"/>
	<path class="st3" d="M1164.3,527.8c6-0.7,4.7-8.3,0-9.7c-4.7-1.5-9.6-4.2-10.8-9.6C1150,518.7,1158.3,528.5,1164.3,527.8z"/>
	<path class="st3" d="M1154.7,536.8c5.6,2.1,7.6-4.4,3.2-7c-4.4-2.6-10.6-7.4-6.2-15C1144.7,523.2,1148.4,534.6,1154.7,536.8z"/>
	<path class="st3" d="M1140.2,499c10.8,0.2,17.6-10.7,15.1-16.2c-2.5-5.5-9.3-2-9.3,3C1146,490.7,1144.9,496.2,1140.2,499z"/>
	<path class="st3" d="M1136.3,506.8c-4.6-7.5,1.5-12.4,5.8-15.2c4.3-2.7,2.2-9.1-3.4-6.9C1132.5,487.3,1129.1,498.8,1136.3,506.8z"
		/>
	<path class="st3" d="M1123,493.9c-4.8,3.7-4,16.5,5.6,21.4c-2.9-4.7-1.3-10.1,1.1-14.4C1132.1,496.5,1127.8,490.2,1123,493.9z"/>
	<path class="st3" d="M1123.2,523.4c4.9-1.5,12.6-3,15.3,5.4c-1.5-10.7-12.4-15.5-18.3-12.4C1114.9,519.2,1118.4,524.9,1123.2,523.4
		z"/>
	<path class="st3" d="M1134.1,507.7c-6,0.2-5.4,7.8-0.8,9.7s9.2,5,10,10.5C1147.5,518,1140.1,507.6,1134.1,507.7z"/>
	<path class="st3" d="M1149.1,497.7c-5.7,1.9-9.1,14.3-1.6,22.1c-1.2-5.4,2-10,5.7-13.3C1156.8,503.2,1154.8,495.8,1149.1,497.7z"/>
	<path class="st3" d="M1164.6,482.9c-0.8-5-7.6-5.6-7.6,0.4c-0.1,6.7,9,14.3,19.3,10.9C1167.5,495.5,1165.4,487.9,1164.6,482.9z"/>
	<path class="st3" d="M1160.1,507.6c0.8,4.9,8.2,7.1,9.6,1.3c1.5-5.9-7.2-15.4-17.8-13.3C1157.2,497.5,1159.3,502.7,1160.1,507.6z"
		/>
	<path class="st3" d="M1180,513.5c3.4-4.9-2.5-8.4-6-4.7c-3.6,3.7-9.6,8.6-16,2.6C1164.3,520.1,1176.2,519,1180,513.5z"/>
	<path class="st3" d="M1187,514c2.1-10.6-6.7-18.7-13.3-17.7c-5.9,0.9-4.5,7.5,0.6,7.6C1179.5,504,1187.2,505.2,1187,514z"/>
	<path class="st3" d="M1184.1,529.6c-2.9-4.2-6.7-11.1,0.5-16.2c-9.7,4.7-10.9,16.6-6.2,21.3C1182.7,538.8,1187,533.7,1184.1,529.6z
		"/>
	<path class="st3" d="M1164.4,531.3c-4,2.9-2.8,10.5,3.1,9.2c5.9-1.3,10.7-13.2,4.1-21.8C1172.1,524.3,1168.4,528.4,1164.4,531.3z"
		/>
	<path class="st3" d="M1151.4,557.1c6,0,13.2-10.7,8.6-20.4c-0.6,5.5-5.1,8.8-9.7,10.8C1145.8,549.4,1145.4,557.1,1151.4,557.1z"/>
	<path class="st3" d="M1166.1,553.6c6.7-0.4,13.6-10.1,9.5-20c2,8.6-5.4,11.3-10.4,12.5C1160.2,547.2,1160.2,554,1166.1,553.6z"/>
	<path class="st3" d="M1145,555.9c0.1-5.1,1.1-12.9,9.9-12.9c-10.6-1.9-18.6,7-17.5,13.6C1138.3,562.6,1144.9,561,1145,555.9z"/>
	<path class="st3" d="M1104.6,528.1c4.2,5.1,16.2,5.1,21.8-4.2c-5.8,6.6-12.3,2.3-16.2-1S1100.8,523.5,1104.6,528.1z"/>
	<path class="st3" d="M1150.2,536.1c0-6-7.7-5.6-9.7-1.1c-2,4.5-5.3,9-10.8,9.6C1139.6,549.1,1150.2,542,1150.2,536.1z"/>
	<path class="st3" d="M1110.1,534.7c-4.8-1.7-11.9-5.2-9-13.5c-5.2,9.5,0.7,19.8,7.2,20.9C1114.2,543,1114.9,536.3,1110.1,534.7z"/>
	<path class="st3" d="M1133.4,548c-5.2-1.9-7.3-7-8.2-11.9c-0.9-4.9-8.3-7.1-9.7-1.2C1114.2,540.8,1122.8,550.2,1133.4,548z"/>
	<path class="st3" d="M1103.6,519.6c4.9-0.2,10.4,0.8,13.4,5.5c-0.1-10.8-11.1-17.3-16.6-14.7C1095,513,1098.7,519.8,1103.6,519.6z"
		/>
	<path class="st3" d="M1110.6,511.2c-2.9-4.7-1.3-10.1,1.1-14.4c2.4-4.3-2-10.7-6.7-7C1100.1,493.4,1100.9,506.2,1110.6,511.2z"/>
	<path class="st3" d="M1120.2,492.9c-9.6,5-10.4,16.9-5.6,21.5c4.4,4.1,8.6-1.2,5.6-5.2C1117.2,505.1,1113.2,498.3,1120.2,492.9z"/>
	<path class="st3" d="M1121.5,481.9c3.8-3.2,2-10.7-3.8-9c-5.8,1.7-9.6,14-2.4,22C1114.4,489.5,1117.8,485.1,1121.5,481.9z"/>
	<path class="st3" d="M1120.9,483.5c10.8,0.2,17.6-10.7,15.1-16.2s-9.3-2-9.3,3C1126.8,475.2,1125.7,480.7,1120.9,483.5z"/>
	<path class="st3" d="M1124.6,484.3c-5.1,0.1-6.6,6.7-0.7,7.6c6.6,1,15.5-6.9,13.5-17.6C1137.5,483.1,1129.7,484.2,1124.6,484.3z"/>
	<path class="st3" d="M1144.3,484.3c-5.6-6.8-0.1-12.5,3.8-15.8c3.9-3.2,1-9.3-4.2-6.4C1138.1,465.6,1136.1,477.2,1144.3,484.3z"/>
	<path class="st3" d="M1145.8,472.9c-4.8,3.6-0.4,8.7,4.2,6.4c4.6-2.3,11.9-5,16,2.8C1162.7,471.9,1151.1,468.9,1145.8,472.9z"/>
	<path class="st3" d="M1162.7,474.6c3.5,3.5,10.8,1.1,8.6-4.5c-2.2-5.6-14.7-8.4-22.2-0.5C1154.5,468.3,1159.2,471.2,1162.7,474.6z"
		/>
	<path class="st3" d="M1191.2,481.4c-8.8,0.5-10.2-7.3-10.5-12.4c-0.3-5.1-7-6.3-7.6-0.4C1172.4,475.4,1180.8,483.9,1191.2,481.4z"
		/>
	<path class="st3" d="M1171.6,485.3c5.1,0.2,12.9,1.4,12.6,10.2c2.2-10.6-6.5-18.7-13.1-17.8
		C1165.1,478.5,1166.5,485.1,1171.6,485.3z"/>
	<path class="st3" d="M1180,495.9c8.8,0.8,9.1,8.6,8.7,13.7c-0.4,5.1,6,7.2,7.5,1.4C1197.7,504.6,1190.7,495,1180,495.9z"/>
	<path class="st3" d="M1185.8,487.7c0.1,6,10.9,13,20.6,8.2c-5.5-0.5-8.9-5-10.9-9.5C1193.3,481.9,1185.7,481.7,1185.8,487.7z"/>
	<path class="st3" d="M1187,517.8c-4.9,0.4-7.9,7.5-2.2,9.5s16-5.7,14.8-16.5C1197.3,515.8,1192,517.4,1187,517.8z"/>
	<path class="st3" d="M1193.1,498.6c5.1,2.2,6.9,7.4,7.5,12.4c0.6,4.9,7.8,7.5,9.6,1.7C1211.9,506.9,1203.8,497,1193.1,498.6z"/>
	<path class="st3" d="M1207,521.6c1-5.9-5.8-6.5-7.5-1.7c-1.7,4.8-5.1,11.9-13.5,9.1C1195.6,534.2,1205.9,528.2,1207,521.6z"/>
	<path class="st3" d="M1197.1,533.5c-4.7,1.5-5.9,9.1,0.1,9.7c6,0.6,14.2-9.3,10.6-19.5C1206.6,529.1,1201.8,531.9,1197.1,533.5z"/>
	<path class="st3" d="M1186.7,547.2c0.2-4.9,1.6-10.3,6.5-12.9c-10.8-0.8-18.1,9.8-15.9,15.4
		C1179.6,555.3,1186.5,552.1,1186.7,547.2z"/>
	<path class="st3" d="M1196.4,544.8c-6.7-0.4-14.7,8.5-11.6,18.9c-1-8.8,6.7-10.6,11.7-11.2C1201.6,551.9,1202.4,545.1,1196.4,544.8
		z"/>
	<path class="st3" d="M1177.8,553.1c-5.9-0.4-13.6,9.4-9.9,19.2c1-5.3,5.6-8.2,10.2-9.8C1182.7,561,1183.6,553.5,1177.8,553.1z"/>
	<path class="st3" d="M1154.9,564L1154.9,564v-1.2h-1.4c1.2-1.8,2.1-4,2.4-6.5c-2.7,8.4-10.5,6.9-15.3,5.3c-4.9-1.5-8.4,4.2-3.1,7
		c3.6,1.9,9.1,0.8,13.2-2.7v156.6h4.1V573.7c6,0.6,14.3-8.9,11.1-19.1C1164.6,560,1159.7,562.6,1154.9,564z"/>
	<path class="st3" d="M1131.4,557.4c-0.2-5.3-7-6.7-7.9-0.6c-1,6.8,7.4,15.9,18.4,13.7C1132.8,570.8,1131.6,562.7,1131.4,557.4z"/>
	<path class="st3" d="M1120.4,550.2c0.7-4.9-5.7-9.2-8.8-4.1c-3.1,5.2,2.3,16.8,13,17.9C1120.2,560.7,1119.8,555.1,1120.4,550.2z"/>
</g>
<g>
	<path class="st3" d="M1799.8,595.3c-3.8-2.1-7.9,2.1-3.9,5.4c4.5,3.7,14.6,1.6,17.8-7.2C1809.9,600.1,1803.6,597.4,1799.8,595.3z"
		/>
	<path class="st3" d="M1829,595.4c5.2-0.6,4.1-7.1,0-8.4c-4.1-1.3-8.3-3.7-9.4-8.3C1816.6,587.6,1823.9,596,1829,595.4z"/>
	<path class="st3" d="M1820.7,603.4c4.9,1.8,6.5-3.8,2.7-6c-3.8-2.2-9.2-6.4-5.4-13C1812,591.5,1815.3,601.3,1820.7,603.4z"/>
	<path class="st3" d="M1808.1,570.5c9.4,0.2,15.2-9.3,13.1-14s-8-1.7-8,2.6C1813.2,563.4,1812.2,568.1,1808.1,570.5z"/>
	<path class="st3" d="M1804.7,577.3c-4-6.5,1.3-10.7,5-13.1c3.7-2.4,1.9-7.9-2.9-6C1801.5,560.4,1798.5,570.4,1804.7,577.3z"/>
	<path class="st3" d="M1793.2,566.1c-4.1,3.2-3.4,14.3,4.9,18.6c-2.4-4.1-1.1-8.7,0.9-12.5C1801.1,568.4,1797.4,562.9,1793.2,566.1z
		"/>
	<path class="st3" d="M1793.4,591.7c4.2-1.3,10.9-2.6,13.2,4.7c-1.3-9.3-10.7-13.4-15.9-10.8C1786.1,588,1789.2,593,1793.4,591.7z"
		/>
	<path class="st3" d="M1802.8,578.1c-5.2,0.1-4.7,6.8-0.7,8.4c4,1.6,7.9,4.3,8.6,9.1C1814.5,587,1808,578,1802.8,578.1z"/>
	<path class="st3" d="M1815.8,569.4c-4.9,1.7-7.9,12.4-1.4,19.1c-1-4.7,1.8-8.6,4.9-11.5C1822.5,574.1,1820.7,567.7,1815.8,569.4z"
		/>
	<path class="st3" d="M1829.3,556.6c-0.7-4.3-6.5-4.9-6.6,0.3c-0.1,5.8,7.8,12.4,16.7,9.4C1831.8,567.5,1830,561,1829.3,556.6z"/>
	<path class="st3" d="M1825.4,578c0.7,4.2,7.1,6.2,8.3,1.1c1.2-5.1-6.2-13.3-15.4-11.5C1822.9,569.3,1824.7,573.8,1825.4,578z"/>
	<path class="st3" d="M1842.5,583.1c2.9-4.3-2.1-7.2-5.2-4.1c-3.1,3.2-8.3,7.5-13.9,2.2C1829,588.8,1839.3,587.9,1842.5,583.1z"/>
	<path class="st3" d="M1848.7,583.5c1.8-9.2-5.8-16.2-11.6-15.3c-5.1,0.8-3.9,6.5,0.5,6.6C1842.1,574.9,1848.9,575.9,1848.7,583.5z"
		/>
	<path class="st3" d="M1846.2,597c-2.5-3.6-5.8-9.6,0.4-14c-8.4,4-9.4,14.3-5.4,18.4C1844.9,605,1848.7,600.6,1846.2,597z"/>
	<path class="st3" d="M1829,598.5c-3.5,2.5-2.4,9.1,2.7,8c5.1-1.1,9.2-11.4,3.6-18.9C1835.7,592.4,1832.5,596,1829,598.5z"/>
	<path class="st3" d="M1817.9,620.9c5.2,0,11.4-9.2,7.4-17.7c-0.5,4.8-4.4,7.6-8.3,9.3C1813,614.3,1812.6,620.9,1817.9,620.9z"/>
	<path class="st3" d="M1830.6,617.9c5.8-0.3,11.8-8.7,8.2-17.4c1.7,7.4-4.7,9.8-9,10.8C1825.4,612.3,1825.4,618.2,1830.6,617.9z"/>
	<path class="st3" d="M1812.3,619.9c0-4.4,0.9-11.2,8.5-11.1c-9.2-1.6-16.1,6.1-15.1,11.8C1806.5,625.6,1812.2,624.3,1812.3,619.9z"
		/>
	<path class="st3" d="M1777.2,595.7c3.7,4.5,14,4.4,18.8-3.7c-5,5.8-10.7,2-14-0.9C1778.7,588.4,1773.9,591.7,1777.2,595.7z"/>
	<path class="st3" d="M1816.8,602.6c0-5.2-6.6-4.9-8.4-0.9c-1.7,3.9-4.6,7.8-9.3,8.3C1807.6,614,1816.8,607.9,1816.8,602.6z"/>
	<path class="st3" d="M1782,601.4c-4.2-1.5-10.3-4.5-7.8-11.7c-4.5,8.2,0.6,17.2,6.3,18.1C1785.6,608.7,1786.1,602.9,1782,601.4z"/>
	<path class="st3" d="M1802.2,613c-4.5-1.6-6.4-6.1-7.1-10.3c-0.8-4.2-7.1-6.1-8.3-1C1785.5,606.8,1793.1,614.9,1802.2,613z"/>
	<path class="st3" d="M1776.4,588.4c4.3-0.1,9,0.7,11.6,4.8c0-9.4-9.6-15-14.3-12.7C1768.9,582.7,1772.1,588.5,1776.4,588.4z"/>
	<path class="st3" d="M1782.4,581.1c-2.4-4.1-1.1-8.7,0.9-12.5c2.1-3.7-1.7-9.2-5.8-6.1C1773.4,565.7,1774.1,576.8,1782.4,581.1z"/>
	<path class="st3" d="M1790.8,565.3c-8.3,4.3-9,14.6-4.8,18.6c3.8,3.5,7.5-1,4.8-4.5C1788.2,575.8,1784.7,569.9,1790.8,565.3z"/>
	<path class="st3" d="M1791.9,555.8c3.3-2.8,1.7-9.2-3.3-7.7c-5,1.5-8.3,12.1-2.1,19.1C1785.8,562.4,1788.7,558.5,1791.9,555.8z"/>
	<path class="st3" d="M1791.5,557.2c9.4,0.2,15.2-9.3,13.1-14c-2.1-4.8-8-1.7-8,2.6C1796.5,550,1795.5,554.7,1791.5,557.2z"/>
	<path class="st3" d="M1794.6,557.8c-4.4,0.1-5.7,5.8-0.6,6.6c5.7,0.9,13.4-6,11.7-15.2C1805.8,556.8,1799,557.7,1794.6,557.8z"/>
	<path class="st3" d="M1811.7,557.9c-4.8-5.9-0.1-10.8,3.3-13.7c3.4-2.8,0.9-8.1-3.7-5.5C1806.3,541.5,1804.6,551.7,1811.7,557.9z"
		/>
	<path class="st3" d="M1813,547.9c-4.2,3.1-0.3,7.6,3.6,5.5c4-2,10.4-4.3,13.8,2.4C1827.6,547,1817.6,544.5,1813,547.9z"/>
	<path class="st3" d="M1827.6,549.5c3,3,9.4,0.9,7.4-4c-1.9-4.9-12.8-7.3-19.2-0.4C1820.5,543.9,1824.5,546.4,1827.6,549.5z"/>
	<path class="st3" d="M1852.3,555.4c-7.6,0.4-8.8-6.3-9.1-10.7c-0.3-4.4-6.1-5.5-6.6-0.3C1836,550.1,1843.2,557.5,1852.3,555.4z"/>
	<path class="st3" d="M1835.3,558.7c4.4,0.2,11.1,1.2,10.9,8.8c1.9-9.1-5.7-16.2-11.4-15.5C1829.7,552.8,1830.9,558.5,1835.3,558.7z
		"/>
	<path class="st3" d="M1842.6,567.9c7.6,0.7,7.8,7.5,7.5,11.9c-0.3,4.4,5.2,6.3,6.5,1.2C1858,575.4,1851.9,567.1,1842.6,567.9z"/>
	<path class="st3" d="M1847.6,560.8c0.1,5.2,9.4,11.3,17.8,7.1c-4.8-0.5-7.7-4.3-9.4-8.2C1854.2,555.8,1847.6,555.5,1847.6,560.8z"
		/>
	<path class="st3" d="M1848.7,586.8c-4.3,0.3-6.8,6.5-1.8,8.2c4.9,1.7,13.8-4.9,12.8-14.3C1857.6,585,1853,586.4,1848.7,586.8z"/>
	<path class="st3" d="M1854,570.2c4.4,1.9,6,6.4,6.5,10.7c0.5,4.3,6.8,6.5,8.3,1.5C1870.2,577.4,1863.2,568.8,1854,570.2z"/>
	<path class="st3" d="M1866,590.1c0.8-5.1-5-5.7-6.4-1.5c-1.5,4.2-4.4,10.3-11.6,7.9C1856.2,601,1865.1,595.8,1866,590.1z"/>
	<path class="st3" d="M1857.5,600.4c-4.1,1.3-5.1,7.9,0.1,8.4c5.2,0.5,12.3-8,9.1-16.8C1865.7,596.6,1861.6,599,1857.5,600.4z"/>
	<path class="st3" d="M1848.5,612.3c0.2-4.3,1.4-8.9,5.7-11.2c-9.3-0.6-15.7,8.5-13.8,13.3C1842.2,619.4,1848.2,616.6,1848.5,612.3z
		"/>
	<path class="st3" d="M1856.8,610.3c-5.8-0.3-12.7,7.3-10.1,16.3c-0.9-7.6,5.8-9.1,10.1-9.7C1861.3,616.4,1862,610.6,1856.8,610.3z"
		/>
	<path class="st3" d="M1840.6,617.4c-5.1-0.4-11.8,8.1-8.5,16.7c0.9-4.6,4.9-7,8.8-8.5C1844.9,624.3,1845.8,617.8,1840.6,617.4z"/>
	<path class="st3" d="M1820.8,626.9L1820.8,626.9l0-1.1h-1.2c1-1.6,1.8-3.4,2.1-5.6c-2.4,7.3-9.1,6-13.3,4.6s-7.3,3.7-2.7,6.1
		c3.1,1.6,7.9,0.7,11.4-2.3v93.9h3.6v-87.2c5.2,0.5,12.4-7.7,9.6-16.5C1829.2,623.4,1825,625.7,1820.8,626.9z"/>
	<path class="st3" d="M1800.5,621.2c-0.1-4.6-6.1-5.8-6.8-0.5c-0.9,5.9,6.4,13.7,15.9,11.9C1801.7,632.7,1800.7,625.8,1800.5,621.2z
		"/>
	<path class="st3" d="M1791,614.9c0.6-4.3-4.9-8-7.6-3.5c-2.7,4.5,2,14.5,11.3,15.5C1790.8,624,1790.4,619.2,1791,614.9z"/>
</g>
<g>
	<path class="st2" d="M1700.2,388.1c-8.9,7.7-8.4,28.8,8.2,38.3c-12-10-4.4-21.7,1.3-28.6S1708.2,381.2,1700.2,388.1z"/>
	<path class="st2" d="M1715.9,459.4c4-7.8,10.3-15.4,20-15.9c-16.7-9.2-36.3,2.3-36.9,13C1698.4,467.1,1712,467.2,1715.9,459.4z"/>
	<path class="st2" d="M1686,436.9c-5.4,9.1,5.3,14.5,11.2,7.6s16.1-16.3,28-6.3C1712.9,423.6,1692,426.8,1686,436.9z"/>
	<path class="st2" d="M1777.8,437.4c-8.6-1.4-17.8-5.1-21.3-14.2c-3.6,18.8,13.3,33.9,23.6,31.2
		C1790.5,451.8,1786.4,438.8,1777.8,437.4z"/>
	<path class="st2" d="M1781.6,424.9c-2.5-11.5-21.4-21-37.6-11c14.4-5.8,21.2,6.4,24.6,14.7C1772,437,1783.9,435.3,1781.6,424.9z"/>
	<path class="st2" d="M1756.4,404.4c6.8,5.4,19.2-0.1,14.3-9.6c-5-9.5-27.5-11.9-39.1,3.3C1740.7,394.6,1749.5,398.9,1756.4,404.4z"
		/>
	<path class="st2" d="M1705,411.1c19.1,0.7,30.8-16.9,27.3-28.2c-3.1-10.1-14.3-5.8-13.1,3.2C1720.3,395.1,1720.4,408.9,1705,411.1z
		"/>
	<path class="st2" d="M1726.5,405.5c-4.6,7.4-11.6,14.4-21.3,14.2c15.9,10.5,36.4,0.7,38-9.8S1731.2,398.1,1726.5,405.5z"/>
	<path class="st2" d="M1718,429.6c9.8-0.4,16.7,6.6,21.4,13.9s18.2,6.1,16.6-4.5C1754.4,428.5,1733.9,418.9,1718,429.6z"/>
	<path class="st2" d="M1777,470.6c9,0.1,12-11.4,1.6-13.4c-11.6-2.2-27.8,11.4-24.9,30.3C1754.2,471.9,1768,470.5,1777,470.6z"/>
	<path class="st2" d="M1735.4,455.3c-8.8,0-14.9,12-5.2,16.4c9.7,4.3,28.9-7.8,28.5-26.9C1753.9,453.3,1744.2,455.3,1735.4,455.3z"
		/>
	<path class="st2" d="M1729,478.9c-5.3-7.3-12.1-19.5,0.5-28.6c-17.1,8.5-18.9,29.5-10.5,37.8C1726.6,495.4,1734.4,486.3,1729,478.9
		z"/>
	<path class="st2" d="M1751,482.5c0.3-10.5-11.6-10.1-13.5-1.2c-1.8,8.8-6.1,22-21.4,19C1733.9,507.1,1750.7,494.2,1751,482.5z"/>
	<path class="st2" d="M1689.8,490.5c8.2-3.8,21.4-8.3,28.1,5.8c-5.2-18.4-25.5-24.1-35.2-17.3
		C1674.1,485.1,1681.6,494.3,1689.8,490.5z"/>
	<path class="st2" d="M1712.4,471.9c-9.7-0.7-15.9-8.5-19.7-16.3c-3.8-7.9-17.4-8.1-17,2.6C1676.2,468.7,1695.5,480.6,1712.4,471.9z
		"/>
	<path class="st2" d="M1668.9,426.1c-2.1-8.5-15.3-11.6-17.1-1c-1.8,10.5,14.6,26.2,33,21.2C1675.4,443.4,1671,434.6,1668.9,426.1z"
		/>
	<path class="st2" d="M1685.3,474.2c-15.6,0.8-18-12.9-18.5-21.9c-0.5-9-12.3-11.2-13.5-0.7C1652,463.4,1666.7,478.5,1685.3,474.2z"
		/>
	<path class="st2" d="M1656.7,400.7c-10.5-0.1-9.9,11.8-1,13.5c8.8,1.7,22.1,5.8,19.4,21.2C1681.6,417.4,1668.5,400.8,1656.7,400.7z
		"/>
	<path class="st2" d="M1724.1,363.5c6.9-5.7,1.8-16.5-7.4-11.3c-10.3,5.9-13.7,26.7,0.7,39.2
		C1707.5,379.3,1717.1,369.3,1724.1,363.5z"/>
	<path class="st2" d="M1688.8,429.4c10.5,1.8,12.2-11.6,4.9-16.5c-7.3-4.9-14.1-12-13.5-21.7
		C1669.2,406.8,1678.4,427.6,1688.8,429.4z"/>
	<path class="st2" d="M1703.5,359.7c4.4-7.8,12.7-19,26.3-11.6c-14.9-12-34.8-4.9-38.7,6.2C1687.5,364.4,1699.1,367.6,1703.5,359.7z
		"/>
	<path class="st2" d="M1701.3,369.3c-9.8-4.2-28.8,8-28.2,27.1c4.9-8.5,14.5-10.7,23.2-10.7C1705,385.7,1711.1,373.5,1701.3,369.3z"
		/>
	<path class="st2" d="M1718,374.6c18.8,3.2,33.5-14.1,30.7-24.4c-2.9-10.3-15.7-5.9-16.9,2.8C1730.5,361.7,1727.1,371,1718,374.6z"
		/>
	<path class="st2" d="M1744.4,367.7c9.1-3.5,18,0.9,24.8,6.3c6.8,5.4,19.2-0.1,14.3-9.6C1778.4,355,1755.9,352.5,1744.4,367.7z"/>
	<path class="st2" d="M1744.9,385.3c8-4.1,21.1-8.9,28.2,4.9c-5.8-18.2-26.3-23.3-35.6-16.2C1729,380.3,1736.9,389.3,1744.9,385.3z"
		/>
	<path class="st2" d="M1791.9,395.8c4.4,7.6,18,6.7,16.7-3.9c-1.2-10.6-21.4-21-37.6-10.9C1780.8,381,1787.5,388.3,1791.9,395.8z"/>
	<path class="st2" d="M1789.3,394.4c-3.6,18.8,13.3,33.9,23.6,31.2c10.3-2.7,6.3-15.6-2.4-17
		C1801.9,407.2,1792.7,403.5,1789.3,394.4z"/>
	<path class="st2" d="M1786.9,400.5c1.4-8.9-9.6-13.5-13.1-3.5c-3.8,11.2,7.3,29,26.5,28.9C1784.9,423.3,1785.5,409.4,1786.9,400.5z
		"/>
	<path class="st2" d="M1819.5,440.9c-3.9-11.1-23.9-18.2-38.7-6.1c13.6-7.6,21.8,3.6,26.3,11.5
		C1811.5,454.2,1823,450.9,1819.5,440.9z"/>
	<path class="st2" d="M1778.1,473.2c18.9-2.4,27.6-21.8,22.2-32.2c-4.8-9.5-15-3.3-12.4,5.3C1790.5,454.9,1792.9,468.6,1778.1,473.2
		z"/>
	<path class="st2" d="M1792,469.8c-7.1,5-5.2,18.5,5.3,16.3c10.4-2.1,19-23.1,7.6-38.4C1805.8,457.5,1799.2,464.8,1792,469.8z"/>
	<path class="st2" d="M1799.1,489.8c-11.3-3.3-28.7,8.6-27.7,27.8c1.8-15.4,15.8-15.5,24.7-14.6
		C1805.1,504,1809.3,492.8,1799.1,489.8z"/>
	<path class="st2" d="M1784.1,483.5c0.4-10.5-11.6-10.2-13.5-1.4c-1.9,8.8-6.4,22-21.6,18.8C1766.8,507.9,1783.7,495.3,1784.1,483.5
		z"/>
	<path class="st2" d="M1749.7,493.5c-4,15-17.8,13.1-26.5,10.9s-14.4,8.3-4.8,12.7C1729.1,521.9,1748,512.5,1749.7,493.5z"/>
	<path class="st2" d="M1762.2,506.2c-10.5-1.6-25.9,15-20.6,33.3c2.6-9.5,11.4-13.9,19.9-16.1
		C1769.9,521.1,1772.7,507.9,1762.2,506.2z"/>
	<path class="st2" d="M1717.8,523.4c-8-5.7-9.1-15.5-8.3-24.2c0.8-8.7-10.7-16-15.9-6.7C1688.4,501.9,1698.7,522.1,1717.8,523.4z"/>
	<path class="st2" d="M1741,515.5c-5.4,8.2-15.1,9.8-23.8,9.3c-8.8-0.5-15.5,11.4-6,16.1c3.3,1.7,7.9,1.4,12.5-0.5v182h3.2V538.9
		C1734.2,534.7,1740.7,526.4,1741,515.5z"/>
	<path class="st2" d="M1701.9,520.4c-7.9-4.4-19.2-12.5-11.7-26.2c-11.9,15-4.7,34.8,6.4,38.6
		C1706.7,536.3,1709.8,524.7,1701.9,520.4z"/>
	<path class="st2" d="M1679,512c-1.2-8.6-14.1-13.1-16.9-2.8c-2.9,10.3,11.8,27.6,30.7,24.4C1683.7,529.9,1680.3,520.6,1679,512z"/>
	<path class="st2" d="M1658.2,489.6c8.6,1.9,17.5,6,20.5,15.3c4.6-18.6-11.5-34.6-22-32.5C1646.3,474.6,1649.7,487.8,1658.2,489.6z"
		/>
	<path class="st2" d="M1630,481.3c15.5,1,16.4,14.8,16,23.8c-0.5,9,11,12.4,13.3,2.2C1662,495.7,1649,479.1,1630,481.3z"/>
	<path class="st2" d="M1650.6,472.1c2.6-10.1-12.2-26.6-30.5-23.1c8.9,3.4,12.4,12.3,13.9,20.7
		C1635.4,478.3,1648.1,482.3,1650.6,472.1z"/>
	<path class="st2" d="M1651.5,451.1c-8.9-4-12-13.4-12.9-22.1c-0.9-8.7-13.6-13.5-16.9-3.4C1618.5,435.7,1632.6,453.6,1651.5,451.1z
		"/>
	<path class="st2" d="M1635.8,397.4c-7.1,9.4-2.2,29.9,15.9,35.8c-13.7-7.3-8.8-20.3-4.6-28.3
		C1651.2,396.8,1642.2,388.9,1635.8,397.4z"/>
	<path class="st2" d="M1657.2,390.1c9.3,1.3,13.9-10.1,3.5-13.5c-11.6-3.8-29.9,8-29.5,27.8C1633.6,388.4,1648,388.8,1657.2,390.1z"
		/>
	<path class="st2" d="M1673.1,372.9c8.4,2.7,17.8-7.1,9.8-14.1c-8-7-29.9-1.2-35.2,17.1C1655,369.5,1664.8,370.4,1673.1,372.9z"/>
</g>
</svg>
